<svg xmlns="http://www.w3.org/2000/svg" viewBox="0 0 49.368 49.368"><g fill="#b7b7b7"><path d="M44.764 19.413c-4.766-1.693-9.439 1.657-12.797 4.684-1.549-2.784-4.795-4.645-7.948-4.806-2.297-.117-5.972.767-7.239 3.012-1.643-3.287-6.559-3.095-9.66-1.541.262-1.05.402-2.156.527-3.225 2.733.414 5.917.144 8.637-.287.128.035.279 0 .339-.124.198-.404.176-.817.138-1.246l.438.032c.073.005.069-.103 0-.112-.149-.019-.299-.03-.449-.048-.008-.085-.016-.17-.022-.257a57.114 57.114 0 0 0-.144-1.706c.233-.3-.021-.811-.497-.745-4.141.574-8.379-.362-12.549-.057-.356.026-.524.524-.273.716-.008.009-.019.012-.024.023-.715 1.391-.707 2.986-.913 4.524-.311 2.32-.702 4.626-1.056 6.94-.022.147.02.27.095.366-.026.151.037.304.239.344.709.139 1.44.189 2.159.249.645.054 1.361.206 1.94-.131a.31.31 0 0 0 .158-.271c2.271-1.659 5.81-1.316 5.971 2.096.067 1.421-.042 2.906-1.69 3.263-1.645.356-3.47-.042-4.106-1.746-.125-.334-.545-.394-.748-.182-.747-.224-1.568-.302-2.337-.342-.867-.046-1.859-.178-2.683.124a.387.387 0 0 0-.247.314c-.004.018-.02.029-.021.049-.184 8.705 12.702 8.941 16.64 2.98.48 2.503 4.532 4.047 6.671 4.132 3.473.137 7.053-1.785 9.049-4.616 2.312 3.26 6.742 4.991 10.681 4.362 4.276-.682 5.962-4.129 6.283-8.134.287-3.558-.9-7.333-4.562-8.634zM41.993 35.29c-2.247.143-4.191-.506-5.978-1.536 3.151.177 6.307.354 9.462.431-.966.623-2.129 1.019-3.484 1.105zm6.578-5.856c-1.033-.113-2.076-.156-3.112-.226-.068-.004-.067.1 0 .106 1.025.085 2.052.198 3.08.241a8.567 8.567 0 0 1-.597 1.756c-1.245-.051-2.505 0-3.749.016-.077.001-.077.119 0 .12 1.217.016 2.451.063 3.67.017-.515 1.023-1.231 1.908-2.158 2.564-3.304-.213-6.621-.308-9.93-.41-1.078-.646-2.101-1.428-3.097-2.259-.009-.007-.021-.004-.03-.01.028-.238-.236-.487-.462-.322-.409.298-.803.606-1.196.913a50.283 50.283 0 0 0-3.452.045c-.045.002-.045.068 0 .07 1.076.049 2.161.066 3.24.047-.434.34-.864.678-1.302 1.001-1.853.165-3.65.191-5.507-.094-.053-.008-.076.072-.023.081 1.753.295 3.545.385 5.312.171-.518.373-1.046.73-1.615 1.028-2.079-.086-4.151-.006-6.225.175-.044.004-.045.073 0 .07 2.003-.169 4.004-.19 6.01-.144a8.703 8.703 0 0 1-1.561.611c-1.529.423-3.11.492-4.637.006-1.18-.375-3.881-1.733-4.066-3.2-.018-.144-.121-.218-.231-.248-.101-.375-.669-.568-.948-.144-1.994 3.038-5.361 4.078-8.863 3.82-3.393-.249-5.516-2.328-6.382-5.475.721.102 1.494.018 2.213.033.744.015 1.502.05 2.245-.015.208 2.039 2.698 2.589 4.438 2.456 2.154-.164 3.158-1.419 3.28-3.52.116-1.99-.455-3.876-2.438-4.675-1.847-.744-3.774-.157-5.04 1.281-.468-.192-1.021-.151-1.526-.154a26.38 26.38 0 0 0-1.732.035c.458-2.106.814-4.234 1.12-6.366.238-1.651.683-3.418.252-5.044 2.121.316 4.274.374 6.415.452 2.045.074 4.176.334 6.164-.228a60.89 60.89 0 0 0-.125 1.483l-.013.176c-3.445-.378-6.923-.526-10.384-.604-.067-.002-.066.101 0 .103 3.467.119 6.915.399 10.372.652-.022.267-.04.53-.01.786-2.637-.319-5.694-.463-8.299.012-.142-.167-.496-.146-.564.114l-.047.183a10.74 10.74 0 0 0-2.929-.339c-.067.001-.067.104 0 .103.986-.007 1.945.126 2.899.353-.116.446-.235.897-.347 1.357a7.526 7.526 0 0 0-2.131-.129c-.067.005-.068.11 0 .105a8.264 8.264 0 0 1 2.107.134 22.152 22.152 0 0 0-.341 1.666c-.668.037-1.318.007-1.98-.153-.058-.014-.083.074-.025.09.654.17 1.322.24 1.991.178-.051.342-.096.683-.119 1.023-.041.028-.088.053-.127.082a.367.367 0 0 0 .106.666c.063.272.44.282.547.014.025-.062.04-.13.063-.193 3.754-1.65 7.069-1.586 9.662 1.975.278.382.872.161.771-.325-.008-.04-.023-.073-.032-.111.133-.056.227-.18.163-.354-.349-.948 3.784-2.364 4.235-2.464a8.459 8.459 0 0 1 3.998.079c2.552.692 4.231 2.413 6.026 4.235.128.13.28.133.402.07.156.118.359.154.547.01 2.732-2.107 5.54-4.667 9.174-4.897 1.445-.092 2.692.223 3.725.819a14.925 14.925 0 0 0-4.441.047c-.067.01-.038.111.028.102 1.616-.23 3.162-.17 4.764.063a6.17 6.17 0 0 1 1.57 1.526c-2.176-.125-4.367-.152-6.547-.206-.065-.002-.065.098 0 .101 2.215.1 4.439.231 6.657.258.805 1.193 1.262 2.685 1.307 4.306-.897-.02-1.797 0-2.694.002-.072 0-.072.112 0 .112.898.003 1.798.022 2.696.002a9.783 9.783 0 0 1-.215 2.207z"/><path d="M30.152 28.346c-1.432-1.775-4.421-4.285-6.879-4.13-2.067.13-2.779 1.998-2.714 3.861.171 4.916 7.553 4.664 9.459 1.087a.347.347 0 0 0-.004-.317c.196-.056.303-.296.138-.501zm-8.522-.552c-.079-5.536 5.844-.226 7.917.914-2.185 1.582-7.848 3.95-7.917-.914zM45.262 27.72c-.276-1.889-1.629-3.852-3.695-3.938-2.376-.099-4.883 2.41-6.52 3.884-.286.258-.116.608.159.723-.151.108-.224.344-.061.499 1.787 1.696 4.565 3.216 7.108 3.095 2.199-.104 3.3-2.266 3.009-4.263zm-2.541 3.167c-.815.282-1.966-.058-2.794-.3-1.603-.469-2.998-1.266-4.374-2.191a.472.472 0 0 0 .142-.08 41.212 41.212 0 0 1 3.853-2.92c1.034-.689 2.046-1.245 3.282-.502.794.478 1.309 1.499 1.484 2.366.266 1.324-.131 3.121-1.593 3.627zM45.878 32.837c-2.805-.143-5.624-.179-8.433-.221-.063-.001-.062.094 0 .097 2.807.113 5.624.233 8.433.244.078 0 .077-.116 0-.12zM47.789 24.813c-.918-.17-1.877-.062-2.777.16-.073.018-.042.129.031.112.919-.214 1.798-.212 2.732-.168.058.002.073-.093.014-.104z"/></g></svg>