<svg xmlns="http://www.w3.org/2000/svg" viewBox="0 0 49.16 49.16"><g fill="#b7b7b7"><path d="M14.997 22.669c-.029-.003-.052.007-.08.009.002-.648-.034-1.296-.038-1.944-.003-.58.07-1.16-.155-1.695l.006.004c3.338.918 7.457 1.268 10.897 1.111.536-.024.776-.713.472-1.05.068-1.163.125-2.32.129-3.486a.538.538 0 0 0-.133-.362c.02-.279-.149-.583-.476-.548-5.245.56-10.513-.244-15.78-.031-.211-.01-.429.094-.463.321-.295 1.961-.236 3.975-.355 5.955-.117 1.941-.521 3.975-.165 5.895.002.008.01.012.012.02-.274.357-.09 1.046.453.986 3.048-.336 8.632-.973 10.341 2.371 1.506 2.946-2.059 4.607-4.392 4.756-1.741.111-3.49-.301-5.194-.592-.225-.038-.427.142-.476.335a.438.438 0 0 0-.505.176c-.243.344-.272.817-.393 1.218a11.15 11.15 0 0 1-.502 1.345c-.029.064-.02.121-.012.177-.117.14-.119.386.069.508 5.329 3.463 16.053 2.291 18.715-4.334 2.99-7.441-6.708-10.545-11.975-11.145zm9.029 12.87c-4.277 3.93-10.1 3.62-15.246 2.088.252-.382.487-.775.686-1.188.191-.398.463-.864.433-1.312 3.473 1.433 11.34 2.028 11.458-3.527.118-5.538-7.958-5.726-11.822-4.998.621-1.629.648-3.472.752-5.202.118-1.964.248-3.991.009-5.952 4.812.654 9.932 1.128 14.745.342.008 1.015.053 2.024.111 3.036-3.289-.541-7.119-.716-10.353-.291a.29.29 0 0 0-.247.252c-.161-.086-.384-.015-.495.139-.365.506-.333 1.203-.367 1.807-.041.738-.069 1.482.017 2.217a.636.636 0 0 0 .761.564.466.466 0 0 0 .372.315c2.462.396 5.059.749 7.264 2.006 3.581 2.042 5.313 6.589 1.922 9.704z"/><path d="M35.922 2.109c-.011-.027-.014-.056-.026-.083-.16-.342-.718-.327-.884 0-.263.521-.266 1.056-.416 1.619a6.016 6.016 0 0 1-.88 1.87 5.953 5.953 0 0 1-2.507 2.09c1.125-2.175.188-5.382-.693-7.397-.108-.247-.349-.249-.529-.133a.454.454 0 0 0-.435.094c-1.438 1.339-2.452 2.809-4.527 3.212-2.581.5-4.2-.916-5.475-2.985-.24-.389-.732-.196-.802.153-.248-.099-.542-.052-.686.248-.962 1.999-.97 4.652.08 6.659-.415-.069-.839-.091-1.255-.208a5.542 5.542 0 0 1-2.23-1.235c-1.213-1.106-1.777-2.632-1.966-4.229-.036-.301-.268-.431-.483-.401a.62.62 0 0 0-.568.008C2.677 5.925-.72 17.574.311 26.992a30.41 30.41 0 0 0 5.386 14.241c1.873 2.65 4.961 7.217 8.607 6.861.281-.028.39-.457.071-.528-3.678-.82-7.534-6.677-9.212-9.644-2.195-3.883-3.508-8.242-3.718-12.705-.39-8.33 2.683-18.209 10.372-22.433a6.16 6.16 0 0 0 1.945 4.123c1.137 1.058 3.425 2.313 4.999 1.65a.578.578 0 0 0 .236-.185c.263-.01.506-.214.401-.541-.73-2.281-.875-4.102-.295-6.414 1.217 2.125 3.056 3.518 5.706 3.24 2.029-.213 4.137-1.503 5.144-3.324.169.742.341 1.485.441 2.237-.5.024-1.005.112-1.475.224-.162.038-.093.281.068.247.495-.102.97-.124 1.452-.136.028.277.044.555.043.835 0 .082-.019.148-.023.227-.786-.039-1.61.034-2.38.089-.111.008-.111.165 0 .172.757.054 1.569.126 2.344.091a5.564 5.564 0 0 1-.295 1.269c-1.311-.159-2.708 0-4.002.181-.105.015-.081.198.025.186 1.298-.139 2.574-.072 3.866-.1-.173.419-.369.838-.582 1.311-.184.409.244 1.055.707.707l.014-.013c.087.04.185.064.298.047a6.67 6.67 0 0 0 4.225-2.428c.678-.849 1.413-2.2 1.42-3.415a28.32 28.32 0 0 1 2.84 2.249c-.822 0-1.646.018-2.466.026-.197.002-.197.304 0 .306.946.009 1.899.036 2.847.023.594.554 1.17 1.122 1.708 1.718-1.867-.012-3.743.087-5.606.142-.149.004-.15.232 0 .232 1.96-.004 3.936.042 5.895-.046.432.494.851.997 1.243 1.518-5.356.325-10.695.439-16.059.218-.12-.005-.119.179 0 .186 5.442.332 10.888.362 16.328-.028.456.629.891 1.271 1.288 1.935-6.565-.16-13.147-.124-19.714-.089-.131.001-.131.201 0 .204 6.583.141 13.181.283 19.765.227a.158.158 0 0 0 .125-.057c.322.555.628 1.119.907 1.696-6.887.043-13.729.031-20.61-.367-.107-.006-.104.155 0 .165 6.893.665 13.879.969 20.8.574.299.647.574 1.305.817 1.978a.173.173 0 0 0-.113-.054c-1.425-.148-2.94-.016-4.373.025-.181.005-.181.276 0 .281 1.432.04 2.948.172 4.373.025a.161.161 0 0 0 .153-.149c.214.601.419 1.206.586 1.827-.012-.003-.019-.014-.033-.014-1.616-.027-3.285.098-4.903.166-.116.005-.109.161 0 .176 1.58.207 3.375.275 4.951.011.028-.005.04-.024.058-.038.189.739.352 1.488.474 2.252-1.325-.176-2.757-.02-4.085.007-.188.004-.188.288 0 .292 1.345.027 2.796.189 4.133.002.092.63.17 1.264.215 1.91-2.131-.112-4.31.101-6.447.078-.159-.002-.158.24 0 .246 2.115.087 4.359.261 6.47-.009.041.711.063 1.427.045 2.155-.04 1.56-.217 3.14-.507 4.709-.462-.031-.932.004-1.392.01-.722.009-1.448-.007-2.166.067a.132.132 0 0 0 0 .264c.718.074 1.445.058 2.166.067.437.005.882.035 1.32.012-.112.56-.239 1.117-.381 1.672-.012-.048-.039-.092-.093-.099-1.928-.273-4.042-.034-5.986.016-.161.004-.161.246 0 .25 1.945.05 4.058.289 5.986.016.024-.003.039-.02.055-.034a30.731 30.731 0 0 1-.655 2.176c-1.138-.074-2.325.012-3.461.043-.158.004-.158.242 0 .246 1.097.031 2.243.11 3.346.049-.196.55-.403 1.096-.63 1.632a.166.166 0 0 0-.092-.044c-1.315-.141-2.701 0-4.023.026-.179.004-.179.274 0 .278 1.311.026 2.687.163 3.992.028a29.33 29.33 0 0 1-.657 1.402 28.233 28.233 0 0 1-4.606.131c-.127-7.729.484-15.488.184-23.194-.015-.383-.635-.512-.704-.095l-.008.054c-.011.001-.022-.006-.033-.004-1.531.215-2.896 1.244-4.402 1.675-1.691.485-3.412.684-5.162.805-.3.021-.46.375-.346.598-.15.54-.036 1.17.005 1.72.045.615.066 1.235.166 1.844.018.108.094.169.184.208.052.121.16.212.319.201 1.3-.092 2.563-.01 3.846.132-.304 2.675-.213 5.395-.301 8.085-.081 2.469-1.024 6.235-.481 8.578.126.545.418.907.809 1.149a208.773 208.773 0 0 1-5.564-.487c-.129-.013-.16.209-.031.228 4.784.698 9.614 1.169 14.45 1.248-1.584 2.318-3.547 4.339-5.913 5.857-.621-.013-1.263.055-1.868.08-.147.006-.147.222 0 .229.414.017.845.054 1.274.071-.459.271-.929.527-1.417.759a6.196 6.196 0 0 0-.827-1.999c1.316-.027 2.626.041 3.942.005.209-.006.197-.291 0-.316-1.339-.17-2.746-.065-4.105.08-.58-.791-1.375-1.377-2.397-1.421-2.175-.093-4.225 2.24-5.372 3.839a.513.513 0 0 0-.232-.121c-.941-.219-1.994-.078-2.976.116-.869-2.022-3.607-3.812-5.81-3.588-1.781.181-3.156 1.902-2.249 3.61.148.278.606.088.511-.215-.773-2.455 2.365-2.684 3.852-1.902 1.145.602 1.855 1.533 2.741 2.38-.15.21-.033.592.283.579 1.16-.046 2.358.181 3.505.076a.588.588 0 0 0 .507-.452c.119.06.265.061.371-.055.883-.966 1.896-1.846 3.037-2.497.997-.569 1.789-1.021 2.959-.013.697.6 1.058 1.574 1.173 2.456a.619.619 0 0 0 .235.417c.1.299.389.55.741.438 9.285-2.95 13.702-14.256 14.168-23.211.502-9.682-3.974-19.683-13.069-23.818zm-1.379 36.247c-.498-.548.372-5.54.403-6.263.146-3.367.32-6.832-.208-10.173.404-.209.435-1.01-.109-1.087-1.433-.201-2.868-.103-4.281.181.058-.491.089-.986.125-1.479.034-.455.127-.967.073-1.436 2.729.287 6.665-.154 8.67-2.066-1.058 7.391-.779 15.131-.584 22.559-1.114.088-3.504.407-4.089-.236zm8.583 1.963c-.003 0-.003-.003-.006-.003a625.57 625.57 0 0 1-4.96-.296c.289-.025.561-.044.803-.048a.653.653 0 0 0 .636-.466.563.563 0 0 0 .339-.555c-.006-.233-.004-.467-.009-.7 1.458.18 2.938.178 4.397.006a25.409 25.409 0 0 1-1.2 2.062z"/><path d="M41.023 42.374c-8.976-.525-17.944-.822-26.936-.769-.12.001-.12.183 0 .186 8.981.243 17.963.523 26.936.962.244.013.243-.364 0-.379zM39.622 43.811c-6.048-.377-12.13-.553-18.189-.629-.1-.001-.098.148 0 .155 6.048.415 12.128.733 18.189.847.242.004.238-.358 0-.373zM47.319 27.144c-2.27-.034-4.553.017-6.821.095-.149.005-.149.227 0 .232 2.269.078 4.552.128 6.821.095.271-.004.272-.418 0-.422zM46.969 24.913c-1.318-.134-2.699.001-4.023.025-.186.003-.186.285 0 .288 1.324.023 2.705.159 4.023.025a.17.17 0 0 0 0-.338z"/></g></svg>