<svg xmlns="http://www.w3.org/2000/svg" viewBox="0 0 48.334 48.334"><g fill="#1d1d1b"><path d="M27.53 8.391a.486.486 0 0 0-.374-.16c-5.574-.028-11.303-.4-16.854.187-.203-.168-.526-.193-.689.106C7.031 13.25 4.054 17.74 1.455 22.45c-.133.241.011.44.205.495-.186.853.719 1.625 1.681 1.836 1.379.303 3.001.079 4.401.037 1.918-.057 3.836-.132 5.75-.264.031-.002.054-.015.081-.022 2.254.714 3.231 4.45 1.862 6.307-1.53 2.075-5.516 1.376-6.581-.785-.192-.389-.76-.24-.876.101a.417.417 0 0 0-.325-.187c-1.22-.092-2.448-.094-3.671-.126-.887-.023-1.984-.246-2.833.021-.719.226-.957.773-.975 1.389a.152.152 0 0 0-.173.18C2.086 42.319 17.13 43.077 22.79 34.949a.376.376 0 0 0 .062-.3c.171-.174.22-.441-.027-.64-3.084-2.472-2.434-8.25-.306-11.232.104-.146-.016-.302-.161-.343a.403.403 0 0 0 .084-.311c-.604-3.34-4.96-4.515-8.071-4.806-.006-.053-.01-.108-.035-.158-.219-.445-.647-.759-.537-1.314.11-.555.603-.733.869-1.161 3.131.08 6.381.514 9.487.295.295-.021.471-.304.447-.55 1.253-1.702 2.796-3.495 3.498-5.475.131-.371-.249-.632-.57-.563zM16.24 31.457c.487-.681.734-1.607.756-2.573a6.52 6.52 0 0 0 2.863-.249c-.048.982.023 1.96.267 2.866-1.441.185-2.856.401-4.316.445.156-.15.302-.31.43-.489zm5.689 3.075a18.624 18.624 0 0 1-1.523 1.517c-.017-.005-.025-.019-.045-.019-4.898-.024-9.795.057-14.692.128-.072.001-.072.111 0 .113 4.783.07 9.567.145 14.351.127a14.821 14.821 0 0 1-2.274 1.591c-.003 0-.004-.003-.007-.003-3.266.164-6.525.245-9.796.225-.105-.001-.103.156 0 .162 3.016.168 6.039.169 9.055.004a11.271 11.271 0 0 1-6.683.993c-4.57-.695-7.189-3.534-9.482-7.144-.151-1.172.27-1.548 1.575-1.656.508-.042 1.066.056 1.573.083 1.223.064 2.447.157 3.671.161.208.001.335-.115.383-.261 1.083 2.602 5.244 3.341 7.463 1.654 1.538.068 3.204.032 4.726-.34.338 1.032.892 1.958 1.705 2.665zm3.549-23.633c-.016-.006-.025-.02-.044-.022-2.944-.252-5.981-.011-8.922.206-.094.007-.096.151 0 .148 2.927-.1 5.856.057 8.779-.018a50.492 50.492 0 0 0-.912 1.623c-4.537-.39-9.106-.542-13.653-.767-.139-.007-.136.204 0 .214 4.479.329 8.972.73 13.462.902-.147.269-.293.541-.439.8-3.034-.547-6.421-.181-9.428.193-.015.002-.021.015-.035.018-.311-.053-.626.092-.898.32-.94-.013-1.895.045-2.819.093-.118.006-.118.177 0 .183.809.042 1.641.088 2.467.091-.199.263-.339.557-.38.802-.039.231-.024.49.026.745-1.239.119-2.479.313-3.707.484-.095.013-.074.178.023.169 1.246-.115 2.506-.226 3.751-.396.078.245.187.479.345.666-.077.125-.051.318.122.368 1.186.341 2.418.613 3.602.996-2.608.001-5.218.048-7.823.107-.095.002-.095.146 0 .148 2.933.066 5.874.127 8.809.11.107.043.217.076.323.122 1.093.477 1.835 1.14 2.535 1.909-4.868-.237-9.769-.163-14.643-.296-.134-.004-.133.2 0 .207 4.954.257 9.978.583 14.939.421.286.329.572.674.88 1.031a.309.309 0 0 0 .217.116c-.699.822-1.253 1.885-1.634 3.049-1.193.057-2.351.227-3.557.176-.162-.007-.159.238 0 .25 1.113.083 2.336.138 3.447-.088a11.6 11.6 0 0 0-.429 2.305c-.966.23-1.879.396-2.885.434-.006-2.111-1.069-4.363-3.064-4.676-.011-.216-.153-.417-.437-.406-1.78.065-3.559.146-5.339.189-.974.024-6.173.699-5.78-1.443 3.081-4.151 5.575-8.8 8.024-13.338 5.334.574 10.831.274 16.199.246a14.267 14.267 0 0 0-1.122 1.609z"/><path d="M39.091 16.863c-.006-.001-.008-.006-.014-.007-.021-.001-.042-.001-.062-.003-.086-.008-.17-.025-.256-.031.67-.907 1.182-2.008 1.697-2.944A40.657 40.657 0 0 1 43.46 9.17c.24-.323-.108-.647-.433-.615a.364.364 0 0 0-.249-.206c-2.713-.689-5.912-.472-8.672.132a.21.21 0 0 0-.288 0l-.091.082-.144.031c-.154.037-.225.17-.23.307-5.554 4.993-11.674 13.543-10.596 21.308.897 6.467 7.001 11.09 13.48 9.993 5.745-.972 11.31-6.433 12.023-12.27.703-5.761-3.674-10.501-9.169-11.069zm7.88 10.552c-1.529-.083-3.121.135-4.62.35-.146.021-.112.278.035.259 1.523-.199 3.03-.17 4.551-.232a10.155 10.155 0 0 1-.372 1.903c.042-.095-.004-.232-.13-.218-1.469.153-2.904.411-4.385.464-.185.007-.186.291 0 .288 1.463-.018 3.005-.07 4.425-.452a.134.134 0 0 0 .083-.065 11.313 11.313 0 0 1-1.015 2.35c-1.936.207-3.812.506-5.766.505-.183 0-.183.282 0 .285 1.839.028 3.775-.028 5.574-.472-.112.181-.206.365-.33.545-.317.461-.673.898-1.045 1.323-2.803.161-5.604.521-8.399.792-.138.013-.141.23 0 .218 2.698-.221 5.417-.367 8.106-.68-.594.64-1.24 1.238-1.936 1.771-3.164.263-6.323.586-9.486.871-.152.014-.154.252 0 .239 2.997-.255 5.998-.479 8.993-.75-3.464 2.438-7.908 3.374-11.889 1.282-12.366-6.499-1.791-21.795 4.349-28.745 2.906-.243 5.708-.099 8.596-.1-.779.814-1.411 1.749-1.991 2.716-1.526.195-3.021.458-4.569.509-.165.005-.166.257 0 .257 1.428-.005 2.935-.07 4.349-.386-.117.201-.235.402-.35.604-.304.537-.663 1.084-1.018 1.636-1.278.003-2.584.188-3.854.29-.145.012-.148.236 0 .228 1.199-.058 2.438-.054 3.64-.185-.411.647-.804 1.304-1.09 1.971-1.781-.032-3.581.063-5.35.076-.145.001-.145.224 0 .225 1.72.012 3.472.104 5.205.08a.515.515 0 0 0 .244.466l.091.049c.134.072.33.054.44-.061v.004c.01-.009.017-.021.026-.03 2.092.186 3.855.895 5.259 1.937-4.45-.18-8.915-.164-13.364-.006-.115.004-.116.18 0 .179 4.646-.014 9.278.104 13.92.275a8.87 8.87 0 0 1 2.694 4.154c-2.262-.044-4.58.18-6.818.45-.136.016-.143.227 0 .218 2.304-.15 4.614-.176 6.916-.312.244.936.345 1.919.281 2.925z"/><path d="M37.934 24.421c-1.609-.925-6.587-4.035-6.816-.059-.003.051.009.093.019.137-.038.048-.078.096-.088.172-.352 2.703-.418 5.473-.481 8.198-.019.802-.201 1.826.714 2.165 1.164.432 2.678-.874 3.459-1.537 1.715-1.457 3.563-2.639 5.331-4.001 2.746-2.115-.179-3.95-2.138-5.075zm-2.173 6.583c-.73.593-1.389 1.276-2.127 1.858a3.005 3.005 0 0 1-1.903.917c.014-.607.023-1.214.03-1.822.035-2.367.112-4.745-.059-7.107a.483.483 0 0 0 .421-.352c.631-2.29 3.546.051 4.444.577.802.469 2.45 1.05 2.99 1.814 1.092 1.546-2.762 3.275-3.796 4.115zM20.712 34.365c-3.393-.298-6.914-.02-10.32.032-.088.001-.088.136 0 .137 3.405.052 6.927.329 10.32.032.128-.012.129-.19 0-.201zM20.712 23.247c-2.332.013-4.666.048-6.996.121-.1.003-.1.152 0 .155 2.33.073 4.664.109 6.996.121.255.002.256-.398 0-.397zM44.844 21.668c-1.528.003-3.062.164-4.586.27-1.236.086-3.608.673-4.72.06-.097-.054-.183.092-.087.149 1.044.614 2.587.194 3.749.14 1.877-.087 3.778-.104 5.644-.319.186-.022.197-.3 0-.3zM41.35 9.622c-1.931-.005-3.845.072-5.777-.04-.152-.009-.149.223 0 .236 1.907.162 3.866.297 5.777.135.209-.018.216-.331 0-.331z"/></g></svg>