<svg xmlns="http://www.w3.org/2000/svg" viewBox="0 0 48.491 48.491"><g fill="#b7b7b7"><path d="M25.594.525c-.075-.279-.34-.339-.549-.258a.499.499 0 0 0-.451-.262C11.312-.275-1.511 11.636.366 25.443c.026.194.148.287.29.304a.338.338 0 0 0 .123.133c8.208 4.956 18.71 5.551 27.904 3.559a.462.462 0 0 0 .187-.085c.15.004.299-.071.342-.255 2.17-9.258-1.242-19.663-3.618-28.574zm2.839 28.009c-9.746 1.98-18.122.181-27.219-3.295.624-6.403 1.933-12.204 6.542-17.019 4.48-4.68 10.491-6.735 16.838-7.118a.557.557 0 0 0 .264-.085c.214.818.412 1.629.601 2.436-2.681-.443-5.4-.521-8.11-.364-.132.008-.133.213 0 .207 2.748-.134 5.441.051 8.165.405.158.684.311 1.366.457 2.046-2.94-.15-5.889-.214-8.83-.361-.092-.005-.089.133 0 .141 2.938.259 5.925.473 8.882.47.146.689.3 1.38.432 2.066-2.116-.125-4.248-.119-6.365-.173-.123-.003-.122.185 0 .19 2.133.083 4.279.227 6.416.235.157.828.305 1.654.442 2.479-2.432-.002-4.846.017-7.277-.145-.101-.007-.099.148 0 .156 2.421.206 4.882.343 7.313.217.801 4.885 1.254 9.746 1.421 14.834-4.035-.064-8.076.012-12.111.031-.083 0-.083.128 0 .129 4.037.019 8.08.095 12.117.031.015.488.038.97.049 1.463-5.394.07-10.776.186-16.171.065-.067-.002-.066.101 0 .103 5.385.186 10.792.29 16.176.03.005.277.018.547.022.825-.019.002-.034-.003-.054.001zM29.422.427c-.314-.096-.564.201-.565.474a.419.419 0 0 0-.053.371c2.597 9.137 3.365 17.769 3.646 27.221a.32.32 0 0 0 .057.166.29.29 0 0 0 .25.372c4.829.5 10.049-1.12 14.46-2.934a.521.521 0 0 0 .309-.349c.333.174.82.035.78-.438C47.387 14.18 40.363 3.774 29.422.427zm17.529 24.704c-4.539 1.398-9.226 1.978-13.778 3.221 1.21-8.769-.287-18.386-3.264-26.704a33.609 33.609 0 0 1 7.058 4.538c-1.755-.154-3.524-.166-5.282-.098-.065.003-.066.103 0 .101 1.879-.04 3.731.071 5.59.248a31.242 31.242 0 0 1 1.997 1.866c-1.893-.089-3.8-.099-5.69-.126-.101-.001-.1.151 0 .156 1.969.093 3.956.206 5.932.227a29.714 29.714 0 0 1 1.97 2.263c-1.792.061-3.575.122-5.37.067-.095-.003-.095.144 0 .148 1.838.079 3.693.11 5.531-.015a28.378 28.378 0 0 1 1.457 2.073c-2.61.346-5.189.578-7.832.541-.107-.002-.107.164 0 .167 2.661.064 5.34-.06 7.969-.498.547.884 1.061 1.79 1.506 2.737-3.165.251-6.296.393-9.474.311-.117-.003-.116.175 0 .181 3.177.17 6.39.094 9.547-.326a26.701 26.701 0 0 1 1.582 4.39c-2.511-.08-5.034-.006-7.545.006-.099 0-.099.153 0 .154 2.527.012 5.065.087 7.591.004.18.702.342 1.413.467 2.141-3.6-.021-7.212.201-10.797.495-.06.005-.061.099 0 .095 3.612-.25 7.217-.323 10.834-.407.11.668.198 1.346.26 2.035a.48.48 0 0 0-.259.009z"/><path d="M27.949 43.815c-.013-.031-.047-.043-.081-.047 1.201-3.468 1.76-7.229 1.343-10.789a.48.48 0 0 0-.369-.427.323.323 0 0 0-.264-.134c-9.42.08-17.944-.879-27.114-3.098-.283-.068-.432.18-.376.391a.374.374 0 0 0-.188.405c1.761 11.396 13.425 19.133 24.52 18.316a.57.57 0 0 0 .486-.325.575.575 0 0 0 .156-.189 27.986 27.986 0 0 0 1.63-3.623c.103-.039.208-.075.291-.132.06-.041.072-.103.044-.168l-.078-.18zm-.981-1.788c-3.507.01-6.975-.102-10.465-.533-.096-.012-.094.137 0 .15 3.447.463 6.933.706 10.412.582-.16.589-.331 1.176-.526 1.765-3.358.022-6.775-.234-10.146-.27-.062-.001-.061.091 0 .095 2.452.16 4.91.237 7.365.34.629.026 1.679.234 2.634.285-.172.494-.354.99-.553 1.487-2.086.163-4.135.245-6.241.051-.091-.008-.089.132 0 .141 2.025.218 4.101.28 6.136.06-.147.36-.287.718-.45 1.081C13.391 47.09 5.85 40.683 1.677 30.076c8.206 3.131 17.882 4.262 26.593 3.107a50.951 50.951 0 0 1-.399 4.27c-4.903-.189-9.832-.399-14.74-.386-.077 0-.075.113 0 .118 4.89.306 9.814.392 14.712.498a37.278 37.278 0 0 1-.875 4.344zM47.066 29.679c.039-.286-.173-.595-.544-.496-4.767 1.267-9.53 2.156-14.347 3.183-.22-.03-.458.067-.507.321-.392 2.035-.181 4.051-.352 6.104-.212 2.548-1.056 4.889-1.512 7.378-.041.224.121.379.299.403-.016.188.085.378.334.379 3.894.02 7.643-3.202 10.176-5.874 2.981-3.144 5.288-6.839 6.564-10.992.056-.182-.005-.32-.111-.406zm-2.504 3.973c-1.552-.012-3.104.007-4.655.016-.109.001-.109.168 0 .169 1.513.009 3.027.027 4.541.017-.213.377-.411.765-.638 1.131-1.869.091-3.711.225-5.589.142-.113-.005-.112.169 0 .175 1.807.098 3.669.126 5.471-.122a29.708 29.708 0 0 1-1.399 2.05c-1.848-.026-3.702.021-5.548.03-.098 0-.098.151 0 .152 1.793.009 3.593.054 5.388.034a28.168 28.168 0 0 1-1.665 1.978c-1.518.222-3.033.444-4.567.573-.086.007-.087.142 0 .135 1.439-.107 2.896-.239 4.333-.462a26.5 26.5 0 0 1-1.885 1.817c-1.031.149-2.061.309-3.09.464-.075.011-.043.124.031.114.951-.133 1.904-.262 2.855-.398a26.038 26.038 0 0 1-7.557 4.468c2.319-3.978 1.584-8.556 1.949-12.931 4.599-.193 9.357-1.354 13.674-2.947-.474 1.183-1.042 2.303-1.649 3.395z"/><path d="M27.417 39.635l-.136-.096c-.041-.029-.101-.006-.125.033l-.062.1c-.048.077.064.165.126.097-.44.477-4.447-.022-5.24-.029l-2.497-.021c-.332-.002-2.703-.249-2.745-.22.048-.032.006-.105-.046-.078l-.58.297c-.076.039-.037.154.042.156 2.497.052 4.993.083 7.49.116.861.011 3.177.533 3.793-.194.046-.054.036-.121-.02-.161zM27.257 34.902c-4.708-.011-9.418.014-14.126.06-.071.001-.071.109 0 .11 4.708.046 9.418.071 14.126.06.148 0 .149-.229 0-.23zM27.897 23.038c-3.251.061-6.459.135-9.707-.108-.106-.008-.105.156 0 .165 3.214.265 6.49.413 9.707.115.108-.011.112-.174 0-.172zM27.471 19.584c-3.656.056-7.312.244-10.965.383-.126.005-.127.2 0 .196 3.654-.106 7.314-.164 10.965-.353.144-.008.146-.228 0-.226zM27.257 16.347c-4.134-.069-8.318.123-12.438.479-.103.009-.106.167 0 .163 4.146-.165 8.292-.279 12.438-.433.134-.006.135-.207 0-.209zM26.842 13.525c-2.536.036-5.057.167-7.596.102-.098-.002-.097.148 0 .152 2.518.1 5.083.18 7.596-.048.13-.011.135-.208 0-.206zM46.866 24.514c-3.96-.145-7.925.279-11.814 1.009-.061.012-.035.104.026.094 3.93-.675 7.809-.879 11.788-.881.143-.001.143-.217 0-.222zM45.601 18.323c-2.386-.014-4.783.143-7.168.226-.081.003-.082.128 0 .127 2.386-.054 4.787-.034 7.168-.184.108-.007.11-.168 0-.169z"/></g></svg>