<svg xmlns="http://www.w3.org/2000/svg" viewBox="0 0 48.591 48.591"><g fill="#1d1d1b"><path d="M11.877 17.712c.302-.394-.262-.816-.628-.628-2.932 1.512-3.255 4.96-3.174 7.918.053 1.905.417 5.86 3.301 5.052.582-.163.636-.919.161-1.234-2.055-1.36-1.774-4.264-1.536-6.445.195-1.778.786-3.242 1.876-4.663zM22.891 20.936a.72.72 0 0 0-.109-.364c.001-.89-.01-1.78-.048-2.671-.034-.81-1.282-1.058-1.471-.199-.067.305-.113.612-.172.918-1.399-1.31-3.325-1.719-5.133-.583-2.144 1.347-3.108 4.555-2.504 6.945.593 2.35 3.089 3.439 5.303 2.588.73-.281 1.377-.758 1.944-1.338.009.023.013.047.022.07.24.6 1.256.974 1.59.208.542-1.243.395-2.556.438-3.899.004-.127.002-.254.006-.381.083-.437.139-.873.134-1.294zm-7.563 3.389c-.321-1.348.196-3.16 1.125-4.169 1.461-1.584 2.85-.779 4.378-.03a28.567 28.567 0 0 0-.214 1.854c-.021.271-.05.553-.078.839-.192.521-.412 1.03-.737 1.494-1.097 1.568-3.857 2.607-4.474.012zM28.971 17.973c-.779-.381-1.644.079-2.304.626a5.9 5.9 0 0 0-.198-1.085c-.248-.844-1.331-.744-1.617 0-.583 1.515-.391 3.37-.435 4.979-.038 1.396-.427 3.156.433 4.334.179.246.568.375.803.104.957-1.101.754-2.697.836-4.098.034-.591.1-1.214.152-1.844.217-.248.463-.472.746-.675.604-.432 1.494-.505 1.895-1.15.236-.378.103-.988-.311-1.191zM35.476 17.631c-.512-.615-1.226-.477-1.936-.393a65.007 65.007 0 0 0-.103-3.333c-.039-.683-1.093-.909-1.253-.17a43.053 43.053 0 0 0-.609 3.629 5.179 5.179 0 0 0-.905.159c-.707.202-.707 1.231 0 1.434.228.065.463.107.701.138-.055.509-.107 1.019-.157 1.529-.221 2.262-.627 4.633.008 6.846.296 1.032 1.65.723 1.761-.238.296-2.58.472-5.296.527-7.994.719.083 1.446.234 1.966-.39.319-.383.321-.832 0-1.217z"/><path d="M40.365 3.79c-5.403-2.406-11.382-.912-15.339 3.27C17.948-4.204 2.379 3.108.301 14.533c-2.353 12.94 9.461 28.521 21.783 31.994.033.367.335.717.804.602 12.749-3.126 24.579-14.469 25.644-28.041.496-6.331-2.127-12.608-8.167-15.298zm6.83 14.832c-.014-.008-.018-.027-.038-.024-2.136.315-4.157.451-6.304.147-.066-.009-.095.091-.028.102 2.098.332 4.282.381 6.36-.113a21.897 21.897 0 0 1-.345 2.657c-1.881.055-3.746.141-5.627.089-.468-2.061-1.712-3.845-3.953-4.716-.708-.275-1.254.766-.729 1.252 3.329 3.073 3.104 6.606 1.18 10.443-.625 1.246 1.069 2.221 1.858 1.086 1.524-2.193 2.23-5.285 1.669-7.942 1.852.081 3.73.111 5.573-.078a25.298 25.298 0 0 1-.676 2.617c-.009-.006-.007-.021-.021-.02-1.549.036-3.101.204-4.646.316-.077.005-.078.125 0 .12 1.541-.095 3.096-.137 4.631-.307a27.738 27.738 0 0 1-1.231 3.156l-.032.062c-1.337.129-2.652.204-3.999.111-.081-.006-.081.12 0 .127 1.305.101 2.627.098 3.925-.092a31.7 31.7 0 0 1-4.757 7.274c-4.141.186-8.284.379-12.422.625-.044.003-.057.068-.011.079l.597.151c.028.007.039-.034.012-.043.454.143 1.709-.184 2.314-.207a1890.888 1890.888 0 0 0 9.308-.375 33.667 33.667 0 0 1-2.708 2.74.07.07 0 0 0-.048-.019c-4.082.131-8.163.413-12.24.653-.057.003-.057.091 0 .089 4.042-.171 8.093-.303 12.13-.579a34.992 34.992 0 0 1-1.933 1.61.073.073 0 0 0-.073-.038c-5.343.398-10.661.709-16.022.686-.071 0-.071.109 0 .11 5.298.071 10.614-.049 15.887-.596-3.529 2.663-7.572 4.677-11.894 5.969a.547.547 0 0 0-.351-.286C12.97 42.636 3.683 31.928 1.766 22.167.517 15.801 2.315 8.493 8.05 4.836 14.099.979 20.508 2.995 24.707 8.288c.297.375.834-.007.778-.409 5.188-4.717 13.225-5.46 18.116-.292-2.917-.08-5.844-.013-8.759.087-.967.033-3.872-.397-4.529.407-.018.022-.015.049.008.066l.123.086c.018.013.044.003.055-.014l.058-.089c.028-.042-.039-.08-.067-.039.495-.719 6.154-.289 6.954-.299 2.113-.028 4.225.002 6.338-.01.467.516.914 1.067 1.315 1.696.203.32.387.646.559.977-5.753.044-11.507.038-17.26-.021-.113-.001-.113.173 0 .175 5.763.092 11.56.182 17.277-.124l.003.005c-.119.02-.119.201.011.203l.087.001c1.211 2.457 1.599 5.189 1.421 7.928z"/><path d="M31.491 41.658c-2.536.402-5.085.684-7.652.771-1.103.038-2.207.04-3.31.013-.863-.021-1.979-.39-2.703-.374.05-.001.05-.078 0-.078-.474-.004-.347-.076-.653.307-.04.051-.014.118.052.124 4.8.422 9.571.214 14.325-.555.136-.021.078-.23-.059-.208zM41.259 32.198c-4.43.248-8.847.365-13.283.28-.095-.002-.095.145 0 .148 4.428.145 8.863.096 13.283-.219.132-.01.135-.216 0-.209zM43.157 30.118c-3.091.006-6.187.155-9.277.249-.07.002-.071.111 0 .11 3.09-.044 6.189-.034 9.277-.167.122-.006.124-.193 0-.192zM46.74 15.985c-3.51-.032-7.032.158-10.541.267-.069.002-.069.109 0 .108 3.51-.061 7.036-.042 10.541-.243.083-.006.085-.131 0-.132zM45.477 13.713c-3.795.067-7.593.273-11.386.437-.08.003-.08.127 0 .125 3.793-.106 7.596-.172 11.386-.376.119-.006.121-.188 0-.186zM41.687 5.998c-2.866-.311-5.775-.284-8.653-.184-.1.003-.101.159 0 .156 2.894-.073 5.763.078 8.653.186.103.004.099-.147 0-.158z"/></g></svg>