<svg xmlns="http://www.w3.org/2000/svg" viewBox="0 0 49.046 49.046"><g fill="#1d1d1b"><path d="M18.73 41.896c-.062-.056-.154.034-.093.093 1.288 1.217 3.734.952 5.64.823-2.288.061-4.602-.07-5.547-.916zM24.278 42.812a47.21 47.21 0 0 0 1.271-.05l-.113.001c-.345-.002-.743.021-1.158.049z"/><path d="M48.487 20.169c-.142-.117-.42-.075-.495.134-.632 1.75-1.116 3.386-2.322 4.854-.845 1.029-1.848 1.943-2.581 3.06-3.003 2.536-5.945 5.251-9.721 6.557-4.062 1.404-8.599 1.682-12.828 1.16-8.884-1.097-16.194-6.39-19.322-14.824l.001-.007a.257.257 0 0 0-.138-.273c-.217-.239-.682-.071-.586.309.006.025.015.048.022.073-1.754 6.167 1.208 14.472 5.154 19.346 4.284 5.291 11.303 7.208 17.864 7.348 15.262.325 25.777-12.589 25.506-27.358-.007-.342-.314-.464-.554-.379zM43.688 35.69c-2.623-.072-5.255-.01-7.878.001-.104 0-.105.162 0 .162 2.59.011 5.188.071 7.778.003a25.537 25.537 0 0 1-1.524 2.266c-6.728-.056-13.45-.131-20.175-.34-.064-.002-.064.097 0 .099 6.678.277 13.364.452 20.048.416a23.26 23.26 0 0 1-1.721 1.992c-8.143-.287-16.291-.507-24.437-.653-.054-.001-.054.082 0 .084 8.097.309 16.198.543 24.299.712a21.3 21.3 0 0 1-2.227 1.951c-2.872.074-5.745.144-8.618.172-.817.008-2.187.129-3.683.206a262.4 262.4 0 0 0 12.066-.209 20.47 20.47 0 0 1-4.186 2.381c-6.333.266-12.582.031-18.884-.879-.049-.007-.071.067-.021.075 6.132 1.004 12.299 1.373 18.488.975-2.557 1.011-5.445 1.577-8.681 1.584-5.937.014-12.501-1.515-16.773-5.923-4.1-4.231-6.597-11.657-6.468-17.735 2.844 7.748 10.291 12.471 18.402 13.63 7.369 1.053 13.821-.097 19.3-3.899 2.107.025 4.208.161 6.312.229-.43.932-.9 1.836-1.417 2.7zm3.145-7.397c-.787-.048-1.593.001-2.378.005-.124.001-.124.191 0 .192.766.004 1.552.051 2.322.008-.208.707-.43 1.406-.68 2.089-1.39-.073-2.782-.118-4.172-.173-.106-.004-.106.16 0 .165 1.368.059 2.737.128 4.106.17a31.515 31.515 0 0 1-.835 2.055c-2.044-.178-4.112-.2-6.16-.214a26.924 26.924 0 0 0 4.326-3.857c2.107-.814 3.728-3.292 4.582-5.707a37.297 37.297 0 0 1-1.111 5.267z"/><path d="M21.012 1.156C9.741 1.6-1.316 13.836 5.087 25.007c.167.291.591.106.546-.205 8.963-8.892 28.321-9.194 37.279-.345.274.271.606.212.82.015a.493.493 0 0 0 .625-.327C49.327 9.86 33.438.666 21.012 1.156zm16.196 17.719c-4.583-1.99-9.864-2.282-15.023-1.748-5.507.57-13.825 1.41-16.711 6.934-1.077-4.844-1.096-9.494 1.675-13.904 3.024-4.813 8.956-7.743 14.579-7.657 4.873.074 9.807 1.404 13.778 3.834-3.399-.375-6.816-.572-10.235-.653-.107-.003-.107.164 0 .167 3.543.1 7.064.371 10.589.723 1.074.686 2.091 1.437 2.992 2.287-5.014-.392-10.036-.702-15.053-1.049-.09-.006-.089.133 0 .139 5.09.376 10.18.793 15.274 1.121 1.616 1.578 2.912 3.415 3.73 5.516-7.228-.564-14.48-.924-21.717-1.33-.093-.005-.091.136 0 .144l.811.068c.046.004.057-.073.011-.081 6.798 1.088 14.056 1.131 20.968 1.41.133.359.271.716.376 1.09a470.01 470.01 0 0 0-22.62-.444c-.088 0-.088.137 0 .137 7.564.048 15.119.234 22.677.515.104.391.188.792.261 1.199-3.657-.197-7.297-.404-10.941-.837-.103-.012-.101.148 0 .16 3.633.464 7.306.811 10.973.859.119.709.174 1.447.192 2.202-2.154-.367-4.338-.592-6.505-.869-.046-.007-.073.028-.081.067zm6.294 4.417a18.557 18.557 0 0 0-5.961-4.276c2.081.293 4.166.628 6.258.828a17.324 17.324 0 0 1-.297 3.448z"/><path d="M41.312 12.098c-5.169-.907-10.376-1.22-15.621-1.029-.064.002-.064.101 0 .099 5.245-.171 10.397.225 15.572 1.106.115.021.165-.155.049-.176z"/></g></svg>