<svg xmlns="http://www.w3.org/2000/svg" viewBox="0 0 50.633 50.633"><g fill="#1d1d1b"><path d="M35.82 12.195c-6.846-3.583-17.373-4.228-23.01 1.788l.077-.458c.097-.417.109-.882.154-1.307a57.15 57.15 0 0 0 .302-4.585c.005-.195.015-.406.026-.619.138-.016.277-.025.414-.044.09-.012.096-.149 0-.146-.136.006-.271.017-.406.024.095-1.792.267-4.082-.811-5.477C11.118-.503 8.349-.37 6.975 1.255c-3.248 1.28-2.196 7.02-2.131 9.824.194 8.436-.094 17.025.696 25.427a.423.423 0 0 0 .268.37c1.219 8.548 11.716 13.988 19.675 13.75 9.056-.271 17.064-6.472 19.531-15.145 2.723-9.576-.12-18.537-9.194-23.286zm4.716 17.844c1.484.407 3.079.595 4.615.38-.05.93-.169 1.859-.358 2.779-1.486.06-2.961.127-4.452.059-.106-.005-.105.158 0 .165 1.461.094 2.943.125 4.405-.017a18.334 18.334 0 0 1-.723 2.517c-1.652.045-3.289.144-4.947.111-.067-.001-.065.098 0 .103 1.592.135 3.268.176 4.866-.021-.158.409-.318.819-.507 1.219-.204.431-.441.825-.669 1.229-1.657.142-3.291.262-4.957.201-.099-.004-.099.149 0 .154 1.618.078 3.258.061 4.863-.182a21.82 21.82 0 0 1-1.557 2.376c-2.017.217-4.004.312-6.042.14-.099-.008-.098.145 0 .154 1.951.184 3.924.187 5.869-.073a20.463 20.463 0 0 1-1.688 1.913c-2.385.073-4.746.225-7.136.152-.089-.003-.088.132 0 .137 2.297.122 4.652.175 6.942-.098a19.871 19.871 0 0 1-2.17 1.809c-3.279.11-6.557.313-9.834.491-.075.004-.076.121 0 .118 3.164-.116 6.333-.211 9.495-.387a19.964 19.964 0 0 1-2.415 1.429c-4.264.184-8.499.458-12.773.41-.075-.001-.075.114 0 .116 4.104.09 8.264.094 12.356-.326-10.01 4.671-23.211.8-27.311-11.386.225-5.055-.06-10.159-.153-15.213C6.184 16.75 4.237 3.316 8.351 1.44c.004-.002.004-.007.008-.009 1.193-.522 2.273.137 3.024 1.285a10.499 10.499 0 0 0-2.907.189c-.124.026-.071.214.052.19 1.01-.199 2-.234 2.999-.146.22.377.41.792.556 1.237.032.097.045.212.066.32-1.496-.237-3.023-.176-4.512.104-.109.02-.062.186.046.167 1.527-.272 2.993-.245 4.509-.064.091.665.034 1.46-.035 2.207-1.427.09-2.854.195-4.287.235-.084.002-.084.132 0 .131 1.415-.023 2.848-.045 4.267-.152-.037.386-.071.754-.084 1.071-.017.456-.057.913-.091 1.37-1.291.171-2.567.316-3.881.318-.084 0-.084.129 0 .131 1.283.024 2.594-.028 3.868-.245-.068.849-.147 1.7-.22 2.55-.01-.021-.02-.046-.049-.043-1.159.116-2.213.16-3.358-.119-.079-.018-.112.103-.033.123 1.095.284 2.3.407 3.409.131.021-.005.019-.027.027-.043-.093 1.087-.166 2.174-.134 3.256.01.338.395.45.611.271.288.126.659.103.899-.208 5.239-6.811 16.429-5.971 23.191-2.073-3.617-.534-7.272-.795-10.925-.898-.099-.003-.099.15 0 .154 3.821.138 7.595.532 11.384 1.016a16.911 16.911 0 0 1 2.8 2.175c-3.603-.299-7.211-.542-10.818-.786-.094-.006-.092.138 0 .146 3.696.315 7.395.634 11.097.889a17.667 17.667 0 0 1 2.479 3.117c-1.497-.192-3-.351-4.501-.499-.122-.012-.117.172 0 .188 1.551.207 3.107.405 4.664.563.502.83.939 1.698 1.304 2.596-1.412-.216-2.857-.294-4.278-.43-.125-.012-.123.181 0 .194 1.444.156 2.902.379 4.354.445.393 1.003.714 2.035.93 3.092-1.554-.016-3.08-.103-4.62-.375-.114-.02-.163.153-.048.175 1.55.292 3.128.458 4.706.412.279 1.445.398 2.926.335 4.408-1.558.098-3.029.081-4.578-.315-.096-.025-.137.122-.041.148z"/><path d="M21.539 29.665c-.495-2.302-2.601-3.602-4.79-3.523-2.615-1.368-3.677 2.874-3.503 4.649.242 2.476 2.072 4.509 4.696 4.172 2.55-.326 4.128-2.827 3.597-5.298zm-3.246 3.797c-1.667.502-3.136-.456-3.579-2.083-.494-1.814-.076-3.914 1.95-4.328.029-.006.042-.03.067-.041.64.078 1.268.278 1.817.6a5.768 5.768 0 0 0-2.266.196c-.072.021-.042.132.031.112.861-.234 1.692-.239 2.538-.083.385.279.732.607.978 1.032-1.11-.117-2.242-.03-3.34.15-.062.01-.035.102.026.094 1.133-.157 2.234-.142 3.372-.075.016.001.024-.007.035-.013l.016.027c.797 1.625.192 3.859-1.645 4.412z"/><path d="M38.825 26.411c-1.627-7.357-9.304-12.227-16.494-10.033a.54.54 0 0 0-.442-.026c-7.52 2.566-13.597 7.173-11.763 15.967 1.61 7.717 8.996 13.487 16.965 11.977 7.866-1.491 13.46-10.085 11.734-17.885zM26.039 42.913c-7.14.884-13.433-3.836-14.936-10.863-1.769-8.267 4.388-12.07 11.121-14.488a.608.608 0 0 0 .397-.441c6.599-.601 12.714 2.046 14.751 8.937 2.199 7.442-3.81 15.923-11.333 16.855z"/><path d="M19.888 31.617c-1.474-.053-2.953-.008-4.427.01-.064.001-.064.098 0 .099 1.475.017 2.953.063 4.427.009.076-.003.076-.115 0-.118zM20.108 30.262c-1.056.004-2.124.155-3.176.243-.076.006-.078.125 0 .12 1.059-.072 2.143-.085 3.193-.241.07-.011.052-.123-.017-.122zM44.997 28.033a6.615 6.615 0 0 0-3.669.274c-.101.038-.063.193.045.165 1.217-.316 2.351-.377 3.596-.235.116.012.141-.18.028-.204z"/></g></svg>