<svg xmlns="http://www.w3.org/2000/svg" viewBox="0 0 48.381 48.381"><g fill="#b7b7b7"><path d="M9.083 11.958c-.046-.024-.089-.027-.134-.04.174-.139.21-.457-.022-.559-2.633-1.156-4.95 1.929-5.62 4.171-.874 2.926-.117 6.817 3.058 7.973 2.742.999 5.298-1.184 6.108-3.711 1.014-3.164-.531-6.327-3.39-7.834zm2.258 6.127c-2.04.258-4.056.6-6.12.715-.123.007-.125.197 0 .193 2.006-.057 4.097-.156 6.086-.55a5.41 5.41 0 0 1-.3 1.153c-.751.145-1.489.371-2.237.531-.355.076-.711.145-1.068.209-.28.05-1.368.468-1.053-.189.025-.052-.049-.098-.079-.046l-.348.51c-.058.072-.029.21.084.203 1.468-.1 3.115-.336 4.534-.839-.89 1.845-2.778 3.142-4.842 1.655-3.525-2.54-1.13-8.091 2.233-9.443-.185.279-.183.676.197.891.83.469 1.538 1.1 2.054 1.856-1.751.003-3.515.15-5.26.228-.119.005-.121.188 0 .186 1.811-.026 3.647.022 5.458-.094.233.4.419.827.536 1.285-1.533.092-3.069.355-4.591.544-.132.016-.137.224 0 .211 1.547-.148 3.124-.227 4.659-.475.054.282.092.571.096.872.001.129-.028.263-.039.394zM22.863 3.03c.018-.068-.005-.132-.071-.164-.763-1.765-2.197-2.973-4.39-2.859a.616.616 0 0 0-.39.16c-6.275 1.455-5.867 15.882.469 14.531 4.239-.904 5.999-7.635 4.382-11.668zm-7.147 3.916c2.065.046 4.172.033 6.23-.218a10.44 10.44 0 0 1-.248 1.748c-1.816.031-3.645.245-5.454.377-.166.012-.168.269 0 .26 1.782-.096 3.593-.118 5.37-.307a9.479 9.479 0 0 1-.575 1.604c-1.37.217-2.703.352-4.108.228-.159-.014-.154.228 0 .246 1.28.149 2.617.157 3.897-.082-.505.924-1.149 1.664-1.908 2.025-4.44 2.112-5.314-8.945-.875-11.714a.63.63 0 0 0 .357.137c1.225.068 2.092.641 2.665 1.497-1.094.006-2.202.122-3.257.246-.154.018-.16.259 0 .246 1.173-.094 2.339-.057 3.506-.052.222.437.388.921.492 1.445-1.214.078-2.416.168-3.643.126-.191-.006-.189.285 0 .295 1.217.068 2.476.097 3.701-.031.062.442.1.895.091 1.361-2.082.153-4.146.339-6.241.34-.143.002-.143.22 0 .223zM37.121 6.92c-.394-2.885-2.691-6.734-6.147-5.801-6.019 1.625-5.317 15.489.748 14.382.094.369.479.659.912.405 3.148-1.847 4.989-5.312 4.487-8.986zm-6.533 1.038c1.745.135 3.531.386 5.282.364a7.913 7.913 0 0 1-.139 1.259c-.027.14-.077.267-.112.402-1.44-.058-2.904-.001-4.337.042-.172.005-.172.262 0 .267 1.399.042 2.829.097 4.237.046a7.523 7.523 0 0 1-.497 1.216c-.597.084-1.188.204-1.793.246-.709.05-1.409-.001-2.118-.019-.102-.003-.126.158-.024.18 1.151.247 2.538.26 3.733-.029-.691 1.146-1.678 2.095-2.832 2.872-.018.012-.025.028-.041.041a3.517 3.517 0 0 1-1.997-.964c1.233-.035 2.488-.191 3.649-.599.12-.042.073-.226-.053-.193-1.246.324-2.462.577-3.745.638-1.375-1.455-1.773-3.982-1.662-5.76.063-.999.326-1.99.743-2.895.822-1.785 1.762-2.82 3.769-2.241 1.014.293 1.759.922 2.278 1.729-1.424-.292-2.922-.403-4.347-.496-.167-.011-.166.248 0 .26 1.554.115 3.059.412 4.588.647.172.333.31.689.417 1.059-2.056-.253-4.164-.288-6.226-.424-.146-.01-.142.211 0 .225 2.096.198 4.224.514 6.333.582.116.518.178 1.056.181 1.595-1.738-.247-3.54-.237-5.29-.332-.179-.009-.176.268.003.282zM45.248 20.5c.038-.074.029-.16-.035-.212-.709-3.82-3.277-6.991-7.215-5.344-3.127 1.308-3.707 6.314-3.183 9.205.66 3.645 3.444 5.375 6.958 4.553.03-.007.04-.029.062-.043.055.292.354.531.684.326 2.469-1.532 3.274-5.216 2.729-8.485zm-.879 3.296c-1.454-.029-2.887.025-4.344-.11-.16-.015-.2.261-.038.283 1.407.19 2.912.334 4.335.183a6.938 6.938 0 0 1-.519 1.837c-.023-.034-.054-.061-.102-.059-1.931.068-3.834.251-5.771.198-.148-.004-.146.221 0 .229 1.903.099 3.882.157 5.769-.153-.38.758-.906 1.44-1.659 1.963a.506.506 0 0 0-.147.157c-.043-.061-.101-.112-.187-.118-3.208-.255-5.402-1.531-5.676-4.938-.151-1.873.13-5.107 1.598-6.502 1.718-1.631 3.517-.88 4.802.514a15.078 15.078 0 0 0-3.633.041c-.16.021-.166.273 0 .257 1.335-.132 2.637-.087 3.948.069.229.286.44.589.623.9-1.455-.142-2.957-.079-4.389.015-.211.014-.214.341 0 .331 1.568-.076 3.098.046 4.648.132.206.415.37.83.469 1.216-1.882-.005-3.752.024-5.64-.129-.22-.018-.216.321 0 .341 1.884.178 3.825.313 5.728.207.105.517.181 1.046.212 1.583-1.672-.145-3.401-.072-5.068-.112-.136-.003-.135.206 0 .211 1.67.061 3.396.241 5.078.196.012.42.007.842-.037 1.258zM42.884 36.967c-1.81-5.139-8.361-6.952-11.484-11.135-2.157-2.89-4.329-6.067-7.959-5.888.003-.24-.186-.472-.511-.404-5.527 1.141-6.923 7.912-11.246 10.847-3.013 2.046-6.571 3.474-7.325 7.452-.655 3.457 1.106 6.916 4.075 8.697 5.084 3.05 10.214-.317 15.48-.063.043.016.082.037.132.043 5.093.623 11.305 3.746 16.027.203 2.966-2.228 4.025-6.304 2.811-9.752zm-.77 5.102c-.353 1.064-.977 1.946-1.745 2.676-9.723-.928-19.619-.995-29.375-.741-.142.004-.143.22 0 .221 9.698.082 19.358.541 29.047.841-1.584 1.326-3.732 2.01-5.783 2.007-3.399-.005-6.818-1.339-10.213-1.657a.458.458 0 0 0-.366.112c-1.443-.308-2.85-.146-4.492.164-2.999.566-5.756 1.57-8.8.303-4.338-1.806-6.806-6.906-3.269-11.024 1.96-2.282 5.178-3.147 7.342-5.218 3.128-2.993 4.021-7.124 8.121-9.134 2.187.105 3.691.94 4.93 2.117-1.932-.16-3.93.009-5.849.191-.204.019-.209.339 0 .323 2.074-.158 4.138-.068 6.209-.146a19.24 19.24 0 0 1 1.565 1.891c-2.208-.301-4.53-.209-6.726.032-.187.021-.194.313 0 .299 2.372-.174 4.662-.033 7.025.077.445.613.891 1.242 1.368 1.86-2.951-.187-6 .039-8.921.373-.163.018-.17.271 0 .26 3.092-.204 6.159-.149 9.248-.213a14.39 14.39 0 0 0 2.552 2.509c-4.913-.233-9.855-.16-14.767-.02-.149.004-.15.233 0 .232 5.142-.03 10.269.155 15.408.264 1.028.742 2.11 1.413 3.199 2.163 1.373.946 2.656 2.1 3.528 3.455-1.534-.85-4.81-.365-6.527-.408-3.337-.085-6.676-.078-10.011.079-.146.007-.148.229 0 .229 2.712 0 5.423-.01 8.134.062 1.251.033 2.502.081 3.752.142 1.261.062 3.389-.304 4.514-.014-.224-.058-.356.251-.157.373l.072.044c.075.046.203.038.262-.034l.068-.082c.034-.041.039-.092.046-.141.939 1.582 1.311 3.425.611 5.533z"/><path d="M40.933 42.991c-8.042-1.153-16.226-1.495-24.342-1.452-.118.001-.118.181 0 .183 8.146.153 16.194.828 24.299 1.587.179.016.223-.292.043-.318zM42.121 39.895a263.417 263.417 0 0 0-28.329-1.064c-.102.002-.102.158 0 .158 9.471.05 18.898.5 28.329 1.374.3.027.298-.441 0-.468zM38.288 33.664c-6.78-.865-13.646-1.033-20.473-.867-.135.003-.136.212 0 .211 6.864-.042 13.644.438 20.473 1.075.271.025.261-.386 0-.419z"/></g></svg>