<svg xmlns="http://www.w3.org/2000/svg" viewBox="0 0 48.459 48.459"><g fill="#1d1d1b"><path d="M47.877 9.27a.63.63 0 0 0-.375-.139c-5.52-.203-11.067.057-16.593-.01-5.507-.067-11.09-.55-16.585-.176-.275.019-.42.36-.299.555-3.203 2.098-4.604 7.91-6.17 11.227-2.63 5.57-5.384 11.11-7.806 16.774-.13.303.008.586.221.735-.212.198-.142.601.234.632 10.771.871 22.179-1.557 32.781.77a.654.654 0 0 0 .457-.064c.346.112.789.003.956-.433 2.034-5.301 3.985-10.636 6.365-15.796 2.164-4.692 4.95-8.987 7.349-13.545.185-.348-.225-.737-.535-.53zm-7.164 10.797c-5.959-.447-11.969-.495-17.941-.41-.073.001-.074.114 0 .114 5.959.013 11.893.271 17.844.497a78.632 78.632 0 0 0-1.455 3.125c-3.41-.38-6.851-.591-10.271-.847-.103-.008-.101.151 0 .16 3.385.321 6.784.689 10.18.89-.332.76-.656 1.524-.97 2.292-3.762-.221-7.55-.214-11.316-.302-.071-.002-.07.107 0 .11 3.74.14 7.496.374 11.24.385a162.75 162.75 0 0 0-2.059 5.362c-3.633.008-7.245.034-10.875-.176-.095-.006-.094.142 0 .148 3.593.227 7.22.371 10.818.185-.283.775-.566 1.551-.84 2.319a.093.093 0 0 0-.063-.031c-5.834-.382-11.674-.702-17.511-1.028-.076-.004-.076.113 0 .118 5.836.385 11.672.776 17.511 1.104l.005-.002-.728 2.043c-8.301-.995-16.666-1.004-24.989-.267-.063.006-.064.104 0 .099 8.355-.597 16.6-.405 24.935.32l-.722 2.023c-4.986-1.143-10.127-.771-15.209-.699-5.75.082-11.583-.076-17.31.488.006-.011.015-.015.021-.027 2.366-4.614 4.474-9.371 6.672-14.068 2.072-4.427 3.724-10.393 6.824-14.176a.267.267 0 0 0 .051-.143c10.282 1.615 21.887 1.487 32.282.766-2.409 2.857-4.399 6.146-6.124 9.628z"/><path d="M36.473 28.715a85.585 85.585 0 0 0-16.861-.149c-.056.005-.057.092 0 .089 5.653-.312 11.221-.213 16.861.252.124.01.121-.179 0-.192zM41.54 17.216c-3.517.01-7.027.132-10.546.075-.12-.002-.119.182 0 .186 3.503.098 7.047.175 10.546-.058.129-.01.132-.204 0-.203zM43.642 14.365c-6.601-.302-13.21-.483-19.814-.692-.105-.003-.104.158 0 .162 6.603.282 13.208.592 19.814.781.162.005.161-.243 0-.251zM45.334 11.463c-3.998-.19-8.021-.098-12.021-.002-.069.002-.069.108 0 .108 4.008-.024 8.014.099 12.021.09.127 0 .126-.19 0-.196z"/></g></svg>