<svg xmlns="http://www.w3.org/2000/svg" viewBox="0 0 49.141 49.141"><g fill="#1d1d1b"><path d="M45.927 24.806C44.069 13.828 34.255 9.501 24.142 8.809a.458.458 0 0 0-.406.162c-2.187-.433-3.726 1.238-3.806 3.471-.077 2.135 1.271 3.767 3.122 4.439.041.115.129.22.261.234 4.669.494 8.709 1.673 11.533 5.668a11.044 11.044 0 0 1 .073 12.654c-3.055 4.419-9.64 5.461-14.601 4.245-5.766-1.413-8.361-6.732-8.962-12.184-.005-.041-.031-.063-.048-.094.046-1.648.093-3.319.131-4.998.025-.002.051-.001.076-.003a.052.052 0 0 0 0-.103c-.024-.002-.049-.001-.074-.003.136-6.094.132-12.324-.619-18.248C11.414 1.669 8.69-.273 6.537.03 4.154.365 2.736 2.383 2.986 4.56c-.137 7.231.33 14.482.631 21.704.238 5.71.547 11.109 4.263 15.729 5.993 7.45 16.513 8.892 25.018 5.178 8.545-3.732 14.632-12.897 13.029-22.365zm-2.131 9.153c-1.413-.03-2.83.004-4.243.013-.082 0-.082.126 0 .126 1.394.009 2.792.042 4.186.014a19.2 19.2 0 0 1-1.145 2.532c-1.718.019-3.428.097-5.149.056-.076-.002-.076.115 0 .118 1.67.08 3.384.126 5.057-.014a20.862 20.862 0 0 1-1.576 2.424c-1.788-.066-3.59.009-5.379.023-.069 0-.069.107 0 .108 1.748.014 3.509.084 5.257.026a22.045 22.045 0 0 1-2.008 2.293c-2.367.082-4.656.069-7.026-.324-.09-.015-.129.122-.038.138 2.237.406 4.558.601 6.835.406-.7.668-1.439 1.297-2.221 1.873-4.366.095-8.676.136-13.036-.206-.071-.006-.069.103 0 .11 4.232.417 8.539.61 12.786.286-.75.537-1.533 1.03-2.342 1.474l-.291-.1c-.095-.033-.163.124-.069.164-.349-.148-1.568.141-2.07.16-1.056.039-2.113.069-3.17.088a180.64 180.64 0 0 1-5.889-.003c-.102-.001-.102.155 0 .158 3.604.107 7.208.074 10.808-.096a22.132 22.132 0 0 1-5.093 1.845C16.917 50.147 6.268 43.121 4.976 31.79c-1.035-9.064-.502-18.291-1.385-27.384.284-1.485 1.201-2.858 2.744-3.235 1.472-.359 2.456.26 3.126 1.244-.121-.014-.24-.032-.36-.046L8.058 2.25c-.178-.02-.533-.129-.707-.059-.205.082-.361.313-.071.401.056.017.079-.069.024-.087a.852.852 0 0 1 .735-.119l.26.036.91.128c.127.018.254.031.381.048.227.371.414.784.567 1.214-.022.247-.03.498-.049.746a5.193 5.193 0 0 0-2.637.041c-.105.029-.061.19.044.163.872-.22 1.72-.199 2.579-.005-.048.657-.1 1.313-.13 1.976-.881-.12-1.783-.154-2.667-.22-.135-.01-.133.197 0 .209.88.079 1.773.195 2.659.22a89.839 89.839 0 0 0-.077 2.9c-.579-.062-1.161-.11-1.739-.161-.132-.012-.13.192 0 .205.576.057 1.156.12 1.735.167-.007.795-.006 1.592.004 2.391-.86-.018-1.723-.001-2.582.003-.109.001-.109.168 0 .169.86.004 1.724.021 2.586.003.009.639.017 1.278.035 1.919-1.012-.029-2.033.011-3.042.016-.111 0-.111.172 0 .173 1.011.004 2.034.044 3.049.015.024.824.048 1.649.085 2.473-1.033-.177-2.093-.234-3.135-.229-.106.001-.106.165 0 .165 1.064 0 2.099.111 3.144.254.037.816.069 1.632.115 2.446-.875-.022-1.75-.033-2.625-.043-.06-.001-.06.091 0 .093.877.023 1.753.044 2.63.056.044.767.091 1.532.14 2.295-.993-.035-1.988-.051-2.98-.119-.082-.006-.081.12 0 .127.986.078 1.992.167 2.992.178.054.832.111 1.661.168 2.487-1.053-.033-2.109 0-3.162.006-.054 0-.054.084 0 .084 1.053.006 2.11.04 3.162.006.004 0 .003-.006.006-.007l.186 2.648c-.766-.019-1.535.001-2.3.007-.056 0-.056.086 0 .086.768.006 1.539.027 2.307.007l.087 1.241c.008.122.086.185.174.217.024.295.058.589.099.882-1.033-.015-2.055-.042-3.084-.164-.067-.008-.067.097 0 .105 1.025.126 2.068.198 3.103.167.638 4.274 3.102 8.18 7.279 9.93 5.357 2.244 13.419 1.225 17.186-3.453 6.883-8.551-.746-20.656-10.915-20.266a.378.378 0 0 0-.198-.123c-1.63-.383-2.929-1.594-3.16-3.299-.101-.749-.044-1.656.421-2.284.614-.828 1.557-.635 2.461-.722a.504.504 0 0 0 .207-.071c2.329.171 4.62.579 6.785 1.23-2.593-.083-5.191-.103-7.784-.15-.091-.002-.091.139 0 .141 2.802.075 5.609.189 8.413.21 1.168.382 2.299.83 3.37 1.36-2.945.123-5.871.178-8.833-.011-.091-.006-.09.134 0 .141 3.075.236 6.193.319 9.278.095 1.372.718 2.654 1.552 3.786 2.539-.627.084-1.716-.112-2.134-.122l-2.265-.055-5.286-.132c-.068-.002-.068.103 0 .106 2.265.084 4.531.165 6.796.248.716.026 2.211.385 3.07.122a16.19 16.19 0 0 1 2.17 2.354c-2.53-.271-5.078-.449-7.614-.64-.074-.006-.072.107 0 .114 2.583.263 5.176.546 7.768.723a15.16 15.16 0 0 1 1.478 2.515c-2.297-.353-4.617-.588-6.922-.873-.081-.01-.079.116 0 .127 2.329.31 4.659.675 6.996.912.327.729.62 1.486.84 2.295-2.048-.1-4.1-.133-6.15-.192-.071-.002-.07.107 0 .11 2.062.08 4.126.186 6.189.223.212.809.389 1.642.485 2.532-1.71-.199-3.47-.218-5.189-.279-.099-.003-.096.144 0 .152 1.721.142 3.479.332 5.207.334a17.673 17.673 0 0 1-.976 7.908z"/><path d="M44.191 31.226c-1.401-.186-2.81-.304-4.216-.442-.114-.011-.112.165 0 .177 1.404.148 2.807.316 4.216.417.1.007.094-.139 0-.152zM44.406 28.412c-1.499-.14-2.931-.211-4.391-.628-.124-.036-.177.157-.053.193 1.396.411 2.983.75 4.445.591a.078.078 0 0 0-.001-.156z"/></g></svg>