<svg xmlns="http://www.w3.org/2000/svg" viewBox="0 0 49.459 49.459"><g fill="#b7b7b7"><path d="M21.938 22.82c3.802-1.785 4.597-7.729 2.051-11.024-1.537-1.989-4.213-2.472-6.546-2.78C12.02 8.3 6.424 8.337 1.006 9.03a.579.579 0 0 0-.31.145.44.44 0 0 0-.369.421c-.643 9.716-.204 19.61.184 29.33.012.309.229.478.467.52a.32.32 0 0 0 .22.19c6.254 1.852 18.276 2.488 23.042-2.986 3.891-4.468 2.301-10.686-2.302-13.83zm1.748 11.771c-1.98.19-3.955.452-5.93.687-.074.009-.076.126 0 .118 1.928-.191 3.863-.36 5.787-.592-.856 1.156-2.011 2.167-3.388 2.926.003-.052-.026-.103-.096-.097-4.444.365-9.031 1.433-13.492 1.14-.112-.007-.109.162 0 .173 4.311.416 9.052-.507 13.344-1.087-.892.464-1.867.827-2.91 1.055-5.018 1.097-10.349.927-15.387.099.003-.029.015-.052.014-.084-.386-9.601-.157-19.189-.383-28.783 3.878-.404 7.733-.679 11.638-.495 2.057.097 4.579.009 6.475.799.364.152.71.346 1.044.564-3.34.2-6.693.4-10.016.756-.069.007-.072.111 0 .11 3.466-.082 6.941-.336 10.401-.581a8.062 8.062 0 0 1 1.829 1.918c-1.488.307-2.905.543-4.438.435-.105-.007-.103.153 0 .162 1.503.143 3.127.09 4.57-.413a8.147 8.147 0 0 1 1.087 2.592c-1.397.079-2.767.175-4.173.121-.087-.003-.084.125 0 .133 1.382.121 2.831.155 4.213-.044.134.696.171 1.403.082 2.092-.018-.032-.049-.056-.097-.047-1.655.342-3.254.586-4.93.606.351-1.376-.167-3.016-1.328-3.774a.396.396 0 0 0-.314-.393c-2.952-.729-6.394-.355-9.366.278-.111-.114-.322-.127-.357.074a.059.059 0 0 0-.002.013c-.184.067-.2.314-.075.431-.279 1.614-.56 3.554-.384 5.199-.455.162-.367.973.221 1.038 2.226.245 4.446.225 6.664-.087 1.415-.199 3.256-.382 4.283-1.519.283-.314.47-.688.596-1.084 1.686.07 3.445-.076 5.042-.604.019-.006.028-.02.038-.031a5.488 5.488 0 0 1-.814 2.206c-1.581.118-3.149.352-4.735.439-.104.006-.105.166 0 .162 1.52-.052 3.093-.112 4.595-.39a6.022 6.022 0 0 1-1.655 1.576.281.281 0 0 0-.094.104c-3.137.348-6.273.834-9.391 1.307-.066.01-.051.126.016.118 3.072-.353 6.164-.699 9.224-1.169-.203.222-.253.604.073.825.921.623 1.66 1.297 2.244 2.002-1.262.191-2.472.345-3.752.28-.099-.005-.098.147 0 .154 1.264.087 2.582.06 3.814-.265a.076.076 0 0 0 .044-.033 7.757 7.757 0 0 1 1.129 1.9c-1.302.322-2.573.552-3.931.531-.098-.001-.097.149 0 .152 1.337.045 2.719-.079 4-.495.265.71.416 1.43.439 2.148-1.548.148-3.149.484-4.649.825-.045.01-.037.088.011.083 1.522-.155 3.135-.345 4.64-.694-.003 1.554-.53 3.084-1.47 4.43zM8.039 15.53c2.882-.152 5.729.079 8.593.039 1.788 1.165 1.543 3.907-.665 4.562-.915.271-1.941.39-2.874.491-1.653.178-3.304.174-4.958.08.266-1.621.09-3.563-.096-5.172z"/><path d="M18.258 25.998c-2.919-1.635-7.22-.674-10.354-.189a.267.267 0 0 0-.211.156c-.184-.05-.428.067-.446.295-.1 1.221-.114 2.444-.16 3.669-.045 1.204-.261 2.468-.128 3.663a.5.5 0 0 0 .383.433.466.466 0 0 0 .333.227c2.739.571 11.854.949 12.162-3.274 1.24-1.757.216-3.975-1.579-4.98zm-10.27 7.184c.474-2.081.288-4.642-.053-6.717.023.006.036.027.061.027 2.861.07 11.42-1.374 11.276 2.963a.183.183 0 0 0-.069.162c.015.227-.009.428-.035.628-.04.172-.092.351-.155.537-.01.03-.01.059-.011.088-1.256 3.089-8.376 2.072-11.014 2.312zM44.641 13.044c-.011-.537.074-1.073.054-1.607-.014-.388-.362-.55-.651-.463a.573.573 0 0 0-.229-.063c-4.011-.293-8.081-.422-12.104-.269a.364.364 0 0 0-.4.01l-.165.004c-.399.018-.415.478-.125.632-.183.81-.022 1.824.033 2.583.026.357.039.856.248 1.175-.007.184.117.387.342.401l-.009.016c4.133-.076 8.206-.427 12.349-.237a.445.445 0 0 0 .422-.217c.182-.034.349-.173.333-.376-.041-.528-.087-1.058-.098-1.589zm-12.804 1.665c-.058-.487.119-1.925.127-2.144.013-.387.052-.763.022-1.131 3.828.401 7.715.555 11.56.551a4.35 4.35 0 0 0-.028.705c-2.893.222-5.786.48-8.674.762-.07.007-.073.116 0 .112 2.897-.173 5.795-.372 8.688-.605.034.41.113.819.233 1.204-3.941-.176-8.043-.218-11.928.546zM49.391 29.398c.662-6.044-3.563-11.577-9.597-12.545-5.741-.921-11.798 2.314-12.534 8.415-.687 5.686 1.597 12.711 7.561 14.341 5.65 1.544 13.264-.313 14.423-6.862a.45.45 0 0 0-.433-.554c.036-.251-.091-.537-.358-.578-.833-.128-1.677.043-2.519.076-.927.036-1.855-.008-2.782-.01a.372.372 0 0 0-.369.274.463.463 0 0 0-.199.198c-.866 1.702-2.685 2.717-4.602 2.177-1.848-.521-3.076-2.282-3.639-4.03 4.755.499 9.885.561 14.64.258.467-.03.511-.61.152-.771a.493.493 0 0 0 .256-.389zm-15.406.291c-.201.017-.284.168-.27.313a.259.259 0 0 0-.086.241c.329 2.482 1.906 4.773 4.496 5.27 2.238.43 4.629-.751 5.459-2.887 1.48.374 3.336.541 4.73.009a10.218 10.218 0 0 1-1.265 2.332c-1.405.118-2.783.209-4.197.116-.092-.006-.091.137 0 .143 1.349.1 2.728.107 4.071-.093a9.635 9.635 0 0 1-1.038 1.186c-1.64.205-3.27.33-4.934.302-.083-.001-.083.126 0 .129 1.566.058 3.139 0 4.693-.213a9.53 9.53 0 0 1-1.947 1.338c-2.596-.145-5.206-.151-7.805-.211-.071-.001-.07.107 0 .11 2.493.093 4.992.234 7.487.257-.443.208-.896.396-1.37.54-1.984.136-3.927.174-5.914-.019-.074-.007-.071.105 0 .114 1.51.191 3.048.28 4.574.211-1.765.296-3.661.189-5.553-.344-5.099-1.437-6.945-7.085-6.847-11.965.135-6.708 7.044-10.405 13.061-8.31a9.62 9.62 0 0 1 1.774.85c-2.336-.122-4.673-.203-7.007-.392-.097-.008-.095.14 0 .15 2.478.252 4.986.485 7.483.535a9.805 9.805 0 0 1 2.146 1.967c-1.622-.311-3.345-.266-4.984-.167-.088.005-.089.141 0 .137 1.706-.073 3.364.102 5.062.185.015.001.016-.017.027-.024a11.08 11.08 0 0 1 1.228 1.964c-1.189-.035-2.391.019-3.576.026-.08 0-.1.085-.069.137-1.131-1.878-3.608-2.962-5.732-2.69-1.901.243-5.41 2.279-4.422 4.616-.137.154-.088.462.141.511 3.035.649 6.486.395 9.582.452.492.009.627-.522.421-.841a.505.505 0 0 0 .563-.604 4.297 4.297 0 0 0-.542-1.43.08.08 0 0 0 .059.025c1.217.008 2.452.065 3.672.023.327.711.598 1.454.796 2.225-.009-.003-.015-.01-.025-.009-1.071.07-2.1.172-3.175.081-.129-.011-.127.188 0 .2 1.05.099 2.164.133 3.198-.111a.073.073 0 0 0 .04-.03c.143.581.26 1.171.331 1.772-3.647-.071-7.304-.035-10.952-.009-.091.001-.091.14 0 .141 3.652.062 7.312.133 10.964.097.005 0 .006-.004.011-.005.047.449.08.901.088 1.355.002.14.052.243.122.319-4.744-.386-9.846-.436-14.569-.025zm4.893-7.511c2.107.206 3.152 1.627 4.192 3.272l.013.015c-.034-.007-.063-.022-.101-.023-2.898-.077-6.078-.425-8.983-.053-.001-.01.002-.02 0-.03-.406-2.145 3.389-3.326 4.879-3.181zM21.961 35.749c-4.071.827-8.071 1.224-12.222.966-.079-.005-.078.116 0 .122 4.111.351 8.268.128 12.274-.899.123-.031.071-.213-.052-.189zM24.095 32.279c-1.34.24-2.648.439-4.014.443-.102 0-.102.157 0 .158 1.356.019 2.748-.07 4.064-.418.121-.032.069-.204-.05-.183z"/></g></svg>