<svg xmlns="http://www.w3.org/2000/svg" viewBox="0 0 47.723 47.723"><g fill="#b7b7b7"><path d="M46.752 39.142a2.499 2.499 0 0 0-1.581-.529.44.44 0 0 0-.358-.215c-2.666-.11-5.165-.221-7.681-1.233-3.241-1.304-3.28-3.708-3.033-6.803.004-.055-.009-.101-.02-.149a.443.443 0 0 0-.2-.428c-3.109-2.2-6.761.304-7.935 3.459-1.253 3.37-.548 7.586 1.857 10.265 4.061 4.523 19.988 7.371 19.658-2.13 0-.008-.007-.011-.008-.018.074-.022.142-.061.178-.138.342-.739-.312-1.637-.877-2.081zm.21 2.17a7.243 7.243 0 0 1-1.139 2.203c.006-.048-.002-.101-.036-.128l-.104-.084c-.075-.06-.161-.049-.218.028a3.69 3.69 0 0 0-.056.076c-.074.1.066.214.161.161-.376.208-1.722.027-2.257.051-.813.037-1.626.05-2.44.043a50.199 50.199 0 0 1-4.521-.258c-.14-.014-.137.202 0 .218 2.198.256 4.4.38 6.613.325.705-.018 2.242.266 2.785-.317a7.167 7.167 0 0 1-1.814 1.622c-3.636-.061-7.276.064-10.915-.015-.114-.002-.113.171 0 .176 3.432.157 6.91.317 10.351.174-3.71 1.926-9.127 1.081-12.499-1.284-2.058-1.443-3.362-3.384-3.817-5.87-.718-3.921 1.611-8.198 5.846-7.912-.3 1.608-.375 3.326.196 4.767-.841-.011-1.687.032-2.523.043-.156.002-.156.24 0 .243.887.012 1.787.06 2.679.041.326.672.791 1.28 1.485 1.763a35.412 35.412 0 0 0-3.644.207c-.122.013-.125.203 0 .193 1.387-.111 2.762-.113 4.146-.094 2.776 1.593 6.591 2.228 9.695 1.606a.39.39 0 0 0 .219-.126c.437.055.849.255 1.18.566.215.203.393.447.497.725.094.251.098.508.219.746a.23.23 0 0 0-.089.111z"/><path d="M45.687 16.492c.127-.081.116-.292-.073-.3h-.045a21.045 21.045 0 0 0-1.615-3.257c-.076-.124-.234-.113-.33-.037-.046.004-.093.002-.134.025-1.458.815-2.832 1.708-4.505.689-.612-.373-1.029-.924-1.285-1.548.018-.058 0-.113-.055-.144a4.245 4.245 0 0 1-.067-2.621.214.214 0 0 0-.022-.179c.037-.181-.094-.408-.307-.327-.991.379-1.784 1.142-2.924 1.025a2.181 2.181 0 0 1-.771-.227l.176.005c.118.002.15-.189.028-.211-.201-.035-.406-.051-.61-.074-.671-.647-.657-1.789-.377-2.824.033-.121-.044-.224-.143-.267l.001-.014a.368.368 0 0 0-.621-.257c-.519.465-.885 1.02-1.658 1.071-.795.053-1.532-.453-2.042-1.012-.644-.706-.973-1.571-1.102-2.478.059-.068.042-.178-.032-.243a7.723 7.723 0 0 1 .073-1.998c.051-.314-.394-.573-.559-.236-.021.043-.031.09-.051.134a.46.46 0 0 0-.293-.42C20.347-1.65 11.527 2.213 6.79 6.091 2.134 9.903.279 16.72.022 22.511c-.661 14.917 13.666 25.127 27.796 23.922a.26.26 0 0 0 .182-.439c.195-.164.248-.505-.035-.686-3.366-2.147-4.559-5.589-4.163-9.445.012-.115-.054-.175-.135-.207a.389.389 0 0 0-.255-.159c-5.431-1.054-10.781-2.999-11.994-9.139-1.012-5.122 1.775-10.188 5.986-12.961.075-.004.15-.001.225-.006.127-.008.164-.131.126-.219.376-.232.758-.452 1.153-.646 5.048-2.48 11.192-.914 14.445 3.762 2.713 3.9 2.558 8.391 1.963 12.834-.081.028-.153.077-.182.174-.621 2.103.185 4.37 1.926 5.699 1.408 1.074 4.05 1.753 5.559.55.153-.122.148-.305.067-.455 4.814-4.987 5.376-12.342 3.001-18.598zM42.49 33.739c-1.459-.067-2.936.01-4.396.027-.143.002-.143.22 0 .222 1.371.017 2.756.082 4.129.035-.185.197-.356.397-.557.591a.481.481 0 0 0-.15.317c-.435.069-.867.154-1.321.13a4.82 4.82 0 0 1-2.519-.862c-1.413-1.003-1.977-2.697-1.978-4.364 3.123-8.695-3.074-19.595-11.898-19.61-2.457-.585-5.024-.836-7.521-1.212-.171-.026-.248.234-.073.264 1.989.348 3.997.777 6.008 1.055-.954.138-1.931.398-2.926.807-1.877-.259-3.796-.322-5.685-.467-.206-.016-.203.302 0 .32 1.672.145 3.358.354 5.038.433-.077.036-.153.064-.23.102-.862.423-1.673.947-2.435 1.539-1.552-.029-3.091-.102-4.644-.311-.146-.02-.182.237-.035.259 1.403.212 2.828.361 4.252.401-.465.39-.917.797-1.335 1.24-1.707-.187-3.443-.223-5.155-.318-.148-.008-.145.216 0 .229 1.614.136 3.241.325 4.863.39a14.946 14.946 0 0 0-2.902 4.795c-1.001-.032-2.014.017-3.011.03-.133.002-.134.206 0 .207.964.012 1.941.06 2.91.035a13.255 13.255 0 0 0-.628 2.702c-1.052-.022-2.106-.004-3.156.003-.167.001-.168.259 0 .26 1.038.006 2.08.024 3.12.003a12.124 12.124 0 0 0-.025 2.198c.013.16.037.311.055.467-1.281-.031-2.574.032-3.85.043-.17.001-.17.262 0 .264 1.289.011 2.597.075 3.891.042.15 1.048.411 2.001.774 2.861-2.244-.137-4.519-.072-6.766-.099-.12-.001-.12.182 0 .186 2.291.076 4.608.25 6.901.204a10.053 10.053 0 0 0 1.737 2.62c-1.53-.035-3.09.135-4.615.211-.117.006-.118.186 0 .183 1.595-.043 3.239.018 4.826-.16.943.967 2.066 1.754 3.318 2.385a885.332 885.332 0 0 0-8.144-.054c-.12 0-.115.171 0 .183a62.02 62.02 0 0 0 8.912.233c1.791.786 3.799 1.298 5.879 1.611-.037.144-.061.289-.088.434-2.761.13-5.442.361-8.226.122-.087-.007-.083.124 0 .134 2.651.322 5.502.514 8.166.06a7.707 7.707 0 0 0-.009 2.102c-1.49.088-2.976.204-4.469.253-.753.024-1.506.038-2.259.045-.377.005-.753.007-1.13.006-.431-.213-.687-.171-.788.097-.011-.017-.014-.039-.039-.042l-.678-.069c-.156-.016-.161.24 0 .248 3.129.139 6.301.131 9.421-.187.153.88.439 1.742.847 2.548-2.865-.017-5.689-.151-8.531-.541-.12-.016-.175.165-.051.187 2.843.482 5.727.739 8.612.633a.129.129 0 0 0 .089-.041c.169.313.362.611.565.904-1.553-.02-3.126.111-4.674.21-.092.006-.094.146 0 .144 1.593-.024 3.215-.014 4.802-.168a9.195 9.195 0 0 0 2.547 2.399C14.73 44.521 1.363 38.608.868 24.149.66 18.067 2.586 10.923 7.354 6.912c4.485-3.773 13.067-7.134 18.758-5.301.173.056.306.007.397-.086a4.917 4.917 0 0 0-.28 1.635 35.572 35.572 0 0 0-6.478.01c-.137.013-.139.228 0 .216l.503-.046c.018-.002.017-.02.028-.03.062.215.254.257.596.103h.564a92.82 92.82 0 0 1 1.974.033c.943.025 1.887.081 2.83.111a5.44 5.44 0 0 0 .302 1.5c-1.099-.092-2.224-.068-3.321-.111-.1-.004-.099.148 0 .155 1.13.07 2.284.215 3.42.226a4.917 4.917 0 0 0 1.535 1.997c.029.022.069.041.101.063-.988.048-1.968.072-2.954-.043-.113-.013-.141.182-.027.2 1.068.174 2.133.23 3.2.028.018-.003.027-.016.038-.026.932.477 2.473.649 3.374.103-.109.558-.098 1.101.084 1.584a27.791 27.791 0 0 0-2.473.076c-.125.009-.128.202 0 .197.88-.038 1.751-.001 2.623.036.232.4.604.746 1.176 1 1.036.46 2.455.296 3.409-.404a4.149 4.149 0 0 0-.066 1.653c-1.036-.079-2.099-.051-3.122-.089-.191-.007-.189.285 0 .295 1.049.059 2.136.189 3.201.2.172.667.506 1.292.989 1.795-.816.042-1.637.132-2.441.182-.139.009-.141.223 0 .218.922-.03 1.873-.008 2.805-.068.106.085.208.173.324.247 1.549.976 4.309.834 5.367-.825.291.81.56 1.623.808 2.436-2.913-.038-5.888.243-8.779.435-.145.01-.149.23 0 .229 2.934-.027 5.961.028 8.897-.242.178.604.355 1.208.505 1.811-1.934-.102-3.988.224-5.908.357-.21.015-.214.34 0 .33 1.949-.091 4.059-.003 5.993-.341.203.854.383 1.706.505 2.553-2.275-.31-4.75-.029-7.02.157-.196.016-.2.323 0 .309 2.347-.16 4.733.025 7.067-.173.211 1.603.252 3.188.049 4.735-1.356-.058-2.722.014-4.081-.008-.616-.01-1.232-.026-1.847-.046a6.705 6.705 0 0 0-.629.031c-.011-.013-.011-.035-.034-.035-.396.01-.79-.012-1.182-.065-.18-.017-.178.264 0 .281 2.519.24 5.185.433 7.717.204a13.57 13.57 0 0 1-.64 2.531.143.143 0 0 0-.123-.069c-2.213-.047-4.434.03-6.646.06-.131.002-.131.202 0 .204 2.213.03 4.434.107 6.646.06.011 0 .014-.009.024-.011a13.659 13.659 0 0 1-2.622 4.26z"/><path d="M12.69 16.056c-1.456.298-2.809.429-4.282.16-.23-.042-.329.31-.097.353 1.474.272 3.033.281 4.464-.208.192-.066.115-.346-.085-.305zM46.49 41.735c-4.788-.022-9.561-.186-14.345-.376-.092-.004-.089.132 0 .141 4.764.437 9.561.602 14.345.608.24 0 .24-.372 0-.373zM45.968 39.955c-4.153-.422-8.423-.298-12.597-.376-.114-.002-.113.171 0 .176 4.17.194 8.425.598 12.597.446.161-.006.155-.23 0-.246zM43.516 31.428a116.307 116.307 0 0 0-6.081.022c-.162.005-.207.252-.039.291.169.03.333.078.492.144.078.028.139-.062.121-.128 1.833.051 3.675.06 5.507.026.229-.005.229-.351 0-.355zM45.79 24.118c-1.548-.158-3.166-.017-4.722-.004-.183.002-.183.283 0 .285 1.556.014 3.175.154 4.722-.003a.14.14 0 0 0 0-.278z"/></g></svg>