<svg xmlns="http://www.w3.org/2000/svg" viewBox="0 0 50.489 50.489"><g fill="#1d1d1b"><path d="M32.141 1.076a.553.553 0 0 0-.096-.427c.008-.324-.198-.669-.581-.648-4.041.223-8.206.235-12.226.728a.605.605 0 0 0-.297.03c-.025.003-.051.004-.076.008-.369.048-.428.431-.204.616.68 7.416.377 16.453 3.095 23.426-.334.112-.224.672.144.675.897.008 1.794-.022 2.69-.039.816-.015 1.661.052 2.452-.165.351-.096.441-.392.36-.65a.36.36 0 0 0 .06-.128 399.74 399.74 0 0 0 4.679-23.426zm-4.871 19.04c-.803.028-1.618.139-2.411.202-.198.016-.203.324 0 .313.775-.041 1.574-.039 2.355-.11-.102.743-.22 1.486-.311 2.229-1.038.159-2.012.309-3.091.225-.097-.008-.122.157-.023.173.969.153 2.09.173 3.074-.091-.046.38-.108.76-.151 1.139-.82-.052-1.695.154-2.505.261-.691.092-1.382.182-2.071.286.779-7.375-1.51-15.741-2.319-23.156 3.652.38 7.564.269 11.178-.307-.237.907-.46 1.82-.675 2.736-1.683-.082-3.388-.013-5.07.003-.689.007-2.315-.326-2.835.218-.039.041-.047.119 0 .159l.1.084c.039.033.101.043.139 0l.063-.072c.062-.07-.021-.2-.107-.138.217-.158 1.699.074 2.023.08.616.011 1.232.019 1.848.026 1.247.015 2.502.067 3.75.026-.148.638-.295 1.276-.436 1.916-1.398-.023-2.849.215-4.239.348-.177.017-.183.293 0 .281 1.369-.086 2.811-.088 4.17-.314-.14.64-.286 1.277-.419 1.919-2.19.118-4.342.438-6.549.424-.15-.001-.149.227 0 .232 2.114.073 4.393.108 6.484-.343a182.159 182.159 0 0 0-.817 4.227 49.15 49.15 0 0 0-6.193.254c-.122.013-.127.187 0 .193 1.998.105 4.111.09 6.124-.06-.094.53-.194 1.06-.283 1.591-1.163-.125-2.408.003-3.566.02-.158.002-.159.244 0 .246 1.143.017 2.368.14 3.518.024-.115.688-.237 1.376-.344 2.064a51.612 51.612 0 0 0-5.112.623c-.131.023-.101.238.031.231a51.77 51.77 0 0 0 5.03-.52c-.119.788-.25 1.573-.36 2.358zM38.675 44.596c.169-4.435-.136-9.13-.695-13.507a.51.51 0 0 0-.209-.357c-.025-.034-.045-.069-.083-.1-7.232-5.889-17.983-4.062-25.339.588a.396.396 0 0 0-.196.299c-.008.025-.03.037-.033.067-.266 2.24-.236 4.503-.34 6.755-.103 2.233-.438 4.521-.257 6.749.026.323.381.502.636.414 5.621 8.138 19.857 4.909 26.582.21.453-.314.294-.918-.066-1.118zm-5.744 2.719c-4.616-.067-9.229-.108-13.845-.212-.174-.004-.169.253 0 .267 4.298.351 8.669.452 12.985.258-6.549 2.305-14.337 2.275-19.436-2.607a.312.312 0 0 0-.185-.083c.75-4.035.695-8.917.332-13.004 7.145-3.349 13.451-4.385 20.382-2.11-2.701-.231-5.429-.258-8.13-.186-.12.003-.12.186 0 .186 3.175.009 6.313.235 9.47.477.83.32 1.667.674 2.52 1.09-.007.182-.009.367-.014.55-3.173-.088-6.355-.12-9.529-.105-.116 0-.115.174 0 .179 3.169.137 6.348.228 9.52.263a87.805 87.805 0 0 0-.029 2.673c-.829.01-1.658.087-2.491.046-.18-.009-.177.265 0 .278.805.06 1.674.117 2.495.013.005.606.005 1.211.02 1.819-.775-.046-1.575-.001-2.34.035-.138.006-.138.208 0 .214.768.036 1.57.081 2.347.034.016.588.015 1.175.043 1.763-1.031-.004-2.064.065-3.098.074-.021-1.671-.191-3.365-.303-4.977a.403.403 0 0 0-.425-.395c-4.759-2.303-11.09-2.635-15.714.199-.142-.158-.474-.122-.519.115-.498 2.671-.583 5.71-.396 8.415.024.353.285.514.54.498.393 1.685 4.56 2.468 5.652 2.619 3.646.507 7.773-.356 10.589-2.803a.48.48 0 0 0 .176-.352.432.432 0 0 0 .223-.315c.134-.897.177-1.821.174-2.752 1.034.063 2.095.09 3.115-.043.041.808.09 1.614.154 2.414-.736-.022-1.476-.002-2.21.013-.138.003-.138.212 0 .214.742.015 1.489.035 2.232.013.057.675.107 1.354.182 2.019-1.145-.068-2.322.011-3.464.019-.149.001-.15.231 0 .232 1.151.008 2.338.089 3.491.018.025.208.037.423.064.629-1.39.892-2.94 1.67-4.578 2.308zm-.263-5.277c-2.471 1.362-4.762 2.411-7.646 2.495-.981.029-7.098-.37-7.386-1.978.273-2.513.305-5.305-.006-7.846 5.317-1.574 9.879-1.941 15.14.199-.177 2.343-.413 4.816-.102 7.13z"/><path d="M35.874 45.694c-3.251-.093-6.538.209-9.788.344-.133.006-.134.21 0 .208 3.247-.057 6.561-.013 9.788-.414.086-.011.091-.135 0-.138zM28.53 11.006c-1.517.08-3.039.205-4.551.351-.146.014-.152.237 0 .232 1.516-.053 3.039-.129 4.551-.249.212-.017.216-.346 0-.334z"/></g></svg>