<svg xmlns="http://www.w3.org/2000/svg" viewBox="0 0 49.285 49.285"><g fill="#b7b7b7"><path d="M35.85 14.679c.063-.3-.099-.66-.499-.675-2.509-.092-5.514-.668-7.976-.151a.554.554 0 0 0-.395.395c-.382 1.866.458 4.352.725 6.226.426 2.99.841 5.989 1.499 8.938a.306.306 0 0 0 .074.138c.019.091.069.174.171.197.864.185 2.084.42 2.913.046.009-.004.012-.015.021-.02.118-.005.235-.059.27-.2 1.211-4.819 1.992-9.74 3.202-14.564a.653.653 0 0 0-.005-.33zm-6.933 3.311c1.565.078 3.266.341 4.835.205-.151.672-.321 1.333-.461 2.009-1.223-.034-2.456.005-3.677.039-.136.004-.136.207 0 .211 1.201.034 2.414.07 3.617.04-.123.605-.26 1.207-.369 1.815-.845-.13-1.758.008-2.581.197-.143.033-.08.241.06.217.836-.145 1.637-.111 2.473-.132a59.552 59.552 0 0 0-.361 2.329c-.598-.002-1.198.016-1.79.023-.165.002-.165.255 0 .257.579.007 1.166.024 1.751.024a47.104 47.104 0 0 0-.236 2.24c-.672.101-1.331.13-2.023.011-.132-.023-.19.176-.056.203.678.14 1.38.184 2.062.075-.032.453-.064.906-.08 1.36-.668-.188-1.498-.098-2.208.039-.22-3.387-.734-6.753-1.21-10.112-.224-1.583-1.135-3.601.706-4.072 1.351-.345 3.478-.049 5.108.068-.104.41-.192.83-.286 1.246-1.55-.497-3.344-.493-4.929-.283-.161.021-.17.275 0 .26 1.684-.152 3.208.094 4.846.387-.091.407-.187.81-.279 1.216-1.577-.269-3.321-.137-4.911-.182-.2-.005-.199.3-.001.31zM39.847 34.245c-.054-.227-.333-.266-.486-.137a.377.377 0 0 0-.124-.131c-4.61-2.896-11.346-1.685-16.137.153-.144-.095-.36-.083-.397.13a52.594 52.594 0 0 0-.742 8.894c.001.256.147.397.324.442-.21.036-.3.364-.088.497 4.666 2.945 12.524 4.408 17.322.882.339.146.807-.01.791-.486-.111-3.323.305-6.998-.463-10.244zm-17.395 9.364a.507.507 0 0 0 .47-.455c.335-2.787.449-5.713.319-8.524 2.613-.352 5.177-1.066 7.816-1.223 2.776-.166 5.254.442 7.876 1.293a.35.35 0 0 0 .249-.009c-.027.132-.039.268-.062.401-1.097-.699-4.069-.297-5.2-.327-1.9-.05-3.801-.089-5.701-.127-.136-.003-.135.205 0 .211 3.619.163 7.237.378 10.856.529a18.078 18.078 0 0 0-.19 1.936c-.637-.056-1.315.025-1.953.152-.002-.076.001-.152-.002-.228.309-.168.436-.637.04-.877-3.153-1.911-7.057-1.401-10.417-.308a.318.318 0 0 0-.322.119.329.329 0 0 0-.166.368c-.557 1.537-.968 3.72-.429 5.229a.43.43 0 0 0 .209.227c.26 1.016 2.323 1.428 3.138 1.576.468.085.957.133 1.452.157a192.77 192.77 0 0 1-6.587.033c-.084-.001-.083.125 0 .13 4.951.298 9.912.228 14.857-.153.244-.019.247-.401 0-.383-2.215.159-4.427.263-6.639.331 1.411-.143 2.794-.567 3.907-1.374.029-.021.048-.05.071-.076.345.266.936.149.915-.414-.002-.054.001-.108-.001-.162.683.024 1.364-.002 2.032-.098.055.82.117 1.631.163 2.419-5.431 2.715-11.235 1.798-16.701-.373zm16.437-3.879c.02.503.047 1.006.079 1.506-.675.05-1.343.094-2.013.113-.01-.522-.005-1.045-.002-1.567.646.027 1.313.016 1.936-.052zm-1.936-.274a60.749 60.749 0 0 0-.017-1.761c.653-.067 1.287-.049 1.941-.058-.015.588-.017 1.179.003 1.772a12.981 12.981 0 0 0-1.927.047zm-1.196 1.882c-.185-.008-.368-.008-.555-.025-.141-.013-.137.202 0 .218l.028.003c-1.332.512-2.563 1.002-4.032 1.08-.578.031-4.808-.219-4.693-1.013a.318.318 0 0 0-.017-.147c.092-.753.009-1.536.04-2.294.034-.821.117-1.638.184-2.456 3.268-.409 6.279-1 9.382.391-.434 1.348-.475 2.833-.337 4.243z"/><path d="M49.097 8.993a.567.567 0 0 0-.327-.517.632.632 0 0 0-.305-.456C41.021 3.333 32.143 1.894 23.46 2.317 16.266 2.667 6.907 3.33.926 7.847c-.334-.166-.827-.012-.838.479-.205 9.291-.073 18.732.6 28.001.027.367.387.5.643.394.017.043.034.088.081.123 5.376 4.029 12.327 5.684 18.941 6.012.12.006.21-.03.286-.081.167.116.408.116.521-.098.417-.789.319-1.704.355-2.582.043-1.047.084-2.095.042-3.143.387-.088.385-.604-.034-.658-5.214-.662-9.847-1.614-14.319-4.482a.483.483 0 0 0 .113-.297c.005-.124.005-.248.009-.372.025 0 .05.003.076.003.174.003.169-.253 0-.267l-.069-.004c.197-6.423-.145-12.905-.51-19.318l.173.052c.173.053.269-.194.121-.286-.098-.061-.211-.095-.314-.149a.599.599 0 0 1-.004-.044c6.119-.903 11.851-2.425 18.125-2.277 6.035.142 11.671 1.417 17.398 3.128.108 7.125.003 14.44.887 21.512.052.416.639.438.664 0 .416-7.046-.16-14.27-.522-21.323.467-.159.555-.949-.036-1.172-10.795-4.083-26.038-5.38-36.809-.484-.287-.168-.689-.088-.819.226-.924-.255-1.915-.338-2.838-.305-.223.008-.225.351 0 .348 1.001-.014 1.891.176 2.79.427.015.36.026.72.041 1.08-.992-.116-2.044-.097-2.999-.172-.197-.015-.194.287 0 .306.964.092 2.011.299 3.017.351.033.855.072 1.71.098 2.566-1.03-.12-2.082-.128-3.113-.266-.183-.024-.228.298-.044.325 1.021.15 2.121.337 3.166.303.035 1.2.067 2.401.096 3.602a18.57 18.57 0 0 0-2.349.028c-.181.013-.181.268 0 .281.767.055 1.576.071 2.357.027l.057 2.263c-.863.016-1.733.123-2.593.196-.113.009-.117.184 0 .179.863-.039 1.741-.045 2.601-.142.03 1.159.062 2.317.103 3.475-.897-.078-1.803-.101-2.699-.144-.17-.008-.169.254 0 .264.898.052 1.806.139 2.709.156.031.858.056 1.717.098 2.575-.819-.005-1.639.013-2.457.025-.104.001-.104.16 0 .162.821.011 1.645.03 2.467.025.036.713.058 1.427.104 2.139-.915-.051-1.83-.088-2.745-.128-.175-.008-.173.261 0 .271.919.052 1.839.107 2.76.147.009.137.012.275.022.412a.517.517 0 0 0 .079.239c-.173.202-.206.55.078.751a29.05 29.05 0 0 0 2.988 1.856c-1.67-.236-3.355-.395-5.018-.675-.163-.027-.235.22-.069.251 1.903.36 3.901.737 5.854.821 3.297 1.646 6.949 2.608 10.622 2.276-.042.25-.073.501-.108.752-1.568-.718-4.983-.624-6.377-.8-3.674-.466-7.348-.932-11.026-1.373-.109-.013-.136.177-.026.193 3.205.479 6.413.939 9.621 1.396 2.473.352 5.337.376 7.733 1.102-.056.45-.104.902-.15 1.354-.007.068-.017.14-.026.21-4.893-.677-9.823-1.132-14.734-1.653a114.97 114.97 0 0 1-4.12-1.792c-.034-.015-.06-.005-.091-.007.006-.03.018-.056.018-.091.087-9.215-.1-18.492-.35-27.706C12.3 3.041 26.356 1.819 38.514 5.331c-3.891-.135-7.811-.05-11.698-.041-.172 0-.172.262 0 .267 4.399.12 8.839.355 13.238.237 2.704.884 5.306 1.998 7.739 3.372.024.013.046.013.069.023.005.486.001.972.003 1.457-1.004-.1-2.077.004-3.037.1-.155.015-.16.256 0 .246 1.019-.062 2.028.043 3.038.069l.005 2.643c-1.14-.082-2.301.034-3.425.212-.141.022-.11.27.034.252 1.136-.143 2.254-.136 3.391-.13 0 1.205.011 2.41.006 3.616a50.988 50.988 0 0 0-2.873.1c-.128.007-.13.2 0 .201a50.95 50.95 0 0 0 2.872-.036l-.012 3.239c-.016-.007-.029-.018-.05-.016-.884.096-1.742.174-2.632.091-.188-.018-.184.272 0 .292.888.094 1.798.097 2.666-.131.007-.002.009-.009.015-.012l-.012 2.737c-.853.085-1.699.275-2.54.433-.204.038-.115.341.085.308.818-.134 1.65-.243 2.455-.445-.004 1.129-.008 2.257-.007 3.386-.018-.005-.035-.013-.055-.009-.895.164-1.683.37-2.605.26-.193-.023-.19.278 0 .302.858.11 1.883.092 2.661-.337.001 1.12-.001 2.241.009 3.361-.767.151-1.521.26-2.322.225-.143-.006-.141.211 0 .222.764.056 1.567.036 2.325-.141.008.808.006 1.617.02 2.425-1.067.188-2.129.305-3.219.263-.181-.007-.18.272 0 .281 1.085.057 2.167-.009 3.222-.25.009.493.007.987.019 1.48a.107.107 0 0 0-.08-.027c-1.797.144-3.61.574-5.384.916a31.456 31.456 0 0 0-.322-2.451c.239-.015.477-.024.716-.08a.527.527 0 0 0 .372-.372.492.492 0 0 0-.054-.41.529.529 0 0 0-.459-.264c-.421.026-.84.119-1.227.287-.265.115-.295.345-.199.539-.211 2.029-.31 4.288.061 6.288.099.535.678.506.971.193a.416.416 0 0 0 .147-.01c1.146-.284 2.221-.844 3.254-1.405.951-.517 2.016-1.058 2.674-1.934a.415.415 0 0 0 .067-.137.4.4 0 0 0 .266-.356c.804-9.155.61-18.485.395-27.667zM20.461 40.266c-.072.514-.149 1.048-.121 1.557-5.024-.284-9.435-1.554-13.863-3.32 4.655.623 9.313 1.295 13.984 1.763zm27.287-3.915c-.976.351-1.807 1.115-2.677 1.674-.842.542-1.732 1.007-2.577 1.541.054-.849.03-1.727-.041-2.604 1.792-.239 3.651-.403 5.401-.838.022-.006.032-.022.047-.035l.003.237a.425.425 0 0 0-.156.025zM38.017 44.029c-2.928.276-5.805.647-8.752.705-.138.003-.138.213 0 .214 2.915.033 5.926-.044 8.792-.625.162-.034.128-.31-.04-.294z"/><path d="M44.831 7.761c-3.246-.174-6.543.04-9.798-.008-.123-.002-.121.183 0 .19 3.224.176 6.579.431 9.798.12.192-.018.197-.291 0-.302z"/></g></svg>