<svg xmlns="http://www.w3.org/2000/svg" viewBox="0 0 47.679 47.679"><g fill="#b7b7b7"><path d="M22.643 5.204c-6.526.549-11.865 2.381-16.217 7.447-4.041 4.704-7.7 11.687-5.999 17.966.005.018.02.025.03.038-.004.035-.013.066-.017.101-.03.25.376.297.435.059 2.765-11.074 10.263-17.637 21.74-18.592 11.625-.967 20.727 6.674 23.457 17.662a.504.504 0 0 0 .129.234c.001.098.006.194.005.292-.002.944 1.447.944 1.466 0 .298-14.932-9.785-26.49-25.029-25.207zM.657 29.479C.568 23.663 3.314 17.66 7.12 13.345c4.385-4.971 9.96-6.471 16.366-6.799 3.982-.204 7.509.54 10.538 1.992-4.807-.738-9.735-.877-14.578-.876-.174 0-.174.268 0 .271 5.314.077 10.525.689 15.797 1.224a19.362 19.362 0 0 1 2.453 1.67c-5.15-1.115-10.583-1.481-15.803-1.629-.128-.004-.125.189 0 .197 5.531.359 10.946 1.225 16.424 1.942.65.561 1.249 1.179 1.824 1.821-1.441-.38-2.974-.525-4.428-.572-.198-.006-.195.294 0 .306 1.707.102 3.3.471 4.932.842.482.58.926 1.196 1.349 1.829a16.226 16.226 0 0 0-1.91-.208c-.268-.016-.264.394 0 .415.77.061 1.52.205 2.275.336.319.51.607 1.045.888 1.585a14.261 14.261 0 0 1-1.404-.259c-.185-.042-.253.218-.078.281.483.175 1.123.382 1.742.469a25.681 25.681 0 0 1 2.154 6.463C37.578 4.811 4.585 7.161.657 29.479z"/><path d="M31.48 30.038c3.846-4.542.055-10.124-4.813-11.618-.001-.114-.051-.221-.199-.243-3.71-.553-8.239-.171-10.223 3.495-2.113 3.902-2.121 9.699-1.424 14.222-.302 6.184 8.835 7.885 13.296 5.877 5.06-2.277 7.119-7.468 3.363-11.733zm-1.776 9.095c-3.659.051-7.295.234-10.959.113-.174-.006-.174.263 0 .271 3.451.159 6.969.271 10.423-.006-4.503 2.991-12.529 2.691-13.513-4.196-.002-.014-.009-.021-.012-.034-.132-3.469-.152-6.974.594-10.371 1.14-5.191 4.598-5.758 8.837-6.062 1.251.447 2.48.911 3.57 1.614-2.362-.209-4.737-.314-7.102-.463-.184-.012-.181.269 0 .285 2.57.217 5.145.491 7.722.62.361.282.704.595 1.018.958-1.352-.316-2.823-.373-4.187-.536-.175-.021-.218.284-.042.311 1.48.227 3.051.625 4.55.626.438.597.763 1.259.96 1.949-.367-.002-.734.006-1.097-.004-.64-.017-1.281-.08-1.921-.073-.149.002-.189.232-.036.266.956.211 2.118.337 3.166.272.16.804.156 1.628-.049 2.415a.187.187 0 0 0-.112-.056c-1.407-.166-2.895-.033-4.313-.019.472-.48.733-1.137.607-2.008-.284-1.962-3.062-3.228-4.917-2.617-3.866.025-3.608 6.566-3.44 9.173.174 2.712 1.789 7.27 5.375 5.848a.453.453 0 0 0 .14-.089 2.805 2.805 0 0 0 1.881-1.279c.006.058.043.115.119.12 1.594.104 3.302.31 4.902.198-.412 1.071-1.178 2.01-2.164 2.774zm-7.263-7.136c.026.027.045.062.079.081 1.049.557 2.306.15 3.247 1.118 1.223 1.257.384 2.915-.969 3.422-.027-.005-.051-.015-.082-.015-3.465-.063-4.263-3.169-4.306-6.053-.036-2.474-.081-5.654 2.223-7.202 1.382.044 3.299-.073 3.886 1.563.74 2.062-2.471 2.167-3.625 2.267-.207.018-.319.188-.323.355-.02.021-.046.03-.06.059-.264.553-.26 1.18-.332 1.785-.088.736-.152 1.471-.132 2.212.007.231.197.38.394.408zm4.526 3.908c-.024 0-.037.013-.053.022a2.816 2.816 0 0 0 .311-1.921c-.185-.989-.855-1.77-1.738-2.225-.701-.362-1.704-.716-2.533-.58a14.89 14.89 0 0 0 .161-1.53c.027-.565.121-1.173.031-1.738 1.247.257 2.894.067 3.869-.74.013.059.051.112.129.115 1.434.042 2.942.214 4.37.077.019-.002.028-.015.044-.021a4.856 4.856 0 0 1-1.059 1.819c-2.214-.122-4.463.013-6.679.042-.19.003-.19.293 0 .295 2.155.028 4.342.153 6.497.048a.646.646 0 0 0 .02.244.463.463 0 0 0 .093.41c.378.468.667.925.918 1.377-1.215-.155-2.463-.181-3.678-.268-.151-.011-.146.216 0 .232 1.282.143 2.59.366 3.883.417.345.71.555 1.399.622 2.057-1.48-.232-3.023-.261-4.507-.28-.197-.002-.196.299 0 .306 1.517.051 3.014.251 4.521.367a4.989 4.989 0 0 1-.217 1.623c-1.621-.233-3.375-.143-5.005-.148z"/><path d="M30.468 37.757c-2.087-.09-4.213.094-6.301.161-.111.004-.111.173 0 .172 2.089-.016 4.219.085 6.301-.087.156-.013.16-.239 0-.246z"/></g></svg>