<svg xmlns="http://www.w3.org/2000/svg" viewBox="0 0 49.119 49.119"><g fill="#b7b7b7"><path d="M47.781 24.069c-1.482-3.847-4.705-6.415-8.887-5.893 1.192-4.038.383-8.727-2.021-12.179C34.015 1.893 29.465.678 24.717.201 16.857-.587.751.519.593 11.197.236 16.284.367 21.421.336 26.52.313 30.316.02 34.285.645 38.05c.976 5.882 4.687 8.658 10.046 10.103.023.121.103.238.261.257 5.372.648 10.849.637 16.254.661 3.641.016 7.632.385 11.027-1.197 5.182-2.415 9.545-7.6 10.142-13.319.43-.493.351-1.503.405-2.096.253-2.762.005-5.784-.999-8.39zm.187 8.98a16.585 16.585 0 0 1-.505 2.482c-2.482.208-4.922.394-7.419.283-.075-.003-.074.112 0 .116 2.451.136 4.952.125 7.381-.276-1.645 5.618-6.147 9.942-11.62 11.665-7.415-1.44-14.641-.773-22.125-1.283-.064-.004-.063.094 0 .099 7.326.641 14.422.193 21.727 1.304-1.109.321-2.25.548-3.419.644-6.598.546-13.288-.193-19.9-.244a.373.373 0 0 0-.197-.157c-3.998-1.416-7.92-2.828-9.543-7.157-1.076-2.87-.953-6.152-.96-9.17-.016-6.223.17-12.516-.178-18.738C2.467 1.066 16.263.348 25.373 1.434c2.433.29 4.488.932 6.201 1.862-3.988-.26-7.992-.405-11.982-.579-.078-.003-.077.115 0 .12 4.147.263 8.305.561 12.459.726a11.914 11.914 0 0 1 2.613 2.088c-4.662-.152-9.307-.29-13.963-.633-.086-.006-.089.114-.019.141l.576.22c.045.017.075-.056.032-.077.595.295 2.045.09 2.797.145 1.318.096 2.637.175 3.957.239 2.26.109 4.525.189 6.788.172.61.685 1.144 1.428 1.58 2.242-4.472-.329-8.972-.449-13.451-.664-.088-.004-.088.132 0 .137 4.518.254 9.049.607 13.575.741.871 1.71 1.374 3.681 1.523 5.863-1.934-.082-3.882-.06-5.817-.063-.097 0-.096.147 0 .15 1.94.047 3.892.122 5.833.09a22.746 22.746 0 0 1-.054 3.338c-1.855-.029-3.713-.005-5.568.005-.081 0-.082.126 0 .127 1.851.009 3.704.034 5.555.005-.028.298-.046.591-.085.895-.042.331.288.441.541.344a.397.397 0 0 0 .366.146c2.013-.252 3.802.313 5.245 1.397-3.73-.074-7.472.026-11.2.047-.071 0-.071.109 0 .11 3.812.021 7.639.126 11.452.042.951.777 1.74 1.784 2.323 2.935-5.224.008-10.449.035-15.673.069-.079.001-.079.122 0 .122 5.268.034 10.536.062 15.805.07.198.42.37.856.513 1.307.519 1.642.6 3.365.595 5.075-.01-.02-.015-.046-.045-.047-1.953-.085-3.95-.029-5.903.049-.027.001-.027.041 0 .042 1.953.079 3.95.135 5.903.05.03-.001.036-.027.046-.047l.002.258c-.004.434.089 1.445.088 2.338-.004.006-.012.009-.013.018z"/><path d="M29.121 13.038c.221.002.438-.163.34-.424-.587-1.56-1.865-2.287-3.493-2.578-3.449-.617-7.367-.492-10.863-.445a.335.335 0 0 0-.305.173c-2.247.389-4.004 2.935-3.542 5.166.392 1.891 2.479 3.817 4.484 3.557 2.144.326 4.31.471 6.476.587 1.78.096 3.671.229 5.32-.6 2.18-1.096 3.102-3.458 1.583-5.436zm-12.295 4.858c-.02-.076-.066-.144-.154-.159-1.724-.286-3.552-.694-4.19-2.581-.818-2.421 1.112-4.156 3.245-4.685.064-.016.092-.059.133-.093 3.925.167 10.796-.654 12.954 2.508l.013.013c-.121.051-.215.197-.144.337 2.82 5.618-7.2 4.911-11.857 4.66zM37.901 33.336c.002-1.761-.847-4.277-2.772-4.72a.507.507 0 0 0-.35.053.404.404 0 0 0-.162-.055c-3.819-.437-7.703-.466-11.545-.456-2.88.007-6.388-.496-9.224.076-2.377.479-3.366 2.311-3.374 4.396-.016.026-.035.05-.034.085.024 2.806 1.434 4.556 4.169 5.241 2.725.683 6.211.013 8.99-.073 3.838-.117 7.707-.101 11.529-.462a.36.36 0 0 0 .337-.346c1.539-.623 2.433-1.948 2.436-3.739zm-3.231 3.21a.359.359 0 0 0-.216.17c-5.625.109-20.275 2.813-23.246-2.949.833-6.081 7.61-4.814 11.863-4.712 3.803.091 7.62.331 11.423.286a.464.464 0 0 0 .126.148c1.064.831 1.732 1.716 1.961 3.098.253 1.526-.217 3.449-1.911 3.959zM40.043 45.054a295.915 295.915 0 0 0-22.349-.547c-.056.001-.056.086 0 .086a382.11 382.11 0 0 1 22.349.661c.129.008.128-.192 0-.2zM43.841 41.837c-6.164-.386-12.393-.175-18.556.137-.054.003-.055.086 0 .084 6.193-.234 12.363-.103 18.556-.101.078 0 .077-.116 0-.12zM45.529 39.288c-3.237.053-6.464.154-9.703.101-.086-.001-.085.13 0 .133 3.226.111 6.479.163 9.703-.044.121-.008.123-.192 0-.19zM47.841 33.185c-1.819-.121-3.657-.083-5.479-.112-.073-.001-.073.112 0 .114 1.822.048 3.657.163 5.479.118.078-.001.077-.115 0-.12zM47.21 27.158c-2.05-.004-4.069.008-6.112-.206-.092-.01-.09.133 0 .143 2.017.235 4.084.389 6.112.225.103-.008.106-.162 0-.162zM37.301 11.364c-2.328-.109-4.635-.175-6.953-.452-.084-.01-.082.12 0 .131 2.294.301 4.636.549 6.953.488.108-.003.107-.162 0-.167z"/></g></svg>