<svg xmlns="http://www.w3.org/2000/svg" viewBox="0 0 49.2 49.2"><path d="M35.08 13.678c-5.831-3.556-12.643-2.358-17.382 2.191-.546-4.067.079-8.238-.659-12.255.42-.962-.076-2.187-.823-2.848-.728-.644-1.688-.796-2.587-.572-.96-.196-2.01-.138-2.972-.163A142.978 142.978 0 0 0 6.62.002c-.336.002-.461.465-.225.638a.373.373 0 0 0-.145.312c.068 1.612.096 3.3.363 4.898-.35.259-.041.75.354.591a.593.593 0 0 0 .564-.141 2.5 2.5 0 0 1 1.506.345c.61.358.756.942 1.198 1.432.021.023.05.028.075.044-1.4 12.506-.199 25.775-.14 38.336a.56.56 0 0 0 .041.199c-.21.07-.199.413.023.463 2.078.464 4.165.494 6.288.527.479.007.706-.432.646-.848-.133-.916-.179-1.835-.217-2.758 2.766 5.471 9.799 6.192 15.063 4.016 6.253-2.586 10.154-8.62 10.817-15.239.684-6.827-1.553-15.359-7.751-19.139zM9.865 5.91a2.876 2.876 0 0 0-2.214-.473C7.594 3.906 7.325 2.34 7.11.835 7.108.819 7.099.81 7.095.795c1.085.198 2.17.365 3.273.456 1.255.103 2.662.321 3.871-.082.06-.02.091-.062.133-.096.377.135.722.359 1.001.674.16.18.264.375.35.576-1.214-.153-2.457-.182-3.675-.251-.16-.009-.155.23 0 .246 1.257.129 2.534.31 3.8.34.069.232.122.469.175.711-2.542-.016-5.122-.086-7.648.125a.093.093 0 0 0 0 .186c2.571.215 5.198.138 7.785.124.032.059.061.122.112.159-.01.473-.021.953-.034 1.428-2.079-.003-4.205.277-6.289.366-.092.003-.116.092-.084.153zm31.962 24.896c-.013-.004-.021-.015-.036-.014-1.234.026-2.441.161-3.68.094-.187-.01-.183.274 0 .288 1.215.098 2.511.166 3.71-.09l-.001.066a19.71 19.71 0 0 1-.362 2.963c-1.951-.177-4.034-.089-5.97.015a.091.091 0 0 0-.075.044c1.711-7.828-1.457-17.718-9.418-16.077.038-.305-.127-.615-.515-.57-12.106 1.41-10.385 26.172 1.472 25.582 4.593-.229 7.403-4.169 8.448-8.868.007.041.033.078.088.083 1.903.151 3.951.291 5.881.173-.174.796-.386 1.58-.652 2.343-1.343-.245-2.703-.217-4.047.004-.186.031-.105.308.077.281 1.306-.189 2.563-.141 3.862.056a18.65 18.65 0 0 1-.861 1.982c-1.194.096-2.31.211-3.534.012-.147-.024-.213.197-.063.227 1.075.217 2.287.337 3.402.144a17.317 17.317 0 0 1-1.476 2.297c-1.732-.016-3.476.141-5.213.117-.119-.002-.116.175 0 .183 1.611.107 3.323.207 4.953.042a16.28 16.28 0 0 1-1.471 1.619.184.184 0 0 0-.157-.093c-4.359-.16-8.765-.208-13.12.059-.09.005-.091.139 0 .141 4.319.094 8.637.099 12.957.209a15.83 15.83 0 0 1-1.971 1.525c-.377.243-.767.464-1.165.673-3.899-.501-7.836-.818-11.751-1.146-.135-.011-.13.192 0 .207 3.719.448 7.457.91 11.194 1.21-.64.302-1.301.559-1.973.767-1.781-.192-3.568-.21-5.35-.455-.074-.01-.109.099-.032.115 1.404.292 2.913.564 4.38.611-4.446 1.034-9.191-.106-11.788-4.422-.247-.41-.741-.221-.837.136a.621.621 0 0 0-1.005.45c-.075.847-.045 1.678.043 2.511-1.504-.019-2.991.002-4.478.191.001-.012.007-.02.007-.032.003-12.66 1.164-26.044-.343-38.63.147-.734-.392-1.419-1.005-1.86 2.022.11 4.291.155 6.281-.278-.025.941-.052 1.879-.067 2.824-1.378-.037-2.743.024-4.123-.088-.154-.012-.146.216 0 .236 1.345.177 2.765.297 4.119.116-.011.808-.015 1.615.002 2.42-.911.082-1.791.126-2.713.12-.136-.001-.175.222-.033.245a8.134 8.134 0 0 0 2.761-.043c.02.71.047 1.418.103 2.122-.947.122-1.863.279-2.832.302-.178.004-.174.261 0 .274.894.068 1.96.013 2.853-.263a27.3 27.3 0 0 0 .521 3.505c.122.549.784.49 1.016.112.014-.013.03-.017.044-.032 3.956-4.385 9.852-6.086 15.15-3.788-2.116-.245-4.347-.153-6.466-.152-.137 0-.135.203 0 .211 2.232.136 4.59.402 6.821.229.044-.003.075-.033.097-.068.589.283 1.172.601 1.741.988.365.248.708.518 1.039.803-3.036-.263-6.138-.167-9.172-.054-.169.006-.17.265 0 .264 3.21-.034 6.41.178 9.615.203a13.448 13.448 0 0 1 1.848 2.174.161.161 0 0 0-.094-.046c-2.172-.226-4.46-.058-6.645-.036-.132.001-.131.199 0 .204 2.183.082 4.468.315 6.645.149.135-.01.171-.132.128-.222.588.872 1.092 1.81 1.511 2.795-1.417-.018-2.841.1-4.262.086-.172-.002-.167.249 0 .264 1.43.123 2.978.199 4.399-.044.365.901.665 1.834.9 2.784-.007-.002-.009-.01-.017-.011-1.19-.195-2.505-.028-3.709-.008-.176.003-.177.271 0 .274 1.203.019 2.519.187 3.709-.008a.1.1 0 0 0 .063-.041c.279 1.174.467 2.368.565 3.548-1.716-.177-3.492-.107-5.211-.146-.213-.005-.212.322 0 .331 1.728.068 3.508.252 5.241.178.052.812.071 1.619.047 2.404zM25.264 41.669c-8.868-2.292-9.862-21.259-.213-22.961.042.105.121.191.264.177 14.351-1.332 10.195 25.433-.051 22.784z" fill="#b7b7b7"/></svg>