<svg xmlns="http://www.w3.org/2000/svg" viewBox="0 0 49.054 49.054"><g fill="#1d1d1b"><path d="M39.096 26.337a.148.148 0 0 0-.082-.169 5.389 5.389 0 0 0-.588-.873.179.179 0 0 0-.045-.153c-3.793-4.209-11.332-1.29-14.429 2.222-4.101-4.17-12.228-7.638-14.057.535-1.8 8.046 7.875 15.901 13.717 19.638.234.15.456.114.627-.005.071.093.178.163.314.136 3.862-.765 6.926-3.443 9.373-6.588a.197.197 0 0 0 .116-.151c1.295-1.686 2.418-3.496 3.387-5.218.636-1.13 1.238-2.353 1.663-3.591a.203.203 0 0 0 .06-.177c.638-1.939.803-3.903-.056-5.606zm-.8 5.29c-4.026-.861-8.598-.785-12.651-1.101-.159-.012-.156.231 0 .246 4.053.394 8.385 1.34 12.483 1.389-.609 1.754-1.61 3.473-2.663 5.007-.008-.001-.011-.009-.019-.01a2017.76 2017.76 0 0 1-18.717-1.431c-.147-.012-.146.216 0 .229 6.147.521 12.294 1.06 18.437 1.637a58.998 58.998 0 0 1-2.106 2.77c-.056.069-.114.129-.17.196-4.008-.731-8.083-1.164-12.139-1.473-.12-.009-.118.175 0 .186 3.979.371 7.905.982 11.841 1.631a20.97 20.97 0 0 1-1.401 1.482c-4.296-.805-8.691-1.258-13.049-1.538-.098-.006-.095.141 0 .151 4.256.443 8.466 1.077 12.693 1.719a22.708 22.708 0 0 1-2.067 1.662c-2.445-.151-4.871-.22-7.31-.529-.163-.021-.204.265-.039.29 2.247.337 4.57.611 6.855.585-1.166.792-2.406 1.515-3.749 2.254a.595.595 0 0 0-.278-.529c-4.147-2.726-8.169-6.072-10.93-10.262-2.008-3.047-4.175-8.074-.521-11.16 4.345-3.67 8.36 1.183 11.176 3.369a.361.361 0 0 0 .519-.055.51.51 0 0 0 .268-.161c1.648-1.865 3.75-3.242 6.225-3.7 2.46-.455 4.406.445 6.693.879a6.3 6.3 0 0 1 .381.673c-2.368-.283-4.781-.373-7.153-.555-.163-.013-.16.237 0 .253 2.429.24 4.885.587 7.328.709.258.632.416 1.28.467 1.942-3.433-.519-6.966-.658-10.422-.799-.204-.008-.202.306 0 .316 3.492.183 6.953.624 10.433.896.016.937-.133 1.887-.415 2.832zM32.086 18.879a.413.413 0 0 0 .023-.457c-2.929-5.383-11.868-4.107-15.221.059-.024.031-.036.062-.051.094-.554.483-.751 1.33-.273 1.967.302.402.811.66 1.317.663.443.002 1.064-.176 1.156-.672.046-.246-.101-.429-.346-.454-.449-.046-.891.317-1.284-.106-.215-.232-.254-.543-.185-.831a.411.411 0 0 0 .226-.101c2.826-2.461 7.325-4.207 10.806-2.773-1.557-.189-3.144-.218-4.7-.197-.1.001-.1.153 0 .155 1.859.036 3.68.252 5.518.455.429.255.841.556 1.222.931-1.789-.167-3.59-.253-5.38-.376-.988-.068-2.949-.624-3.819-.076a.088.088 0 0 0-.039.095l.05.194a.067.067 0 0 0 .064.049l.164-.003c.053-.001.069-.086.013-.097.235-.293.553-.33.954-.11l1.493.136c.746.066 1.493.127 2.24.191 1.538.131 3.078.286 4.62.372.188.216.374.437.546.688a.562.562 0 0 0-.083.166c-.977-.235-2.057-.302-3.016-.279-.131.003-.127.19 0 .2 1.011.087 2.001.259 2.999.403.066.355.102.614-.251.886-.319.245-.76.304-1.177.322a.497.497 0 0 0-.124-.222c-2.9-2.973-7.629-3.199-10.407.074-.304.358.173.855.522.522 2.72-2.595 6.584-2.761 9.162.127.207.232.48.184.665.024.776.202 1.61.288 2.245-.311.436-.412.657-1.184.351-1.708z"/><path d="M40.113 15.141c-.234-.026-.474-.037-.715-.049-8.405-8.72-23.561-8.737-30.89 1.557a.869.869 0 0 0-.415.578c-.123.531.128 1.051.536 1.387.434.358 1.021.493 1.571.417.554-.076 1.353-.347 1.509-.95v-.004c7.739-7.45 17.253-7.248 25.327-.417a.415.415 0 0 0 .22.096c.525.49 1.234.798 1.946.509.696-.283 1.191-1.159.773-1.826.188-.126.289-.402.092-.627-.116-.133-.239-.258-.359-.387.135-.01.273-.013.406-.028.164-.018.164-.237-.001-.256zm-6.869-1.715c-7.052-4.049-16.738-2.388-22.034 4.194-.019.024-.028.05-.04.075-.484.038-.952.369-1.471.271-.25-.047-.49-.183-.581-.43a1.28 1.28 0 0 1-.054-.406c6.908-7.007 16.036-9.203 24.058-5.37-3.259-.776-6.582-1.256-9.924-1.505-.118-.009-.116.172 0 .183 3.835.358 7.551 1.086 11.266 2.032a22.375 22.375 0 0 1 3.007 2.088c-1.29-.557-2.749-.881-4.082-1.283-.108-.032-.164.068-.145.151zm6.123 3.068c.032.454-.153.904-.632 1.035-.368.101-.743-.052-1.064-.267a.447.447 0 0 0-.084-.153 15.647 15.647 0 0 0-4.134-3.546c1.379.47 2.817 1.087 4.245 1.334.048.008.088-.018.115-.053.089.076.177.156.265.233-.649.018-1.299.061-1.921.1-.118.007-.118.175 0 .183.764.049 1.567.098 2.363.104.305.275.607.557.903.857a.257.257 0 0 0-.056.173z"/><path d="M48.932 13.283a.442.442 0 0 0-.049-.488C36.745-2.511 12.305-2.456.437 13.147c-.019.025-.025.05-.035.075-.491.571-.543 1.536-.096 2.177.465.666 1.969 1.132 2.509.346.018-.01.037-.016.054-.03 6.345-5.43 12.773-9.874 21.483-10.062 8.25-.178 15.966 3.377 21.336 9.57.234.269.53.216.724.03.694.431 1.54.595 2.182-.061.381-.391.617-1.361.338-1.909zm-3.348.094C34.425.795 12.912 1.723 2.503 15.153c-.48-.006-.953.123-1.301-.358-.331-.458-.032-1.121.29-1.503a.307.307 0 0 0 .065-.277c7.026-7.218 15.902-10.62 24.669-10.19l-.05.001c-.125.001-.125.192 0 .193.842.007 1.686.021 2.529.027 1.578.209 3.148.53 4.695.992-.718.001-1.435.01-2.152.014-.122.001-.122.189 0 .19.933.006 1.867.014 2.8.005 1.152.372 2.295.79 3.417 1.303-.848-.088-1.697-.172-2.545-.252-.122-.011-.12.177 0 .19 1.04.11 2.08.224 3.122.315.876.422 1.742.879 2.593 1.389a16.886 16.886 0 0 0-2.389-.138c-.09.001-.09.139 0 .141.999.016 1.959.156 2.925.328a33.966 33.966 0 0 1 2.963 2.074c-.903-.169-1.813-.314-2.714-.472-.121-.021-.174.163-.051.186 1.049.202 2.102.429 3.159.603a36.46 36.46 0 0 1 1.876 1.615 67.27 67.27 0 0 0-2.543-.438c-.111-.017-.163.148-.048.173.967.214 1.952.425 2.937.586.397.379.79.767 1.176 1.17a.293.293 0 0 0-.059.284c.032.104.068.206.098.306a19.305 19.305 0 0 1-2.381-.233zm2.237 1.12c-.336.334-.827.288-1.254.106a.572.572 0 0 0-.089-.171c-.22-.276-.451-.537-.68-.802.732.147 1.481.25 2.227.266a.663.663 0 0 1-.204.601zM36.03 34.464c-3.747-.586-7.65-.612-11.434-.782-.186-.008-.184.276 0 .288 3.781.258 7.599.789 11.386.853.199.003.255-.327.048-.359z"/></g></svg>