<svg xmlns="http://www.w3.org/2000/svg" viewBox="0 0 48.185 48.185"><g fill="#1d1d1b"><path d="M47.707 11.222C39.491 8.791 31.87 5.363 24.171 1.648c-.384-.185-.711.186-.615.5-3.186.307-5.794 2.418-8.619 3.803-4.227 2.072-8.856 3.183-13.04 5.298a.24.24 0 0 0-.128.144c-.618-.248-1.106.672-.503 1.077 3.638 2.443 7.571 4.772 11.743 6.197-.329 2.012-.397 4.143-.614 6.168a.401.401 0 0 0 .261.439c-.012.189.14.395.363.326 7.231-2.234 14.015-2.653 21.215-.052.488.177.799-.204.813-.609.236.066.502-.014.542-.311.251-1.854.555-4.238-.168-6.063.006-.003.011-.002.016-.004 1.018-.491 2.035-.981 3.047-1.485.652-.324 1.451-.597 2.081-1.026-.131 1.089-.071 2.286.309 3.205-.198.016-.397.029-.595.043-.138-.13-.414-.08-.471.125v.002c-.091.092-.105.216-.07.335-.401 1.683-.443 3.552-.464 5.261-.016 1.312.86 1.441 2.047 1.665.945.179 1.684-.009 2.003-1.001.531-1.648.638-3.79.721-5.509.017-.355-.313-.533-.603-.49a.397.397 0 0 0-.196-.377c-.464-.251-.964-.142-1.477-.119-.041.002-.081.007-.122.009.033-.696-.142-1.405-.206-2.099-.051-.555-.061-1.11-.084-1.665a42.039 42.039 0 0 0 3.48-1.133c.95-.363 2.063-.695 2.803-1.407.1-.096.116-.233.095-.362.54-.188.668-1.105-.028-1.311zm-5.936 8.915c.434.019.857.087 1.259-.041-.012.047-.017.097-.029.144-.643.064-1.284.161-1.924.244-.061.008-.063.104 0 .097.632-.066 1.267-.123 1.897-.207-.13.563-.245 1.132-.341 1.704-.436.047-.871.1-1.305.142-.078.008-.079.13 0 .122.425-.039.852-.068 1.279-.103-.069.422-.138.844-.199 1.265-.012.079-.019.179-.027.281-.599.001-1.198.004-1.797.009-.064 0-.064.099 0 .099.595.005 1.191.007 1.787.009-.027.385-.053.847-.169 1.105-.278.623-.543.511-1.189.381-.798-.16-.585-.373-.56-1.16.017-.526.037-1.052.049-1.578.019-.874.035-1.747-.06-2.613.443.04.885.08 1.329.1zm2.524-6.903c-.96.391-1.926.764-2.896 1.13-7.965-1.17-16.027-1.738-24.068-2-.086-.003-.085.129 0 .133 7.917.347 15.755 1.128 23.618 2.043l-.031.012a.484.484 0 0 0-.317.375c-.884.085-1.763.627-2.533 1.017-.492.25-.97.522-1.441.805-6.45-.184-12.878-.49-19.307-1.082-.08-.007-.079.116 0 .124 1.387.14 15.051.953 19.112 1.073-.487.299-.965.612-1.436.938a.525.525 0 0 0-.12.12c-.19-.004-.382.09-.423.294-.196.97-.025 1.973.04 2.954.018.268.026.537.042.805-5.251-.309-10.467-.614-15.696-1.243-.084-.01-.082.12 0 .131 5.19.697 10.461 1.218 15.703 1.254.043.718.089 1.436.113 2.155-.022-.011-.036-.029-.06-.038-6.788-2.594-14.557-2.751-21.145.487.573-1.89.927-4.176.63-6.133.082-.198.046-.446-.179-.572-3.835-2.148-7.774-4.037-11.545-6.306C5.9 11.08 9.399 9.707 12.7 8.301c3.847-1.638 7.287-4.171 11.279-5.428a.37.37 0 0 0 .228-.205 68.13 68.13 0 0 0 3.16 1.844 83.776 83.776 0 0 0-6.033-.234c-.071 0-.071.108 0 .11 2.157.04 4.3.171 6.444.349a79.51 79.51 0 0 0 5.857 2.888c-4.735-.71-9.515-.957-14.301-.869-.11.002-.11.172 0 .171 5.023-.072 9.971.314 14.946.973a102.684 102.684 0 0 0 9.134 3.431c-8.847-1.302-17.926-1.677-26.83-1.948-.095-.003-.095.144 0 .148 9.577.359 19.019 1.446 28.543 2.335.482.149.963.303 1.446.446-.783.214-1.533.618-2.278.922zM17.223 41.651c-.537-.524-1.051-1.056-1.625-1.542-.446-.378-.872-.853-1.449-.971a.407.407 0 0 0-.536-.208c-1.188.523-2.429 1.353-3.754 1.422-1.832.095-2.875-1.307-2.838-3.056.03-1.431.829-2.851 2.252-3.285 1.359-.415 2.377.165 3.425.959.182.138.371.086.502-.042a.376.376 0 0 0 .312.022c.722-.229 1.373-.613 2.004-1.028.561-.369 1.274-.789 1.492-1.452.109-.332-.203-.603-.514-.575C11.32 24.805-.325 28.516.008 37.579c.313 8.518 12.921 12.859 17.037 4.551l.001-.003c.208-.025.361-.296.177-.476zM15.992 42c-3.218-.03-6.439.02-9.657.042-.068 0-.068.105 0 .105 3.153.021 6.308.068 9.461.042-.444.429-.898.844-1.374 1.215.002-.051-.037-.108-.104-.098-.547.083-8.234 1.012-8.222.264-.001.055.081.054.084 0l.005-.093c.001-.018-.014-.039-.032-.042-.194-.038-.153-.061-.28.082-.014.015-.021.042-.008.061.524.716 2.178.399 2.946.399a30.502 30.502 0 0 0 5.505-.493c-1.917 1.465-4.115 2.341-6.765 1.778-3.554-.756-6.325-4.04-6.491-7.682-.145-3.187 1.837-6.065 4.597-7.51 2.968-1.554 6.192-.968 8.697.879-2.128-.505-4.344-.677-6.52-.639-.065.001-.065.101 0 .101 2.349-.004 4.6.341 6.881.812.378.306.738.639 1.075 1.001-.311.229-.597.518-.879.742-.55.437-1.153.795-1.712 1.218-.733-1.133-2.263-1.541-3.599-1.378-.008-.004-.005-.016-.016-.017-1.916-.044-3.833-.005-5.75.006-.065 0-.065.101 0 .101 1.744.01 3.487.037 5.231.009-.09.023-.184.039-.27.068-.958.317-1.708.983-2.222 1.809-1.33-.017-2.66.004-3.989.013-.065 0-.065.101 0 .101 1.304.009 2.608.028 3.912.013a5.126 5.126 0 0 0-.677 2.128c-.911-.022-1.825-.005-2.735 0-.076 0-.076.118 0 .118.908.005 1.818.022 2.726 0a5.034 5.034 0 0 0 .395 2.292c-1.121-.085-2.248-.135-3.368-.202-.061-.004-.061.091 0 .095 1.14.082 2.283.181 3.426.243.407.858 1.08 1.564 2.045 1.888 2.013.674 3.961-.316 5.427-1.66.272.48.805.767 1.253 1.088.417.299.849.566 1.283.83-.09.093-.187.179-.279.271zM44.151 29.873c-3.255-2.612-7.984-2.128-10.514 1.064-.677-1.563-2.583-2.397-4.235-2.646-2.276-.343-4.583.206-6.116 1.953-.01-.297-.037-.597-.047-.887-.011-.325-.245-.509-.548-.548a11.261 11.261 0 0 0-3.717.12c-.049.01-.072.04-.101.066-.167-.026-.343.048-.377.253-.761 4.563-1.026 9.646-.597 14.256.233 2.507 1.984 1.987 4.304 2.124.319.019.494-.175.545-.41.069.467.728.425.79-.054.306-2.382-.301-11.169 3.339-11.185l2.397 1.142c.34.695.525 1.43.556 2.203.074.758.07 1.532.064 2.291-.013 1.631-.159 3.255-.358 4.872-.045.367.297.565.618.554a.479.479 0 0 0 .388.229c.598.049 1.193.056 1.793.073.566.016 1.147.153 1.683-.072.042-.018.06-.052.095-.075.235.109.574-.021.574-.344.002-2.78-.967-10.232 3.242-10.646 4.031-.396 3.159 7.65 2.939 10.1-.024.27.144.457.361.548.039.137.142.254.342.296.741.155 1.498.184 2.253.175.696-.009 1.426.069 1.952-.44a.521.521 0 0 0 .102-.167c.031.775 1.213.76 1.249-.032.217-4.742 1.228-11.44-2.976-14.813zm1.851 9.87c-1.17-.09-2.345-.135-3.518-.18a17.267 17.267 0 0 0-.162-2.422c1.194.097 2.39.204 3.587.257.062.773.096 1.557.093 2.345zM43.44 31.25c-2.816-.024-5.632-.003-8.448.018 2.68-1.772 6.15-2.055 8.448-.018zM32.335 44.183c-.539.031-1.074.057-1.611.11.268-1.545.676-4.116.545-6.453.736-.059 1.476-.107 2.209-.193-.127.73-.191 1.489-.199 2.249-.573.119-1.145.25-1.713.381-.069.016-.039.119.029.106a82.11 82.11 0 0 0 1.685-.33c-.001.735.041 1.466.12 2.162-.687-.082-1.381-.133-2.065-.198-.086-.008-.083.123 0 .133.69.081 1.387.178 2.084.241.076.62.175 1.212.292 1.747-.45-.076-.915.019-1.376.045zm8.986-9.998c1.182.049 2.312.27 3.492.484a.077.077 0 0 0 .041-.148c-1.131-.434-2.425-.532-3.652-.511-.669-.918-1.651-1.475-3.097-1.369-1.008.074-1.815.399-2.464.896a.08.08 0 0 0-.058-.028c-1.264-.075-2.525.045-3.765.286-.078.015-.044.132.033.118 1.208-.212 2.401-.266 3.622-.236-.504.428-.91.961-1.223 1.576-.985-.039-2.033.199-2.932.538-.074.028-.044.146.033.12.939-.316 1.844-.41 2.803-.466a8.564 8.564 0 0 0-.654 2.072c-.747.047-1.494.136-2.239.212-.17-2.648-1.054-4.967-3.689-5.086-.887-.04-1.613.148-2.213.499.047-.036.049-.113-.027-.118-1.572-.094-3.175.011-4.75.025-.061.001-.061.094 0 .095 1.565.014 3.158.117 4.721.026-.615.375-1.092.928-1.462 1.596-1.165-.05-2.344.003-3.509.014-.086.001-.086.132 0 .133 1.137.011 2.286.059 3.424.015a8.61 8.61 0 0 0-.736 2.105c-.978-.026-1.96.002-2.937.009-.071 0-.071.109 0 .11.969.007 1.942.033 2.911.009a17.425 17.425 0 0 0-.31 2.353c-.868.074-1.734.187-2.6.285-.076.009-.078.128 0 .12.862-.082 1.728-.15 2.588-.255-.05.82-.059 1.637-.048 2.406-.011-.018-.014-.041-.042-.043-.91-.062-1.838-.002-2.75.006-.083.001-.083.128 0 .129.911.009 1.84.069 2.75.006.028-.002.031-.026.042-.044.016 1.031.065 1.976.097 2.715a.59.59 0 0 0-.52-.392c-2.215-.183-2.749-.529-3.189-2.791-.223-1.149-.039-2.539-.029-3.697.025-2.839.219-5.675.215-8.513.981.104 1.952.223 2.925.38-.026.541-.051 1.092.182 1.577.144.301.67.313.81 0 .049-.11.072-.226.099-.342.096.024.206.01.312-.078 2.797-2.31 7.685-2.229 9.384 1.307.215.448.908.267.979-.179.277-.25.572-.475.874-.688 2.963.021 5.927.047 8.89.019.586.576 1.087 1.311 1.463 2.228.446 1.089.665 2.308.777 3.569-1.194-.109-2.394-.165-3.591-.23-.166-1.08-.48-2.058-.981-2.824zm4.561 10.058a.506.506 0 0 0-.221-.264c-.609-.323-1.176-.099-1.835-.02-.56.068-1.124.101-1.685.154.067-.484.139-1.07.201-1.71 1.189.096 2.403.11 3.596-.012a89.07 89.07 0 0 0-.056 1.852zm.062-2.041c-1.197.053-2.385.095-3.588.043a29.29 29.29 0 0 0 .129-2.544c1.171.079 2.345.157 3.518.191a79.274 79.274 0 0 1-.059 2.31z"/><path d="M34.08 19.338c-5.653-.396-11.335-.548-16.997-.774-.071-.003-.07.106 0 .11 5.659.311 11.332.698 16.997.839.114.003.112-.167 0-.175zM15.027 32.108l-.101-.146c-.028-.04-.084-.064-.129-.034l-.108.072c-.094.063-.012.208.089.153-.455.248-2.545-.422-3.115-.5a45.749 45.749 0 0 0-1.477-.177 45.747 45.747 0 0 0-5.103-.209c-.073.001-.073.113 0 .114 2.307.018 4.604.175 6.885.526.774.119 2.311.823 3.021.341.045-.029.072-.092.038-.14z"/></g></svg>