<svg xmlns="http://www.w3.org/2000/svg" viewBox="0 0 48.846 48.846"><g fill="#1d1d1b"><path d="M5.707 33.035c-.044-.104-.125-.195-.255-.205C2.867 32.635.1 34.092.002 36.986c-.09 2.686 2.605 4.587 5.121 4.304 2.322-.261 4.052-2.41 3.836-4.734-.161-1.736-1.584-3.214-3.252-3.521zm1.962 4.338c-1.717-.138-3.489-.079-5.203-.092-.139-.001-.137.207 0 .215 1.689.089 3.431.25 5.132.221a3.325 3.325 0 0 1-.388.861c-.005 0-.008-.005-.013-.005-1.291.034-2.559.17-3.856.123-.087-.003-.085.127 0 .134 1.205.093 2.475.164 3.681 0-.551.71-1.377 1.2-2.321 1.226-1.845.05-3.673-1.45-3.323-3.393.255-1.413 1.422-2.283 2.704-2.798a.41.41 0 0 0 .21.068c1.298.045 2.64.641 3.175 1.813-1.023-.059-2.058-.048-3.077-.078-.157-.005-.155.233 0 .243 1.069.066 2.153.178 3.228.206.055.197.09.408.099.633a2.95 2.95 0 0 1-.048.623zM22.702 17.875c.005-.506.018-1.013.016-1.516-.002-.452-.405-.682-.81-.617-.831.133-1.646.151-2.486.154-.039 0-.066.014-.101.02.011-.143.02-.29.03-.434a.165.165 0 0 0 .018-.255c.162-2.229.263-4.536.172-6.724C19.468 6.74 18.039 7.065 16.528 7c-1.254-.054-3.118-.573-3.488 1.02-.271 1.166-.117 2.532-.144 3.729-.031 1.347-.051 2.695-.002 4.041-.23.003-.468.046-.701.052-.482.011-.953-.05-1.433-.084-.328-.023-.439.285-.351.529-.295.711-.311 1.53-.407 2.291l-.407 3.247c-.044.354.341.673.667.667.843-.015 1.722-.052 2.558-.216.013 3.026.274 6.048.329 9.075.058 3.208-.323 6.474-.07 9.663a.31.31 0 0 0 .08.172.287.287 0 0 0 .262.329c1.819.218 3.83.734 5.629.257.183-.049.366-.212.404-.404.54-2.755-.125-6.001-.142-8.817-.021-3.445.179-6.879.249-10.321.721.189 1.663.348 2.33.145.245.131.6.016.634-.36.118-1.299.158-2.611.175-3.921.051-.064.055-.158.002-.219zM18.313 39.18a3.184 3.184 0 0 1-.258.533c-.939.048-1.82.063-2.786-.186-.16-.041-.227.202-.068.247.796.23 1.699.389 2.563.344-.963 1.064-2.542.795-4.023.817.76-3.388.934-7.3.705-11.13 1.21.045 2.458.116 3.675.064-.007.698-.012 1.397-.009 2.095-.784-.012-1.575.024-2.355.038-.165.003-.165.254 0 .257.779.014 1.571.05 2.356.038.002.33 0 .66.003.99.001.083.007.178.012.269-.614-.01-1.239.04-1.846.052-.124.003-.125.191 0 .193.613.013 1.243.063 1.864.051.038.477.105 1.028.172 1.604a9.938 9.938 0 0 0-2.243.221c-.131.027-.073.216.054.197.748-.112 1.48-.134 2.222-.126.06.536.115 1.082.135 1.596-.925-.03-1.876.086-2.77.214-.14.02-.108.265.034.249.923-.108 1.831-.09 2.746-.092.005.566-.04 1.08-.183 1.465zm2.265-17.823c-.345.003-.69-.023-1.034-.048-.159-.412-.84-.324-.92.182-.022-.011-.037-.029-.066-.03-1.158-.068-2.339.021-3.498.044-.172.003-.172.264 0 .267 1.159.022 2.341.112 3.498.044.014-.001.019-.011.031-.014-.056.488-.106.977-.149 1.466-.019-.01-.032-.025-.058-.028-1.494-.141-3.048-.037-4.548-.002-.192.004-.193.294 0 .299 1.499.036 3.054.139 4.548-.002.014-.001.02-.012.032-.016a75.944 75.944 0 0 0-.165 2.478c-.99-.08-2.032-.004-3.016.034-.199.008-.199.302 0 .309.977.038 2.013.112 2.998.035-.026.574-.063 1.147-.078 1.721-.756-.031-1.525.055-2.263.183-.127.022-.099.245.031.228.751-.097 1.481-.089 2.224-.067-.008.352-.019.704-.024 1.056-1.222-.052-2.475.02-3.69.065-.17-2.648-.528-5.251-1.04-7.604a.343.343 0 0 0-.056-.283l-.008-.04c-.044-.195-.25-.218-.389-.133a11.712 11.712 0 0 0-1.952-.295l.229-2.411c.063-.669.212-1.374.17-2.05.267.053.538.092.806.125.503.062.992.175 1.382-.204.191-.185.151-.434.003-.611.22-1.428.356-2.866.484-4.305.065-.732-.089-2.2.233-2.843-.023-.667.272-.883.887-.648l1.011.031c.737.022 1.55-.182 2.045.413-.929-.18-1.88-.214-2.826-.145-.174.013-.178.28 0 .274 1.032-.032 2.027.097 3.028.303.069.462-.039 1.227-.102 1.772-.858.04-1.709.094-2.575.077-.189-.004-.176.262 0 .285.819.107 1.699.142 2.538.041l-.003.036c-.015.596-.036 1.193-.056 1.79-.831-.077-1.69-.025-2.491.081-.144.019-.152.244 0 .232.848-.067 1.659-.013 2.481.06-.017.525-.034 1.05-.041 1.575-1.041-.058-2.097-.05-3.13-.059-.19-.002-.185.278 0 .292 1.031.077 2.083.174 3.127.203-.001.386 0 .772.011 1.158.016.544.622.645.913.338a.623.623 0 0 0 .312.115c.681.057 1.354.026 2.027-.048.001.196.011.392.014.588-2.459-.262-5.029-.118-7.455.125-.179.018-.185.296 0 .285 2.513-.154 4.972-.029 7.466.047.009.392.012.783.028 1.175-2.565-.194-5.296.134-7.841.242-.189.008-.191.295 0 .295 2.554 0 5.304.209 7.866-.094.024.51.048 1.02.087 1.529-.343-.007-.692.079-1.036.082zM48.451 15.913c.106-.294-.054-.694-.378-.775-1.14-.284-2.482.059-3.638.209-.748.097-1.621.044-2.19.527-.279-.174-.68-.174-.835.176-1.945 4.389-3.737 8.854-5.427 13.349-.625-1.91-1.688-3.624-2.651-5.403-1.305-2.411-2.315-4.937-3.487-7.411-.133-.281-.478-.137-.538.111-.231-.102-.48-.06-.781-.042-.174.011-.348.016-.522.023-.521-.145-1.089-.1-1.637-.114-.857-.022-1.719-.062-2.574-.002a.716.716 0 0 0-.187.041c-.021.007-.039.02-.059.029a.682.682 0 0 0-.212.153c-.008.01-.021.011-.029.021a.597.597 0 0 0-.109.237l-.011.048a.601.601 0 0 0 .001.19l.007.032a.589.589 0 0 0 .085.2c1.843 7.949 6.324 15.893 10.065 23.082a.57.57 0 0 0 .155.191c.008.071.035.139.11.18.736.408 1.534.62 2.355.784.706.141 1.535.38 2.186.002a.425.425 0 0 0 .218-.382c.138.019.28-.028.354-.175 3.955-7.892 7.063-16.307 10.085-24.59.128-.352-.079-.603-.356-.691zm-1.299 1.668c-1.261-.493-2.653-.55-3.977-.322-.15.026-.117.289.036.269 1.328-.169 2.543.026 3.801.416-.192.499-.381 1-.573 1.499-1.244-.003-2.499.124-3.745.091-.21-.005-.206.31 0 .323 1.149.077 2.384.173 3.56.068-.299.775-.587 1.554-.889 2.327-1.119-.006-2.251.099-3.37.073-.22-.005-.214.32 0 .337 1.02.083 2.133.164 3.186.06-.312.797-.622 1.595-.937 2.391-1.04-.027-2.087.013-3.125.04-.199.005-.199.304 0 .309.986.025 1.981.059 2.97.042-.268.676-.532 1.354-.801 2.03-1.629-.232-3.342-.194-4.968-.112-.204.01-.207.32 0 .32 1.608 0 3.209.143 4.812.186-.26.653-.516 1.307-.776 1.96-.996.012-1.995.091-2.987.151-.206.013-.209.332 0 .323.949-.037 1.904-.06 2.853-.136-.258.649-.517 1.298-.774 1.948-.908-.15-1.833-.241-2.739-.369-.171-.024-.249.235-.073.264.884.149 1.775.334 2.668.467l-.509 1.283c-1.283-.215-2.655-.14-3.919.05-.165.025-.128.31.04.294 1.272-.125 2.473-.036 3.717.067-.16.406-.322.811-.481 1.217-1.981-.155-3.995-.163-5.977-.303-.15-.011-.147.219 0 .232l.123.011c.076.007.11-.067.101-.131.184.226.429.326.743.283a36.874 36.874 0 0 0 2.069.207c.923.066 1.863.132 2.791.085-.199.509-.402 1.016-.598 1.526a34.014 34.014 0 0 0-4.407-.094c-.176.007-.168.248 0 .267 1.377.159 2.836.255 4.246.242-.223.582-.456 1.161-.676 1.745-1.382-.257-2.883-.162-4.273-.072-.145.01-.149.228 0 .229 1.38.008 2.774.18 4.151.162-.134.357-.277.71-.409 1.068-.002.004 0 .008-.002.012-.566-.313-1.29-.213-1.925-.252-.596-.036-1.189-.101-1.784-.138a.556.556 0 0 0 .001-.509c-3.534-7.23-6.287-15.245-10.294-22.211.776.038 1.556.013 2.332-.007.657-.017 1.341.045 1.939-.235l.094.025c.391.111.715.269 1.081.009l.007-.007c.114.447.252.883.394 1.317-1.245-.278-2.533-.331-3.803-.241-.217.015-.221.351 0 .341 1.339-.062 2.629.092 3.941.328.172.493.355.98.552 1.462-1.103-.126-2.217-.017-3.309.17-.19.033-.108.316.08.288 1.114-.168 2.219-.165 3.34-.197.327.779.676 1.549 1.044 2.31-.941-.14-1.905-.178-2.85-.257-.126-.011-.12.178 0 .193.991.13 1.994.313 2.994.364.555 1.136 1.133 2.263 1.682 3.404-.798-.031-1.607.008-2.402.02-.181.003-.181.278 0 .281.846.013 1.708.062 2.555.017.27.57.534 1.142.78 1.724-.909-.231-1.882-.278-2.811-.23-.13.007-.132.202 0 .204 1 .013 1.952.171 2.933.337.193.469.382.94.55 1.42.05.142.136.235.233.303.078.359.675.545.859.142 2.207-4.828 4.303-9.721 6.206-14.676.706.304 1.669.07 2.413.026.902-.054 1.863-.033 2.742-.267-.144.403-.302.805-.456 1.207z"/><path d="M32.602 25.458c-1.178-.239-2.409-.162-3.584.055-.112.021-.063.186.047.17 1.18-.173 2.279-.089 3.454.078.193.026.284-.262.083-.303z"/></g></svg>