<svg xmlns="http://www.w3.org/2000/svg" viewBox="0 0 50.918 50.918"><g fill="#b7b7b7"><path d="M23.375 3.556c-.202-.208-.609-.121-.672.178-.007.034-.008.062-.012.092a.462.462 0 0 0-.427-.25c-3.864.14-7.645.084-11.508-.126-1.727-.094-5.278-.962-6.702.247-.149.127-.184.411-.074.573l.038.056a.45.45 0 0 0-.103.234c-.683 5.745-.494 11.759.147 17.501a.52.52 0 0 0 .317.431.432.432 0 0 0 .401.528c5.931.639 12.149-.485 18.017.586.486.089.795-.348.763-.718a.527.527 0 0 0 .121-.33c.063-4.106.132-8.212.189-12.319.023-1.659.776-5.378-.495-6.683zm-8.307 18.521c-3.33-.033-6.696-.205-10.018.063.003-.027.014-.049.014-.079-.039-5.813-.009-11.696-.326-17.501-.001-.023-.01-.039-.014-.059a.36.36 0 0 0 .146-.326c.071 1.084 15.981.691 17.532.425.27-.046.379-.275.367-.504.462.709-.047 3.994-.059 4.774-.021 1.369-.034 2.738-.051 4.106l-.115 9.361c-2.464-.364-4.99-.236-7.476-.26z"/><path d="M50.844 1.725c-.009-.403-.332-.592-.641-.574a.65.65 0 0 0-.594-.383C41.102.504 32.578.556 24.067.48c-3.84-.034-7.704-.202-11.54.016C8.608.72 4.808.456.924.603.52.618.325 1.107.505 1.39c-1.14 15.816.073 31.962-.38 47.832-.019.663.788.801 1.146.426.056.021.112.044.18.05 15.846 1.295 31.963.842 47.833.235.677-.026.871-.765.601-1.198.918-7.665.714-15.552.834-23.259.123-7.915.302-15.836.125-23.751zm-3.253 40.517a178.055 178.055 0 0 0-.084-3.79 4.392 4.392 0 0 0 1.551-.35c-.039 1.327-.07 2.654-.085 3.979-.461.048-.921.105-1.382.161zm1.381-.071c-.009.874-.029 1.749-.022 2.621-.45.035-.899.077-1.348.118.012-.86-.003-1.725-.011-2.588.461-.048.922-.096 1.381-.151zm.09-4.234a6.136 6.136 0 0 1-1.563.326c-.035-1.092-.081-2.183-.125-3.275.004.002 0 .008.005.009.59.111 1.191.084 1.74-.173.056-.026.016-.119-.042-.1-.562.179-1.08.263-1.666.159-.021-.004-.027.015-.04.026-.036-.89-.064-1.773-.099-2.661a69.96 69.96 0 0 0 1.996-.155c-.071 1.947-.147 3.896-.206 5.844zm.211-5.98c-.669.044-1.338.104-2.005.167-.035-.888-.067-1.775-.099-2.66.723-.138 1.45-.245 2.189-.304-.03.933-.05 1.863-.085 2.797zm-20.675-3.599c5.602.922 11.87.624 17.532.402l-.019.815-.013.003c-.056.015-.036.081.011.09-.13 5.415-.135 11.074.62 16.409-.038-.009-.072-.024-.116-.024-5.837-.097-12.181-.673-17.977.02.494-5.756.165-11.932-.038-17.715zM49.623 3.673c-4.738-.315-9.509-.299-14.252-.131-.103.004-.104.162 0 .16 4.759-.071 9.496.066 14.25.22-.009.97-.02 1.94-.027 2.91-5.473-.93-11.004-1.029-16.525-.474-.075.008-.076.125 0 .118 5.567-.469 10.998-.212 16.523.594-.004.63-.014 1.26-.018 1.89-6.327-.671-12.718-.583-19.054-.07-.09.007-.091.148 0 .141 6.382-.459 12.681-.302 19.054.123-.008 1.534-.015 3.068-.02 4.602-.014-.009-.026-.02-.048-.019-7.452.106-14.899.368-22.353.387-.058 0-.059.09 0 .091 7.446.035 14.914.073 22.353-.288.021-.001.033-.013.047-.022-.006 1.725-.01 3.45-.022 5.175-7.029-.522-14.084-.446-21.113.032-.054.004-.054.087 0 .084 7.055-.378 14.063-.27 21.111.114a588.914 588.914 0 0 1-.038 4.203c-7.362-.406-14.766-.328-22.13-.039-.066.003-.067.105 0 .103 7.387-.19 14.745-.05 22.128.122-.008.592-.01 1.184-.021 1.776l-.004.153c-9.834-.755-19.668-.526-29.478.441-.066.007-.066.109 0 .103 9.827-.899 19.629-.931 29.474-.349-.021 1.061-.063 2.127-.097 3.191-.741.05-1.472.17-2.198.324-.011-.316-.026-.634-.035-.948.135-.336-.035-.795-.517-.82-5.852-.307-12.402-.748-18.223.16a.405.405 0 0 0-.593.331c-.027.275-.046.563-.071.842-1.809.075-3.607.141-5.421.075-.072-.003-.072.108 0 .112 1.797.089 3.611.115 5.408-.027-.063.711-.129 1.418-.181 2.145-1.673.142-3.344.378-5.011.572-.08.009-.081.135 0 .126 1.665-.183 3.343-.328 5.003-.563-.064.899-.122 1.805-.166 2.72-2.952.13-5.889.213-8.848.198-.068 0-.067.102 0 .105 2.93.155 5.906.122 8.838-.113-.039.86-.071 1.722-.087 2.587-1.649.183-3.292.349-4.956.393-.069.002-.069.109 0 .108 1.654-.031 3.315-.121 4.955-.355a78.752 78.752 0 0 0-.008 2.617c-1.373.143-2.743.325-4.113.495-.061.007-.062.104 0 .097 1.372-.157 2.746-.304 4.116-.488.013.782.019 1.566.06 2.338-1.183.137-2.368.278-3.547.45-.05.007-.039.094.012.089 1.182-.118 2.363-.268 3.541-.422.051.919.116 1.832.215 2.726-1.739.205-3.464.261-5.225.097-.054-.005-.053.079 0 .084a22.68 22.68 0 0 0 5.241-.053c.057.502.109 1.006.183 1.497.068.452.619.383.812.07 5.708 1.111 12.292.695 18.068.459a.471.471 0 0 0 .463-.406c.229.021.497-.134.505-.405.012-.404.014-.81.021-1.215.45-.044.9-.088 1.35-.138.011 1.186.033 2.372.085 3.554-15.886.616-31.7.112-47.584.073.131-15.465 1.316-31.45-.185-46.847 7.082 1.247 14.615-.012 21.815.113 8.837.153 17.685.441 26.524.399.011 0 .018-.005.028-.006-.007.503-.009 1.006-.014 1.509z"/><path d="M48.659 47.788c-9.416-.473-18.385-.873-27.808.017-.06.006-.062.099 0 .095 9.422-.603 18.409-.138 27.808.036.095.002.094-.143 0-.148zM49.312 21.387c-4.696-.66-9.448-.548-14.145.038-.081.01-.083.138 0 .129 4.74-.549 9.381-.444 14.121.009.1.009.124-.162.024-.176zM48.87 16.653c-4.718-.26-9.458.071-14.135.693-.072.01-.075.125 0 .116 4.716-.54 9.394-.633 14.135-.577.15.002.148-.224 0-.232zM49.293 10.983c-4.008.003-8.012.119-12.021.066-.085-.001-.085.131 0 .133 4 .08 8.024.16 12.021-.038.103-.005.104-.161 0-.161z"/></g></svg>