<svg xmlns="http://www.w3.org/2000/svg" viewBox="0 0 48.896 48.896"><g fill="#b7b7b7"><path d="M22.936 15.604c-.116.037-.178.165-.174.281-2.122 1.012-4.065 3.545-4.615 5.654-.557 2.136.807 4.038 3.108 3.762 2.55-.306 5.068-3.171 5.429-5.631.318-2.161-1.291-4.857-3.748-4.066zm2.547 4.228c-.937-.476-2.039-.617-3.076-.541-.076.006-.078.124 0 .12 1.089-.058 2.035.185 3.036.558a4.488 4.488 0 0 1-.501 1.195 10.409 10.409 0 0 1-2.726-.416c-.094-.028-.133.117-.04.146a9.248 9.248 0 0 0 2.674.437l-.006.011a8.972 8.972 0 0 1-.961 1.174 18.65 18.65 0 0 1-3.362-.252c-.087-.015-.126.115-.037.134 1.059.226 2.138.335 3.217.3-.952.933-2.187 1.714-3.334 1.399-2.347-.645-.961-3.468-.093-4.695.913-1.29 2.151-2.098 3.256-3.153 1.107.333 1.746 1.097 1.962 2.017a8.02 8.02 0 0 0-2.242-.251c-.077.002-.077.12 0 .12.786 0 1.532.125 2.278.329.072.436.063.898-.045 1.368z"/><path d="M32.235 8.515c-.105-.035-.208.026-.261.114-7.822-2.443-15.112 2.192-19.276 8.832-3.604 5.748-6.721 15.202 2.032 17.97C26.622 39.19 46.296 13.163 32.235 8.515zM16.963 34.474c-9.68-1.132-6.674-12.321-2.685-17.896 4.233-5.917 11.206-9.299 18.287-6.631a.426.426 0 0 0 .475-.089c7.975 8.451-6.003 25.795-16.077 24.616z"/><path d="M47.982 12.203c.052-.045.043-.131-.026-.153a15.692 15.692 0 0 0-.52-2.226C45.359 3.35 38.932-.408 32.322.035a.437.437 0 0 0-.356.216C13.795 1.964-8.384 25.937 4.586 43.178c-.107.092-.149.254-.018.394 11.703 12.494 30.193.575 37.516-10.91 3.634-5.696 6.997-13.45 5.898-20.459zm-.844 3.447c-2.335-.137-4.682-.147-7.02-.2-.077-.002-.077.117 0 .12 2.336.081 4.678.205 7.016.202a23.073 23.073 0 0 1-.208 2.328c-2.278.156-4.528.15-6.804-.122-.086-.01-.085.125 0 .135 2.254.279 4.521.344 6.78.132a30.203 30.203 0 0 1-1.315 5.253l-.007-.002c-2.166.298-4.119.405-6.279-.033-.111-.023-.159.145-.047.171 2.025.477 4.236.606 6.264.068a38.37 38.37 0 0 1-1.499 3.671c-2.285.032-4.562.121-6.852.094-.101-.001-.099.15 0 .156 2.218.143 4.514.182 6.74-.023a42.403 42.403 0 0 1-1.73 3.262 79.98 79.98 0 0 0-6.697.012c-.085.003-.086.129 0 .133 2.186.088 4.413.107 6.603.014a42.843 42.843 0 0 1-1.595 2.484c-.12.173-.258.342-.384.514-1.639.052-3.209-.004-4.821-.384-.101-.024-.145.131-.043.157 1.542.384 3.151.566 4.737.398a30.975 30.975 0 0 1-1.699 2.091c-.011-.018-.018-.04-.042-.038-1.65.115-3.224.171-4.871-.046-.068-.009-.084.108-.016.12 1.582.278 3.255.364 4.84.063-1.847 2.055-4.028 3.985-6.356 5.679-2.64-.167-5.302-.2-7.947-.238-.072-.001-.071.108 0 .112 2.582.124 5.179.25 7.765.254a45.104 45.104 0 0 1-2.882 1.923c-3.949-.062-7.891-.029-11.839-.199-.071-.003-.07.106 0 .11 3.857.203 7.746.367 11.609.225a40.082 40.082 0 0 1-4.348 2.277c-6.132 2.724-12.529 1.458-17.785-2.255C-6.077 25.216 12.904 4.542 31.991.815a.395.395 0 0 0 .331.127c3.701-.187 7.087.948 9.687 3.017-2.366-.406-4.76-.551-7.163-.503-.089.002-.09.14 0 .139 2.491-.017 4.937.214 7.396.572a13.414 13.414 0 0 1 2.069 2.131c-2.296-.372-4.61-.65-6.914-.961-.075-.01-.109.105-.032.116 2.35.344 4.701.725 7.061 1.002.523.702.986 1.453 1.369 2.259-2.033-.035-4.068-.004-6.1.016-.092.001-.092.142 0 .143 2.058.021 4.12.053 6.178.016.453.989.806 2.042 1.021 3.161-2.335.03-4.646.021-6.983-.205-.095-.009-.093.137 0 .148 2.319.26 4.681.402 7.02.286.141.806.233 1.634.238 2.495.001.291-.02.584-.031.876z"/><path d="M25.148 45.853c-3.521-.074-7.026-.144-10.536-.463-.057-.005-.056.083 0 .089 3.496.37 7.019.626 10.536.513.089-.003.09-.137 0-.139zM35.046 38.911c-1.951.565-3.794.293-5.773.117-.079-.007-.098.126-.019.139 1.918.298 3.971.593 5.834-.103.093-.035.057-.182-.042-.153zM46.447 20.021c-2.111-.005-4.21.046-6.322-.026-.075-.003-.074.11 0 .116 2.087.161 4.232.257 6.322.108.126-.009.129-.198 0-.198z"/></g></svg>