<svg xmlns="http://www.w3.org/2000/svg" viewBox="0 0 48.352 48.352"><g fill="#b7b7b7"><path d="M48.137 17.742l-.125-6.612a.826.826 0 0 0-.81-.81c-2.316-.065-4.635-.06-6.929.29-.054.008-.091.033-.136.051-.046-2.775-.072-5.55-.097-8.325a.696.696 0 0 0-.684-.684c-4.965-.112-10.185-.554-15.116.131-.944.131-.542 1.564.395 1.434 4.574-.635 9.409-.197 14.042-.199.008.642.011 1.285.017 1.927-2.874.147-5.75.492-8.616.751-.164.015-.169.271 0 .26 2.868-.183 5.76-.283 8.619-.578.014 1.473.03 2.947.039 4.42-2.416.354-4.813.668-7.257.79-.195.01-.198.312 0 .306 2.425-.073 4.866-.252 7.261-.662.003.569.014 1.139.015 1.708.002.738.124 1.585.101 2.382-1.838-.02-3.682.216-5.501.463-.551.075-1.101.157-1.649.244-.472.074-2.853.79-3.321.659.063-.017.107-.107.047-.16l-.081-.073c-.041-.036-.105-.042-.145 0l-.104.11c-.041.043-.051.127 0 .169.686.561 2.559-.202 3.296-.312 2.474-.367 4.975-.51 7.446-.875-.063.935-.364 1.778-1.357 2.258-1.11.537-3.737.123-4.989.165-1.285.043-3.803.617-4.989.17-2.409-.909-1.956-3.318-2.122-5.284-.236-2.792-.53-5.58-.939-8.354-.068-.461-.796-.337-.798.108-.01 2.286.065 4.574.183 6.858a.606.606 0 0 0-.206-.051c-1.277-.052-2.573.127-3.846.223-.963.073-1.965.084-2.858.46a13.136 13.136 0 0 0-.639-1.291.163.163 0 0 0-.067-.112c-1.513-2.606-3.848-4.244-7.437-3.725-3.853.556-6.577 3.801-7.693 7.344-1.233 3.914-1.859 10.238.576 13.819l-.006.002c-.185.091-.157.357 0 .455.792.495 1.84.409 2.75.482 1.033.083 2.178.341 3.186.055.04-.011.053-.042.086-.059-.309 3.477-.141 7.059.011 10.535a.649.649 0 0 0 .083.292c-1.398-.519-3.069-.099-4.001 1.149-.928 1.243-.978 3.482.565 4.27.162.083.34.054.476-.034 1.167.867 2.805 1.178 4.189 1.395 2.017.316 4.753.585 6.463-.826 1.135-.937 1.594-2.563 1.005-3.93-.712-1.651-2.304-2.147-3.936-2.097.119-3.597-.107-7.194-.074-10.791.9.156 1.843.101 2.75.078 1.082-.028 2.177.006 3.244-.184.509-.09.513-.635.24-.942a.734.734 0 0 0 .129-.381 67.52 67.52 0 0 0 .061-2.476c2.602-.101 1.35 8.934 1.345 10.477-.012 3.778.101 7.55.293 11.324.019.383.308.704.707.707 3.716.022 7.433.033 11.149.049.276.345.838.349 1.105.005 2.91.012 5.82.028 8.73.038.392.001.757-.342.743-.743-.25-7.217-.536-14.434-.731-21.653 1.83-.043 5.442.239 5.954-1.645.399-1.462-.014-3.433-.042-4.945zM8.917 22.75c2.839-.044 5.697.016 8.533-.122a68.097 68.097 0 0 1-.045 2.105c-4.168-.034-8.338.189-12.511.103-.134-.003-.133.202 0 .207 4.13.177 8.362.383 12.496.055-.022.54-.048 1.048-.074 1.505-.003.055.015.095.021.144-.789.011-1.587.095-2.364.147-.891.059-1.826.086-2.687.339-.275-.207-.785-.084-.807.372-.025.513-.04 1.024-.062 1.537-.542-.01-1.087.008-1.626.015-.174.002-.174.268 0 .271.535.007 1.076.024 1.613.015-.032.754-.071 1.508-.092 2.262-.627.083-1.224.173-1.87.11-.096-.009-.119.156-.023.169.609.086 1.279.117 1.888-.035a61.618 61.618 0 0 0-.003 3.33c-.58.086-1.155.214-1.729.332-.165.034-.094.28.069.251.557-.099 1.121-.189 1.673-.316.023.644.047 1.289.101 1.932-.718.059-1.417.128-2.152.061-.17-.015-.166.246 0 .264.706.077 1.468.109 2.183-.018.036.386.073.772.123 1.157.057.449.559.582.813.349 1.157-.007 2.09.468 2.799 1.427-2.196-.318-4.606-.023-6.795.157-.15.012-.152.247 0 .236 2.309-.174 4.658.042 6.95-.164.064.098.129.192.188.299.093.42.101.803.041 1.157-.004 0-.006-.004-.01-.004-3.148.205-6.289.45-9.44.615-.15.008-.153.239 0 .236 3.127-.073 6.28-.221 9.391-.558-.223.732-.809 1.305-1.763 1.717-.806.319-1.946.258-2.785.229-2.056-.071-4.711-.281-6.365-1.666-.277-.733-.294-1.525.242-2.209.763-.974 2.278-1.023 3.4-.827.407.071.628-.423.28-.665-.036-.025-.076-.039-.112-.062.29-.026.559-.222.56-.605.012-3.675.042-7.464-.479-11.107-.051-.359-.446-.346-.653-.143a.544.544 0 0 0-.242-.191c-.969-.38-2.156-.228-3.186-.248-.663-.013-1.364-.102-2.02.003C1.156 20.684.372 7.657 9.524 7.453c2.06-.046 3.587.718 4.728 1.966a45.6 45.6 0 0 0-6.21-.16c-.167.007-.167.253 0 .26 2.231.102 4.445.274 6.666.443.33.44.628.917.886 1.44-2.268-.094-4.584.07-6.852.073-.184 0-.183.278 0 .285 2.302.08 4.719.233 7.022.014.321.714.587 1.484.801 2.296a.194.194 0 0 0-.128-.054c-2.051-.04-4.113.099-6.164.171-1.133.04-3.135-.3-4.125.279-.075.044-.101.165-.029.226l.068.058c.055.047.146.061.2 0l.043-.049c.073-.084.024-.181-.052-.218.477-.015 2.006.141 2.354.136.899-.014 1.798-.031 2.697-.047 1.667-.029 3.345-.012 5.008-.132.11-.008.164-.082.185-.163.223.888.39 1.817.513 2.76-1.27-.075-2.601.091-3.845.241-.167.02-.173.283 0 .267 1.296-.12 2.598-.074 3.892-.145.081.684.142 1.372.183 2.055-3.75.013-7.498.071-11.25.017-.148-.002-.146.222 0 .229 3.75.166 7.52.275 11.276.182.041.821.059 1.63.059 2.408-2.841-.03-5.695.139-8.534.204-.164.002-.165.257.001.255zm36.981-.414c-1.039.427-3.256.007-3.617 1.256.112-.387-.368-.823-.728-.56l-.074.054c-.363-.004-.722.225-.704.691.01.25.016.501.025.751-2.019-.381-4.147-.411-6.179-.206-.179.018-.187.291 0 .285 2.101-.073 4.116.092 6.193.337l.066 2.014c-1.249-.126-2.521-.123-3.772-.137-.724-.008-2.099-.341-2.679.17-.056.049-.061.141-.026.203l.061.109c.032.058.117.099.182.074l.092-.035c.072-.027.096-.087.098-.147.132.07.292.075.483.002a115.338 115.338 0 0 1 2.556.069c1.005.036 2.013.109 3.019.117.018.575.039 1.149.057 1.723-2.046-.113-4.113-.008-6.15.179-.162.015-.167.265 0 .257 2.06-.106 4.104-.07 6.164-.035.018.593.04 1.185.058 1.778a.147.147 0 0 0-.096-.044c-1.969-.131-3.974-.014-5.947-.002-.199.001-.199.308 0 .309 1.973.012 3.978.129 5.947-.002a.154.154 0 0 0 .103-.048c.032 1.054.072 2.107.104 3.161-1.519.004-3.061.22-4.579.281-.162.006-.164.255 0 .253 1.503-.019 3.092.023 4.589-.209l.086 2.896c-1.899-.11-3.864.089-5.735.389-.146.023-.113.275.035.26 1.907-.193 3.8-.231 5.709-.327l.039 1.305c.005.174.018.325.027.491-1.634-.03-3.298.119-4.925.217-.116.007-.119.184 0 .183 1.634-.022 3.308.005 4.939-.146.036.601.08 1.17.105 1.669-1.741.107-3.466.336-5.219.349-.19.001-.19.292 0 .295 1.715.025 3.526.03 5.234-.275.038 1.646-.335 2.655-2.719 2.943-1.626.196-3.369.135-5.081.066.039-4.498-.074-9.058-.493-13.528-.055-.59-.892-.604-.928 0-.266 4.461-.225 9-.035 13.474a42.987 42.987 0 0 0-1.332-.026c-2.118-.003-4.948.505-6.995 0-2.859-.704-2.116-3.67-2.159-6.258-.088-5.232.151-10.449.281-15.678.008-.316-.303-.688-.645-.645-1.584.202-1.281.097-2.447.541-.031-3.507-.374-7.94-1.701-11.443.992.253 2.099.137 3.111.116 1.171-.025 2.345-.002 3.506-.161.033-.004.054-.021.083-.029.054 1.715-.106 3.908.417 5.484.966 2.91 5.852 1.453 8.199 1.37 2.027-.072 7.086.975 7.741-1.573.367-1.427.112-3.309-.027-4.953.077.03.16.05.254.048 1.987-.037 3.952-.138 5.936-.11l.03 2.389c-1.209-.089-2.552.193-3.662.511-.208.059-.121.368.089.322.731-.16 1.457-.302 2.204-.366.457-.039.917-.041 1.374-.06l.025 2.037c-1.43.006-2.91.245-4.318.392-.229.024-.238.38 0 .366 1.411-.088 2.909-.099 4.323-.325.008.667.015 1.333.025 2-2.894-.07-5.847.227-8.72.443-.176.013-.18.286 0 .278 2.895-.14 5.832-.091 8.725-.304v.02c.009.605.112 1.29.033 1.889-.124.92.402.39-.635.816z"/><path d="M41.111 43.542c-.993.122-1.961.416-2.948.589-1.122.196-2.255.297-3.381.461-.092.013-.067.158.022.159 2 .031 4.477-.216 6.344-.946.125-.05.125-.283-.037-.263zM45.832 20.949c-3.976.326-7.953.835-11.912 1.323-.14.017-.147.237 0 .225 3.969-.322 7.959-.628 11.912-1.112.272-.033.284-.459 0-.436zM46.226 12.811c-1.072-.294-2.281-.225-3.376-.125-.229.021-.235.377 0 .362 1.126-.071 2.21.084 3.329.112.202.005.24-.296.047-.349zM38.308 12.409c-2.625.079-5.25.491-7.877.623-.211.011-.214.338 0 .331 2.612-.094 5.352-.124 7.916-.671.158-.034.123-.288-.039-.283zM38.306 7.292c-3.565.303-7.098.833-10.674 1.057-.173.011-.175.279 0 .271 3.56-.16 7.214-.32 10.72-.99.189-.035.149-.354-.046-.338z"/></g></svg>