<svg xmlns="http://www.w3.org/2000/svg" viewBox="0 0 49.538 49.538"><g fill="#1d1d1b"><path d="M37.76 24.928c.212-7.972.523-15.989.202-23.96-.02-.506-.479-.704-.85-.606a.686.686 0 0 0-.746-.348c-3.463.658-6.883 1.41-10.272 2.378a.375.375 0 0 0-.169.107c-.12-.227-.486-.328-.618-.046-.446.952-.38 2.065-.379 3.103.001.976.057 1.952.173 2.921a70.237 70.237 0 0 1-6.005 1.431c-1.475.283-3.12.322-4.553.819-.025-.002-.046-.019-.073-.014-.514.093-1.056.15-1.554.307a.442.442 0 0 0-.316.374c-.091.006-.174.047-.191.168-1.679 12.154-.718 25.162-.498 37.408.01.564.666.708.996.434 7.127.396 16.333-.021 23.069-2.379.592-.207.349-1.022-.255-.925-7.451 1.186-15.245 1.244-22.63 2.694-.273-12.201.776-24.719-.166-36.863a.433.433 0 0 0 .241-.007 7.31 7.31 0 0 0 .976-.415c1.566.334 3.302-.1 4.864-.362 2.198-.368 4.361-.901 6.503-1.514a.561.561 0 0 0 .424-.571c.011-.03.024-.06.028-.094.108-1.132.123-2.276.151-3.413.019-.759.109-1.57.001-2.331.031.003.059.012.094.007 3.514-.454 6.972-1.109 10.432-1.875-.026 1.228-.026 2.456-.032 3.684-2.37.222-4.712.584-7.095.728-.17.01-.173.272 0 .267 2.34-.058 4.79-.174 7.092-.66-.003.623-.016 1.247-.016 1.87-2.161-.126-4.446.023-6.584.333-.075.011-.056.133.018.131 2.184-.048 4.384-.063 6.566-.147 0 .557-.003 1.115-.001 1.672-3.436-.128-6.978.14-10.399.342-.141.008-.144.22 0 .221 3.426.025 6.977.109 10.401-.195.005 1.397.009 2.793.02 4.19-4.756.039-9.515.191-14.269.323-.131.004-.132.204 0 .204 4.756-.021 9.517-.021 14.272-.134l.023 2.931c-1.113.336-3.765.043-4.454.046-1.531.008-3.061-.019-4.591-.045-.146-.002-.144.217 0 .225 1.784.094 3.57.144 5.357.161 1.138.011 2.533.219 3.691-.004.013 1.858.021 3.715.014 5.572-2.525-.212-5.131-.022-7.665-.007-.185.001-.186.287 0 .288 2.533.015 5.14.204 7.664-.007-.002.527.003 1.055-.001 1.582-.002.246-.019.502-.025.75-1.416-.138-2.893-.011-4.315.003-.195.002-.195.3 0 .302 1.418.014 2.892.14 4.305.004-.016.576-.026 1.147-.057 1.733-3.11-.1-6.252.088-9.367.096.107-3.707.064-7.399-.39-10.925-.027-.21-.373-.315-.414-.056-.02.128-.031.26-.05.388a.494.494 0 0 0-.591-.076c-.55.303-1.044.793-1.516 1.265a.286.286 0 0 0-.564.059c-.019.185-.029.374-.046.559a.29.29 0 0 0-.02.238c-.686 7.556-.346 15.469-.17 23.037.009.397.467.497.696.298.03-.005.056.004.087-.011.496-.242.959-.665 1.353-1.047.375-.365.892-.786 1.042-1.299a.381.381 0 0 0-.012-.241c.165-3.876.466-7.936.59-11.982 3.092.103 6.265.263 9.351.02a147.1 147.1 0 0 1-.165 2.568c-.014-.006-.023-.018-.041-.019-1.783-.164-3.632-.015-5.422.002-.176.002-.177.273 0 .274 1.79.016 3.64.165 5.422.002.01-.001.014-.009.023-.011-.056.768-.115 1.539-.173 2.314-2.798-.16-5.64-.064-8.427.153-.125.01-.128.2 0 .197 2.807-.073 5.596-.01 8.399.033-.037.497-.075.993-.109 1.491-2.241-.001-4.457.097-6.707-.093-.161-.014-.157.233 0 .25 2.182.232 4.478.404 6.687.189-.05.763-.102 1.526-.134 2.286-1.195.074-2.374.163-3.581.108-.132-.006-.13.194 0 .204 1.172.088 2.387.129 3.566-.002a60.697 60.697 0 0 0-.046 1.948c-2.163.154-4.316.431-6.495.47-.165.003-.165.254 0 .257 2.11.035 4.371.048 6.502-.29.002 1.457.057 2.899.222 4.304-6.004.224-12.102 1.373-18.104 1.085-.105-.005-.103.154 0 .162 5.895.446 12.262-.349 18.141-.955.087.682.19 1.359.33 2.022.022.106.175.095.203 0 2.032-6.756.946-15.054 1.132-22.063zM25.632 40.116c-.225.272-.41.589-.642.851-.231.261-.483.503-.731.747.034-7.414.416-14.993.038-22.389.65-.375 1.38-.747 1.931-1.245-.941 7.158-.396 14.86-.596 22.036z"/><path d="M34.933 42.986c-2.27.011-4.556.251-6.821.401-.128.008-.13.206 0 .2 2.267-.092 4.564-.097 6.821-.327.172-.017.18-.275 0-.274zM36.33 20.262c-1.407.073-2.775.364-4.195.37-.172.001-.172.264 0 .267 1.363.025 2.92.049 4.23-.379.136-.043.121-.266-.035-.258zM36.155 11.115c-4.892.097-9.807.635-14.687.996-.143.011-.146.233 0 .225 4.883-.278 9.825-.385 14.687-.925.184-.021.195-.3 0-.296zM36.163 2.969c-2.335.116-4.661.202-7 .159-.161-.003-.16.242 0 .25 2.33.105 4.671.141 7 .01.268-.016.27-.433 0-.419z"/></g></svg>