<svg xmlns="http://www.w3.org/2000/svg" viewBox="0 0 50.893 50.893"><g fill="#b7b7b7"><path d="M47.305 35.055c-.594-.274-1.216-.235-1.861-.214-.66.022-1.336.068-1.977.232-.028.007-.035.028-.057.04-.16-.052-.337-.012-.445.194-.975 1.862-1.744 3.774-2.942 5.519-1.139 1.659-2.52 3.154-3.921 4.601-.017-.005-.032-.014-.051-.016-2.795-.363-5.714-.1-8.532-.129-2.299-.023-6.722.606-8.595-.906-1.098-5.306-.176-11.482.105-16.852 2.046.455 4.214.409 6.297.592 1.587.139 3.5.01 4.752 1.21 1.05 1.007 1.221 2.687 1.49 4.026.042.21.197.327.376.373.007.028.006.052.018.081.208.49.912.415 1.351.418.608.005 1.332.108 1.904-.112a.671.671 0 0 0 .406-.818c.005-.031.019-.055.02-.089.117-5.347.587-10.833.082-16.163-.029-.305-.427-.473-.635-.319-.536-.242-1.099-.173-1.684-.149-.675.027-1.346.074-2.019.131a.497.497 0 0 0-.314.868c.138 3.423-1.276 5.608-4.97 5.473-2.378-.087-4.741-.233-7.12-.242.305-5.279.268-10.743-.208-16.017 5.291.233 11.045-.123 16.292-.573 3.309 2.1 2.358 5.532 3.586 8.796-.063.231.069.51.397.554 1.181.158 2.504.219 3.651-.164a.578.578 0 0 0 .293-.228c.202.008.397-.09.441-.342.798-4.578 1.186-9.652 1.034-14.291-.01-.3-.315-.471-.563-.429a.548.548 0 0 0-.358-.108C30.473.597 17.259.27 4.219 1.241a.387.387 0 0 0-.33.21l-.007.001c-.522.28-.455.904-.412 1.419.044.537.117 1.079.46 1.507.071.088.176.116.285.121-.055.194.018.437.249.501 7.402 2.042 5.304 13.74 5.327 19.593.018 4.493 2.344 21.548-5.492 20.955a.479.479 0 0 0-.21.03c-.179-.091-.406-.064-.469.195-.169.692-.277 1.369-.266 2.085.009.634-.002 1.402.363 1.939a.5.5 0 0 0 .72.124c.018.008.024.025.047.03 6.134 1.171 12.759.732 18.986.781 6.901.054 14.058.482 20.918-.319a.498.498 0 0 0 .14-.042c.003.014.004.028.008.041.031.121.21.147.27.035 1.026-1.902 1.025-4.267 1.294-6.389.342-2.694.689-5.389.91-8.096.06-.007.119-.007.179-.019.391-.083.493-.713.116-.888zm-1.665 2.753c-.832-.1-1.685-.009-2.495.19-.063.015-.036.112.027.098.823-.186 1.612-.192 2.443-.11-.087.613-.185 1.224-.265 1.838-.009-.025-.022-.052-.056-.048-.933.109-1.812.22-2.753.122-.099-.01-.096.142 0 .154.908.113 1.888.136 2.772-.131.023-.007.023-.031.031-.051-.072.553-.146 1.105-.215 1.658-.011-.021-.02-.045-.049-.044-1.279.06-2.521.193-3.805.11-.089-.006-.087.129 0 .137 1.255.11 2.586.166 3.824-.108.017-.004.014-.022.022-.035-.057.461-.118.921-.174 1.382-.012.097-.03.199-.043.298-1.419-.035-2.846.013-4.264.029-.094.001-.094.145 0 .146 1.408.015 2.825.062 4.235.029-.243 1.749-.639 3.636-.551 5.421-5.896-1.236-11.872.08-17.825-.491-.047-.004-.058.076-.011.083 5.953.803 11.941-.578 17.857.68.01.124.013.25.029.373-6.573-.534-13.309-.036-19.908-.076-6.512-.04-13.379-.796-19.839.016.088-.524-.038-1.093-.088-1.618-.036-.388-.085-.773-.131-1.159 9.177.958 6.519-15.063 6.493-20.171-.028-5.339.841-11.486-.322-16.725-.724-3.267-2.637-5.227-5.929-5.548.014-.028.04-.049.046-.081.083-.461-.032-.929-.027-1.397.003-.251.043-.494.025-.721 12.797.852 25.988-.126 38.777-.809-.071.421-.121.856-.183 1.282-4.114.142-8.257.247-12.351.621-.043.004-.044.067 0 .068 4.094.039 8.214-.195 12.308-.389-.069.489-.149.97-.209 1.465-2.487.057-4.974.271-7.455.434-.095.006-.097.155 0 .15 2.478-.125 4.968-.201 7.439-.431-.096.81-.184 1.624-.253 2.443-1.198.047-2.41.256-3.599.391-.094.011-.097.159 0 .15 1.184-.109 2.404-.154 3.581-.347a77.749 77.749 0 0 0-.143 2.094c-.021-.017-.045-.027-.076-.017-1.035.366-2.028.537-3.122.342-.125-.022-.179.168-.053.191 1.086.204 2.237.134 3.239-.361-.05.957-.083 1.91-.096 2.855a44.5 44.5 0 0 0-2.084.366c-.108.022-.06.178.045.163.681-.1 1.361-.214 2.037-.346-.007.619-.024 1.244-.014 1.852-.956.066-1.908.263-2.862.398.219-3.203-.94-8.768-4.666-9.304a.397.397 0 0 0-.304.089c-5.028-.46-11.074-.613-15.96.849-.086-.09-.24-.059-.285.079-.098.031-.204.051-.301.084a.175.175 0 0 0 .046.342c.067.004.136.004.203.008-.563 5.283-.578 10.796-.134 16.081-.272.16-.307.661.07.714 2.115.297 4.237.531 6.368.688 1.659.122 3.569.38 5.128-.392 2.425-1.201 2.332-3.78 2.167-6.116.484.037.968.075 1.454.095.507.021.997.068 1.467-.073-.05.417-.088.836-.126 1.255a4.641 4.641 0 0 0-1.943.187c-.108.034-.064.201.047.171a5.338 5.338 0 0 1 1.876-.16 69.99 69.99 0 0 0-.136 1.838 3.347 3.347 0 0 1-1.741-.083c-.099-.031-.14.122-.043.155a3.508 3.508 0 0 0 1.772.14c-.038.654-.076 1.308-.099 1.964a10.35 10.35 0 0 0-2.718.23c-.088.019-.05.151.037.134.897-.17 1.776-.204 2.675-.175-.014.418-.028.836-.037 1.254-2.854.144-5.726.289-8.564.591-.049.005-.051.079 0 .078 2.848-.029 5.713-.219 8.56-.408-.012.585-.023 1.169-.029 1.754-1.319.17-2.541.265-3.884.035-.063-.011-.091.085-.027.098 1.267.24 2.635.315 3.909.033-.006.66-.013 1.321-.017 1.981-.679.347-1.396.473-2.153.305-.091-.02-.13.118-.039.14.75.18 1.513.095 2.191-.259-.004.658-.007 1.316-.013 1.972-.49.201-.98.31-1.534.271-.106-.007-.104.154 0 .165a3.075 3.075 0 0 0 1.531-.212c-.005.545-.011 1.09-.021 1.633-.483.021-.981.108-1.419.165-.077.01-.175.026-.276.047-.292-2.214-.923-4.741-3.25-5.617-1.408-.53-3.117-.452-4.593-.561-1.955-.145-3.99-.353-5.928 0-.237-.178-.655-.142-.707.21a75.703 75.703 0 0 0-.79 10.509c-.018 2.386-.484 5.604.944 7.671.166.241.48.215.63.037 1.584 1.277 3.958.998 5.933 1.066 3.487.119 7.196.433 10.672-.067.079.13.237.211.403.117 3.732-2.122 7.064-6.38 7.76-10.7.57.058 1.146.073 1.717.13.157.015.313.037.468.058-.102.627-.181 1.259-.271 1.889z"/><path d="M44.225 47.302c-4.982-.05-9.99.268-14.968.456-.081.003-.082.128 0 .126 4.981-.112 9.998-.098 14.968-.448.085-.005.087-.133 0-.134zM44.232 45.245c-1.911.143-3.776.386-5.7.363-.105-.001-.104.16 0 .162 1.888.042 3.868.027 5.717-.397.071-.016.057-.133-.017-.128z"/></g></svg>