<svg xmlns="http://www.w3.org/2000/svg" viewBox="0 0 50.261 50.261"><g fill="#b7b7b7"><path d="M23.93 11.241l-.031.019c.148-.178.198-.431.036-.697-3.337-5.496-10.957-6.961-15.572-2.092-4.097 4.324-2.783 12.187 3.027 14.293.057.02.093-.048.072-.093-.837-1.734-2.51-2.733-3.389-4.486-1.237-2.468-1.133-5.461.378-7.803 3.599-5.577 11.114-4.053 14.363.836.179.27.455.334.701.275-2.15 1.23-4.074 2.915-6.008 4.441a72.055 72.055 0 0 0-3.201 2.66 31.02 31.02 0 0 0-1.681 1.583l-.638.67c-.426.223-.599.474-.572.746-.115.023-.232.088-.256.212l-.018.098c-.045.237.099.431.342.449.598.042.819-.348 1.264-.745a85.832 85.832 0 0 1 3.883-3.296c2.597-2.054 5.173-4.159 7.923-6.005.656-.44.083-1.442-.623-1.065zM28.345 28.717a44.53 44.53 0 0 1-1.063-6.832c-.135-1.832-.053-3.644-.607-5.415-.127-.406-.631-.669-1.019-.414-3.282 2.159-6.408 4.626-9.172 7.426-.794-.272-1.127 1.014-.328 1.34 3.797 1.545 7.552 3.19 11.349 4.733.515.209.946-.384.84-.838zm-1.575-.964c-3.097-1.37-6.242-2.645-9.382-3.913 2.698-2.075 5.406-4.112 8.205-6.051.412 1.897.294 3.944.511 5.865.157 1.378.397 2.74.666 4.099z"/><path d="M43.859 19.8c-.709-6.511-7.505-10.686-13.325-6.677a.563.563 0 0 0-.199.252c-1.115-.073-2.26-.005-3.35.067-.199.013-.203.322 0 .313 1.047-.046 2.083.016 3.121.06.024.449.062.899.1 1.349-1.189-.035-2.383-.002-3.572.011-.199.002-.199.307 0 .309 1.196.013 2.399.047 3.596.01.062.699.134 1.399.216 2.1-.982-.101-2.025.037-2.978.204-.174.03-.097.285.072.261.995-.139 1.964-.088 2.953-.109.094.767.186 1.535.302 2.302-.86.095-1.717.204-2.587.233-.115.004-.116.178 0 .179.869.006 1.76-.009 2.627-.136.165 1.08.343 2.16.54 3.235-.827-.097-1.701.005-2.507.144-.142.024-.08.234.059.214.844-.124 1.66-.085 2.5-.092.154.83.311 1.661.478 2.485-.817.148-1.629.25-2.472.242-.151-.001-.147.22 0 .232a8.522 8.522 0 0 0 2.532-.174c.134.658.271 1.313.41 1.964-1.207-.092-2.439-.064-3.641-.097-.136-.004-.135.204 0 .211 1.224.065 2.474.196 3.707.196l.299 1.392c.076.348.327.48.588.467 2.553 1.211 5.366-.395 7.389-2.074 2.709-2.246 3.515-5.65 3.142-9.073zm-9.848 10.348c-.001-.006.002-.011.001-.017-.828-5.309-1.571-10.793-2.867-16.015 2.154-.586 4.365-1.373 6.603-.622 2.576.865 3.979 3.164 4.459 5.691.928 4.892-2.708 11.276-8.196 10.963z"/><path d="M49.227 19.23C47.495 9.673 37.425 4.979 28.876 8.906 26.021 4.809 22.719 1.133 17.571.222c-4.368-.774-8.976.489-12.222 3.55-7.204 6.795-5.541 18.182 2.483 23.374-6.139 7.437-2.087 18.99 6.637 22.221 9.058 3.354 18.347-3.148 18.845-12.556.045.004.085.018.136.012 9.109-1.206 17.642-7.309 15.777-17.593zm-18.99 22.801c-1.446-.055-2.909.033-4.363.053a9.099 9.099 0 0 0 1.717-2.088c1.175.074 2.402.095 3.556-.105-.25.745-.544 1.467-.91 2.14zm-6.448-.269c-2.216 1.406-5.203 1.703-7.706.996-7.187-2.03-5.155-8.647-2.984-13.631 4.715 2.12 9.454 4.19 14.17 6.309-.01.023-.034.036-.039.062-.543 2.521-1.089 4.771-3.441 6.264zm7.491-2.257c-1.169.018-2.331.127-3.501.147.375-.727.608-1.502.639-2.288 1.087.051 2.212.111 3.301.056a14.045 14.045 0 0 1-.439 2.085zm1.986-4.05a.558.558 0 0 0-.295.172c-.43-.215-1.085-.01-1.118.626-.013.244-.057.477-.083.716-1.104-.06-2.246 0-3.348.052a4.134 4.134 0 0 0-.354-1.531c.456-.231.659-.898.074-1.203-.241-.125-.486-.244-.729-.367 2.886.321 5.781.619 8.674.818-.929.28-1.874.519-2.821.717zm10.861-13.496c1.173.078 2.578.238 3.723-.075.025-.007.035-.024.051-.037-.001 1.241-.166 2.388-.484 3.437-1.207-.365-2.588-.321-3.825-.192-.157.016-.162.262 0 .25 1.281-.1 2.476.084 3.739.215a11.014 11.014 0 0 1-1.138 2.416c-1.51.127-2.998.242-4.515.184-.141-.006-.139.209 0 .218 1.437.097 2.89.104 4.319-.093a12.45 12.45 0 0 1-2.007 2.3c-.014-.005-.023-.016-.041-.016-1.806.044-3.611.231-5.417.309-.16.007-.161.254 0 .25 1.71-.042 3.444-.065 5.145-.267a17.328 17.328 0 0 1-3.078 2.053c-.014-.061-.046-.115-.118-.129-5.923-1.159-12.039-1.666-18.051-2.092-.16-.011-.155.23 0 .246 5.932.616 11.825 1.535 17.75 2.186a24.78 24.78 0 0 1-3.085 1.287c-3.431-.389-6.896-.614-10.349-.824-4.283-2.118-8.84-3.867-13.452-5.056-.038-.315-.403-.589-.654-.272-4.303 5.414-4.854 13.749 3.032 15.997 1.903.543 4.01.557 5.967.057 2.294.141 4.704.176 6.95-.365.123-.03.1-.233-.03-.224-2.043.138-4.038.35-6.077.335 1.059-.364 2.061-.875 2.93-1.571l.06-.051c1.496.08 3.055.142 4.541-.032a12.85 12.85 0 0 1-3.425 3.842c-4.536.199-9.062.205-13.596-.051-.163-.009-.161.242 0 .253 4.359.304 8.714.365 13.077.139-.587.39-1.215.716-1.862 1.001-1.99.05-3.983.154-5.968.26-.15.008-.153.237 0 .236 1.61-.011 3.225-.027 4.839-.063-2.317.759-4.907.85-7.557.015C6.161 45.086 5.3 35.237 8.597 27.479a.415.415 0 0 0 .025-.208c.199-.17.287-.473.041-.666C2.043 21.42-.453 11.951 5.897 5.35 8.947 2.179 13.584.826 17.88 1.834c.666.156 1.289.369 1.882.624-2.821-.18-5.698-.106-8.521-.08-.148.001-.147.222 0 .229 2.954.132 5.968.327 8.924.216.084-.003.125-.054.146-.112.307.151.608.311.898.485-2.267-.129-4.638.05-6.815.322-.148.018-.158.243 0 .239 2.531-.058 5.093.035 7.626-.029a15.72 15.72 0 0 1 1.796 1.486c-1.374-.312-2.778-.329-4.179-.173-.152.017-.157.256 0 .243 1.466-.13 2.888-.009 4.341.204a.128.128 0 0 0 .094-.022c.37.367.731.745 1.078 1.14-1.193-.082-2.388-.012-3.587-.163-.162-.02-.202.263-.039.287 1.233.177 2.625.378 3.865.159.502.588.989 1.193 1.46 1.816-1.014-.047-2.046.071-3.045.217-.142.021-.11.269.034.252 1.078-.13 2.148-.128 3.228-.177.22.294.441.588.658.885.224.307.563.37.857.292a.457.457 0 0 0 .295-.014c3.733-1.505 7.779-1.465 11.178-.09-3.655-.03-7.346.37-10.967.803-.139.017-.143.235 0 .221 3.786-.36 7.575-.438 11.366-.692.078-.005.118-.054.14-.11a12.692 12.692 0 0 1 3.198 2.077 10.234 10.234 0 0 0-3.904-.002c-.161.032-.125.294.039.287 1.519-.066 2.898.05 4.396.221.429.433.835.891 1.197 1.392-.932-.066-1.945.094-2.817.246-.075.013-.059.142.018.135a19.646 19.646 0 0 1 1.749-.097c.42-.002.846.029 1.268.034a12.383 12.383 0 0 1 1.958 4.952c-.95-.066-1.918-.01-2.869-.001-.215.002-.215.332 0 .334.971.009 1.959.07 2.928-.002.017.121.049.232.063.354.055.482.084.949.092 1.403a.172.172 0 0 0-.1-.048c-.603-.065-1.234.036-1.84.05a33.23 33.23 0 0 1-1.841-.012c-.225-.008-.221.329-.001.344z"/><path d="M46.749 16.94c-.986-.056-1.986.013-2.973.037-.131.003-.131.201 0 .204.987.024 1.987.093 2.973.037.179-.011.179-.268 0-.278z"/></g></svg>