<svg xmlns="http://www.w3.org/2000/svg" viewBox="0 0 48.908 48.908"><g fill="#b7b7b7"><path d="M37.294 1.492c.294-.315.293-.88-.243-.973-5.175-.893-11.147-1.009-15.28 2.77-3.843 3.513-4.025 9.333-3.166 14.149-.021-.005-.039-.016-.061-.018-2.216-.228-4.63.018-6.832.313-.337.045-.427.409-.246.596-.004.016-.018.025-.019.042-.196 2.521-.012 5.287.313 7.805-.376.128-.341.726.117.752 2.269.129 4.833.216 7.132-.071-.666 6.883-.257 14.107-.165 21.014.002.191.094.32.217.399-.028.18.067.372.317.392 2.673.208 5.803.466 8.441-.08.137-.028.21-.135.251-.255.133-.025.259-.113.276-.29.649-6.772.686-13.789.272-20.587 2.418.198 5.032-.049 7.427-.125a.556.556 0 0 0 .219-.051c.274.096.645-.056.63-.414-.056-1.366-.246-2.723-.3-4.091-.053-1.344-.287-3.08-.019-4.391.034-.168-.114-.317-.264-.298a.396.396 0 0 0-.305-.203c-2.43-.399-5.1-.419-7.569-.331-.266-1.511-.48-3.663-.065-5.4.025-.026.034-.059.022-.09.193-.759.497-1.442.997-1.935.313-.309.696-.528 1.106-.707.111-.004.222-.004.333-.009.1-.005.126-.106.087-.171 1.686-.557 3.864-.35 5.459-.34.367.002.51-.291.461-.56.089-.039.168-.099.2-.203.608-1.955.629-4.577.257-6.639zm-8.58 7.647c-1.473-.002-2.952.044-4.417.07-.107.002-.107.165 0 .167 1.357.025 2.725.064 4.089.069-.02.024-.048.039-.068.063-.606.749-.94 1.678-1.088 2.674-1.18.186-2.334.282-3.563.182-.089-.007-.085.126 0 .137 1.145.149 2.37.165 3.533-.041-.106.93-.068 1.906.061 2.848-1.409-.029-2.822.011-4.23.023-.098.001-.098.151 0 .152 1.416.012 2.839.053 4.256.023.123.813.301 1.595.504 2.284-.01.017-.008.038-.016.056-1.712-.089-3.453-.007-5.166.022-.088.002-.088.136 0 .137 1.696.029 3.42.108 5.116.024a.525.525 0 0 0 .485.545c2.425.275 5.08.472 7.522.273-.304.705-.304 1.537-.281 2.334-4.493-.545-8.986-.535-13.483-.035-.112.012-.114.188 0 .177 4.518-.418 8.986-.338 13.492.173l.009.325c.009.474.034.953.06 1.432-3.604.044-7.212.138-10.813.272-.089.003-.09.139 0 .139 3.606 0 7.218-.041 10.824-.13.044.687.106 1.373.207 2.052-4.518-.055-9.044-.001-13.561.081-.091.002-.091.14 0 .141 4.533.083 9.075.137 13.609.081.023.14.04.281.067.42-2.335-.191-5.107-.23-7.417.403-.263-.243-.782-.142-.789.323l-.001.081c-.001.02-.005.037-.001.057-.005.315-.003.632-.005.948-1.195-.053-2.41.021-3.596.123-.468.04-1.481-.062-1.786.373-.015.022-.01.06.01.077l.093.08c.022.019.056.022.078 0l.064-.065c.037-.038-.014-.111-.059-.076.248-.192 1.045-.112 1.389-.136.495-.033.989-.061 1.485-.078.774-.026 1.548-.012 2.322-.02-.002.554-.007 1.106-.008 1.66-1.533-.036-3.079.01-4.61.043-.081.002-.082.125 0 .127 1.531.033 3.076.079 4.609.043-.002.775-.011 1.549-.012 2.324-1.4.209-2.757.369-4.18.3-.097-.005-.095.143 0 .15 1.386.101 2.816.071 4.179-.238-.001.633-.009 1.265-.01 1.898-2.113.325-4.138.521-6.281.297-.095-.01-.092.136 0 .148 2.065.271 4.237.29 6.28-.191 0 .677-.012 1.351-.01 2.028-1.384.042-2.774.171-4.154.255-.102.006-.104.164 0 .16 1.38-.055 2.774-.064 4.154-.161.001.537-.002 1.073.001 1.609-1.944-.001-3.899.059-5.841.095-.078.001-.077.115 0 .12 1.917.134 3.909.177 5.841.047.003.513-.001 1.026.003 1.539-1.455.036-2.916.165-4.367.247-.081.005-.082.13 0 .126 1.451-.054 2.917-.062 4.368-.162.006.771.001 1.543.012 2.314-1.389.031-2.785.164-4.169.246-.087.005-.089.141 0 .137 1.384-.056 2.787-.063 4.172-.17.01.73.016 1.461.031 2.19-1.683-.001-3.36.128-5.047.1-.085-.001-.083.124 0 .131 1.646.133 3.412.205 5.05-.05.014.67.02 1.341.038 2.01-2.477-.408-5.333-.129-7.851.144.001-.016.009-.027.009-.044.075-7.085.59-14.444.016-21.499a.406.406 0 0 0-.781-.146c-2.167-.279-4.57-.218-6.75-.101.342-2.459.287-5.269-.339-7.668 2.176.148 4.519.21 6.662-.146.213-.035.309-.173.323-.329.196.001.403-.129.401-.362-.038-4.59-.866-9.64 2.836-13.179 3.838-3.669 9.38-3.477 14.26-2.775-.07.3-.117.626-.169.946-1.667-.236-3.383-.278-5.059-.401-.119-.009-.116.172 0 .184 1.66.166 3.344.42 5.013.474a17.185 17.185 0 0 0-.176 1.791c-3.269-.446-6.615-.455-9.899-.259-.083.005-.085.133 0 .131 3.325-.095 6.586.129 9.891.4-.025 1.032.043 2.057.237 2.966-2.248-.233-5.747-.458-7.608 1.241z"/><path d="M35.885 7.321c-3.358-.385-6.734-.674-10.102-.95-.1-.008-.096.142 0 .154 3.36.401 6.731.792 10.102 1.085.187.017.181-.268 0-.289z"/></g></svg>