<svg xmlns="http://www.w3.org/2000/svg" viewBox="0 0 47.206 47.206"><g fill="#b7b7b7"><path d="M46.84 17.094c-1.737-.831-4.002-1.03-5.882-1.451-2.473-.554-4.939-1.166-7.437-1.595-.054-.009-.099.002-.149.003-.019-1.747-.115-3.483-.341-5.166-.011-.08-.069-.137-.135-.176-.004-.264-.178-.525-.523-.533a600.792 600.792 0 0 0-5.418-.107A389.35 389.35 0 0 0 24.503.558c-.196-.584-.991-.724-1.324-.173-1.505 2.494-2.97 5.043-4.088 7.74-1.397.05-2.789.125-4.174.239-.17-.268-.58-.305-.703.072-.524 1.604-.568 3.408-.562 5.087.001.132.065 1 .143 1.956a.604.604 0 0 0-.432-.087c-4.234.672-8.408 1.415-12.698 1.67-.547.032-.909.717-.469 1.132 3.999 3.776 7.8 7.796 11.971 11.383-.004.012-.012.019-.016.032-1.323 5.106-2.416 10.261-3.466 15.429-.111.548.429.99.937.72 1.8-.955 3.55-1.989 5.067-3.336 1.426.429 3.779-.234 4.898-.309 1.559-.104 5.712.492 6.66-1.282.097-.183.148-.405.175-.644 3.451 2.664 7.12 5.135 11.097 6.921.38.171.942-.02.908-.521-.406-5.966-1.142-11.814-2.469-17.641 2.459-1.756 4.564-4.109 6.749-6.172 1.285-1.213 4.568-3.078 4.497-5.044-.008-.245-.13-.524-.364-.636zM23.597 2.43a356.47 356.47 0 0 0 1.891 5.621 151.93 151.93 0 0 0-5.527.048c1.265-1.852 2.44-3.77 3.636-5.669zm-9.651 30.602c-.29 1.47-.369 2.941-.383 4.444-.011 1.141-.368 3.125.113 4.147.046.097.103.182.166.262-1.233.668-2.437 1.396-3.655 2.094.903-4.715 1.946-9.401 3.003-14.084.083-.368-.183-.613-.47-.656a.394.394 0 0 0-.073-.138c-3.152-3.879-6.808-7.352-10.424-10.806 3.853-.253 7.743-.725 11.446-1.796a.62.62 0 0 0 .204-.103c.087.993.172 1.86.199 1.859-.224.012-.302.368-.056.414.214.04.375.013.509-.046-.002.28.175.563.515.542.419-.026.842-.048 1.261-.035.128.004.254.015.378.023-.214 4.309.096 8.662-.024 12.981-.272-.03-.569.042-.871.07-.581.054-1.163.102-1.744.156-.418.039-.437.544-.094.672zm11.181.538c-2.261-.086-4.558-.671-6.777-.022-.147.043-.085.256.063.227 2.274-.439 4.421.352 6.661.192-.05.456-.089.912-.12 1.37-2.524-.212-5.163.109-7.671.364-.097.01-.1.162 0 .155 2.551-.196 5.111-.068 7.656-.219-.023.409-.059.817-.063 1.228-1.574-.092-3.216.126-4.789.205-.128.007-.13.203 0 .2 1.575-.033 3.225.062 4.791-.137 0 .268-.004.536.004.805.006.19.014.356.021.515-2.595.131-5.2.391-7.784.66-.134.014-.14.221 0 .214 2.595-.131 5.21-.274 7.794-.543.03 1.04-.109 1.34-1.574 1.699-1.011.248-2.239.156-3.281.229-1.093.076-2.191.126-3.281.229a9.636 9.636 0 0 0-1.823.216c-.027-.613-.05-1.226-.068-1.84-.069-2.07-.052-4.142-.343-6.194l1.242.111c.516.048 1.019.232 1.403-.201a.455.455 0 0 0 .117-.352.387.387 0 0 0 .148-.294c.233-4.506.68-9.18.216-13.681a.473.473 0 0 0-.109-.493c-.581-.593-1.881-.294-2.62-.11.107-.341.119-.77.13-1.13.079-2.545.212-5.331-.027-7.888 5.728.458 11.589.309 17.331.178.059-.001.106-.019.155-.034-.075.484-.131.975-.183 1.467l-.001-.001c-3.761-.489-7.678-.185-11.408.42-.114.019-.089.217.028.204 3.815-.436 7.512-.338 11.333-.193a51.96 51.96 0 0 0-.131 1.639c-2.734-.107-5.495.029-8.23.06-.17.002-.17.262 0 .264 2.728.03 5.482.166 8.209.06-.031.544-.072 1.086-.088 1.632-.023-.017-.043-.038-.077-.042-4.685-.568-9.466-.409-14.164-.083-.089.006-.091.144 0 .141 4.744-.202 9.429.075 14.164.266.031.001.047-.015.068-.025a74.747 74.747 0 0 0-.026 2.993c-.883-.03-1.788.044-2.664.064-.14.003-.14.215 0 .218.877.02 1.783.095 2.667.064.008.484.028.958.042 1.438-.823-.091-1.71.016-2.533.036-.131.003-.131.201 0 .204.826.02 1.716.128 2.541.035.014.448.021.902.039 1.345-.62.095-1.246.166-1.871.189-.517.019-1.036-.034-1.55-.003a19.682 19.682 0 0 1 .246-3.462c.069-.419-.258-.869-.726-.726-.81.248-1.639.437-2.487.488-.706.043-1.448-.101-2.128.095-.272.078-.35.381-.225.596a4.626 4.626 0 0 0-.131.725c-1.101.025-2.244.249-3.325.36-.135.014-.138.227 0 .214 1.069-.095 2.218-.095 3.295-.27-.021.278-.031.557-.043.834l-.042 1.071c-.851.013-1.728.228-2.523.467-.095.029-.056.173.041.149.826-.2 1.639-.237 2.469-.299l-.06 1.521c-.013.346.311.666.655.655 1.352-.043 2.741-.036 4.086-.205-.013.267-.014.536-.021.804-2.671-.13-5.363-.08-8.034-.099-.154-.001-.153.233 0 .239 2.667.109 5.352.289 8.023.288-.012.731-.017 1.463-.02 2.193l-4.036.028c-.424.003-.607.361-.567.687-.025.088-.039.18-.056.27-1.409.043-2.799.193-4.218.135-.164-.007-.161.242 0 .253 1.356.096 2.805.173 4.167-.026-.033.365-.03.737-.028 1.093.001.163-.002.34-.004.521-1.372.034-2.753.281-4.136.278-.159 0-.158.241 0 .246 1.315.039 2.819.102 4.138-.194.002.519.03 1.057.187 1.487.175.479.56.649 1.035.616.314-.021.69-.07 1.053-.158-.063.359-.108.717-.152 1.075zm19.312-14.427c-2.983 2.722-6.461 5.5-8.882 8.808-.319-.139-.796.123-.706.579.022.11.039.221.061.33l-.015.021c-.103.159-.03.336.1.44 1.033 5.347 1.809 10.74 2.144 16.178-3.616-2.082-7.236-4.094-10.73-6.391-.059-.594-.166-1.187-.181-1.617-.068-1.946.116-3.848.367-5.776a.454.454 0 0 0-.127-.391.42.42 0 0 0-.289-.212c-.509-.107-.877.004-1.384.123-.039.009-.293.09-.499.143.042-.041.045-.107.007-.202a26.316 26.316 0 0 1-.059-.491c-.076-.685-.054-1.47-.168-2.193l4.282.009c.323.001.64-.286.622-.622-.077-1.467-.195-2.974-.52-4.416.117-.365-.128-.883-.591-.906-1.163-.059-2.361.047-3.534.131a407.85 407.85 0 0 0-.082-2.21c-.019-.482-.032-.971-.109-1.445 1.066.312 2.441.096 3.561-.212-.063 1.04.01 2.067.212 3.102a.56.56 0 0 0 .312.71c1.283.47 3.003.02 4.282-.469.251.039.535-.106.56-.445.149-2.039.274-4.149.299-6.259 2.372.632 4.789 1.105 7.188 1.626 1.058.23 2.12.495 3.185.693a5.902 5.902 0 0 0 1.897.274c-.402.36-.803.724-1.203 1.09z"/><path d="M27.261 25.702c-3.033.103-6.066.235-9.098.375-.13.006-.132.205 0 .204 3.033-.026 6.066-.059 9.098-.122.294-.006.295-.467 0-.457zM31.812 16.6c-4.471-.35-9-.179-13.472.084-.153.009-.155.245 0 .239 4.494-.174 8.979-.07 13.472-.123.13-.001.127-.19 0-.2z"/></g></svg>