<svg xmlns="http://www.w3.org/2000/svg" viewBox="0 0 47.763 47.763"><g fill="#b7b7b7"><path d="M20.92 22.551c-.547-5.859-5.2-10.494-11.218-10.126-14.474.885-11.677 25.867 1.293 22.647a.468.468 0 0 0 .507.169c5.688-1.359 9.972-6.759 9.418-12.69zm-.835 1.323c-4.367-.157-8.835.404-13.149 1.019-.134.019-.104.253.032.238 4.363-.474 8.734-.573 13.1-.938a9.946 9.946 0 0 1-.506 2.531c-.003 0-.004-.003-.008-.003-3.354.086-6.715.595-10.007 1.218-.123.023-.069.206.051.187 3.27-.515 6.535-.769 9.827-1.052a10.15 10.15 0 0 1-.939 1.89c-4.198-.296-8.549.25-12.752.43-.117.005-.118.185 0 .183 4.153-.089 8.472.159 12.597-.372a11.775 11.775 0 0 1-2.237 2.417c-.014-.006-.022-.018-.039-.021-2.996-.375-6.082-.342-9.099-.424-.148-.004-.145.218 0 .229 2.909.21 5.874.527 8.795.479a14.26 14.26 0 0 1-1.153.794.146.146 0 0 0-.122-.056c-1.521.059-3.015.286-4.546.275-.155-.001-.153.231 0 .239 1.31.072 2.712.117 4.03-.088-.866.486-1.779.903-2.726 1.227-.046.016-.078.042-.114.065C5.135 33.743.697 29.936.895 23.525c.187-6.031 5.132-11.214 11.413-9.854a9.227 9.227 0 0 1 2.909 1.202c-1.678-.277-3.43-.31-5.108-.158-.115.01-.12.185 0 .183 1.948-.031 3.797.153 5.725.42.011.002.017-.006.028-.007.471.347.921.72 1.326 1.143-2.87-.48-5.94-.351-8.827-.158-.132.009-.135.211 0 .207 2.998-.081 5.942.216 8.929.286.06.001.098-.035.124-.08a10.584 10.584 0 0 1 1.74 2.634c-3.793-.219-7.707.219-11.493.451-.125.008-.128.201 0 .197 3.852-.135 7.797.044 11.629-.343.268.637.477 1.3.612 1.981-3.169-.152-6.543.529-9.63 1.183-.092.02-.052.154.038.139 3.204-.525 6.429-.601 9.632-1.032.009-.001.011-.009.018-.011.097.574.145 1.159.137 1.747-.001.075-.009.146-.012.219zM36.749 12.454c-15.407-.145-11.857 25.013.309 22.442 5.663 1.804 10.012-4.552 10.619-9.51.803-6.557-4.149-12.869-10.928-12.932zm8.521 17.589l-.005-.002c-3.172-.226-6.442-.057-9.62.042-.14.004-.14.213 0 .218 3.113.097 6.315.256 9.426.051-1.367 2.147-3.629 3.643-6.838 3.71a.351.351 0 0 0-.234-.108c-6.03-.442-10.504-4.212-10.634-10.565-.109-5.353 3.937-9.806 9.385-9.77 2.89.019 5.158 1.14 6.791 2.843-.011-.002-.015-.012-.027-.012-2.619-.094-5.252.032-7.874-.03-.129-.003-.128.194 0 .2 2.605.122 5.269.305 7.874.139.106-.007.151-.091.144-.171.516.557.97 1.171 1.353 1.83-3.959-.205-7.882.007-11.814.485-.128.015-.131.218 0 .204 3.959-.427 7.92-.454 11.893-.24a.192.192 0 0 0 .146-.055c.352.667.64 1.371.86 2.098a.188.188 0 0 0-.13-.06c-2.797-.093-5.609.083-8.393.348-.153.015-.157.254 0 .243 2.801-.204 5.586-.209 8.393-.193.117.001.173-.082.183-.171.162.563.286 1.139.368 1.719-3.741.225-7.484.577-11.214.93-.126.012-.13.207 0 .2 3.753-.202 7.518-.405 11.263-.736.267 2.415-.153 4.881-1.296 6.853z"/><path d="M17.983 18.041c-2.548-.215-5.169.007-7.702.305-.137.016-.141.23 0 .218 2.577-.226 5.122-.17 7.702-.196.213-.002.207-.309 0-.327zM42.487 32.531c-3.095-.536-6.499-.326-9.638-.411-.151-.004-.147.221 0 .232 3.107.231 6.513.713 9.613.366.096-.011.14-.167.025-.187zM45.964 27.564c-4.08-.165-8.179.071-12.242.448-.127.012-.13.209 0 .2 4.084-.277 8.151-.285 12.242-.283.236.001.234-.356 0-.365zM46.51 25.151c-1.214-.2-2.508.059-3.731.167-1.445.129-2.891.258-4.335.399-.144.014-.149.237 0 .229 1.446-.083 2.891-.179 4.335-.276 1.237-.083 2.551-.021 3.731-.411.048-.015.059-.098 0-.108zM42.157 15.542a23.27 23.27 0 0 0-5.642-.216c-.143.012-.146.233 0 .225a23.477 23.477 0 0 1 5.545.343c.231.042.327-.314.097-.352z"/></g></svg>