<svg xmlns="http://www.w3.org/2000/svg" viewBox="0 0 50.274 50.274"><path d="M45.126 4.466a.668.668 0 0 0-.147-.207c.225-.124.373-.358.251-.648C43.503-.511 38.642-.833 35.151 1.28 31 3.793 27.006 9.594 27.241 14.579c.005.114.087.2.183.246-2.423-.338-5.171.091-7.639.498-.389-.28-1.027-.073-1.092.421a.463.463 0 0 0 .017.208c.005.028-.002.051.007.079.528 1.837 1.016 3.854 1.95 5.534a.375.375 0 0 0 .209.173.547.547 0 0 0 .333.355l-.01.006.039.007c.021.006.044.009.066.012.797.192 1.745.111 2.553.131.674.017 1.415.09 2.126.056-.939 4.582-1.672 9.238-2.882 13.755-1.861 6.948-9.625 4.974-15.127 4.849-.236-.005-.335.204-.306.392-.721.788-1.242 1.69-1.653 2.686-.415 1.006-.926 2.17-.78 3.274-.462.698-.301 1.494.511 2.262 1.45 1.372 5.529.456 7.196.388 3.049-.125 6.253-.039 9.267-.603 3.881-.727 6.792-2.566 8.504-6.185 2.979-6.297 3.713-14.109 5.38-20.845.526-.003 1.052-.032 1.578-.032.639 0 1.291.101 1.909-.086a.47.47 0 0 0 .329-.363c1.215-.961 1.747-2.451 1.852-3.997.053-.775.037-1.65-.551-2.242-.444-.446-1.105-.678-1.627-.277-.007.005-.008.012-.014.018-.016-.014-.026-.031-.044-.045-.915-.676-2.165-.509-3.181-.124.18-1.877 1.089-3.661 2.261-5.125.596-.744 1.291-1.403 2.168-1.807.851-.392 1.729-.346 2.622-.522a.396.396 0 0 0 .226-.137 1.768 1.768 0 0 0 1.036-.448c.639-.599.802-1.836.469-2.625zm-1.223.371c-2.735-.164-5.452-.301-8.177-.648-.173-.022-.216.28-.042.307 2.705.423 5.464.766 8.208.808-.006.249-.024.495-.119.725-.144.348-.42.65-.792.563-.654-.192-1.343-.133-2.015.07-2.028-.224-4.085-.256-6.118-.491-.129-.015-.16.206-.031.228 1.709.287 3.52.569 5.284.599a7.684 7.684 0 0 0-2.369 1.876c-.085.101-.167.215-.251.322-1.224-.11-2.466-.134-3.686-.207-.153-.009-.149.221 0 .236 1.125.108 2.263.264 3.398.35a11.367 11.367 0 0 0-1.266 2.276c-1.283-.157-2.6-.18-3.881-.267-.184-.012-.18.268 0 .285 1.233.113 2.491.295 3.736.35-.25.701-.411 1.423-.425 2.13-1.688-.041-3.371-.006-5.061-.132-.171-.013-.166.247 0 .264 1.66.168 3.373.323 5.049.246.017.302.062.599.142.89.069.251.297.329.495.278a.318.318 0 0 0 .189.023c.507-.103 1.022-.057 1.533.013.484.066.907.275 1.379.365.303.058.527-.083.632-.286.611.281.832.918.824 1.663-5.618-.451-11.261-.709-16.89-1.004-.157-.008-.154.23 0 .243 5.61.455 11.23.949 16.851 1.249a6.627 6.627 0 0 1-.619 2.002c-.024-.025-.045-.053-.086-.06-5.351-.986-10.903-1.101-16.321-.755-.15.009-.153.24 0 .236 5.477-.147 10.788.303 16.22.933a4.514 4.514 0 0 1-.392.586c-.579-.123-1.196-.04-1.782.013-.601.055-1.211.12-1.798.269-.341-.144-.78-.055-.883.405-.064.284-.124.583-.185.873-1.928.08-3.809.194-5.756.127-.118-.004-.149.19-.028.211 1.798.312 3.844.393 5.692.097-.188.9-.371 1.815-.55 2.75-.849-.037-1.71.006-2.557.019-.417.007-1.21-.168-1.52.187a.176.176 0 0 0-.026.202c.05.104.09.132.204.15.066.011.156-.005.187-.076l.021-.047c.014-.032.006-.061.002-.091.556.067 1.728.105 1.806.107.595.013 1.196.037 1.792.023l-.303 1.58c-2.158-.109-4.306-.09-6.467-.297-.199-.019-.248.323-.048.352 2.087.3 4.307.542 6.427.401-.165.862-.333 1.729-.51 2.597-1.254-.049-2.523.021-3.776.041-.201.003-.202.31 0 .313 1.224.02 2.463.086 3.689.044a95.728 95.728 0 0 1-.549 2.522c-.265.003-.531.012-.796-.002a11.301 11.301 0 0 1-1.945-.281c-.204-.047-.291.262-.087.315.808.212 1.809.453 2.721.427a59.855 59.855 0 0 1-.505 1.951c-.025-.017-.046-.038-.082-.041-1.558-.147-3.159-.077-4.722-.045-.163.003-.163.25 0 .253 1.571.025 3.147.159 4.717.146-.268.941-.553 1.87-.878 2.766-.014-.077-.065-.151-.166-.16-1.68-.147-3.402-.033-5.078.112-.189.016-.193.311 0 .299 1.699-.107 3.38-.043 5.078-.042.05 0 .083-.021.111-.045a28.81 28.81 0 0 1-1.031 2.469c-2.668-.203-5.336-.164-8.005-.448-.154-.016-.192.251-.037.273 2.567.352 5.288.704 7.884.525-.051.102-.09.214-.143.316a10.712 10.712 0 0 1-1.34 2.021c-5.885-.517-11.825-.582-17.729-.617-.127-.001-.127.194 0 .197 5.802.134 11.583.539 17.377.81a8.887 8.887 0 0 1-2.776 1.983c-5.372-.207-10.836.042-16.186-.453.128.012.128-.166.028-.207l-.096-.039c-.052-.021-.108.015-.136.055l-.074.106c-.045.064-.011.16.052.197 1.529.917 4.818.453 6.582.53 2.959.129 5.929.237 8.893.186-1.962.686-4.184.883-6.548 1.031-1.809.114-3.626.156-5.437.237-.552.025-5.36.278-5.964-.927a.526.526 0 0 0 .209-.18c.546-.889.582-2.063.886-3.059.297-.972.658-1.921.955-2.892 4.183 1.161 11.114 2.321 14.518-1.196 1.546-1.597 1.832-4.088 2.226-6.152.781-4.089 1.614-8.165 2.404-12.252a.644.644 0 0 0-.157-1.158c-.937-.331-2.051-.162-3.036-.143-.873.017-1.844-.056-2.698.163-.18-1.526-.657-3.059-1.121-4.531 2.364.132 4.967.233 7.181-.33.538-.137.62-1.033.068-1.186.102.016.207-.01.264-.128 1.553-3.207 2.401-6.438 4.782-9.222 2.841-3.322 8.582-6.544 11.531-1.477-1.864-.611-3.97-.764-5.916-.819-.161-.005-.159.24 0 .249 1.99.123 3.86.568 5.804.932-.009.028-.024.048-.031.08a3.49 3.49 0 0 0-.032.365z" fill="#b7b7b7"/></svg>