<svg xmlns="http://www.w3.org/2000/svg" viewBox="0 0 46.052 46.052"><g fill="#b7b7b7"><path d="M39.947 6.819a1.62 1.62 0 0 0-1.513.272c.097-.657-.124-1.358-.677-1.768a1.737 1.737 0 0 0-1.163-.332c.089-.765-.321-1.64-1.056-1.962a1.78 1.78 0 0 0-1.796.221c-.228.173-.397.391-.554.619a2.096 2.096 0 0 0-.561-1.019c-.526-.508-1.302-.612-1.969-.392l.003-.071c-.012-.679-.333-1.369-.932-1.718-1.014-.589-2.284.014-2.664 1.034a1.485 1.485 0 0 0-.55-.346c-.772-.256-1.504.171-1.819.82a2.387 2.387 0 0 0-.247-.413c-.442-.584-1.175-.947-1.911-.768-1.265.309-1.761 1.995-.943 2.955-.042.031-.092.051-.131.087-.2-.481-.565-.899-1.053-1.094a1.66 1.66 0 0 0-.48-.11c.068-.947-.589-1.951-1.624-1.914a1.386 1.386 0 0 0-.977.466 3.184 3.184 0 0 0-.354-.637 1.857 1.857 0 0 0-2.059-.661c-1.46.464-1.588 2.336-.448 3.108a2.027 2.027 0 0 0-1.571.694c-.484-.72-1.509-1.039-2.354-.513-1.189.74-1.111 2.492-.031 3.236a1.806 1.806 0 0 0-.483.538c-.017-.022-.03-.051-.046-.073-.308-.426-.802-.717-1.337-.699-.883.03-1.442.785-1.444 1.576a1.656 1.656 0 0 0-.827-.15c-1.093.107-1.889 1.345-1.527 2.358a.346.346 0 0 0 .1.255c0 .006-.003.01-.003.016.304 9.731 1.97 19.795 3.946 29.315.07.336.334.443.588.399 5.917 9.188 20.271 6.47 26.944-.118.364.08.834-.117.893-.602 1.185-9.631 2.986-19.337 3.639-29.013a.31.31 0 0 0-.109-.258c.775-1.15.573-2.86-.9-3.338zm-4.244-.645c.015-.006.024-.017.039-.023a.329.329 0 0 0 .108-.044c.55-.357 1.395-.161 1.488.568.042.329-.209.578-.167.891v.002a1.343 1.343 0 0 0-.741.102 2.508 2.508 0 0 0-1.016-1.484.433.433 0 0 0 .289-.012zm-4.052 5.995c.124-.061.209-.186.15-.344-.201-.532.041-1.234.635-1.397.284-.078.586.025.802.217.288.255.27.548.394.881.112.299.577.443.752.109.209.061.463-.011.51-.265.111-.593.762-1.164 1.391-.878.252.115.431.37.513.628a.975.975 0 0 1 .029.384 39.707 39.707 0 0 1-5.146 2.087c.222-.392.177-.965-.03-1.422zm1.292-6.633c.557-.372.887-1.149 1.48-1.429.304-.144.737-.068.924.235.245.397-.078.716-.246 1.05-.115.229-.037.54.148.704a1.59 1.59 0 0 0-.851-.204c-.556.037-1.039.331-1.446.739.089-.346-.009-.708-.201-1.034a.363.363 0 0 0 .192-.061zm1.15 1.598c1.107-.507 1.074 1.025 1.484 1.617-.026.21.01.424.157.617.018.024.047.03.068.05-.63.081-1.183.492-1.478 1.06-.381-.683-1.292-1.168-2.017-.991-.458.112-.81.41-1.029.788a4.819 4.819 0 0 0-.766-1.48c.003-.022.021-.033.02-.057-.018-.42.368-.972.846-.753.253.116.333.373.363.63l-.012.03a.32.32 0 0 0 .053.314c.054.236.353.375.539.176.094-.101.155-.211.2-.325.353-.651.894-1.366 1.572-1.676zm-3.255 6.721a38.09 38.09 0 0 1-3.68.912c-.419-.182-.73-.609-.655-1.094.177-1.148 1.375-1.088 2.199-.705.273.127.498-.174.313-.406-.875-1.093-2.546-.729-3.233.325a3.852 3.852 0 0 0-.092-.69c-.01-.044-.039-.067-.065-.093.055-.208.056-.425.035-.644.099-.034.188-.109.194-.228.484-.56.844-.737 1.081-.533.062.122.127.244.205.354.22.309.714.13.624-.263a1.565 1.565 0 0 0-.154-.399c-.267-.89-.073-2.162 1.208-1.736.944.314 1.223 1.379 1.689 2.136a.44.44 0 0 0 .542.183c-.023.175-.027.354.001.53-.964-.482-2.224.377-1.924 1.471.047.171.314.181.356 0 .114-.497.81-1.123 1.327-.752.199.143.292.401.292.639.001.302-.174.425-.282.68a.358.358 0 0 0 .019.313zm-16.865.657a21.348 21.348 0 0 1-4.432-1.74c.21-.141.398-.307.533-.457.126-.141.228-.301.315-.469.325-.411.896-.158 1.13.217.144.23.189.5.264.753a.274.274 0 0 0 .035.109c.046.128.103.251.198.355.142.155.356.052.423-.112.064-.156.078-.337.056-.527.191-.441.663-.778 1.163-.65.592.152.707.74.656 1.257a.403.403 0 0 0 .024.188c-.272.298-.414.699-.365 1.076zm-.005-7.278c-.165-.387.254-.828.615-.861.521-.047.885.416 1.116.814a.403.403 0 0 0 .633.082c.023-.021.034-.058.051-.088a.292.292 0 0 0 .223-.342c-.066-.398-.037-.905.28-1.203.384-.36.79-.203 1.049.206.278.44.594 1.068.387 1.574a1.362 1.362 0 0 0-1.014.21c-.908.633-.678 2.003.198 2.513a1.668 1.668 0 0 0-.638.256 2.023 2.023 0 0 0-1.742-1.603c-.358-.04-.69.036-.981.182a3.271 3.271 0 0 0-.311-1.207.436.436 0 0 0 .134-.533zm7.832 2.23c-.401.198-.748.473-.957.819a1.459 1.459 0 0 0-.581-.346c-.552-.158-1.149.082-1.479.525-.032-.028-.055-.064-.089-.089a1.41 1.41 0 0 0-.643-.246c.099-.15.1-.376-.089-.472-.457-.233-.661-1.076-.134-1.37a.638.638 0 0 1 .363-.086.39.39 0 0 0 .317.109c.258.171.451.497.564.758.104.239.429.129.501-.065.003-.007 0-.015.002-.022.017-.008.037-.008.053-.02.455-.357 1.184-1.029 1.821-.774.212.085.416.305.458.536.042.229-.101.443-.123.675-.001.022.013.044.016.068zm-7.689 1.761a.43.43 0 0 0-.04-.185c-.355-.748.404-1.414 1.124-1.214.379.105.64.379.755.753.128.418-.056.759-.039 1.166.014.336.393.478.639.265a.954.954 0 0 0 .219-.295.373.373 0 0 0 .14-.175c.178-.453.89-.687 1.226-.277.3.366.081.644-.038.963a1.31 1.31 0 0 0-.512.004c-.582.137-.976.598-1.11 1.127a2.053 2.053 0 0 0-1.2-.351c.049-.747-.472-1.497-1.164-1.781zm1.294 2.643c.6.01.919.588 1.347.911.151.114.304.045.402-.078a.287.287 0 0 0 .154-.373c-.143-.421.052-1.056.531-1.177.647-.164.769.474 1.082.841a.271.271 0 0 0 .14.082c-.084.428-.046.878.142 1.274a25.72 25.72 0 0 1-4.471-.652c-.139-.37.323-.834.673-.828zm3.632-1.205a1.71 1.71 0 0 0 .28-.824 1.798 1.798 0 0 0-.17-.889c.251-.206.563-.327.89-.199.428.167.451.548.51.939.063.413.641.326.752 0 .032-.094.048-.191.052-.288.293-.303.46-.662.856-.888.422-.241.967-.348 1.433-.162.949.379 1.026 1.461 1.074 2.337.012.215.237.32.41.214-.034.118-.066.238-.124.349-.062.119-.118.213-.163.312-.344-.161-.706-.266-1.104-.218a1.609 1.609 0 0 0-.931.455c-.361-.974-1.446-1.672-2.516-1.254a1.908 1.908 0 0 0-.826.644 1.384 1.384 0 0 0-.423-.528zm3.605-5.291c-.396-.628.34-1.171.931-.955.799.292.788 1.219.948 1.915.046.201.29.24.434.125.182-.019.362-.15.367-.363.01-.513.453-1.011.997-.894.508.109.581.566.839.912-.438.417-.584 1.033-.509 1.651-.527-.036-1.067.261-1.256.815-.302-.594-.809-1.105-1.37-1.325-.318-.124-.713-.151-1.117-.107.073-.41-.112-.891-.386-1.271.153-.109.242-.312.122-.503zm-2.139 6.139c.792-.517 1.836.473 1.709 1.297-.064.419.526.607.651.179.004-.014.002-.028.006-.042.2.06.424.012.547-.226.402-.779 1.2-.456 1.869-.199.122.047.222.01.288-.063.072.196.172.379.301.536a32.47 32.47 0 0 1-5.624.395c-.01-.02-.013-.041-.027-.061-.384-.542-.309-1.432.28-1.816zm8.766-11.966c.235.229.355.576.332.901-.028.389-.321.652-.365 1.034-.026.224.227.471.448.448a.873.873 0 0 0 .482-.209.453.453 0 0 0 .178-.094c.445-.378 1.194-.37 1.557.12.279.376.154.713.075 1.066a1.728 1.728 0 0 0-.51-.222c-.609-.139-1.217.07-1.659.469a2.286 2.286 0 0 0-2.14-1.602c-.057-.001-.11.017-.167.021.141-.29.12-.701.042-.986a1.713 1.713 0 0 0-.118-.295c.238-.702 1.233-1.25 1.845-.651zm-1.257 2.966c.483.138.787.531.92 1.002.102.362-.007.831.303 1.094.069.058.165.102.257.068.031-.012.05-.033.078-.048a.36.36 0 0 0 .376-.276c.16-.531.757-.965 1.322-.752.597.225.58.773.768 1.268a.43.43 0 0 0 .483.28 5.322 5.322 0 0 0-.279.423 1.452 1.452 0 0 0-.731-.486c-.758-.193-1.454.38-1.612 1.079-.559-.447-1.24-.677-2-.458.002-.321-.151-.667-.337-.902a1.787 1.787 0 0 0-.763-.543.385.385 0 0 0-.023-.176c-.387-.896.167-1.878 1.238-1.573zm-5.259-2.515c.35-.143.756.044.99.312.314.359.213.744.291 1.172.048.266.408.324.582.154a.871.871 0 0 0 .187-.287c.142 0 .29-.088.292-.258.008-.579.724-1.201 1.244-.728.437.398.093.84.338 1.27.015.026.043.033.062.053a1.837 1.837 0 0 0-.88.915c-.215.503-.208 1.106.058 1.569-.339.067-.63.24-.854.481-.287-.628-.865-1.119-1.557-1.237.011-.004.016.002.028-.004.108-.048.153-.175.162-.282.063-.795-.604-1.451-1.392-1.425-.354-.527-.182-1.448.449-1.705zm-2.548 1.778c.291.169.492.497.55.824.057.322-.104.609-.071.922.026.251.262.413.5.287.091-.048.147-.128.208-.203.145-.018.284-.095.312-.25.112-.612.689-.887 1.157-.418.136.136.218.336.346.439-1.008.01-1.71.991-1.469 1.885-.864-.298-1.79.194-2.275.934a1.69 1.69 0 0 0-.401-.452c.139-.359.121-.777.011-1.159-.129-.45-.377-1.03-.731-1.422a.25.25 0 0 0 .177-.248c.016-.785.909-1.588 1.686-1.139zM15.629.942c1.073.109.893 1.489 1.266 2.172.121.221.42.224.583.068.162-.05.291-.199.219-.391-.267-.716.725-1.351 1.139-.603.18.324-.014.583.07.9-.608.351-1.041 1.019-.977 1.754-.463-.233-1.034-.13-1.433.19-.034-.691-.67-1.377-1.302-1.676.143-.141.164-.42-.045-.549-.841-.522-.657-1.981.48-1.865zm-4.916 3.903c.087-.402.455-.803.891-.776.509.031.545.468.599.852.034.239.204.524.487.487.195-.026.434-.132.47-.358.003-.022-.002-.04 0-.062.29-.537.882-.983 1.52-.803.751.212.698.888.994 1.444.069.13.2.19.332.192-.022.1-.037.203-.043.307-.46-.506-1.123-.822-1.817-.613a1.581 1.581 0 0 0-1.079 1.224 2.276 2.276 0 0 0-.441-.303 2.03 2.03 0 0 0-1.34-.166.399.399 0 0 0-.047-.086c-.302-.378-.639-.815-.526-1.339zM8.781 7.12c.321.009.623.247.76.528.117.239.066.495.183.732.073.147.29.161.398.051.069-.07.1-.156.129-.242a.286.286 0 0 0 .152-.182c.29-1.049 1.503-1.223 2.23-.504.785.776.43 1.658.468 2.606a.38.38 0 0 0 .071.19 1.59 1.59 0 0 0 .094.823 1.723 1.723 0 0 0-1.092.645c-.166-.271-.375-.5-.586-.625a1.335 1.335 0 0 0-.956-.159 1.926 1.926 0 0 0-.023-.448C10.422 9.481 9.234 8.956 8.42 9.51a2.112 2.112 0 0 0-.403-.924c-.035-.046-.082-.082-.121-.125.006-.037.027-.068.017-.108-.125-.527.274-1.25.868-1.233zm-2.28 1.618c.387-.06.732.154.934.477.196.313.128.63.199.97.059.284.366.29.555.147.138.085.323.099.457-.033.591-.587 1.262.268 1.023.893-.125.329-.417.548-.717.709-.179.096-.358.15-.516.235a19.266 19.266 0 0 1-2.81-2.104c-.031-.559.281-1.201.875-1.294zm28.198 6.413c1.452.171 3.004.346 4.479.224-.117.65-.237 1.3-.347 1.952-.032-.019-.059-.043-.106-.042-3.093.084-6.178.19-9.273.183-.145 0-.144.219 0 .225 3.083.138 6.19.198 9.273.046.018-.001.025-.015.041-.019-.111.669-.233 1.334-.336 2.006-6.315.34-12.624.649-18.948.773-.142.003-.143.221 0 .222 6.293.01 12.591-.1 18.874-.474a259.933 259.933 0 0 0-1.03 7.696c-2.92-.581-6.257-.287-9.28-.292-1.01-.001-3.908-.678-4.438.414-.035.073.069.136.109.064.47-.839 6.811-.096 7.647-.074 1.977.05 3.954.106 5.931.141-.074.617-.153 1.234-.224 1.852-.027-.022-.054-.045-.097-.049-6.418-.582-12.974-.436-19.415-.423-.1 0-.099.152 0 .155 6.46.168 12.956.666 19.415.62.029 0 .043-.017.065-.027-.113.978-.224 1.956-.334 2.933-4.568-.199-9.152-.163-13.724-.222-.193-.002-.192.294 0 .299 4.556.119 9.122.332 13.68.312l-.362 3.197c-.005-.001-.006-.006-.011-.006-6.403-.612-12.828-.878-19.256-1.037-.129-.003-.129.195 0 .2 6.419.248 12.818.743 19.22 1.249-.057.5-.114 1.001-.173 1.499a.588.588 0 0 0-.284.159c-.052.053-.108.098-.161.15-5.3-.504-10.658-.693-15.974-.958-.143-.007-.141.21 0 .222 5.174.419 10.379.913 15.569 1.115a21.287 21.287 0 0 1-1.859 1.569l-.026-.138c-.02-.104-.122-.152-.215-.164l-.145-.018c-.245-.031-.256.33-.055.404-2.462-.908-6.406-.392-8.985-.491-2.945-.113-5.89-.213-8.835-.316-.12-.004-.119.179 0 .186 3.398.201 6.796.404 10.195.592 2.159.119 5.246.843 7.444.379a19.782 19.782 0 0 1-2.417 1.435c-4.362-.281-8.753-.354-13.122-.34-.186.001-.185.282 0 .288 4.076.135 8.148.328 12.222.482a16.906 16.906 0 0 1-7.229 1.376c-4.984-.159-8.161-2.672-12.209-4.983a.629.629 0 0 0 .01-.254c-1.531-9.341-2.616-18.734-4.06-28.078 9.102 8.099 24.486 5.387 34.088-.301-.117.524-.21 1.056-.316 1.583-.855.014-1.716.115-2.567.183-.254.02-.26.414 0 .401.823-.042 1.658-.061 2.48-.146-.122.617-.256 1.229-.369 1.849-1.518-.072-3.035-.01-4.557-.155-.244-.024-.237.344-.003.372zm5.458-5.266a.484.484 0 0 0-.419.054c-.592.358-1.204.702-1.832 1.033-.198-.672-.775-1.316-1.345-1.492-.042-.013-.084-.017-.127-.026a.392.392 0 0 0 .136-.312c-.008-.901.897-.593 1.474-.321l.004.008c.052.061.12.083.19.088a.85.85 0 0 0 .043.021c.324.168.711-.266.409-.53l-.021-.018c.048-.19.111-.372.279-.507.3-.242.693-.148.965.089.552.48.467 1.286.244 1.913z"/><path d="M37.148 24.268c-3.626-.039-7.213.231-10.847.012-.202-.012-.199.298 0 .313 3.568.274 7.34.535 10.894.016.198-.028.143-.339-.047-.341z"/></g></svg>