<svg xmlns="http://www.w3.org/2000/svg" viewBox="0 0 49.615 49.615"><g fill="#1d1d1b"><path d="M32.966 14.154c.066-.13.057-.292-.101-.37-1.482-.723-3.041-.005-4.475.595-1.639.686-3.192 1.552-4.695 2.496.318-1.57.658-3.135 1-4.7.165-.756 1.184-6.697 2.647-5.983.018.008.038.001.057.006.511 1.484-1.378 3.035-.746 4.657.39 1 1.695 1.537 2.485.669l.002-.003c5.677-.585 5.271-11.208-.706-11.514-3.472-.178-6.657 2.923-8.328 5.623-2.691 4.348-2.929 9.515-3.047 14.484-.464-.108-.976-.211-1.36-.068-.659.247-.602 1.136-.678 1.71-.085.644-.209 1.358.35 1.832.374.318.897.36 1.368.252-1.235 6.519-1.526 29.576 10.09 25.234 4.412-1.649 5.242-7.285 5.038-11.356-.292-5.808-2.787-11.073-6.874-15.121a74.687 74.687 0 0 0 4.657-1.617c1.331-.519 3.034-.978 4.122-1.931 1.767-1.545.607-3.603-.806-4.895zm-4.522 15.234c-.43.007-.865.055-1.292.075-.555.026-1.113.005-1.667.049-.085.007-.117.14-.021.159.936.186 2.175.261 3.149.049a20.81 20.81 0 0 1 1.051 2.7c-1.047-.067-2.181.114-3.182.378-.478-1.741-1.211-3.432-1.85-5.097.962.048 1.947.084 2.877-.017.335.554.648 1.121.935 1.704zm-2.903 9.031l-1.276-1.043a67.752 67.752 0 0 1-.403-4.778c-.059-1.105-.418-3.087-.248-4.409.495 1.351 1.058 2.679 1.497 4.05.264.824 1.625 5.658.43 6.18zm-1.297-16.446a.533.533 0 0 0-.339.05c-2.051-.105-4.144.118-6.156.442-.151.024-.117.289.037.269 1.948-.253 3.862-.265 5.804-.264a.502.502 0 0 0 .152.414c.597.608 1.155 1.24 1.685 1.888a67.044 67.044 0 0 0-7.21-.169c-.115.003-.111.166 0 .176 2.519.222 5.058.314 7.585.461a25.555 25.555 0 0 1 1.468 2.077c-.908-.076-1.857-.041-2.785.005l-.01-.026c-.17-.455-.716-.463-.973-.206-.184-.111-.493-.026-.582.168-.478 1.042-.305 2.299-.29 3.423.026 1.918.166 3.836.374 5.742.133 1.218.132 4.358 2.183 3.925 1.646-.348 1.806-2.923 1.8-4.209-.005-1.065-.186-2.107-.455-3.133 1.088-.19 2.137-.218 3.228-.27.05.172.11.339.157.514.153.58.315 1.35.454 2.222-.874.037-1.753.141-2.617.251-.161.021-.172.268 0 .26.884-.041 1.782-.094 2.663-.212.132.89.238 1.873.284 2.882-1.155.005-2.322.096-3.47.152-.182.009-.184.287 0 .285 1.153-.014 2.328.005 3.486-.061.021.705.013 1.417-.04 2.109-3.591-.084-7.199.06-10.789.089-.127.001-.127.196 0 .197 3.578.029 7.175.172 10.754.09-.113 1.126-.343 2.19-.748 3.071-2.404.294-4.767.552-7.207.494-.116-.003-.115.173 0 .179 2.325.131 4.707.096 7.015-.301-.357.646-.815 1.182-1.416 1.533l-7.247-.091a12.124 12.124 0 0 1-1.505-2.314c3.422-.009 7.256.394 10.57-.375.171-.04.135-.314-.042-.307-3.549.126-7.1.318-10.651.45a11.597 11.597 0 0 1-.899-2.736c-.655-2.188-.796-4.589-.962-6.855-.266-3.641.069-7.234.082-10.872a.37.37 0 0 0-.235-.348c-.036-.248-.207-.454-.536-.412-.116.015-.626.147-.72.029-.116-.145.097-.93.118-1.089.014-.107.093-.357.076-.482l.13-.016c.387-.046.772-.094 1.158-.147.23-.031.288-.289.215-.483l.011-.169c3.472.148 6.948.137 10.42-.018-1.34.581-2.677 1.162-4.025 1.718zm8.509-3.717c-.623.566-1.821.862-2.559 1.184-.439.192-.882.372-1.321.562.015-.142-.059-.29-.242-.279-3.589.214-7.173.306-10.768.302.289-4.684.704-9.741 3.343-13.752 1.245-1.892 3.63-4.814 6.071-4.993 1.477-.109 2.769.36 3.617 1.33-1.117-.023-2.255.038-3.361.093-.059.003-.135.044-.145.11-.043.28.035.437.324.481.149.023.217-.2.064-.231.139.028.504-.038.697-.034l1.096.021c.553.01 1.11.026 1.664.013.208.327.384.686.5 1.099.03.106.035.235.058.348-.982-.025-2.021.159-2.988.24-.209.018-.214.343 0 .331.988-.057 2.064-.021 3.051-.191.064.486.095.997.05 1.531-.37-.032-.735.059-1.104.114-.502.075-1.004.148-1.506.221-.159.023-.123.299.038.283l1.414-.144c.367-.037.763-.034 1.116-.144-.069.53-.177 1.06-.373 1.552-1.018.273-1.925.475-3.021.272-.127-.024-.183.165-.054.197.895.219 1.964.273 2.877-.027-.563 1.097-1.514 1.926-2.949 2.02a.399.399 0 0 0-.266.119c-.545-.17-.513-1.246-.358-1.76.162-.537.429-1.051.523-1.608.126-.748-.031-1.418-.517-1.994a.235.235 0 0 0-.229-.081c-.889-.822-1.944-.001-2.445 1.05-.036.075-.063.157-.098.233-.854-.112-1.761-.055-2.62-.019-.212.009-.213.321 0 .331.816.035 1.675.083 2.492-.008a16.572 16.572 0 0 0-.632 1.751c-.711-.202-1.479-.208-2.208-.133-.195.02-.2.325 0 .309.728-.057 1.407.03 2.122.135a24.31 24.31 0 0 0-.422 1.737c-.918.039-1.821.116-2.748.068-.201-.01-.195.29 0 .309.868.087 1.792.128 2.672.003-.091.48-.174.964-.245 1.45-.987.049-1.978.255-2.959.375-.104.013-.106.176 0 .165.967-.101 1.962-.125 2.92-.288a53.478 53.478 0 0 0-.267 2.338c-.943.054-1.885.162-2.824.247-.129.012-.132.214 0 .204.933-.068 1.872-.116 2.803-.215-.074.823-.136 1.634-.192 2.407-1.103.107-2.205.215-3.304.319-.133.013-.138.217 0 .211 1.234-.051 2.472-.099 3.712-.15a.55.55 0 0 0 .58-.019l.014-.008c3.119-.131 6.243-.293 9.333-.633.025-.003.035-.021.056-.03-.09.233-.243.46-.482.676zm.58-1.04a.205.205 0 0 0-.151-.058c-2.798.074-5.604.298-8.405.555a44.714 44.714 0 0 1 2.973-1.58c1.295-.619 2.693-1.423 4.13-1.698.684.747 1.575 1.786 1.453 2.781z"/><path d="M32.258 15.62c-.752.126-1.461.223-2.225.159-.229-.019-.219.324 0 .352.772.097 1.581.101 2.331-.127.249-.077.142-.426-.106-.384z"/></g></svg>