<svg xmlns="http://www.w3.org/2000/svg" viewBox="0 0 49.377 49.377"><g fill="#1d1d1b"><path d="M38.052 10.605c-.464-2.321-1.198-8.857-3.764-10.109.001-.271-.163-.531-.496-.493C28.396.617 23.015 2.42 17.82 3.954c-2.809.829-5.843 1.462-6.775 4.56a.234.234 0 0 0 .023.193c-.394 2.209.858 4.75 1.434 6.901 1.414 5.281 2.993 10.523 4.379 15.81 1.231 4.697 1.708 10.171 3.746 14.597.605 1.315 1.27 2.213 2.332 2.602-.152.308.017.789.435.757 3.218-.242 9.054-.678 10.744-4.122.977-1.99.154-4.379-.305-6.377-.741-3.225-1.453-6.468-2.358-9.652 2.447-.836 5.47-2.193 6.476-4.714.961-2.408-.262-5.14-1.842-7.019 2.66-1.265 2.493-4.137 1.943-6.885zm-6.828 35.223c-.01 0-.016-.007-.026-.005-1.223.17-2.416.396-3.619.577 1.214-.329 2.215-.817 2.552-1.946.791-.036 1.59-.073 2.376-.16a4.625 4.625 0 0 1-1.283 1.534zm-6.413-24.134c.164.068.31-.009.405-.133.84.081 1.639-.062 2.481-.243 1.021-.219 2.148-.377 3.112-.814.005.001.007.005.012.006.87.077 1.059 1.746 1.181 2.36.104.525.159 1.055.221 1.585-1.915.458-3.853 1.03-5.607 1.92-.425.216-.402.733-.149 1.038-.026.04-.052.082-.046.144.024.237.061.472.089.709l-.188-.002c-.146-.001-.143.215 0 .225l.218.014c.322 2.606.837 5.181 1.337 7.759.266 1.375.711 2.892.827 4.288.299 3.607-1.319 4.577-4.311 5.393-2.568-5.271-3.466-12.107-4.923-17.701-.748-2.87-1.465-5.749-2.221-8.617-.523-1.984-3.252-8.368-2.049-10.463 2.22-1.11 4.837-1.643 7.186-2.366 2.852-.878 5.632-1.891 8.634-2.065 2.044 2.665 1.716 6.471 2.056 9.672-3.079.594-6.555 1.471-9.328 2.843a.337.337 0 0 0-.133.123c-1.452.666.083 3.863 1.196 4.325zm6.684 12.169c-.85-.075-1.751.062-2.576.223-.126.025-.07.209.052.19.869-.134 1.716-.104 2.583-.146.13.586.257 1.172.39 1.757-.778.069-1.483.127-2.263-.091-.153-.043-.216.19-.065.237.748.236 1.622.347 2.384.103.216.957.431 1.914.635 2.873-.648.079-1.277.163-1.941.12-.15-.01-.146.218 0 .232.654.064 1.351.07 1.997-.091.048.229.101.457.148.687.137.669.184 1.259.186 1.811-.895.029-1.79.083-2.682.141-.17.011-.173.273 0 .267a83.13 83.13 0 0 0 2.687-.125c-.025.721-.152 1.353-.377 1.899-.822.041-1.65.143-2.471.248.058-.293.089-.611.06-.988-.363-4.722-1.68-10.011-2.985-14.66 1.058.072 2.119.123 3.179.15-.033.188 0 .385.115.52.098.563.211 1.124.322 1.684-.41 0-.822.014-1.23.021-.133.002-.134.205 0 .207.424.007.852.022 1.278.02.184.906.375 1.81.574 2.711zm4.763-8.929c-1.307 1.687-3.489 2.05-5.217 3.128-.226-.139-.547.011-.599.305a77.114 77.114 0 0 0-3.26-.093l-.18-.641c.046-.004.09 0 .138-.015 1.809-.582 3.57-1.386 5.313-2.159.284.299.909.079.947-.398a5.37 5.37 0 0 0 .013-.439.103.103 0 0 0 .079.041c.919.047 1.952.139 2.906.063-.046.069-.087.14-.14.208zm.734-2.455c-.925-.063-1.878.012-2.8.036-.152.004-.152.232 0 .236.925.024 1.883.1 2.812.036a3.689 3.689 0 0 1-.415 1.624c-1.006-.108-2.117-.009-3.097.042a.1.1 0 0 0-.079.042c-.032-1.542-.557-4.178-2.039-4.597a.439.439 0 0 0-.405-.356c-2.007-.1-3.891 1.142-5.885 1.184-.469-.794-1.456-2-1.086-2.666 3.252-.432 6.722-1.7 9.745-2.989.247-.021.468-.186.453-.522-.149-3.233.107-8.096-2.591-10.458a.474.474 0 0 0-.441-.339c-.035-.024-.064-.053-.099-.076-.171-.113-.34-.053-.444.07-3.118-.054-6.168 1.216-9.111 2.12-2.146.66-4.554 1.115-6.426 2.394a.388.388 0 0 0-.189.047c-1.375.761-1.168 1.554-1.02 3.022.447 4.416 2.401 9.11 3.593 13.366 1.245 4.443 2.472 8.889 3.625 13.357.715 2.77 1.044 6.014 2.852 8.309-.096.392.201.89.703.74.268-.08.543-.149.82-.214 1.635.007 3.411-.099 4.989-.548-1.797 1.031-4.27 1.439-6.583 1.915-2.807-1.669-3.262-6.687-4.115-9.62-.99-3.401-2.043-6.773-2.882-10.216a684.729 684.729 0 0 0-2.341-9.364c-.797-3.074-3.098-8.423-2.019-11.557 2.582-2.371 7.688-2.822 10.748-3.652 3.443-.934 6.951-1.697 10.363-2.727.497.352.896 1.128 1.223 2.036-2.056-.404-4.168-.493-6.256-.384-.123.006-.125.195 0 .193 2.169-.021 4.265.232 6.396.596.118.362.225.738.324 1.111-.602-.094-1.213-.138-1.819-.198-.15-.015-.146.214 0 .232.625.076 1.252.172 1.881.207.208.816.375 1.602.512 2.18-.683.008-1.33.01-2.017-.127-.171-.034-.245.217-.073.264.684.188 1.454.283 2.165.168l.021.082c.187.703.502 1.758.741 2.903-.782-.083-1.577-.106-2.358-.151-.193-.011-.19.283 0 .299.803.068 1.62.169 2.429.192.145.761.246 1.552.244 2.299-.747-.102-1.597.011-2.324.022-.19.003-.19.292 0 .295.722.012 1.565.122 2.307.025-.029.585-.117 1.141-.322 1.618-.663.021-1.328.124-1.986.198-.132.015-.137.221 0 .211.613-.044 1.235-.071 1.847-.152a2.585 2.585 0 0 1-1.59 1.281.607.607 0 0 0-.409.372 59.105 59.105 0 0 0-3.695.034c-.145.005-.145.22 0 .225 1.212.043 2.434.067 3.649.035.021.318.241.626.592.635.179.248.355.517.526.795-2.963-.509-6.154-.412-9.141-.411-.134 0-.133.202 0 .208 3.082.119 6.232.546 9.312.483.635 1.094 1.144 2.362 1.185 3.585z"/><path d="M34.551 26.077c-.997.116-1.978.182-2.98.108-.137-.01-.133.197 0 .211 1.005.107 2.017.099 3.008-.111.114-.025.091-.222-.028-.208zM36.326 20.602c-.53-.139-1.104-.105-1.65-.125-.627-.023-1.256-.063-1.883-.02-.072.005-.099.119-.018.135.583.11 1.176.146 1.766.194.59.048 1.196.157 1.784.076.138-.018.121-.228.001-.26z"/></g></svg>