<svg xmlns="http://www.w3.org/2000/svg" viewBox="0 0 50.138 50.138"><g fill="#1d1d1b"><path d="M49.615.832c-.001-.298-.209-.44-.427-.44-.1-.233-.312-.409-.65-.391-8.28.453-16.569.694-24.862.658-6.789-.028-14.681-1.42-21.229.782a.418.418 0 0 0-.184.129.472.472 0 0 0-.636.408C.94 9.687.938 17.492.821 25.227.706 32.901.168 40.841.9 48.485c.027.28.199.448.4.509.025.062.057.12.102.166 1.69 1.727 5.127.355 7.195.154 4.003-.39 7.869-.205 11.875.107 9.306.726 18.578.888 27.907.541.419-.016.637-.326.672-.652.207-.073.387-.242.399-.487.388-7.944-.432-16.032-.403-23.999.026-7.998.592-15.999.568-23.992zm-1.052 1.434c-4.934.023-9.883.183-14.808.449-.106.006-.107.164 0 .165 4.917.05 9.854-.005 14.77-.196-.045.49-.094.979-.134 1.47-.015 0-.025-.011-.042-.008-9.465 1.905-19.679.338-29.279.241-.13-.001-.128.192 0 .2 9.52.63 19.865 2.001 29.28.053a142.786 142.786 0 0 0-.253 4.301c-6.844-.67-13.813-.358-20.645.294-.153.015-.157.254 0 .243 6.9-.503 13.724-.368 20.628-.244-.035.751-.054 1.503-.08 2.255-.024-.014-.042-.035-.076-.037-2.729-.188-5.488-.158-8.223-.186-.134-.001-.132.2 0 .207 2.733.154 5.486.368 8.223.362.029 0 .042-.018.064-.027-.016.482-.017.964-.03 1.446-1.499-.217-3.076-.155-4.589-.202-.173-.005-.17.255 0 .267 1.498.103 3.053.327 4.554.26.012-.001.018-.01.029-.013a402.036 402.036 0 0 0-.097 5.484c-1.556-.079-3.07-.031-4.63-.279-.129-.02-.188.172-.055.2 1.493.31 3.144.569 4.679.402-.02 1.764-.031 3.523-.04 5.278-1.401-.105-2.86.021-4.26.047-.14.003-.14.215 0 .218 1.399.026 2.857.153 4.258.048l-.006.818c-.003.672-.01 1.35-.016 2.026-1.203-.158-2.506-.01-3.711.011-.176.003-.177.271 0 .274 1.205.021 2.506.168 3.708.011l-.013 1.469c-.009-.001-.012-.008-.021-.008-2.087-.027-4.218.211-6.297.388-.149.013-.154.24 0 .236 2.085-.054 4.227-.054 6.297-.311.008-.001.011-.008.018-.01-.016 1.527-.032 3.06-.036 4.595-1.98.067-3.944.219-5.93.192-.152-.002-.151.228 0 .236 1.96.097 3.977.136 5.93-.118-.001.667.012 1.334.015 2.001-1.462.053-2.9.202-4.371.146-.15-.006-.147.221 0 .232 1.431.105 2.944.18 4.373-.039.005.727.002 1.454.017 2.181-2.464-.085-4.947.007-7.417-.007.067-.248.009-.529-.176-.695-.812-9.024-.114-17.963-.59-26.96-.019-.361-.493-.518-.705-.288a.743.743 0 0 0-.332-.095c-8.321-.34-17.069-.627-25.311.865-.159-.381-.796-.288-.86.195-1.126 8.5-1.271 17.827-.276 26.343a.56.56 0 0 0 .563.506c.05.084.132.148.251.169 8.815 1.508 17.939.961 26.825.454a.648.648 0 0 0 .436-.193c2.516.145 5.09.284 7.603.11.016.655.021 1.312.047 1.965-6.312-.302-12.658-.167-18.963.222-.128.008-.13.205 0 .2 6.333-.211 12.643-.166 18.976-.052.017.38.018.763.039 1.143-8.204.166-16.414.407-24.611.774-.094.004-.096.148 0 .148 8.213-.049 16.432-.223 24.641-.472.035.573.067 1.146.114 1.716-11.757.313-23.494.181-35.253.14-.166 0-.164.249 0 .257 11.741.558 23.543.409 35.29.092.079.905.173 1.807.289 2.703-7.738.33-15.497.271-23.23-.164-3.426-.193-6.851-.594-10.281-.689-1.339-.037-12.53 1.272-12.727.612-.014-.047-.044-.078-.073-.11.5-7.596-.046-15.345.043-22.961.089-7.63.514-15.281.456-22.915.012 0 .02.005.032.004 15.268-1.056 30.656.009 45.974-.812.037-.002.063-.019.097-.025-.028.263-.047.528-.072.792zm-9.86 36.228c-8.567.415-16.972.563-25.55-.015.094-8.505.089-17.051.116-25.561 8.436.092 16.82-.589 25.276-.21.012.001.019-.005.031-.005-1.406 8.33-.627 17.46.127 25.791z"/><path d="M47.561 7.57c-11.009-.399-22.032-.929-33.048-1.055-.18-.002-.177.267 0 .278 11 .642 22.035.882 33.048 1.252.305.01.305-.463 0-.475zM47.572 16.814c-1.731-.169-3.505-.056-5.246-.175-.146-.01-.142.211 0 .225 1.705.166 3.538.41 5.246.214.168-.02.17-.248 0-.264zM47.748 15.343c-2.147-.162-4.318-.226-6.471-.282-.131-.003-.127.19 0 .2 2.149.179 4.316.351 6.471.423.221.008.216-.324 0-.341zM47.397 21.986c-2.133-.183-4.339-.062-6.471.094-.163.012-.167.259 0 .257 2.154-.025 4.32.065 6.471.001.229-.007.223-.333 0-.352zM47.428 32.405c-1.601-.276-3.307-.312-4.929-.374-.159-.006-.151.225 0 .243 1.602.183 3.283.407 4.896.377.135-.003.177-.221.033-.246z"/></g></svg>