<svg xmlns="http://www.w3.org/2000/svg" viewBox="0 0 48.778 48.778"><g fill="#1d1d1b"><path d="M37.057 3.595c.003-.058-.031-.117-.106-.118h-.081c-.23-.149-.459-.299-.695-.44C24.078-4.175 7.284 2.098 2.317 15.1a.46.46 0 0 0 .016.369C0 19.788.111 25.703.858 30.254c1.148 6.998 4.941 12.787 11.401 15.915 11.92 5.772 27.454 1.794 33.677-10.239 5.589-10.807 1.246-25.629-8.879-32.335zm5.168 26.622c1.43.098 2.876.218 4.311.234a21.046 21.046 0 0 1-.624 2.24c-1.543.113-2.987.095-4.532-.208-.127-.025-.181.162-.054.195 1.442.373 3.01.491 4.495.271a19.679 19.679 0 0 1-1.006 2.327c-.033.064-.072.123-.106.187-1.743.033-3.49.173-5.229.268-.124.007-.125.2 0 .194 1.703-.082 3.417-.125 5.117-.264a20.704 20.704 0 0 1-1.46 2.327c-1.996.162-3.988.481-5.974.731-.109.014-.111.186 0 .173 1.934-.228 3.89-.397 5.815-.701a22.89 22.89 0 0 1-1.804 2.132c-2.744.129-5.493.458-8.23.693-.101.009-.102.166 0 .158 2.673-.212 5.372-.34 8.038-.645a22.289 22.289 0 0 1-2.086 1.891c-.012-.005-.021-.014-.038-.013-4.66.342-9.309.873-13.945 1.45-.046.006-.048.079 0 .074 4.58-.493 9.167-.889 13.752-1.322a23.05 23.05 0 0 1-2.715 1.79c.001-.037-.023-.072-.072-.069-5.675.327-11.377 1.23-17.068 1.036-.095-.003-.095.143 0 .148 5.612.26 11.414-.457 16.994-1.027-6.417 3.544-14.484 4.064-21.55 1.207-12.617-5.103-15.778-21.16-9.691-32.466 5.847-10.1 19.06-15.13 29.788-9.755-3.42-.008-6.841.016-10.26.043-.094.001-.094.145 0 .145 3.566.028 7.135.055 10.702.042.252.134.504.267.752.412a20.373 20.373 0 0 1 2.96 2.126c-.917.182-5.379-.264-6.036-.265-2.304-.005-4.605.085-6.905.228-.104.006-.105.168 0 .162 2.958-.173 5.916-.231 8.878-.146.877.025 3.252.599 4.174.121a22.292 22.292 0 0 1 1.987 1.938c-2.89-.031-5.832.09-8.713.292-.06.004-.062.094 0 .095 2.935.035 5.929-.014 8.857-.22a23.984 23.984 0 0 1 2.115 2.778l-.002-.001c-2.814.031-5.634.24-8.445.382-.103.005-.104.164 0 .16 2.812-.109 5.639-.152 8.445-.371.038-.003.059-.027.07-.055a25.987 25.987 0 0 1 2.668 5.485c-.003 0-.001-.004-.004-.005-3.933-.239-7.955.064-11.842.685-.053.008-.042.101.013.095 3.955-.452 7.853-.59 11.829-.634.025 0 .026-.023.038-.038a26.469 26.469 0 0 1 1.239 5.31c-5.132.387-10.282.833-15.394 1.423-.055.006-.058.092 0 .089 5.141-.324 10.295-.796 15.42-1.323.31 2.619.224 5.264-.319 7.795-1.442-.139-2.907-.171-4.355-.225-.14-.004-.138.211.002.221z"/><path d="M12.28 17.986c-1.792.378-2.62 3.275-2.231 4.904.642 2.683 3.538 4.307 6.173 3.488 6.402-1.989.763-11.666-3.942-8.392zm3.718 7.029c-4.156 1.483-6.849-5.201-2.437-6.272a.284.284 0 0 0 .15-.096c1.216.005 2.328.447 3.171 1.481 1.264 1.549 1.275 4.116-.884 4.887zM33.377 14.192c-.282-1.951-2.309-3.51-4.282-3.454-.004 0-.007-.004-.011-.004-2.248-.088-3.934 2.176-3.676 4.311.264 2.189 2.218 3.805 4.415 3.587 2.213-.222 3.877-2.202 3.554-4.44zm-3.454 3.08c-1.637.344-3.147-.968-3.244-2.597-.083-1.4.793-2.35 1.878-3.017 1.199.514 2.534.568 3.17 1.938.713 1.533-.137 3.325-1.804 3.676zM46.871 24.916c-1.451.049-2.92.252-4.364.417-.063-.104-.149-.179-.261-.197-1.337-1.833-3.458-1.455-5.018.12-2.06 2.081-2.972 5.075-5.14 7.152-3.06 2.931-6.506 3.032-10.361 3.163-1.985-1.067-5.222-1.097-6.639.776-.915 1.209-.391 3.413 1.099 3.275 10.815 4.812 26.837-.182 26.399-14.077-.001-.043-.027-.062-.036-.098 1.442-.098 2.915-.168 4.342-.381.084-.014.063-.153-.021-.15zM16.196 38.987c-.992-.597-.558-2.077.505-2.633.552-.288 1.25-.411 1.858-.447 1.186-.07 2.285.244 3.414.558a.308.308 0 0 0 .254-.031c3.001.516 6.108.311 8.757-1.394 1.452-.934 2.662-2.24 3.696-3.606.855-1.129 4.566-8.8 6.906-5.594.02.027.045.041.068.063-1.825 12.832-14.229 17.068-25.458 13.084zM32.946 41.118v-.002"/><path d="M46.871 27.394c-1.349.074-2.66.198-4.015.111-.127-.008-.125.186 0 .196 1.33.106 2.727.15 4.041-.117.107-.021.084-.196-.026-.19zM46.233 19.679c-2.598-.016-5.21.188-7.805.302-.096.004-.097.153 0 .15 2.597-.094 5.216-.1 7.805-.323.082-.007.085-.129 0-.129zM44.119 14.246c-2.907.06-6.214-.058-9.05.574.074-.017.042-.125-.031-.112l-.165.029c-.069.012-.052.123.016.121 3.072-.094 6.165-.194 9.229-.439.111-.009.114-.175.001-.173z"/></g></svg>