<svg xmlns="http://www.w3.org/2000/svg" viewBox="0 0 50.192 50.192"><g fill="#1d1d1b"><path d="M50.096 24.055c-.104-.525-.081-.83-.642-1.051-.56-.221-1.756.049-2.359.077-.914.043-1.827.1-2.74.162a.446.446 0 0 0-.225.08l-.001-.021c-.14-1.643-.317-3.244-1.535-4.473-2.101-2.121-5.93-2.296-8.083-.281.007-.208.019-.416.058-.624.073-.388-.164-.733-.572-.751-.862-.038-1.724.035-2.585.082-.543.029-1.203-.025-1.65.348-.244.204-.384.502-.463.841-3.101-4.452-13.922-1.932-13.984 4.358-1.059-.083-2.13-.044-3.192-.041-.781.003-1.814-.189-2.539.104-.493.199-.622.535-.77 1.024-.235.778-.507 1.994-.42 2.796.026.242.152.461.402.528.815.217 1.745.035 2.609-.05-.356 3.047-3.835 1.919-4.82.124-.607-1.106-.628-2.643-.129-3.783 1.211-2.767 4.386-1.652 6.691-1.494.016.001.025-.011.04-.013a.346.346 0 0 0 .415-.111c.38-.469.758-.935 1.117-1.42.335-.453.878-.96.971-1.523.012-.07-.006-.135-.019-.2a.284.284 0 0 0-.095-.358C9.654 14.347-.508 17.127.02 25.462c.514 8.119 9.735 9.357 15.795 6.667.233-.103.279-.344.217-.559.003-.007.008-.011.011-.018.156-.385.288-.751.402-1.123 2.921 4.222 10.449 5.293 12.704-.068.006-.015-.004-.027 0-.042.173-.054.337-.202.312-.396-.079-.607-.597-.891-1.059-1.238-.526-.394-1.046-.79-1.599-1.146-.289-.186-.572.08-.566.356-.883.589-2.013 1.063-3.062.972-1.387-.12-1.923-1.021-2.391-2.089 2.903.231 5.82.417 8.732.393.017 0 .029-.008.046-.009-.115 1.763-.098 3.511-.087 5.286.002.299.262.59.574.574 1.301-.068 2.855.018 4.047-.543.23-.108.273-.366.202-.587.12-.045.224-.134.224-.287-.003-1.333-.141-2.654-.177-3.985-.031-1.156-.069-3.653 1.11-4.359l2.582.171c.181.402.313.818.398 1.25.196.868.251 1.798.313 2.682.11 1.587.054 3.162.011 4.75-.012.452.397.602.718.479.446.273.983.269 1.514.304.784.052 1.573.09 2.359.077.018 0 .03-.009.047-.01.217.084.533-.018.54-.325l.001-.039c.029-.063.037-.132.048-.199.056.165.125.312.23.409.55.508 1.891.223 2.522.215.777-.01 2.028.201 2.599-.523.655-.83.429-2.655.504-3.64.111-1.476.539-3.369.255-4.807zM26.715 28.52c.315.32.63.639.956.949.243.231.511.525.818.707-.077.084-.153.151-.229.23.066-.086.033-.239-.11-.241-1.344-.02-2.686-.024-4.027-.033 1.003-.196 1.892-.786 2.592-1.612zm16.57 3.074c-.765-.01-1.533.025-2.296.076-.379.025-.761.033-1.113.128.264-2.613.857-10.896-3.333-10.326-1.141.155-1.896.738-2.399 1.546-.881-.022-1.826.113-2.676.211-.164.019-.174.266 0 .264.778-.009 1.644.006 2.453-.09-.454.941-.628 2.118-.639 3.326-.773-.067-1.565-.001-2.338.021-.14.004-.14.214 0 .218.773.022 1.565.088 2.338.021.004.431.027.862.062 1.286-.584-.039-1.167.043-1.739.19-.178.046-.102.317.076.275.564-.134 1.125-.161 1.695-.172.076.783.19 1.525.306 2.17-.65-.149-1.386-.132-2.037-.175-.165-.011-.158.234 0 .253.664.078 1.408.24 2.087.196.035.184.07.365.104.527-1.003-.19-2.173.03-3.232.229-.047-1.834-.099-3.646-.33-5.476-.038-.303-.348-.386-.528-.243a.633.633 0 0 0-.232-.058c-3.081-.161-6.179-.09-9.261.024a.427.427 0 0 0-.469.1.306.306 0 0 0-.081.115c-.017.03-.044.043-.056.08-.007.022-.006.044-.012.066-.83-.047-1.684.015-2.509.024-.14.002-.14.216 0 .218.807.009 1.644.069 2.459.027-.091.603.086 1.194.429 1.717-.666-.114-1.365-.153-2.012-.239-.146-.019-.182.238-.035.259.747.109 1.54.292 2.311.342.53.626 1.268 1.112 1.968 1.315.125.036.247.053.37.077a114.574 114.574 0 0 1-3.562-.089c-.157-.007-.154.23 0 .243 3.012.248 6.078.397 9.097.195a.146.146 0 0 0 .099-.048c-.441.457-.873.859-1.319 1.186-1.869-.046-3.733.009-5.605-.126-.126-.009-.121.18 0 .193 1.669.183 3.404.338 5.101.268-.991.594-2.104.882-3.626.814-2.746-.123-4.929-1.389-6.106-3.873-.235-.496-.875-.18-.925.25-.009.103-.026.205-.038.307-1.167-.267-2.489-.222-3.672-.309-.159-.012-.155.23 0 .246 1.171.122 2.452.398 3.637.343-.04.269-.087.537-.143.803-2.976.062-5.952.249-8.917.504-.104.009-.107.17 0 .165 2.949-.146 5.898-.246 8.848-.361-.03.128-.053.258-.087.386-5.139 2.101-13.778 1.443-14.206-5.752-.203-3.422 1.999-6.312 5.233-7.346 2.778-.888 5.521-.209 8.219.562-.29.311-.497.736-.72 1.078-.056.085-.105.174-.16.259-3.367-.008-6.738.004-10.104.091-.133.003-.134.204 0 .207 3.286.085 6.577.098 9.864.091-.182.295-.368.587-.545.885-2.142-1.082-4.6-.965-6.196.193-1.152-.149-2.335-.063-3.482.087-.189.025-.194.325 0 .302 1.052-.124 2.087-.111 3.138-.106a3.979 3.979 0 0 0-1.2 1.971c-.816-.038-1.62-.12-2.426-.306-.147-.034-.21.191-.063.227.79.196 1.602.331 2.416.357a5.237 5.237 0 0 0-.048 1.634c-.827-.066-1.695.005-2.509.013-.188.002-.188.29 0 .292.829.008 1.714.081 2.554.008.017.099.021.192.042.294a5.47 5.47 0 0 0 .783 1.875c-.697-.149-1.428-.209-2.129-.309-.132-.019-.191.182-.056.203.778.122 1.577.304 2.365.348.646.858 1.555 1.492 2.685 1.637 1.656.213 3.706-1.092 3.095-2.931a.275.275 0 0 0-.1-.526c-.688-.066-1.635-.112-2.376-.293.012-.538.138-1.162.259-1.618.264-.989.696-.855 1.664-.847 1.367.011 2.756.091 4.119-.031a.467.467 0 0 0 .438-.587c.008-.024.029-.035.032-.064.348-3.146 3.329-5.01 6.194-5.57 3.329-.651 5.776.807 7.142 3.801.095.208.31.248.495.184.213-.008.442-.164.463-.41.038-.443.073-.886.108-1.329.042-.531-.053-1.145.542-1.26.818-.159 1.702-.087 2.554-.131.05.483.096.958.309 1.408.107.226.436.203.572.019a.483.483 0 0 0 .258-.108c1.51-1.237 3.537-1.622 5.368-.95a4.103 4.103 0 0 1 1.517.946c-1.414-.27-3.009-.144-4.438-.172-.16-.003-.156.235 0 .246 1.463.101 3.09.391 4.546.216.045-.005.077-.034.1-.067.183.216.347.442.478.689-3.607-.147-7.316.183-10.89.616-.127.015-.134.211 0 .204 3.669-.202 7.37-.255 11.031-.541.284.646.432 1.377.53 2.157-.876-.104-1.767-.121-2.647-.167-.123-.007-.12.179 0 .19.886.081 1.782.198 2.673.217.021.183.042.365.059.552.041.433.08.883.12 1.33-.775-.072-1.553-.117-2.33-.165-.12-.007-.119.177 0 .186.782.06 1.563.124 2.346.16.055.63.103 1.271.144 1.914-.649-.005-1.291-.037-1.939-.16-.147-.028-.212.195-.063.227.666.142 1.341.228 2.016.195.036.599.058 1.199.071 1.796-.624-.061-1.269-.106-1.881-.042-.128.013-.183.217-.033.245.62.117 1.281.127 1.922.117.011.655.002 1.304-.036 1.94zm3.053-4.62c.807.079 1.708.249 2.533.206-.034.332-.075.663-.105.995a9.268 9.268 0 0 0-.029.562c-.797.017-1.622.158-2.403.246-.142.016-.15.236 0 .229.779-.039 1.608-.036 2.394-.144-.012.464-.028.955-.11 1.4-.996.041-1.973.146-2.98.088-.171-.01-.167.249 0 .264.936.084 1.946.141 2.894.002a1.87 1.87 0 0 1-.269.577c-.441.592-.496.483-1.214.501-.367.009-.893.118-1.248.031-1.081-.266-.757-1.588-.79-2.562-.058-1.745-.114-3.507-.344-5.241.924-.059 1.848-.12 2.77-.2.454-.039.98-.195 1.408.015.574.281.345.672.242 1.271-.789-.096-1.627-.073-2.399-.108-.185-.009-.18.269 0 .285.756.068 1.568.203 2.349.217-.047.419-.089.838-.133 1.258-.821-.161-1.748-.121-2.567-.157-.174-.01-.167.248.001.265z"/><path d="M22.881 20.295c-.81-.032-1.889.28-2.689.854a6.694 6.694 0 0 0-2.218.184c-.109.027-.062.186.046.166a9.375 9.375 0 0 1 1.897-.132c-.427.376-.74.837-.805 1.383-.715-.045-1.444-.007-2.16-.001-.111.001-.111.171 0 .172.707.006 1.426.042 2.133 0 0 .024-.011.045-.011.069a.52.52 0 0 0 .469.505c.046.12.156.234.281.292l-.021.021c.948.233 1.936.215 2.907.268.979.054 2.004.211 2.967.002.278-.06.409-.286.417-.521.218-.03.413-.177.402-.438-.065-1.656-2.136-2.765-3.615-2.824zm-.171 2.519c-.839.031-1.692.041-2.517.21-.012-.017-.02-.033-.037-.047.443-1.106 2.03-1.638 3.103-1.431.889.172 1.333.711 1.827 1.277-.779-.106-1.601-.037-2.376-.009zM49.18 19.48l-.024-.002c-.205-1.04-1.096-1.794-2.174-1.851a.406.406 0 0 0-.204-.151c-1.282-.455-2.612.935-2.779 2.122-.202 1.441.96 2.823 2.399 2.94 1.396.114 2.7-1.04 2.804-2.427.009-.117-.002-.228-.009-.34.122-.062.151-.268-.013-.291zm-1.258 1.114c-.77-.09-1.573.007-2.325.146-.14.026-.078.23.058.21.698-.1 1.379-.082 2.071-.082-.306.348-.749.579-1.21.549-.771-.049-1.46-.819-1.436-1.59.032-1.021.923-1.311 1.7-1.63.033-.014.049-.041.077-.06.52.229.976.705 1.167 1.249-.737-.032-1.481-.026-2.21-.047-.178-.005-.175.263 0 .274.758.05 1.531.137 2.299.173.001.018.011.035.012.052.01.266-.071.524-.203.756zM14.182 18.904c-2.267-.557-4.727-.486-7.029-.234-.13.014-.135.218 0 .207 2.379-.18 4.629.085 6.988.334.176.019.21-.265.041-.307zM33.133 24.883c-5.208-.845-10.923-.18-16.181-.066-.151.003-.152.235 0 .236 5.319.007 10.859-.508 16.145.096.151.017.187-.242.036-.266z"/></g></svg>