<svg xmlns="http://www.w3.org/2000/svg" viewBox="0 0 49.139 49.139"><g fill="#b7b7b7"><path d="M34.571 22.15c-1.351-5.109-6.748-8.297-11.751-6.873a.61.61 0 0 0-.675-.119c-5.094 2.209-8.442 7.702-6.404 13.177 1.855 4.984 7.163 7.758 12.268 6.046 5.059-1.697 7.926-7.071 6.562-12.231zm-1.162 4.65c-1.72.362-3.417.757-5.163 1.001-.138.019-.107.262.033.245 1.681-.199 3.39-.449 5.029-.895a8.473 8.473 0 0 1-.746 1.768c-3.705.366-7.383.809-11.107.988-.139.007-.141.223 0 .218 3.638-.127 7.32-.323 10.923-.882-1.225 1.951-3.241 3.423-5.695 3.989-4.44 1.025-8.717-1.877-9.898-6.189-1.321-4.82 1.869-8.784 5.945-10.882.047-.024.074-.057.109-.086 2.67-.212 5.333.362 7.359 1.833-2.273-.004-4.548.046-6.82.09-.133.003-.134.205 0 .207 2.429.046 4.862.106 7.291.093.453.383.882.798 1.25 1.284-.164-.031-.37.017-.623.155l-.83.054c-.969.06-1.938.111-2.907.152-1.8.077-3.602.118-5.404.145-.16.002-.161.248 0 .25 3.369.036 6.736-.063 10.098-.277.379.584.701 1.228.941 1.949-1.928.081-3.859.322-5.792.362-.14.003-.141.218 0 .218 1.932.007 3.97.04 5.905-.236.013.045.031.086.043.132.151.551.227 1.095.269 1.634-4.01.292-7.945 1.229-11.989 1.218-.14 0-.14.215 0 .218 3.891.075 8.148-.313 12.016-1.078a8.394 8.394 0 0 1-.237 2.322z"/><path d="M39.558 23.654a15.354 15.354 0 0 0-15.68-14.268.608.608 0 0 0-.275-.039c-.26.02-.514.062-.771.093-.083.007-.164.004-.248.013-.02.002-.027.018-.044.023C14.546 10.575 8.279 17.09 8.65 25.49c.387 8.79 8.164 15.695 16.963 14.86 8.369-.795 14.576-8.379 13.945-16.696zM26.206 38.82c-7.691 1.115-15.008-4.252-16.068-11.965-1.173-8.529 5.156-15.415 13.465-16.253a.637.637 0 0 0 .538-.404c6.535.661 12.26 4.578 13.886 11.332 1.925 8.001-3.766 16.123-11.821 17.29z"/><path d="M48.566 24.151C48.034 10.897 37.149-.032 23.784 0 10.338.032.18 11.302.564 24.512c.207 7.144 2.119 13.091 7.734 17.7 4.642 3.811 10.397 7.361 16.568 6.872a.635.635 0 0 0 .236.051c13.64.279 24.001-11.62 23.464-24.984zm-1.505 3.095c-1.246.122-2.44.188-3.703-.009-.216-.034-.311.294-.092.332 1.228.216 2.519.29 3.758.079-.08.735-.183 1.462-.33 2.173-1.415.016-2.843.148-4.25.23-.19.011-.194.303 0 .299 1.374-.026 2.771-.007 4.15-.092a22.71 22.71 0 0 1-.51 1.884l-.005-.001c-2.275.328-4.469.832-6.781.945-.225.011-.227.359 0 .352 2.179-.07 4.562-.221 6.66-.89a22.285 22.285 0 0 1-1.199 2.853c-3.455.579-6.891 1.177-10.366 1.643-.111.015-.117.19 0 .179 3.386-.3 6.812-.733 10.148-1.411A22.503 22.503 0 0 1 42.491 39c-5.573.464-11.158 1.337-16.685 2.168-.145.022-.113.277.035.259 5.424-.658 10.888-1.185 16.295-1.975a22.65 22.65 0 0 1-2.585 2.699c-.029-.011-.048-.034-.086-.031-6.532.494-13.061 1.032-19.587 1.603-.091.008-.094.15 0 .144 6.371-.376 12.74-.786 19.107-1.236a23.016 23.016 0 0 1-3.742 2.532c-.023-.054-.064-.098-.145-.095-5.371.216-10.717.455-16.095.411-.175-.001-.174.265 0 .271 5.219.159 10.478.147 15.685-.301a23.845 23.845 0 0 1-9.588 2.516.57.57 0 0 0-.394.175c-4.985-.863-9.417-2.533-13.617-5.56-6.043-4.355-8.701-9.814-9.104-17.217C1.292 12.628 10.7 1.467 23.784 1.422a22.247 22.247 0 0 1 8.736 1.762c-4.621.024-9.269.411-13.865.805-.142.012-.146.234 0 .225 4.947-.289 9.904-.327 14.849-.585a23.942 23.942 0 0 1 8.444 6.77c-2.047.009-4.11.152-6.15.243-.182.008-.184.287 0 .285 2.145-.027 4.318.004 6.463-.124a24.418 24.418 0 0 1 1.973 3.038c-2.417-.075-4.888.227-7.261.588-.202.031-.156.386.048.359 2.496-.325 4.97-.352 7.47-.466.338.656.657 1.322.934 2.01-2.563.236-5.165.119-7.69.673-.116.025-.093.223.028.211 2.586-.259 5.263-.034 7.823-.453a23.48 23.48 0 0 1 1.371 5.346c-1.399.132-2.737.277-4.16.141-.238-.023-.231.341 0 .369 1.37.166 2.856.224 4.226-.069.006.051.018.101.023.152.062.604.092 1.2.105 1.792-2.362-.232-4.889.116-7.2.444-.171.024-.132.323.041.304 2.395-.262 4.784-.151 7.171-.276.002.769-.034 1.529-.102 2.28z"/><path d="M46.291 19.489c-1.835-.199-3.766.018-5.596.205-.213.022-.219.354 0 .337 1.865-.141 3.735-.049 5.596-.17.243-.015.236-.346 0-.372zM39.119 7.745c-4.311.022-8.634.325-12.941.514-.128.006-.13.203 0 .2 4.308-.095 8.64-.077 12.941-.338.24-.015.244-.377 0-.376zM36.321 5.336c-6.354.182-12.732.721-19.069 1.21-.143.011-.146.231 0 .225 6.348-.279 12.742-.513 19.069-1.098.212-.019.221-.343 0-.337zM30.216 30.901c-3.214.203-6.422.516-9.636.729-.148.01-.15.239 0 .232 3.209-.137 6.446-.294 9.636-.676.177-.022.186-.297 0-.285z"/></g></svg>