<svg xmlns="http://www.w3.org/2000/svg" viewBox="0 0 50.132 50.132"><g fill="#1d1d1b"><path d="M49.332 23.291c-.05-.475-.775-.498-.759 0 .024.761.006 1.528-.04 2.296-3.881.115-7.755.401-11.642.46-.152.002-.152.232 0 .235 3.844.093 7.776.118 11.614-.284a29.587 29.587 0 0 1-.261 2.285c-5.736-.243-11.565-.062-17.299.165-.099.004-.1.152 0 .155 5.724.147 11.543.246 17.264-.074a28.908 28.908 0 0 1-.47 2.336c-3.044.204-6.04.39-9.097.326-.16-.003-.156.234 0 .246 2.97.231 6.03.236 8.989-.17a29.48 29.48 0 0 1-.572 1.918c-.011-.001-.017-.012-.03-.011-3.263.323-6.514.672-9.787.881-.136.009-.139.217 0 .215 3.223-.05 6.462-.222 9.658-.656-.319.89-.672 1.769-1.077 2.621-1.683-.005-3.45.39-5.115.617-.152.021-.117.284.036.269 1.597-.147 3.318-.175 4.899-.512a26.568 26.568 0 0 1-1.348 2.436c-.02-.009-.035-.025-.059-.025-2.848.032-5.725.424-8.562.678-.18.016-.185.296 0 .285 2.783-.167 5.62-.22 8.386-.586a23.992 23.992 0 0 1-2.068 2.718c-4.848.194-9.712.65-14.539 1.126-.115.011-.119.188 0 .183 4.735-.221 9.503-.471 14.222-.957a21.515 21.515 0 0 1-2.543 2.361c-5.579-.096-11.184.228-16.758.452-.104.004-.105.163 0 .162 5.494-.069 11.024-.048 16.509-.42a19.502 19.502 0 0 1-3.587 2.177c-5.574-.306-11.84.883-17.261-.541-.112-.029-.158.138-.048.173 5.019 1.577 11.511.941 16.771.601-.253.107-.495.23-.754.327-5.936 2.225-14.643.684-20.295-1.783-5.725-2.499-9.861-7.032-11.079-13.249C.509 21.9 4.317 9.477 14.398 3.986 20.151.852 25.985.608 31.292 2.355c-1.752-.18-3.553-.044-5.271.232-.151.024-.085.248.063.227 2.292-.319 4.438-.151 6.72.096a25.34 25.34 0 0 1 3.751 1.914 323.29 323.29 0 0 1-8.057-.206c-.114-.005-.111.166 0 .176 2.895.247 5.802.406 8.709.44a29.014 29.014 0 0 1 3.022 2.282c-3.846-.119-7.712-.049-11.559-.007-.143.001-.143.218 0 .221 3.899.097 7.817.226 11.717.155.08-.001.123-.048.148-.102a32.95 32.95 0 0 1 4.434 4.823c-1.255.458-2.485.996-3.711 1.529-1.749.046-3.488.16-5.242.121-.136-.003-.135.203 0 .211 1.403.079 2.838.149 4.257.098-.553.242-1.105.484-1.656.73-.898.401-2.183 1.279-3.17 1.375-7.406-13.578-24.578-5.118-22.736 9.098.857 6.614 5.414 13.359 12.438 14.276 5.398.704 10.259-2.703 10.941-8.034.499-.16.62-.903.022-1.073-2.813-.801-6.485-.365-9.314.234a.47.47 0 0 0-.241.148c-.165-1.789-.778-5.035-.069-6.324 1.135-2.066 5.17-1.369 7.119-1.4 4.799-.076 9.559.192 14.349.396.799.034.751-1.118 0-1.213-7.278-.916-14.65-.715-21.942-.092-.353.03-.569.255-.605.605-.313 2.963-.27 5.73.402 8.634.076.33.495.359.689.159.044.045.09.09.15.102 1.031.426 2.981-.143 4.105-.186 1.493-.056 3.012.124 4.502.074-1.712 5.98-8.31 8.3-13.808 5.336-4.35-2.345-6.74-7.192-7.311-11.926-.64-5.314 1.273-11.121 6.386-13.577 5.797-2.785 11.128.654 13.78 5.797.278.539.894.443 1.206.084 1.234.35 3.006-.827 4.056-1.253 2.104-.853 4.252-1.672 6.282-2.688.394-.197.429-.641.261-.977a.459.459 0 0 0-.046-.243C40.559 1.437 26.178-3.087 14.985 2.208 3.6 7.593-1.219 21.156 1.317 33.09 4.09 46.141 19.294 51.544 31.381 49.821c11.075-1.579 18.015-13.471 18.07-24a.183.183 0 0 0 .002-.18 22.794 22.794 0 0 0-.121-2.35z"/><path d="M44.24 12.004c-3.034.098-6.062.187-9.098.158-.129-.001-.129.195 0 .2 3.03.116 6.069.158 9.098.015.238-.012.241-.381 0-.373zM41.612 9.831c-3.122-.098-6.327.035-9.445.234-.114.007-.116.176 0 .179 3.122.082 6.329.093 9.445-.122.186-.012.19-.285 0-.291z"/></g></svg>