<svg xmlns="http://www.w3.org/2000/svg" viewBox="0 0 50.699 50.699"><g fill="#1d1d1b"><path d="M32.244 33.351c-1.075-2.06-3.319-3.604-5.332-5.224.028-.069-.009-.171-.099-.166l-.095.006c-1.47-1.197-2.792-2.445-3.401-3.982.16-2.493 3.82-3.939 5.371-5.816 1.053-1.275 1.876-2.77 2.168-4.413.598-3.365-1.104-6.807-3.557-9.07 1.368.141 2.781.018 3.966-.736.745-.474 1.735-1.498 1.701-2.48.251-.287.119-.864-.384-.894C24.216.065 10.206-2.156 6.051 7.649 3.098 14.617 8.14 25.247 16.385 23.966c-.924 1.343-.527 3.147.565 4.346-6.576-.125-13.607 2.895-15.136 9.918-1.48 6.803 3.819 11.58 10.188 12.306 7.255.828 17.064-1.42 20.3-8.705 1.211-2.723 1.344-5.793-.058-8.48zm-.698 5.578c-1.076-.009-2.189.172-3.254.263-.128.011-.131.21 0 .203 1.048-.062 2.154-.048 3.202-.2a9.213 9.213 0 0 1-.564 1.721c-1.239.075-2.437.212-3.692.146-.103-.005-.099.148 0 .158 1.146.123 2.415.172 3.575-.043a10.861 10.861 0 0 1-.859 1.495c-.268.038-.537.08-.808.095-.497.029-.99.011-1.486-.028-.116-.009-.11.163 0 .177.636.081 1.388.14 2.086.061-.361.493-.764.966-1.205 1.416-1.26-.041-2.603.162-3.835.257-.114.009-.117.183 0 .179 1.128-.039 2.363.005 3.522-.124a15.228 15.228 0 0 1-2.046 1.649c-1.547.078-3.099.3-4.633.474-.094.011-.097.157 0 .15 1.381-.099 2.783-.163 4.165-.322-.696.433-1.429.82-2.192 1.148-3.022-.167-6.177.009-9.148.546-.041.007-.032.075.01.072 2.877-.193 5.725-.325 8.6-.398-.625.244-1.265.454-1.916.619-6.512 1.648-17.481 1.425-18.288-7.47-.795-8.764 8.427-11.834 15.509-11.895.214.094.436.175.669.226a.49.49 0 0 0 .6-.359c.161-.219.045-.624-.315-.672-.071-.01-.144-.013-.216-.021-2.066-.786-2.427-2.74-1.76-4.665l.026-.006c.219-.056.218-.292.089-.414-.019-.123-.178-.225-.287-.143-.02.015-.034.032-.053.047-5.112-.552-9.317-3.065-10.511-8.418C5.35 9.567 8.121 4.579 13.095 2.638 18.799.413 25.483 1.477 31.553 1.615l-.021.041c-.121.208-.28.397-.455.573-.016-.006-.025-.019-.046-.02-2.799-.055-5.635.17-8.431.323-.126.007-.128.2 0 .198 2.712-.035 5.466-.01 8.171-.228-.17.135-.347.26-.53.361-1.115.613-2.445.628-3.681.741a.529.529 0 0 0-.435.351c-1.386.045-2.775.175-4.157.274-.101.007-.103.163 0 .158 1.369-.06 2.747-.09 4.114-.2a.386.386 0 0 0 .283.356c1.131 1.859 2.63 3.569 3.221 5.709-1.41-.057-2.838.019-4.247.049-.102.002-.102.156 0 .158 1.431.031 2.881.109 4.312.047.113.482.167.947.186 1.401-1.91-.035-3.858.163-5.762.29-.113.008-.115.18 0 .177 1.909-.039 3.869-.011 5.77-.212a6.878 6.878 0 0 1-.368 2.286c-1.248-.086-2.52.03-3.749.225-.142.023-.08.233.059.214 1.205-.166 2.385-.173 3.588-.158-.2.51-.449 1-.747 1.468-1.515.037-3.041.153-4.55.264-.111.008-.114.177 0 .175 1.448-.03 2.911-.059 4.36-.152-.663.963-1.505 1.837-2.425 2.632-1.068.038-2.153.176-3.201.264-.108.009-.111.174 0 .171.913-.031 1.857-.033 2.787-.088-.067.055-.133.112-.201.166-.881.707-1.748 1.284-2.271 2.015-1.088.027-2.193.162-3.267.257-.125.011-.129.204 0 .198 1.007-.041 2.048-.049 3.066-.142a2.412 2.412 0 0 0-.29 1.036c-.115.045-.212.13-.206.278.007.173.033.339.059.504-1.017.04-2.031.116-3.055.089-.102-.003-.101.154 0 .158 1.016.047 2.071.084 3.096-.013.129.592.373 1.137.698 1.646-1.627.328-3.182.475-4.855.294-.103-.011-.128.165-.025.182 1.651.275 3.408.231 5.026-.243.553.788 1.295 1.491 2.086 2.158-1.514.099-3.019.193-4.547.173-.093-.001-.091.138 0 .144 1.602.097 3.254.115 4.865-.051.717.589 1.456 1.154 2.119 1.731-2.328-.001-4.659.008-6.985.072-.103.003-.103.157 0 .16 2.44.068 4.886.075 7.327.073.165.152.325.305.475.46.362.374.673.751.962 1.13a19.608 19.608 0 0 0-4.154.437c-.088.019-.067.156.021.155a47.565 47.565 0 0 0 4.378-.261c.465.656.839 1.317 1.111 1.978-1.518-.013-3.171.144-4.594.538-.081.022-.046.136.034.123l.147-.024c.059-.01.044-.105-.014-.104.195.147.41.172.646.074l.399-.045c.466-.05.933-.095 1.401-.131.699-.055 1.401-.075 2.101-.12.245.666.404 1.331.476 1.989-1.429.023-2.868.179-4.292.29-.18.015-.185.294 0 .285.305-.016.613-.03.92-.044.079.024.157.052.236.09.062.027.117-.06.054-.093-.01-.005-.018-.005-.028-.01 1.051-.048 2.104-.098 3.144-.219l.003-.001a8.181 8.181 0 0 1-.119 2.084z"/><path d="M12.878 4.819c-.18-.268-.588-.367-.775.004-1.947 3.865-.709 9.494 1.699 12.956 2.066 2.969 6.141 4.163 8.657 1.065 4.428-5.452-3.041-19.09-9.581-14.025zm8.564 13.556c-3.681 3.457-7.002-.92-8.171-4.177-1.001-2.791-1.593-5.735-.471-8.561.017-.007.035-.009.052-.021 6.216-4.062 13.084 8.54 8.59 12.759zM27.19 38.709c-.736-10.257-20.248-8.565-19.168.551l-.002.004c-1.059 9.268 19.965 10.517 19.17-.555zm-1.168 1.823c-1.715 7.03-15.837 6.683-17.422-.25a.244.244 0 0 0 .067-.208c-1.409-9.621 19.917-10.037 17.355.458zM48.55 18.893c-1.712-.142-3.44-.075-5.104.35.136-1.566.186-3.044.648-4.59.118-.395-.2-.719-.571-.75-1.403-.117-2.862-.145-4.26.04-.14.019-.233.119-.288.233-.176.016-.337.114-.364.314-.118.876-.097 1.755-.059 2.637.019.451.04.906.08 1.356.018.206.111.567.128.827-1.759-.099-3.602.057-5.362.066-.358.002-.532.402-.424.677-.179.57-.138 1.213-.108 1.802.035.674.06 1.429.347 2.052a.282.282 0 0 0 .193.478c1.732.154 3.822.424 5.598.185-.168 2.109-.019 4.238.1 6.345a.52.52 0 0 0 .508.508c1.048.055 3.994.503 4.557-.795.32-.739.147-1.823.166-2.606.029-1.178.02-2.358.021-3.536 1.391.203 3.118-.285 4.316-.693.156-.053.23-.164.245-.281a.492.492 0 0 0 .205-.411c.009-1.208.013-2.416.014-3.624-.001-.335-.271-.558-.586-.584zm-2.721 4.51c-.725.034-1.507-.089-2.197.138-.229.075-.357.388-.241.592a.51.51 0 0 0-.112.303c-.005.138-.007.277-.011.415-.011-.001-.018-.008-.031-.005-.768.174-1.509.271-2.296.2-.107-.01-.103.151 0 .164.777.1 1.573.072 2.322-.17l-.044 1.7c-.557.029-1.122.148-1.669.23-.109.016-.085.208.026.195.539-.066 1.101-.113 1.637-.23-.017.637-.044 1.274-.05 1.912-.599-.023-1.204.007-1.803.018-.087.002-.087.133 0 .135.598.011 1.201.04 1.799.018v.03c-.006 1.028.088 1.183-1.031 1.294-.673.067-1.346.078-2.021.07-.035-2.021-.07-4.055-.393-6.053.159-.21.094-.589-.203-.648-1.763-.356-3.927-.098-5.757.074.187-.661.14-1.413.152-2.088.008-.433.031-.871-.019-1.295 1.719.261 3.687.339 5.316-.125.297-.085.385-.346.322-.575a.56.56 0 0 0 .113-.176c.266-.699.111-1.662.086-2.396-.027-.814-.072-1.634-.223-2.436 1.074.223 2.188.333 3.288.374-.045.214-.078.436-.117.655-.596-.045-1.201.055-1.768.234-.134.042-.078.252.058.212.561-.165 1.102-.2 1.665-.195-.078.486-.144.976-.18 1.468a41.485 41.485 0 0 0-1.932.018c-.118.003-.118.181 0 .183.637.016 1.278.032 1.916.018a10.62 10.62 0 0 0-.007 1.261c-.775-.033-1.557 0-2.331.014-.118.002-.118.181 0 .183.78.014 1.569.047 2.35.013.018.201.023.406.056.602.04.235.204.329.381.329.007 0 .009.006.015.006 1.698-.023 3.383-.094 5.077-.024l.021.933c-2.563.11-5.133.329-7.687.566-.088.008-.091.142 0 .139 2.561-.087 5.138-.195 7.693-.41l.021.945c-2.632.002-5.317.303-7.929.523-.093.008-.096.151 0 .148 2.62-.082 5.319-.095 7.935-.394.005.204.008.407.014.611.001.026.012.045.016.069-.736.105-1.48.193-2.227.228z"/><path d="M28.715 8.527c-2.016-.237-4.088-.261-6.117-.342-.1-.004-.098.146 0 .154 2.024.167 4.086.396 6.117.405.144.001.136-.201 0-.217zM27.236 6.265c-1.175-.116-2.404-.002-3.584.016-.119.002-.12.184 0 .186 1.18.018 2.41.132 3.584.016a.11.11 0 0 0 0-.218z"/></g></svg>