<svg xmlns="http://www.w3.org/2000/svg" viewBox="0 0 49.499 49.499"><g fill="#b7b7b7"><path d="M49.227 26.231l-.324.021c.019-.216.042-.432.056-.649C49.864 11.628 38.297-.021 24.469 0 10.525.021-.014 11.987.224 25.579.438 37.748 10.96 49.441 23.503 49.031a.53.53 0 0 0 .476.385c13.736 1.16 23.713-9.982 24.914-23.035.116-.018.234-.026.349-.046.057-.011.044-.108-.015-.104zm-1.863-5.92c-.011-.017-.013-.039-.04-.041-1.048-.072-2.112-.024-3.163-.023-.038 0-.06.02-.074.046-.204-.83-.48-1.644-.8-2.43.01.003.015.011.028.009 1.126-.098 2.277-.147 3.405-.287.264.891.493 1.795.644 2.726zM6.892 27.385C2.589 16.543 14.665 5.795 24.594 5.428c5.383-.199 9.563 1.831 12.959 5.908 3.417 4.102 9.846 13.555 2.892 18.034a.595.595 0 0 0-.223.266c-5.42-1.736-7.977-9.807-12.455-13.383-3.477-2.777-7.474-4.578-11.904-5.056a.346.346 0 0 0-.358.188c-.191-.065-.424.067-.378.337.839 4.895-.198 18.804-8.235 15.663zm33.352 14.8a59.538 59.538 0 0 0-9.611-.078c-3.242.242-6.411.919-9.669.551-.084-.01-.082.121 0 .131 3.263.4 6.419-.263 9.669-.485 3.147-.215 6.28-.132 9.423.067-2.281 2.226-4.992 3.965-8.053 4.987a.098.098 0 0 0-.067-.028 490.45 490.45 0 0 0-8.227.231c-.051.002-.052.08 0 .08 2.549-.002 5.1-.034 7.649-.077a20.467 20.467 0 0 1-5.742.843.332.332 0 0 0-.3-.228C12.831 47.11 1.194 39.249.801 25.579.419 12.309 11.3 1.234 24.469 1.131a22.759 22.759 0 0 1 6.967 1.039 23.615 23.615 0 0 0-2.453-.047c-.103.004-.104.16 0 .16 1.094.006 2.181.068 3.268.16 1.209.428 2.377.944 3.486 1.559a61.303 61.303 0 0 0-2.749.044c-.077.003-.078.117 0 .12 1.022.041 2.054.052 3.082.038a23.37 23.37 0 0 1 2.775 1.862 9.266 9.266 0 0 0-3.163.404c-.089.027-.052.163.039.14 1.149-.286 2.257-.355 3.411-.311a23.295 23.295 0 0 1 2.365 2.207c-.938.046-1.876.122-2.813.19-.12.009-.121.196 0 .188.989-.064 1.98-.119 2.967-.211a23.225 23.225 0 0 1 2.089 2.638c-1.205.135-2.407.33-3.605.502-.078.011-.06.149.019.139 1.229-.153 2.468-.282 3.693-.477.48.724.93 1.469 1.326 2.247-1.172-.08-2.366-.014-3.54-.007-.115.001-.116.179 0 .179 1.189.007 2.398.075 3.584-.009.019-.001.016-.02.028-.029a22.501 22.501 0 0 1 1.404 3.494c-1.112.074-2.23.239-3.332.35-.039.004-.059.03-.071.059-.2-.483-.412-.958-.645-1.411-3.03-5.897-7.91-11.314-14.789-12.046-6.754-.718-13.877 2.222-18.177 7.491-3.131 3.837-6.102 10.292-3.847 15.145-.19.027-.338.256-.158.413.214.188.434.347.658.494.077.12.139.245.223.363.153.214.395.186.523.045 2.509 1.126 5.374.008 7.121-2.35 2.548-3.44 3.148-9.726 1.73-13.818 2.74.765 5.313 1.758 7.667 3.066-1.142-.004-2.288.035-3.426.039-.115 0-.116.179 0 .179 1.281.004 2.573.057 3.858.038a26.07 26.07 0 0 1 3.56 2.457c-1.769.031-3.546.19-5.31.286-.08.004-.08.128 0 .125 1.833-.075 3.684-.081 5.513-.235a23.838 23.838 0 0 1 2.422 2.332c-1.944.038-3.888.14-5.829.216-.092.004-.093.146 0 .143 2-.049 4.004-.07 6.002-.163a24.326 24.326 0 0 1 1.909 2.491c.122.183.232.366.35.549-1.768-.055-3.548.072-5.305.254-.103.011-.104.172 0 .162 1.811-.169 3.612-.195 5.428-.224.589.923 1.153 1.847 1.741 2.713-1.828.041-3.651.109-5.484.057-.095-.003-.095.144 0 .148 1.869.074 3.768.128 5.644.022 1.099 1.577 2.338 2.94 4.18 3.686-4.953-.249-9.91-.263-14.886-.066-.087.003-.087.138 0 .135 5.333-.184 10.65-.069 15.961.271.165.041.327.085.501.117a.569.569 0 0 0 .391-.067c1.939.134 3.877.3 5.814.497-1.213 4.162-3.401 7.935-6.342 10.872zm6.43-11.156a149.575 149.575 0 0 0-5.654-.474c.018-.037.04-.072.051-.111h.001a7.714 7.714 0 0 0 1.696-1.548l.16-.001c.299-.02.599-.028.899-.05a69.81 69.81 0 0 1 3.386-.186c-.148.8-.322 1.593-.539 2.37zm.977-6.155c-.02.491-.065.977-.114 1.462-1.121.065-2.236.105-3.373.04-.08-.005-.08.119 0 .124 1.106.071 2.239.096 3.358.027a28.11 28.11 0 0 1-.275 1.952c-1.212-.019-2.405.109-3.615.207-.169.014-.441-.002-.708.007 1.746-2.307 1.885-5.36 1.192-8.279.014.009.026.02.047.02 1.05.001 2.115.048 3.163-.023.032-.002.038-.028.048-.05.148.923.247 1.863.278 2.82-.893-.071-1.803.013-2.68.165-.104.018-.059.172.043.157.89-.138 1.758-.14 2.645-.124.01.495.011.993-.009 1.495z"/><path d="M35.517 45.11c-5.9-.049-11.809.075-17.708.194-.068.001-.068.106 0 .106 5.9-.003 11.811-.002 17.708-.173.082-.002.082-.126 0-.127zM42.265 39.419c-6.584-.563-13.214-.654-19.819-.579-.077.001-.078.12 0 .12 6.622-.013 13.209.309 19.819.657.129.007.126-.187 0-.198zM43.976 36.908c-7.937-1.129-16.047-1.49-24.057-1.232-.041.001-.041.063 0 .063 8.066.051 16.008.557 24.031 1.359.108.011.135-.174.026-.19zM45.223 33.638c-6.593-.587-13.217-.641-19.828-.368-.073.003-.074.116 0 .114 6.63-.195 13.214.037 19.828.492.154.011.151-.225 0-.238z"/></g></svg>