<svg xmlns="http://www.w3.org/2000/svg" viewBox="0 0 48.351 48.351"><g fill="#1d1d1b"><path d="M41.624 9.616c.169-.227.204-.545-.067-.822-1.489-1.524-3.158-2.896-4.743-4.32-1.422-1.278-2.823-2.786-4.509-3.71-.149-.081-.314-.01-.401.11a.604.604 0 0 0-.456-.209C27.224.552 22.997.555 18.771.518 15.755.493 10.983-.61 8.204.481c-.248.097-.374.301-.323.57l.016.086a.355.355 0 0 0-.537.276c-.644 6.229-.657 12.533-.66 18.791-.001 2.968.035 5.935.102 8.902.047 2.086-.678 6.597.339 8.501.168.315.345.539.53.725.894 1.667 2.579 3.041 3.854 4.412 1.511 1.625 3 3.273 4.529 4.882a.629.629 0 0 0 .807.123c7.56 1.145 15.985.348 23.586.106.408-.013.623-.298.664-.607a.393.393 0 0 0 .177-.351c-.009-6.223-.448-12.431-.385-18.659.061-6.199.858-12.44.721-18.622zM8.125 30.095c-.291-9.523.112-19.036-.078-28.554.106.074.266.077.358-.02.421-.444 5.429.331 5.921.351 1.599.065 3.204.049 4.804.054-.387 1.801-.301 3.727-.335 5.56-.037 1.958-.136 3.916.194 5.852.067.39.677.364.763 0 .45-1.916.46-3.893.542-5.852.076-1.832.27-3.736-.007-5.555 3.72.026 7.441.069 11.161.021a.656.656 0 0 0 .295-.074c-.995 5.276-.633 10.5-.349 15.848.344 6.475.198 12.973-.188 19.444a.705.705 0 0 0-.269-.049c-3.446.071-6.891.163-10.337.245.12-4.104.107-8.371-.517-12.421-.081-.526-.888-.376-.901.122-.108 4.096.097 8.226.102 12.33-.774.018-1.547.039-2.321.055-1.849.037-7.132.965-8.57-.436-.757-.738-.232-5.753-.268-6.921zm9.111 16.828a.708.708 0 0 0-.169-.312c-.437-.467-.885-.924-1.33-1.384 2.527.396 5.065.75 7.602 1.082-2.073.106-4.118.294-6.103.614zm7.415-.666c-.016-.08-.065-.157-.165-.17a312.58 312.58 0 0 0-8.734-1.033c-.06-.006-.088.054-.08.106a390.823 390.823 0 0 0-3.25-3.313c-.9-.908-1.809-2.007-2.819-2.911.404-.007.853-.034 1.371-.043 3.003-.048 6.005-.102 9.008-.152.341.481.703.946 1.054 1.419-1.431-.391-2.956-.541-4.411-.575-.191-.005-.189.286 0 .295 1.688.08 3.243.442 4.842.86.305.406.599.82.908 1.223-1.134-.175-2.294-.251-3.427-.38-.672-.076-2.066-.575-2.622-.133-.024.02-.033.063-.024.091l.037.116c.016.051.06.069.11.062l.095-.013c.096-.013.074-.176-.023-.169 1.114-.077 2.532.376 3.656.532.844.117 1.691.267 2.542.338.419.543.836 1.088 1.259 1.627-2.91-.267-5.813-.535-8.714-.957-.156-.023-.226.213-.066.241 3.027.519 6.096.973 9.168 1.209.444.563.883 1.131 1.33 1.692-.35.009-.696.026-1.045.038zm2.789-.056c-.028-.062-.05-.125-.099-.184-.379-.458-.764-.912-1.144-1.37.074.003.148.012.222.014.261.011.252-.377 0-.401l-.59-.055c-1.547-1.856-3.105-3.701-4.733-5.486 3.281-.055 6.561-.105 9.841-.166a.72.72 0 0 0 .308-.072c.191.374.68.479 1.071.328.729.701 1.47 1.388 2.205 2.083-2.3-.43-4.749-.607-7.052-.568-.136.002-.13.193 0 .208 2.515.271 5.035.594 7.551.848.354.342.715.677 1.056 1.034a.106.106 0 0 1 .01.012c-.262.105-1.496.017-1.695 0l-2.546-.225c-1.576-.139-3.151-.288-4.728-.417-.159-.013-.155.229 0 .246 2.423.268 4.85.505 7.274.756.555.058 1.571.421 2.009-.012a37.752 37.752 0 0 1 1.507 1.667c.237.284.454.577.675.862-3.586-.641-7.311-.743-10.939-.715-.156.001-.156.24 0 .243 3.804.056 7.517.516 11.293.894.229.259.471.504.768.701-3.961-.07-8.128-.252-12.264-.225zm7.028-29.467c1.787.199 3.676.593 5.477.559-.16 2.737-.195 5.492-.229 8.206-1.317-.244-2.722-.228-4.032-.149-.148.009-.15.234 0 .232 1.366-.021 2.684.161 4.027.295-.006.46-.011.922-.018 1.379-.004.24-.001.482-.003.722-2.075-.269-4.187-.342-6.272-.489-.191-.013-.187.278 0 .295 2.082.187 4.179.455 6.271.516-.004.812-.007 1.624-.009 2.437-1.375-.142-2.791-.125-4.161-.248-.155-.014-.15.221 0 .239 1.345.16 2.781.39 4.16.379-.002.899-.017 1.793-.01 2.693-1.989-.331-4.068-.353-6.074-.501-.143-.011-.14.207 0 .222 2.004.206 4.059.552 6.077.57.007.886.006 1.771.028 2.657-1.354-.321-2.807-.414-4.186-.594-.109-.014-.135.174-.026.193 1.39.25 2.813.608 4.222.709.022.815.045 1.631.082 2.445-2.023-.483-4.025-.937-6.016-1.565-.149-.047-.205.177-.063.23 1.952.733 4.022 1.355 6.094 1.658.017.355.043.709.064 1.064-.782-.4-1.76-.496-2.608-.408-.128.013-.133.21 0 .204.965-.045 1.745.199 2.626.499.073 1.205.16 2.408.283 3.606-.727-1.303-2.08-2.549-2.985-3.483-1.275-1.314-2.733-2.581-4.317-3.536.462-8.222-.013-16.407-.209-24.601 2.53.31 5.009.794 7.518 1.209a77.24 77.24 0 0 0-.212 2.601c-1.768-.371-3.701-.343-5.497-.484-.157-.013-.152.222-.002.239zm5.747-2.739c-2.457-.59-5.05-.869-7.562-1.043-.083-3.582-.117-7.165.015-10.754.979 1.146 2.177 2.144 3.255 3.165 1.546 1.465 3.048 3.016 4.686 4.377.063.053.13.081.196.109a50.008 50.008 0 0 0-.59 4.146z"/><path d="M39.547 22.159c-.439-.018-.877.048-1.318.025a6.565 6.565 0 0 1-1.452-.253c-.201-.057-.284.25-.086.312.88.273 1.994.498 2.899.227.172-.052.136-.304-.043-.311zM39.586 19.969c-1.211-.437-2.622-.502-3.897-.489-.186.002-.186.283 0 .288 1.306.036 2.527.321 3.805.533.218.036.303-.256.092-.332zM40.284 11.403c-2.231-.843-4.855-1.015-7.219-1.028-.186-.001-.185.283 0 .288 2.46.071 4.729.626 7.123 1.085.229.045.312-.263.096-.345zM40.345 9.645c-1.667-.711-3.527-1.052-5.323-1.236-.168-.017-.196.214-.079.293.175.111.343.232.505.361.115.087.268-.109.156-.201l-.036-.031c1.574.297 3.062.755 4.604 1.226.238.072.411-.31.173-.412z"/></g></svg>