<svg xmlns="http://www.w3.org/2000/svg" viewBox="0 0 50.226 50.226"><g fill="#b7b7b7"><path d="M33.736 32.372c-.587-4.406-4.706-8.001-9.123-7.448a.567.567 0 0 0-.195-.064c-11.392-1.459-11.086 20.363 1.673 18.065 4.942-.89 8.306-5.585 7.645-10.553zm-7.037 8.979c-4.19 1.19-8.136-.839-9.051-5.2-.987-4.703 1.088-10.576 6.77-10.226a.457.457 0 0 0 .397-.152c3.383.562 6.514 2.249 7.478 5.875 1.133 4.257-1.414 8.516-5.594 9.703z"/><path d="M40.905 32.583a17.25 17.25 0 0 0-1.296-4.612.093.093 0 0 0-.03-.067c-2.799-6.335-9.258-10.889-16.494-10.033-8.998 1.065-15.471 9.21-14.442 18.189.959 8.373 8.618 14.919 17.028 14.096a.523.523 0 0 0 .271.048c9.36-.733 16.243-8.052 14.963-17.621zm-.963 2.926c-1.421-.077-2.884.028-4.295.043-.163.002-.163.251 0 .253 1.401.014 2.856.119 4.27.044a14.312 14.312 0 0 1-.561 2.799c-1.7-.039-3.411-.003-5.108.026-.197.003-.197.302 0 .306 1.658.029 3.329.061 4.99.027-.349 1.03-.8 2.01-1.367 2.915-2.021-.078-4.095.099-6.084.341-.138.017-.145.231 0 .221 1.945-.126 3.888-.123 5.831-.179a14.19 14.19 0 0 1-1.158 1.499c-2.906-.006-5.817.165-8.721.276-2.998.115-6.455.687-9.381-.091-.138-.037-.195.172-.059.214 2.591.787 5.409.375 8.085.304 3.23-.085 6.473-.107 9.699-.309a15.206 15.206 0 0 1-3.007 2.431c-4.857.22-9.709.265-14.57.308-.127.001-.126.192 0 .197 4.585.185 9.179.125 13.765-.022-1.88 1.011-4.02 1.686-6.33 1.954a.579.579 0 0 0-.427.263c-7.921-.645-15.281-5.305-15.87-13.997-.569-8.399 5.707-15.736 14.17-16.269 4.92-.31 9.566 1.844 12.598 5.447-3.292-.507-6.735-.459-10.035-.298-.133.007-.134.21 0 .207 3.493-.055 6.912.288 10.381.506a15.018 15.018 0 0 1 1.743 2.81c-1.576-.175-3.216-.155-4.778-.228-.146-.007-.143.213 0 .225 1.615.132 3.301.373 4.94.382.3.679.563 1.38.761 2.111-1.369-.096-2.762-.07-4.128-.106-.193-.005-.192.29 0 .299 1.399.063 2.822.195 4.228.19.031.13.074.255.102.387a16.2 16.2 0 0 1 .323 2.294c-1.545-.075-3.113-.044-4.653-.031-.177.002-.176.266 0 .274 1.542.069 3.114.156 4.665.136.029.625.027 1.241-.019 1.841zM37.915 12.305c-6.696-4.794-20.102-6.965-25.694.749a.189.189 0 0 0-.031.132c-.503.874-.602 1.943.021 2.869.595.884 2.539 1.697 3.338.665.053.048.119.078.206.051 6.438-2.021 12.097-3.256 18.357.187h.001c.859.564 2.019.408 2.815-.263.935-.788 1.409-2.445.995-3.635.217-.164.285-.545-.008-.755zm-.747 1.698c-.019-.02-.037-.042-.071-.048-3.715-.586-7.512-.819-11.254-1.191-.116-.012-.112.165 0 .179 3.722.469 7.466 1.089 11.209 1.343a.135.135 0 0 0 .097-.036 4.133 4.133 0 0 1-.159.901c-1.027-.049-2.031-.063-3.062-.217-.146-.022-.214.194-.063.227.951.207 2.007.355 3.003.309a2.21 2.21 0 0 1-.166.304c-.43.642-1.221 1.027-1.956.904a.426.426 0 0 0-.187-.485c-5.606-3.694-13.177-3.26-18.872.069a.33.33 0 0 0-.363-.184c-.473.09-.834.318-1.336.2a1.818 1.818 0 0 1-1.139-.838c-.424-.736-.21-1.63.208-2.375 5.777-3.761 12.149-4.642 18.283-2.794-2.691-.154-5.422-.08-8.111-.077-.118 0-.117.178 0 .183 2.956.114 5.964.331 8.92.214.032-.001.05-.017.071-.031a25.346 25.346 0 0 1 4.852 2.281.151.151 0 0 0 .103.095c-5.493-1.457-11.523-1.401-17.267-1.114-.144.007-.145.23 0 .225 5.834-.192 11.59.166 17.366.967-.066.329-.084.66-.106.989z"/><path d="M42.882 6.061c-.032-.01-.062-.007-.093-.008C36.814 1.875 29.36-.5 22.039.089 17.548.45 10.934 2.093 7.803 5.924c-.099-.008-.209.084-.168.192.004.01.003.021.006.031a7.967 7.967 0 0 0-.96 1.575.271.271 0 0 0 .005.22c-.015.044-.036.087-.05.132-.186.633-.18 1.344.113 1.945.484.994 1.761 1.612 2.785 1.084.076.114.219.18.36.088 9.679-6.328 19.642-7.086 29.535-.678.01.007.021.007.031.013.022.018.042.037.073.053a.158.158 0 0 0 .161-.003c1.01.706 2.468.54 3.286-.428.514-.608.751-1.429.736-2.218-.013-.663-.118-1.636-.834-1.869zm-3.737 2.43c1.115.019 2.272.111 3.397.064-.046.23-.122.455-.24.66a2.14 2.14 0 0 1-.815.785c-.036-.028-.066-.062-.113-.075-.299-.086-.569-.022-.875-.008a3.464 3.464 0 0 1-.456-.017c-.022-.033-.029-.07-.064-.098-8.683-6.849-22.03-7.018-30.205.759-.073-.186-.263-.328-.502-.265-1.726.456-2.261-1.333-1.674-2.647a3.39 3.39 0 0 1 .124-.249C14.56.56 23.827.265 32.448 2.742c-.85-.061-1.7-.111-2.548-.17-.723-.051-1.446-.1-2.169-.148l-1.084-.07c-.422-.237-.67-.206-.762.066-.006-.009-.003-.024-.018-.026l-.632-.099a.125.125 0 0 0-.033.246c2.949.372 5.996.647 8.975.737a48.806 48.806 0 0 1 4.399 1.705c-2.346-.398-4.766-.521-7.125-.57-.134-.003-.133.202 0 .207 2.75.104 5.432.506 8.156.833.941.442 1.862.905 2.756 1.387.009.052.028.105.042.157-2.4-.389-4.87-.529-7.283-.771-.109-.011-.105.155 0 .169 2.437.318 4.908.755 7.365.916.039.132.076.264.092.4.02.173.018.348.006.522-1.138-.052-2.309.043-3.438.062-.129.001-.129.194-.002.196zM33.437 21.937c-4.199-.587-8.597-.908-12.832-.672-.116.006-.115.172 0 .179 4.268.289 8.515.5 12.777.9.23.022.287-.375.055-.407z"/></g></svg>