<svg xmlns="http://www.w3.org/2000/svg" viewBox="0 0 48.727 48.727"><g fill="#1d1d1b"><path d="M14.112 31.62a.497.497 0 0 0 .063-.253 67.01 67.01 0 0 0-1.409-11.579c.238-.359.056-.973-.472-.941-.856.05-1.625.402-2.291.932-.895-.228-1.832-.355-2.73-.53-.141-.027-.202.183-.06.217.809.192 1.631.436 2.457.601a6.537 6.537 0 0 0-.932 1.09c-.816-.193-1.697-.258-2.503-.389-.167-.027-.242.225-.071.258.756.145 1.556.37 2.343.48-.268.446-.496.92-.671 1.405-1.027-.012-2.002-.048-3.016-.315-.134-.035-.189.168-.057.207.942.275 1.979.461 2.974.4a7.242 7.242 0 0 0-.329 1.631 14.985 14.985 0 0 0-3.173.188c-.116.018-.09.222.028.207 1.047-.131 2.084-.145 3.132-.129-.001.043-.007.088-.007.131a6.274 6.274 0 0 0 .272 1.874c-.83-.095-1.695-.078-2.519-.117-.121-.006-.118.177 0 .186.855.068 1.747.204 2.613.202a6.973 6.973 0 0 0 1.523 2.465c-.838-.223-1.684-.417-2.528-.615-.143-.034-.204.184-.061.22.967.245 1.931.504 2.909.707 1.121 1.061 2.559 1.827 4.063 2.201.431.107.736-.445.452-.734zM8.88 26.247c-.445-2.282.885-5.174 3.106-6.074.02 3.566.37 7.288.973 10.79-1.894-1.075-3.63-2.409-4.079-4.716zM29.5 11.655c.597-.372-.004-1.323-.699-1.024-4.246 1.829-9.69 3.485-13.186 6.571-.032.028-.035.061-.049.092-.19-.041-.403.089-.359.352.016.099.04.197.056.296-.63-.17-1.258-.348-1.877-.571-.085-.031-.115.099-.036.132.641.269 1.298.521 1.967.721.125.703.253 1.406.402 2.105a8.237 8.237 0 0 1-1.438-.398c-.125-.049-.216.165-.092.219.506.217 1.05.404 1.603.519.19.874.394 1.747.613 2.616-.662-.094-1.335-.149-1.99-.224-.156-.018-.194.253-.037.276.697.103 1.408.237 2.117.317.183.716.373 1.431.571 2.144-.634-.165-1.281-.29-1.92-.429-.141-.031-.201.182-.06.217.684.171 1.369.364 2.061.498.211.756.425 1.511.646 2.264-.997-.186-1.997-.325-2.986-.571-.162-.04-.231.206-.069.251 1.022.285 2.09.563 3.153.651.237.804.475 1.608.716 2.408-.867-.128-1.754-.18-2.621-.265-.099-.01-.124.161-.024.176.904.134 1.821.31 2.736.391l.67 2.218c-.936-.152-1.89-.24-2.825-.366-.15-.02-.216.207-.064.231.989.149 1.987.342 2.986.459l.17.567c.143.481.664.523.972.295 1.246.425 2.95.924 4.073.261a.386.386 0 0 0 .199-.374c.181.034.391-.041.445-.248 1.905-7.262 3.2-14.729 4.569-22.109.063-.335-.143-.576-.393-.668zm-.704.367c-1.712 7.326-3.353 14.775-4.189 22.257-.012-.006-.018-.018-.031-.023-.631-.26-1.404-.103-2.079-.127-.568-.02-1.143-.034-1.713-.076-1.181-4.454-2.297-9.004-3.808-13.382a.11.11 0 0 0-.035-.102 67.744 67.744 0 0 0-.789-2.13c.048.01.096.025.144.034.152.029.217-.193.065-.234l-.314-.084c-.063-.161-.116-.327-.18-.487.007-.001.013.004.02.003 2.256-.452 4.359-1.713 6.433-2.68a732.033 732.033 0 0 1 6.488-2.997c-.003.01-.01.016-.012.028z"/><path d="M47.302 7.836c-.099.009-.198.027-.297.037.43-.205.355-.88-.206-.946-3.226-.381-6.785-.118-10.001.312-.162.022-.506.041-.875.095.141-.667.265-1.338.393-2.008l.131.013c.133.01.149-.187.03-.225-.037-.012-.077-.017-.115-.028.054-.285.112-.569.167-.852.178-.919.524-1.922.551-2.852C37.127-.261 35.265.106 34.083.08c-1.297-.029-2.951-.477-3.373 1.098-.556 2.073-.64 4.408-.789 6.556-4.955.829-10.117 2.548-14.535 4.989l-.03-.099c.068-.055.046-.18-.06-.199-.14-.464-.284-.935-.424-1.404.03-.055.026-.125-.045-.156l-.003-.001c-.381-1.267-.773-2.536-1.244-3.75-.069-.179-.25-.269-.422-.272a.313.313 0 0 0-.082-.115c-.482-.412-1.087-.225-1.671-.141a7.86 7.86 0 0 0-1.442.333c-.297-.07-.674.103-.641.465.116 1.273.3 2.542.482 3.808.141.98.194 2.041.509 2.991C4.4 16.847-.663 21.705 1.539 28.836c1.451 4.702 7.535 9.415 12.697 8.219-.081 1.333-.057 2.677-.073 4.013-.009.769-.34 2.277.314 2.87.569.516 1.667.093 2.292-.021 1.197-.219 2.371-.486 3.524-.858.213.616 1.226.326 1.044-.344-.456-1.686-.881-3.41-1.508-5.046.643.202 1.36.202 2.028.194.727-.009 1.51-.058 2.233-.238-1.199 2.709-1.488 6.078-1.753 8.997-.337.235-.338.925.157 1.017 2.482.459 5.413 1.287 7.939 1.048.171-.016.297-.177.314-.336a.382.382 0 0 0 .155-.209c.543-1.75.551-3.694.665-5.516.086-1.38.152-2.759.032-4.129.114-.014.229-.019.343-.035.145-.021.108-.254-.034-.252l-.334.008c-.013-.12-.017-.24-.033-.359 2.735.56 5.588-.08 7.891-1.644.28-.19.301-.502.183-.735.295-.146.252-.555-.054-.674-1.027-.397-2.255-.32-3.349-.401a82.392 82.392 0 0 0-3.177-.191l.111-.726c.287-.014.577-.016.86-.05.167-.02.176-.259 0-.267-.27-.012-.538-.017-.808-.025.994-6.473 2.008-13.502 2.122-20.077.026-.002.053 0 .079-.003.204-.02.208-.305 0-.32l-.075-.005c.005-.422.02-.848.017-1.265 1.679-.011 3.455-.649 5.043-1.031 2.342-.563 4.729-1.058 7.031-1.769.44-.137.387-.887-.113-.84zM31.439 3.807c.092-.593.179-1.187.265-1.78.169-1.154.782-.855 1.825-.798.502.027 1.8-.153 2.212.099.3-.076.361-.001.181.224-.086.15-.134.313-.144.486-.047.177-.08.36-.109.544-.736-.27-1.637-.205-2.312.114-.132.062-.039.276.099.235.802-.244 1.432-.179 2.151.037l-.025.153c-.105.577-.217 1.154-.327 1.731-.881-.128-1.794-.146-2.654-.125-.163.004-.163.249 0 .253.872.024 1.728.133 2.586.232a73.22 73.22 0 0 0-.386 2.191 96.416 96.416 0 0 1-3.873-.745c.187-.947.362-1.896.511-2.851zm9.077 5.292c-1.653.388-3.64.671-5.224 1.456-.118-.214-.467-.234-.548.049-.029.101-.051.208-.079.309-.076.049-.158.091-.231.143-.17.122-.097.345.1.373-.109.406-.2.827-.297 1.243-.883-.048-1.76-.098-2.647-.252-.173-.03-.251.23-.074.268.845.183 1.739.338 2.625.387a66.904 66.904 0 0 0-.556 2.724c-.965-.118-1.938-.19-2.903-.273-.188-.016-.184.273 0 .292.945.098 1.897.227 2.848.293-.101.571-.214 1.135-.302 1.713a15.591 15.591 0 0 0-3.423-.171c-.191.01-.194.298 0 .299 1.139.005 2.243.116 3.36.261a82.498 82.498 0 0 0-.354 2.665c-.936-.125-1.897-.163-2.828-.25-.161-.015-.157.231 0 .25.92.107 1.86.27 2.793.341-.09.798-.179 1.598-.249 2.398-.9-.128-1.807-.174-2.721-.16-.152.002-.152.233 0 .235.906.017 1.801.114 2.695.236-.084.985-.159 1.971-.217 2.95-.943-.038-1.887-.056-2.828-.083-.146-.004-.144.217 0 .225.934.054 1.872.117 2.809.162a138.316 138.316 0 0 0-.146 3.091c-1.003-.065-2.007-.118-3.008-.206-.137-.012-.17.221-.033.242.994.147 2.014.273 3.029.319-.027.838-.049 1.67-.062 2.486-1.384-.028-2.761-.054-4.154-.241-.109-.014-.136.176-.026.193 1.353.218 2.771.41 4.173.444-.004.281-.013.571-.015.848a.442.442 0 0 0 .129.316c.036.081.095.15.201.179 1.183.324 2.376.51 3.593.642.693.075 1.433.176 2.16.186-2.12 1.081-4.297 1.464-6.727 1.349-.128-.147-.41-.112-.465.099-.095.368-.164.74-.223 1.113-1.343.043-2.681.108-4.03.081-.135-.003-.132.198 0 .207 1.304.094 2.653.151 3.975.067a24.81 24.81 0 0 0-.165 1.747c-1.212.033-2.418.113-3.635.077-.137-.004-.134.201 0 .211 1.189.083 2.418.134 3.615.022-.029.519-.054 1.038-.083 1.557a47.44 47.44 0 0 1-.095 1.277c-1.896-.121-3.807-.019-5.709-.143-.17-.011-.167.249 0 .264 1.859.159 3.822.363 5.686.175-.117 1.375-.239 2.768-.106 4.112-2.152-.855-4.809-1.044-7.107-1.308.56-2.982 1.606-6.034 1.897-9.031a.32.32 0 0 0-.137-.291c.105-.214.073-.497-.218-.539-.834-.121-1.687-.082-2.53-.11-.835-.028-1.739-.2-2.549.027a.425.425 0 0 0-.244.199c-.61-.099-1.226-.18-1.836-.266-.133-.019-.195.182-.057.207.58.106 1.162.216 1.746.312a.195.195 0 0 0-.039.133c.056.543.144 1.084.243 1.623-.86-.083-1.764 0-2.624.011-.138.002-.138.213 0 .214.875.012 1.796.098 2.669.008.204 1.056.462 2.106.722 3.148a18.38 18.38 0 0 0-1.915.16c-.508.073-2.257.585-2.601.297-.381-.319-.142-2.099-.148-2.626-.011-1.008.003-2.021-.058-3.028a.535.535 0 0 0-.45-.521.292.292 0 0 0-.231-.156c-5.15-.477-10.76-3.008-12.091-8.437-1.641-6.693 3.585-10.549 8.883-12.942.6-.271.25-1.028-.293-1.081.016-.945-.21-1.918-.327-2.843a81.793 81.793 0 0 0-.489-3.415c.386.036.777.035 1.164.027.426-.009.93.028 1.304-.182.04.424.109.853.186 1.282a7.732 7.732 0 0 0-1.923-.491c-.094-.012-.116.149-.022.166.7.124 1.353.354 1.999.639.094.478.204.957.33 1.431a7.585 7.585 0 0 0-1.803.036c-.084.012-.065.156.02.148.654-.056 1.259.005 1.863.116.143.515.297 1.026.466 1.523-.776-.04-1.553-.067-2.326-.09-.141-.004-.139.208 0 .218.804.057 1.613.11 2.422.148.067.191.13.388.199.574.103.275.33.405.561.42a.305.305 0 0 0 .319.071c5.102-1.695 10.136-3.4 15.283-4.959.41-.124.456-.526.276-.788.07-.328.131-.657.197-.985 1.26.327 2.536.619 3.818.889-.111.149-.143.335-.029.58.039.083.169.076.21 0 .017-.032.096-.059.206-.083.194.095.423.084.573-.074.253-.021.555-.037.881-.049a51.18 51.18 0 0 0 5.028.654c-.352.076-.7.156-1.046.237zm1.859-.422c-.016-.05-.046-.093-.11-.103l-2.791-.416c.484-.002.856-.004 1.003-.011 1.93-.092 3.878-.04 5.803-.184-1.31.172-2.612.43-3.905.714z"/><path d="M29.831 45.876c-2.002-.413-4.112-.508-6.144-.725-.068-.007-.085.111-.016.121 2.021.3 4.087.737 6.128.839.133.006.165-.208.032-.235zM35.927 35.77c-3.116-.318-6.314-.225-9.445-.304-.152-.004-.151.228 0 .236 3.129.159 6.313.495 9.445.413.225-.007.216-.323 0-.345zM35.964 9.965c-1.572-.422-3.324-.411-4.937-.335-.155.007-.157.241 0 .243 1.653.018 3.255.282 4.896.4.178.012.209-.263.041-.308zM19.677 40.831c-.921-.216-1.869-.347-2.801-.515-.106-.019-.152.142-.045.163.929.177 1.861.393 2.799.521.108.016.16-.142.047-.169z"/></g></svg>