<svg xmlns="http://www.w3.org/2000/svg" viewBox="0 0 48.489 48.489"><g fill="#1d1d1b"><path d="M30.396 30.506l.012-.006c.374-.228.135-.887-.309-.732a1.397 1.397 0 0 1-.73.077c-.177-.031-.33-.082-.495-.11-.012-.036-.01-.074-.034-.105-.493-.611.274-3.605.344-4.316.148-1.504.205-2.99.222-4.5.228-.148.24-.58-.085-.64-3.072-.575-6.011-.391-9.117-.332-.413.008-.473.55-.205.717-.087.441-.041.934-.01 1.356.049.651.054 1.382.385 1.958.025.043.069.063.106.093-.157.172-.042.497.229.524.43.042.842.078 1.261.139a33.242 33.242 0 0 0-.089 2.623c.004.806-.057 1.656.132 2.443a2.664 2.664 0 0 1-.794-.076c-.322-.087-.608.126-.682.427a.5.5 0 0 0-.328-.177c-.565-.075-1.197-.192-1.729.041.637-2.875 1.66-7.478-1.093-9.461-2.448-1.765-5.602-.073-7.77 1.467.314-2.573.585-5.161.589-7.753.001-.291-.272-.46-.523-.461a.655.655 0 0 0-.308-.121c-2.689-.302-5.408-.028-8.085.265-.103-.148-.352-.134-.453.019-.009.014-.013.029-.022.043a.358.358 0 0 0-.246.49c-.199.51-.276 1.067-.347 1.61-.09.692-.284 1.697-.063 2.377.232.716 1.175.875 1.931.695-.561 3.198-.242 6.694.014 9.91.003.039.019.068.029.103-.191.017-.379.044-.571.049-.431.01-.884-.12-1.253.146-.212.153-.293.421-.171.644a33.182 33.182 0 0 0-.126 4.051.584.584 0 0 0 .573.573c2.94.043 5.885.088 8.825.03.125.331.617.315.652-.093l.002-.045a.608.608 0 0 0 .045-.864c.059-1.078.082-2.157.078-3.236a.497.497 0 0 0-.49-.49c-.322-.006-.643-.027-.961-.017.295-1.447.724-2.828 1.661-4.007.389-.49.431-.739 1.057-.48.647.267.531.591.526 1.22-.007.905-.092 1.799-.171 2.699a21.816 21.816 0 0 0-.916-.178c-.453-.08-.838.263-.733.733.273 1.228.319 2.41.291 3.662a.482.482 0 0 0 .094.291c-.004.186.118.394.331.414 2.868.268 5.786.263 8.665.36.353.012.568-.288.604-.604.123-1.078.311-2.127.174-3.2.083-.028.131-.084.182-.137a39.26 39.26 0 0 0-.018 1.535c.009.595-.041 1.241.189 1.797.093.225.32.317.518.275a.462.462 0 0 0 .184.064c1.675.201 3.359.343 5.043.447 1.072.066 2.925.533 3.895.164 1.38-.522.457-3.334.084-4.39zM19.24 31.901c-2.149-.035-4.303.014-6.451.032-.077.001-.078.12 0 .12 2.135.018 4.276.065 6.412.032-.074.408-.127.822-.181 1.239-2.464-.135-4.97-.165-7.427.099.143-1.09.076-2.205-.147-3.283.281-.056.56-.117.837-.209a.29.29 0 0 0 .149-.11c.186-.027.35-.141.388-.361.222-1.273.956-6.451-1.904-5.51-.981.323-1.718 1.59-2.143 2.455-.022.045-.034.093-.055.138-1.178.208-2.305.383-3.518.297-.106-.008-.104.155 0 .164 1.119.098 2.331.07 3.432-.239a7.01 7.01 0 0 0-.522 1.817c-1.194.218-2.324.252-3.53-.01-.088-.019-.126.114-.038.136 1.16.286 2.378.324 3.544.05a5.746 5.746 0 0 0-.016 1.188c-.358.136-.335.657.032.771.362.113.737.121 1.113.12.001.13.011.259.013.389-2.109-.133-4.237-.121-6.347-.172-.076-.002-.076.115 0 .118 2.112.087 4.238.238 6.354.241.013.666.028 1.331.067 1.996-2.727-.061-5.458-.035-8.185-.004a33.383 33.383 0 0 0-.331-3.094c.27.035.558-.003.838-.049.238-.039.483-.087.71-.167.303-.107.457-.288.715-.454.166-.108.174-.388.035-.502.012-.047.026-.092.025-.149-.103-3.27.094-6.684-.353-9.923a.26.26 0 0 0-.133-.191c.084-.048.166-.098.23-.158.188-.173.152-.538-.084-.654-.379-.187-.643-.155-1.06-.142a5.527 5.527 0 0 1-.427.001c-.014-.003-.02-.002-.032-.004-.038-.214.023-.577.026-.73.016-.84.157-1.726.126-2.579 2.589.103 5.204.316 7.793.167-.04.341-.062.683-.094 1.024-2.478-.341-4.988-.415-7.486-.326-.093.003-.094.147 0 .146 2.508-.05 4.978.125 7.466.393a70.886 70.886 0 0 0-.21 3.224c-1.221-.036-2.454.019-3.673.03-.095.001-.095.147 0 .148 1.216.011 2.446.066 3.664.03-.018.473-.046.946-.058 1.419-1.272.029-2.552.175-3.82.269-.084.006-.086.138 0 .133 1.267-.069 2.553-.09 3.817-.224-.014.594-.024 1.187-.031 1.78-.005.425.513.456.686.156.043-.009.087-.018.132-.043 2.212-1.193 6.154-4.313 7.958-.884.032.061.055.127.083.19-1.3-.315-2.679-.349-3.997-.224-.098.009-.099.163 0 .154 1.405-.122 2.728.039 4.091.284.193.503.297 1.063.34 1.655-1.253-.149-2.54-.157-3.799-.223-.102-.005-.101.151 0 .158 1.259.088 2.54.237 3.804.24a13.59 13.59 0 0 1-.04 1.917c-1.037-.063-2.096-.001-3.133.006-.118.001-.118.183 0 .184 1.03.007 2.083.069 3.114.007-.045.469-.101.937-.16 1.395-1.214.12-2.345.15-3.56-.115-.116-.025-.166.152-.049.179 1.161.267 2.403.365 3.583.146-.1.772-.197 1.51-.231 2.156-.003.062.022.107.043.156a86.076 86.076 0 0 0-3.583-.074c-.103 0-.101.151 0 .158 1.411.098 2.85.196 4.276.212a.316.316 0 0 0 .138.13c.324.146.685.154 1.046.125a7.777 7.777 0 0 0-.272 1.033zm10.423 1.946c-.303.15-1.517-.078-1.803-.094-2.089-.115-4.179-.239-6.27-.301.041-.429-.003-.867-.003-1.301-.001-.494.018-.986.035-1.479.331-.075.583-.25.851-.538.107-.025.205-.086.24-.217.228-.851.121-1.787.139-2.665.02-1.002.046-2.002.039-3.004-.002-.26-.205-.423-.448-.448a6.173 6.173 0 0 0-1.297.004c.004-.014.017-.019.02-.034.122-.654-.066-1.333-.138-1.989-.042-.376-.052-.803-.144-1.192 2.664-.125 5.355.148 8.022.262-.102.382-.178.763-.264 1.143-2.186-.617-4.533-.741-6.787-.617-.093.005-.094.15 0 .146 2.309-.101 4.494.2 6.751.627-.055.25-.124.501-.173.752-.008-.013-.005-.034-.024-.038-1.806-.338-3.665-.428-5.5-.441-.101-.001-.1.154 0 .156 1.841.043 3.651.244 5.48.428.017.002.019-.018.03-.027a28.555 28.555 0 0 0-.29 1.756c-1.247-.035-2.497.003-3.745.015-.095.001-.095.147 0 .148 1.241.012 2.485.05 3.725.015-.046.369-.088.74-.121 1.115a13.34 13.34 0 0 1-.073.614c-.946-.2-1.917-.305-2.873-.447-.107-.016-.154.147-.045.165.961.158 1.926.355 2.895.455-.091.66-.196 1.419-.128 2.083-1.192-.149-2.397-.244-3.593-.337-.102-.008-.098.145 0 .156 1.198.141 2.405.284 3.61.368.053.334.157.635.34.875a.514.514 0 0 0 .153.131.482.482 0 0 0 .101.41c.349.403.951.4 1.47.243-.026.209-.032.419-.046.628a44.74 44.74 0 0 0-5.411-.311c-.045 0-.058.074-.011.081 1.754.251 3.613.426 5.405.461-.019.45-.014.9.05 1.354-.004.217.032.427.11.629.184.306.091.393-.279.26z"/><path d="M28.63 16.006a.445.445 0 0 0-.438-.437l-2.405-.01c-.541-.002-1.325-.144-1.841.072-.945.396-.36 2.105-.234 2.823.002.013.01.021.013.032a.359.359 0 0 0 .313.466c.79.076 1.582.148 2.376.173.519.017 1.294.155 1.79-.067.918-.409.458-2.302.426-3.052zm-1.366 2.189c-.907.032-1.816.051-2.724.061-.039-.349-.089-.695-.139-1.042-.027-.185-.111-.434-.025-.613.135-.282.372-.177.724-.175l2.649.016c-.005.264-.009.528-.01.792a6.808 6.808 0 0 0-2.755.083c-.09.021-.052.157.038.138a7.254 7.254 0 0 1 2.715-.029c.008.697.212.745-.473.769zM47.661 23.585c-1.778-3.392-5.916-3.292-9.171-2.513.061-.335.037-.705.062-1.025.015-.194.052-.398.083-.603 2.558.541 5.634.291 8.219.1.258.18.681.119.79-.257.442-1.524.377-3.531-.054-5.053-.036-.129-.125-.183-.221-.207a.467.467 0 0 0-.327-.105c-4.294.198-8.599.314-12.897.332a.529.529 0 0 0-.501.381c-.718 2.958-1.492 5.919-2.009 8.92a.321.321 0 0 0 .295.387.51.51 0 0 0 .308.222c1.63.427 3.421.99 5.122.949.183-.004.316-.166.348-.336l.878-.143.515.379c.231.209.452.46.62.723.379.594.616 1.321.52 2.029-.166 1.219-1.387 2.315-2.649 2.046-.351-.568-.643-2.176-.892-2.555a3.678 3.678 0 0 0-1.751-1.41c-.859-.325-1.97-.261-2.631.34a.342.342 0 0 0-.438.207c-3.244 7.929 9.259 10.713 14.051 6.588 2.562-2.205 3.316-6.37 1.73-9.396zm-.782 6.849c-1.835.205-3.561.311-5.403.036-.086-.013-.124.118-.036.132 1.748.292 3.584.38 5.333.033a5.595 5.595 0 0 1-1.103 1.462c-3.297-.006-6.605.172-9.899.301-.07.003-.071.111 0 .11 3.223-.043 6.463-.043 9.683-.21-.022.018-.04.04-.063.058-4.383 3.565-13.763 1.38-12.967-5.19.519-.909 1.745-.792 2.531-.314.872.53 1.226 1.349 1.338 2.314.1.868.544 2 1.634 1.573.151-.059.22-.198.235-.337 1.957.205 3.537-1.702 3.067-3.758-.27-1.181-1.157-2.382-2.273-2.887-.754-.341-1.621-.206-1.937.489-1.438-.524-3.012-.786-4.482-1.171-.035-.009-.064-.002-.097-.005.441-1.419.825-2.852 1.205-4.29.554-2.101.485-3.228 2.845-3.475 3.411-.357 6.983-.127 10.423-.303a112.9 112.9 0 0 0-.037 1.007c-1.165-.104-2.354-.103-3.516-.157-.119-.005-.117.176 0 .184 1.159.076 2.338.209 3.506.236-.006.157-.009.314-.017.47-.007.136-.025.272-.037.408a.107.107 0 0 0-.08-.035c-2.951-.017-5.903.009-8.855.021-.128.001-.128.198 0 .198 2.951.012 5.903.038 8.855.021.029 0 .047-.014.065-.028-.047.479-.104.959-.131 1.438-2.558-.321-5.546-.698-8.08-.285-.066-.077-.182-.112-.273-.051-.047.031-.079.077-.12.115-.029.006-.06.008-.089.014-.228.048-.301.263-.263.457-.124.256-.207.539-.284.799-.155.528-.366 1.256-.028 1.74.053.076.117.13.186.165a.3.3 0 0 0 .316.196c2.167-.178 5.304-.854 7.17.624.074.059.139.126.209.188a18.542 18.542 0 0 0-5.42-.184c-.063.007-.092.108-.016.122.209.036.416.08.621.133.057.013.081-.073.024-.087-.794-.198.492-.12.684-.126.439-.013.878-.011 1.316.006 1.022.039 2.033.179 3.039.358a5.997 5.997 0 0 1 1.159 1.648c-1.538-.362-3.155-.487-4.723-.505-.129-.002-.129.198 0 .2 1.639.031 3.217.278 4.822.551a6.83 6.83 0 0 1 .537 1.934c-1.265-.281-2.611-.308-3.889-.193-.08.007-.082.131 0 .127 1.338-.07 2.6.067 3.912.261.103 1.192-.084 2.403-.597 3.462zM8.783 32.339c-2.038-.016-4.076.001-6.114.014-.08.001-.08.124 0 .125 2.038.013 4.076.03 6.114.014.098-.002.098-.153 0-.153zM9.416 24.734c-.91-.045-1.83-.003-2.741.003-.113.001-.113.174 0 .175.911.006 1.831.048 2.741.003.116-.005.116-.175 0-.181zM8.595 17.154c-1.144-.378-2.478-.335-3.647-.099-.091.018-.072.176.022.164 1.238-.162 2.343-.043 3.571.131.126.017.181-.154.054-.196zM29.446 32.937c-2.458-.206-4.925-.333-7.387-.489-.072-.005-.071.106 0 .112 2.461.192 4.922.416 7.387.559.117.007.115-.172 0-.182z"/><path d="M47.155 28.761c-1.203-.036-2.368-.036-3.564-.22-.086-.013-.124.118-.036.132 1.175.198 2.41.349 3.6.236.093-.009.096-.145 0-.148z"/></g></svg>