<svg xmlns="http://www.w3.org/2000/svg" viewBox="0 0 49.387 49.387"><g fill="#1d1d1b"><path d="M44.162 36.223c.313-5.037.059-10.005-.875-15.015-.004-.024-.026-.031-.036-.051a.29.29 0 0 0 .07-.306c-2.903-9.011-15.172-9.047-21.285-3.489.981-4.813.811-11.154-2.462-14.582-3.553-3.72-9.11-3.575-12.877-.35-.066 0-.134.001-.187.037-.977.659-.842 1.201-1.038 2.311-.689 3.913-.314 8.361-.351 12.339-.075 8.201-.12 16.5.561 24.677.002.017.01.029.013.046-.155 9.055 15.149 8.799 15.603-.143.717-2.162.826-4.275.785-6.556-.043-2.413-.903-7.785 1.862-9.147 4.138.917 3.411 5.369 3.436 8.698.018 2.407-.125 4.85.243 7.232.031.199.221.299.408.298.527 5.776 7.231 9.412 12.349 5.594 2.622-1.956 3.13-4.976 3.479-8.032.095-.059.107-.186.025-.251.109-.985.189-1.965.255-2.943.022-.004.044-.005.065-.009.199-.034.156-.377-.043-.358zm-9.822-4.264c3.008-.127 6.056-.127 9.053-.42.007.827.014 1.654-.008 2.477-2.72.025-5.444.195-8.166.221-.17.002-.17.26 0 .264 2.698.058 5.461.103 8.159-.133a57.61 57.61 0 0 1-.095 1.955c-2.861.344-5.694.545-8.588.505-.184-.003-.182.277 0 .285 2.854.124 5.733.003 8.564-.402-.007.095-.01.191-.018.285-.066.825-.14 1.662-.247 2.49a43.383 43.383 0 0 0-4.981.265c-.119.013-.125.184 0 .19 1.615.073 3.299.04 4.933-.075-.229 1.6-.608 3.153-1.362 4.501-2.056-.116-4.131.003-6.193-.151-.177-.013-.174.258 0 .274 1.945.176 4.024.373 5.995.179a7.382 7.382 0 0 1-1.285 1.59c-2.657.111-5.172.159-7.835-.222-.177-.025-.259.24-.076.275 2.408.452 4.99.655 7.446.34a7.41 7.41 0 0 1-.462.337c-4.946 3.256-10.178-1.13-10.355-6.495-.006-.195-.111-.311-.242-.355.063-1.415.008-2.835-.001-4.259-.015-2.273.253-4.805-.144-7.045-.393-2.216-1.524-3.357-3.39-3.654a.497.497 0 0 0-.398-.332c-1.797-.194-2.72 1.009-3.202 2.478-1.35-.042-2.723.04-4.065.058-.201.003-.202.31 0 .313 1.3.017 2.629.096 3.938.063-.089.336-.16.679-.214 1.018-.03.191-.043.384-.069.575-1.454.049-2.891.175-4.354.125-.189-.007-.186.279 0 .292 1.408.101 2.895.156 4.309-.037a30.712 30.712 0 0 0-.184 2.442c-1.373.043-2.745.117-4.118.168-.699.026-1.399.05-2.098.071-.35.011-.7.02-1.049.029-.363-.144-.622-.094-.786.128-.013-.039-.041-.073-.097-.073l-.516-.003c-.174-.001-.174.267 0 .27a106.85 106.85 0 0 0 8.657-.177c-.023.961-.023 1.924-.02 2.887-2.184.107-4.354.197-6.546.155-.15-.003-.149.225 0 .232 2.171.106 4.372.133 6.547-.012.001.797-.003 1.594-.029 2.39-2.058.069-4.087.27-6.166.149-.172-.01-.17.254 0 .267 1.984.153 4.143.292 6.151-.008a28.29 28.29 0 0 1-.142 1.971.425.425 0 0 0-.144.209c-.031.101-.072.197-.104.297-3.265.132-6.515.297-9.787.295-.143 0-.142.218 0 .222 3.204.084 6.445.101 9.648-.119a14.388 14.388 0 0 1-.821 1.943c-1.902.036-3.762.231-5.681.077-.155-.012-.15.222 0 .239 1.741.198 3.673.363 5.442.076-.369.631-.78 1.223-1.278 1.72-2.082-.017-4.179.161-6.258.258-.126.006-.127.2 0 .197 1.974-.045 3.969-.023 5.941-.157-1.027.899-2.332 1.477-4.023 1.535-3.549.121-5.643-2.216-6.829-5.147a.554.554 0 0 0 .22-.473c-.072-6.328-.42-12.649-.45-18.98-.01-1.871-.759-15.838.26-19.092a.634.634 0 0 0 .571-.134C10.8.66 14.889.962 17.649 3.251c-2.124-.134-4.292-.057-6.393.022-.171.007-.173.268 0 .267 2.316-.008 4.63.152 6.942.203a8.529 8.529 0 0 1 1.569 2.147c-1.902.033-3.804.166-5.712.142-.205-.003-.202.304 0 .316 1.93.12 3.977.186 5.923-.044.33.731.581 1.524.721 2.379-3.152.117-6.28.385-9.443.355-.172-.002-.172.261 0 .267 3.132.107 6.364.158 9.484-.255.034.269.077.533.091.812.028.568.01 1.147-.019 1.73a52.747 52.747 0 0 0-9.407.474c-.119.017-.088.208.028.207 3.101-.031 6.256-.107 9.359-.27-.053.832-.13 1.671-.179 2.506-2.355.025-4.734.239-7.08.403-.107.007-.11.171 0 .169 2.344-.052 4.724-.057 7.065-.246-.036.755-.043 1.506.031 2.24-1.731.067-3.436.231-5.174.182-.173-.005-.171.259 0 .267 1.714.082 3.501.133 5.202-.135.052.396.124.788.233 1.172-.049.059-.102.115-.15.175-.235.296.059.831.427.612.032.077.06.156.095.232.047.1.193.063.222-.029.052-.167.098-.345.147-.519.142-.098.285-.196.428-.291l-.005.055c-.004.071.109.087.124.017.012-.056.018-.113.029-.169 5.519-3.641 11.622-5.204 16.531-1.824-2.795-.173-5.625-.113-8.418-.061-.14.002-.141.217 0 .218 3.002.012 5.998.203 8.996.249.734.576 1.44 1.266 2.108 2.089-4.821-.335-9.782-.002-14.603.219-.175.008-.177.278 0 .274 4.941-.094 9.938.138 14.867-.137.007 0 .01-.007.017-.008.343.447.676.929.998 1.448a.334.334 0 0 0 .098.1c-.006.023-.025.038-.023.065.317 3.278.569 6.623.613 9.954-3.012.003-6.046.305-9.054.475-.159.01-.161.261.003.254z"/><path d="M42.231 41.526c-2.808-.142-5.708.103-8.516.245-.107.005-.174.168-.06.221.406.187.241.16.686.132.103-.006.105-.164 0-.162 2.57-.061 5.289.105 7.89-.166.17-.017.177-.261 0-.27zM42.921 27.976c-3.392.19-6.751.438-10.151.523-.114.003-.112.168 0 .176 3.334.233 6.893.161 10.191-.409.163-.028.125-.299-.04-.29zM42.387 25.299c-4.429.036-8.872.32-13.287.659-.087.007-.089.14 0 .137 4.427-.139 8.862-.204 13.287-.385.263-.011.266-.414 0-.411zM42.151 22.218c-2.119-.504-4.323-.091-6.471.093-2.657.227-5.313.463-7.97.697-.192.017-.195.317 0 .302 4.536-.338 9.848-1.51 14.345-.746.224.038.324-.292.096-.346z"/></g></svg>