<svg xmlns="http://www.w3.org/2000/svg" viewBox="0 0 49.585 49.585"><g fill="#b7b7b7"><path d="M49.094 6.173c-.001-.017-.009-.03-.013-.046a.374.374 0 0 0 .146-.419c-.935-3.62-3.37-5.16-7.016-5.456-6.764-.549-13.875.221-20.66.358-5.325.108-12.2-.866-17.328.737-1.898.594-3.2 1.803-3.495 3.498-.18-.04-.393.056-.397.298-.113 8.456-.046 16.933.012 25.391.033 4.824-1.702 12.809 2.329 16.519 3.851 3.544 10.79 2.264 15.446 2.19 8.003-.128 15.991-.059 23.987-.368.023.02.051.036.088.038 3.984.205 5.65-1.562 6.377-4.117l.143-.003c.152-.003.152-.238 0-.236l-.085.002c.152-.589.249-1.224.326-1.876.063-.014.052-.079.011-.116.166-1.486.193-3.085.243-4.66.337-10.641.695-21.104-.114-31.734zm-4.385 18.249c1.409.094 2.853.271 4.268.248 0 1.105.004 2.212-.001 3.314-.015 3.302-.045 6.624-.169 9.923-.036.97.041 3.009-.074 4.632-1.829.006-3.67.199-5.5.248-.075.002-.075.115 0 .116 1.81.016 3.688.054 5.488-.191-.061.752-.167 1.399-.351 1.784-.012.025-.027.045-.039.069-6.202.078-12.398.3-18.591.63-.073.004-.074.117 0 .114a970.32 970.32 0 0 1 18.453-.502c-1.113 2.008-3.111 2.938-5.145 3.568-6.381-.126-12.747-.069-19.131.086-3.222.078-6.439.088-9.661.101-2.939.012-7.641.578-10.054-1.484-5.048-4.314-2.929-15.504-2.99-21.425-.067-6.328-.077-12.664-.209-18.989.074-.027.139-.082.139-.174-.009-7.47 17.738-5.023 22.31-5.086 4.87-.067 17.754-2.089 22.974 1.769-4.952-.964-9.981-1.041-15.009-.462-.106.012-.108.18 0 .169 5.233-.54 10.328-.22 15.48.675.629.565 1.121 1.233 1.423 2.035-1.466-.193-2.987-.163-4.454-.05-.11.008-.112.177 0 .173 1.523-.056 3.019.036 4.537.099.013.039.031.073.042.112.015.05.04.088.066.125a.303.303 0 0 0-.017.124c.035.555.052 1.113.081 1.669-1.567-.169-3.184-.039-4.739.173-.101.014-.078.193.024.18 1.583-.191 3.137-.172 4.724-.171.055 1.075.116 2.148.157 3.225-.01-.005-.017-.014-.03-.016-1.391-.162-2.816-.159-4.215-.222-.104-.005-.102.153 0 .16 1.397.096 2.814.261 4.215.258.016 0 .024-.009.036-.014.111 2.896.177 5.798.206 8.699-3.933-.931-8.034-1.085-12.046-.673-.11.011-.113.184 0 .175 4.095-.313 8.013.001 12.047.724.013 1.38.021 2.76.022 4.139-1.404-.175-2.856-.162-4.268-.223-.105-.003-.104.159.001.166z"/><path d="M21.551 15.563a.497.497 0 0 0-.339-.001C9.566 19.506 16.358 40 28.514 35.384c11.982-4.551 4.598-25.023-6.963-19.821zm6.485 18.452c-10.529 4.04-16.814-13.466-6.521-17.355a.577.577 0 0 0 .38-.495c5.199-.977 9.973 1.504 11.42 6.857 1.199 4.435-.923 9.321-5.279 10.993zM43.247 9.036c-.037-.993-.009-2.134-.966-2.708-.669-.401-1.607-.273-2.333-.29-1.061-.024-2.119-.09-3.179-.124-1.2-.038-2.285-.104-3.026.943-.135.19-.065.399.078.539a44.882 44.882 0 0 0 .15 6.81c.1 1.016.245 1.565 1.296 1.814 1.837.435 4.194.219 6.059.076.91-.069 1.529-.195 1.793-1.142.483-1.727.194-4.139.128-5.918zm-1.214 5.551c-.535.779-2.898.482-3.697.486-.443.002-.887.001-1.33-.006-.974-.016-1.122.148-1.684-.632-.705-.979-.462-2.694-.56-3.877a41.762 41.762 0 0 0-.361-3.095c.021-.017.044-.026.063-.049.742-.888 2.738-.559 3.718-.56.967-.002 3.362-.355 3.909.717.398.781.056 2.655.042 3.548-.01.669.29 2.901-.1 3.468z"/><path d="M48.502 27.866c-1.249-.13-2.523-.146-3.783-.178a64.494 64.494 0 0 0-.308-5.909c-.028-.271-.239-.414-.454-.438a.55.55 0 0 0-.297-.304c-1.374-.541-3.052-.234-4.431.132-.033.009-.056.028-.084.042-.258.045-.496.226-.515.559-.532 8.99-5.551 18.592-15.979 16.889-8.996-1.47-10.616-10.154-11.76-17.648-.048-.316-.596-.319-.641 0l-.003.035c-1.115-.492-2.633-.38-3.872-.08a.366.366 0 0 0-.404.109c-.061.018-.127.034-.186.052-.198.062-.242.412 0 .448l.061.009c-.78 6.329-.759 13.186-.088 19.513a.377.377 0 0 0 .12.242c.224 3.76 6.167 2.781 8.794 2.753 8.566-.089 17.171.353 25.729-.073a.473.473 0 0 0 .321-.14c1.89-.339 2.646-1.19 3.006-3.284.684-3.977 1.024-8.437.992-12.745 1.257.093 2.526.205 3.781.2.122-.001.117-.172.001-.184zm-5.219 4.003c-.249 3.12.525 9.353-2.751 11.22-.042-.012-.081-.028-.13-.03-5.267-.198-10.563.009-15.833.085-2.969.042-16.227 1.793-18.088-2.013.001-.013.007-.022.007-.036.026-6.463.109-12.956.079-19.418 1.194.144 2.592.215 3.636-.143-.863 8.077 4.382 17.613 13.046 18.452 10.997 1.065 15.907-8.208 16.557-17.842 1.222-.025 2.491.068 3.685-.141.329 3.318.057 6.549-.208 9.866zM46.389 46.484c-9.131.372-18.274.495-27.402.894-.082.004-.083.128 0 .129 9.126.049 18.286-.389 27.402-.783.154-.007.155-.247 0-.24z"/><path d="M48.509 40.013c-1.474-.013-2.966.151-4.438.246-.086.006-.087.138 0 .135 1.473-.057 2.973-.046 4.438-.21.107-.012.113-.17 0-.171zM48.739 37.348c-1.371-.309-2.849-.29-4.242-.185-.095.007-.097.154 0 .15 1.429-.059 2.798.099 4.217.222.106.009.129-.163.025-.187zM48.713 33.983c-1.326-.093-2.677-.009-4.006.003-.106.001-.106.163 0 .164 1.329.013 2.68.096 4.006.003.11-.006.11-.162 0-.17zM48.516 31.067c-1.168-.36-2.442-.326-3.619-.03-.056.014-.032.097.023.085 1.228-.246 2.338-.168 3.552.101.103.023.144-.125.044-.156zM48.746 22.135c-1.232-.361-2.619-.293-3.856.01-.082.02-.046.137.034.124 1.309-.216 2.494-.144 3.802.013.086.01.098-.124.02-.147zM48.714 17.095c-4.128-.469-8.338-.222-12.444.337-.056.008-.043.106.013.1 4.167-.472 8.251-.413 12.43-.229.136.005.13-.193.001-.208zM48.712 14.14c-1.763.143-3.498.288-5.269.26-.078-.001-.077.116 0 .12 1.757.087 3.553.082 5.296-.185.109-.017.084-.204-.027-.195z"/></g></svg>