<svg xmlns="http://www.w3.org/2000/svg" viewBox="0 0 48.985 48.985"><g fill="#1d1d1b"><path d="M5.743 17.144c-.053-.95-.159-1.891-.232-2.839-.026-.337-.249-.558-.586-.586-1.311-.109-2.642-.011-3.945.149-.368.045-.639.266-.659.658l-.184 3.762c-.019.39.263.584.563.591.064.088.148.161.267.172.874.083 1.756.088 2.633.111.567.015 1.385.164 1.848-.266.481-.447.328-1.163.295-1.752zm-2.144.859c-.329.033-.658.068-.987.103a39.49 39.49 0 0 0-1.239.149l.222-3.134a41.527 41.527 0 0 1 2.752-.2c.002.204.01.409.013.613-.683-.076-1.37-.115-2.056-.161-.169-.011-.164.243 0 .26.687.07 1.373.148 2.062.187.004.163.002.326.01.489l.016.287c-.778-.273-1.7-.174-2.472.037-.132.037-.075.237.059.207.85-.188 1.596-.064 2.429.01l.026.461c.002.033-.028.596.076.64-.218.06-.807.042-.911.052zM5.283 19.894c-.037-.196-.291-.209-.404-.078-.014-.011-.02-.028-.036-.037-.615-.332-1.356-.21-2.036-.193-.624.016-1.465-.104-1.985.279-.192.142-.192.378 0 .519.519.383 1.365.263 1.985.279.635.016 1.319.11 1.909-.147-.072.385-.116.775-.16 1.164-.746-.073-1.505-.026-2.253-.012-.192.004-.193.295 0 .299.735.014 1.481.059 2.215-.009a28.92 28.92 0 0 0-.11 1.586c-.583.061-1.159.098-1.753.041-.182-.018-.176.259 0 .281.578.072 1.166.093 1.739.001-.018.492-.031.983-.04 1.474-.785-.079-1.621.005-2.4.017-.17.002-.17.261 0 .264.778.011 1.611.095 2.394.017l-.013.624c-.009.389-.025.785-.039 1.178-.623-.049-1.246.039-1.851.201-.151.04-.087.268.065.234.596-.133 1.178-.152 1.778-.153l-.042 1.278c-.645-.035-1.32.006-1.941.066a.097.097 0 0 0 0 .193c.619.061 1.291.102 1.933.067-.013.423-.03.846-.033 1.269-.973-.055-1.941-.015-2.918-.151-.069-.01-.119.037-.135.09.103-3.25.11-6.536-.137-9.743-.032-.417-.602-.411-.643 0-.427 4.274-.412 8.705-.307 12.998.01.422.435.548.716.395.485.312 1.152.29 1.716.322.712.041 1.557.157 2.2-.185a.36.36 0 0 0 .193-.284c.131-.023.243-.114.274-.301.375-2.281.267-4.639.32-6.947.049-2.294.226-4.631-.201-6.896zM2.494 33.448c-.47.006-1-.077-1.46.047.045-.976.084-1.959.115-2.945-.01.05.009.102.076.114.951.164 2 .32 2.981.227 0 .406.003.811.019 1.215-.754-.038-1.551.038-2.272.08-.165.01-.165.247 0 .257.73.042 1.536.118 2.298.077.019.312.025.627.059.937-.573-.127-1.245-.016-1.816-.009zM27.316 3.785c-6.607-.01-13.358.235-19.89 1.302-3.37.55-6.919 1.759-6.571 5.784a.45.45 0 0 0 .226.359l-.082.016c-.568.112-.436 1.022.136 1.005.688-.02 1.376-.059 2.065-.051.637.007 1.288.09 1.91-.064.314-.078.406-.352.341-.597 5.115-3.236 12.556-2.899 18.393-2.714 2.891.092 5.781.299 8.661.557 3.448.309 8.958-.056 11.655 2.449-.195.224-.136.655.198.723 1.089.222 2.336.306 3.436.122.018-.003.03-.014.046-.018.3.197.763.146.862-.302 2.245-10.15-15.919-8.563-21.386-8.571zm20.348 7.778c-.837-.123-1.744-.099-2.605.02-.017-.037-.031-.075-.06-.11-1.766-2.125-4.123-2.167-6.733-2.476-4.477-.53-8.952-1.072-13.461-1.243-5.999-.228-15.006-.929-19.859 3.355-.954-.301-2.195-.177-3.254.007a.418.418 0 0 0 .069-.246c-.188-6.606 19.28-5.996 23.574-6.04 2.938-.03 12.52-.426 18.136 1.68a34.64 34.64 0 0 0-4.323-.09c-.967.04-3.225-.168-3.944.596a.1.1 0 0 0 .02.155l.094.06c.043.028.1.007.126-.033l.044-.068c.039-.06-.018-.128-.077-.132.31-.128 1.902-.076 2.277-.102a36.99 36.99 0 0 1 2.557-.084c1.524.003 3.032.13 4.547.279.761.397 1.405.86 1.889 1.402-2.152-.033-4.291-.078-6.439-.305-.105-.011-.131.171-.025.186 2.237.335 4.509.559 6.775.503.203.286.369.589.485.916a23.918 23.918 0 0 0-2.498.055c-.099.007-.1.148 0 .155.853.062 1.722.085 2.579.054a3.9 3.9 0 0 1 .106 1.506zM48.833 14.293c-.005-.354-.311-.503-.58-.459a.42.42 0 0 0-.303-.221c-.63-.102-1.258-.024-1.892.021-.614.043-1.233.06-1.841.163-.038.007-.057.037-.086.055-.107.003-.207.051-.231.198-1.055 6.375-.393 13.322-.127 19.75.021.511.57.664.905.473 1.124.355 2.978.548 3.781-.218.009-.009.009-.02.017-.029a.396.396 0 0 0 .34-.398c.153-6.447.102-12.89.017-19.335zm-4.321.196c.513.065 1.03.093 1.546.129.601.042 1.195.11 1.792.03-.002.26 0 .52 0 .78-.537-.113-1.119-.097-1.647-.05-.135.012-.14.219 0 .215.567-.019 1.101.073 1.647.157v1.314c-.828-.116-1.687-.109-2.517-.149-.185-.009-.179.268 0 .285.829.079 1.68.212 2.517.211.002.656-.002 1.313 0 1.97-.728-.087-1.511.02-2.213.162-.151.03-.084.25.063.227.732-.115 1.428-.072 2.151-.066.002.661-.002 1.323 0 1.984-.665-.005-1.332.015-1.996.025-.136.002-.136.209 0 .211.663.011 1.331.031 1.996.025.003.72-.005 1.44 0 2.159-.721-.023-1.46.035-2.171.043-.149.002-.15.23 0 .232.711.008 1.451.066 2.173.043.004.538.004 1.077.009 1.616-.991-.063-2.008-.033-2.999.013.027-3.879.053-7.769-.351-11.566zm1.906 18.903c-.504.042-1 .012-1.498-.014-.088-2.33-.075-4.688-.059-7.05.993.046 2.012.076 3.004.013.008.76.007 1.519.018 2.279-.752.075-1.505.244-2.245.371-.162.028-.091.267.067.244.72-.104 1.464-.174 2.181-.326.012.801.01 1.602.027 2.403-.858-.036-1.725.012-2.583.025-.131.002-.131.202 0 .204.86.013 1.729.061 2.588.025.012.551.019 1.101.034 1.652-.504-.045-1.027.132-1.534.174zM48.754 36.388c.039-.349-.159-.735-.612-.747-1.366-.035-2.715.111-4.052.372-.315-.222-.837-.172-.979.311-.374 1.266-3.869 2.202-5.09 2.578-2.001.617-4.243.843-6.323 1.017-2.885.241-5.769.034-8.648-.18-5.405-.401-14.414 1.229-17.662-3.982a.356.356 0 0 0-.374-.164c-.593-.316-1.357-.19-2.016-.187-.812.004-1.624-.003-2.428.118-.262.039-.345.211-.322.395-.106.049-.182.151-.174.305.647 11.729 14.16 8.764 22.584 8.64 6.042-.089 12.738.192 18.68-1.042 3.958-.822 7.12-2.787 7.646-7.022.022-.195-.083-.334-.23-.412zm-1.655 2.602c-1.525.053-3.103.458-4.599.717-.118.02-.092.224.028.211 1.393-.156 2.883-.22 4.268-.522a7.127 7.127 0 0 1-1.081 1.172c-6.924 1.056-13.862 1.655-20.85 2.078-.141.009-.144.222 0 .222 6.725-.039 13.408-.69 20.052-1.693-5.566 3.704-16.932 2.622-22.261 2.712-3.754.064-7.51.056-11.263-.062-2.611-.082-3.913-.238-6.367-1.546-3.088-1.646-3.209-2.932-4.165-5.859.709.081 1.422.09 2.136.094.602.003 1.289.103 1.857-.116 2.196 6.243 13.235 4.243 18.196 4.607 4.843.356 9.622.35 14.385-.698 2.264-.499 5.813-.884 6.764-3.339a53.17 53.17 0 0 1 3.746-.029 6.454 6.454 0 0 1-.846 2.051zM13.795 15.78c-.187-.071-.353 0-.47.126-1.454-.615-1.387 4.136-1.382 4.551.034 2.962.281 5.925.445 8.882.073 1.319-.26 3.204 1.025 3.996.159.098.424.117.58 0l.326-.244c.009-.007.01-.017.018-.024 2.22-.393 1.345-6.248 1.345-7.483.003-2.687 1.392-8.563-1.887-9.804zm.171 16.395c-.858-1.355-1.375-13.854-.388-15.377 1.738 1.062 1.019 5.995 1.024 7.571.002.697.026 6.748-.636 7.806z"/><path d="M20.307 34.821a.47.47 0 0 0-.147-.236c-.011-.123-.075-.247-.175-.298-.313-.158-.606-.056-.943-.1a2.048 2.048 0 0 1-.64-.204c1.135-.328 1.36-1.054 1.612-2.235.778-3.658.552-8.753.126-12.446-.553-4.798-4.17-7.288-9.064-6.146-5.433 1.268-4.019 9.958-4.08 14.053-.069 4.639 2.366 9.363 7.917 7.989a.489.489 0 0 0 .353-.336c.276 2.082 3.225 3.28 5.001 2.27.283-.161.291-.531.099-.745.08-.52.076-1.054-.059-1.566zm-2.581 1.306c-.863-.192-1.593-.742-1.847-1.608-.09-.307-.509-.282-.604-.016a.621.621 0 0 0-.119-.231c-.016-.018-.073-.123-.133-.131-2.653-.325-2.685.014-4.852-1.898-2.174-1.918-2.043-3.061-1.97-5.774.096-3.542-1.039-11.548 4.131-12.511 1.911-.356 3.943.318 5.306 1.706-.853-.03-1.735.028-2.568.069-.179.009-.179.269 0 .278.951.046 1.963.11 2.926.045a5.39 5.39 0 0 1 .936 1.661c-.822.062-1.623.202-2.462.168-.105-.004-.102.153 0 .162.801.069 1.726.117 2.534-.077.166.583.249 1.211.279 1.855-.41.005-.821.087-1.231.111-.47.028-.937.017-1.406-.017-.178-.013-.173.256 0 .274.814.086 1.831.17 2.645-.093.015.524.014 1.051.008 1.562-.591-.044-1.188-.019-1.78-.012-.219.002-.22.339 0 .341.591.006 1.188.032 1.778-.012-.001.153-.004.314-.003.462.002.22.015.556.031.952-.942-.064-1.924.002-2.855.032-.185.006-.186.282 0 .288.935.03 1.923.097 2.869.031.018.433.038.92.053 1.456-.792-.007-1.607.136-2.395.213-.146.014-.151.242 0 .232.791-.051 1.618-.045 2.401-.176.014.575.023 1.182.017 1.799-.908-.082-1.816-.015-2.732-.165-.191-.031-.276.258-.081.295.872.163 1.908.331 2.807.172a27.23 27.23 0 0 1-.086 1.838c-.008-.004-.012-.013-.022-.014-.868-.125-1.782-.044-2.657-.036-.204.002-.204.315 0 .316.875.008 1.789.089 2.657-.036l.002-.001c-.067.684-.166 1.32-.314 1.852-.829-.064-1.653-.061-2.484-.177-.166-.023-.243.224-.071.258.78.153 1.652.264 2.464.189-.239.707-.573 1.197-1.055 1.286a.472.472 0 0 0-.229.104c-.84-.091-1.718-.072-2.541-.113-.157-.008-.154.231 0 .243.78.059 1.602.176 2.406.2a.613.613 0 0 0 .057.287c-.111.093-.163.24-.049.391.357.475 1.162 1.021 1.85 1.006.019.069.03.137.047.206-.674-.098-1.347-.188-2.019-.335-.162-.036-.224.193-.068.248.668.236 1.433.423 2.172.46.031.141.072.282.097.423-.605-.029-1.229.099-1.84-.038zM27.381 14.634c.001-.234-.244-.339-.431-.288a.384.384 0 0 0-.346-.344c-1.264-.17-2.502-.103-3.751.157a.364.364 0 0 0-.212.133.355.355 0 0 0-.187.333c.143 6.274-.451 12.549-.465 18.825-.001.467.654.439.707 0 .736-6.156.515-12.274.578-18.45a79.332 79.332 0 0 1 3.199-.035.424.424 0 0 0 .22-.065c-.055.316-.101.636-.15.954-.712-.188-1.476-.183-2.201-.106-.161.017-.168.266 0 .257.738-.042 1.427.065 2.149.181a63.071 63.071 0 0 0-.563 5.608c-.529.082-1.034.141-1.584.079-.115-.013-.143.186-.028.204.519.081 1.072.113 1.597.018-.024.437-.051.873-.067 1.311-.501-.007-1.006.012-1.504.02-.183.003-.184.282 0 .285.495.008.996.027 1.494.021-.019.553-.042 1.105-.051 1.659-.656-.031-1.312-.005-1.969.013-.115.003-.116.176 0 .179.656.018 1.311.043 1.967.013-.01.79-.023 1.581-.014 2.37a30.112 30.112 0 0 0-1.778.005c-.188.005-.188.287 0 .292.593.015 1.187.026 1.78.005.009.684.024 1.366.046 2.047-.728.083-1.431.164-2.174.099-.182-.016-.177.262 0 .281.716.079 1.476.087 2.185-.086.016.466.03.933.051 1.398-.802-.032-1.612.002-2.412.017-.149.003-.15.229 0 .232.805.014 1.618.049 2.425.016.019.397.034.796.056 1.19-1.123-.034-2.266.1-3.374.253-.242.033-.242.455 0 .488 1.162.161 2.363.306 3.539.252.298.37 1.022.274 1.008-.325-.147-6.521.224-12.984.26-19.496zM41.456 14.396c-.381-.282-.886-.265-1.364-.308-.646-.059-1.295-.094-1.942-.137-.01-.001-.018.004-.028.004-.213-.156-.533-.161-.691.132-.885 1.64-1.499 3.474-2.13 5.257a137.299 137.299 0 0 0-2.341-4.957.306.306 0 0 0-.308-.168.348.348 0 0 0-.238-.193c-.536-.134-1.102.005-1.645.068l-1.794.208c-.329.038-.382.437-.153.572.004.018.001.033.008.052.945 2.641 1.858 5.297 2.867 7.915.342.886.656 2.426 1.469 3.136-.03.046-.068.088-.074.147-.234 2.427-.062 4.899 0 7.331.012.468.473.645.813.53 1.126.361 3.289.621 3.774-.354.355-.713.053-2.153.041-2.937a103.1 103.1 0 0 0-.133-3.602.663.663 0 0 0 .492-.405c1.554-3.81 3.053-7.779 3.764-11.844.053-.295-.169-.467-.387-.447zm-3.68 3.523c.635.163 1.342.286 2.012.232-.271.737-.538 1.476-.802 2.217-.242.016-.484.042-.728.053-.382.018-.764-.01-1.146.006-.165.007-.212.256-.04.297.52.125 1.174.17 1.759.078l-.575 1.611c-.583.003-1.171.071-1.752.091-.727.024-1.468-.035-2.191.038-.137.014-.192.224-.035.259 1.12.25 2.598.271 3.821.052-.185.519-.369 1.039-.558 1.556-.627-.027-1.269.018-1.89.034-.396.01-.985-.103-1.295.197-.035.034-.047.099-.018.141.06.088.075.096.175.138.026.011.062-.002.08-.021l.045-.046c.05-.051.014-.11-.038-.125.157-.018.514.05.638.054.32.01.64.016.961.022.393.007.792.02 1.19.017-.155.422-.305.845-.465 1.265a.406.406 0 0 0-.243.377c-.002.053-.001.107-.003.16-.495.058-.981.121-1.491.119-.154-.001-.192.237-.037.273a3.512 3.512 0 0 0 1.521.018l-.019 1.092c-.43-.021-.859-.02-1.292-.014-.235.003-.236.362 0 .366.431.007.857.007 1.286-.013-.007.495-.024.99-.026 1.485a9.326 9.326 0 0 1-1.44.059c-.093-.005-.117.153-.022.166.484.067.975.1 1.462.065-.001.483-.007.967-.002 1.45-.711-.05-1.42-.029-2.132-.016-.154.003-.154.236 0 .239.714.013 1.425.034 2.137-.016.017.285.118.856.009 1.065.09.354-.026.397-.35.131l-.529-.003a6.125 6.125 0 0 0-1.501.058c-.079-2.303-.097-4.637-.443-6.917.117-.099.143-.323-.011-.427-.478-.322-.732-2.258-.927-2.82-.289-.837-.598-1.669-.908-2.499-.691-1.853-1.406-3.698-2.111-5.546l.915-.004c.53-.002 1.104.07 1.607-.108a143.585 143.585 0 0 0 2.508 6.256c.208.488.857.251 1.007-.131.78-1.991 1.746-4.018 2.31-6.091.58.116 1.159.236 1.742.337.306.053.619.132.923.14-.072.18-.138.362-.209.543-.654-.048-1.32-.024-1.973.001-.222.009-.222.336 0 .345a19.74 19.74 0 0 0 1.837.007c-.205.527-.413 1.052-.609 1.583-.702-.013-1.366.015-2.072-.124-.149-.036-.215.188-.062.228z"/><path d="M25.951 19.243c-.525-.079-1.08-.034-1.609-.003-.167.01-.168.25 0 .26.53.031 1.083.076 1.609-.003.125-.018.126-.235 0-.254zM26.129 17.477c-.692-.14-1.493.041-2.169.207-.155.038-.088.266.065.237.693-.129 1.375-.07 2.065-.158.148-.018.216-.25.039-.286zM47.473 37.579c-.885-.193-1.845-.048-2.72.138-.242.052-.139.415.102.37.865-.163 1.704-.124 2.574-.18.178-.011.238-.286.044-.328z"/></g></svg>