<svg xmlns="http://www.w3.org/2000/svg" viewBox="0 0 49.125 49.125"><g fill="#1d1d1b"><path d="M23.568 17.846c-.465-.212-.917-.26-1.433-.003a1.865 1.865 0 0 0-.998 1.362c-.213 1.194.632 2.221 1.814 2.338 1.028.102 2.065-.599 2.111-1.682.036-.853-.604-1.878-1.494-2.015zm-.449 2.511c-.482-.025-.866-.334-.838-.849.027-.49.439-.86.902-.991.022.014.031.038.056.048.476.187.821.578.747 1.126-.062.455-.426.689-.867.666z"/><path d="M22.677 14.525c-.006-.001-.009.002-.015.002-5.393-1.1-7.314 10.627-.195 10.734 2.732.041 4.955-2.354 5.254-4.974.368-3.231-1.976-5.478-5.044-5.762zm3.879 6.161c-.474 1.854-2.096 3.446-4.089 3.386-2.162-.065-3.608-1.772-3.508-3.886.112-2.359 1.434-4.312 3.7-4.898.007.001.011.005.018.006 2.765.336 4.601 2.567 3.879 5.392z"/><path d="M43.969 39.16a.518.518 0 0 0 .45-.248c6.717-10.373 6.879-25.195-3.672-33.42C30.065-2.834 13.715-1.632 5.353 9.117c-7.567 9.726-7.27 24.516 1.905 33.104 4.334 4.057 10.15 6.536 16.079 6.832 5.289.263 12.449-.846 15.944-5.25 1.98.935 4.155 1.579 6.222 2.271.672.225 1.146-.566.863-1.123-.955-1.876-1.698-3.811-2.397-5.791zm.818-3.32c-1.792-.047-3.606.113-5.397.186-.205.008-.207.325 0 .32 1.736-.041 3.498-.007 5.23-.152a33.999 33.999 0 0 1-1.082 2.044c-.016-.053-.052-.1-.125-.104-2.314-.143-4.687.06-6.996.234-.13.01-.132.211 0 .204 2.332-.124 4.666-.048 6.996-.146.018-.001.026-.013.041-.018-.017.042-.034.083-.043.124-.462-.117-1.02.218-.859.826.097.366.206.729.319 1.091-3.578-.34-7.171-.573-10.771-.744a7.717 7.717 0 0 0 3.132-1.731c1.445-1.304 2.261-3.067 2.684-5.04.02.014.04.029.072.027 2.676-.124 5.339-.055 8.011-.085a32.886 32.886 0 0 1-1.212 2.964zM32.742 23.741c.157-.009.216-.24.041-.288-.03-.008-.06-.012-.089-.02a21.841 21.841 0 0 0-.238-1.503c-.009-.042-.04-.058-.06-.089a.473.473 0 0 0-.104-.24c-.324-.362-.849-.31-1.301-.33-.364-.016-.737-.018-1.103-.045-.017-.021-.029-.043-.053-.059 0-.406.01-.811.078-1.214.082-.492.254-.955.194-1.448 1.956-.064 3.91-.048 5.864-.163a.43.43 0 0 0-.028.206c.507 4.65 1.747 10.154.443 14.784-2.067 7.334-9.29 5.934-14.448 3.073-.529-.605-.732-1.593-.31-2.299.248-.415.706-.672 1.169-.77.235-.05 1.594-.113 1.586.326-.007.363.407.52.671.382 1.791 1.816 4.779 2.734 6.566.365.977-1.296 1.091-3.092 1.204-4.648.143-2.005.156-4.026-.082-6.02zm6.782 19.249c-.17-.203-.525-.288-.764-.088-.25.209-.519.386-.778.58.06-.119.009-.301-.168-.316-8.785-.733-17.613-1.111-26.417-1.546-.121-.006-.118.177 0 .186 8.794.672 17.604 1.404 26.417 1.778.028.001.04-.017.062-.023a20.583 20.583 0 0 1-6.538 3.235c-.029-.065-.077-.12-.169-.121-3.148-.028-6.297-.073-9.445-.059-.123.001-.122.185 0 .19 2.846.116 5.694.184 8.542.26-8.204 1.953-17.636-.584-23.324-6.69-8.412-9.029-7.546-23.284.735-32.072C15.569-.071 29.284-.833 38.735 5.518A301.832 301.832 0 0 0 21.2 4.752c-.197-.003-.197.301 0 .306 6.129.155 12.237.515 18.345 1.026.146.107.3.199.444.31a20.18 20.18 0 0 1 1.897 1.672c-6.289-.34-12.646-.171-18.936-.096-.174.002-.175.27 0 .271 6.43.022 12.881.304 19.309.206a19.683 19.683 0 0 1 1.539 1.814c-8.523.043-17.049.138-25.57.329-.144.003-.145.224 0 .225 8.63.048 17.265-.002 25.895-.106a19.242 19.242 0 0 1 1.873 3.326c-6.745-.088-13.504-.009-20.249.094-.149.002-.15.23 0 .232 6.799.098 13.612.173 20.412.076.355.862.657 1.741.892 2.639-2.697-.11-5.497.065-8.186.249-.155.01-.158.238 0 .243 2.728.076 5.571.139 8.294-.091.178.74.329 1.487.43 2.244-2.008-.145-4.117.128-6.097.39-.22.029-.226.378 0 .352 2.049-.238 4.097-.204 6.143-.357.059.505.107 1.012.133 1.522-3.126-.14-6.307.028-9.427.084-.167.003-.168.257 0 .26 3.125.056 6.311.225 9.442.084a25.47 25.47 0 0 1-.012 2.158c-2.556.018-5.139.234-7.684.385-.172.01-.176.274 0 .271 2.537-.052 5.116-.044 7.654-.228a27.968 27.968 0 0 1-.231 2.246c-2.014.1-3.981.307-6.018.179-.209-.013-.205.306 0 .323 1.926.162 4.014.28 5.954-.045a31.25 31.25 0 0 1-1.311 5.162c-2.697-.164-5.458-.003-8.145.192-.008.001-.011.008-.019.01.92-4.661-.331-10.45-1.014-14.299a.408.408 0 0 0-.187-.279c.095-.168.073-.396-.168-.451-2.31-.528-4.552-.371-6.855.117-.194.041-.271.213-.255.379-.03.017-.065.024-.089.049-.825.816-.642 2.726-.333 3.738.091.297.445.342.638.181.379.103.816.11 1.189.158.328.042.634.098.926.05-.003.296.001.593.002.89a12.67 12.67 0 0 0-3.103-.147c-.188.013-.191.306 0 .295a13.988 13.988 0 0 1 3.103.191c.001.533 0 1.066.003 1.599-1.205-.046-2.426.019-3.631.035-.16.002-.161.247 0 .25 1.204.017 2.424.081 3.629.035.002.689.005 1.379-.014 2.068-.016-.053-.054-.101-.118-.1-1.047.024-2.076.022-3.114-.135-.19-.029-.273.26-.08.292 1.072.174 2.149.248 3.229.102.047-.006.069-.037.082-.073-.019.649-.05 1.297-.107 1.945-1.224.142-2.434.233-3.68.159-.148-.009-.145.217 0 .229 1.215.1 2.451.097 3.658-.095-.046.504-.09 1.075-.189 1.65-1.445.355-2.849.657-4.345.683-.142.003-.143.222 0 .222 1.45-.001 2.94-.167 4.304-.684-.276 1.392-.915 2.702-2.732 2.798-1.358.072-2.572-1.104-3.698-1.681-.025-.013-.053-.017-.079-.024-.348-.309-.902-.471-1.349-.523-.863-.1-1.78.142-2.42.747-.883.836-.98 2.406-.189 3.243a.2.2 0 0 0 .079.188c1.589 1.255 3.524 2.358 5.546 2.978-4.84-.152-9.684-.222-14.508-.293-.163-.002-.163.249 0 .253 10.276.261 20.524 1.008 30.794 1.363.038.001.059-.018.084-.032.374 1.141.82 2.26 1.314 3.355-1.573-.457-3.171-.899-4.77-1.145z"/><path d="M34.133 45.302c-6.912-.702-14.036-1.053-20.983-1.087-.127-.001-.121.181 0 .193 6.912.723 14.034 1.155 20.983 1.21.208.002.199-.296 0-.316zM46.39 29.594c-1.815.03-3.605.198-5.425.13-.197-.007-.196.296 0 .306 1.797.091 3.685.166 5.466-.135.172-.029.129-.303-.041-.301z"/></g></svg>