<svg xmlns="http://www.w3.org/2000/svg" viewBox="0 0 48.455 48.455"><g fill="#b7b7b7"><path d="M25.328.052C12.591-.808 1.678 9.133.694 21.727c-1.015 12.98 8.738 25.081 21.597 26.47a.533.533 0 0 0 .215.075c12.973 1.632 24.131-7.837 25.241-20.839C48.88 14.154 38.891.968 25.328.052zm20.908 26.184c-1.227-.128-2.5-.08-3.729-.113-.18-.005-.177.267 0 .278 1.219.073 2.476.23 3.701.211-.061.892-.16 1.774-.322 2.636-1.409-.094-2.847-.011-4.254.007-.206.003-.206.317 0 .32 1.383.018 2.795.097 4.181.012-.178.877-.395 1.74-.67 2.578-1.683-.199-3.395-.241-5.084-.342-.254-.015-.251.376 0 .394 1.645.116 3.305.293 4.958.318a23.152 23.152 0 0 1-1.096 2.644c-1.74-.189-3.516-.184-5.262-.139-.183.005-.184.282 0 .285 1.696.024 3.385.14 5.078.207-.37.72-.766 1.424-1.207 2.096-2.222.039-4.448.2-6.671.246-.215.004-.215.332 0 .334 2.113.015 4.274.024 6.391-.16-.474.69-.972 1.362-1.517 1.992-2.388.205-4.741.444-7.147.428-.188-.001-.188.288 0 .292 2.248.048 4.55.01 6.787-.312-.441.484-.899.951-1.379 1.393-4.494.218-8.963.156-13.459.012-.089-.003-.087.13 0 .137 4.335.37 8.699.374 13.046.213-4.244 3.711-9.896 5.758-16.076 5.07a.395.395 0 0 0-.376.142C10.921 44.91 1.542 35.173 1.843 23.224 2.154 10.862 12.073.804 24.602 1.401c1.038.049 2.042.195 3.029.383-1.887-.002-3.784.223-5.627.559-.201.036-.115.339.084.305 2.518-.434 4.957-.461 7.495-.401 1.099.317 2.168.695 3.185 1.169-2.385-.075-4.84.111-7.17.294-.14.011-.207.196-.074.274.293.174.198.142.539.161.103.006.13-.167.025-.183 1.297.198 2.806-.06 4.115-.071 1.184-.01 2.379.049 3.566.029a22.286 22.286 0 0 1 3.599 2.362c-1.994-.075-4.014.024-6.004.043-.847.008-2.461-.418-3.042.357-.037.049-.014.119.021.16l.088.103c.09.106.261-.031.191-.147.062.101 4.602-.108 4.936-.105 1.432.015 2.881.077 4.313.008.904.776 1.75 1.619 2.526 2.527-2.436-.077-4.924.118-7.335.291-.172.012-.176.276 0 .271 2.566-.084 5.153.006 7.718-.093a24.073 24.073 0 0 1 1.903 2.69c-1.688.002-3.385.11-5.073.118-.133.001-.13.194 0 .204 1.723.127 3.544.211 5.275.036.453.777.872 1.576 1.238 2.404-.997-.082-2.042-.025-3.015-.053-.173-.005-.17.257 0 .267 1.037.065 2.147.229 3.207.214.259.616.5 1.24.709 1.878-1.186.012-2.373.147-3.566.128-.122-.002-.117.175 0 .186 1.179.117 2.486.213 3.673.022.27.868.51 1.748.683 2.65-1.147-.102-2.331-.039-3.479-.115-.173-.011-.169.251 0 .267 1.146.111 2.387.285 3.549.199.156.882.282 1.773.34 2.68-1.16-.115-2.379-.003-3.542.012-.201.003-.202.31 0 .313 1.168.015 2.393.129 3.558.011.035.686.046 1.376.022 2.071-.004.121-.02.238-.026.357z"/><path d="M15.1 15.855c-3.069.023-5.068 3.224-4.854 6.045.045.597.843.719 1.042.141l.145-.421c.002-.007-.003-.014-.003-.021.578-1.809 1.298-4.022 3.521-4.177 2.91-.202 3.636 2.573 4.518 4.684.262.626 1.331.638 1.295-.175-.131-2.942-2.531-6.099-5.664-6.076zM33.789 15.636c-3.01-.359-6.106 2.509-6.613 5.393-.058.331.05.565.31.763l.181.137c.062.047.15.03.213 0 .609-.29.661-.787.995-1.344.635-1.059 1.762-2.47 2.884-2.981 1.422-.647 3.056-.342 4.016.936.613.816.591 1.784.996 2.679.184.406.823.364 1.02 0 1.345-2.49-1.684-5.306-4.002-5.583zM33.76 44.662c-6.238-.772-12.959-.286-19.09-1.66-.152-.034-.216.194-.064.234 2.73.728 5.778.653 8.588.894 3.517.301 7.04.689 10.567.827.194.008.182-.272-.001-.295zM31.491 45.949c-3.264-.092-6.527.07-9.796-.073-.155-.007-.152.228 0 .239 3.228.227 6.567.465 9.796.157.204-.019.211-.317 0-.323z"/></g></svg>