<svg xmlns="http://www.w3.org/2000/svg" viewBox="0 0 47.396 47.396"><g fill="#b7b7b7"><path d="M28.074 27.897c.221-.182.269-.586-.033-.767-1.914-1.151-4.017-2.004-5.991-3.054-1.848-.983-3.733-2.463-5.768-2.989a.356.356 0 0 0-.084-.173c.058-.065.079-.154.015-.239l-.067-.089c-.065-.086-.185-.169-.3-.122l-.126.051c-.191.077-.305.275-.192.472.019.033.05.063.071.096-.006.023-.017.042-.019.068-.382 4.357-.356 8.793-.375 13.166-.001.308.224.463.46.474-.102.24.213.556.482.402 3.945-2.276 7.896-4.506 12.097-6.282.472-.2.252-.931-.17-1.014zm-10.731-.347c3.221.227 6.44.48 9.658.735-.864.372-1.725.747-2.57 1.152.017-.047.036-.093.044-.153.018-.139-.208-.196-.265-.072-.249.533-2.781.171-3.294.155-.959-.031-1.919-.061-2.878-.089-.159-.005-.158.239 0 .246 1.679.081 3.358.154 5.036.236.2.01.43.04.645.042-.75.372-1.502.741-2.234 1.145-1.389-.052-2.76-.038-4.146-.219-.117-.015-.145.188-.028.207 1.188.194 2.424.35 3.639.314a43.677 43.677 0 0 0-4.763 3.106c.001-.014.008-.023.009-.038.13-4.117.292-8.289.124-12.41 1.227 1.098 3.208 1.92 4.428 2.618.841.482 1.698.969 2.565 1.441-1.643-.41-3.441-.422-5.1-.301-.15.011-.153.242 0 .236 1.908-.084 3.691.225 5.571.479.072.01.121-.028.152-.075 1.134.595 2.293 1.141 3.485 1.558-3.36-.168-6.719-.339-10.077-.536-.144-.007-.142.213-.001.223z"/><path d="M42.095 27.349c-.618-3.682-4.415-5.633-7.439-7.227-4.055-2.136-8.061-4.064-11.921-6.519 2.992-1.081 6.414-2.585 8.324-5.208 1.012-1.391 1.708-4.015.261-5.211a.36.36 0 0 0-.004-.27c-1.587-4.015-5.81-3.2-9.057-1.583-3.723 1.851-7.326 4.047-10.859 6.235-1.832 1.135-3.653 1.944-4.329 3.848-.075-.004-.15.029-.171.126-1.482 6.795-1.279 14.106-1.358 21.033-.049 4.301-1.298 10.686 2.299 13.937a.554.554 0 0 0 .685.063c4.193 2.932 11.504-2.755 15.12-4.687 4.334-2.316 8.615-4.773 12.652-7.581 2.492-1.734 4.871-3.358 5.785-6.352a.397.397 0 0 0-.023-.286c.035-.093.055-.196.035-.318zM28.068 38.142a61.121 61.121 0 0 0-8.457-.416c-.136.003-.136.207 0 .211 2.62.075 5.212.273 7.811.566-.102.057-.209.116-.308.173-.659.375-1.514.906-2.496 1.513-.034-.027-.065-.058-.117-.064a236.33 236.33 0 0 0-10.498-.908c.007-.017.019-.029.024-.047 2.912-1.098 5.668-2.722 8.382-4.312 3.232.372 6.468.722 9.705 1.044-1.397.803-2.785 1.544-4.046 2.24zM13.593 17.517c2.826.328 6.856 3.586 9.079 4.876a102.861 102.861 0 0 1 8.555 5.575c-.696 1.521-4.237 2.881-5.646 3.667-1.634.913-3.271 1.821-4.903 2.738-2.243 1.26-4.558 2.474-6.635 4.005-.172-6.934.013-13.95-.45-20.861zm27.156 11.01c-2.756-.337-5.598-.341-8.368-.466-.189-.008-.185.277 0 .292 2.682.215 5.418.55 8.116.579-1.147 1.797-2.88 3.348-4.825 4.719-2.597-.567-5.369-.699-8.013-.7-.146 0-.144.217 0 .225 2.549.141 5.048.5 7.575.785a47.056 47.056 0 0 1-2.817 1.766c.007-.115-.059-.243-.207-.257a646.287 646.287 0 0 0-9.425-.832c.731-.428 1.46-.853 2.188-1.26 2.045-1.146 7.133-2.585 7.187-5.35.001-.045-.01-.081-.018-.119.204-.243.266-.605-.022-.835-3.487-2.773-7.339-4.976-11.244-7.101-2.001-1.089-4.98-3.635-7.458-3.055-.175-.121-.441-.112-.478.149l-.002.017c-.134.086-.156.279-.042.364-.931 7.049-.574 14.487.011 21.544.005.059.024.108.041.157-.986-.062-1.971-.123-2.957-.177-.134-.007-.132.197 0 .207 1.08.086 2.157.196 3.235.292a.62.62 0 0 0 .447.04c3.457.314 6.911.661 10.363 1.035-.889.547-1.86 1.138-2.884 1.727-4.252-.483-8.641-.514-12.911-.455-.1.001-.099.15 0 .155 4.085.207 8.194.534 12.284.656a47.826 47.826 0 0 1-3.373 1.746 362.509 362.509 0 0 0-9.088-.478c-.121-.005-.118.177 0 .186 2.786.232 5.577.439 8.368.609-.575.249-1.144.467-1.706.664-1.579-.06-3.153-.082-4.734-.272-.099-.012-.124.161-.024.176 1.225.182 2.493.346 3.757.415-1.919.553-3.686.695-5.036.073-.015-.017-.02-.036-.037-.053-3.65-3.524-1.96-13.373-1.843-17.897.129-4.973.682-10.016.501-14.994.137.028.274-.111.237-.252l-.04-.156a.117.117 0 0 0-.194-.051C10.46 9.102 25.917-2.283 30.232 2.902a.413.413 0 0 0-.107.236c-1.553-.29-3.194-.306-4.741-.252-.194.007-.195.303 0 .302 1.651-.005 3.243.231 4.86.435.221.63.391 1.208.386 1.811-2.52-.421-5.151-.478-7.691-.549-.188-.005-.187.282 0 .292 2.562.13 5.106.49 7.66.66-.035.242-.094.49-.198.751-.461 1.162-1.452 2.011-2.427 2.743-.21.157-.434.299-.65.45-2.954-.304-5.97-.325-8.935-.44-.182-.007-.179.269 0 .281 2.792.192 5.621.467 8.426.511-.661.439-1.335.863-2.027 1.263-3.299-.043-6.6.019-9.899.041-.215.001-.215.333 0 .334 3.054.02 6.111.067 9.165.041-.679.38-1.361.753-2.037 1.117a.385.385 0 0 0-.149.148c-.287-.056-.526.346-.296.588.177.185.378.354.568.529-2.066-.075-4.144-.138-6.203-.088-.171.004-.168.251 0 .264 2.202.166 4.432.205 6.645.236 1.119.942 2.425 1.749 3.818 2.495-2.428-.256-4.887-.381-7.316-.539-.157-.01-.153.227 0 .243 2.704.279 5.439.608 8.159.739 1.142.58 2.325 1.132 3.504 1.689-2.655-.153-5.344-.099-7.99-.077-.174.001-.174.269 0 .271 2.984.037 5.976.248 8.96.27 3.24 1.558 6.328 3.247 8.191 5.866-2.414-.315-4.937-.301-7.357-.292-.177.001-.176.267 0 .274 2.544.108 5.105.401 7.648.444.328.515.626 1.053.854 1.644.022.057.055.099.086.143a8.36 8.36 0 0 1-.39.751z"/><path d="M38.325 30.889c-2.641-.316-5.395-.172-8.047-.044-.144.007-.146.227 0 .225 2.685-.044 5.367.163 8.047.135.209-.002.197-.293 0-.316zM36.754 22.614c-3.106-.382-6.32-.337-9.448-.44-.173-.006-.17.256 0 .267 3.122.208 6.319.573 9.448.499.216-.004.203-.301 0-.326zM29.225 7.467c-4.036-.533-8.172-.651-12.235-.902-.144-.009-.14.208 0 .221 4.055.4 8.162.944 12.235 1.06.252.008.235-.348 0-.379z"/></g></svg>