<svg xmlns="http://www.w3.org/2000/svg" viewBox="0 0 48.829 48.829"><g fill="#1d1d1b"><path d="M45.413 23.585c-1.473-1.142-3.219-1.842-4.968-2.437-.949-.323-2.636-.527-3.41-1.219-1.065-3.304-.406-4.877 1.979-4.717 1.659.064 2.771.907 3.334 2.527a.402.402 0 0 0 .169.204c-.05.26.093.549.431.533.896-.044 1.788-.189 2.671-.342.892-.153 1.823-.241 2.626-.679a.577.577 0 0 0 .305-.543c.232-.174.372-.483.207-.818-3.491-7.091-14.482-7.444-18.743-.686-1.507 2.389-1.427 5.587.113 7.954 2.403 3.69 9.866 2.648 11.467 6.484-1.552 1.892-3.395 2.711-5.53 2.452-1.809.132-3.266-.513-4.371-1.937-2.142-1.757-2.701-3.375-3.569-5.909-.915-2.672-1.986-5.273-3.69-7.555-2.563-3.432-6.137-5.81-10.315-5.946a.479.479 0 0 0-.258-.155C3.769 8.395-1.181 19.759.239 28.059c1.702 9.946 13.72 13.054 21.214 6.982.271.013.553-.274.474-.569-.2-.752-.633-1.46-.931-2.181a43.455 43.455 0 0 1-.839-2.233c-.004-.011-.011-.017-.016-.028l.01-.028c.045-.169-.166-.303-.296-.186a.347.347 0 0 0-.357.299c-1.473 1.2-4.705 2.168-6.419 2.093-3.875-.169-4.594-2.832-5.255-5.665-.972-4.164.046-10.137 5.027-11.23 7.739.156 7.013 10.775 9.829 15.884 2.181 3.958 5.749 6.347 10.192 6.994 5.609.817 16.743-1.247 15.665-8.55.812-2.147-1.637-4.903-3.124-6.056zm2.068 7.366c-1.237-.132-2.577.01-3.809.043-.14.004-.141.214 0 .218 1.207.032 2.515.166 3.729.049-.447 1.903-1.674 3.295-3.337 4.247-.015-.006-.023-.019-.042-.02-4.292-.323-8.64-.235-12.943-.287-.098-.001-.097.147 0 .151 4.156.174 8.346.473 12.508.41-3.512 1.764-8.587 1.814-12.109.901-6.577-1.704-8.466-7.357-9.954-13.18-1.105-4.326-3.412-9.457-8.432-8.875-2.832-.509-4.543 1.877-5.685 4.215-1.624 3.326-1.11 6.644-.033 10.079.907 2.891 2.576 4.517 5.706 4.492a13.44 13.44 0 0 0 2.926-.368c.009.003.014.01.025.009 1.275-.062 2.627-.006 3.884-.227.128-.023.09-.212-.03-.218-.981-.047-1.999.078-2.996.183 1.113-.37 2.134-.924 2.749-1.743.245 1.243.653 2.584 1.361 3.589-6.863 2.286-15.742 4.283-18.944-4.525C-.889 21.995 3.404 10.6 13.321 11.755c6.961.875 11.165 5.886 13.469 12.342.961 2.692 1.615 5.739 3.95 7.633 2.815 2.285 12.605 3.744 11.99-1.917-.002-.015-.009-.026-.012-.041-.283-3.603-4.896-3.903-7.962-4.856-6.334-1.968-5.768-9.055-.34-11.748 4.111-2.04 8.855-1.599 11.825 1.602a83.255 83.255 0 0 0-11.132-1.508c-.103-.007-.129.168-.025.183 3.858.568 7.701 1.183 11.551 1.797.27.333.529.683.761 1.068-.084.012-.166.04-.249.056-.001-.066-.03-.133-.102-.153-.964-.266-2.031-.297-3.024-.292-.177.001-.177.271 0 .274.9.018 1.767.159 2.651.277-.407.107-.811.228-1.213.34-.775.216-1.556.419-2.323.666-.496-3.325-5.215-4.188-7.446-2.046a72.881 72.881 0 0 0-2.861-.239c-.181-.012-.173.257 0 .278.852.104 1.713.201 2.574.28a3.596 3.596 0 0 0-.571.934c-.081.2-.136.395-.175.586-.787-.002-1.582.043-2.355.062-.161.004-.161.246 0 .25.756.019 1.534.062 2.304.062-.081 1.042.411 1.945 1.167 2.654a19.936 19.936 0 0 0-2.598-.013c-.15.008-.152.241 0 .236 1.014-.035 2.006.03 3.005.125.336.257.7.486 1.083.672 1.301.629 2.697.954 4.048 1.444-1.644-.25-3.336-.311-4.986-.329-.132-.002-.131.199 0 .204 1.945.066 3.844.342 5.775.54.051.005.084-.022.108-.057.243.108.484.225.721.355.976.535 1.898 1.167 2.675 1.972A6.968 6.968 0 0 1 46.9 27.13c.128.228.24.462.341.699-.012-.006-.016-.017-.032-.02-1.358-.256-2.857-.149-4.237-.194-.18-.006-.177.266 0 .278 1.364.087 2.835.34 4.196.217.069-.006.115-.059.135-.118.081.2.159.401.227.606a7.726 7.726 0 0 1-.049 2.353z"/><path d="M20.225 33.877c-3.553.271-7.099.531-10.66.692-.094.004-.096.147 0 .148 3.559.014 7.128-.161 10.66-.608.144-.019.152-.244 0-.232zM45.769 33.593c-2.49-.091-5.018.201-7.52.17-.164-.002-.162.245 0 .253 2.449.125 5.135.29 7.553-.178.143-.028.103-.24-.033-.245zM45.11 25.19c-1.479-.216-3.087-.254-4.58-.225-.085.002-.112.142-.021.155 1.475.217 3.072.39 4.561.363.161-.002.213-.268.04-.293z"/></g></svg>