<svg xmlns="http://www.w3.org/2000/svg" viewBox="0 0 49.745 49.745"><g fill="#b7b7b7"><path d="M12.832 6.387l-.36.027c-.104-3.697-3.148-7.6-7.109-6.074a.447.447 0 0 0-.27-.028C1.941 1.018-.038 4.652.922 7.706c1.071 3.409 4.84 5.054 8.143 3.914 2.42-.835 3.417-2.893 3.406-5.049.127-.015.255-.022.381-.04.081-.01.063-.151-.02-.144zm-1.505.109c-1.395.086-2.785.122-4.191.053-.092-.004-.092.138 0 .143 1.384.078 2.777.09 4.161-.006-.078.544-.213 1.077-.448 1.562-1.589-.013-3.18.012-4.768.022-.067 0-.067.103 0 .103 1.561.01 3.124.034 4.686.023-.169.32-.364.624-.602.894-2.074.022-4.126.033-6.197-.139-.09-.007-.088.13 0 .139 2.003.199 4.04.297 6.051.151a4.091 4.091 0 0 1-2.001 1.142c-2.573.616-5.332-.873-6.028-3.468-.737-2.746 1.154-4.87 3.474-5.926.024-.012.037-.029.057-.042 1.77-.243 3.61.239 4.746 1.564-1.774-.21-3.585-.14-5.365-.108-.07.001-.071.109 0 .11 1.852.021 3.685.043 5.526.216.263.35.495.737.653 1.195.052.149.089.302.126.454-1.64.099-3.254.07-4.889-.167-.09-.013-.13.124-.038.138 1.647.262 3.307.339 4.966.18.123.583.144 1.182.081 1.767zM5.833 17.003c1.531.009 3.055.134 4.584.171.573.014.731-.934.139-1.025-2.68-.414-6.119-.706-8.739.125-.115.037-.181.144-.207.257a.387.387 0 0 0-.509.336C-.032 27.22.272 37.966.397 48.372c0 .036.014.063.02.095a.389.389 0 0 0 .323.524c3.007.367 6.495 1.003 9.506.604.419-.056.592-.673.108-.798-2.762-.709-6.042-.574-8.944-.541.035-10.429.722-20.945.429-31.36 1.316.208 2.663.099 3.994.107z"/><path d="M10.885 17.044c-.019.426-.043.86-.064 1.29-2.181-.401-4.444-.419-6.645-.262-.078.005-.079.127 0 .122 2.249-.123 4.416.072 6.635.328-.039.781-.076 1.561-.116 2.345-1.816-.118-3.636-.192-5.452-.281-.099-.005-.098.148 0 .154 1.812.112 3.628.238 5.443.321l-.105 2.125c-1.357-.044-2.721-.006-4.078.011-.121.002-.121.186 0 .188 1.353.017 2.715.055 4.068.011-.051.996-.098 1.98-.148 2.978-1.377-.019-2.755.002-4.131.01-.09 0-.09.139 0 .139 1.373.008 2.749.028 4.123.01-.036.719-.075 1.434-.108 2.154-1.551-.072-3.112-.005-4.657.13-.076.007-.078.126 0 .12 1.554-.116 3.096-.111 4.649-.079-.03.649-.068 1.296-.094 1.945-2.077-.044-4.156-.036-6.232-.043-.09 0-.09.138 0 .139 2.074.029 4.151.075 6.226.067-.039 1.006-.08 2.011-.106 3.017-.004-.001-.002-.007-.007-.007-1.696-.009-3.372-.034-5.058-.228-.092-.011-.09.132 0 .143 1.675.208 3.372.331 5.058.218.003 0 .002-.005.005-.005-.028 1.149-.063 2.299-.064 3.446-1.385-.028-2.773-.004-4.157-.001-.1 0-.101.156 0 .156 1.385.003 2.773.028 4.158-.001 0 .757.001 1.513.015 2.268-1.954.006-3.907.056-5.86.093-.06.001-.06.093 0 .093 1.954-.021 3.909-.029 5.862-.08.011.555.015 1.111.035 1.665-1.19-.091-2.384-.15-3.576-.219-.102-.006-.101.152 0 .158 1.194.079 2.389.168 3.584.224.038 1.016.085 2.032.158 3.044-1.254.019-2.495.004-3.753-.139-.07-.008-.069.101 0 .11 1.242.149 2.508.232 3.762.176.108 1.46.252 2.915.446 4.361.06.448.806.34.787-.106-.404-9.458.007-18.873.367-28.316l.001-.013c.05-1.325.1-2.651.146-3.978.026-.721-1.085-.718-1.117-.001zM44.638 18.607c-4.975-5.293-13.881-4.571-17.608 1.701.117-.468.144-.964.184-1.441.041-.487.163-1.032.085-1.523.327-.08.429-.584.041-.67-3.044-.671-6.657-1.086-9.756-.858-.373.028-.563.455-.415.726-.485.994-.31 2.172-.342 3.282-.092 3.201-.038 6.412-.042 9.614-.007 6.089-.009 12.177-.039 18.266a.53.53 0 0 0 .037.185c-.246.196-.247.59.039.757 1.275.744 2.712.638 4.148.641 1.884.005 3.872.207 5.724-.163.417-.083.418-.761 0-.844-2.918-.578-6.004.246-8.918-.354a.55.55 0 0 0 .045-.223c.002-5.127.024-10.254.046-15.382.011-2.564.027-5.127.032-7.691.002-.881-.486-6.402-.073-7.817 2.692.565 5.796.724 8.579.597-.091.303-.111.633-.127.956-1.953-.018-3.906.002-5.859.016-.075 0-.075.115 0 .116 1.95.014 3.901.034 5.851.016l-.013.222c-.047.624-.087 1.274.097 1.879.069.225.306.268.465.161.027.26.357.462.574.222 5.142-5.669 11.543-5.492 15.716-1.413a585.088 585.088 0 0 0-8.138-.637c-.104-.008-.102.151 0 .16 2.797.259 5.599.517 8.401.734.673.7 1.289 1.493 1.82 2.396-2.674-.441-5.408-.682-8.1-.884-.082-.006-.079.118 0 .127 2.75.303 5.494.704 8.244 1.003.413.735.777 1.528 1.079 2.382-2.489-.085-4.944-.252-7.417-.629-.095-.015-.137.13-.04.146 2.484.419 5.007.677 7.528.681.192.565.36 1.152.498 1.764.075.331.122.663.185.994a31.106 31.106 0 0 1-6.01-.825c-.054-.013-.11.062-.059.102.192.147.382.299.567.454.052.043.127-.032.075-.075-.684-.561.428-.095.702-.035.59.129 1.184.236 1.781.322a26.09 26.09 0 0 0 2.981.252c.206 1.123.37 2.246.473 3.369-1.282-.152-2.57-.256-3.855-.376-.069-.006-.068.1 0 .108 1.287.139 2.576.296 3.867.403.079.891.14 1.783.171 2.674-1.277-.127-2.559-.215-3.838-.318-.072-.006-.071.106 0 .112 1.28.11 2.56.236 3.842.322.036 1.087.047 2.174.039 3.263a23.001 23.001 0 0 1-3.434-.228c-.076-.011-.108.104-.032.116 1.148.177 2.305.269 3.465.243a188.33 188.33 0 0 1-.04 2.6c-.997.011-1.982-.036-2.975-.199-.074-.012-.107.1-.031.114.993.177 1.997.266 3.003.233-.017.795-.035 1.59-.05 2.387-1.467-.163-2.944-.267-4.414-.394-.072-.006-.071.105 0 .112 1.469.143 2.939.311 4.411.418-.016.865-.027 1.731-.026 2.598-2.175.005-4.305-.097-6.474-.433-.055-.009-.08.075-.024.085 2.136.386 4.324.578 6.498.499.002.707.011 1.414.033 2.122.001.027.01.045.015.069-2.653-.936-6.12-.538-8.964-.144.096-5.703.648-11.711.046-17.364-.325-3.059-1.398-5.345-4.568-5.982a.3.3 0 0 0-.146.01c-3.162-1.099-5.138.343-6.336 2.991-.932-.038-1.875.003-2.807.019-.076.001-.076.117 0 .118.909.016 1.828.053 2.738.02a15.018 15.018 0 0 0-.828 2.575c-.71.03-1.418.088-2.127.124-.045.002-.045.071 0 .07.697-.023 1.395-.025 2.092-.053a27.983 27.983 0 0 0-.509 3.224c-1.028-.049-2.061.053-3.072.235-.083.015-.047.139.035.126 1.011-.164 2.007-.196 3.02-.193a43.447 43.447 0 0 0-.19 3.132c-1.163.109-2.307.171-3.476.083-.081-.006-.08.12 0 .126 1.156.097 2.325.098 3.473-.086-.019.83-.018 1.659-.001 2.472a4.738 4.738 0 0 1-1.559.032c-.072-.01-.103.099-.03.11a4.588 4.588 0 0 0 1.591-.028c.026 1.144.084 2.255.16 3.296-.935.007-1.852-.038-2.776-.207-.079-.014-.114.107-.034.122.93.177 1.874.266 2.82.215.059.788.129 1.537.205 2.223-1.003.059-2.004.131-3.007.203-.071.005-.072.116 0 .112 1.007-.063 2.014-.126 3.02-.202.086.767.179 1.46.271 2.046-1.808.066-3.592-.019-5.382-.313-.041-.007-.059.056-.017.063 1.795.316 3.596.44 5.415.345.085.534.17.988.247 1.321.063.273.49.212.487-.066-.061-5.107-2.972-26.137 7.095-23.341 5.176 3.442 3.028 17.475 3.043 22.881.001.461.462.616.787.474a71.153 71.153 0 0 1 4.455.002c1.546.055 3.215.352 4.743.15.361-.048.532-.386.427-.653a.402.402 0 0 0 .394-.36c1.112-8.279 2.389-22.517-3.927-29.237z"/><path d="M9.859 46.631a26.28 26.28 0 0 1-5.675.427c-.071-.002-.07.104 0 .11 1.916.144 3.836.016 5.711-.404.087-.02.05-.148-.036-.133z"/></g></svg>