<svg xmlns="http://www.w3.org/2000/svg" viewBox="0 0 49.356 49.356"><g fill="#b7b7b7"><path d="M20.381 43.501a5.068 5.068 0 0 0-.118-.029c-.111-.78-.27-1.55-.437-2.229-.082-.333-.527-.225-.559.076l-.001.012a.356.356 0 0 0-.22-.136c-1.291-.242-2.656-.103-3.969-.11-1.301-.007-2.609-.067-3.91-.022a.672.672 0 0 0 .046-.245c-.003-.185 0-.371-.003-.557.222-.028.447-.046.668-.08.148-.024.114-.271-.036-.263l-.633.038c-.15-12.516.934-25.169.341-37.642-.012-.264-.324-.397-.524-.307-.053-.262-.245-.492-.593-.494-3.136-.023-6.283-.117-9.413.092a.52.52 0 0 0-.497.44.322.322 0 0 0-.15.271c-.604 14.568-.434 29.6.222 44.167.018.408.359.586.667.547a.467.467 0 0 0 .169.055c6.034.736 12.26.909 18.334.742.68-.019.678-1.026 0-1.055-5.982-.256-12.017-.498-18.007-.497.345-14.392.202-29.222-.68-43.594 1.224.345 2.783.132 4.022.135 1.778.004 3.556-.017 5.333-.028a.593.593 0 0 0 .376-.136c-.096.687-.18 1.377-.256 2.069-2.782-.588-5.877-.591-8.652-.115-.119.021-.091.216.029.211 2.933-.124 5.68.146 8.578.347-.055.523-.11 1.047-.159 1.572a23.48 23.48 0 0 0-5.332.058c-.214.027-.22.365 0 .341a23.02 23.02 0 0 1 5.293.043c-.057.631-.118 1.26-.167 1.892-1.083-.087-2.188-.051-3.272-.065-.608-.009-1.684-.27-2.215.084-.045.03-.086.083-.081.141l.012.131c.006.068.044.131.114.149l.106.028c.189.049.25-.215.079-.285.728.298 1.901.141 2.688.171.841.031 1.694.094 2.538.075-.052.706-.118 1.408-.16 2.116-2.713-.259-5.53-.066-8.254-.07-.159 0-.158.242 0 .246 2.715.076 5.519.349 8.232.172a171.616 171.616 0 0 0-.144 3.055c-1.97-.21-4.009-.116-5.989-.151-.186-.003-.185.281 0 .288 1.974.078 4.002.289 5.977.192-.023.65-.053 1.299-.07 1.951-1.442-.031-2.891.028-4.334.047-.17.002-.17.261 0 .264 1.44.02 2.886.078 4.326.047-.022.896-.049 1.791-.06 2.688-1.489-.042-2.928-.064-4.424-.282-.167-.024-.246.219-.072.261 1.424.344 3.01.533 4.493.402-.007.71-.013 1.42-.015 2.13-2.274-.116-4.612-.174-6.872-.048-.128.007-.125.184 0 .197 2.254.231 4.594.281 6.873.27-.001.813 0 1.627.005 2.44-1.39-.218-2.861-.191-4.258-.27-.162-.009-.158.236 0 .25 1.396.12 2.853.361 4.26.337.005.711.009 1.422.017 2.133-1.226-.088-2.472-.021-3.699-.002-.608.01-1.251-.041-1.854.03-.222.026-1.087.371-.611.015.071-.053.006-.173-.071-.122l-.402.155c-.11.017-.075.179.025.185 2.152.14 4.457.233 6.617.052.012.996.025 1.991.04 2.984-1.378-.095-2.823.041-4.173.254-.12.019-.093.225.029.214 1.394-.128 2.759-.112 4.149-.12l.025 1.609c-2.082-.002-4.201.135-6.273.205-.155.005-.152.227 0 .239 2.022.158 4.222.195 6.279-.054.02 1.186.04 2.37.058 3.548-1.239.08-2.461.166-3.712.108-.148-.007-.146.218 0 .229 1.223.083 2.487.118 3.717-.014.012.786.025 1.576.034 2.357-1.365.079-2.726.143-4.104.128-.157-.002-.155.235 0 .243 1.354.068 2.739.077 4.108-.012l.006.424a.637.637 0 0 0 .44.623c.001.131.061.26.227.306 2.493.695 6.057 1.061 8.547.282a.402.402 0 0 0 .173-.131 21.57 21.57 0 0 0-.075 1.614c-1.888-.473-4.738.012-6.485-.042a136.51 136.51 0 0 1-7.646-.453c-.1-.009-.098.145 0 .155 4.698.491 9.405.784 14.128.766.012.817.084 1.625.274 2.344.149.562.88.378.943-.128.084-.683.05-1.447-.037-2.213h.002c.247-.006.309-.379.059-.441zM49.103 23.162c-.028-6.732.849-14.114-.505-20.716-.025-.12-.211-.119-.242-.004a.634.634 0 0 0-.263-.098c-1.325-.166-2.747.055-4.085.081-1.363.026-2.722.035-4.083.098-.02.001-.03.018-.049.021-.162-.082-.37-.062-.401.162-.651 4.716.06 9.434-.077 14.178-1.564-4.56-3.181-9.101-4.918-13.598.212-.378.03-.967-.547-1.014-2.041-.167-4.106-.169-6.153-.197-1.497-.02-2.974-.137-4.373.394-.021-.049-.035-.098-.057-.147-.043-.094-.17-.036-.177.048-.005.065-.007.131-.012.196-.102.057-.104.218-.018.292-1.085 14.458-.423 29.277-.354 43.79a.644.644 0 0 0 .1.34c.03.185.17.36.388.364 2.825.043 5.667.011 8.491-.068.678-.019.753-.893.24-1.132.242-6.283.421-12.952-.129-19.297 2.15 5.341 6.191 18.752 6.729 20.365.174.521.772.542 1.081.265 2.336.195 4.669.216 7.016.161 1.288-.03 2.501-.183 2.541-1.678a.487.487 0 0 0-.041-.207c.33-7.502-.07-15.087-.102-22.599zM24.14 46.431c.026-5.959.013-11.919-.001-17.878.021.046.056.084.121.085 2.104.034 4.186.259 6.28.38-.032.694-.068 1.386-.086 2.084-1.302-.037-2.62.033-3.92.057-.174.003-.174.267 0 .271 1.297.024 2.612.094 3.912.057a120.35 120.35 0 0 0-.028 1.904c-1.131-.097-2.287.004-3.404.167-.161.024-.125.306.039.287 1.13-.134 2.238-.116 3.367-.096-.002.756-.003 1.513.007 2.27-1.415.075-2.831.251-4.243.373-.178.015-.181.295 0 .281 1.414-.105 2.84-.155 4.25-.307.015.992.033 1.984.063 2.973-1.902-.1-3.824.016-5.715.192-.158.015-.162.261 0 .25 1.913-.133 3.813-.104 5.726-.095.018.544.028 1.091.049 1.632-1.446-.035-2.936.146-4.371.221-.144.007-.146.229 0 .225 1.44-.038 2.942.021 4.385-.126.026.631.052 1.261.082 1.887-1.362-.08-2.763.022-4.118.039-.19.002-.19.293 0 .295 1.361.017 2.769.12 4.137.038.035.725.07 1.45.108 2.166a39.199 39.199 0 0 0-6.64.368zm19.312.008a43.842 43.842 0 0 0-3.646.303c-2.082-6.738-4.28-13.495-6.813-20.077-.21-.546-.709-2.15-1.428-2.578-.099-.331-.497-.346-.624-.044a1.252 1.252 0 0 0-.43.335c-.114.129-.005.333.169.291.042-.01.096.028.155.087-.04.391-.069.787-.101 1.182-1.327-.156-2.713-.103-4.026-.031-.184.01-.187.291 0 .288 1.341-.022 2.659.117 3.987.194-.054.73-.101 1.463-.139 2.199-2.075-.268-4.219-.266-6.297-.249-.066 0-.101.039-.122.085-.006-2.457-.012-4.913-.015-7.37-.004-3.938.01-7.876-.012-11.813-.012-2.161.19-4.183-.471-6.169 1.321.464 2.73.391 4.142.425 2.015.047 4.041.145 6.056.105.116.478.253.951.381 1.426-1.891-.512-4.006-.589-5.935-.649-.166-.005-.164.247 0 .257 2.037.116 4.016.546 6.032.756.073.264.136.53.212.794a37.06 37.06 0 0 0-7.094-.22c-.185.012-.184.304 0 .288l.452.106c.087.054.151-.055.101-.125.173.086.372.1.602.024.647.097 1.365.02 2.022.051 1.36.064 2.708.207 4.06.353.227.769.461 1.536.708 2.3-2.168-.255-4.399-.261-6.571-.382-.195-.011-.192.287 0 .302 2.215.172 4.478.479 6.706.498.26.793.527 1.585.803 2.373-2.807-.428-5.73-.632-8.558-.66-.125-.001-.118.176 0 .19 2.885.338 5.807.665 8.705.885.173.491.344.984.521 1.474-2.111-.212-4.327-.174-6.427-.161-.188.001-.183.273 0 .288 2.148.174 4.419.389 6.59.319.29.797.58 1.595.874 2.389-2.145-.44-4.418-.505-6.589-.335-.158.012-.162.255 0 .25 2.296-.074 4.468.147 6.735.483.342.924.683 1.848 1.019 2.77.004.012.014.019.018.03-.015.125-.018.251-.035.376-.086.651.866.669 1.067.144 1.99-5.202.372-11.467-.123-16.884 1.511.349 3.273.61 4.969.596-.653.029-1.303.065-1.934.076-.258.004-.258.397 0 .401 1.559.026 3.236.226 4.781.012a.164.164 0 0 0 .112-.071 38.568 38.568 0 0 0-.315 2.615c-1.394-.142-2.863.011-4.231.18-.229.028-.237.388 0 .366 1.404-.134 2.802-.066 4.201-.118a57.04 57.04 0 0 0-.14 2.728c-.939.174-1.851.367-2.833.374-.229.002-.229.35 0 .355.894.02 1.903-.011 2.814-.234a82.842 82.842 0 0 0-.01 2.443c-.964-.007-1.943.145-2.86.387-.196.052-.113.341.083.302.943-.189 1.852-.24 2.783-.248.011.863.029 1.727.053 2.587-.992.044-1.992.212-2.935.428-.177.041-.101.306.075.271.971-.192 1.916-.245 2.872-.277.03 1.026.063 2.049.091 3.062-.735.077-1.473.194-2.196.276-.458.052-.995-.001-1.175.501a.152.152 0 0 0 .04.151l.083.072c.146.126.354-.076.214-.214.007.007 1.005-.169 1.181-.184l1.202-.1c.221-.018.442-.034.664-.051.025.951.045 1.895.05 2.823-1.238-.006-2.501.144-3.731.219-.206.013-.209.331 0 .323 1.232-.044 2.502-.019 3.736-.141.001.858-.006 1.721-.009 2.582-.296-.006-.594.005-.886-.003a41.014 41.014 0 0 1-1.787-.087c-.166-.011-.162.241 0 .257.834.082 1.79.237 2.671.201-.004 1.098-.006 2.194-.011 3.293-.946.058-1.879.132-2.837.072-.22-.014-.217.324 0 .341.929.073 1.9.104 2.836-.027-.004.921-.007 1.837-.009 2.759-1.641.04-3.293.21-4.925.313-.184.012-.187.296 0 .288 1.632-.068 3.29-.071 4.925-.202-.002 1.088-.012 2.175-.004 3.263-2.165.094-4.34.343-6.493.528-.171.015-.175.281 0 .271 2.156-.13 4.343-.199 6.497-.42.007.86.011 1.72.029 2.579-1.551.17-3.097.459-4.638.695-.139.021-.108.267.034.249 1.534-.203 3.086-.362 4.611-.629.015.701.02 1.403.045 2.102-1.333.311-2.582.587-3.958.672-.146.009-.148.222 0 .229 1.303.061 2.75-.115 3.971-.604.029.757.06 1.514.102 2.27-2.261.154-4.531.583-6.747 1.021-.127.025-.072.215.053.193 2.229-.383 4.474-.602 6.711-.917.025.434.044.869.074 1.302.003.042.02.073.029.11-.949.841-3.541.478-4.589.516zM48.073 4.13c-.017-.077-.058-.146-.142-.158-.743-.103-1.516-.108-2.292-.085.887-.041 1.748-.157 2.531-.395-.038.211-.063.426-.097.638z"/><path d="M18.665 44.937c-5.065-.145-10.153.018-15.222-.036-.188-.002-.188.286 0 .292 5.048.155 10.179.332 15.222.011.171-.01.174-.262 0-.267zM38.471 18.546c-1.902-.307-3.896-.359-5.818-.473-.168-.01-.16.238 0 .257 1.9.22 3.861.518 5.774.545.183.002.234-.298.044-.329z"/></g></svg>