<svg xmlns="http://www.w3.org/2000/svg" viewBox="0 0 48.794 48.794"><g fill="#1d1d1b"><path d="M23.282 35.829c-.666-2.495-2.637-4.044-5.045-4.945-1.944-.727-4.027-.966-5.984-1.647-3.155-1.098-4.688-3.219-5.017-6.108a.115.115 0 0 0-.017-.145c-.039-.399-.06-.81-.056-1.237 5.081.539 10.32.413 15.398-.017a.6.6 0 0 0 .464-.275c.308.038.647-.137.655-.542.101-5.418-.752-12.687-6.715-14.716-5.442-1.852-11.659 1.007-14.67 5.668-3.416 5.288-2.899 12.392.756 17.406 1.839 2.522 4.336 4.441 7.167 5.726 4.704 2.135 10.508 2.222 12.5 7.976.118.342.576.197.529-.146-.009-.066-.029-.123-.04-.188.22.015.468-.132.472-.394.017-1.005-.003-2.007.048-3.012.05-.999.239-2.002.232-2.999-.003-.388-.397-.538-.677-.405zm-.597 4.992c-.915-2.135-2.732-3.569-5.019-4.628-5.353-2.477-10.936-3.286-14.248-8.85C-.28 21.131.963 12.541 7.424 8.655c2.999-1.804 7.041-2.436 10.122-.881a47.318 47.318 0 0 0-7.267-.23c-.162.008-.164.252 0 .253 2.75.023 5.448.204 8.168.522a7.28 7.28 0 0 1 1.678 1.621c-1.474-.437-3.144-.401-4.643-.182-.153.023-.119.287.037.273 1.617-.149 3.084.058 4.68.28a.177.177 0 0 0 .154-.055c.041.061.088.114.128.177.345.547.621 1.135.857 1.745-.947-.084-1.997.081-2.88.204-.14.02-.108.262.034.249a19.314 19.314 0 0 1 1.751-.091c.41-.002.834.043 1.25.045.23.662.411 1.349.548 2.052-.767-.032-1.573.055-2.315.075-.179.005-.179.273 0 .278.766.021 1.598.109 2.387.068.127.744.218 1.499.277 2.252-4.436-.036-8.91.335-13.329.67-.111.008-.114.18 0 .176 4.448-.177 8.918-.173 13.36-.435.03.449.053.897.068 1.338-6.524.408-13.013.549-19.547.29-.146-.006-.143.215 0 .225 6.514.472 13.052.486 19.561-.09.009.345.017.69.022 1.025-5.121.441-10.259.084-15.373.464-.091-.547-.979-.497-1.038.123a18.455 18.455 0 0 0-.08 1.612 12.388 12.388 0 0 0-2.399-.118c-.169.007-.171.267 0 .264.808-.014 1.603.058 2.396.172.01.702.07 1.371.206 2.002-.808-.052-1.621-.072-2.427-.118-.118-.007-.117.175 0 .183.825.057 1.654.143 2.482.191.183.727.467 1.404.888 2.028-.716-.063-1.434-.106-2.145-.167-.157-.013-.152.225 0 .243.803.09 1.612.205 2.422.286.376.476.821.927 1.39 1.337-.689-.038-1.378-.069-2.064-.11-.173-.01-.17.253 0 .267.882.072 1.767.163 2.654.233l.079.051c1.544.918 3.376 1.377 5.195 1.837-1.072-.066-2.142-.128-3.216-.22-.13-.011-.153.193-.03.224 1.277.328 2.759.46 4.065.3a.13.13 0 0 0 .099-.068c1.209.317 2.389.668 3.449 1.194-1.122-.032-2.255.028-3.373.045-.131.002-.131.202 0 .204 1.288.02 2.596.097 3.885.022a7.075 7.075 0 0 1 1.893 1.548c-1 .114-1.93.176-2.947-.039-.147-.031-.211.191-.063.227 1.027.249 2.162.342 3.196.064.329.426.627.898.869 1.452-.869.142-1.718.237-2.635.199-.101-.004-.128.165-.024.18.899.123 1.897.139 2.824-.04a.403.403 0 0 0 .167.18c-.293 1.273-.308 2.711-.185 4.06z"/><path d="M19.786 16.261c-2.084-7.02-12.884-7.734-14.018.223a.487.487 0 0 0 .109.387c.003.112.075.223.214.227 4.158.12 8.501.059 12.665-.071.487.268 1.233-.081 1.03-.766zm-13.044.218c1.603-6.007 8.914-5.567 11.348-.59-3.628-.469-7.812-.286-11.348.59zM46.91 12.226c-2.72-4.708-7.998-7.304-13.361-5.885-6.476 1.713-8.979 8.263-8.316 14.404a.596.596 0 0 0 .506.761c5.521.668 11.463.922 17.013.205-1.835 5.617-6.489 7.731-11.479 10.073-1.299.61-4.993 1.951-5.698 3.792-.237.033-.459.212-.466.5-.044 1.92.313 3.873.413 5.802-.015.022-.034.041-.049.063-.42.619.551 1.143.983.575 4.832-6.355 13.635-7.247 18.68-13.365 3.962-4.805 4.938-11.447 1.774-16.925zM26.361 40.781a28.98 28.98 0 0 0 .048-2.341 34.537 34.537 0 0 1 2.43-.041c-.892.71-1.73 1.487-2.478 2.382zm17.118-16.04c.91.126 1.918.238 2.853.141a12.95 12.95 0 0 1-.533 1.051c-.227.4-.47.779-.725 1.143-1.089-.06-2.217.114-3.312.083-.123-.004-.12.18 0 .19.971.077 2.081.189 3.077.033a15.736 15.736 0 0 1-2.274 2.46c-1.084.001-2.163.096-3.252.038-.22-.012-.218.326 0 .341.895.062 1.842.12 2.757.036a23.698 23.698 0 0 1-2.056 1.5c-1.75.016-3.505.149-5.251.233-.191.009-.193.305 0 .299 1.545-.049 3.101-.057 4.647-.142a53.69 53.69 0 0 1-2.829 1.62c-1.589-.096-3.202.006-4.797-.085-.165-.01-.159.236 0 .253 1.33.147 2.77.281 4.141.184-2.351 1.251-4.73 2.47-6.813 4.072a16.3 16.3 0 0 0-2.715.023 13.061 13.061 0 0 0-.144-1.592.414.414 0 0 0 .061-.188c.083-1.432 5.086-3.256 6.139-3.746 2.171-1.011 4.373-1.939 6.329-3.345 2.567-1.845 4.679-4.317 4.839-7.579a.389.389 0 0 0-.039-.192c.299-.141.166-.635-.177-.666-5.728-.512-11.641-.464-17.398-.504.391-7.822 5.067-15.796 14.153-12.535.404.145.785.315 1.154.499-1.705-.205-3.453-.198-5.153-.117-.142.007-.143.223 0 .221 2.045-.029 4.028.198 6.053.399.565.354 1.087.752 1.562 1.19-1.14-.187-2.339-.12-3.463.064-.176.029-.137.335.042.314 1.307-.153 2.546-.058 3.844.033.56.578 1.054 1.21 1.474 1.889-1-.082-2.001-.098-3.005-.252-.19-.029-.277.252-.081.295 1.049.23 2.239.426 3.338.355.414.736.75 1.517 1.006 2.329-.891-.083-1.783-.097-2.675-.246-.198-.033-.286.267-.084.305.92.175 1.931.357 2.882.31.155.55.284 1.109.367 1.679-3.868-.219-7.858.341-11.635 1.125-.148.031-.083.249.062.224 3.892-.666 7.698-.803 11.618-.985.174 1.472.11 2.985-.194 4.46-.728-.062-1.462-.087-2.189-.123-.248-.012-.244.365 0 .383.693.052 1.393.116 2.091.147a13.813 13.813 0 0 1-.71 2.193c-.972-.081-1.978-.021-2.953-.066-.139-.01-.176.229-.032.249z"/><path d="M43.62 16.092c-.447-3.746-3.595-6.592-7.454-6.241-2.886.262-6.953 3.378-5.852 6.675-.029-.008-.054-.027-.091-.03-.33-.03-.5.435-.269.649 1.057.978 3.988.367 5.317.336 2.581-.061 5.234-.013 7.786-.4.316-.048.431-.29.409-.538a.522.522 0 0 0 .154-.451zm-7.394.033c-.955.04-1.908.085-2.863.137-.637.027-1.273.064-1.909.111a2.193 2.193 0 0 0-.361-.08c1.148-2.313 1.569-4.544 4.779-5.043 3.283-.51 5.678 1.634 6.357 4.674-1.991-.065-4.017.117-6.003.201zM47.009 19.222c-6.521-.25-13.062-.15-19.588-.34-.164-.005-.162.245 0 .253 6.504.329 13.076.698 19.588.466.244-.008.245-.369 0-.379zM32.638 35.39c-1.641.298-3.205.354-4.843.001-.121-.026-.173.157-.051.186 1.634.402 3.324.48 4.963.063.165-.041.094-.279-.069-.25z"/></g></svg>