<svg xmlns="http://www.w3.org/2000/svg" viewBox="0 0 50.04 50.04"><g fill="#b7b7b7"><path d="M22.536 10.497c-.951-2.084-3.363-3.456-5.611-3.164a.478.478 0 0 0-.363-.107c-3.339.365-5.386 3.579-4.738 6.819.795 3.977 4.189 5.606 7.868 3.952 2.742-1.232 4.101-4.745 2.844-7.5zm-5.353 2.035c1.484-.184 2.913-.153 4.378.024.005.469-.059.941-.196 1.394-1.39-.027-2.782.005-4.172.017-.079.001-.079.122 0 .122 1.375.011 2.753.043 4.128.017-.175.513-.433 1-.779 1.421-1.395.099-2.786.165-4.192.131-.069-.002-.069.105 0 .108 1.344.053 2.695.053 4.038-.05-.032.035-.056.075-.089.109-.096.098-.216.173-.324.26-1.628-.047-3.263-.003-4.891.012-.05.001-.05.078 0 .078 1.585.015 3.175.054 4.761.014a4.904 4.904 0 0 1-2.703.928c-1.812.056-2.929-.741-3.606-2.332-1.159-2.724.146-5.574 2.987-6.313 1.352-.045 2.667.234 3.709 1.153-1.434-.11-2.869-.208-4.303-.307-.063-.004-.062.092 0 .097 1.487.125 2.974.253 4.462.365.071.069.145.132.214.209.211.235.372.495.512.765a14.078 14.078 0 0 0-4.16-.003c-.065.009-.05.125.016.116 1.43-.183 2.816-.133 4.232.065.21.464.334.96.357 1.467a14.987 14.987 0 0 0-4.39.052c-.046.007-.036.087.011.081zM41.979 16.003c-.239-1.672-1.194-3.361-2.483-4.442-1.697-1.424-3.162-1.287-5.201-1.139a.506.506 0 0 0-.307.139c-6.575 1.905-4.162 12.733 2.961 11.647 2.959-.452 5.473-3.103 5.03-6.205zm-6.234.822c1.559.077 3.121.198 4.681.236a4.193 4.193 0 0 1-.575 1.668c-1.862.031-3.726.156-5.585.246-.063.003-.064.101 0 .099 1.829-.058 3.666-.084 5.493-.196a4.257 4.257 0 0 1-1.205 1.213c-1.505-.114-3.009-.039-4.507.136-.034.004-.036.058 0 .055 1.435-.115 2.865-.104 4.301-.064-.569.33-1.23.547-1.963.601-2.42.178-4.478-1.557-4.921-3.899-.493-2.607 1.36-4.423 3.541-5.403.674.04 1.339.039 2.016.286.77.28 1.411.744 1.948 1.318a17.972 17.972 0 0 0-4.068-.19c-.066.004-.067.107 0 .103 1.433-.074 2.827.044 4.232.28.346.405.656.847.894 1.346.039.082.065.165.098.247a8.583 8.583 0 0 0-3.138.088c-.061.013-.035.105.026.094 1.082-.203 2.116-.175 3.178-.015a4.28 4.28 0 0 1 .251 1.849c-1.562-.108-3.134-.134-4.699-.203-.066-.003-.065.102.002.105zM49.333 30.623c-1.046-1.587-3.544-3.124-5.303-2.033a.48.48 0 0 0-.558-.022c-6.484 4.157-13.385 6.516-21.127 4.654-6.491-1.56-10.785-5.565-15.054-10.362a.448.448 0 0 0-.058-.169c-1.257-2.044-4.816-1.397-6.175.161-1.651 1.892-1.25 4.453.38 6.11 9.436 15.76 32.419 17.987 46.357 7.132.949-.133 1.696-1.081 2.017-1.94.446-1.194.214-2.48-.479-3.531zm-.671 2.782a1.886 1.886 0 0 1-.572.972c-1.929-.185-3.875-.268-5.808-.395-.082-.005-.081.12 0 .127 1.865.147 3.735.342 5.605.441-.241.193-.504.371-.776.576-.227.171-.279.412-.207.615-.274.179-.557.342-.836.513-2.312-.113-4.636-.107-6.949-.152-.069-.001-.069.105 0 .108 2.213.078 4.434.204 6.65.228a41.18 41.18 0 0 1-2.352 1.322c-.001-.037-.025-.073-.075-.072-3.259.044-6.455.017-9.697-.377-.071-.009-.089.117-.017.126 3.171.43 6.414.661 9.611.413-6.783 3.448-14.476 4.838-22.056 3.125C13.03 39.132 7.018 34.15 1.74 27.977c-.281-.472-.529-.955-.612-1.538-.138-.963.13-1.996.788-2.731a3.172 3.172 0 0 1 2.332-1.048c.933-.011 1.539.459 2.368.735 7.876 12.309 25.851 16.005 37.277 6.21 1.273-.812 2.962.071 3.905 1.121-1.27-.156-2.55-.251-3.822-.37-.075-.007-.073.108 0 .116 1.321.149 2.646.328 3.973.432.037.047.083.092.118.139.345.473.585 1.028.638 1.605-1.563-.266-3.159-.394-4.731-.58-.089-.011-.087.128 0 .139 1.577.208 3.162.48 4.748.606.001.197-.013.394-.06.592z"/><path d="M34.482 40.708c-5.287-.549-10.578-1.125-15.876-1.552-.069-.006-.066.097 0 .105 5.28.636 10.583 1.125 15.876 1.641.124.012.123-.181 0-.194zM39.54 39.268c-4.733-.099-9.42-.285-14.124-.842-.062-.007-.061.089 0 .097 4.676.611 9.406 1.003 14.124.895.097-.002.097-.148 0-.15z"/></g></svg>