<svg xmlns="http://www.w3.org/2000/svg" viewBox="0 0 48.687 48.687"><g fill="#1d1d1b"><path d="M13.651 10.794a.351.351 0 0 0-.315-.276c-2.805-.359-5.512 2.113-5.865 4.835-.388 2.995 2.092 5.93 5.099 6.106 2.902.171 5.631-2.34 5.725-5.246.088-2.656-2.071-5.065-4.644-5.419zm2.929 6.594c-1.835-.011-3.792.321-5.605.6-.162.025-.124.295.039.287 1.761-.091 3.657-.172 5.397-.518-.819 1.57-2.65 2.628-4.437 2.16-2.046-.537-3.524-2.796-2.957-4.874.462-1.694 1.786-2.658 3.254-3.358.09.099.218.172.389.192 1.612.184 3.131 1.109 3.805 2.509-2.166-.099-4.355-.042-6.518-.048-.134 0-.133.201 0 .207 2.217.1 4.458.269 6.681.265.107.318.188.649.203 1.005-1.953-.24-4.044-.036-6.009-.026-.181.001-.181.278 0 .281 1.966.035 4.056.267 6.013.052-.003.088.012.169.003.258a3.784 3.784 0 0 1-.258 1.008zM48.599 27.817a.43.43 0 0 0-.387-.295c-.033-.004-.057.005-.086.008.037-.186-.012-.389-.2-.498-7.598-4.402-18.976-5.349-27.569-4.433-6.739.718-14.022 3.168-18.367 8.621-.734.713-1.465 1.391-1.796 2.472-.364 1.188-.247 2.55.617 3.502 1.591 1.753 4.988 1.128 5.655-1.138 6.091-3.818 11.355-7.84 18.837-8.518 6.97-.632 13.758.64 20.588 1.819a.421.421 0 0 0 .273-.044c.434.425.983.632 1.62.368.685-.283 1.093-1.171.815-1.864zm-.892.702c-.215.469-.885.674-1.319.404-.009-.142-.097-.278-.284-.338-6.009-1.927-12.783-2.808-19.314-2.185-2.699-.677-5.49-.888-8.275-.771-.178.007-.18.278 0 .278 2.306-.009 4.546.248 6.777.664a38.957 38.957 0 0 0-3.647.651c.002-.07-.028-.139-.111-.151-2.153-.303-4.346-.376-6.514-.525-.182-.012-.178.264 0 .281 1.998.197 4.008.458 6.016.541a34.199 34.199 0 0 0-4.17 1.309.153.153 0 0 0-.098-.048c-1.974-.148-3.968-.113-5.947-.155-.175-.004-.174.264 0 .271 1.808.068 3.625.194 5.436.191a30.645 30.645 0 0 0-3.122 1.486c-1.35-.103-2.711-.106-4.064-.141-.123-.003-.121.183 0 .19 1.217.067 2.44.152 3.661.175a27.952 27.952 0 0 0-2.547 1.63c-1.304.073-2.601.123-3.911.092-.115-.003-.111.166 0 .176 1.157.104 2.326.12 3.484.027a27.215 27.215 0 0 0-1.949 1.627c-.978.031-1.954.064-2.934.081-.108.002-.142.18-.027.197.823.121 1.71.145 2.572.079-.307.294-.609.594-.905.905-.109-.206-.443-.269-.615-.097-.757.763-1.226 1.637-2.418 1.742-1.706.151-2.647-1.39-2.306-2.919.258-1.156 1.159-1.928 1.782-2.875 6.322-4.869 12.784-7.591 20.995-7.743 7.852-.145 16.34 1.328 23.611 4.321a.371.371 0 0 0 .253.011c-.047.223-.049.486-.11.619z"/><path d="M47.421 28.113c-7.359-2.379-14.878-3.512-22.607-3.434-.109.001-.109.165 0 .169a91.53 91.53 0 0 1 22.511 3.615c.225.064.317-.279.096-.35z"/></g></svg>