<svg xmlns="http://www.w3.org/2000/svg" viewBox="0 0 50.434 50.434"><g fill="#1d1d1b"><path d="M21.08 34.294c-2.178.372-4.576.048-6.665.908a5.51 5.51 0 0 0-1.2.687c-1.365.828-1.316 2.854-.629 4.136.933 1.743 3.007 3.275 4.996 3.821-6.315 1.773-11.994-3.733-10.133-10.252 2.117-7.415 10.951-4.997 13.589.448.116.239.471.067.414-.175-1.672-7.073-11.804-8.319-14.676-1.359-3.087 7.482 4.079 15.128 11.591 11.943.215-.091.237-.322.151-.505.041-.059.04-.144-.038-.204-2.048-1.56-6.364-3.544-5.299-6.452a.214.214 0 0 0 .073-.173c.083-.192.192-.388.325-.588.602-.462 1.853-.814 2.145-.883.904-.212 1.837-.225 2.76-.221 1.043.004 2.063.068 2.872-.658.232-.204-.021-.516-.276-.473zM44.583 10.863c.063-.071.104-.159.073-.274-.043-.155-.116-.291-.172-.439-.009-.058-.015-.118-.025-.176-.008-.051-.041-.074-.078-.086-2.212-5.005-11.942-5.087-15.07-.847-.635.432-.841 1.121-.795 1.923-.696-.039-1.411.012-2.106.025-.133.003-.134.205 0 .207.703.013 1.426.067 2.13.025.055.463.18.956.356 1.458-.762-.086-1.556-.078-2.31-.123-.12-.007-.118.177 0 .186.785.064 1.607.193 2.403.204.191.501.422 1.005.667 1.488-.731-.021-1.49.051-2.197.059-.124.001-.125.192 0 .193.758.008 1.575.088 2.353.05.526.997 1.081 1.879 1.403 2.418l.473.791c-.776-.044-1.587.073-2.33.224-.111.023-.063.189.047.17.828-.146 1.619-.13 2.44-.138a24.94 24.94 0 0 0 1.475 2.194c-.768-.167-1.588-.222-2.361-.325-.115-.015-.143.185-.028.204.854.141 1.742.36 2.608.396 1.439 1.786 3.258 3.174 5.425 2.369.099-.037.145-.137.15-.234 4.609-2.159 6.019-7.182 5.469-11.942zm-1.341 5.98c-.768 2.65-2.504 4.108-4.803 5.555a.31.31 0 0 0-.139.204c-2.713-.146-4.856-3.452-6.148-5.493-.942-1.488-3.851-5.975-2.321-7.697a.305.305 0 0 0 .079-.215c3.729-3.535 11.544-2.76 14.157 1.641.019.032.051.037.075.059-.105 1.981-.358 4.077-.9 5.946z"/><path d="M39.066 13.485c-.227-1.484-1.475-3.46-3.228-2.991a.308.308 0 0 0-.164.12c-1.509-.051-2.248 1.885-1.914 3.194.33 1.295 1.718 3.737 3.349 3.016 1.629.267 2.152-2.066 1.957-3.339zm-2.296 2.689c-.125-.016-.189.05-.224.134-.873-.331-1.582-1.626-1.825-2.377-.395-1.221.002-2.303 1.274-2.729.009-.003.013-.012.021-.016 1.427.077 2.317.79 2.458 2.299.11 1.164-.161 2.892-1.704 2.689zM38.667 37.299c-.046-1.127-.289-2.563-1.201-3.335-.673-.571-1.573-.645-2.25-.105a.218.218 0 0 0-.213.05c-1.867 1.688-1.037 4.583.962 5.633.265.577.984.752 1.589.493 1.025-.438 1.152-1.777 1.113-2.736zm-.727 1.121c-.113.505-.493.993-.932 1.062a.242.242 0 0 0-.129-.178c-1.983-1.076-2.37-3.003-1.561-4.95.039-.008.079-.007.116-.038 1.551-1.312 2.39 1.488 2.517 2.46.07.537.109 1.11-.011 1.644z"/><path d="M42.5 26.098c7.925-4.257 9.968-15.353 3.517-21.935C39.8-2.18 29.354.039 25.651 7.8 21.973-1.311 9.573-2.567 3.276 4.701-1.927 10.706.044 24.637 8.821 25.853.737 29.287-1.341 40.231 4.854 46.574c6.048 6.192 18.445 4.996 21.032-4.041 3.58 7.967 14.852 10.592 20.849 3.576 5.76-6.738 3.641-16.535-4.235-20.011zm5.564 16.493c-1.06-.241-2.217-.202-3.289-.109-.131.011-.135.213 0 .207 1.072-.046 2.099.085 3.159.17-.244.448-.514.889-.829 1.315-.009-.001-.014-.009-.025-.008-1.55.157-3.001.465-4.577.389-.128-.006-.125.187 0 .197 1.405.114 3.04.14 4.41-.313a12.1 12.1 0 0 1-1.297 1.425c-.021-.066-.081-.116-.174-.092-.545.141-1.066.295-1.631.348-.496.046-.986-.005-1.482.018-.106.005-.129.154-.025.187.896.277 2.058.146 2.967-.175a12.62 12.62 0 0 1-2.119 1.51c.006-.069-.034-.142-.125-.145-2.622-.076-5.248-.028-7.871.019-.147.003-.147.226 0 .229 2.58.047 5.164.091 7.743.021-5.96 3.119-13.045.266-16.548-5.72 1.885.065 3.771.12 5.656.141.032 0 .051-.016.072-.029.667 1.05 1.452 2.09 2.358 2.927-1.208-.24-2.421-.437-3.652-.526-.08-.006-.1.13-.019.142 1.409.204 2.805.452 4.181.823 1.008.795 2.157 1.317 3.477 1.291.139-.003.225-.099.273-.211 2.748-.906 4.318-3.711 5.026-6.424 1.702.291 3.508.4 5.205.043a10.695 10.695 0 0 1-.864 2.35zm-18.139-9.808c2.555-4.913 8.98-2.581 12.849-.224 1.031 1.977.583 5.485.096 7.341-.743 2.83-2.305 4.733-4.852 6.16-2.577-.674-4.25-2.85-5.624-5.047-1.27-2.033-3.601-5.734-2.469-8.23zm13.842 7.251c.025-.1.058-.202.08-.302.575-2.545 1.041-6.287-1.268-8.103-.109-.086-.229-.035-.282.054-3.307-2.106-8.256-3.584-11.227-1.376-1.213.021-2.392.114-3.618-.039-.117-.015-.145.188-.028.207 1.025.171 2.146.307 3.213.213a5.616 5.616 0 0 0-1.299 1.845 1.872 1.872 0 0 0-.477.635 22.236 22.236 0 0 0-2.767-.36.205.205 0 0 0 .082-.168c-.02-1.845 1.888-3.294 3.252-4.285 1.076-.783 2.458-1.219 3.441-2.087.236-.209.052-.646-.261-.63-.192.01-.386.043-.58.085-.769-1.003-1.811-1.835-2.669-2.76-1.02-1.099-2.546-2.416-2.852-3.914-.074-.364-.629-.296-.666.048-.096-.043-.209-.028-.276.101-.059.114-.126.219-.187.33-.473-.002-.947.017-1.419.029-.138.003-.138.211 0 .215.421.011.843.026 1.265.029-.282.49-.577.967-.895 1.421a7.392 7.392 0 0 0-1.984.206c-.117.028-.095.228.029.214a15.172 15.172 0 0 1 1.697-.076c-.193.259-.372.532-.581.773-2.504-.197-5.066-.101-7.578-.114-.096 0-.095.143 0 .148 2.423.109 4.888.316 7.317.267a9.688 9.688 0 0 1-1.865 1.571c-.011-.003-.015-.013-.028-.013-2.563-.135-5.129-.213-7.694-.296-.08-.003-.078.118 0 .123 2.424.166 4.849.335 7.276.458a8.781 8.781 0 0 1-2.048.834.243.243 0 0 0-.172.145c-.074-.002-.149-.018-.222-.013-.204.015-.302.242-.164.396.493.552 1.221.806 1.847 1.195a12.833 12.833 0 0 1 2.255 1.78c1.185 1.178 1.783 2.658 2.767 3.922-1.235-.06-2.474-.069-3.671-.092-.148-.003-.146.222 0 .229 2.412.115 4.834.497 7.243.585-.212.71-.104 1.586.168 2.49-2.061-.209-4.3-.073-6.362.06-.12.008-.12.179 0 .186 2.093.135 4.373.277 6.459.054.315.936.776 1.882 1.202 2.68-2.886-.175-5.817.019-8.713-.079-.135-.005-.132.198 0 .208 2.861.205 5.891.47 8.748.13a.131.131 0 0 0 .081-.041c.242.446.466.84.635 1.145.281.509.591 1.054.931 1.604-4.158-.213-8.326-.293-12.489-.357-.152-.002-.151.228 0 .236 2.024.096 4.05.187 6.077.262a21.392 21.392 0 0 1-1.576 1.981c-1.32-.143-2.698.004-4.005.199-.107.016-.083.203.026.19 1.257-.149 2.486-.121 3.741-.117-.8.865-1.663 1.659-2.582 2.346-2.071-.161-4.157-.207-6.23-.302-.116-.005-.114.172 0 .179 1.952.127 3.91.299 5.867.377a15.475 15.475 0 0 1-2.76 1.586c-2.135-.176-4.297-.164-6.432-.185-.193-.002-.192.291 0 .299 1.888.081 3.796.2 5.694.183-3.821 1.399-8.027.897-11.707-2.873-6.564-6.723-2.922-16.039 4.595-19.882a.293.293 0 0 0 .104-.092c.122-.002.24.005.364-.001.292-.015.393-.479.073-.539C1.314 23.639-1.675 10.784 4.965 4.403 9.888-.327 16.073.318 20.811 3.676c-2.545-.266-5.141-.236-7.696-.349-.109-.005-.108.163 0 .169 2.612.141 5.253.44 7.869.409a.093.093 0 0 0 .082-.043 17.323 17.323 0 0 1 2.363 2.089c-3.356-.364-6.766-.388-10.138-.438-.154-.002-.153.234 0 .239 2.236.073 4.472.217 6.708.33-.581.577-1.122 1.225-1.646 1.883-1.332-.052-2.687.029-4.013.042-.145.002-.145.224 0 .225 1.24.013 2.506.087 3.755.054-.224.282-.447.562-.671.833-.261.316-.523.717-.801 1.12-.321.069-.641.138-.973.166-.444.037-.88-.001-1.324-.006-.101-.001-.122.15-.024.176.621.162 1.373.17 2.058.034-.586.797-1.271 1.503-2.227 1.444-.024-.002-.039.013-.059.02-.368-.876-.989-1.632-1.534-2.407-.622-.883-1.226-1.782-1.875-2.646-.614-.816-1.365-1.637-2.366-1.563.105-.163-.008-.446-.227-.43-2.947.217-2.859 4.243-3.045 6.451-.184 2.187-1.036 7.607.964 9.534l-.074.037c-.237.121-.215.474 0 .601.919.541 1.927-.386 2.372-1.163.303-.529.426-1.1.5-1.699.051-.414.026-1.569.266-2.233a.37.37 0 0 0 .367-.105c.72-.807 1.407.464 1.95 1.877-.468-.001-.937.007-1.405.014-.127.002-.127.195 0 .197.496.007.992.016 1.488.013.149.402.287.808.41 1.173-.389-.067-.782-.124-1.165-.189-.145-.025-.209.196-.062.224.437.083.88.177 1.324.253.17.503.309.898.404 1.028.631.862 1.771 1.285 2.579.437.062-.064.073-.167.045-.251.662-.399 1.122-1.084 1.451-1.795.275-.594.467-1.227.771-1.808.399-.764.885-1.107 1.583-1.319.477.415.656 1.021.755 1.678-.507-.04-1.034-.009-1.538.01-.127.005-.127.192 0 .197.513.02 1.05.053 1.566.009.043.339.072.687.114 1.027-.502.001-1.005.015-1.505.022-.086.001-.086.132 0 .134.508.008 1.018.022 1.528.022.132.938.409 1.784 1.454 2.142.161.055.315-.007.423-.118.952-.075 1.385-.562 1.663-1.598.749-2.792.188-6.549-.126-9.383-.185-1.666-1.217-4.692-2.677-4.29l.014-.024c.005-.009 0-.017.003-.026 1.045.05 2.09.093 3.135.113.022 0 .034-.012.05-.019a17.98 17.98 0 0 1 1.702 2.201c-.135.339.433.574.598.248 3.367-6.627 11.124-8.99 17.071-5.282-3.083-.058-6.192.158-9.272.26-.149.005-.15.234 0 .232 3.196-.035 6.43.059 9.619-.164.038-.003.061-.023.085-.041a12.84 12.84 0 0 1 2.176 1.864c.045.049.085.098.129.147a228.38 228.38 0 0 0-6.412.063c-.152.003-.152.232 0 .236 2.214.048 4.432.08 6.646.063.026 0 .039-.018.059-.026a12.28 12.28 0 0 1 1.422 2.072c-1.02.017-2.014.064-3.05-.072-.094-.012-.116.148-.022.166 1.019.194 2.157.33 3.215.209.37.737.665 1.484.855 2.24-.012-.004-.017-.014-.031-.015-1.077-.137-2.238-.001-3.323.023-.154.003-.154.236 0 .239 1.085.024 2.247.16 3.323.023a.16.16 0 0 0 .087-.043c.172.752.269 1.509.277 2.265-1.058.031-2.095.162-3.161.111-.171-.008-.166.248 0 .264 1.023.095 2.139.167 3.163-.024-.042 2.049-.653 4.075-1.699 5.93-1.16.27-2.17.429-3.365.188-.145-.029-.207.182-.062.224 1.009.288 2.181.322 3.196-.026a15.76 15.76 0 0 1-1.636 2.247c-1.207-.004-2.407.138-3.621.104-.191-.005-.183.273 0 .292 1.047.107 2.211.169 3.277.001a17.046 17.046 0 0 1-2.093 1.898c-1.498.015-3.026.213-4.509.324-.125.009-.128.201 0 .197 1.298-.044 2.638-.021 3.951-.111-.337.237-.68.465-1.034.678-.31.187-.351.484-.244.725-2.099-.155-4.25-.161-6.345-.121-.114.002-.111.167 0 .176 2.191.176 4.448.311 6.651.267a.617.617 0 0 0 .477.03 13.048 13.048 0 0 1 2.838 1.791c-2.775-.288-5.601-.283-8.389-.402-.132-.006-.13.195 0 .204 2.786.183 5.598.494 8.39.507.124 0 .16-.105.132-.194 2.084 1.759 3.531 4.081 4.143 6.581a.144.144 0 0 0-.076-.038c-1.413-.184-2.947-.007-4.373.023-.133.003-.134.205 0 .207 1.425.03 2.96.206 4.373.023a.123.123 0 0 0 .109-.092c.195.835.298 1.688.303 2.543-1.011.014-2.016.131-3.034.089-.151-.006-.147.22 0 .232.982.081 2.049.157 3.04.006a10.787 10.787 0 0 1-.24 2.035c-1.754.121-3.444.228-5.203.037zm-18.143-8.746c-.578-1.215-1.603-2.357-2.48-3.197-.841-.806-2.109-1.943-3.38-2.422 2.83-.769 5.524-2.917 6.149-5.883.236 1.179.983 2.115 1.77 3.059.913 1.096 1.936 2.417 3.123 3.32-1.137.556-2.224 1.444-3.053 2.169-.909.794-1.862 1.79-2.129 2.954zm-6.18-15.678c-1.17-.524-2.311.472-2.883 1.443-.353.599-.545 1.27-.812 1.907-.203.484-.446.975-.825 1.349a1.95 1.95 0 0 1-.618.432l-.146.056a.203.203 0 0 0-.204.009l-.051.03c-.026.015-.03.043-.048.064-.684-.407-.95-1.393-1.145-2.181-.223-.899-.552-1.741-1.121-2.481-.655-.851-2.042-1.498-2.7-.456-.49.109-.772.854-.872 1.377-.143.74-.116 1.513-.325 2.24-.223.777-.624 1.068-1.176 1.351-1.245-1.707-.701-5.561-.648-7.441.063-2.227-.213-6.142 1.899-7.524h.001c1.538-.161 2.677 2.415 3.435 3.511.753 1.089 1.433 2.406 2.446 3.265.155.132.421.075.503-.088 1.261.562 2.187-.398 2.939-1.366a28.54 28.54 0 0 0 1.562-2.223c.141-.222.292-.441.445-.66.053-.021.082-.065.078-.114.163-.231.327-.461.489-.693 2.534-1.658 2.735 5.752 2.769 6.59.037.876.581 6.494-1.136 6.4-.021-.001-.036.008-.056.009-.97-1.242-.591-3.267-1.838-4.278.207-.079.259-.429.038-.528z"/><path d="M47.923 32.822c-1.098-.061-2.223.034-3.323.056-.102.002-.102.156 0 .158 1.1.022 2.226.117 3.323.056.174-.009.174-.261 0-.27zM45.999 30.396c-.987-.046-1.985.015-2.973.033-.102.002-.102.156 0 .158.988.018 1.986.079 2.973.033.144-.006.145-.217 0-.224zM48.105 16.269c-1.02-.037-2.183.109-3.187.3-.133.025-.096.224.031.228 1.024.033 2.194-.008 3.2-.203.189-.037.135-.318-.044-.325zM30.48 16.421c-.736-.327-1.601-.249-2.348.005-.094.032-.055.179.041.149.781-.243 1.461-.164 2.248-.016.078.015.143-.101.059-.138z"/></g></svg>