<svg xmlns="http://www.w3.org/2000/svg" viewBox="0 0 50.079 50.079"><g fill="#1d1d1b"><path d="M49.316 31.533c-.765-.886-1.996-1.166-3.091-.799-.287.096-.402.319-.396.541-.993 1.045-1.693 2.431-3.067 2.589-1.842-1.188-2.523-2.648-2.038-4.381l.427-2.384c.19-1.06.382-2.119.569-3.179.412-2.331 1.088-4.83.93-7.214-.091-1.367-.465-2.938-1.62-3.492a.497.497 0 0 0-.218-.277c-4.989-3.113-10.08 2.037-13.046 6.722.704-2.601.918-5.458-.036-7.723a.421.421 0 0 0-.013-.138c-1.563-5.68-8.7-4.991-12.464-2.027-4.543 3.577-8.127 10.572-9.119 16.403-.459-1.259-1.329-2.404-2.624-2.794-1.231-.37-3.484.07-3.508 1.683a.411.411 0 0 0 .143.324c-.185.801.041 1.564.381 2.562.557 1.637 1.272 2.781 1.316 4.605.039 1.608-.416 3.139-.716 4.697-.41 2.133-.024 5.7 3.037 4.773a.468.468 0 0 0 .251-.175c2.809.129 4.032-3.295 5.1-5.806 2.932-6.89 5.501-12.594 10.137-18.193-2.932 7.634-5.754 26.9 1.545 23.066.008-.004.012-.011.02-.016 2.261-.333 3.934-3.143 5.172-4.972 2.573-3.803 4.721-7.751 7.374-11.444-2.11 5.428-2.207 12.704 2.375 16.366 5.42 4.332 12.723-.271 13.582-6.397.742-.751.203-2.218-.403-2.92zm-3.929 7.909a.105.105 0 0 0-.086-.051c-2.387-.126-4.794-.055-7.174.145-.079.007-.081.128 0 .125 2.354-.104 4.694-.096 7.048-.044a6.739 6.739 0 0 1-2.334 1.163c-3.979 1.088-7.331-1.526-8.397-5.197-1.409-4.854.197-9.783 1.828-14.344.102-.287-.149-.461-.389-.441a.559.559 0 0 0-.762.024c-.14.124-.269.258-.405.386-1.039-.061-2.08-.1-3.118-.148-.07-.003-.069.103 0 .108.98.069 1.962.147 2.944.207a21.42 21.42 0 0 0-1.189 1.243 7.473 7.473 0 0 0-3.059.059c-.104.024-.059.177.044.159a8.925 8.925 0 0 1 2.852-.026c-.389.454-.766.918-1.126 1.396-1.081-.076-2.166.001-3.24.157-.083.012-.064.158.02.147 1.031-.131 2.054-.147 3.085-.131a37.703 37.703 0 0 0-1.072 1.519c-1.229-.027-2.46-.001-3.689.006-.111.001-.111.172 0 .173 1.186.007 2.373.029 3.558.007-.423.639-.83 1.29-1.231 1.946-.005-.001-.003-.008-.008-.008-.982-.04-1.969-.001-2.952.007-.09.001-.09.138 0 .139.955.008 1.916.042 2.871.008-.173.284-.345.567-.516.852-.147.246-.311.536-.482.843-1.115.071-2.225.108-3.347.042-.079-.005-.078.116 0 .122 1.08.083 2.166.108 3.245.02-.306.555-.642 1.179-1.011 1.851-1.308.141-2.603.207-3.921.119-.076-.005-.075.112 0 .118a18 18 0 0 0 3.827-.067 63.463 63.463 0 0 1-1.183 2.062c-1.022-.119-2.091-.011-3.09.186-.067.013-.038.112.028.102 1.006-.161 1.97-.153 2.97-.14a32.478 32.478 0 0 1-1.115 1.721c-1.181.227-2.321.361-3.543.255-.049-.004-.047.07 0 .076 1.116.139 2.298.118 3.408-.143a17.65 17.65 0 0 1-1.303 1.646 16.067 16.067 0 0 1-4.417-.071c-.067-.011-.097.092-.029.104a16.02 16.02 0 0 0 4.271.143c-1.023 1.073-2.117 1.831-3.256 1.946-4.594-.996.419-21.996 1.678-24.43.157-.304-.189-.622-.46-.446a.553.553 0 0 0-.723.056c-.289.268-.563.552-.841.831-1.411-.019-2.825.013-4.235.021-.11.001-.11.17 0 .171 1.338.007 2.68.034 4.019.022a38.402 38.402 0 0 0-1.635 1.763c-1.215.098-2.421.188-3.649.151-.113-.003-.113.171 0 .175 1.142.041 2.306.04 3.448-.091a40.416 40.416 0 0 0-1.572 1.953c-1.128.137-2.253.296-3.378.458-.079.011-.061.151.019.141 1.08-.134 2.16-.271 3.236-.427-.39.526-.773 1.057-1.139 1.6-.002 0-.002-.002-.003-.002-1.336.281-2.613.503-3.985.429-.089-.005-.087.131 0 .137 1.283.094 2.639.023 3.868-.395a42.83 42.83 0 0 0-1.809 2.947 10.808 10.808 0 0 1-3.112.261c-.085-.006-.082.122 0 .131a8.96 8.96 0 0 0 2.99-.169c-.134.245-.274.487-.403.735-.22.42-.44.934-.662 1.506-.011-.006-.015-.022-.03-.02a12.322 12.322 0 0 1-3.157.129c-.073-.007-.072.106 0 .114 1.059.113 2.103.083 3.147-.124-.232.602-.467 1.27-.71 1.978-1.385.172-2.744.216-4.141.068-.08-.008-.078.114 0 .125 1.361.18 2.735.177 4.089-.038-.218.635-.441 1.296-.676 1.972-1.556.066-3.111.191-4.665.291-.079.005-.08.129 0 .125 1.537-.086 3.078-.149 4.614-.267-.613 1.759-1.297 3.583-2.11 5.14-.973.116-1.945.24-2.917.368-.073.01-.074.125 0 .116a251.19 251.19 0 0 0 2.86-.371 14.384 14.384 0 0 1-.914 1.512 7.75 7.75 0 0 1-2.161.423c-.041.002-.041.065 0 .063a7.492 7.492 0 0 0 2.065-.351c-.895 1.233-1.93 2.095-3.163 2.282-2.704-.759-.507-6.973-.643-9.01-.154-2.314-1.943-4.554-1.999-6.842.278-.264.519-.534.935-.659a2.324 2.324 0 0 1 1.689.17c1.187.621 1.639 1.907 2.167 3.037.131.28.639.152.599-.162-.008-.06-.023-.121-.033-.182.009-.012.025-.014.031-.029 1.581-3.628 2.823-7.331 4.848-10.76 3.205-5.427 10.325-11.73 15.499-4.734 1.119 3.872-1.165 7.898-1.568 11.729-.05.476.675.644.89.247.163.054.352.015.478-.191 3.065-4.994 6.986-11.346 13.733-9.778.197.335.348.69.477 1.054-1.107-.155-2.218-.286-3.325-.424-.107-.014-.134.175-.026.191 1.144.161 2.29.333 3.438.475.157.504.262 1.031.319 1.575-1.155-.233-2.367-.271-3.528-.224-.12.005-.121.191 0 .188 1.21-.032 2.368.114 3.549.286.138 1.733-.149 3.619-.519 5.445-.009-.03-.03-.057-.073-.058-1.289-.025-2.591.194-3.844.481-.105.024-.06.184.044.161 1.261-.281 2.515-.382 3.799-.473a.083.083 0 0 0 .055-.027c-.193.948-.405 1.878-.586 2.759-1.159.033-2.322.138-3.477.211-.094.006-.095.153 0 .148 1.143-.059 2.299-.088 3.442-.184-.09.447-.174.883-.239 1.298a28.67 28.67 0 0 1-.156.873c-1.16.099-2.314.252-3.47.391-.087.01-.09.148 0 .139 1.147-.118 2.297-.223 3.44-.379-.163.837-.355 1.759-.47 2.684-1.049.155-2.094.199-3.175.072-.1-.012-.098.144 0 .156 1.05.133 2.111.132 3.151-.028-.111 1.001-.121 1.992.125 2.853a123.62 123.62 0 0 0-3.28.02c-.075.001-.075.115 0 .116 1.108.019 2.221.03 3.331.019.045.137.076.282.136.411.311.674.755 1.185 1.255 1.527-.45.024-.9.048-1.348.068-.07.003-.071.111 0 .11.532-.008 1.067-.011 1.601-.015.714.385 1.52.406 2.259-.021 1.529-.019 3.059-.059 4.572-.185.11-.009.113-.17 0-.173a60.823 60.823 0 0 0-4.181.069c.095-.08.195-.143.286-.241.75-.242 1.457-.726 2.028-1.334a9.431 9.431 0 0 1 2.052.221c.095.02.134-.116.04-.146-.628-.204-1.284-.271-1.941-.254.481-.558.854-1.2 1.037-1.855.459.076.898.306 1.164.685.377.537.159 1.139.352 1.682-.72 1.995-1.693 3.926-3.278 5.233z"/><path d="M8.406 34.155a19.235 19.235 0 0 0-3.817.826c-.067.021-.039.127.029.106a23.852 23.852 0 0 1 3.804-.814c.066-.009.051-.125-.016-.118zM46.145 37.297c-2.374-.142-4.79-.006-7.168.024-.07.001-.071.109 0 .11 2.378.03 4.795.166 7.168.024.101-.006.101-.152 0-.158zM41.091 19.219c-1.36.035-2.747.332-4.07.624-.111.024-.063.191.046.169 1.343-.272 2.699-.388 4.049-.602.109-.018.083-.194-.025-.191z"/></g></svg>