<svg xmlns="http://www.w3.org/2000/svg" viewBox="0 0 48.877 48.877"><g fill="#b7b7b7"><path d="M13.238 7.485c-.452-2.34-2.834-3.97-5.19-3.307-2.06.579-3.212 2.872-2.782 4.911.466 2.209 2.993 4.016 5.189 3.145a.284.284 0 0 0 .174-.271c2.096.005 2.959-2.667 2.609-4.478zm-2.857 3.405c-.387-.026-.578.39-.5.707-1.039-.278-2.085-.639-2.813-1.467-1.035-1.177-1.03-3.11.084-4.237 1.028-1.04 2.711-.987 3.832-.155a9.89 9.89 0 0 0-2.484.246c-.068.015-.039.117.028.104.897-.176 1.777-.212 2.682-.18.147.133.284.278.401.441.145.201.263.471.362.765-.868.119-1.729.183-2.614.136-.07-.004-.068.102 0 .108.89.069 1.786.049 2.667-.094.116.394.188.836.194 1.276-1.27.194-2.418.27-3.689-.024-.072-.017-.103.094-.03.112 1.201.302 2.515.394 3.721.059-.022 1.189-.523 2.292-1.841 2.203zM25.041 6.718c-.924-2.814-4.324-4.402-7.076-3.368-2.697 1.013-4.221 4.298-3.256 7.006.94 2.639 4.081 4.2 6.693 3.119.075.028.16.042.257.022 2.764-.569 4.198-4.291 3.382-6.779zm-1.116 3.195a23.095 23.095 0 0 0-3.186.252c-.066.01-.046.11.015.112.997.03 2.045-.021 3.054-.127-.527 1.013-1.464 1.852-2.487 2.547a.495.495 0 0 0-.114.109c-2.085.112-4.268-.612-5.207-2.651-.993-2.155.239-5.002 2.492-5.781 1.223-.423 2.638-.164 3.751.544-1.208.026-2.406.004-3.615-.143-.061-.007-.076.099-.015.108 1.274.185 2.562.273 3.847.2.562.404 1.04.915 1.344 1.525-1.018-.037-2.042.002-3.061.011-.073.001-.073.113 0 .114 1.04.01 2.087.052 3.127.011.04.089.095.169.128.262.122.345.182.671.216.99-.876.055-1.734.135-2.625.066-.089-.007-.087.128 0 .137.851.086 1.771.136 2.638.007a3.693 3.693 0 0 1-.302 1.707z"/><path d="M41.29 6.684c-.698-3.976-4.393-7.238-8.541-6.605-10.082 1.538-5.131 18.723 3.228 14.934.038.023.083.04.137.048 4.337.588 5.763-5.035 5.176-8.377zm-1.183 4.161c-1.321.272-2.628.369-3.974.194-.084-.011-.105.137-.02.149 1.325.197 2.651.168 3.949-.148-.483 1.799-1.714 3.141-3.84 3.222a.381.381 0 0 0-.262.12c-3.38.141-6.194-1.102-7.22-4.651-.867-2.997-.509-6.424 2.609-7.949 2.398-1.173 4.421-.753 5.935.468a11.74 11.74 0 0 0-3.911.132c-.101.02-.058.173.043.155 1.393-.255 2.757-.239 4.144-.051a7.466 7.466 0 0 1 1.391 1.732c-1.275-.225-2.581-.243-3.869-.132-.093.008-.096.154 0 .148 1.344-.083 2.649.01 3.982.177.323.579.588 1.202.787 1.845-1.1.098-2.176.183-3.293.101-.116-.009-.114.169 0 .179 1.103.099 2.254.118 3.357-.068.421 1.48.505 3.042.192 4.377z"/><path d="M46.487 38.99l-.231.027c-.034-3.112-.098-6.223-.26-9.326-.178-3.425-.935-6.618-3.274-9.265-3.632-4.109-10.658-5.176-14.285-.643-1.031-2.785-4.14-4.691-6.985-5.046-2.073-.259-5.639.164-6.755 2.277-1.123-2.283-3.039-3.61-5.653-3.588-1.497.013-2.97.354-4.095 1.209-.089-.138-.284-.214-.424-.068-1.612 1.676-1.373 4.163-1.496 6.347-.081 1.441-.413 3.536-.398 5.411a.89.89 0 0 0-.145.229c-.326.758-.142 1.881.227 2.621-.044.291.12.619.501.622.347.002.68-.103.983-.269 1.18.327 2.549.055 3.761.034 1.205-.021 2.425.092 3.622-.035-.384 2.63-.594 5.83.249 8.355-.158.16-.077.501.217.537 3.905.484 7.748.424 11.631-.249.015-.002.023-.012.037-.015-.278 3.176-.062 6.446.269 9.606.041.395.397.566.693.51 1.244 1.108 5.963.363 7.341.368 4.398.017 8.801.006 13.196-.175a.366.366 0 0 0 .328-.207c.352.089.784-.093.779-.563-.028-2.834-.034-5.675-.064-8.515.083-.016.167-.024.25-.041.083-.017.066-.158-.019-.148zm-16.04-1.966c5.016-.129 10.061-.309 15.057-.807-.016.964-.049 1.932-.09 2.898-3.021.355-6.012.676-9.068.712-.084.001-.084.131 0 .131 3.015.009 6.075-.139 9.059-.64-.037.849-.077 1.697-.119 2.538-5.146-.175-10.366.257-15.481.774-.06.006-.062.1 0 .095 5.159-.404 10.31-.465 15.473-.703-.035.711-.068 1.418-.096 2.118-4.414-.16-8.855.028-13.263.256-.051.003-.052.082 0 .08 4.421-.17 8.837-.134 13.257-.206-.015.378-.033.76-.044 1.133-6.311-.594-12.602-.275-18.913.183-.071.005-.072.116 0 .112 6.311-.326 12.6-.641 18.91-.158-.02.723-.033 1.438-.031 2.137-2.308-.105-19.682-1.071-19.908.221.021-.12-.034-.229-.112-.31-.016-3.289-.106-6.672-.677-9.914-.036-.203-.195-.266-.348-.235-.065-.238-.243-.436-.528-.399-3.57.468-7.152.736-10.752.747.065-1.379-.2-2.807-.294-4.184-.098-1.434-.13-2.871-.192-4.307.135-.24.017-.627-.276-.717-1.375-.426-2.926-.346-4.354-.305-.901.026-1.917-.003-2.82.235-.079-.045-.172-.066-.275-.01-.319.174-.608.216-.924.226l.007-.215c.655-1.249.303-4.759.325-5.926.042-2.229-.317-4.74.563-6.84 1.281-1.172 3.126-1.551 4.842-1.45 2.586.153 3.455 1.811 4.876 3.592.123.154.272.168.399.107.096.016.199-.005.267-.106 1.41-2.101 5.242-2.372 7.43-1.793 2.633.697 3.943 2.504 5.5 4.548.219.288.664.216.756-.083 4.086-3.072 8.519-2.801 11.775-.345a51.91 51.91 0 0 0-7.406-.321c-.088.002-.089.137 0 .137 2.597.009 5.162.166 7.744.438.466.383.906.812 1.314 1.284-3.711-.237-7.45-.223-11.166-.182-.091.001-.091.141 0 .141 3.792.002 7.574.174 11.363.267.522.638.994 1.341 1.393 2.117l-.316-.007c-.118-.003-.112.167 0 .179-3.385-.369-7.089.09-10.542.049-.073-.001-.073.112 0 .114 3.662.118 7.323.071 10.983-.096.467.956.844 1.995 1.091 3.126.381 1.744.555 3.59.628 5.478-3.267.151-6.48.258-9.749.01-.086-.006-.084.125 0 .133 3.23.29 6.528.394 9.756.015.034.973.05 1.953.036 2.943-5.022.266-10.034.65-15.059.872-.075 0-.076.115-.001.113zM11.657 9.972c-1.252.437-2.466.577-3.764.248-.086-.022-.122.108-.036.132 1.28.355 2.644.328 3.863-.232.083-.037.024-.178-.063-.148zM22.426 11.416c-1.167-.061-2.545-.117-3.703.055-.282.042-.612.154-.532.488.009.036.063.021.055-.015-.106-.505 1.912-.343 2.164-.342.671.003 1.346.031 2.015-.015.111-.008.112-.165.001-.171zM39.284 12.434c-2.405.322-4.735.555-7.164.424-.075-.004-.074.111 0 .116 2.385.157 4.839.117 7.184-.393.081-.018.065-.159-.02-.147zM40.141 8.505c-.972-.093-1.975-.024-2.952-.019-.113.001-.113.175 0 .175.976.005 1.979.074 2.952-.019a.069.069 0 0 0 0-.137z"/><path d="M44.989 30.183c-5.268-.033-10.545.161-15.812.272-.084.002-.084.132 0 .131 5.267-.059 10.548-.034 15.812-.236.107-.005.108-.167 0-.167zM44.571 27.086c-2.959.08-5.894.248-8.857.165-.091-.003-.091.138 0 .141 2.937.12 5.931.182 8.857-.146.1-.011.106-.163 0-.16z"/></g></svg>