<svg xmlns="http://www.w3.org/2000/svg" viewBox="0 0 47.997 47.997"><g fill="#1d1d1b"><path d="M47.471 20.882C46.635 6.759 32.565-1.114 19.694.128 6.604 1.39-.774 14.485.679 26.83c1.348 11.451 12.269 22.589 24.329 21.018 6.56.538 12.649-2.782 16.363-8.158.93-1.346 1.829-2.911 2.643-4.591.003-.01.012-.012.011-.022 2.168-4.483 3.705-9.809 3.446-14.195zm-1.538 4.569c-1.985-.147-3.992-.131-5.98-.183-.101-.003-.1.152 0 .156 1.978.073 3.97.215 5.951.196a28.906 28.906 0 0 1-.588 2.497c-1.998.382-3.951.474-5.973.134-.11-.019-.158.149-.047.169 1.992.356 4 .346 5.968-.11a36.295 36.295 0 0 1-1.067 3.127c-.012-.009-.01-.03-.03-.029-1.981.027-3.932.023-5.907-.16-.102-.01-.099.147 0 .158 1.946.225 3.931.326 5.885.159a42.19 42.19 0 0 1-1.527 3.408c-2.152-.041-4.313.025-6.462.035-.096 0-.097.149 0 .15 2.112.01 4.236.075 6.352.038a41.125 41.125 0 0 1-1.039 1.912c-1.07 1.848-2.319 3.403-3.723 4.701l-.025-.131c-.006-.031-.034-.054-.063-.063a55.616 55.616 0 0 1-.215-.069c-.08-.026-.135.1-.058.137-.599-.283-2.642.229-3.475.245-1.46.029-2.92.039-4.38.034-2.712-.01-5.421-.082-8.131-.187-.065-.003-.065.098 0 .101 5.362.29 10.731.349 16.097.159-.832.742-1.715 1.4-2.651 1.972-6.394.172-12.755.1-19.145-.244-.056-.003-.055.082 0 .087a156.41 156.41 0 0 0 18.812.356c-2.334 1.361-4.967 2.229-7.854 2.676-.02-.004-.031-.022-.054-.023-11.406-.376-22.049-5.984-24.419-18.111C-.238 16.345 6.829 2.157 20.426 1.251c4.646-.31 9.223.533 13.214 2.407a41.288 41.288 0 0 0-5.013-.725c-2.399-.196-4.9.09-7.243-.511-.062-.016-.088.079-.026.096 1.773.494 3.554.392 5.38.482 2.595.128 5.14.534 7.682 1.047a23.214 23.214 0 0 1 4.337 2.867c-4.769-.65-9.602-.793-14.405-.521-.057.003-.057.091 0 .089 4.937-.183 9.779.082 14.679.671.9.783 1.744 1.63 2.506 2.556-4.874-.405-9.772-.625-14.652-.925-.113-.007-.112.167 0 .175 4.945.342 9.898.77 14.851 1a20.828 20.828 0 0 1 2.389 3.719c-3.361-.019-6.72.011-10.081-.046-.106-.002-.105.16 0 .165 3.387.144 6.8.216 10.191.089a21.493 21.493 0 0 1 1.522 4.223c-2.611-.39-5.279-.448-7.914-.402-.11.002-.11.171 0 .171 2.671-.014 5.301.209 7.959.422.092.39.201.77.274 1.172.337 1.855.234 3.901-.143 5.979z"/><path d="M36.742 20.798c-1.184-7.881-8.417-10.736-15.714-9.824-6.993.874-10.262 8.65-9.04 15.031 1.234 6.445 7.002 11.001 13.339 11.003a.627.627 0 0 0 .456.107c.293-.042.572-.112.855-.173.241-.024.481-.038.723-.076.087-.013.122-.071.136-.136 6.625-1.933 10.275-9.075 9.245-15.932zM25.461 35.946c-.197.032-.32.131-.385.258-5.197-.867-9.918-3.749-11.606-9.125-2.112-6.727 1.277-14.826 9.004-15.124 6.892-.267 12.676 3.073 13.205 10.455.475 6.636-3.566 12.434-10.218 13.536zM39.32 39.334c-7.518-.036-15.045.132-22.561.266-.08.001-.08.125 0 .124 7.517-.022 15.046-.011 22.561-.203.121-.003.121-.187 0-.187zM41.005 36.848c-3.865.074-7.731.156-11.596.265-.07.002-.071.11 0 .11 3.865-.039 7.731-.105 11.596-.179.126-.003.126-.199 0-.196zM45.855 21.512c-2.103-.082-4.221-.009-6.325.016-.08.001-.08.124 0 .125 2.104.025 4.222.097 6.325.016.1-.005.1-.153 0-.157z"/></g></svg>