<svg xmlns="http://www.w3.org/2000/svg" viewBox="0 0 49.526 49.526"><g fill="#1d1d1b"><path d="M35.128 5.315c-.022-.107-.093-.154-.174-.177-.042-.304-.25-.579-.645-.575-5.794.064-11.587.172-17.381.267-5.141.085-10.426-.493-15.514.286-.018.002-.025.018-.039.025-.107.004-.209.053-.24.194C-.154 11.22.096 17.607.026 23.607c-.079 6.704.01 13.431.474 20.122a.567.567 0 0 0 .183.387.34.34 0 0 0 .272.328c1.089.266 2.279.152 3.398.185 1.123.033 2.308.231 3.41.004.157-.033.231-.133.272-.248a.494.494 0 0 0 .287-.497c-.526-10.52.807-21.017.408-31.483 6 .68 12.751.651 18.747.109.025-.002.042-.012.064-.017a85.424 85.424 0 0 0-.217 4.293c-.022 1.051-.122 2.163.038 3.211-2.264-.462-4.993-.108-7.314.102a36.97 36.97 0 0 1-.083-4.731c.012-.308-.427-.343-.518-.07-.529 1.589-.668 3.256-.468 4.92.013.111.06.198.117.273a.398.398 0 0 0 .381.471c2.571.203 5.781.719 8.298.072a.431.431 0 0 0 .218-.151c.1-.039.19-.105.227-.227.37-1.21.228-2.608.217-3.869a89.612 89.612 0 0 0-.162-4.397c-.015-.254-.217-.365-.405-.344a.405.405 0 0 0-.394-.369c-6.109-.489-12.894-.559-18.998.014-.357.034-.409.411-.194.589-.004.012-.017.016-.021.031-.111.507-.204 1.02-.296 1.533-1.393-.341-2.918-.355-4.314-.245-.167.013-.171.271 0 .264 1.46-.063 2.824.157 4.236.388a67.09 67.09 0 0 0-.322 2.071c-1.351-.253-2.788-.211-4.13.022-.131.023-.103.248.032.235 1.384-.133 2.688-.052 4.053.103-.103.762-.211 1.522-.289 2.292-.611-.002-1.227.041-1.831.055-.149.003-.15.229 0 .232.591.014 1.194.055 1.792.054a85.11 85.11 0 0 0-.199 2.441c-.533-.015-1.088.038-1.594.062-.161.008-.161.242 0 .25.5.024 1.047.076 1.575.063-.053.861-.102 1.724-.133 2.59-1.236-.022-2.485.047-3.716.066-.167.003-.168.258 0 .26 1.227.019 2.471.088 3.703.066-.031.983-.054 1.968-.061 2.955-1.265-.068-2.56.019-3.817.031-.181.002-.181.279 0 .281 1.255.013 2.549.099 3.813.031-.005.973-.003 1.946.009 2.918-1.368-.254-2.86-.112-4.206.121-.188.032-.106.313.079.285 1.411-.216 2.738-.115 4.133-.067.009.618.017 1.237.031 1.854-.658.036-1.335.201-1.97.346-.12.027-.096.228.029.218.636-.054 1.321-.102 1.947-.26.028 1.184.062 2.365.102 3.54-.506-.001-1.021.044-1.518.058-.111.003-.111.169 0 .172.5.014 1.018.06 1.528.058.025.729.049 1.46.075 2.183-1.119-.103-2.279.009-3.381.168-.099.014-.077.188.024.176 1.132-.137 2.237-.108 3.366-.1.026.731.052 1.461.076 2.185-1.581-.201-3.243-.102-4.833-.13-.075-.001-.074.112 0 .116 1.591.098 3.248.335 4.841.254l.036 1.112c-.901-.179-1.88-.14-2.78-.149-.876-.01-1.816-.058-2.699.08-.227-6.331-.465-12.65-.408-18.986.055-6.268.912-12.717.468-18.959 4.996.682 10.179.107 15.214.161 5.794.062 11.587.136 17.382.166.093 0 .17-.022.243-.049-.024.509-.058 1.023-.086 1.533-3.277-.196-6.571.022-9.827.398-.166.019-.17.28 0 .264 3.274-.315 6.525-.312 9.805-.274-.05.898-.096 1.793-.151 2.695-1.631-.139-3.42.164-4.964.482-.158.032-.088.26.065.237 1.637-.244 3.248-.195 4.871-.28l-.118 1.913c-1.362-.106-2.801.113-4.126.38-.194.039-.111.33.081.295 1.353-.247 2.67-.261 4.024-.336-.072 1.169-.148 2.337-.207 3.508-.867-.02-1.723-.027-2.594-.153-.182-.026-.264.25-.077.281.862.146 1.769.267 2.657.242-.05 1.037-.097 2.074-.124 3.109-1.171-.059-2.386.048-3.545.068-.158.003-.159.243 0 .246 1.155.02 2.367.127 3.536.069-.017.714-.047 1.429-.048 2.14-4.138.093-8.281.417-12.412.649-.105.006-.107.169 0 .165 4.135-.127 8.289-.164 12.418-.431.003.673.009 1.345.03 2.016-6.256.082-12.501-.105-18.754-.26-.152-.004-.151.228 0 .236 6.251.33 12.51.559 18.769.353.023.629.043 1.257.085 1.883.001.014.008.024.01.037-.03-.007-.056-.019-.09-.02-2.471-.067-17.599 1.169-21.136-.771.263-1.634.212-3.327.263-4.977.058-1.885.175-3.782.04-5.664 1.959.215 4.323.305 6.14-.334.5-.176.414-.89-.125-.922-1.058-.064-2.181.157-3.237.255-.981.091-1.963.141-2.945.21-.212-.2-.602-.209-.663.156-.301 1.791-.323 3.603-.388 5.415-.058 1.632-.228 3.315-.163 4.959a.23.23 0 0 0-.101.162c-.279 2.723 2.423 2.434 4.463 2.455 5.941.061 11.912.103 17.851-.046.284-.007.427-.221.431-.438.329.128.764-.027.735-.476-.472-7.296 1.645-14.803.182-22zM48.919 5.779c.171-.295.107-.749-.293-.803-3.429-.462-7.164-.602-10.575.063-.211.041-.264.222-.22.387-.021.023-.044.045-.055.073-.419 1.066-.226 2.349-.202 3.479.024 1.151-.116 2.424.285 3.514.086.234.351.31.533.202.391.232.937.205 1.392.235.697.047 1.463.117 2.126-.126-.901 10.383-.433 21.007-.544 31.425-.006.611.761.714 1.047.325.957-.004 1.901-.013 2.856.093.859.095 1.75.43 2.605.281.235-.041.303-.376.139-.529-1.225-1.141-3.849-.991-5.481-.613.104-10.355.758-20.898.038-31.225-.016-.226-.191-.317-.356-.297-.05-.141-.146-.271-.287-.316-.66-.212-1.457-.066-2.144-.059-.358.004-.766-.051-1.125.018.157-1.037.003-2.163-.043-3.191-.045-1.001.008-2.063-.339-3.007 3.396.178 6.805.139 10.206.326.053.003.098-.011.144-.023-.305 1.494-.478 3.03-.574 4.588a29.512 29.512 0 0 0-4.347-.142c-.151.006-.152.234 0 .236 1.458.015 2.892.136 4.331.295-.041.78-.047 1.568-.056 2.355-.887-.167-1.83-.173-2.702-.125-.164.009-.166.259 0 .257.927-.015 1.801.117 2.692.269-.005.899.005 1.801.022 2.702-.906-.161-1.876-.095-2.758.065-.142.026-.111.275.035.255.946-.124 1.818-.049 2.733.051.022 1.063.052 2.121.077 3.173-1.485-.227-3.069-.169-4.547-.048-.113.009-.117.18 0 .179 1.527-.006 3.036.151 4.556.204.016.703.015 1.39.022 2.083-.933-.131-1.898-.114-2.828-.034-.133.011-.137.216 0 .211.96-.037 1.888.054 2.832.155.002.397.016.803.013 1.196l-.007.642c-.821-.047-1.682.025-2.488.054-.147.005-.147.223 0 .229.804.029 1.665.101 2.484.054-.006.645-.015 1.289-.022 1.934-1.524-.071-3.042-.039-4.572-.22-.121-.014-.15.193-.029.214 1.468.255 3.078.465 4.597.354l-.025 2.124c-.759.008-1.504.026-2.27-.074-.129-.017-.16.206-.031.228.744.126 1.531.219 2.297.17-.012 1.008-.02 2.017-.031 3.025-.913-.146-1.833-.255-2.748-.373-.156-.02-.194.253-.037.276.925.137 1.852.285 2.782.393-.009.818-.013 1.637-.02 2.455-1.267.028-2.515.039-3.781-.094-.177-.019-.171.251 0 .274 1.246.167 2.521.253 3.778.151-.007.842-.01 1.683-.014 2.525-.961.021-1.925.12-2.882.188-.154.011-.157.25 0 .243.958-.048 1.926-.068 2.881-.163-.003.661.004 1.322.003 1.983-1.426-.02-2.859.051-4.285.072-.084.001-.084.129 0 .13 1.426.021 2.859.092 4.285.072 0 1.087-.007 2.174.006 3.261.008.666 1.016.665 1.034 0 .173-6.704.123-13.419.166-20.125.036-5.915.875-12.341-.279-18.159z"/><path d="M47.932 8.041c-2.509-.511-5.179-.433-7.725-.344-.104.004-.104.163 0 .162 2.588-.044 5.118.297 7.692.427.139.007.172-.217.033-.245z"/></g></svg>