<svg xmlns="http://www.w3.org/2000/svg" viewBox="0 0 50.347 50.347"><g fill="#1d1d1b"><path d="M33.626 1.396C24.615-1.716 13.371.381 6.854 7.631.97 14.177.167 24.456 6.261 31.087a.412.412 0 0 0 .291.134c.066.05.147.081.247.06 1.053-.219 1.991-1.195 2.814-1.862.91-.737 2.101-1.501 2.684-2.532a.45.45 0 0 0-.141-.627.43.43 0 0 0-.107-.323C4.12 16.405 19.04 6.993 27.552 8.987c3.828.897 7.341 3.411 9.353 6.809 1.966 3.321 3.232 8.961-1.523 11.331-2.942 1.467-6.059 1.226-9.154.528-.018-.004-.032.001-.049-.001-.027-.165-.034-.348-.055-.519.056-.024.117-.037.173-.063.12-.055.032-.233-.087-.206l-.111.026a23.422 23.422 0 0 1-.101-1.768c.026-.039.02-.092-.002-.136-.028-1.268.001-2.549-.025-3.648-.057-2.345-.007-4.694.03-7.04.004-.24-.206-.384-.414-.399-.059-.182-.19-.334-.396-.367-2.602-.423-5.602.066-8.132.736-.423.112-.423.717-.087.879-.106 2.851.404 22.346-.474 24.367-.564.292-1.073.616-1.792.633a2.939 2.939 0 0 1-1.31-.262c-.367-.168-.544-.359-.96-.25-.156.041-.238.18-.252.331-.097 1.082 1.861 1.452 2.642 1.443.771-.009 1.776-.263 2.377-.844a.591.591 0 0 0 .294-.322c.016-.04.024-.08.039-.12a1.54 1.54 0 0 0 .138-.337c.007-.026-.004-.052-.002-.078.789-2.299.758-4.724.614-7.154 6.603.41 13.273.749 19.892.57-3.597 1.5-7.915 1.929-12.137 1.762a.696.696 0 0 0-.158-.004h-.008c-.428-.018-.637.301-.638.632-1.586-.021-3.187.069-4.764.079-.179.001-.179.277 0 .278 1.62.01 3.265.103 4.894.074.006.009.01.02.017.028.017.498.031 1 .044 1.502-1.646.038-3.309.14-4.954.214-.181.008-.176.261 0 .278 1.606.151 3.353.138 4.965-.101.015.75.016 1.5-.019 2.24-1.987-.152-4.022.006-5.996.186-.2.018-.205.331 0 .316 1.996-.145 3.988-.097 5.983-.162a14.97 14.97 0 0 1-.206 1.774c-2.341.097-4.645.378-7.001.365-.178-.001-.175.263 0 .274 2.245.146 4.705.184 6.929-.283a9.245 9.245 0 0 1-.592 1.837c-3.759.228-7.453.529-11.241.408-.123-.004-.12.181 0 .19 3.614.28 7.408.374 11.027-.15a7.59 7.59 0 0 1-1.923 2.339c-3.258 2.671-7.117 1.993-10.461.021.07-1.226.052-2.463.052-3.69 0-.408.19-3.143-.231-3.291.228.08.491-.229.333-.434-.487-.634-1.049-.258-1.236.399-.263.927-.115 2.08-.12 3.035-.006 1.347-.028 2.708.05 4.053.023.394.334.571.628.546 2.853 3.032 7.692 3.255 11.121.967 4.409-2.941 4.352-7.831 4.097-12.565 9.839.329 19.678-2.178 21.456-13.516 1.531-9.758-5.628-18.28-14.463-21.331zm13.012 20.179c-1.426-.079-2.879.008-4.302.036-.167.003-.168.257 0 .26 1.41.027 2.85.113 4.263.038-.11.889-.279 1.719-.501 2.496a.133.133 0 0 0-.132.012c-.7.455-1.879.279-2.681.293-.841.015-1.681.031-2.522.049-.206.005-.206.319 0 .32 1.164.007 2.328.008 3.492.01.58.001 1.237.102 1.71-.238a13.588 13.588 0 0 1-.977 2.323c-.011-.003-.018-.013-.031-.013-2.125-.049-4.355.358-6.469.59-.147.016-.154.245 0 .236 2.076-.128 4.286-.121 6.336-.5a12.315 12.315 0 0 1-1.989 2.583.237.237 0 0 0-.149-.069c-7.574-.273-15.168-.087-22.738.243-.137.006-.139.217 0 .214 7.473-.163 14.931-.044 22.402.055a14.24 14.24 0 0 1-3.268 2.198c-.024-.01-.039-.031-.071-.032-6.909-.235-13.831-.184-20.743-.379-.073-1.178-.165-2.357-.2-3.522-.137-4.545-.068-9.092.086-13.636 2.32-.115 4.7-.116 6.976-.432-.08.599-.141 1.198-.197 1.798a12.444 12.444 0 0 0-4.189.584c-.19.061-.112.34.082.298a23.222 23.222 0 0 1 4.068-.493 52.521 52.521 0 0 0-.132 2.02c-1.257.115-2.489.355-3.767.367-.219.002-.22.341 0 .341 1.2.001 2.552-.018 3.75-.326-.031.809-.05 1.618-.042 2.428-1.073.266-2.124.571-3.227.731-.178.026-.138.34.043.318 1.075-.136 2.173-.326 3.194-.707.01.66.027 1.32.062 1.981.015.212.01.55.008.95a100.3 100.3 0 0 0-2.912.283c-.148.016-.153.246 0 .236.968-.066 1.942-.135 2.912-.229.002.59.019 1.272.105 1.887-.872.202-1.736.379-2.665.419-.137.006-.139.217 0 .214.887-.017 1.823-.098 2.717-.302.086.44.214.827.414 1.081.054.215.2.403.488.47 5.322 1.24 12.714.747 14.209-5.728 1.497-6.482-4.371-12.818-9.954-14.999-3.294-1.287-6.899-1.382-10.225-.441-2.357-.022-4.747.225-7.096.354-.209.012-.212.334 0 .327 1.825-.061 3.681-.05 5.519-.147-1.064.42-2.09.945-3.052 1.581-1.289.127-2.553.252-3.864.182-.22-.012-.217.326 0 .341 1.04.073 2.113.088 3.163-.033-.523.388-1.03.801-1.506 1.255-.149.142-.289.296-.432.445-1.341.07-2.677.171-4.025.162-.186-.001-.185.282 0 .288 1.199.038 2.422.055 3.629-.031a15.01 15.01 0 0 0-1.839 2.583c-1.122.125-2.227.286-3.364.301-.154.002-.154.237 0 .239 1.046.012 2.136-.014 3.179-.202-.852 1.625-1.371 3.382-1.364 5.108-.85.136-1.697.313-2.542.472-.132.025-.075.221.055.2.831-.136 1.669-.258 2.497-.416.023.671.118 1.336.309 1.984-1.018.132-2.03.311-3.043.477-.161.026-.092.268.067.244 1.015-.152 2.033-.29 3.043-.477.294.884.76 1.734 1.425 2.521-1.389.14-2.728.289-4.147.167-.118-.01-.115.17 0 .183 1.418.164 2.954.213 4.365-.117.153.168.298.339.47.501-.896.501-1.674 1.375-2.427 2.037-.625.549-1.472 1.118-2.034 1.807-4.782-6.522-4.468-15.512.989-21.603 5.735-6.401 15.017-8.387 23.191-6.59 1.596.351 3.142.906 4.61 1.618-2.539-.017-5.086.1-7.622.158-1.589.037-4.567-.502-5.931.365-.062.04-.054.116 0 .157l.107.081c.04.03.094.003.119-.031l.056-.077c.056-.077-.072-.176-.132-.102.454-.551 6.674-.005 7.453-.013 2.259-.022 4.529.005 6.786-.112a21.29 21.29 0 0 1 4.158 2.93c-1.933-.076-3.904.05-5.827.08-.174.003-.174.268 0 .271 2.069.032 4.195.179 6.268.059a19.725 19.725 0 0 1 2.264 2.566c-2.82-.358-5.922-.354-8.707-.067-.138.014-.142.208 0 .218 2.926.207 6.03.33 8.972.228.525.756 1 1.544 1.403 2.369-2.085-.211-4.257-.139-6.35-.119-.16.002-.157.237 0 .246 2.129.123 4.338.309 6.468.184.01-.001.014-.009.023-.01.333.717.624 1.454.855 2.214-2.186-.378-4.534-.312-6.742-.413-.212-.01-.268.344-.051.377.443.068.584.087 1.028.133a.107.107 0 0 0 .088-.028c1.916.184 3.889.424 5.781.312.24.865.42 1.751.514 2.661-.017-.012-.027-.029-.052-.033-1.571-.22-3.182-.274-4.764-.365-.205-.012-.2.297 0 .316 1.564.149 3.151.342 4.722.363a.14.14 0 0 0 .109-.05c.088.999.101 2.015-.006 3.055z"/><path d="M22.569 46.348c-3.134.061-6.312.186-9.437.438-.158.013-.163.247 0 .25 3.126.058 6.322-.083 9.437-.347.216-.018.223-.345 0-.341zM10.158 26.796c-.644.133-1.262.4-1.892.59-.552.166-1.131.265-1.659.496-.048.021-.021.095.026.095.62 0 1.24-.196 1.834-.358.601-.164 1.226-.325 1.772-.63.108-.061.033-.216-.081-.193zM9.069 17.241c-.506.139-1.036.218-1.552.314-.288.054-.806.044-1.045.239-.066.054-.042.17.027.209.049.027.102.022.156.018a.13.13 0 0 0 .088-.042c.091-.012.211-.02.269-.029.264-.041.528-.08.791-.123.454-.073.955-.125 1.366-.345.135-.071.044-.28-.1-.241z"/></g></svg>