<svg xmlns="http://www.w3.org/2000/svg" viewBox="0 0 48.622 48.622"><g fill="#b7b7b7"><path d="M21.403 9.733c-.85-2.577-2.393-4.787-5.1-5.585-5.185-1.529-9.687 3.022-8.661 8.132-4.636-.251-9.726 4.283-6.761 9.07 1.36 2.194 4.047 2.866 6.462 2.912 5.276.101 10.297-1.885 15.647-1.391a.443.443 0 0 0 .45-.219c.184.027.397-.114.364-.361-.558-4.101-1.099-8.613-2.401-12.558zm1.587 12.021c-4.555-.42-8.74.772-13.262 1.057-2.222.14-4.442.219-6.249-1.284-1.579-.508-2.013-1.581-1.302-3.219-.513-1.802.126-2.963 1.917-3.481 1.781-1.219 2.385-1.386 4.363-1.777.116-.023.178-.11.214-.209a.471.471 0 0 0 .217-.471c-.832-6.583 5.936-8.785 9.629-5.128a22.868 22.868 0 0 0-3.965-.561c-.127-.007-.125.186 0 .196 1.462.12 2.88.371 4.299.701.268.308.52.642.743 1.02-1.52-.187-3.094-.162-4.62-.229-.127-.005-.126.189 0 .196 1.564.086 3.172.281 4.739.228.21.383.396.801.552 1.253.22.637.41 1.285.589 1.937-1.531-.073-3.084.001-4.616.009-.103.001-.103.16 0 .16 1.549.008 3.12.085 4.669.007.19.707.361 1.421.522 2.139a139.987 139.987 0 0 0-5.612.039c-.069.002-.069.106 0 .108 1.882.048 3.772.067 5.655.039.142.639.278 1.28.409 1.922-2.243.035-4.463.046-6.702-.12-.091-.007-.09.133 0 .141 2.232.202 4.495.297 6.733.131.132.653.263 1.306.397 1.958-3.861.075-7.704-.018-11.554-.363-.068-.006-.067.099 0 .105 3.855.381 7.719.546 11.591.441.119.573.24 1.146.37 1.714-5.267-.12-10.532.192-15.76.825-.073.009-.075.124 0 .116 5.266-.547 10.516-.751 15.804-.759.091.391.182.782.282 1.17-.021.001-.034-.009-.052-.011zM35.664 7.439c2.125-4.785-3.529-8.71-7.916-6.554-7.088 3.484-4.063 15.469-2.863 21.385.049.24.289.319.494.271.066.252.263.45.61.416 5.908-.582 17.599-.9 18.721-8.636.676-4.661-4.73-9.8-9.046-6.882zm-9.675 14.178a.683.683 0 0 0-.342.142c-.046-.537-.094-1.073-.142-1.61 3.336.051 6.707.175 10.043.043-3.176.845-6.673 1.116-9.559 1.425zm15.838-4.729c-.015-.03-.038-.055-.081-.057-3.439-.175-6.9-.03-10.332.211-.087.006-.088.142 0 .137 3.434-.2 6.851-.175 10.288-.146a6.374 6.374 0 0 1-1.06.94c-1.309.919-2.872 1.56-4.532 2.045a.09.09 0 0 0-.057-.026c-3.504-.168-7.051-.024-10.56.029-.252-2.83-.515-5.661-.654-8.498-.094-1.919-.087-3.476.432-5.342.176-1.707 1.053-3.01 2.63-3.908 1.648-.715 2.979-.839 4.018-.414a8.96 8.96 0 0 0-2.206.255c-.118.029-.068.207.05.181.888-.2 1.755-.25 2.637-.187.542.351.994.873 1.334 1.602-1.053.101-2.103.213-3.163.26-.119.005-.12.188 0 .186 1.084-.024 2.185-.069 3.267-.208.206.494.373 1.061.495 1.711-1.257.067-2.515.234-3.767.358-.112.011-.114.187 0 .177 1.263-.113 2.54-.184 3.797-.355.076.442.139.909.178 1.421-.055.367.256.692.567.715a.401.401 0 0 0 .045.178c-.895.012-1.79.025-2.683.033-.118.001-.118.182 0 .184 2.243.02 4.492.065 6.736.027a5.014 5.014 0 0 1 2.233 1.079c.265.221.495.456.698.701-2.374-.114-4.762-.101-7.137-.111-.107 0-.107.163 0 .167 2.421.077 4.855.18 7.278.145a4.7 4.7 0 0 1 .906 2.085c-1.12.434-3.139-.039-4.148-.088l-4.234-.206c-.09-.004-.089.133 0 .139 2 .13 3.999.265 5.999.392.744.047 1.699.299 2.421.026.148 1.46-.373 2.968-1.395 4.162zM23.929 25.038a.4.4 0 0 0-.421-.331c-.051-.215-.211-.393-.476-.358-6.525.869-16.98 2.257-18.595 10.18-.52 2.55.178 5.321 2.317 6.939 1.669 1.262 4.217 1.81 5.968.562-1.16 5.664 5.815 7.949 9.974 5.062 7.398-5.134 2.749-15.319 1.233-22.054zm-5.601 14.506c2.27.311 4.594.472 6.888.347-.108.764-.263 1.519-.525 2.234-2.263.447-4.429.617-6.75.24-.086-.014-.124.117-.036.132 2.21.386 4.529.412 6.711-.155a8.105 8.105 0 0 1-.346.759c-2.523 4.836-10.155 5.504-10.714-1.248a.433.433 0 0 0-.439-.389.24.24 0 0 0-.164-.096c-2.926-.273-5.93-.172-7.07-3.584-1.035-3.098.829-6.168 3.209-7.984 4.018-3.066 9.228-3.228 13.957-4.406.133.611.28 1.222.433 1.833-1.137-.272-2.322-.271-3.475-.066-.107.019-.061.18.045.163 1.192-.193 2.325-.108 3.486.122.118.469.238.937.361 1.406-1.29-.119-2.614.012-3.886.227-.082.014-.046.136.034.124 1.309-.194 2.583-.187 3.898-.169.149.574.301 1.148.443 1.725-1.098-.042-2.205-.004-3.303.007-.094.001-.094.145 0 .146 1.111.011 2.232.051 3.343.007.173.709.338 1.42.477 2.134-1.478-.102-2.999.037-4.454.231-.088.012-.091.152 0 .141 1.506-.183 2.986-.17 4.488-.184.131.692.244 1.386.319 2.086-1.674.06-3.334.124-5.015.065-.083-.003-.082.124 0 .129 1.661.103 3.364.129 5.03-.022.03.308.065.616.081.926.019.364.013.739.012 1.112-3.046.113-6.076.248-9.13.203-.06-.001-.059.09 0 .093 3.03.127 6.104.145 9.131-.119-.008.674-.04 1.353-.128 2.028-2.312.011-4.589-.031-6.897-.299-.058-.009-.073.093-.014.101z"/><path d="M47.503 25.467c-1.501-2.293-3.981-3.234-6.644-3.367-4.67-.232-9.896.844-14.48 1.729a.368.368 0 0 0-.226.141c-.255-.06-.574.199-.514.511.861 4.421 2.336 9.051 4.051 13.219.972 2.362 2.445 4.516 5.099 5.014 4.553.853 8.603-2.71 7.277-6.964 5.11-.091 8.395-5.764 5.437-10.283zm-13.135 6.661c2.538.112 5.079.148 7.619.162 1.147.006 2.742.269 4.045.096-1.053 1.24-2.695 2.046-4.518 2.069-.01-.017-.015-.034-.025-.05-.297-.517-1.012-.152-.916.386l.031.16c-1.726-.032-3.46.023-5.183.038-.086.001-.086.132 0 .133 1.736.014 3.483.071 5.222.036.155.802.324 1.585.246 2.379-2.445-.189-4.93-.067-7.372.125-.064.005-.066.105 0 .101 2.455-.14 4.894-.09 7.35-.091-.034.257-.09.514-.187.775a4.12 4.12 0 0 1-.341.699c-.018-.041-.049-.061-.095-.054l-.126.02c-.077.012-.057.135.018.135-2.379.013-4.656.082-7.047-.203-.08-.009-.099.129-.019.141 1.5.227 3.014.354 4.531.39.643.015 1.737.236 2.436-.011-.91 1.136-2.369 1.679-3.986 1.715-3.929.087-4.989-3.52-5.95-6.54-1.071-3.367-2.061-6.791-3.494-10.026 4.108-.197 8.16-.924 12.258-1.194 2.212-.146 4.624.194 6.312 1.575-.016-.014-.034-.028-.061-.029-2.803-.18-5.638-.058-8.438.12-.089.006-.09.143 0 .139 2.817-.117 5.622-.053 8.438-.056.094 0 .117-.1.076-.159a5.38 5.38 0 0 1 1.299 1.537 6.44 6.44 0 0 0-.049-.054c-.063-.07-.181.021-.131.101.306.489-1.753.433-1.993.433-.867-.001-1.734.007-2.601.019-1.61.022-3.219.067-4.828.126-.093.003-.094.148 0 .146 3.22-.082 6.437-.077 9.658-.036.068.001.11-.055.117-.117.016-.145.023-.223.022-.287.01.021.025.037.035.058.875 1.91.54 3.754-.498 5.126-.756.036-1.788-.118-2.334-.114-1.111.009-2.223.013-3.334.012-2.064-.001-4.127-.033-6.19-.039-.068-.002-.067.105.003.108zM22.773 44.124c-1.888.463-3.745.78-5.694.791-.052 0-.052.08 0 .08 1.924.005 3.879-.198 5.723-.767.066-.021.038-.121-.029-.104zM20.243 10.249c-1.473-.098-2.952-.136-4.427-.199-.113-.005-.112.169 0 .175 1.475.081 2.951.187 4.427.232.135.005.133-.199 0-.208zM39.216 18.519c-4.281-.105-8.579-.015-12.861.037-.069.001-.069.107 0 .108 4.281.052 8.58.142 12.861.037.117-.004.117-.179 0-.182zM42.806 14.619c-3.237.032-6.465.149-9.703.109-.086-.001-.085.13 0 .133 3.222.121 6.484.191 9.703-.029.135-.009.138-.214 0-.213z"/><path d="M47.008 29.877c-2.656-.227-5.338-.294-8.002-.395-.098-.004-.097.146 0 .152 2.661.166 5.336.37 8.002.41.109.002.106-.158 0-.167z"/></g></svg>