<svg xmlns="http://www.w3.org/2000/svg" viewBox="0 0 48.562 48.562"><g fill="#b7b7b7"><path d="M42.769 17.345a17.592 17.592 0 0 0-.477-3.358c.006-.02 0-.025-.01-.044-.878-3.631-2.881-6.917-5.573-9.394l.254.031c.102.013.126-.162.024-.18-.173-.03-.347-.048-.52-.076C32.651.936 27.501-.829 22.123.387a.363.363 0 0 0-.149.071C14.856.911 7.595 7.235 6.266 14.162c-.987 5.141-.189 10.881-.117 16.083.075 5.437-.775 11.793.482 17.097a.593.593 0 0 0 .319.376c-.026.359.188.745.653.758 3.616.109 7.397.257 10.942-.587.271-.065.3-.318.197-.509.183-1.449.298-2.91.375-4.378.125-.018.25-.024.374-.047.079-.014.062-.149-.019-.141-.117.012-.232.018-.348.028.085-1.697.112-3.402.125-5.107.075-.007.15-.006.224-.014.101-.011.104-.167 0-.16-.075.005-.148.004-.222.009.015-2.161.005-4.32.038-6.458.016-1.075-.095-2.821-.147-4.807.045-.009.092-.01.137-.02.065-.014.052-.126-.016-.118-.042.005-.083.006-.125.011-.134-5.359.189-12.395 4.591-12.861 2.412.537 4.561 1.825 4.461 4.68-.102 2.915-3.15 4.316-5.703 3.759-.625-.136-.972.548-.736.972-.753 4.111-.396 8.667-.312 12.809.008.387.278.589.573.626a.67.67 0 0 0 .407.189c11.188 1.05 20.831-7.628 20.35-19.007zm-1.251 2.582c-3.067-.097-6.129-.159-9.194-.328-.095-.005-.094.141 0 .148 3.047.224 6.113.4 9.169.388a16.515 16.515 0 0 1-.708 3.255c-3.159-.172-6.352-.184-9.515-.18-.078 0-.077.117 0 .12 3.141.142 6.311.269 9.456.236a16.142 16.142 0 0 1-3.124 5.405c-2.044.059-4.073.147-6.12.074-.107-.004-.107.162 0 .167 1.977.087 3.98.122 5.956-.055a16.974 16.974 0 0 1-1.765 1.721c-2.383.048-4.757.124-7.143.078-.093-.002-.092.14 0 .143 2.287.093 4.597.126 6.884-.017a17.545 17.545 0 0 1-2.253 1.532c-2.666.306-5.313.516-8.005.486-.067-.001-.066.102 0 .103 2.519.067 5.051-.025 7.552-.354a18.86 18.86 0 0 1-9.932 2.163c.096-3.879.374-8.08-.265-11.919 3.068.58 6.424-1.26 6.938-4.51.577-3.645-2.043-5.807-5.228-6.133a.49.49 0 0 0-.178-.041c-.076-.003-.142.006-.216.006a8.195 8.195 0 0 0-.736-.009.358.358 0 0 0-.211.083c-1.78.285-2.874 1.398-3.552 2.86-1.09-.049-2.179.048-3.256.237-.077.014-.043.128.032.116 1.053-.162 2.098-.2 3.155-.191a10.523 10.523 0 0 0-.695 2.368c-.615-.002-1.231.015-1.841.021-.094.001-.094.145 0 .146.6.006 1.206.022 1.811.021a20.65 20.65 0 0 0-.241 2.473l-.008.189a16.515 16.515 0 0 0-2.828-.085c-.085.004-.086.134 0 .133.953-.013 1.883.065 2.819.162l-.079 1.979c-.981.097-1.941.064-2.932-.166-.087-.02-.124.113-.037.134a8.408 8.408 0 0 0 2.961.218c-.043 1.056-.086 2.104-.127 3.168-1.294.073-2.549-.014-3.853-.35-.066-.017-.093.082-.028.102 1.252.369 2.572.538 3.874.437-.039.998-.078 1.996-.113 2.999a273.142 273.142 0 0 0-5.858-.366c-.061-.003-.06.09 0 .095 1.949.156 3.9.31 5.852.424-.026.735-.057 1.467-.079 2.203-1.503-.019-3.006.007-4.509.018-.071 0-.071.109 0 .11 1.501.011 3.003.036 4.505.018-.025.842-.064 1.68-.08 2.522-1.474.079-2.92.059-4.399-.167-.091-.014-.132.124-.039.14 1.464.254 2.955.347 4.435.219-.019.985-.04 1.971-.043 2.954-2.244.055-4.45-.062-6.695-.465-.071-.013-.103.096-.03.11 2.219.428 4.471.636 6.725.556-.001.995-.014 1.993.007 2.983-1.39.069-2.777.108-4.174.041-.102-.005-.101.153 0 .158 1.391.076 2.788.09 4.179.001.014.638.027 1.277.052 1.912-1.048.036-2.088-.002-3.153-.179-.086-.014-.124.117-.036.132 1.056.189 2.129.274 3.198.238.027.642.049 1.286.089 1.924-1.809.229-3.549.324-5.394.13-.073-.008-.09.118-.017.128 1.781.245 3.642.255 5.424-.071.041.637.074 1.277.13 1.909-3.373-.245-6.795.027-10.178-.032-.898-1.954-.242-6.253-.276-8.277-.032-1.908-.078-3.815-.12-5.723-.091-4.133-.154-8.266-.208-12.4-.067-5.15.439-9.205 4.02-13.132 3.274-3.591 7.316-5.696 12.171-6.161a.51.51 0 0 0 .336-.162c3.253.288 6.379 1.173 9.093 2.622a82.087 82.087 0 0 0-5.818-.302c-.058-.001-.058.089 0 .091 2.142.075 4.26.269 6.379.502 1.763 1.015 3.332 2.282 4.608 3.814-3.019-.42-6.062-.719-9.085-1.081-.102-.012-.101.147 0 .16 3.092.393 6.188.856 9.291 1.184.69.866 1.296 1.806 1.79 2.832-1.795-.087-3.597-.114-5.392-.168-.126-.004-.126.192 0 .196 1.826.067 3.657.161 5.485.191.363.786.671 1.613.904 2.491-2.894-.252-5.809-.366-8.707-.536-.083-.005-.082.123 0 .129 2.914.213 5.839.485 8.761.613.271 1.083.442 2.232.493 3.454-1.877-.171-3.786-.152-5.67-.213-.113-.004-.112.17 0 .175 1.886.08 3.792.242 5.68.21.005.168.027.326.028.497.005.622-.037 1.223-.099 1.816z"/><path d="M39.494 25.918c-2.727-.127-5.493-.05-8.223.003-.084.002-.084.129 0 .131 2.729.053 5.496.13 8.223.003.088-.004.088-.133 0-.137z"/></g></svg>