<svg xmlns="http://www.w3.org/2000/svg" viewBox="0 0 49.936 49.936"><g fill="#b7b7b7"><path d="M37.412 2.171C33.198-.174 28.486-.104 23.792.083c-6.236.249-12.51.508-18.734.942-.037-.063-.07-.131-.112-.189-.145-.203-.532-.22-.589.077l-.037.197c-.021.11.03.262.16.282l.142.021c.012.002.023-.003.036-.004.019.097.07.187.196.224.016.005.033.007.049.012.082 1.317-.53 4.575-.539 5.657-.014 1.933-.024 3.866-.032 5.798-.016 3.865-.016 7.73-.045 11.595-.058 7.73-.086 15.462-.165 23.191a.586.586 0 0 0 .302.536c-.267.087-.198.492.042.576 4.241 1.479 9.967.846 14.361.523.37-.027.52-.375.451-.65.299.084.674-.074.69-.483.202-5.183.26-10.424.018-15.609.125-.06.12-.228-.01-.286l-.003-.099c8.47 2.015 21.324-1.367 24.621-10.05a.372.372 0 0 0-.011-.312c3.305-7.235-.368-16.076-7.171-19.861zm6.371 19.552c-6.086-.153-12.199.133-18.286.247.847-.223 1.666-.532 2.422-.971a5.21 5.21 0 0 0 1.372-1.13c.01.051.044.098.115.1 4.867.176 9.75.284 14.621.297-.072.483-.152.968-.244 1.457zM20.296 11.028c3.826-1.362 9.198.308 9.211 4.928.007 2.677-1.445 3.851-3.874 4.574-1.797.535-3.646.654-5.496.464.362-3.226.424-6.744.159-9.966zm23.793 8.831c-2.364-.062-4.729-.076-7.093-.101-2.028-.022-4.948-.522-6.906.025.066-.019.056-.13-.017-.124l-.665.052c.922-1.182 1.184-2.683 1.091-4.374-.269-4.895-6.26-6.873-10.327-5.115-.154-.188-.49-.222-.539.081-.01.064-.016.134-.026.198-.047.026-.098.045-.145.072-.302.175-.19.522.053.629a53.354 53.354 0 0 0-.451 9.814c-.487.264-.592 1.079.075 1.178l.092.011c.145.152.374.17.557.068 1.788.209 3.694.187 5.475-.242-.027.061-.004.146.083.145 6.12-.028 12.271.123 18.385-.167l-.013.072a17.45 17.45 0 0 1-4.546 4.921c.031-.121-.024-.269-.187-.278-8.849-.508-17.726-.724-26.585-.994-.143-.004-.142.214 0 .221 8.849.462 17.712.977 26.57 1.201a19.135 19.135 0 0 1-3.846 2.105c-7.69.022-15.384.106-23.073.235-.136.002-.136.208 0 .211 7.309.134 14.631.13 21.941-.017-4.507 1.568-9.623 1.836-14.622 2.019-.285.01-.353.408-.087.505l-.004.013c-.005.07-.007.141-.012.211-2.426-.151-4.952.031-7.352.263-.151.015-.152.253 0 .237l.485-.05c.04-.004.054-.035.061-.064.141.202.365.234.685.072l.615-.025a96.835 96.835 0 0 1 2.155-.051c1.108-.014 2.221.021 3.329-.001-.031.505-.06 1.01-.087 1.516-2.374.174-4.721.429-7.108.458-.145.002-.145.224 0 .225 2.349.02 4.754.003 7.087-.323a174.062 174.062 0 0 0-.17 4.402c-1.908.14-3.77.443-5.693.46-.145.001-.145.222 0 .225 1.859.038 3.858.054 5.686-.352-.019.807-.048 1.613-.057 2.42-3.441.451-6.88.734-10.35.849-.131.004-.132.204 0 .204a81.112 81.112 0 0 0 10.344-.647 235.124 235.124 0 0 0-.004 3.939c-.007 0-.01-.007-.017-.007-3.964.061-7.94.278-11.897.514-.143.009-.146.227 0 .225 3.962-.046 7.941-.114 11.897-.335.009 0 .012-.009.021-.01.006.603.006 1.208.016 1.809a.542.542 0 0 0 .037.172c-.04-.008-.076-.022-.123-.02-2.623.086-5.233.171-7.857.044-1.882-.091-3.804-.385-5.689-.265a.599.599 0 0 0 .17-.432c-.041-8.695-.046-17.395-.032-26.09.007-4.187.017-8.374.016-12.562 0-1.781.586-5.363-.063-7.482 3.159.757 6.463.053 9.674-.203 4.126-.329 8.295-.56 12.434-.476 4.895.099 9.4 1.292 12.839 4.823-5.128-.171-10.335.153-15.454.467a.16.16 0 0 0-.042.313l.647.225c.12.042.2-.148.087-.206.572.29 2.154-.102 2.889-.125 1.393-.044 2.785-.085 4.178-.117 2.586-.059 5.181-.025 7.763-.165.1-.005.15-.072.17-.145.048.052.098.099.146.152a14.305 14.305 0 0 1 1.832 2.513c-4.457-.129-8.954-.04-13.41.067-.097-.003-.143.072-.141.148-.002.075.044.151.141.148 4.527.109 9.098.202 13.625.063.387.74.711 1.492.947 2.262-3.345-.279-6.774-.123-10.132-.14-.181-.001-.181.276 0 .281 3.36.102 6.787.38 10.145.218.033-.002.05-.02.073-.033.274.978.448 1.977.524 2.997-4.088-.221-8.222-.095-12.316-.093-.145 0-.145.221 0 .225 4.101.109 8.24.343 12.342.227.082 1.521-.021 3.084-.244 4.681z"/><path d="M18.34 43.995c-2.416.274-4.728.588-7.168.518-.134-.004-.132.198 0 .208 2.359.169 4.902.151 7.205-.453.146-.039.122-.291-.037-.273zM18.698 36.842c-2.943-.193-6.036.139-8.944.603-.093.015-.072.174.023.166 2.98-.267 5.939-.289 8.921-.441.211-.012.21-.314 0-.328zM41.074 24.518c-8.708-.781-17.48-1.071-26.221-1.076-.118 0-.117.179 0 .183 8.756.278 17.48.798 26.221 1.35.295.019.289-.431 0-.457zM43.888 16.959c-2.732-.024-5.489.268-8.222.355-.21.007-.211.332 0 .327 2.721-.06 5.521-.015 8.222-.369.193-.026.208-.311 0-.313zM36.363 3.183c-6.519-.076-13.074.352-19.591.557-.165.005-.166.26 0 .257 6.517-.114 13.085-.008 19.591-.403.262-.016.267-.408 0-.411z"/></g></svg>