<svg xmlns="http://www.w3.org/2000/svg" viewBox="0 0 49.039 49.039"><g fill="#1d1d1b"><path d="M29.176.387c-6.485-1.558-14.779 1.692-17.532 7.958-2.687 6.114-.665 14.58 4.774 18.479-2.412 6.835-3.656 14.25-4.839 21.378-.122.736.783 1.172 1.222.515 4.046-6.057 7.798-12.323 10.913-18.914 15.403.171 21.387-25.59 5.462-29.416zM13.502 45.168c.331-1.674.688-3.343 1.054-5.009.676-.002 1.352-.01 2.025-.045a160.643 160.643 0 0 1-3.079 5.054zm23.189-28.164c-.014.077-.031.154-.046.231-.723-.001-2.222-.186-2.708-.155l-3.32.206c-2.056.128-4.112.254-6.166.413-.169.013-.174.272 0 .267 2.531-.068 5.06-.184 7.589-.291 1.285-.054 3.188.218 4.549-.157a13.839 13.839 0 0 1-.437 1.612c-.199.575-.44 1.112-.699 1.63-4.245-.238-8.586.169-12.775.839-.095.015-.074.179.023.169 4.184-.44 8.314-.504 12.509-.555-.548.997-1.19 1.9-1.932 2.691-3.174.038-6.352.158-9.522.294-.173.007-.175.27 0 .271a322.02 322.02 0 0 0 9.061-.079 14.199 14.199 0 0 1-2.947 2.17c-3.719-.198-7.468-.165-11.187-.203-.148-.002-.146.222 0 .229 3.428.159 6.88.379 10.319.424-1.663.796-3.493 1.333-5.412 1.62-.275-.176-.645-.164-.846.202-1.459-.121-2.95-.109-4.409-.129-.192-.003-.188.283 0 .295 1.386.092 2.8.216 4.196.226-.364.701-.739 1.395-1.108 2.091a32.134 32.134 0 0 0-2.914.048c-.192.011-.192.288 0 .299.889.05 1.801.074 2.703.052-.401.752-.79 1.514-1.198 2.261-1.093-.006-2.17.043-3.263-.057-.135-.012-.168.219-.032.238 1.026.146 2.09.238 3.126.126-.492.897-.981 1.796-1.482 2.687-.936.166-1.856.267-2.824.176-.157-.015-.151.223 0 .243.861.111 1.751.125 2.607-.034-.472.835-.93 1.679-1.414 2.507a35.83 35.83 0 0 0-2.122.069c.958-4.359 1.973-8.704 2.764-13.095a.454.454 0 0 0-.59-.531c-3.952-4.123-6.203-10.296-4.543-15.977C14.151 3.789 22.383.12 28.798 1.773c.896.231 1.71.582 2.453 1.019-2.016-.268-4.08-.254-6.091-.043-.143.015-.149.237 0 .229 2.371-.13 4.636.064 6.969.394a10.65 10.65 0 0 1 2.543 2.747c-3.946-.92-8.13-.932-12.135-.56-.144.013-.148.237 0 .228 4.255-.252 8.286.247 12.478.88.508.88.923 1.825 1.227 2.818-3.257-.108-6.642.396-9.855.792-.151.019-.158.256 0 .243 3.307-.287 6.678-.252 9.973-.605.299 1.089.487 2.218.551 3.352-4.464-.261-9.054.159-13.502.473-.152.011-.155.245 0 .239 4.496-.184 9.031-.014 13.518-.271a16.082 16.082 0 0 1-.222 3.243c-.007.016-.016.033-.014.053z"/><path d="M19.092 19.24l-.078-.267a4.343 4.343 0 0 0-.162-.628c-.011-.031-.031-.054-.047-.081-1.178-3.891-2.615-7.508-.291-11.399a.418.418 0 0 0 .015-.402c.081-.047.153-.104.236-.149.183-.098.107-.42-.109-.403-2.927.232-5.368 4.458-5.684 7.108-.305 2.562.71 6.733 3.054 8.375.43.6 1.337.758 2.008.37.846-.489 1.101-1.413 1.04-2.319a.284.284 0 0 0 .018-.205zm-1.357 1.283a.995.995 0 0 1-.641.469c-3.694-3.242-3.669-9.514-.385-13.061-1.536 3.217-.305 7.16 1.214 10.376a.498.498 0 0 0-.023.169c.03.642.176 1.467-.165 2.047z"/></g></svg>