<svg xmlns="http://www.w3.org/2000/svg" viewBox="0 0 51.535 51.535"><g fill="#b7b7b7"><path d="M38.772 3.943C30.824-2.374 19.309-.685 12.163 6.047 6.12 11.741 3.737 21.63 9.583 28.058c.225.337.508.63.837.863.025.023.044.048.069.071.066.06.135.084.201.092.985.568 2.23.643 3.197-.116.565-.444.98-1.147 1.026-1.873.037-.587-.215-1.055-.492-1.523a.416.416 0 0 0 .019-.386c-4.469-9.941 5.164-21.16 15.456-15.449 3.773 2.094 5.967 6.123 6.105 10.402.069 2.143-.362 4.41-1.346 6.334a11.04 11.04 0 0 1-2.002 2.808c-2.383 2.592-5.152 2.18-8.302-1.218 1.308-3.801 5.749-15.692-1.245-15.578-5.152.084-9.376 8.149-4.983 11.712-1.959 4.833-3.091 10.034-3.778 15.189-.477 3.58-1.588 8.447.553 11.651-.062.367.445.685.748.375 2.452-2.505 4.217-5.747 5.545-8.969.794-1.927 1.877-4.436 1.965-6.742 6.21 4.494 16.882-.709 19.9-6.943 3.88-8.016 2.938-19.074-4.284-24.815zm.565 27.146c-1.472.138-2.881.14-4.386-.187-.083-.018-.119.108-.035.128 1.331.323 2.742.489 4.118.364a17.44 17.44 0 0 1-1.724 1.521c-.015-.007-.025-.019-.045-.019-5.832-.027-11.667-.022-17.499.042-.11.001-.11.17 0 .171 5.741.063 11.484.069 17.226.043-4.097 2.984-9.479 4.123-13.913 1.218a5.29 5.29 0 0 0-.222-.909c-.084-.24-.432-.201-.445.06-.017.326-.047.649-.08.971a.47.47 0 0 0-.051.438c-.013.1-.035.198-.049.298-1.098-.044-2.213.018-3.308.03-.11.001-.11.17 0 .171 1.082.012 2.184.073 3.27.032a20.646 20.646 0 0 1-.439 2.106c-.018-.037-.047-.068-.095-.064-1.9.144-3.798.466-5.687.717-.101.013-.105.174 0 .163 1.902-.204 3.83-.34 5.718-.649.013-.002.018-.013.028-.019-.247.9-.549 1.784-.893 2.653-.987.112-1.948.223-2.955.176-.085-.004-.083.124 0 .131.94.074 1.93.084 2.872-.081a32.331 32.331 0 0 1-.836 1.888c-1.388.132-2.785.417-4.156.647-.079.013-.061.151.019.141 1.329-.165 2.694-.289 4.015-.539a45.43 45.43 0 0 1-1.166 2.216c-.892.103-1.785.296-2.665.441-.088.015-.049.144.036.132.822-.111 1.667-.184 2.49-.325a68.83 68.83 0 0 1-.975 1.663c-.705.185-1.391.303-2.167.238-.102-.009-.099.147 0 .158a6.122 6.122 0 0 0 1.975-.083c-.646 1.053-1.31 2.09-1.967 3.112-1.535-4.325-.031-11.036.753-15.17.749-3.946 1.987-7.72 3.073-11.578.108-.384-.497-.668-.665-.28-.031.071-.057.144-.087.215-1.071-2.01-1.223-4.201-.084-6.307 1.27-2.346 6.804-6.466 7.679-.09.225 1.643-.765 3.887-1.168 5.472-.486 1.91-1.017 3.815-1.374 5.754a.382.382 0 0 0 .12.365c.145 4.991 7.1 4.3 9.972 1.529a11.567 11.567 0 0 0 1.445-1.711c2.154-.058 4.334-.036 6.482-.211a16.493 16.493 0 0 1-2.155 2.818zm-.385-10.855c1.564.095 3.195.164 4.76-.03a26.373 26.373 0 0 1-.745 4.598 12.885 12.885 0 0 1-1.352 3.26c-2.16-.023-4.337.162-6.495.268 2.811-4.163 2.961-10.023.572-14.424 2.412.012 4.935-.062 7.298-.557.102-.021.081-.193-.025-.184-2.465.21-4.882.528-7.361.593-.325-.58-.69-1.136-1.104-1.656C25.088.285 6.356 11.793 13.535 25.199c-.015.216.045.437.129.687.202.6.351 1.09-.04 1.672-.855 1.275-2.413.601-3.326-.22a.498.498 0 0 0-.221-.111C.838 12.96 19.318-3.081 33.618 2.504c-2.792.01-5.588.113-8.37.309-.097.007-.098.156 0 .152 3.027-.122 6.045-.16 9.071-.15.701.312 1.395.661 2.069 1.084.569.357 1.087.75 1.583 1.158-2.425-.06-4.866.158-7.263.488-.09.012-.069.171.022.16 2.521-.309 5.018-.366 7.551-.387a15.019 15.019 0 0 1 2.15 2.287c-2.558-.059-5.134.285-7.613.89-.093.023-.053.162.039.142 2.584-.553 5.13-.752 7.76-.788 1.872 2.599 2.842 5.708 3.085 8.958-1.518.034-3.015.148-4.538.094-.101-.004-.099.149 0 .156 1.492.111 3.064.17 4.551-.049a23.3 23.3 0 0 1 .01 2.955c-1.593.03-3.172.151-4.772.09-.118-.005-.117.174-.001.181z"/><path d="M34.74 34.256c-2.252.077-4.51.358-6.755.554-.098.009-.1.161 0 .154 2.247-.147 4.519-.214 6.755-.48.142-.017.151-.233 0-.228zM42.324 25.972c-1.335.075-2.673.31-4 .477-.107.014-.11.183 0 .171 1.337-.145 2.701-.228 4.025-.466.102-.018.079-.187-.025-.182zM42.957 23.238c-1.528-.118-3.106-.02-4.638.01-.099.002-.099.152 0 .154 1.532.031 3.111.129 4.638.011.112-.009.112-.166 0-.175zM41.899 10.771c-1.995.224-3.885.327-5.882.038-.066-.009-.096.09-.028.102 1.952.337 3.983.441 5.935.051.107-.021.085-.203-.025-.191z"/></g></svg>