<svg xmlns="http://www.w3.org/2000/svg" viewBox="0 0 49.785 49.785"><g fill="#1d1d1b"><path d="M26.856 22.44c-.821-3.585-4.379-6.068-7.838-5.4-.027-.09-.084-.167-.22-.189-9.097-1.433-8.787 16.706 1.858 14.868 4.269-.736 7.177-5.012 6.2-9.279zm-5.729 7.984c-7.959 2.174-10.634-9.877-4.042-12.48.025.128.139.243.296.209 3.673-.792 7.443.598 8.338 4.6.753 3.366-1.266 6.763-4.592 7.671z"/><path d="M30.426 12.313c.031-.069.002-.17-.099-.179l-.088-.007c-3.012-3.031-7.081-4.87-11.864-4.515-.004 0-.006.004-.01.005C9.218 7.323.463 15.037.015 24.295c-.426 8.811 8.076 17.099 16.557 17.847 9.843.868 19.467-5.769 19.334-16.067-.066-5.134-2.069-10.223-5.48-13.762zm-2.351 14.262c2.255.205 4.589.189 6.851-.027a13.957 13.957 0 0 1-.46 3.151c-2.783-.11-5.621-.044-8.392.065-.064.003-.064.097 0 .099 2.752.108 5.571.173 8.336.067a13.645 13.645 0 0 1-3.15 5.551c-6.988-.156-13.957-.287-20.935-.741-.071-.004-.07.105 0 .11 6.906.516 13.851.894 20.779.801a15.661 15.661 0 0 1-2.762 2.283c-6.207.14-12.359-.136-18.536-.774-.084-.009-.082.121 0 .131 5.691.714 12.571 1.841 18.256.746-.051.01-.062.063-.047.104-3.488 2.155-7.87 3.089-12.128 2.466C8.34 39.503 1.127 32.17 1.359 24.295c.276-9.405 8.949-14.848 17.357-15.813a.457.457 0 0 0 .325-.184c3.463.404 6.56 1.703 9.088 3.658-4.845-.391-9.702-.687-14.551-1.007-.099-.007-.098.146 0 .154 4.967.401 9.937.829 14.911 1.153a17.226 17.226 0 0 1 3.261 3.49c-2.303-.253-4.604-.438-6.902-.76-.113-.016-.164.156-.048.175 2.345.383 4.744.733 7.121.823.659.983 1.222 2.04 1.676 3.16-2.091-.064-4.175-.07-6.267-.2-.084-.005-.081.12 0 .129 2.092.223 4.244.376 6.349.272.389.997.703 2.038.913 3.126-2.321-.261-4.686-.273-7.018-.245-.103.001-.103.16 0 .16 2.363-.005 4.703.163 7.06.276.2 1.099.306 2.239.308 3.413 0 .092-.007.18-.009.271-2.291.108-4.561.158-6.858.147-.054-.001-.052.077 0 .082zM49.605 10.212c.019-.404.042-.81.059-1.213.002-.042-.011-.073-.017-.109.317-.295.049-.949-.434-1.014-2.924-.391-6.242-.006-9.165.346a.363.363 0 0 0-.337.425.241.241 0 0 0-.158.279c.634 3.77 1.443 7.483 1.79 11.298.286 3.149.243 6.296.948 9.392.031.138.119.204.218.223.002.163.09.325.27.356.613.107 1.236.13 1.853.206.61.075 1.287.331 1.879.116.061-.022.098-.065.144-.101.212.038.451-.049.505-.295 1.4-6.415 2.111-13.111 2.434-19.684.123-.019.122-.181.011-.225zM44 13.301c.07-.015.039-.117-.029-.106.13-.219.328-.286.592-.201l.41-.014c.479-.018.958-.038 1.436-.058.61-.025 1.222-.047 1.833-.078-.067.586-.13 1.171-.196 1.757-1.41.227-2.786.512-4.225.581-.123.006-.124.197 0 .192 1.385-.052 2.861-.175 4.203-.582-.109.96-.212 1.921-.322 2.881-1.305.145-2.609.343-3.905.532-.083.012-.064.157.02.147 1.285-.149 2.58-.292 3.862-.483l-.296 2.581c-1.345.24-2.667.364-4.06.246-.131-.011-.128.189 0 .202 1.332.14 2.71.107 4.029-.178-.106.919-.212 1.838-.316 2.757-1.18.017-2.347.201-3.487.504-.108.029-.062.194.046.167 1.128-.285 2.262-.418 3.419-.471-.086.764-.178 1.528-.261 2.292-1.131.255-2.235.388-3.428.246-.103-.012-.1.147 0 .16 1.122.15 2.298.127 3.4-.164-.056.517-.121 1.034-.175 1.551-1.081.153-2.153.384-3.226.587-.068.013-.039.115.029.104 1.062-.181 2.132-.337 3.184-.564-.056.528-.117 1.057-.17 1.585-.491-.195-1.076-.142-1.601-.141-.62.001-1.243.013-1.854.116v-.003c-1.007-6.951-.366-13.775-2.833-20.482 2.743.252 5.803.494 8.581.155-.036.34-.076.68-.114 1.021a22.678 22.678 0 0 0-4.503.304c-.117.019-.091.223.028.209 1.49-.17 2.956-.221 4.442-.216-.08.715-.159 1.431-.24 2.146-.826.037-1.653.095-2.478.146-.421.026-1.575-.117-1.88.149-.177.153-.271.5.085.423zM48.797 35.234c-.796-2.081-3.027-2.979-5.023-2.353-.023-.003-.037-.021-.063-.02-2.338.112-3.372 3.497-3.06 5.426.422 2.615 3.282 3.72 5.603 2.822 2.311-.895 3.424-3.573 2.543-5.875zm-1.115 2.715c-1.71.355-3.346.418-5.079.004-.095-.023-.136.123-.041.146 1.648.411 3.367.483 5.016.082-.329.751-.928 1.382-1.758 1.678-1.683.6-3.645-.137-3.944-2.031-.282-1.787.565-3.316 2.026-4.259.012-.008.014-.023.025-.032.855-.03 1.74.198 2.454.666-.78.024-1.557.108-2.334.261-.086.017-.049.146.036.13.837-.152 1.674-.22 2.516-.229.347.266.648.587.867.977.159.284.251.584.314.888-1.651-.029-3.308.01-4.958.019-.083 0-.083.128 0 .129 1.66.01 3.327.049 4.988.019a3.233 3.233 0 0 1-.128 1.552z"/><path d="M32.572 32.25c-4.323-.224-8.685-.08-13.003.187-.075.005-.076.121 0 .118 4.34-.184 8.662-.146 13.003-.132.112.001.111-.167 0-.173z"/></g></svg>