<svg xmlns="http://www.w3.org/2000/svg" viewBox="0 0 48.582 48.582"><g fill="#b7b7b7"><path d="M48.231 17.963c-5.211-1.281-10.967-2.322-16.374-2.497-2.046-3.424-3.304-7.084-5.055-10.651-.489-.996-1.416-3.245-2.699-3.711.074-.228-.173-.525-.455-.482-2.211.336-3.047 3.184-3.873 4.927-1.487 3.137-3.025 6.488-3.552 9.94-3.83.451-7.667.823-11.497 1.294-1.204.148-4.019-.013-4.618 1.49-.716 1.795 2.296 3.781 3.305 4.783 2.448 2.433 5.034 5.248 8.056 6.985-.035.032-.075.059-.092.11C9.64 35.424 8.555 41.499 8.391 47.06c-.016.541.761.694.985.257 1.213.739 3.279-.977 4.168-1.581 1.606-1.092 3.118-2.299 4.775-3.317 1.851-1.138 3.915-1.924 5.723-3.107a.544.544 0 0 0 .135-.125c.247.392.684.663 1.152 1.036 2.301 1.835 4.878 3.377 7.343 4.979 1.594 1.035 5.11 4.429 6.628 1.762.204.011.404-.113.398-.387-.106-4.183-.593-8.298-1.67-12.347a9.324 9.324 0 0 0 1.554-.985c.224-.179-.061-.502-.294-.381-1.95 1.012-22.414 1.664-24.897.982 3.472-4.403 8.723-6.973 12.858-10.71a.264.264 0 0 0 .092-.24.563.563 0 0 0-.435-.809c-2.184-.287-4.384-.441-6.574-.686-1.687-.189-5.953-.077-7.56-1.408 7.122-1.141 15.106-.98 22.033.888-2.093 2.002-4.067 3.991-6.56 5.583-1.872 1.195-4.614 1.953-5.759 3.964-.017.03-.011.057-.017.085-.177.019-.354.036-.529.064-.128.021-.15.225-.037.28 1.901.912 4.216.861 6.287 1.014 2.738.202 5.481.426 8.223.546a.558.558 0 0 0 .316-.079c.31.147.728.022.706-.426a103.52 103.52 0 0 1-.078-2.007 74.44 74.44 0 0 0 6.289-5.427c1.694-1.637 3.642-3.342 4.589-5.543.438-.087.489-.851-.004-.972zm-4.828 5.269c.038-.078.008-.184-.109-.19-2.612-.151-5.252-.053-7.87-.148-.14-.005-.135.201 0 .214 2.575.26 5.289.476 7.87.205.022-.002.034-.016.05-.025-.356.334-.708.665-1.048.99-.325.311-.666.602-.996.906-.007-.034-.025-.064-.071-.072-2.369-.439-5.016-.111-7.384.2-.133.017-.14.226 0 .215 2.431-.208 4.873-.015 7.292-.194a107.052 107.052 0 0 1-4.647 4.02.374.374 0 0 0-.138.279c-2.64-.303-5.372-.539-8.019-.431-.094.004-.113.136-.022.164l.458.142c.042.013.069-.05.03-.071.33.175 1.087.067 1.495.095.762.052 1.524.108 2.285.17 1.306.107 2.607.25 3.911.374a5.48 5.48 0 0 0-.11 1.114c-2.554-.208-5.119-.316-7.678-.455-1.64-.089-3.363-.328-5.038-.301 1.825-.851 3.688-1.827 5.462-2.948 2.904.218 5.837.452 8.744.462.262.001.253-.379 0-.401-2.763-.241-5.568-.282-8.349-.325 2.49-1.619 4.777-3.537 6.493-5.844 2.964.187 5.953.362 8.923.365a61.072 61.072 0 0 1-1.534 1.49zm1.901-1.857c-3.011-.223-6.057-.258-9.079-.279.055-.077.116-.151.169-.229.246-.358-.03-.717-.372-.795a.557.557 0 0 0-.258-.159c-4.708-1.324-9.437-1.696-14.32-1.552-2.879.084-7.686-.651-9.847 1.571-.092.095-.005.225.112.218a.444.444 0 0 0 .042.136c.905 1.661 4.127 1.714 5.696 1.926 2.844.385 5.719.757 8.591.877-2.994 1.622-5.729 3.733-8.432 5.794-1.728 1.318-3.818 2.684-4.425 4.877-.089.323.094.536.333.601.611 1.507 6.7 1.124 7.076 1.138 4.815.177 11.695 1.144 16.571-.868.13.777.257 1.555.383 2.333-.009-.002-.013-.01-.023-.012-2.26-.255-4.74-.422-7.014-.381-.065.001-.08.097-.015.114 2.159.58 4.811.779 7.03.611.032-.002.049-.02.072-.033l.091.556c-7.45-.28-14.919-.295-22.373-.349-.152-.001-.151.231 0 .236 7.467.197 14.948.434 22.418.403.19 1.193.368 2.388.538 3.584-2.143-.201-4.373-.122-6.516-.124-.162 0-.16.241 0 .25 2.159.119 4.402.327 6.571.238.082.587.145 1.176.22 1.764-1.04-.025-2.072-.01-3.119-.128-.142-.016-.177.228-.034.252 1.023.174 2.137.312 3.201.257.082.66.176 1.319.247 1.981-1.544 1.524-6.565-2.903-7.937-3.8-.987-.645-1.981-1.29-2.982-1.915-.672-.419-3.164-1.351-3.372-2.109-.088-.321-.579-.256-.58.079 0 .017.004.031.004.047a.486.486 0 0 0-.292-.03c-2.616.537-5.115 2.14-7.296 3.636-1.175.806-5.311 4.876-6.838 4.52a135.12 135.12 0 0 0 2.433-16.379c.002-.027-.016-.039-.02-.062a.2.2 0 0 0 .014-.274c-1.438-1.772-3.301-3.195-4.967-4.752-1.469-1.374-5.032-3.84-5.027-5.894-.507-1.225.018-1.647 1.576-1.266l1.757-.2c1.171-.134 2.343-.27 3.514-.408 2.542-.299 5.072-.682 7.614-.983.43-.051.545-.563.343-.805 1.144-2.416 2.03-4.953 3.11-7.399.845-1.913 1.61-5.123 3.405-6.507.611.115 1.336 1.318 1.892 2.418a13.936 13.936 0 0 0-2.747.192c-.126.02-.098.235.03.224.969-.084 1.926-.081 2.89-.066.293.606.522 1.138.63 1.373.134.29.249.588.376.881-.014-.004-.021-.017-.039-.017-1.698-.076-3.375-.077-5.068-.278-.129-.015-.16.209-.031.228 1.67.251 3.409.469 5.099.373.069-.004.107-.044.13-.091.181.426.371.848.545 1.277-1.828.192-3.548.446-5.397.333-.149-.009-.144.214 0 .228 1.77.186 3.742.24 5.471-.25.018-.005.026-.021.04-.032.261.647.519 1.295.789 1.939.3.717.61 1.431.944 2.132-1.689-.191-3.453-.107-5.147-.144-.141-.003-.139.211 0 .218 1.741.09 3.553.327 5.297.236.353.717.736 1.417 1.177 2.08-1.507-.043-3.042.111-4.55.078-.136-.003-.135.204 0 .211 1.545.077 3.218.214 4.768-.003.254.361.51.72.804 1.055.237.27.601.147.764-.101 1.822.474 3.704.861 5.598 1.215-3.246-.132-6.622-.139-9.837.095-.062.004-.06.088 0 .095 3.456.396 7.204.402 10.672.139a.148.148 0 0 0 .143-.148c2.961.524 5.953.942 8.864 1.287-.598.887-1.328 1.718-2.1 2.516z"/><path d="M37.876 39.945c-3.623-.424-7.381-.331-11.023-.237-.109.003-.109.166 0 .169 3.666.083 7.359.371 11.023.329.172-.003.162-.242 0-.261zM38.578 45.347c-.874.004-1.765.152-2.635.238-.12.012-.124.197 0 .19.883-.05 1.794-.043 2.669-.176.145-.022.107-.253-.034-.252zM46.621 18.773c-4.317-.042-8.632.078-12.95.006-.159-.003-.158.239 0 .246 4.303.201 8.649.33 12.95.033.181-.013.185-.283 0-.285zM27.771 10.742c-2.247-.333-4.594-.354-6.862-.472-.137-.007-.133.198 0 .211 2.249.22 4.563.551 6.822.555.163 0 .211-.268.04-.294z"/></g></svg>