<svg xmlns="http://www.w3.org/2000/svg" viewBox="0 0 48.915 48.915"><path d="M41.647 6.626a.688.688 0 0 0-.194-.543c-3.324-3.58-7.304-7.202-12.569-5.758-4.139 1.135-8.562 4.867-11.147 8.569a45.64 45.64 0 0 0 .223-3.492c.017-.786.465-2.986-.211-3.6-.726-.66-2.586-.291-3.474-.337A67.577 67.577 0 0 1 8.297.923c-.319-.045-.558.13-.683.358-.17.015-.333.151-.3.377 1.13 7.736-.3 15.744-.405 23.531-.103 7.577.218 15.146.815 22.698a.64.64 0 0 0 .098.292c-.021.17.072.356.3.378 2.862.273 6.137.667 8.959-.038.261-.065.356-.261.338-.457.158-.006.308-.11.31-.323.009-.764.004-1.533-.007-2.304a.14.14 0 0 0-.001-.061c-.087-5.826-.626-11.807-.03-17.604a.165.165 0 0 0 .023-.224c.138-1.28.314-2.553.585-3.81.732-3.396 1.944-7.365 4.04-10.195 4.467-6.03 10.08-2.386 14.456.76.523.376 1.016-.171.95-.681.791-.834 1.528-1.77 2.206-2.68.778-1.045 1.796-2.279 2.06-3.568a.65.65 0 0 0-.364-.746zM39.7 8.313c-5.526-.274-11.166-.496-16.688-.245-.105.005-.103.153 0 .162 5.432.477 10.997.502 16.458.465-.247.43-.481.865-.712 1.262l-.357.611c-.995.069-1.967.158-2.971.116-.166-.007-.158.236 0 .253.897.097 1.839.132 2.744.018a70.568 70.568 0 0 0-1.096 1.926c-4.687-3.37-9.264-4.76-12.97-2.532-1.329-.355-2.916-.186-4.25-.021-.138.017-.144.234 0 .221 1.287-.108 2.544.057 3.813.073-.827.573-1.61 1.329-2.334 2.305-1.308-.141-2.668.006-3.962.202-.153.023-.119.291.037.273 1.235-.145 2.447-.118 3.68-.12-.43.619-.846 1.292-1.233 2.072-2.025-.154-4.087-.103-6.118-.126-.161-.002-.16.242 0 .25 1.973.09 3.972.247 5.947.221a29.132 29.132 0 0 0-1.087 2.617c-1.771-.238-3.609-.196-5.386-.108-.193.01-.196.308 0 .302 1.768-.055 3.503.086 5.261.172-.296.856-.56 1.72-.788 2.592-1.764-.114-3.574-.042-5.345-.092-.116-.003-.148.189-.028.207 1.69.251 3.567.43 5.277.241a38.447 38.447 0 0 0-.614 2.855c-1.887-.011-3.805.25-5.688.382-.163.011-.166.266 0 .257 1.868-.107 3.784-.097 5.641-.336a45.522 45.522 0 0 0-.355 2.612c-1.989-.135-3.998-.145-5.987-.219-.157-.006-.155.233 0 .243 1.974.118 3.962.302 5.943.362a55.488 55.488 0 0 0-.143 1.781c-1.337-.08-2.715.032-4.05.055-.124.002-.125.191 0 .193 1.327.023 2.697.133 4.027.056a60.911 60.911 0 0 0-.091 2.264c-.917-.028-1.863.108-2.746.258-.164.028-.092.27.068.247.898-.125 1.78-.115 2.671-.133a75.73 75.73 0 0 0-.004 2.286c-1.949-.011-3.901.034-5.85.054-.152.002-.152.234 0 .236 1.95.02 3.905.064 5.856.054.016.873.043 1.746.082 2.618-1.097-.055-2.244.055-3.314.066-.151.001-.152.234 0 .236 1.076.011 2.23.121 3.332.064.041.872.09 1.743.147 2.612-2.091-.197-4.392-.063-6.452.102-.099.008-.1.147 0 .155 2.066.166 4.378.301 6.476.101.051.751.104 1.501.161 2.247-1.319-.084-2.699.065-4.013.104-.153.005-.155.24 0 .239 1.321-.005 2.714.098 4.037-.034l.127 1.609c-1.209.002-2.431.097-3.639.088-.135-.001-.132.199 0 .207 1.188.076 2.456.155 3.667.057l.16 1.995c-.03-.009-.057-.023-.09-.027-2.575-.292-5.341.104-7.966.276a228.474 228.474 0 0 1-.892-24.557c.124-6.764 1.823-14.521.009-21.154 1.142.159 2.285.299 3.435.393 1.355.11 2.771-.048 4.109.115 1.045.127 1.079.194 1.311 1.275.146.678.007 1.533.004 2.218-.005 1.325-.02 2.649-.01 3.973-.033.056-.071.113-.103.169-.167.291.064.537.317.549.158.059.347.022.377-.18l.005-.042c2.183-3.054 5.822-6.253 9.156-7.96 3.509-1.796 6.509-1.169 9.197.528-2.063-.439-4.35-.424-6.418-.364-.174.005-.174.266 0 .271 2.35.063 4.66.455 6.997.561.033.001.055-.015.078-.029 1.141.807 2.228 1.789 3.273 2.851-4.462-.692-8.999-.994-13.498-1.331-.15-.011-.146.217 0 .232 4.543.472 9.087 1.101 13.644 1.418.049.003.083-.022.108-.056.118.122.237.242.354.366.027.029.057.037.086.06a7.88 7.88 0 0 0-.824 1.155z" fill="#1d1d1b"/></svg>