<svg xmlns="http://www.w3.org/2000/svg" viewBox="0 0 49.211 49.211"><g fill="#b7b7b7"><path d="M36.017.949a.298.298 0 0 0-.201-.25.53.53 0 0 0-.389-.469c-4.912-1.347-11.231 3.449-13.34 8.117.303-2.39.113-5.022.205-7.312.018-.455-.417-.663-.801-.61-2.235.31-4.479.316-6.717.541-.286.029-.458.196-.523.394l-.013-.002c-.268-.049-.48.073-.577.328-.989 2.601-.302 6.666-.301 9.39.001 4.173.016 8.346.024 12.518l.05 25.031a.344.344 0 0 0 .122.355c.213.28.663.309.915.075 2.2.024 4.39-.023 6.59-.119.314-.014.621-.266.604-.605-.309-6.245-.189-12.457.26-18.692.455-6.317.642-25.95 12.481-20.171a.554.554 0 0 0 .715-.184.408.408 0 0 0 .248-.227c.481-1.139.455-2.36.537-3.586.102-1.502.274-3.021.111-4.522zm-13.9 16.25c-1.884-.281-3.951-.184-5.847-.161-.176.002-.172.257 0 .271 1.867.147 3.898.382 5.772.235-.059.281-.114.56-.158.835a59.265 59.265 0 0 0-.266 1.897c-1.483-.024-2.988.133-4.473.093-.177-.005-.175.264 0 .274 1.424.08 2.971.198 4.419.033a85.395 85.395 0 0 0-.238 2.218c-1.549-.06-3.156.078-4.706.109-.169.003-.161.24 0 .257 1.488.157 3.176.239 4.675-.012a115.087 115.087 0 0 0-.255 3.384c-1.753-.082-3.547.025-5.295.074-.145.004-.145.221 0 .225 1.741.049 3.528.155 5.275.075-.041.704-.081 1.408-.114 2.111-1.195-.134-2.44.013-3.622.197-.138.021-.107.262.033.245 1.198-.146 2.375-.11 3.575-.136-.031.664-.063 1.329-.091 1.992-.939.055-1.888.161-2.813.304-.095.015-.071.167.022.166a29.379 29.379 0 0 0 2.778-.174l-.115 2.78c-.94.023-1.884.116-2.829.071-.143-.007-.141.211 0 .222.895.066 1.882.151 2.814.064l-.017.396c-.021.46-.028.927-.036 1.394-1.788-.069-3.602.032-5.386.051-.129.001-.129.199 0 .2 1.781.02 3.592.12 5.378.052-.01.714-.012 1.432-.013 2.153-1.492-.056-3 .016-4.49.028-.149.001-.149.231 0 .232 1.49.012 2.998.084 4.489.028a71.225 71.225 0 0 1-.063 3.373c-1.347-.079-2.739.012-4.077.033-.158.002-.159.244 0 .246 1.33.021 2.714.11 4.055.034-.029.51-.052 1.023-.108 1.524a7.212 7.212 0 0 1-.156.882c-1.56.208-3.079.323-4.671.173-.145-.014-.142.209 0 .225 1.52.169 3.082.175 4.595-.091-.733 2.443-2.746 2.234-5.512 2.453l-.052-22.714c-.009-3.852-.016-7.704-.027-11.556-.004-1.605-.009-3.21-.017-4.815-.007-1.371-.664-5.696.019-7.092.062.027.127.05.205.059 2.061.22 4.178-.026 6.233-.345-.022.703-.059 1.43-.095 2.165a15.225 15.225 0 0 0-3.391-.165c-.137.009-.187.229-.034.257.23.042.452.091.678.151.088.023.124-.084.068-.135.896.023 1.778.106 2.664.232-.018.391-.039.781-.052 1.173-1.289-.034-2.601.06-3.877.081-.161.003-.161.247 0 .25 1.272.021 2.58.114 3.864.082-.014.607-.019 1.213.006 1.808-.008-.002-.012-.009-.021-.01a15.074 15.074 0 0 0-3.175.201c-.12.021-.083.197.028.204a15.094 15.094 0 0 0 3.178-.173c.044.819.134 1.62.313 2.377.067.28.473.262.549 0 .021-.071.032-.147.051-.219.14.074.318.065.4-.112.24-.521.525-1.029.838-1.527.021.022.05.038.091.037a85.011 85.011 0 0 0 4.779-.206c-2.906 1.66-4.927 5.416-5.752 8.957zm12.198-9.033a8.67 8.67 0 0 0-1.021-.41l1.032-.117c-.008.175-.017.351-.011.527zm.307-2.871l-.01.063c-2.66.032-5.394.44-8.023.725-.143.016-.149.237 0 .229 2.617-.145 5.355-.193 7.966-.581-.083.535-.17 1.071-.214 1.609-.621.068-1.242.14-1.865.199-1.367-.298-2.63-.165-3.774.301a374.37 374.37 0 0 1-5.562.337c2.613-3.997 7.407-7.062 12.136-6.838.017.001.028-.006.044-.007a17.127 17.127 0 0 0-.398 1.881c-1.497.065-3.012.297-4.494.44-.211.02-.216.349 0 .334 1.457-.102 2.96-.128 4.421-.3-.078.537-.15 1.074-.227 1.608z"/><path d="M22.604 14.623c-1.717-.504-3.804-.439-5.58-.424-.126.001-.155.158-.061.224l.481.375c.066.057.161-.035.097-.097-.503-.491.43-.2.765-.175.427.032.854.067 1.28.107.988.093 1.986.316 2.976.296.176-.002.213-.256.042-.306zM23.789 11.804c-2.611-.343-5.41-.17-8.045-.161-.164 0-.162.244 0 .253 2.63.141 5.42.458 8.045.245.221-.018.213-.309 0-.337z"/></g></svg>