<svg xmlns="http://www.w3.org/2000/svg" viewBox="0 0 48.301 48.301"><g fill="#1d1d1b"><path d="M19.22.55c-.063-.643-.95-.731-1.118-.216C1.976 3.279-3.605 23.247 3.547 36.336c.278.509.934.282 1.07-.15C17.557 29.704 20.504 13.736 19.22.55zm-8.493 9.158c2.393.11 4.829.145 7.227.007-.066.779-.14 1.555-.239 2.324-2.328-.026-4.659.059-6.988.038-.114-.001-.114.173 0 .177 2.306.079 4.654.14 6.962-.023a45.11 45.11 0 0 1-.983 5.215c-1.17.134-2.333.289-3.513.337-.695.028-3.388.354-3.895-.119.059.056.139-.027.088-.088l-.061-.073c-.026-.031-.069-.021-.096 0l-.102.08c-.035.027-.023.079 0 .107.461.581 2.272.323 2.915.328 1.538.011 3.099-.083 4.615-.367a37.185 37.185 0 0 1-.831 2.802c-.01-.005-.01-.022-.023-.021-2.685.31-5.326.496-8.03.386-.064-.003-.063.095 0 .099 2.669.167 5.371.11 8.012-.335a33.16 33.16 0 0 1-1.18 2.963c-2.417.055-4.833.147-7.248.238-.093.003-.094.148 0 .146 2.396-.073 4.791-.144 7.185-.252a30.21 30.21 0 0 1-1.269 2.442c-.002 0-.004-.002-.006-.001-1.682.418-3.333.642-5.067.522-.093-.006-.091.136 0 .143 1.671.135 3.36.015 4.965-.484a28.477 28.477 0 0 1-1.511 2.313c-1.845.439-3.655.675-5.563.557-.101-.006-.099.148 0 .156 1.799.148 3.632.018 5.376-.465-1.856 2.477-4.165 4.713-7.029 6.625C.7 28.508.228 20.099 3.962 12.976c3.116-5.943 8.271-9.097 14.142-11.73a69.38 69.38 0 0 1 .015 5.84c-1.763-.404-3.571-.359-5.338-.009-.101.02-.057.169.042.153 1.772-.304 3.475-.236 5.243.06.019.003.032-.006.047-.01a59.999 59.999 0 0 1-.134 2.218c-2.415.003-4.833.06-7.249.064-.098-.001-.098.142-.003.146zM45.871 14.553C43.223 7.643 37.419 2.31 30.325.311c-.346-.097-.525.217-.452.479-.087.006-.172.046-.2.145-3.24 11.459-.017 31.716 13.821 34.892.261.06.493-.107.598-.32a.5.5 0 0 0 .374-.136c4.946-4.454 3.522-15.293 1.405-20.818zm.726 13.537c-2.136.252-4.201.385-6.349.205-.092-.008-.091.134 0 .143 2.1.218 4.26.212 6.337-.203a14.234 14.234 0 0 1-.615 2.724c-1.134.246-2.24.477-3.408.544-.09.005-.091.145 0 .141 1.112-.045 2.265-.168 3.341-.48-.481 1.324-1.175 2.519-2.154 3.492-.042.042-.065.087-.089.132-13.512-5.916-14.322-20.789-13.555-33.732.005.002.007.006.012.008 2.803 1.12 5.385 2.626 7.634 4.503-1.832-.261-3.678-.464-5.515-.672-.091-.01-.114.148-.022.162 1.961.286 3.928.586 5.898.804a24.391 24.391 0 0 1 2.211 2.174c-2.191-.295-4.415-.447-6.608-.669-.139-.014-.137.202 0 .217 2.287.257 4.59.598 6.89.765a22.825 22.825 0 0 1 2.404 3.347 189.08 189.08 0 0 1-9.932-.877c-.095-.011-.118.152-.023.168 3.328.546 6.72.862 10.095.977.333.584.657 1.175.942 1.799.121.265.239.544.356.83-2.419.017-4.756-.096-7.137-.572-.12-.024-.172.159-.051.185 2.357.509 4.79.787 7.201.604a.101.101 0 0 0 .061-.03c.361.908.699 1.906 1 2.957-2.67-.093-5.345-.084-8.017-.178-.079-.003-.078.118 0 .122 2.678.162 5.386.312 8.07.241.236.844.455 1.711.629 2.609a109.807 109.807 0 0 0-6.567-.173c-1.363.003-3.326-.341-4.576.262-.023.011-.039.047-.029.072l.063.159c.013.033.039.048.074.042l.135-.023c.064-.011.049-.123-.015-.114 3.586-.476 7.351-.145 10.962.019.279 1.513.455 3.075.476 4.608-3.462.37-6.796.364-10.245-.26-.107-.019-.154.144-.045.165 3.4.658 6.865.826 10.294.295.004.851-.023 1.696-.124 2.513-.006.001-.005-.006-.009-.005zM35.471 43.795a.69.69 0 0 0-.427-.851c-5.333-2.063-8.546-5.518-11.069-10.563-.136-.272-.423-.264-.616-.119-.222-.229-.656-.26-.867.074-1.742 2.759-3.467 5.513-5.779 7.859-1.152 1.169-2.501 1.824-3.911 2.596-.562.308-1.285.492-1.462 1.154-.069.259.161.429.395.395l.075-.011c.039-.006.073-.04.105-.071 3.301 3.514 8.332 4.278 12.987 3.987 3.532-.22 8.886-.334 10.588-4.02a.498.498 0 0 0-.019-.43zm-12.12 3.188c-3.94-.007-7.217-.99-10.465-3.061a1.68 1.68 0 0 0 .325-.164c.241-.092.481-.189.719-.29.563-.24 1.123-.489 1.655-.792 1.169-.667 2.092-1.571 2.978-2.574 1.777-2.013 3.82-4.311 4.745-6.887.505 1.923 1.498 3.737 2.8 5.334-1.464-.158-2.949-.166-4.415-.081-.094.006-.095.152 0 .148 1.544-.07 3.059.008 4.589.138a17.4 17.4 0 0 0 2.122 2.127c-2.08-.262-4.213-.255-6.293-.144-.074.004-.075.119 0 .116 2.228-.086 4.401.085 6.606.268a17.51 17.51 0 0 0 2.266 1.556c-3.305-.079-6.619-.007-9.923.017-.072 0-.072.111 0 .112 3.39.025 6.789.102 10.179.013 1 .547 2.039.991 3.094 1.298-2.586 2.668-7.5 2.872-10.982 2.866z"/><path d="M9.455 30.704c-1.748.537-3.439 1.023-5.265 1.228-.077.009-.078.131 0 .122 1.803-.189 3.632-.537 5.301-1.266.049-.021.014-.1-.036-.084zM17.052 15.249c-1.474-.047-2.953-.009-4.428.005-.113.001-.113.174 0 .175 1.475.014 2.953.052 4.428.005.119-.003.119-.181 0-.185zM33.714 44.416c-4.723.333-9.405.483-14.138.257-.08-.004-.079.12 0 .124 4.707.292 9.443.292 14.138-.191.12-.012.124-.199 0-.19zM46.357 22.866c-1.752-.071-3.507-.067-5.261-.127-.894-.03-4.874.271-5.446-.364.052.057.131-.026.083-.083a3.372 3.372 0 0 0-.076-.092c-.015-.019-.055-.025-.075-.01l-.129.099c-.038.029-.045.071-.014.109.59.711 2.819.411 3.635.457 2.42.139 4.858.258 7.282.17.103-.004.103-.155.001-.159z"/></g></svg>