<svg xmlns="http://www.w3.org/2000/svg" viewBox="0 0 48.994 48.994"><g fill="#1d1d1b"><path d="M23.945 40.849c-2.721-2.864.274-14.889-5.328-15.852 4.523-2.488 6.437-8.431 3.699-13.054C18.478 5.464 6.996 6.06.726 7.326c-.24.048-.275.271-.196.449-.228.023-.434.178-.426.482C.399 19.054-.07 29.793.009 40.578c.002.326.54.425.59.08 1.533-10.568 1.296-21.772.529-32.401a.518.518 0 0 0-.087-.25c5.15.246 11.233-.771 16.062 1.272a9.94 9.94 0 0 1 2.383 1.405c-1.594-.157-3.191-.288-4.784-.431-.083-.008-.082.12 0 .129 1.673.167 3.35.351 5.027.499a7.193 7.193 0 0 1 1.68 2.098 240.22 240.22 0 0 0-6.289-.376c-.083-.004-.082.122 0 .129 2.122.168 4.25.328 6.377.439.375.776.603 1.596.669 2.439a16.782 16.782 0 0 0-5.584.401c-.061.015-.034.1.025.092 1.895-.275 3.693-.333 5.575-.281a8.151 8.151 0 0 1-.299 2.571c-.511.075-1.024.134-1.543.143-.558.01-1.174-.14-1.722-.075-.371.043-.727.174-.652.587.015.084.137.047.126-.035-.083-.598 2.243-.282 2.625-.297a10.39 10.39 0 0 0 1.103-.101 9.86 9.86 0 0 1-.715 1.742c-1.222.176-2.416.319-3.667.252-.101-.005-.1.15 0 .156 1.167.075 2.387.048 3.546-.197-.256.459-.54.909-.868 1.338-1.361.448-2.717.764-4.153.86-.069.005-.069.111 0 .108 1.372-.075 2.728-.316 4.021-.787a11.983 11.983 0 0 1-2.976 2.669.433.433 0 0 0-.191.272c-.015.003-.027.003-.042.005-.276.05-.246.46 0 .529 1.584.443 2.579 1.21 3.212 2.179a7.033 7.033 0 0 0-3.835-.175c-.035.008-.02.06.015.053 1.341-.278 2.636-.16 3.921.289.281.471.492.981.636 1.529-1.374-.086-2.755-.12-4.127-.177-.066-.003-.066.1 0 .103 1.384.074 2.775.174 4.163.218.168.693.252 1.434.29 2.203a14.337 14.337 0 0 0-3.423.202c-.076.014-.043.128.032.116 1.137-.179 2.256-.213 3.397-.163.036.847.027 1.721.028 2.595-1.072-.038-2.154.006-3.224.015-.076.001-.076.117 0 .118 1.07.009 2.153.054 3.225.015.002.813.016 1.623.092 2.404-.894-.022-1.793.005-2.685.011-.053 0-.053.082 0 .082.896.006 1.799.033 2.697.01.065.618.166 1.22.334 1.788-1.08-.019-2.163-.004-3.241.007-.065.001-.065.101 0 .101 1.09.011 2.185.027 3.277.007.146.469.336.916.586 1.333-1.962-.152-4.12.177-6.002.56.026-2.464.089-4.935.044-7.4-.028-1.566-.11-3.036-1.057-4.352-1.691-2.349-4.519-2.798-7.198-2.378-.104-.055-.215-.049-.285.039h-.002c-.203.037-.209.269-.095.391-.013.091-.02.182-.032.273a10.923 10.923 0 0 0-3.151-.176c-.079.007-.08.13 0 .125 1.059-.074 2.09.006 3.133.206a53.373 53.373 0 0 0-.18 1.54c-1.119-.062-2.256-.004-3.375.002-.105 0-.105.162 0 .163 1.112.006 2.243.063 3.355.003-.073.769-.132 1.54-.181 2.312-.99.046-1.98.117-2.969.179-.08.005-.08.129 0 .124.986-.051 1.974-.094 2.96-.161-.055.887-.102 1.774-.142 2.663-1.088.038-2.143.014-3.222-.18-.075-.014-.108.101-.032.116 1.068.204 2.163.298 3.248.193-.034.761-.067 1.523-.104 2.284-.969.11-1.926.178-2.912.123-.076-.004-.075.113 0 .118.962.065 1.944.06 2.903-.077-.031.618-.059 1.236-.1 1.852-1.011.014-1.993-.007-3.003-.184-.064-.011-.091.086-.027.098.988.186 2.011.293 3.018.232a65.038 65.038 0 0 1-.121 1.533c-1.924-.259-3.998-.137-5.915.117-.433.057-.461.673 0 .696 1.937.097 3.899.309 5.837.333.1.001.184-.03.26-.074.284.125.724-.021.774-.435.555-4.562.999-9.301.549-13.893 3.609.258 6.548 1.658 6.759 5.744.137 2.641.022 5.318.047 7.963.003.318.206.5.443.559a.354.354 0 0 0 .335.208c2.456-.076 5.119.169 7.554-.148.527.298 1.156-.373.686-.867z"/><path d="M15.153 17.963c-.298-3.943-4.305-5.558-7.757-4.961a.308.308 0 0 0-.372.073c-.589.158-.563.87-.182 1.185l-.019.228a6.496 6.496 0 0 0-2.271.206c-.089.023-.052.159.037.136.742-.188 1.47-.225 2.22-.177-.052.589-.102 1.18-.145 1.773-.484-.007-.969-.004-1.454-.001-.067 0-.067.103 0 .103.482.003.964.006 1.447-.001a57.856 57.856 0 0 0-.175 4.24 6.438 6.438 0 0 1-1.901.051c-.072-.009-.09.118-.017.128.647.093 1.287.09 1.921-.027.002.504.004 1.008.027 1.509.01.216.118.352.256.426a.316.316 0 0 0 .164.075c2.047.277 4.207.489 6.049-.666a4.6 4.6 0 0 0 2.172-4.3zm-7.601 4.202c.229-2.576.171-5.215.065-7.809 2.705-.551 5.959.531 6.196 3.696.264 3.507-3.547 4.044-6.261 4.113zM48.761 23.708c.081-.24-.086-.584-.39-.606-1.859-.136-3.704-.117-5.566-.087-1.62.026-3.3-.128-4.883.228-.071.016-.113.063-.158.105a.322.322 0 0 0-.497.249 56.946 56.946 0 0 0-.376 5.104c-.01.332.274.549.576.576 1.256.114 3.073.294 4.246-.364-.108 1.621-.059 3.405-.523 4.957-.63 2.107-2.032 2.518-4.006 2.577-1.568-.612-2.324-2.263-2.981-3.829-.403-5.145-1.484-19.718 3.053-20.481 2.18.369 3.053 2.643 3.12 4.635.017.487.428.702.802.663-.074.198-.017.432.252.487 1.83.375 3.908.676 5.772.574a.632.632 0 0 0 .497-.311.426.426 0 0 0 .447-.42c.434-6.591-2.679-11.45-9.58-11.616-7.72-.186-11.345 5.102-12.371 12.288-.83 5.814-1.156 16.246 2.846 21.143 3.853 4.714 10.16 4.026 13.85-.115l-.025.592c-.026.594-.133 1.208.135 1.751.013.027.041.039.059.06-.058.162-.015.355.195.405 1.814.433 3.454.428 5.297.171.243-.034.452-.34.438-.575-.364-6.056-.158-12.102-.229-18.161zm-.844.302c-.025.269-.038.538-.059.807-3.286.265-6.567.621-9.847.948a51.82 51.82 0 0 0-.077-1.716c2.993.757 6.856.4 9.983-.039zm-.113 16.229a32.63 32.63 0 0 0-1.903.002c-.077.003-.078.117 0 .12.624.025 1.253.013 1.879.001-.195.641-.826 1.042-1.906 1.197-.694.027-1.389.048-2.083.068.172-.498.098-1.041.075-1.571-.027-.63-.036-1.272-.138-1.895-.052-.319-.521-.337-.667-.086-.018.015-.038.024-.054.045-2.42 3.117-7.402 5.486-11.114 2.572-2.961-2.325-3.824-5.589-4.221-9.084-.397-3.505-.717-7.074-.489-10.599.34-5.263 1.884-11.585 7.645-13.301 1.867-.556 4.216-.556 6.336-.007a138.62 138.62 0 0 0-6.024.306c-.069.005-.071.11 0 .11a138.39 138.39 0 0 0 6.687-.207c1.06.343 2.049.816 2.849 1.453.187.148.343.329.502.507-4.001-.227-8.009.116-11.948.824-.072.013-.041.121.03.11 4.026-.643 8.004-.824 12.067-.783.579.708.97 1.601 1.243 2.56-1.961-.314-3.956-.405-5.94-.408-.103 0-.103.159 0 .16 2.01.03 3.991.227 5.987.438.199.748.331 1.531.425 2.293a58.564 58.564 0 0 0-4.455-.341c-.078-.003-.085.106-.018.13.341.12.668.258 1.002.398.042.017.073-.055.031-.073-.295-.127-1.148-.334-.213-.232.467.051.935.089 1.403.131.756.068 1.513.139 2.271.187.079.691.132 1.364.174 1.973-1.783-.285-3.763-.253-5.559-.101a.657.657 0 0 0 .104-.364c-.036-2.546-1.479-5.256-4.163-5.445-1.469-.419-2.53.127-3.292 1.269-.75-.202-1.565-.047-2.237.322-.088.049-.01.181.079.135.672-.346 1.332-.387 2.045-.288a7.663 7.663 0 0 0-.764 1.752 3.735 3.735 0 0 0-2.416.272c-.082.038-.011.156.07.12.747-.331 1.519-.388 2.308-.254-.534 1.821-.757 4.176-.788 6.628-.009-.002-.01-.016-.022-.013-.759.2-1.522.273-2.304.206-.076-.007-.075.111 0 .118.792.076 1.56.012 2.325-.205a52.98 52.98 0 0 0 .022 2.218 7.25 7.25 0 0 0-2.376.137c-.06.013-.034.105.025.091a7.757 7.757 0 0 1 2.354-.134c.027.817.068 1.629.123 2.418-.683-.084-1.366-.159-2.05-.233-.08-.009-.078.115 0 .124.686.081 1.371.161 2.059.232a67.76 67.76 0 0 0 .612 5.515c-.125.066-.229.173-.223.323.02.451.089.923.203 1.392a6.627 6.627 0 0 1-2-.2c-.03-.008-.043.039-.013.047.666.181 1.35.26 2.033.232.524 2.062 1.938 4.061 4.117 4.035.81.277 1.692.134 2.476-.246 2.388-.382 4.766-.598 7.178-.778.096-.007.099-.154 0-.152-2.291.044-4.592.344-6.848.763a4.508 4.508 0 0 0 1.307-1.168c.27-.363.464-.753.629-1.152 1.66-.041 3.378-.249 4.948-.751.091-.029.054-.162-.039-.142-1.623.339-3.207.621-4.851.747.711-1.861.473-4.029.363-5.98-.022-.383-.369-.525-.638-.429a.313.313 0 0 0-.208-.17c-.669-.163-1.344-.022-2.027.014-.59.031-1.173.028-1.759.004a59.915 59.915 0 0 0-.026-2.244c3.275-.279 6.556-.53 9.825-.87-.232 3.028-.277 6.07-.251 9.106.01 1.136.253 2.564.225 3.816-1.273.095-2.544.222-3.815.346-.091.009-.093.151 0 .144 1.269-.104 2.539-.205 3.806-.337a5.364 5.364 0 0 1-.111.952c.154.457.181.845.111 1.18z"/><path d="M6.489 18.535c-.653-.09-1.302.009-1.926.207-.068.022-.04.129.03.108.623-.188 1.236-.226 1.883-.213.056.001.071-.094.013-.102zM33.04 31.195c-.632-.02-1.265-.011-1.897-.006-.06 0-.06.092 0 .093.633.004 1.265.014 1.897-.006.051-.003.052-.079 0-.081zM32.828 28.696a4.896 4.896 0 0 1-2.094.162c-.054-.008-.078.075-.023.083.73.108 1.436.062 2.141-.158.056-.017.033-.103-.024-.087zM32.618 18.548c-.491-.025-.984-.012-1.476-.011-.061 0-.061.095 0 .095.492.001.985.015 1.476-.011.048-.001.048-.07 0-.073zM32.827 16.068c-.642.093-1.276.226-1.913.35-.091.018-.052.156.038.138.636-.121 1.274-.233 1.903-.385.07-.016.039-.113-.028-.103zM47.379 31.803c-1.277.156-2.509.279-3.797.199-.088-.006-.087.13 0 .137 1.265.099 2.573.093 3.817-.185.083-.018.067-.162-.02-.151zM47.166 30.107c-1.054-.049-2.137.056-3.174.248-.068.013-.038.111.028.102 1.054-.147 2.084-.194 3.146-.212.088-.002.088-.134 0-.138zM46.956 27.804c-1.053.023-2.111.156-3.161.243-.076.006-.078.125 0 .12 1.051-.065 2.116-.087 3.161-.216.091-.011.098-.149 0-.147z"/></g></svg>