<svg xmlns="http://www.w3.org/2000/svg" viewBox="0 0 47.071 47.071"><g fill="#b7b7b7"><path d="M46.678 17.371c-2.914-.524-5.94-.407-8.895-.476-2.751-.064-5.646-.363-8.357.192-1.661-5.539-3.397-11.066-5.262-16.539-.164-.481-.854-.51-1.006 0-1.744 5.844-4.283 11.474-6.425 17.18-.004.01-.001.019-.004.028-5.288-.512-10.719-.339-16.031-.602-.682-.034-.654.973 0 1.044 5.312.575 11.009 1.127 16.33.448.367-.047.489-.39.364-.631l.006-.007c1.659-3.202 2.974-6.498 4.189-9.841 1.295-.101 2.555-.03 3.835.145.212.683.422 1.368.637 2.05-1.497-.096-3.002-.129-4.499-.188-.106-.004-.105.159 0 .165 1.517.076 3.04.182 4.56.218.305.97.606 1.941.915 2.909-1.737-.204-3.484-.345-5.224-.513-.094-.009-.092.136 0 .146 1.759.187 3.519.402 5.282.55.29.907.572 1.817.866 2.722-1.881-.163-3.767-.286-5.65-.425-.109-.008-.108.16 0 .169 1.903.155 3.808.326 5.713.455.163.502.318 1.007.483 1.507.217.66 1.177.448 1.142-.167 2.42.507 5 .353 7.461.417 2.207.057 4.458.245 6.684.239a36.039 36.039 0 0 0-2.982 1.941c-.003-.001-.004-.004-.008-.004-4.238-.423-8.501-.665-12.75-.972-.101-.007-.099.148 0 .156 4.159.354 8.322.772 12.49 1.02a40.445 40.445 0 0 0-2.64 2.11c.004-.053-.027-.111-.096-.115-5.158-.338-10.335-.491-15.5-.709-.084-.003-.084.126 0 .131 5.161.28 10.329.623 15.495.782a43.67 43.67 0 0 0-3.095 3.002c-4.193-.314-8.399-.534-12.598-.74-.086-.004-.086.11-.019.138l.703.295c.048.02.083-.062.036-.085.31.153 1.829-.027 2.383.009 1.207.08 2.414.157 3.62.236 1.895.123 3.791.252 5.688.352a43.967 43.967 0 0 0-2.102 2.438.867.867 0 0 0-.374.259 828.928 828.928 0 0 0-11.971-1.203c-.061-.006-.06.088 0 .095 3.946.467 7.897.903 11.85 1.313a.721.721 0 0 0-.048.421c.139.735.297 1.463.471 2.185-4.901-.66-9.875-1.096-14.802-1.492-.069-.006-.066.097 0 .105 4.925.625 9.902 1.226 14.854 1.584.469 1.909 1.061 3.776 1.835 5.601.076.179.158.355.237.532-2.701-.552-5.424-1.022-8.135-1.514-.089-.016-.127.118-.037.136 2.754.548 5.51 1.131 8.278 1.614.458.993.964 1.961 1.444 2.937-1.703-.214-3.349-.543-4.997-1.082-2.288-1.641-4.597-3.247-6.986-4.703-.248-.166-.586-.214-.879.016-.463.363-.941.705-1.408 1.062-2.329-.065-4.617-.242-6.928-.66-.116-.021-.167.155-.049.179 2.186.443 4.417.708 6.65.727-.948.721-1.89 1.45-2.851 2.152a64.118 64.118 0 0 1-5.266.172c-.089-.001-.087.132 0 .137 1.622.102 3.261.088 4.886-.038-.928.673-1.853 1.347-2.798 1.997-.027.018-.057.041-.084.06-1.34.054-2.682.125-4.01.259-.066.007-.069.106 0 .105a64.018 64.018 0 0 0 3.684-.133c-1.702 1.22-3.843 2.994-5.895 3.784 1.926-5.39 4.045-10.823 5.407-16.367a.378.378 0 0 0-.059-.307.364.364 0 0 0-.124-.381c-4.236-3.478-8.755-7.452-13.725-9.812-.447-.213-.838.423-.394.674 4.789 2.706 8.924 6.641 13.454 9.769-2.612 5.506-4.425 11.503-6.334 17.278-.176.532.367.958.854.854 2.84-.607 5.558-3.003 7.911-4.611 2.696-1.843 5.315-3.79 7.89-5.798 4.346 3.869 9.407 7.089 14.215 10.324.539.363 1.053-.235.979-.752-.386-2.666-1.625-4.79-2.773-7.185-1.489-3.103-2.462-6.301-3.046-9.682.565.057 1.129.121 1.694.177.136.013.133-.196 0-.211-.579-.065-1.159-.122-1.737-.185 3.921-3.974 8.179-7.175 12.871-10.198a.639.639 0 0 0 .249-.3l.113-.009c.557-.056.799-.948.145-1.065zM21.654 7.978c.672-1.856 1.315-3.726 1.969-5.603.557 1.909 1.14 3.812 1.729 5.712a15.832 15.832 0 0 0-3.698-.109zM37.49 44.685c-2.029-1.418-4.034-2.89-6.051-4.342 1.518.514 3.099.872 4.697 1.013.526 1.082 1.012 2.176 1.354 3.329z"/><path d="M32.576 34.504c-5.534-1.031-11.146-1.567-16.77-1.75-.101-.003-.1.152 0 .156 5.621.254 11.16.9 16.714 1.798.132.021.191-.179.056-.204z"/></g></svg>