<svg xmlns="http://www.w3.org/2000/svg" viewBox="0 0 49.261 49.261"><path d="M48.691 28.553c-2.269.014-4.516-.017-6.784-.127a.42.42 0 0 0-.415.253c-.56.22-.98.683-1.681.623-.657-.057-1.477-.643-1.654-1.341 3.109.066 6.522.385 9.599-.016a.722.722 0 0 0 .674-.14.417.417 0 0 0 .11-.127.652.652 0 0 0 .12-.299c.634-5.176-3.916-8.913-8.834-8.939-2.525-.014-4.48.851-5.808 2.3.152-.771.272-1.675-.117-2.152-.618-.758-2.662-.622-3.562-.706-2.057-.191-4.162-.247-6.214.04l-.07.009c.101-.932.064-1.934-1.041-2.027-1.67-.141-3.578.204-5.188.623-.301.078-.338.465-.16.649-.31.561-.467 1.226-.659 1.831l-.298.941a21.71 21.71 0 0 1-.462-1.005c-.247-.584-.443-1.226-.773-1.775.192-.247.12-.677-.234-.764-1.034-.255-2.174-.106-3.221.012-.838.094-1.75.115-2.421.658-.064.052-.076.15-.052.234a.215.215 0 0 0-.035.196c.157.515.333 1.023.501 1.534-1.805-.312-3.752.939-4.807 2.354.007-.177.012-.353.026-.532.033-.42.156-.808.258-1.214.002-.007.001-.016.002-.023a.254.254 0 0 0 .01-.113c0-.19-.087-.391-.261-.476-.041-.02-.085-.043-.129-.055a.527.527 0 0 0-.542.173 10.55 10.55 0 0 0-3.78-.059c-.266.042-.484.363-.473.622.172 4.145-.079 8.333-.314 12.472-.018.318.284.588.589.589l5.356.006a.53.53 0 0 0 .369-.142c.163.092.407.014.394-.21-.069-1.244-.392-2.542-.273-3.793.148 0 .296.006.443.001.209-.007.197-.291 0-.316-.13-.016-.261-.023-.392-.036.058-.347.146-.691.3-1.027.78-1.703 2.408-1.722 4.011-1.87.034.005.062-.004.095-.009l.062-.005c.424-.042.58-.532.312-.786.072-.721-.014-1.496-.109-2.252.113.308.22.618.335.926.307.817.618 1.632.934 2.445l.636 1.627c-.586.663-1.251.856-1.996.578a.511.511 0 0 0-.406.114c-.134.006-.261.066-.291.232a17.57 17.57 0 0 0-.272 3.428c.003.214.166.495.401.527a40.4 40.4 0 0 0 5.13.397c1.008.01 2.216.194 2.991-.57 1.028-1.012 1.614-3.017 2.194-4.298.138-.305.266-.613.393-.921.047 1.083.073 2.176.16 3.26a.172.172 0 0 0-.038.101c-.005 3.521 1.383 2.822 4.907 2.979 6.879.306 13.86.384 20.72-.28.414-.04.596-.41.547-.724.833-.788 1.17-1.741 1.689-2.734.198-.382-.047-.874-.502-.871zM5.136 22.102a.202.202 0 0 0 .167-.063 6.8 6.8 0 0 1 2.036-1.469c.309-.143 2.293-.953 2.64-.55.022.026.029.323.031.615a3.962 3.962 0 0 0-1.965.118c-.191.065-.11.322.081.295a6.133 6.133 0 0 1 1.885.011l.002.154.079 1.084c-1.641-.179-3.317-.201-4.985-.149.008-.016.023-.028.029-.046zm4.584 2.204c-2.153-.462-4.506-.408-6.69-.371-.215.004-.215.333 0 .334 1.731.011 3.447.213 5.165.333-.8.285-1.524.762-1.996 1.401l-.008.013c-1.106-.046-2.234.027-3.336.041-.201.003-.202.31 0 .313 1.019.013 2.06.077 3.086.052-.287.531-.461 1.146-.545 1.794-.732-.024-1.467-.021-2.191-.037-.164-.004-.161.241 0 .253.713.051 1.436.123 2.158.168a7.296 7.296 0 0 0 .043 1.577c-.855.022-1.686.142-2.549.085-.172-.011-.165.246 0 .264.841.092 1.776.159 2.606-.057.075.395.172.782.306 1.139l-4.564-.01c.198-3.769.222-7.541.378-11.31a47.165 47.165 0 0 0 2.708-.355c-.148.753-.088 1.594.292 2.228-.696.027-1.39.064-2.077.105-.15.009-.153.238 0 .236 2.546-.033 5.072.149 7.611.208.029.528.038 1.079.12 1.608a4.441 4.441 0 0 0-.517-.012zm11.779 1.785a43.942 43.942 0 0 0 1.08-3.157 28.638 28.638 0 0 1 3.316.052c-1.226 1.327-2.769 2.337-4.396 3.105zm25.312 5.466a.546.546 0 0 0-.091.161c-4.003.089-8.001.309-12.007.332-2.154.013-9.766.828-12.283-.998.031-.94-.02-1.881-.055-2.821-.054-1.453.293-1.396 1.446-2.103 1.452-.891 2.66-2.033 3.87-3.221.427-.419.088-1.099-.467-1.128-1.753-.093-3.485.095-5.201.447-.228.047-.295.278-.24.467l-.008.017c-.743-.171-1.565-.125-2.308-.034-.22.027-.227.374 0 .352.73-.071 1.424.001 2.141.044l-.569 1.233c-.809-.115-1.701.006-2.477.202-.146.037-.081.242.061.22.772-.117 1.505-.097 2.268-.101-.244.528-.483 1.057-.731 1.584-.797-.067-1.656.034-2.437.052-.163.004-.163.249 0 .253.723.016 1.513.108 2.259.069-.283.597-.563 1.195-.854 1.788-1.028-.179-2.176-.024-3.191.116-.111.015-.086.208.027.197 1.015-.099 2.03-.01 3.04-.059-.195.394-.377.795-.578 1.185-.097.188-.172.339-.241.469-1.538-.107-3.119.003-4.66.031-.129.002-.129.198 0 .2 1.486.026 3.01.126 4.496.037-.175.247-.386.399-.877.606-.748.316-1.557.223-2.348.209a63.046 63.046 0 0 1-3.635-.188 45.379 45.379 0 0 1-.093-2.212c1.427.603 3.398.574 3.29-1.388-.076-1.378-1.169-3.051-1.705-4.329-.806-1.919-1.641-3.82-2.559-5.687.688.143 1.427.022 2.132-.011.861-.04 1.757-.004 2.612-.148.037.69.292 1.386.517 2.023.284.803.608 1.593.976 2.361.231.483.927.303 1.071-.14l.752-2.322c.221-.683.514-1.376.54-2.096a53.27 53.27 0 0 1 2.62-.117c.225-.003 1.58-.146 1.702.019-.181.192-.229.42-.146.685-.004.132.018.262.025.393-.175.112-.314.282-.415.558-.135.372.384.511.586.25.244.279.719.208.855-.201.936-.041 2.326.108 2.692.116.967.021 1.934.054 2.9.11.78.045 2.194-.098 2.888.255.474.241.682.551.787.905-2.932-.196-5.885-.171-8.818-.028-.148.007-.15.234 0 .232 2.976-.049 5.932.061 8.901.205.022.181.034.371.05.566-.277.273-.541.567-.807.857a.102.102 0 0 0-.061-.039c-1.214-.203-2.486-.181-3.713-.235-.14-.006-.135.202 0 .215 1.18.108 2.391.292 3.578.268-.457.508-.904 1.03-1.334 1.57-.979-.047-1.963.002-2.943.021-.142.003-.143.219 0 .222.91.018 1.824.055 2.734.024a49.185 49.185 0 0 0-1.392 1.861c-.794-.045-1.598-.006-2.391.006-.127.002-.127.195 0 .197.745.011 1.498.041 2.245.009-.284.404-.568.809-.838 1.211-.237.353.075.865.488.85 1.129-.041 2.263-.061 3.39-.14.433-.03.606-.438.517-.755.015-.038.031-.075.036-.121.502-4.342 2.126-7.452 6.995-7.339 1.687.039 3.259.51 4.531 1.334-.975-.217-2.087-.212-3.022-.177-.162.006-.164.25 0 .253a19.95 19.95 0 0 1 1.846.1c.586.065 1.169.217 1.756.252.542.433 1.02.932 1.402 1.505-1.133-.075-2.297.002-3.43.009-.129.001-.129.197 0 .2 1.187.032 2.41.146 3.596.076a6.21 6.21 0 0 1 .714 1.68c-1.449-.036-2.9-.028-4.353-.005.019-.021.044-.033.06-.059.227-.188.316-.54.098-.752-.083-1.832-2.095-3.245-3.877-2.929-.946.168-1.906.74-2.341 1.627-.296.604-.26 1.542.52 1.692.66.43 1.546.238 2.311.264.664.022 1.332.121 1.998.177-2.201.05-4.402.132-6.596.191-.131.003-.132.204 0 .204 4.073.003 8.175.095 12.244-.117l.003-.002c.087.437.137.892.137 1.371-2.952-.526-6.388-.124-9.318.317-.009-.041-.036-.079-.093-.083-1.097-.084-2.224.009-3.323.03-.097.002-.098.149 0 .151.92.017 1.859.079 2.783.052-.137.122-.142.346-.05.515-.017.028-.041.049-.052.082-.14.415-.066.839.13 1.227-.004-.001-.003-.006-.007-.007-1.615-.117-3.278.083-4.904.034-.136-.004-.135.205 0 .211 1.594.071 3.352.227 4.926-.079.035-.007.038-.037.043-.063a3.224 3.224 0 0 0 1.57 1.341c-3.463.018-6.925.047-10.387.114-.129.003-.129.199 0 .2 6.228.064 12.458.01 18.687-.021-.197.278-.414.543-.616.786zm-14.552-7.353a10.633 10.633 0 0 0-.245 2.743c-.629.012-1.258.036-1.887.068a48.115 48.115 0 0 0 2.132-2.811zm9.278-.405a12.046 12.046 0 0 0-1.7-.099c-.701 0-1.634-.042-2.263.34-.14-.42.605-.993.875-1.155.486-.291 1.045-.42 1.604-.309.795.157 1.207.628 1.484 1.223zm6.101 6.646c-.003 0-.004-.003-.007-.003l-6.533.027c.568-.174 1.06-.495 1.226-.997 1.857.388 3.764.488 5.651.303a3.688 3.688 0 0 1-.337.67z" fill="#1d1d1b"/></svg>