<svg xmlns="http://www.w3.org/2000/svg" viewBox="0 0 49.505 49.505"><g fill="#1d1d1b"><path d="M45.291.617c-.084-.357-.344-.663-.762-.611-7.188.897-14.722 3.164-19.214 9.058.027-.7.014-1.406.039-2.083.055-1.498.26-3.071-.035-4.546-.055-.276-.262-.403-.486-.417a.742.742 0 0 0-.501-.252C18.369 1.233 11.087.22 5.261 1.892c-.023.007-.034.027-.053.039a.18.18 0 0 0-.083.062l-.005.006c-.011.016-.028.027-.034.047-2.027 6.678-1.033 15.151-1.077 22.09-.052 7.989.066 15.976.317 23.961a.71.71 0 0 0 .104.347.415.415 0 0 0 .41.437c7.316.464 14.668.342 21.994.623.385.015.582-.258.606-.554.215.047.478-.086.475-.355-.069-6.658-1.575-15.445 1.845-21.538 3.903-3.316 9.674-3.01 14.566-2.405.371.046.598-.25.641-.573a.54.54 0 0 0 .325-.482c.426-7.413.36-14.907.411-22.333a.672.672 0 0 0-.412-.647zm-13.22 6.092c4.04-.344 8.021-.288 12.059-.158-.013 1.095-.029 2.188-.039 3.284-4.284-.229-8.606-.127-12.896-.153-.202-.001-.201.308 0 .313 4.288.107 8.604.343 12.893.246-.007.789-.018 1.577-.022 2.366-.006-.05-.038-.097-.104-.097-7.985-.043-15.978.006-23.962.21-.147.004-.148.227 0 .228 7.986.064 15.979-.028 23.962-.213.066-.002.097-.049.104-.099-.009 1.981-.01 3.962.016 5.941a.14.14 0 0 0-.119-.067c-8.672-.25-17.386.03-26.062.053-.147 0-.147.227 0 .229 8.671.079 17.395.351 26.062.031a.139.139 0 0 0 .122-.076c.011.823.015 1.648.035 2.47-10.126-.476-20.281-.431-30.405.069-.079.004-.08.124 0 .123 10.143-.183 20.269-.127 30.412.104.016.593.018 1.187.04 1.778-3.806-.649-9.858-.98-13.462 1.441-4.311-.219-8.662-.102-12.977-.126-.131-.001-.131.201 0 .204 4.154.11 8.338.345 12.497.291-.61.487-1.143 1.056-1.549 1.746-.19.252-.352.521-.5.798a.152.152 0 0 0-.119-.075c-4.576-.432-9.24-.302-13.826-.097-.124.005-.125.197 0 .193 4.625-.136 9.207.101 13.826.22h.001c-.423.872-.682 1.838-.853 2.833-4.434-.074-8.893.108-13.324.226-.16.004-.161.25 0 .25 4.413 0 8.856.061 13.267-.127-.168 1.093-.256 2.204-.374 3.236-.013-.06-.056-.115-.128-.113-3.038.083-6.043.434-9.093.405-.138-.001-.138.211 0 .215 3.001.087 6.163.177 9.129-.35a.108.108 0 0 0 .083-.069 64.937 64.937 0 0 0-.252 2.771c-4.83-.192-9.725.125-14.557.238-.149.003-.15.233 0 .232 4.825-.018 9.72.163 14.535-.159a48.02 48.02 0 0 0-.094 4.932c-4.696-.078-9.396.05-14.094-.043-.127-.003-.126.192 0 .197 4.689.185 9.425.377 14.116.15.034.766.08 1.531.161 2.292-6.405.261-12.775.151-19.175-.198-.101-.006-.097.145 0 .155 6.263.616 12.841 1.035 19.034.11-.149.022-.107.253.034.256l.149.003c.116.997.268 1.988.479 2.969a.676.676 0 0 0-.266-.066c-6.994-.316-14.059-.684-21.057-.254a633.617 633.617 0 0 1-.323-23.838c.042-6.903 1.416-14.9.072-21.687 5.924 1.025 12.415.319 18.453.782-.173.873-.21 1.79-.227 2.69-.022-.017-.046-.033-.079-.033-2.218-.007-4.422.226-6.648.163-.168-.005-.167.252 0 .26 2.19.106 4.517.233 6.687-.133.016-.003.022-.016.034-.022l-.013.826c-.012.56-.043 1.14-.047 1.721-1.702.275-3.345.358-5.084.154-.123-.014-.152.197-.029.217 1.681.286 3.433.292 5.116-.022.011.838.095 1.669.395 2.434.147.375.74.393.812-.006.046-.118.08-.24.117-.361 5.081-5.966 11.671-8.266 19.172-9.419-.019 1.468-.035 2.941-.052 4.412-4.006-.35-8.078-.15-12.064.299-.186.017-.192.312.001.295z"/><path d="M25.947 39.971c-3.138-.143-6.302.05-9.448-.048-.123-.004-.122.183 0 .19 3.112.169 6.339.418 9.448.125.169-.016.174-.259 0-.267zM43.612 15.726c-9.512.118-18.997.247-28.509-.002-.129-.003-.129.195 0 .2 9.487.37 19.018.58 28.509.244.284-.009.286-.446 0-.442zM43.788 3.744c-1.496-.127-3.047-.049-4.548-.009-.231.006-.231.353 0 .359 1.5.04 3.051.118 4.548-.009a.17.17 0 0 0 0-.341z"/></g></svg>