<svg xmlns="http://www.w3.org/2000/svg" viewBox="0 0 50.44 50.44"><g fill="#b7b7b7"><path d="M49.738 48.583c.001-.018.01-.031.011-.05.038-15.757.885-31.582.651-47.326-.007-.435-.425-.571-.723-.429a.495.495 0 0 0-.243-.083c-15.952-.963-32.258-.3-48.115.66a.32.32 0 0 0-.266.155.391.391 0 0 0-.27.353C-.477 17.275.115 33.083.304 48.536c.009.739 1.163.741 1.15 0-.274-15.481.515-31.014.113-46.475 3.45.349 6.896-.229 10.374.026 4.059.298 8.117-.272 12.176-.44 8.421-.349 16.825.111 25.242.019a257.986 257.986 0 0 0-.19 3.178c-6.279.132-12.53.737-18.746 1.613-.057.008-.044.109.014.102C36.66 5.74 42.89 5.33 49.155 5.086a339.853 339.853 0 0 0-.241 5.064c-2.364.257-4.717.552-7.09.728-.075.005-.076.122 0 .118 2.362-.126 4.743-.304 7.082-.675a441.81 441.81 0 0 0-.283 10.815c-1.704.104-3.411.341-5.108.517-.123.013-.125.207 0 .194 1.697-.171 3.415-.286 5.106-.528a819.433 819.433 0 0 0-.061 6.074c-1.535.312-3.058.465-4.626.361-.09-.006-.089.132 0 .139 1.558.127 3.108.039 4.625-.334-.006.977-.017 1.954-.02 2.931-1.6.315-3.185.486-4.817.44-.086-.003-.085.129 0 .133 1.622.07 3.234-.041 4.816-.407-.004 1.209-.007 2.418-.008 3.626-1.674.135-3.339.241-5.019.233-.091 0-.091.14 0 .141 1.674.018 3.355-.03 5.019-.226l-.003 2.496c-2.022.321-4.017.549-6.07.55-.068 0-.068.104 0 .105 2.029.031 4.075-.094 6.07-.487-.001 1.242-.001 2.484-.003 3.725-2.165.086-4.328.284-6.488.443-.086.006-.087.14 0 .135 2.162-.128 4.332-.219 6.488-.42-.002 1.464-.004 2.928-.009 4.389-6.658.621-13.29 1.278-19.972 1.618-.063.003-.064.101 0 .099 6.664-.228 13.361-.628 19.971-1.537-.004.987-.005 1.975-.012 2.96-15.711-.374-31.675-.515-47.343.663-.662.05-.68 1.042 0 1.044 16.104.055 32.215-.482 48.326-.441.708.001.79-.948.253-1.189z"/><path d="M30.837 37.538c.002-.224-.218-.324-.399-.286a.441.441 0 0 0-.098-.113c-.526-.391-1.2-.344-1.706-.849a2.472 2.472 0 0 1-.595-1.034.315.315 0 0 0 .117-.222c.247-4.018.188-8.29-.011-12.333.765.109 1.812.082 2.493-.359.278.045.57-.102.552-.476-.074-1.551-.149-3.253-.576-4.753-.001-.004-.005-.005-.006-.009-.011-.167-.107-.319-.328-.37-.452-.104-.903-.022-1.362-.009-.368.01-.736-.006-1.104-.018.07-2.496.088-5.021-.089-7.51-.013-.177-.166-.299-.323-.326a.441.441 0 0 0-.288-.264c-1.854-.495-4.232-.279-6.129-.133-.117.009-.195.088-.25.18a.416.416 0 0 0-.222.381c-.045 2.658.033 5.358.353 7.998.003.024.022.033.027.054-1.426-.323-2.947-.273-4.402-.297-1.54-.026-3.081-.051-4.593.27-.182.039-.253.231-.227.401a.29.29 0 0 0-.168.243c-.7 7.995-.094 16.162.408 24.158.035.559.793.636.973.227 1.423.08 2.846.135 4.272.15.292.003.454-.191.499-.414a.359.359 0 0 0 .514-.291c.704-6.283.891-12.774.656-19.099.504.076 1.052.167 1.543.097-.658 4.837-1.183 11.315.361 15.891 1.361 4.034 5.636 4.195 9.255 3.825a.524.524 0 0 0 .45-.351c.019.024.028.055.049.077.192.207.519.088.599-.158.208-.64-.073-1.368-.135-2.027-.07-.748-.118-1.5-.11-2.251zm-.853 3.687c-2.821.209-6.85.683-8.217-3.089-.574-1.585-.438-3.735-.517-5.411-.167-3.564-.024-7.123-.091-10.688-.004-.217-.204-.347-.392-.354-.048-.04-.085-.089-.153-.108-.617-.177-1.38.007-2.022.09-.256-.137-.641-.018-.663.367-.362 6.377-.547 12.858-.448 19.248a.481.481 0 0 0-.326-.118 94.64 94.64 0 0 0-4.262.15c-.48-7.856-.303-15.722-.777-23.57 1.338.167 2.68.129 4.029.146 1.601.021 3.259.253 4.844.064.327-.039.505-.408.369-.647a.306.306 0 0 0 .183-.273c.165-2.598.09-5.24-.1-7.837 1.78.298 3.84.611 5.574.338-.315 2.479-.332 5.012-.148 7.5a.47.47 0 0 0 .502.449l.003.001c.7.207 1.748.397 2.541.236-.071 1.271.068 2.599.219 3.857a6.122 6.122 0 0 0-.525.022c-.527.042-1.062.044-1.584.124a.373.373 0 0 0-.201.103.416.416 0 0 0-.5.372c-.468 3.851-.476 8.208.076 12.109-.265.833-.162 1.708.401 2.442.475.618 1.51 1.363 2.339 1.101-.133.69-.214 1.382-.176 2.09.022.413.047.88.16 1.303-.045-.008-.085-.021-.138-.017z"/><path d="M18.42 9.123c.164-.301.026-.75-.431-.778a32.054 32.054 0 0 0-6.247.232c-.123.017-.183.123-.2.237-.032.037-.072.066-.088.116-.522 1.568-.118 3.7.315 5.303-.201.061-.254.365-.014.425 1.715.431 4.117.835 5.839.348a.358.358 0 0 0 .196-.141c.246.06.509-.032.565-.357.295-1.707.301-3.648.065-5.385zm-3.551 5.041a43.823 43.823 0 0 0-2.35.023 52.262 52.262 0 0 1-.182-2.682c-.027-.761.033-1.537-.079-2.29a32.15 32.15 0 0 0 5.408.186c-.321 1.554-.459 3.272-.342 4.821-.802-.13-1.644-.044-2.455-.058zM39.874 36.203c-.002-.281-.297-.412-.513-.335a.59.59 0 0 0-.205-.058c-1.986-.186-4.017-.109-5.999.076-.215.02-.322.296-.202.437l-.001.001c-.238 1.636-.788 3.878-.247 5.472.077.227.294.285.472.214.979.086 1.956.161 2.938.195.875.031 1.806.156 2.648-.107a.383.383 0 0 0 .243-.234c.323.181.875-.045.896-.497.081-1.714-.018-3.448-.03-5.164zm-3.757 4.994c-.869.031-1.735.095-2.6.169.361-1.506-.032-3.464-.212-4.931 1.872.295 3.79.494 5.686.46-.282 1.453-.4 2.942-.222 4.413-.002 0-.002-.002-.004-.003-.836-.261-1.78-.138-2.648-.108zM39.347 9.202c-.031-.383-.582-.39-.601 0l-.003.079c-1.514-.534-3.34-.447-4.967-.293-.002-.012-.002-.023-.005-.035-.056-.305-.501-.266-.58 0-.009.031-.014.064-.021.095l-.184.019c-.48.049-.496.731 0 .759-.003.031-.01.062-.013.093-.3 1.518-.333 3.152-.252 4.655.024.441-.025 1.193.187 1.706-.398 5.47-.32 11.301.562 16.666.021.126.113.172.212.181a.294.294 0 0 0 .208.156c.739.168 1.504.205 2.26.242.744.036 1.578.173 2.289-.08a.453.453 0 0 0 .242-.217c.343.124.816-.049.823-.525.118-7.816.466-15.699-.157-23.501zm-3.03 23.385c-.768.018-1.539-.028-2.305.022.156-5.224-.101-10.61-.447-15.855a.098.098 0 0 0-.008-.12c-.027-.407-.051-.817-.079-1.222.102-1.076.362-2.533.384-2.88.055-.878.095-1.753.028-2.625 1.59.18 3.274.522 4.81.369-.319 7.424-.103 14.87-.365 22.298-.653-.134-1.35-.003-2.018.013zM48.361 44.708c-9.646-.238-19.298.35-28.878 1.458-.058.007-.06.099 0 .093 9.621-.993 19.211-1.353 28.878-1.388.105-.001.104-.16 0-.163zM48.362 42.953c-4.567-.055-9.156.223-13.708.587-.074.006-.075.121 0 .116 4.569-.284 9.134-.378 13.708-.528.113-.004.113-.174 0-.175zM48.141 24.004c-1.539.277-3.063.455-4.629.441-.077-.001-.077.119 0 .12 1.566.026 3.133-.089 4.662-.442.079-.017.045-.133-.033-.119zM48.145 18.425a191.64 191.64 0 0 0-5.286.662c-.068.009-.052.128.016.12a195.66 195.66 0 0 0 5.292-.622c.09-.013.07-.17-.022-.16zM48.154 15.763c-1.852.101-3.698.373-5.525.684-.074.013-.042.123.031.112 1.827-.277 3.657-.444 5.494-.632.103-.01.107-.17 0-.164zM48.352 12.192c-2.303.596-4.566 1.079-6.946 1.255-.098.007-.099.161 0 .154 2.357-.164 4.737-.522 6.986-1.265.091-.03.055-.169-.04-.144zM48.791 7.213c-2.88.032-5.778.313-8.652.5-.089.006-.09.144 0 .139 2.877-.14 5.787-.191 8.652-.485.096-.01.101-.155 0-.154zM47.94 2.626c-5.692-.088-11.403.252-17.078.668-.095.007-.097.156 0 .15 5.694-.372 11.378-.454 17.078-.598.141-.004.142-.218 0-.22z"/></g></svg>