<svg xmlns="http://www.w3.org/2000/svg" viewBox="0 0 48.624 48.624"><g fill="#b7b7b7"><path d="M36.572 36.242c-3.295.054-4.581 4.171-3.719 6.96.996 3.224 4.358 5.195 7.637 4.268 7.188-2.03 2.7-13.93-3.918-11.228zm-.749 7.368c2.309.027 4.701.226 7 0 .061-.006.09-.046.101-.089-.343 1.318-1.219 2.429-2.736 2.856-5.927 1.667-9.344-7.812-3.044-9.441.14-.036.197-.13.222-.232 1.425-.031 2.847.332 3.912 1.229-1.788-.01-3.55-.033-5.338-.236-.121-.014-.15.196-.029.214 1.882.287 3.834.479 5.743.388.233.248.451.517.632.831.096.167.181.341.26.518-.921.353-2.173.123-3.138.097-1.069-.029-2.141-.068-3.21-.06-.074.001-.071.106 0 .113 1.313.125 2.634.186 3.951.262.822.048 1.76.281 2.514-.119.2.521.337 1.069.393 1.622-1.718-.127-3.51.044-5.232.108-.119.005-.12.184 0 .186 1.728.029 3.53.163 5.251-.002.004 0 .005-.004.009-.005a5.493 5.493 0 0 1-.151 1.64c-.001-.052-.037-.104-.109-.111-2.299-.226-4.691-.027-7 0-.148.004-.148.229-.001.231z"/><path d="M37.824 32.434c-.059-.006-.119-.007-.178-.013-.159-3.542-2.265-6.601-5.079-8.867-4.123-3.32-16.114-5.074-16.18-11.297.103.006.206.013.31.018.157.007.198-.253.038-.28-.087-.014-.175-.021-.262-.034a4.285 4.285 0 0 1 .594-1.423h.005c.116.004.154-.089.135-.174 1.838-2.385 6.043-1.122 8.597-.221-.025 3.132 2.048 6.474 5.41 6.693 2.984.194 6.746-2.086 6.343-5.391-.002-.016-.011-.027-.014-.042a10.634 10.634 0 0 0-.257-1.904c.119-.079.133-.298-.038-.323l-.038-.004C33.936-3.733 6.778-3.003 5.847 11.252c-2.054 6.761 4.173 13.362 10.555 15.683 3.182 1.758 7.026 3.122 9.323 5.905 2.88 3.49-.848 6.493-4.301 6.759-2.149.165-4.038-.515-5.92-1.448 2.966-5.746-6.989-9.502-9.861-5.066.009-.067.01-.13.02-.197.036-.254-.291-.35-.386-.107-5.33 13.595 16.993 19.588 25.78 13.413.009.002.016.007.026.009.27.068.52-.292.287-.494-1.898-1.646-.759-4.799.347-6.592 1.299-2.105 3.193-3.388 5.47-4.25a.53.53 0 0 0 .341-.618.487.487 0 0 0 .051-.163 9.68 9.68 0 0 0 .072-1.33c.057-.002.115 0 .172-.002.21-.009.203-.3.001-.32zm-4.971 3.651c-1.328-.168-2.698-.164-4.029-.234-.191-.01-.188.282 0 .295 1.215.087 2.456.241 3.681.264-.463.45-.891.936-1.269 1.46-.014-.005-.021-.016-.037-.017-1.137-.064-2.291.068-3.415.235-.153.023-.119.291.037.273 1.073-.124 2.143-.15 3.219-.211-.41.609-.764 1.253-1.039 1.928-.014.034-.027.074-.041.109-1.213.01-2.413.042-3.634-.082-.159-.016-.154.227 0 .246 1.145.141 2.34.249 3.508.181-.142.42-.273.903-.37 1.408-.019-.057-.059-.107-.14-.108-1.914-.028-3.837.096-5.75.165-.16.006-.161.251 0 .25 1.913-.014 3.84.027 5.75-.084a.166.166 0 0 0 .113-.053c-.085.495-.143 1.002-.123 1.49-3.904-.157-7.83-.017-11.739-.094-.131-.003-.131.2 0 .204 3.901.126 7.849.362 11.75.192.006 0 .008-.006.014-.007.035.348.1.684.223.983-5.701-.168-11.413-.131-17.117-.278-.155-.004-.153.23 0 .239 5.736.328 11.54.589 17.285.377.194.323.462.591.824.78-.712.117-1.409.242-2.096.368.011-.079-.029-.159-.135-.153-2.711.153-5.41.421-8.125.538-.063.003-.064.098 0 .098 2.205.027 4.452.003 6.662-.193-3.622.645-7.061 1.098-11.003.046-6.049-1.616-10.081-5.265-10.335-11.068.258-1.228.667-2.251 1.805-2.874a5.837 5.837 0 0 1 4.087-.58c2.645.609 4.299 3.146 3.141 5.727a.506.506 0 0 0 .211.657c3.117 3.032 10.971 3.385 12.955-1.322 1.796-4.262-4.642-7.9-9.186-9.99a.321.321 0 0 0-.134-.404c-2.419-1.487-5.059-2.352-7.297-3.943-.005-.013-.01-.027-.023-.037-.168-.13-.289-.275-.484-.361-.005-.002-.009 0-.014-.001a10.708 10.708 0 0 1-1.804-1.774c-1.984-2.519-2.695-5.75-2.291-8.865C8.224 1.813 20.67-1.029 29.127 2.868c-2.641-.182-5.286-.322-7.929-.47-.123-.007-.12.179 0 .19 2.944.256 5.89.531 8.838.735 1.664.897 3.144 2.069 4.304 3.523a615.57 615.57 0 0 0-19.015-.863c-.139-.004-.136.205 0 .214 6.446.473 12.908.854 19.366 1.122.384.531.727 1.096 1.027 1.693-2.53-.235-5.141-.175-7.644-.014-.181.012-.185.287 0 .285 2.633-.029 5.243.13 7.865.214.223.499.425 1.013.581 1.558a.475.475 0 0 0-.107.244c-1.894-.177-3.817-.166-5.715-.329-.198-.017-.191.283 0 .306 1.857.224 3.817.474 5.697.392.003.479-.109.925-.295 1.337.005-.081-.043-.165-.152-.172-1.612-.109-3.26-.006-4.875.01-.194.002-.195.3 0 .302 1.615.017 3.263.12 4.875.01a.17.17 0 0 0 .117-.054c-.933 1.916-3.654 3.002-5.644 2.454-2.766-.761-3.401-3.408-3.999-5.871-.003-.012-.014-.014-.018-.026a.386.386 0 0 0-.229-.382c-2.192-1.001-4.839-2-7.246-1.163-.136.048-.26.115-.391.173-1.737-.482-3.539-.669-5.34-.667-.152 0-.151.232 0 .236 1.655.042 3.253.3 4.855.667-.689.398-1.262.942-1.639 1.606-.031.003-.06.016-.09.026-1.453-.143-2.921-.198-4.375-.301-.163-.012-.161.239 0 .253 1.383.121 2.773.287 4.162.378a5.944 5.944 0 0 0-.355 1.383c-1.304-.141-2.629-.155-3.933-.149-.188.001-.188.29 0 .292 1.308.013 2.605.123 3.907.207-.04.725.062 1.423.284 2.084-1.388-.161-2.798-.208-4.188-.306-.13-.009-.127.188 0 .2 1.422.136 2.856.332 4.285.395a7.247 7.247 0 0 0 1.29 2.09c-1.57-.045-3.13-.111-4.7-.297-.122-.014-.119.174 0 .19 1.649.214 3.326.392 4.996.433a10.902 10.902 0 0 0 2.473 1.907c1.516.863 3.11 1.567 4.687 2.242-2.463-.161-4.946-.169-7.407-.184-.147-.001-.147.227 0 .229 2.792.035 5.571.239 8.357.363 1.645.702 3.251 1.397 4.7 2.233-3.426-.263-6.877-.308-10.308-.277-.104.001-.104.16 0 .162 3.679.07 7.336.32 11.006.543.915.581 1.767 1.22 2.5 1.985-3.353-.453-6.762-.672-10.128-.965-.137-.012-.132.195 0 .211 3.479.416 6.988.928 10.487 1.156a9.997 9.997 0 0 1 2.012 3.62c-2.733-.239-5.51-.218-8.251-.254-.165-.002-.165.251 0 .257 2.787.091 5.581.324 8.369.356.151.549.278 1.125.361 1.752-2.478-.166-5.014-.134-7.479-.126-.155 0-.153.23 0 .239 2.478.154 5.028.338 7.529.315.039.379.07.766.083 1.174-1.425.403-2.728 1.157-3.835 2.141z"/><path d="M35.698 33.504c-2.073-.139-4.173-.024-6.25.002-.147.002-.147.227 0 .229 2.076.025 4.177.141 6.25.002.149-.011.15-.223 0-.233zM35.17 28.337l-.046-.058c-.041-.052-.125-.051-.178-.023l-.052.028c-.116.063-.062.247.067.246-.691.005-1.588-.319-2.341-.366l-2.64-.166-4.902-.308c-.168-.011-.166.247 0 .26l6.034.47c1.042.081 3.086.663 4.025.181.105-.055.095-.185.033-.264zM20.072 19.253c-2.112-.249-4.252-.333-6.373-.495-.129-.01-.127.189 0 .2 2.12.189 4.247.458 6.373.558.173.009.164-.244 0-.263zM34.943 13.956c-1.393.149-2.735.258-4.132.082-.177-.022-.221.288-.042.314 1.399.207 2.837.252 4.212-.12.148-.04.124-.293-.038-.276zM31.975 4.739c-1.472-.677-4.088-.184-5.702-.203-2.859-.035-5.718-.076-8.576-.073-.145 0-.145.22 0 .225 4.455.16 9.615.938 14.012.181-.196.034-.121.298.043.318l.098.012c.082.01.143-.063.17-.129l.046-.111c.028-.073-.02-.187-.091-.22zM41.698 44.64c-1.959-.035-3.913.085-5.874.011-.102-.004-.101.152 0 .158 1.937.13 3.94.262 5.874.052.139-.015.146-.218 0-.221z"/></g></svg>