<svg xmlns="http://www.w3.org/2000/svg" viewBox="0 0 50.008 50.008"><g fill="#b7b7b7"><path d="M24.483 29.209c-.927-1.713-2.436-2.895-4.17-3.731-1.776-.857-5.96-1.283-8.428-2.554h.099c.104-.002.105-.161 0-.163-.136-.002-.272 0-.407-.001a5.434 5.434 0 0 1-.436-.279c-.557-.679-.967-1.399-1.006-2.182.066-.01.133-.015.199-.026.101-.017.079-.19-.024-.18l-.169.014c.011-.392.107-.798.338-1.224.844-1.559 2.669-1.621 4.247-1.24 1.848.447 3.288 1.51 4.106 3.203a.557.557 0 0 0 .506.556c.833.111 1.664.164 2.504.189.719.021 1.499.134 2.12-.274a.605.605 0 0 0 .238-.365.543.543 0 0 0 .339-.564c-.79-8.69-13.692-10.31-19.444-5.544-3 2.485-2.828 6.702-.71 9.717 1.331 1.895 3.307 3.175 5.346 4.186 2.549 1.265 7.306 1.892 8.676 4.631.119 4.252-9.027 3.452-9.409-1.109a.36.36 0 0 0-.515-.308.689.689 0 0 0-.474-.296c-.937-.124-1.976.077-2.917.158-.973.083-1.949.142-2.92.245-.043.005-.072.034-.106.053-.303-.166-.752-.032-.773.429-.454 10.072 14.934 12.655 21.267 7.178 2.96-2.559 3.795-7.059 1.923-10.519zm-11.92-15.56c2.955-.245 5.719.389 7.735 1.997-4.239-.407-8.509-.596-12.758-.857 1.584-.709 3.469-1.011 5.023-1.14zm1.883 27.284c-2.44.191-4.923-.14-7.003-1.087 4.353-.157 8.708-.231 13.06-.381-1.843.949-4.067 1.312-6.057 1.468zm9.797-6.432c-.006 0-.01-.004-.016-.003-1.558.315-3.073.661-4.662.807-.075.007-.076.124 0 .118 1.549-.11 3.157-.288 4.649-.739a6.723 6.723 0 0 1-.638 1.84 6.281 6.281 0 0 1-.494.791c-2.45.16-4.89.375-7.346.445-1.169.033-3.31-.442-4.31.216-.018.012-.032.036-.024.058l.052.138c.006.015.017.032.035.035l.165.027c.025.004.054-.006.061-.034l.023-.096c.014-.061-.078-.087-.094-.026.106-.422 5.078-.18 5.485-.193 1.939-.062 3.883-.164 5.811-.389a7.064 7.064 0 0 1-2.07 1.774c-4.552-.034-9.122.182-13.665.458-2.605-1.267-4.531-3.534-4.847-7.018 1.78.326 4.025.644 5.753.184-.546 3.348 3.872 4.632 6.602 4.618 1.618-.008 3.394-.314 4.406-1.709.691-.954.794-2.063.135-2.984-.184-1.104-.933-1.824-2.028-2.512-3.248-2.042-7.281-2.205-10.28-4.875-2.546-2.267-4.321-6.389-1.373-9.352.475-.478 1.062-.856 1.7-1.169.014.026.035.047.072.05 4.411.334 8.836.759 13.258.933.443.39.83.849 1.186 1.344-1.419-.224-2.891-.327-4.318-.418-.097-.006-.122.158-.023.172 1.482.212 3.016.427 4.514.487a8.816 8.816 0 0 1 1.194 2.672c-.427-.026-.863.034-1.313.063-.719.047-1.439.077-2.158.117-.792-3.126-5.201-4.99-8.137-3.959-.531.187-.98.492-1.357.863-1.234-.042-2.473.029-3.698.155-.103.011-.105.172 0 .162 1.165-.104 2.32-.119 3.482-.102a4.206 4.206 0 0 0-1.018 2.747c-.815.046-1.628.058-2.451-.002-.126-.009-.125.186 0 .196.821.066 1.644.08 2.464.03.056.887.411 1.735 1.124 2.337-.916.005-1.831.015-2.746.022-.082.001-.082.126 0 .127.988.007 1.975.018 2.963.021.123.087.248.172.388.244.805.871 2.108 1.442 3.544 1.895-1.175.009-2.349.028-3.522.038-.073.001-.073.113 0 .114 1.38.012 2.763.031 4.145.035 2.313.666 4.829 1.101 6.139 2.004l.016.012c-1.806-.178-3.646-.173-5.45-.054-.093.006-.094.149 0 .146 1.927-.062 3.823.02 5.741.132a7.803 7.803 0 0 1 1.837 1.997c-1.402-.011-2.804.004-4.206.011-.113 0-.113.174 0 .175 1.443.007 2.887.024 4.33.011a7.42 7.42 0 0 1 1 2.918c-1.216.024-2.438.121-3.649.189-.083.005-.085.134 0 .131 1.216-.041 2.444-.055 3.661-.141a6.853 6.853 0 0 1-.042 1.716z"/><path d="M48.439 18.778c-5.98-.887-12.458-.943-18.517-.719C28.106 12.147 26.091 6.29 24.165.413c-.178-.542-.946-.559-1.118 0-.996 3.248-2.064 6.511-2.766 9.837-.008.039-.005.073-.004.108-.132.16-.142.419.088.594 3.94 2.986 6.262 6.903 5.96 11.948-.019.315.165.489.391.543.044.042.1.077.182.09 1.603.243 3.232.342 4.852.389.982.029 2.046.132 3.072.078-2.024 1.551-4.09 3.048-6.103 4.613a.334.334 0 0 0-.134.221c-.213.118-.362.338-.257.6a91.334 91.334 0 0 1 2.632 7.427 22.801 22.801 0 0 1-2.714-1.756c.001-.018.007-.035.007-.053.014-.306-.334-.489-.594-.384a.342.342 0 0 0-.457.504c-.274.447-.454.957-.648 1.443a49.002 49.002 0 0 0-.855 2.315c-.092.268.078.496.301.592a.314.314 0 0 0 .097.271c3.94 3.741 8.438 7.081 12.942 10.109.407.273.779-.016.864-.385a.306.306 0 0 0 .166-.324c-.863-6.497-2.722-12.658-5.158-18.731-.01-.026-.029-.042-.042-.065 4.576-3.381 9.04-6.907 13.611-10.3.271-.201.294-.517.184-.759.12-.218.08-.515-.225-.56zM24.927 6.48c-.83-.072-1.667-.114-2.496-.162.161-.491.308-.987.463-1.48a3.22 3.22 0 0 1 1.512.047l.521 1.595zm-1.302-3.982c.233.717.468 1.433.703 2.15a3.107 3.107 0 0 0-1.367-.027c.222-.708.45-1.414.664-2.123zm1.632 11.639c-1.089-1.602-2.53-2.94-4.287-3.777.518-1.28.981-2.584 1.415-3.9.863.072 1.733.157 2.601.203l.785 2.403c-.66-.001-1.321 0-1.982.004-.09.001-.09.139 0 .139.677.004 1.353.006 2.03.004.215.655.427 1.311.642 1.965a6.203 6.203 0 0 1-1.611-.169c-.095-.024-.135.121-.04.147a5.86 5.86 0 0 0 1.717.221c.301.912.598 1.825.902 2.735a70.891 70.891 0 0 0-2.164.016c-.005-.001-.002.007-.008.009zm.093.135c.71.013 1.425.024 2.138.013.242.722.475 1.447.72 2.167a72.892 72.892 0 0 0-1.686.008 13.094 13.094 0 0 0-1.172-2.188zm10.975 23.991c-1.161.104-2.3.174-3.467.089-.092-.007-.091.136 0 .143 1.167.101 2.354.108 3.513-.086.27.904.533 1.81.787 2.719-1.43-.166-2.87-.263-4.303-.389-.045-.004-.044.065 0 .07 1.443.149 2.888.328 4.334.436.234.836.467 1.672.69 2.511-1.527-.147-3.075-.144-4.602-.084-.062.002-.063.099 0 .097 1.56-.04 3.099.05 4.647.152a283.94 283.94 0 0 1 1.147 4.492c-1.325-.975-2.646-1.959-3.967-2.943 1.07.287 2.139.579 3.213.851.066.017.094-.084.028-.102-1.14-.309-2.286-.597-3.43-.89-2.74-2.041-5.484-4.08-8.282-6.028.35-.736.68-1.482.996-2.233.134-.32.28-.643.398-.974 1.07 1.101 2.314 1.974 3.77 2.565.439.178.865-.339.746-.746a76.905 76.905 0 0 0-.636-2.064c1.226.034 2.456.095 3.682.085.248.775.502 1.549.736 2.329zm-2.121-8.492a.392.392 0 0 0-.116.365c-.231.096-.392.316-.274.627.11.293.207.589.313.883-1.007-.222-2.061-.051-3.004.337-.078.032-.045.159.035.128.976-.376 1.93-.418 2.96-.313.028.003.036-.023.048-.042.235.653.473 1.304.694 1.96-.877-.029-1.758.002-2.635.01-.102.001-.102.157 0 .158.897.009 1.798.042 2.694.01.215.642.43 1.283.637 1.927-1.218-.044-2.442-.02-3.661-.023a71.127 71.127 0 0 0-2.498-6.639c1.933-.939 3.695-2.148 5.334-3.518 1.422.074 2.852.09 4.271-.02a94.677 94.677 0 0 0-4.798 4.15zm5.055-4.359c-1.453.07-2.899.12-4.353.091a36.17 36.17 0 0 0 1.684-1.522.48.48 0 0 0 .164-.405c.298-.225.286-.701-.124-.832-1.41-.449-3.042-.213-4.514-.186-1.532.027-3.072.067-4.6.193.191-2.057-.152-4.21-.949-6.174.562.007 1.124.014 1.686.007.229.671.455 1.344.689 2.013.139.398.569.453.844.288 5.631.631 11.648 1.053 17.335.746a105.003 105.003 0 0 0-7.862 5.781z"/><path d="M36.019 27.886c-1.602.483-3.173.723-4.847.572-.077-.007-.076.112 0 .12 1.648.18 3.33.049 4.89-.538.094-.035.058-.184-.043-.154zM42.544 22.386c-1.862.328-3.565.48-5.438.124-.142-.027-.203.189-.06.218 1.816.36 3.77.42 5.552-.146.126-.04.073-.218-.054-.196zM44.453 20.198c-2.328.159-4.623.288-6.958.223-.117-.003-.116.175 0 .181 2.308.128 4.661.128 6.958-.164.149-.018.157-.251 0-.24z"/></g></svg>