<svg xmlns="http://www.w3.org/2000/svg" viewBox="0 0 50.892 50.892"><g fill="#b7b7b7"><path d="M24.136 18.292c-1.251-3.08-4.778-3.952-7.692-2.993-.043-.201-.235-.379-.454-.294-3.112 1.21-3.991 5.16-2.758 8.029 1.39 3.234 5.205 4.722 8.486 3.196 2.848-1.325 3.515-5.239 2.418-7.938zm-.578 3.328c-1.257-.008-2.513-.007-3.769-.006-.072 0-.072.112 0 .112 1.252.002 2.504.002 3.755-.006a5.17 5.17 0 0 1-.454 1.591 1370.46 1370.46 0 0 0-3.512 0c-.058 0-.059.091 0 .091 1.158.001 2.316.002 3.474 0a3.961 3.961 0 0 1-1.043 1.303 176.95 176.95 0 0 0-4.538-.358c-.059-.004-.057.085 0 .091 1.471.138 2.945.261 4.42.363a3.713 3.713 0 0 1-1.677.68c-2.814.419-5.39-.777-6.221-3.617-.656-2.242.201-4.055 1.663-5.577.024.001.046.005.071.001 2.496-.42 5.635-.71 7.128 1.84a53.752 53.752 0 0 0-5.806-.531c-.06-.003-.059.09 0 .093 1.979.098 3.937.322 5.897.589.536 1.002.739 2.204.612 3.341zM37.78 19.408c-.496-2.798-2.963-4.484-5.626-4.262a.476.476 0 0 0-.295-.057c-3.206.432-5.619 3.528-5.284 6.763.379 3.664 3.687 5.497 7.062 4.564 3.569-.987 4.788-3.369 4.143-7.008zm-.883 2.615c-.994-.017-1.989.003-2.982.009-.076 0-.076.118 0 .118.987.007 1.977.026 2.965.009-.007.041-.007.084-.016.124a3.534 3.534 0 0 1-.583 1.358c-.006-.017-.012-.036-.036-.034-2.125.179-4.204.19-6.322-.099-.056-.008-.08.077-.024.085 2.102.308 4.222.39 6.333.116-.584.777-1.473 1.217-2.556 1.516-2.986.824-6.011-.52-6.032-4.007-.016-2.607 1.996-4.525 4.335-5.247 1.854.136 3.629.772 4.459 2.554a19.565 19.565 0 0 0-4.631-.28c-.073.004-.074.117 0 .114 1.586-.071 3.138.054 4.699.309.024.057.057.105.079.165.152.408.25.852.313 1.304-1.204-.03-2.411-.01-3.615-.005-.077 0-.078.12 0 .12 1.21.006 2.423.026 3.633-.005a6.512 6.512 0 0 1-.019 1.776z"/><path d="M49.066 22.729c-.558-.046-1.098.142-1.536.48-.044.034-.071.069-.11.104.401-5.742.506-12.039-.183-17.711-.28-2.303-.909-4.186-3.136-4.576a.514.514 0 0 0-.465-.443C34.541-.314 25.443-.012 16.327.39 13.54.515 6.321-.621 4.556 2.511c-.209-.05-.453.028-.503.278-1.32 6.482-1.586 13.774-.621 20.36-.744-.521-1.732-.753-2.479-.066-1.046.963-.361 2.332.37 3.198 2.365 2.802 5.651 5.467 9.335 6.132-3.108 9.411 2.62 18.179 12.803 18.468 11.671.331 18.591-6.994 16.379-18.433a.416.416 0 0 0-.075-.172c2.493-.541 4.869-1.766 6.93-3.246 1.338-.961 3.158-2.207 3.289-3.97.068-.028.14-.054.181-.106.748-.962.052-2.129-1.099-2.225zm.165 1.883a8.46 8.46 0 0 1-.65.974c-1.093-.012-2.188.004-3.281.016-.095.001-.095.147 0 .148 1.049.011 2.099.026 3.148.017-.256.323-.53.631-.822.921-1.265.119-2.526.213-3.803.198-.131-.002-.13.2 0 .202 1.166.024 2.339.001 3.501-.116a14.712 14.712 0 0 1-2.008 1.55 33.67 33.67 0 0 0-5.531.369c-.093.014-.072.177.022.166 1.717-.198 3.427-.28 5.147-.309-1.28.788-2.66 1.456-4.007 2.08-3.26-.068-6.519-.115-9.779-.259-.069-.003-.069.104 0 .108 3.102.178 6.215.33 9.326.363-.383.177-.766.352-1.137.527-.251.118-.244.375-.114.553-.213.048-.395.204-.368.458.433 4.099.654 8.039-1.679 11.346-3.272.019-6.547.134-9.818.208-.088.002-.089.139 0 .137 3.234-.058 6.473-.076 9.706-.187-.335.456-.718.901-1.16 1.332-.321.312-.665.597-1.021.868-4.337.092-8.673.207-13.009.333-.042.001-.042.066 0 .065 4.244-.052 8.489-.115 12.733-.199a14.29 14.29 0 0 1-2.352 1.373c-3.74.269-7.469.39-11.222.306-.072-.002-.072.109 0 .112 3.604.135 7.212.068 10.807-.216-2.627 1.125-5.618 1.577-8.401 1.504-4.148-.11-8.589-1.944-10.882-5.555-2.24-3.527-1.628-7.634-1.216-11.536.419-.187.458-1.01-.09-1.091-2.685-.396-4.817-1.803-6.787-3.607-.579-.53-2.411-1.84-2.569-2.614l.67-1.247a9.3 9.3 0 0 0 .992.196c.075.012.102.008.111.004l-.003.004c-.003.092.122.117.167.045a.98.98 0 0 0 .104-.188c.074-.049.134-.116.136-.218.108-6.77.295-13.403.738-20.155 1.838-2.149 8.621-2.223 10.557-2.39 3.127-.269 6.279-.394 9.417-.387 6.231.014 12.463.417 18.682.757.009.005.012.016.022.02.385.154.715.399 1.006.703-5.255-1.184-11.432-.714-16.721-.955-.064-.003-.063.095 0 .099 5.474.332 11.584-.018 16.983 1.159.071.093.134.2.2.302a838.393 838.393 0 0 0-10.639-.123c-.08 0-.08.122 0 .125 3.591.092 7.184.162 10.776.207.325.564.574 1.236.763 1.973a5.006 5.006 0 0 0-1.45.242c-.12.038-.07.225.052.189a5.226 5.226 0 0 1 1.452-.197c.189.807.32 1.674.401 2.558-.625-.01-1.251.003-1.875.009-.1.001-.101.155 0 .156.629.005 1.261.019 1.891.008.079.931.113 1.869.127 2.745a7.38 7.38 0 0 1-1.594.008c-.12-.014-.118.173 0 .188a6.874 6.874 0 0 0 1.597.028c.014 1.016.007 1.944.021 2.665-.673.119-1.324.176-2.016.082-.109-.015-.156.152-.046.167.687.093 1.392.082 2.065-.093.001.051.001.111.003.159.031.971.031 1.944.02 2.917-.608.1-1.216.117-1.837.033-.08-.011-.114.111-.034.122a6.04 6.04 0 0 0 1.87-.028c-.013.978-.038 1.957-.06 2.937-.727.05-1.454.106-2.181.161-.094-1.663-.193-3.325-.179-4.986.022-2.627.344-5.133-.012-7.738.579-1.764-1.097-3.765-2.853-4.039a.519.519 0 0 0-.287-.076c-5.222.125-10.435.433-15.659.507-5.043.072-10.187-.373-15.21.08-.984-.338-2.132.287-2.784 1.081-.85 1.035-1.013 2.496-.778 3.822-.548 5.47-.459 11.627.502 16.926-.006.034.005.063.015.097a.918.918 0 0 0 .003.02c.006.03.028.039.04.062.011.013.007.028.021.04l.01.007a.19.19 0 0 0 .077.059c2.107 1.671 4.431 2.985 7.137 3.356 3.293.451 8.277-1.21 10.665 1.657.137.165.366.102.494-.039.089.206.393.283.577.045 2.281-2.959 7.566-1.258 10.805-1.671 2.56-.327 4.848-1.759 6.908-3.248.272.022.559-.119.6-.509a1.725 1.725 0 0 0-.04-.547.458.458 0 0 0 .109-.295 45.034 45.034 0 0 0-.034-1.945 7.215 7.215 0 0 0 2.017-.094c0 .459-.007.918.004 1.376a.43.43 0 0 0 .394.442.207.207 0 0 0 .382.133c.317-.463 1.362-1.059 1.923-.774.381.194.1.371.096.669-.001.02.005.033.006.05zm-2.77-4.52c-.018.823-.034 1.646-.035 2.469-.676.088-1.34.132-2.019.09a120.77 120.77 0 0 0-.118-2.407c.723-.049 1.448-.098 2.172-.152zm-3.174 5.655c-2.035 1.31-3.952 2.459-6.485 2.642-2.001.144-4.036-.085-6.041-.075-2.214.011-4.17.173-5.226 2.317-.765-1.958-2.686-2.18-4.66-2.238-1.967-.058-3.933.146-5.899-.027-2.922-.257-4.944-1.441-7.401-2.801.331-5.568.163-11.551-.201-17.165.011-.72.048-1.438.357-2.1.541-1.161 1.41-1.327 2.562-1.378a.482.482 0 0 0 .353-.205c9.726 1.289 20.529.432 30.241-.302.637.225 1.203.627 1.583 1.192.455.678.511 1.326.58 2.111a.445.445 0 0 0 .195.322c-.159 2.399.204 4.678.277 7.115.095 3.197-.181 6.397-.05 9.602a.482.482 0 0 0 .072.234 1.93 1.93 0 0 0-.248.462.48.48 0 0 0-.009.294z"/><path d="M38.14 41.033c-2.608.35-5.178.516-7.808.358-.098-.006-.097.145 0 .152 2.616.177 5.244.11 7.832-.336.097-.017.075-.188-.024-.174zM38.344 38.129c-5.134-.028-10.257.041-15.391-.116-.068-.002-.068.102 0 .105 5.114.234 10.274.394 15.391.158.095-.004.096-.147 0-.147zM38.342 35.716c-3.509-.177-7.032-.195-10.545-.282-.087-.002-.087.132 0 .135 3.512.119 7.031.308 10.545.336.122.002.121-.183 0-.189zM38.763 32.964c-3.576-.321-7.176-.239-10.753.01-.077.005-.078.125 0 .12 3.596-.221 7.159-.117 10.753.076.134.008.13-.195 0-.206zM23.372 19.955c-1.546-.137-3.097-.232-4.645-.343-.066-.005-.066.099 0 .103 1.548.109 3.095.235 4.645.318.051.003.05-.074 0-.078z"/></g></svg>