<svg xmlns="http://www.w3.org/2000/svg" viewBox="0 0 49.289 49.289"><g fill="#b7b7b7"><path d="M16.235 23.312c-1.194-4.513-3.158-8.985-4.823-13.347-.173-.453-.887-.279-.743.205 1.341 4.487 2.671 9.278 4.708 13.504.235.488.991.141.858-.362z"/><path d="M23.085 20.252c-1.357-3.608-2.683-7.232-4.037-10.842l.287.021c.096.008.12-.156.023-.17-.127-.018-.254-.027-.381-.042-.236-.628-.466-1.258-.704-1.884-.086-.225-.316-.234-.455-.122a.458.458 0 0 0-.422-.286c-1.056-.04-2.145.501-3.129.85a54.603 54.603 0 0 0-3.021 1.157c-.465.197-.119.877.329.781a54.516 54.516 0 0 0 3.23-.819c.94-.263 2.057-.44 2.843-1.035.054-.041.077-.099.112-.151.097.472.206.943.321 1.414a34.518 34.518 0 0 0-3.596-.075c-.095.002-.095.149 0 .148 1.223-.014 2.435.06 3.648.149.125.5.256 1.001.394 1.5-1.516-.402-3.114-.54-4.675-.519-.085.001-.086.132 0 .133 1.613.017 3.158.26 4.728.577.128.459.249.918.389 1.375-1.279-.114-2.571-.138-3.853-.199-.102-.005-.101.152 0 .158 1.298.075 2.602.19 3.902.208.18.581.368 1.161.566 1.737-1.149-.08-2.301.008-3.435.204-.08.014-.046.135.034.122 1.157-.186 2.295-.212 3.458-.171.227.656.462 1.311.71 1.959-.76-.006-1.523.012-2.282.02-.072.001-.072.111 0 .112.779.008 1.561.028 2.342.02.248.644.495 1.289.761 1.921a29.03 29.03 0 0 0-4.37.235c-.086.011-.088.147 0 .137 1.483-.171 2.958-.216 4.442-.201.186.44.361.888.556 1.321-1.802-.054-3.616.009-5.417.017-.101 0-.101.156 0 .156 1.828.008 3.671.074 5.501.015.073.161.143.325.217.485.014.031.038.048.056.073-.858.268-1.705.597-2.544.933a19.452 19.452 0 0 1-3.641-.354c-.07-.014-.1.091-.03.108 1.016.239 2.062.402 3.113.468l-.221.088c-.804.327-2.004.578-2.39 1.415-.031.068-.024.165.053.202.809.388 1.733-.103 2.541-.353 1.196-.37 2.411-.756 3.567-1.235.538-.223.56-.88.244-1.18.197-.119.331-.33.236-.581zM33.184 17.27c-.186-.595-.375-1.192-.569-1.791.045-.028.092-.054.129-.092a.103.103 0 0 0 .016-.122c-.063-.122-.067-.126-.207-.146-.018-.003-.032.015-.051.021-1.359-4.147-2.964-8.337-5.208-12.041a.226.226 0 0 0-.122-.091.567.567 0 0 0-.581-.113c-2.028.741-4.081 1.737-5.86 2.965a.395.395 0 0 0-.154.411c-.212-.018-.45.155-.353.393 1.659 4.091 3.287 8.172 4.769 12.331.128.361.496.437.772.328a.396.396 0 0 0 .333.59c1.959.125 4.731-.437 6.179-1.865a.517.517 0 0 0 .115-.173c.377.196.954-.085.792-.605zM27.126 4.167c.014-.006.02-.017.033-.023.15.425.311.845.468 1.267a72.997 72.997 0 0 0-3.035-.189c.852-.343 1.7-.695 2.534-1.055zm-6.241 2.396a.382.382 0 0 0 .134-.018 59.976 59.976 0 0 0 3.152-1.152c1.176.091 2.355.184 3.533.227.185.498.366.998.552 1.495-1.416-.197-2.855-.286-4.277-.421-.095-.009-.093.137 0 .148 1.445.159 2.897.374 4.348.465.187.498.363.999.552 1.496-1.203-.176-2.414-.232-3.639-.176-.099.004-.099.157 0 .154a19.6 19.6 0 0 1 3.722.24l.808 2.129c-1.227-.034-2.46-.006-3.687 0-.107.001-.107.166 0 .167 1.248.007 2.501.036 3.75-.001.24.632.483 1.262.719 1.896-1.206-.035-2.43.035-3.626.041-.114.001-.114.177 0 .177 1.227.006 2.483.078 3.719.036.242.652.486 1.303.72 1.958-.698-.017-1.461-.073-1.593-.073l-3.057.009c-.111 0-.111.172 0 .173l3.997.024c.194.001.451.035.721.059.139.392.286.78.42 1.173-2.129.218-4.226.354-6.38.27-1.287-3.596-2.79-7.131-4.588-10.496zM31.794 17.22c-.987.166-1.923.699-2.878 1.007-.964.31-1.934.572-2.893.9a.48.48 0 0 0 .036-.425c-.172-.51-.363-1.015-.544-1.523 2.124.148 4.291.113 6.404-.201.029.085.062.17.09.255a.532.532 0 0 0-.215-.013z"/><path d="M44.495 5.534a.542.542 0 0 0-.404-.25c-.193-.228-.508-.358-.849-.187-2.908 1.452-5.922 2.425-8.969 3.519-.332.119-.42.407-.339.646-.292.051-.531.287-.388.639 3.336 8.246 7.033 25.374-7.469 24.657-9.84-.487-12.347-8.242-15.95-15.725.567-.303.383-1.343-.345-1.306-1.659.083-3.259.873-4.763 1.528-1.749.759-3.489 1.635-4.925 2.902-.174.153-.083.414.092.507-.084.067-.137.178-.106.327 3.179 15.399 17.7 28.474 34.058 21.897 6.048-2.432 12.295-9.406 14.241-15.615 2.224-7.092.158-17.466-3.884-23.539zm3.661 18.273c-2.015-.041-4.035.008-6.05.029-.061.001-.061.094 0 .095 2.012.021 4.03.069 6.043.029a23.16 23.16 0 0 1-.148 1.859c-2.74.128-5.468.315-8.214.325-.083 0-.083.128 0 .129 2.728.02 5.483-.006 8.198-.304a18.42 18.42 0 0 1-.23 1.372c-.034.163-.092.329-.134.493-2.053.142-4.087.262-6.148.187-.092-.003-.092.14 0 .143 2.039.085 4.094.061 6.118-.221a16.064 16.064 0 0 1-.808 2.363c-2.812-.129-5.671.033-8.472.273-.079.007-.081.128 0 .125 2.791-.124 5.577-.114 8.368-.178-.369.821-.795 1.64-1.289 2.445-2.167.098-4.265.046-6.425-.316-.098-.016-.141.131-.042.151 2.077.409 4.214.569 6.327.384-.315.5-.646.996-1.001 1.483-3.592-.093-7.196-.004-10.788.009-.099 0-.099.153 0 .154 3.536.028 7.083.128 10.619.057a29.032 29.032 0 0 1-1.666 2.044c-.524.029-1.28-.049-1.621-.029a1489.294 1489.294 0 0 0-6.486.385c-.091.006-.093.147 0 .143 1.946-.082 3.892-.168 5.837-.259.442-.021 1.332.092 2.041.023-.413.449-.837.888-1.274 1.309-3.608-.066-7.236.146-10.822.519-.078.008-.081.13 0 .124 3.521-.25 7.027-.336 10.552-.383a27.991 27.991 0 0 1-2.638 2.197c-4.461-.076-8.939.049-13.398.128-.085.001-.086.133 0 .133 4.364.015 8.746.072 13.111-.056-1.283.909-2.595 1.667-3.883 2.2-4.822-.455-9.659-.585-14.497-.327-.078.004-.079.124 0 .122 4.662-.107 9.293.027 13.935.424-6.851 2.566-15.623 1.428-21.362-2.995C5.944 35.997 3.472 29.342.71 22.617a.353.353 0 0 0-.162-.182c3.077-1.012 5.91-2.66 9.072-3.44 1.814 9.259 8.987 18.717 19.635 16.658 12.36-2.39 8.533-18.337 5.348-26.04 3.181-.466 6.25-1.744 9.095-3.213.579.933 1.102 1.972 1.58 3.067-1.816-.252-3.675-.25-5.501-.138-.104.006-.105.168 0 .162 1.881-.093 3.72.027 5.592.184.261.611.513 1.234.742 1.879-2.098-.162-4.242-.036-6.329.174-.123.012-.125.205 0 .194 2.146-.184 4.264-.159 6.412-.149.26.746.502 1.507.715 2.284-2.513-.105-5.027-.051-7.542-.201-.1-.006-.1.149 0 .156 2.508.168 5.075.362 7.587.211.581 2.16.979 4.406 1.13 6.599-1.794.049-3.564.041-5.356-.085-.104-.007-.101.15 0 .16 1.777.181 3.588.234 5.371.111.061.947.091 1.887.057 2.799z"/><path d="M47.798 18.938c-1.755-.042-3.515.003-5.271.013-.107.001-.107.166 0 .167 1.756.01 3.515.055 5.271.013.124-.004.124-.19 0-.193zM47.166 16.62c-1.432-.033-2.865-.011-4.297-.008-1.075.002-2.902.368-3.837-.071.059.028.112-.059.052-.089l-.098-.05a.054.054 0 0 0-.073.019l-.079.121c-.014.021-.007.05.009.068.487.533 2.161.199 2.8.204 1.841.015 3.684.048 5.524-.01.117-.004.117-.181-.001-.184z"/></g></svg>