<svg xmlns="http://www.w3.org/2000/svg" viewBox="0 0 48.273 48.273"><g fill="#b7b7b7"><path d="M18.734 32.385l-.014-.001a.524.524 0 0 0 .06-.553c-1.083-2.351-1.923-4.7-2.44-7.241-.07-.345-.457-.412-.726-.295-1.124.486-2.241.988-3.306 1.595-.097.055-.124.143-.125.232-.075.09-.114.213-.082.317.764 2.532 1.776 5.079 2.712 7.555.15.396.646.373.807.092a.436.436 0 0 0 .307.055c.552-.104 1.088-.282 1.627-.438.474-.137 1.043-.195 1.373-.588.202-.238.149-.645-.193-.73zm-1.557.348c-.532.195-1.072.374-1.583.619-.022.01-.033.025-.051.037-.347-1.256-.794-2.492-1.259-3.706-.327-.854-.792-2.781-1.622-3.15.165.073.328-.086.258-.238a32.316 32.316 0 0 0 2.58-.906c.065.337.147.671.226 1.006-.644-.099-1.29-.184-1.936-.271-.138-.019-.201.191-.059.213.684.11 1.368.224 2.054.32.143.584.3 1.165.481 1.739-.587-.136-1.181-.252-1.77-.369-.149-.03-.215.194-.064.231.639.153 1.283.312 1.93.439.192.586.398 1.167.635 1.736-.712-.177-1.447-.293-2.163-.429-.143-.027-.205.188-.061.22.779.175 1.568.394 2.361.51.194.448.393.894.616 1.329-.683-.024-1.35-.019-2.035-.159-.178-.036-.255.234-.076.275.717.164 1.502.275 2.24.154l.01.021c.019.036.045.056.068.084-.265.079-.524.201-.78.295zM24.818 29.872a66.478 66.478 0 0 0-2.657-6.634c.035-.325-.306-.703-.693-.644-1.171.179-2.454.741-3.524 1.243-.226.106-.2.442-.028.579.004.014.001.028.006.043.831 2.265 1.648 4.776 2.883 6.857.213.359.676.342.935.115.264.186.419.251.797.224a4.827 4.827 0 0 0 1.058-.21c.64-.196 1.393-.411 1.49-1.148.024-.183-.113-.339-.267-.425zm-1.721.46a8.228 8.228 0 0 1-.803.208.994.994 0 0 0-.446.197c-.726-2.19-1.953-4.328-3.057-6.356.915-.136 1.863-.331 2.715-.65.15.543.313 1.083.482 1.62a7.346 7.346 0 0 0-1.237-.065c-.113.003-.113.174 0 .176.457.007.891.074 1.324.159.158.493.32.986.488 1.476-.658-.114-1.33-.184-1.987-.27-.13-.017-.162.21-.031.231.7.112 1.41.252 2.119.325.207.595.409 1.191.63 1.78a7.993 7.993 0 0 1-1.68-.479c-.082-.033-.128.094-.058.138.55.346 1.193.552 1.846.638.078.205.145.415.225.619-.178.097-.356.195-.53.253z"/><path d="M32.125 25.035a.615.615 0 0 0-.684-.22.68.68 0 0 0-.476-.318c-.724-.088-1.412.437-2.053.735-.679.315-1.365.613-2.046.922-.347-.047-.759.233-.664.688.421 2.027 1.685 3.898 1.713 5.989.035 2.577-1.715 6.173-4.202 7.282-6.191 2.762-9.525-3.807-12.383-7.966-.054-.079-.143-.097-.225-.086a.512.512 0 0 0-.458-.236c-1.496.085-3.347.877-4.463 1.872-.221.197-.193.492-.044.699l-.001.003c1.974 9.149 11.237 16.795 20.714 12.777 8.923-3.783 10.815-14.715 5.272-22.141zm-2.281 10.576c1.382-.115 2.701.027 4.066.227a12.876 12.876 0 0 1-1.219 4.153c-1.449-.187-2.921-.25-4.371-.459-.177-.025-.259.239-.076.275 1.357.266 2.843.532 4.256.552a11.97 11.97 0 0 1-1.467 2.16c-.002-.055-.025-.108-.1-.13-1.356-.409-2.826-.515-4.234-.568-.211-.008-.209.315 0 .327 1.403.081 2.764.345 4.152.535.018.002.029-.008.045-.01a11.832 11.832 0 0 1-1.862 1.694c-2.206-.432-4.482-.641-6.707-.931-.134-.018-.167.217-.032.238 2.1.336 4.222.751 6.344.977-.516.346-1.056.67-1.645.946-3.67-.36-7.303-.534-10.956-1.151-.15-.025-.216.201-.064.231 3.344.641 6.855 1.224 10.285 1.23-.386.153-.77.31-1.185.432-8.813 2.596-15.03-4.634-18.223-11.778.689-.235 1.34-.579 2.02-.84.688-.264 1.412-.471 2.07-.805a.514.514 0 0 0 .153-.119c1.743 4.886 6.192 10.899 12.125 8.87 2.496-.854 4.509-3.272 5.379-5.7 1.266-3.535-.409-5.804-1.237-9.09a44.685 44.685 0 0 0 2.146-.634c.577-.185 1.133-.303 1.579-.648.008.012.008.024.017.036a14.283 14.283 0 0 1 1.62 2.748c-1.062-.187-2.197-.165-3.235-.054-.134.014-.141.219 0 .215 1.177-.035 2.283.125 3.424.294.258.628.486 1.264.651 1.911-1.203-.363-2.682-.406-3.892-.458-.186-.008-.178.266 0 .285.795.085 1.589.166 2.38.288.532.082 1.066.216 1.604.254.135.595.234 1.195.29 1.795-.012-.006-.015-.018-.029-.021-1.202-.282-2.499-.326-3.725-.468-.166-.019-.206.268-.04.293 1.221.183 2.484.481 3.717.523a.155.155 0 0 0 .096-.036c.057.784.056 1.566-.02 2.338-1.336-.337-2.743-.335-4.104-.177-.152.018-.158.263.004.25zM41.466.354a.684.684 0 0 0-.493-.243c-5.953-.4-12.952.026-16.368 5.73-3.132 5.229-2.14 12.467 1.163 17.35a.386.386 0 0 0 .261.161.412.412 0 0 0 .375.069c.747-.205 1.471-.512 2.199-.778.62-.227 1.296-.343 1.673-.908a.984.984 0 0 0 .466-.272c.194.033.425-.128.35-.358-.053-.162-.102-.331-.154-.496.094-.042.108-.195-.011-.224l-.063-.013c-.911-2.973-1.522-6.316-.185-9.227 1.674-3.646 4.948-4.208 8.621-4.05.467.02.689-.333.677-.692.966-1.638 2.129-3.722 2.271-5.58.034-.454-.44-.618-.782-.469zm-1.339 2.908c-1.543-.239-3.126-.316-4.679-.452-.181-.016-.173.256 0 .278 1.506.193 3.029.446 4.547.544l-.519 1.437c-3.012-.565-6.232-.503-9.281-.381-.173.007-.175.271 0 .271 3.07-.003 6.085.356 9.14.499l-.08.221c-2.233-.151-4.344.018-6.132.865-1.715-.213-3.486-.225-5.196-.267-.157-.004-.155.233 0 .242 1.493.091 2.994.28 4.492.389a7.234 7.234 0 0 0-1.802 1.562c-1.395-.26-2.88-.26-4.268-.214-.185.006-.186.29 0 .288 1.352-.016 2.664.153 3.992.289-.21.285-.413.585-.6.918-.168.299-.31.601-.438.905-1.142-.183-2.331-.215-3.477-.314-.195-.017-.191.282 0 .302 1.102.118 2.233.307 3.348.353a9.226 9.226 0 0 0-.513 2.041c-1.272-.246-2.607-.276-3.885-.238-.192.006-.193.302 0 .299 1.302-.02 2.562.136 3.842.282-.073.78-.053 1.565.045 2.346-1.096-.254-2.234-.395-3.335-.596-.137-.025-.196.182-.058.21 1.134.232 2.279.536 3.428.709.109.709.28 1.414.501 2.11-.942-.137-1.909-.19-2.848-.29-.185-.02-.182.267 0 .288.978.115 1.976.285 2.965.352.195.568.419 1.128.672 1.677-1.079-.199-2.248-.32-3.275-.287-.125.004-.155.187-.03.221 1.044.283 2.276.435 3.416.483-.159.068-.305.165-.465.245-.553.026-1.005.344-1.527.621-.598.318-1.212.623-1.794.972-1.821-4.838-3.403-10.413-.861-15.327 2.931-5.668 9.677-6.04 15.29-5.608-.233.575-.411 1.179-.615 1.755z"/><path d="M33.215 37.982c-1.318-.343-2.711-.412-4.067-.363-.223.008-.225.355 0 .348 1.352-.04 2.646.124 3.979.337.207.033.301-.267.088-.322z"/></g></svg>