<svg xmlns="http://www.w3.org/2000/svg" viewBox="0 0 49.553 49.553"><g fill="#1d1d1b"><path d="M48.187 18.067c-3.463-7.553-17.033-12.323-23.498-5.995-.043.042-.063.087-.09.132-2.574-2.327-6.702-3.256-9.917-1.819-2.686 1.201-4.511 3.843-4.293 6.729-9.513-1.85-13.054 11.84-8.264 18.37 2.789 3.803 7.514 4.226 11.872 4.46 7.08.381 14.715.931 21.749-.199 9.938-1.596 16.873-12.012 12.441-21.678zm-.207 8.325c-5.618-.275-11.257-.336-16.88-.456-.084-.002-.084.128 0 .131 5.613.194 11.24.446 16.857.485-.121.69-.294 1.361-.52 2.007-3.693-.004-7.381.042-11.075-.036-.106-.002-.106.161 0 .165 3.659.132 7.339.215 11.001.087-.3.809-.675 1.582-1.125 2.31-5.682.063-11.36.062-17.042-.079-.077-.002-.077.118 0 .12 5.629.198 11.263.281 16.896.189a14.209 14.209 0 0 1-1.857 2.311c-.01-.027-.029-.05-.066-.051-8.515-.347-17.021-.616-25.526-1.188-.069-.005-.068.102 0 .108 8.474.667 16.981 1.206 25.484 1.238-2.78 2.743-6.722 4.501-10.938 4.846-6.865.563-14.034.39-20.882-.277-5.144-.501-9.28-2.343-10.546-7.88C.329 24.157 4.21 18.46 10.583 18.085c.149.201.461.142.562-.093.205-.128.258-.424.107-.605.321-3.016 2.274-5.491 5.362-6.09 2.871-.557 5.158.717 7.514 2.157.38.232.779-.014.902-.353a.588.588 0 0 0 .54-.148c3.761-3.425 9.657-3.05 14.444-.673a89.174 89.174 0 0 0-9.133-.003c-.074.004-.075.118 0 .116 3.227-.099 6.436-.019 9.655.144a17.747 17.747 0 0 1 3.107 2.108c-3.865-.539-7.797-.696-11.693-.572-.079.003-.079.127 0 .123l.622-.028c.045-.002.045-.068 0-.07 3.789.152 7.585.401 11.373.809.845.756 1.599 1.576 2.204 2.458-4.437-.385-8.918-.44-13.366-.341-.072.002-.072.112 0 .112 4.521-.019 9.009.207 13.518.458a9.99 9.99 0 0 1 1.236 2.621c.009.03.013.059.022.089-4.995-.257-9.991-.514-14.987-.745-.082-.004-.081.122 0 .127 2.697.164 5.394.313 8.091.467 1.926.11 4.981.798 6.969.454.182.698.312 1.384.393 2.057-3.888-.097-7.77-.167-11.659-.343-.069-.003-.067.099 0 .106 3.86.361 7.799.553 11.687.461.126 1.215.107 2.389-.073 3.504z"/><path d="M39.951 36.191c-9.975-.427-19.979-.213-29.937.476-.064.004-.065.104 0 .101 9.983-.489 19.944-.585 29.937-.455.079.001.079-.119 0-.122z"/></g></svg>