<svg xmlns="http://www.w3.org/2000/svg" viewBox="0 0 48.77 48.77"><g fill="#1d1d1b"><path d="M32.697 12.704c-11.894-9.769-28.492 5.94-19.74 18.366-1.317 1.683-2.176 3.654-2.811 5.688-.173.554.368.958.868.868 1.986-.358 4.006-.643 5.973-1.099a.66.66 0 0 0 .107.097c.27.192.56.286.855.3l.01.006c6.616 2.029 14.056.619 18.038-5.488 3.905-5.987 2.159-14.254-3.3-18.738zm1.423 19.18c-3.978 4.587-10.286 5.263-15.869 3.989a.533.533 0 0 0-.368.044c-.106-.082-.21-.164-.329-.211-.011-.004-.023-.003-.034-.006-.067-.256-.26-.466-.577-.432-1.698.185-3.39.496-5.078.788.566-1.637 1.242-3.225 1.854-4.849a.279.279 0 0 0 .011-.153.412.412 0 0 0-.034-.257c-2.657-5.53-2.823-11.939 1.968-16.432 4.502-4.222 11.399-4.4 16.137-.505 5.34 4.391 7.071 12.545 2.319 18.024z"/><path d="M26.221 17.003a.244.244 0 0 0-.114-.119c-7.941-3.58-12.344 12.712-2.863 13.916 3.896.495 7.536-1.981 8.075-5.928.49-3.585-1.462-7.512-5.098-7.869zm-.989 6.795c1.559-.179 3.092-.182 4.648-.169a7.15 7.15 0 0 1-.069 1.037c-.026.177-.078.34-.118.508-1.622-.065-3.26-.006-4.88.013-.077.001-.078.119 0 .12 1.61.019 3.236.077 4.846.014-.108.399-.24.782-.419 1.133-1.82-.086-3.66-.006-5.481.004-.071 0-.071.109 0 .11 1.798.009 3.615.087 5.412.006-.22.404-.476.781-.783 1.108-2.394.066-4.775.058-7.166-.085-.087-.005-.086.129 0 .135a61.45 61.45 0 0 0 6.986.108c-1.22 1.19-2.977 1.791-4.866 1.558-3.461-.427-4.8-3.929-3.957-7.041.732-2.704 2.684-3.992 5.09-4.597.065.169.22.304.476.316 1.375.062 2.481.587 3.299 1.393-1.918-.025-3.839.016-5.756.028-.076 0-.076.118 0 .118 1.973.013 3.951.059 5.925.028a5.309 5.309 0 0 1 1.056 1.724c-1.694-.014-3.39.018-5.083.03-.073 0-.073.113 0 .114 1.715.012 3.433.045 5.148.03a6.42 6.42 0 0 1 .344 1.932c-1.548-.082-3.122.043-4.651.242-.053.005-.055.089-.001.083z"/><path d="M25.509.071C11.16-.972-.214 9.636.206 23.998.593 37.284 10.981 49.271 24.74 48.753c13.383-.045 24.007-10.726 23.833-24.201C48.408 11.702 38.367 1.005 25.509.071zM41.258 25.95c2.061.011 4.126.044 6.188.017-.04.643-.099 1.28-.191 1.906-1.992-.139-4.001-.142-5.996-.201-.105-.003-.104.159 0 .162 1.988.074 3.986.204 5.977.2a22.034 22.034 0 0 1-.848 3.544c-.011-.028-.031-.053-.07-.054-1.686-.06-3.375-.08-5.062-.091-.101-.001-.1.153 0 .156 1.687.053 3.375.098 5.062.102.016 0 .025-.009.036-.015a22.165 22.165 0 0 1-1.286 3.072c-2.044.097-4.086.233-6.128.354-.102.006-.103.166 0 .16 2.009-.107 4.021-.2 6.029-.328-.39.742-.808 1.467-1.275 2.157-2.287.17-4.566.313-6.864.312-.096 0-.096.149 0 .15 2.247.019 4.503-.044 6.741-.275a22.8 22.8 0 0 1-1.467 1.92c-2.458-.027-4.929.123-7.385.194-.085.003-.086.135 0 .133 2.412-.051 4.843-.029 7.253-.17a22.858 22.858 0 0 1-1.61 1.655c-3.012.301-5.983.467-9.019.274-.094-.006-.093.139 0 .146 2.939.199 5.908.166 8.829-.248a22.99 22.99 0 0 1-1.856 1.522c-4.626.579-9.259.858-13.924.84-.072 0-.072.111 0 .112a101.87 101.87 0 0 0 13.605-.723 23.316 23.316 0 0 1-3.209 1.921c-.016-.011-.032-.022-.057-.02-4.289.366-8.568.472-12.868.596-.071.002-.071.108 0 .11 4.151.124 8.324-.115 12.462-.459a23.593 23.593 0 0 1-9.871 2.182.671.671 0 0 0-.641.408C11.644 46.503 2.272 37.267 1.552 24.79.748 10.869 11.55.404 25.509 1.535c2.705.219 5.322.947 7.755 2.068-4.364.126-8.728.277-13.091.418-.108.004-.109.171 0 .169 4.531-.114 9.062-.218 13.593-.351 1.433.7 2.8 1.534 4.074 2.494-4.624.021-9.253.197-13.873.309-.097.002-.098.153 0 .152 4.712-.069 9.435-.07 14.146-.239A25.283 25.283 0 0 1 41 9.148c-3.567 0-7.141.144-10.704.218-.103.002-.103.162 0 .16 3.632-.05 7.277-.027 10.909-.158a24.826 24.826 0 0 1 2.022 2.477c-.679-.113-1.753.021-2.114.016-2.667-.038-5.353-.135-7.995.28-.053.008-.04.095.013.093l.538-.019c.05-.002.05-.078 0-.078 2.246-.01 4.486-.108 6.739-.069.8.014 2.232.327 3.018.061a23.388 23.388 0 0 1 2.714 5.189c-2.32-.187-4.666-.19-6.989-.152-.083.001-.083.129 0 .129 2.36-.006 4.708.12 7.063.209.232.648.441 1.304.611 1.973-2.495.002-4.974.047-7.469-.102-.069-.004-.069.103 0 .108 2.484.169 5.007.285 7.496.124.312 1.256.526 2.543.605 3.858-2.205-.043-4.415.007-6.62.018-.1.001-.101.156 0 .156 2.207.011 4.419.061 6.626.018.015.298.028.596.031.896.003.419-.02.83-.042 1.241-2.064-.027-4.131.006-6.193.017-.091 0-.091.138-.001.139z"/><path d="M44.209 14.421c-2.803-.207-5.626-.281-8.435-.373-.076-.003-.075.114 0 .118 2.806.167 5.624.353 8.435.405.098.001.096-.143 0-.15z"/></g></svg>