<svg xmlns="http://www.w3.org/2000/svg" viewBox="0 0 49.765 49.765"><g fill="#b7b7b7"><path d="M49.581 23.46C48.035 10.192 36.561-1.264 22.64.262 8.984 1.76-1.435 14.441.162 28.15 1.346 38.32 12.398 51.931 23.88 49.311c.095.072.21.126.362.127 15.044.073 27.173-10.24 25.339-25.978zm-1.444 5.993c-2.149.167-4.209.17-6.369-.169-.111-.017-.16.148-.047.171 2.088.411 4.267.521 6.382.23-.548 4.067-2.13 7.571-4.509 10.391-3.419-.017-6.841.085-10.261.061-.087-.001-.087.133 0 .135 3.351.092 6.74.164 10.094-.001a20.933 20.933 0 0 1-4.764 4.063c-.017-.011-.033-.025-.059-.025a516.06 516.06 0 0 1-21.511-.441c-.067-.003-.066.1 0 .103a398.88 398.88 0 0 0 21.234.574c-3.958 2.372-8.82 3.643-14.085 3.628a.579.579 0 0 0-.461.201C12.187 49.781 1.824 37.406 1.239 26.7.528 13.677 11.069 2.048 24.13 1.428a21.263 21.263 0 0 1 11.815 2.895c-3.25-.37-6.515-.656-9.771-.951-.079-.007-.077.114 0 .122 3.386.381 6.78.778 10.175 1.072a23.204 23.204 0 0 1 3.707 2.812c-5.769-.41-11.528-.846-17.277-1.483-.072-.008-.071.104 0 .112 5.822.674 11.66 1.269 17.512 1.605l.006-.002c.895.856 1.732 1.78 2.495 2.767-5.046-.331-10.097-.604-15.146-.896-.069-.004-.069.103 0 .108 5.114.356 10.228.733 15.345 1.049a26.009 26.009 0 0 1 2.065 3.188c-3.849-.623-7.838-.864-11.722-.825-.071.001-.07.106 0 .11 3.969.201 7.888.567 11.837.944a26.616 26.616 0 0 1 1.404 3.071c-1.748-.096-3.487-.192-5.228-.412-.081-.01-.101.132-.019.143 1.762.249 3.547.447 5.328.481.322.87.617 1.752.848 2.657-1.367.017-2.669-.007-4.029-.311-.128-.029-.183.166-.054.197 1.332.325 2.764.505 4.139.346.238.967.428 1.949.556 2.944-1.503-.012-2.941-.013-4.437-.293-.104-.02-.15.138-.044.161 1.457.307 3.013.501 4.502.327.036.298.072.595.098.894a24.667 24.667 0 0 1-.098 5.193z"/><path d="M41.692 18.174c.055-.143.027-.323-.127-.418-8.339-5.111-23.36-7.801-32.374-3.102a.29.29 0 0 0-.12.123c-.511.163-.983.637-1.231 1.056-.41.692-.478 1.645-.152 2.379.323.728 1.025 1.275 1.79 1.47.654.167 1.092.049 1.528-.223.057.015.12.02.19.007 10.175-1.919 17.945-.584 27.524 2.899.039.014.067-.003.101-.005 1.052.495 2.392.318 3.146-.65.755-.97.787-2.779-.275-3.536zm-.569 2.885c-.624.864-1.872.932-2.687.332a.237.237 0 0 0-.277-.012c-7.804-4.629-18.676-5.328-27.172-2.676-.029.009-.047.025-.071.038-.784.042-1.791-.378-2.121-.974-.259-.467-.221-.959-.05-1.447.17-.486.48-.733.798-1.06 10.276-4.286 21.458-.478 31.332 2.953a.476.476 0 0 0 .009.358c.385.803.854 1.637.239 2.488z"/><path d="M39.897 26.81c-.16-.425-.512-.746-.95-.825.241-.091.357-.431.066-.602-8.252-4.859-18.967-5.985-28.038-2.886-.015.005-.023.014-.036.02a.223.223 0 0 0-.184-.023c-1.163.369-1.532 1.985-1.153 3.02.193.528.588 1.03 1.068 1.329.405.252.739.306 1.096.259.051.029.109.05.18.04 7.948-1.107 17.037-2.129 24.058 2.579.135.091.27.059.367-.026 1.118.537 2.455-.164 3.162-1.104.383-.511.599-1.157.364-1.781zm-3.581 2.288c-.003-.001-.005.002-.008 0-5.448-5.576-17.425-4.522-24.247-2.524-.617-.292-1.301-.838-1.505-1.391-.294-.798.023-1.388.365-2.046a.348.348 0 0 0 .239.031c9.823-2.084 18.297-1.249 27.501 2.804-.128.047-.215.221-.088.323 1.471 1.175-.914 3.244-2.257 2.803z"/><path d="M36.574 32.69c-7.336-4.797-16.875-5.227-25.125-2.744a.285.285 0 0 0-.207.203c-1.135.269-1.143 1.878-.581 2.735.662 1.008 1.817 1.573 2.759.821 6.06-1.328 13.846.162 19.291 2.83.313.153.594-.025.698-.269.911.178 1.879.14 2.605-.518.558-.505.989-1.573.49-2.242.294-.127.426-.583.07-.816zm-1.331 2.571c-.52.43-1.213.544-1.881.551a.538.538 0 0 0-.149-.132c-5.309-3.137-14.371-4.533-20.235-2.507a.307.307 0 0 0-.181.154c-1.138-.094-2.365-2.053-1.067-2.692a.235.235 0 0 0 .113-.123c8.544-1.351 16.298-1.416 24.082 2.872a.303.303 0 0 0-.052.151c-.037.683-.049 1.246-.63 1.726zM32.904 46.73c-5.525-.616-11.096-.868-16.651-1.013-.056-.001-.056.084 0 .086 5.567.202 11.101.661 16.651 1.116.123.011.119-.176 0-.189zM40.714 42.087c-5.205.111-10.396.238-15.603.161-.075-.001-.074.114 0 .116 5.195.141 10.413.179 15.603-.108.107-.007.109-.172 0-.169zM44.721 37.696c-2.398.006-4.773.026-7.169-.125-.096-.006-.093.139 0 .148 2.37.218 4.792.334 7.169.165.12-.008.123-.188 0-.188zM45.992 35.405c-2.352.08-4.614.06-6.944-.33-.107-.018-.154.145-.045.165 2.296.41 4.666.609 6.99.336.106-.013.112-.175-.001-.171zM46.825 32.752c-2.129-.006-4.223-.049-6.337-.332-.091-.012-.114.148-.022.162 2.099.307 4.239.489 6.359.337.106-.008.109-.167 0-.167zM48.104 26.116c-1.808.077-3.483.082-5.271-.275-.102-.02-.146.131-.043.157 1.711.425 3.595.609 5.336.278.089-.017.069-.164-.022-.16z"/></g></svg>