<svg xmlns="http://www.w3.org/2000/svg" viewBox="0 0 49.722 49.722"><g fill="#b7b7b7"><path d="M45.679 3.963c-.098.01-.197.016-.295.026-.024-.976-.044-1.951-.084-2.926-.008-.191-.184-.297-.349-.298a.473.473 0 0 0-.484-.369C31.739.469 18.379-.757 5.722.773 5.593.37 4.93.422 4.895.913c-1.087 15.093-1.517 31.259.001 46.325a.435.435 0 0 0 .217.342c-.065.142-.042.315.139.403 5.014 2.434 11.689 1.576 17.11 1.655 7.6.11 15.178-.07 22.773-.313.805-.026.818-1.253.062-1.278-.254-4.299-.308-8.598-.272-12.896.185-.009.371-.011.556-.021.121-.006.123-.191 0-.19l-.554.007c.092-10.236.697-20.466.467-30.685.096-.01.192-.014.287-.024.172-.018.174-.293-.002-.275zm-7.58 10.047c1.773-.109 3.553-.213 5.325-.368-.029.652-.065 1.303-.086 1.957-4.212.159-8.404.274-12.622.134-.109-.004-.108.164 0 .169 4.199.18 8.421.21 12.616-.091-.032 1.054-.066 2.108-.077 3.165-1.718-.007-3.446.113-5.162.174-.099.004-.099.156 0 .154 1.715-.038 3.445-.017 5.158-.123-.009.915-.012 1.831-.007 2.748-1.857.057-3.716.174-5.569.284-.123.007-.124.197 0 .192 1.855-.079 3.717-.151 5.571-.284.005.79.011 1.58.024 2.371-4.159.261-8.328.659-12.493.624-.097-.001-.095.143 0 .15 4.095.28 8.37-.207 12.496-.536.02 1.1.047 2.199.08 3.299-1.824.065-3.638.13-5.467.064-.124-.004-.123.186 0 .192 1.819.087 3.655.116 5.474-.022.024.765.045 1.531.074 2.296-2.553.042-5.115.282-7.663.438-.087.005-.089.141 0 .137 2.551-.115 5.125-.148 7.669-.377a485.8 485.8 0 0 0 .181 4.206c-5.005.066-10.004.174-15.013.112-.087-.001-.087.133 0 .135 5 .123 10.022.181 15.024-.013.098 2.066.204 4.127.309 6.177-2.931-.113-5.879.007-8.8.242-.074.006-.075.12 0 .116 2.943-.175 5.869-.172 8.811-.133.063 1.235.126 2.468.186 3.695-2.616.084-26.933 1.04-26.913.414.001-.041-.065-.051-.073-.01l-.09.469c-.007.039.01.082.052.092 3.59.846 8.264-.088 11.952-.204 5.028-.158 10.056-.321 15.083-.504.041.845.081 1.688.118 2.528-6.344.359-12.71.465-19.063.413-6.362-.052-13.242.247-19.493-1.09a.488.488 0 0 0 .036-.165c.234-7.696-.322-15.456-.317-23.163.008-7.545.314-15.09.315-22.636 5.759.92 11.908.299 17.711.257 7.005-.051 14.007-.197 21.01-.245.055 0 .099-.017.145-.03a87.879 87.879 0 0 0-.383 2.669c-4.639.42-9.271.603-13.934.488-.098-.002-.098.148 0 .152 4.64.166 9.273.045 13.895-.365-.379 2.989-.614 6.009-.755 9.045-1.78.091-3.56.235-5.335.371-.146.012-.149.239 0 .23z"/><path d="M36.576 38.383c-.081-1.076-1.226-1.494-1.97-.887-3.523.149-7.46-.754-10.972-.85-2.597-.071-7.137-.924-9.406.527-.702.449-.861 1.671 0 2.08.171.081.338.171.535.166 3.212-.08 6.409-.172 9.626-.071 3.481.109 7.521 1.105 10.947.646.637-.085 1.323-.512 1.266-1.266l-.026-.345zM35.683 27.128c-3.543-1.2-7.728-1.006-11.436-1.024-2.921-.014-6.665-.448-9.379.785-1.308.595-.274 2.27.891 2.113 6.528-.88 13.212.834 19.655.115 1.111-.124 1.404-1.604.269-1.989zM36.17 18.132c-3.028-.945-7.036-.382-10.202-.457-3.514-.084-7.68-.846-10.992.454-.44.173-.695.9-.15 1.147 3.735 1.69 8.644 1.004 12.689 1.109 2.353.061 4.716.208 7.064.245.544.009 1.389.334 1.911-.05.914-.672.849-2.083-.32-2.448zM34.507 8.94c-4.171.491-8.067-.05-12.217-.367-2.715-.207-5.803-.524-8.023 1.274-.347.281-.13.854.253.961 3.03.844 6.663.295 9.821.642 3.529.389 7.007.791 10.503-.016 1.363-.316 1.103-2.664-.337-2.494zM43.156 43.359c-6.044.009-12.09.193-18.13.417-.072.003-.072.114 0 .112 6.043-.182 12.085-.243 18.13-.316.137-.002.138-.214 0-.213zM43.375 38.295c-1.906.155-3.783.362-5.7.366-.117 0-.117.181 0 .181 1.9.013 3.85-.03 5.723-.375.097-.018.076-.18-.023-.172zM42.952 33.099c-2.675.042-5.341.122-8.017.085-.089-.001-.088.134 0 .137 2.664.1 5.355.143 8.017-.028.124-.008.126-.196 0-.194zM43.157 11.022c-2.037-.042-4.077.006-6.114.02-.117.001-.117.181 0 .181 2.037.014 4.077.063 6.114.02.143-.003.143-.218 0-.221zM43.788 7.028c-2.536.174-5.041.457-7.588.486-.114.001-.114.177 0 .177 2.525-.007 5.119-.056 7.611-.496.094-.015.073-.173-.023-.167z"/></g></svg>