<svg xmlns="http://www.w3.org/2000/svg" viewBox="0 0 49.302 49.302"><path d="M46.834 22.817c-2.618-1.425-5.184-2.782-7.705-4.373 1.905-2.641 3.313-5.65 4.602-8.629.138-.319.065-.815-.361-.887-1.667-.284-3.22.107-4.864.414-2.094.391-4.198.77-6.274 1.251-.436-1.317-.975-2.604-1.524-3.875-.569-1.317-1.069-2.946-2.006-4.05-.151-.178-.414-.212-.627-.166-1.33.286-2.057 1.552-2.787 2.592C24 6.929 22.54 8.546 20.924 10.078c-1.753-.597-3.608-.961-5.417-1.335-.953-.197-3.103-1.067-4.014-.396-.833.614-.382 2.186-.336 3.002.101 1.804-.034 3.797.468 5.54-.323.065-.638.14-.933.243-.009.003-.014.009-.023.013-2.609.553-5.086 1.409-7.601 2.301-.936.332-2.912.696-3.062 1.983-.147 1.258 1.772 2.22 2.629 2.805a26.05 26.05 0 0 0 4.602 2.499c-.853.728-1.42 1.985-1.936 2.868-1.418 2.426-2.622 4.961-3.699 7.554-.212.511.378.861.798.797 3.528-.537 7.231-.889 10.686-1.822.148 2.358.469 4.71.918 7.028.186.961.194 3.456 1.584 3.65 1.321.185 2.787-2.244 3.5-3.006 1.93-2.061 3.979-4.064 5.745-6.268a.627.627 0 0 0 .136-.347 42.95 42.95 0 0 0 6.646 3.801c1.132.521 4.201 2.512 5.384 1.696 1.184-.816.379-4.102.338-5.274-.084-2.399.241-5.274-.768-7.518 2.756-.434 5.453-1.347 8.083-2.248.986-.338 4.302-.819 4.622-2.192.281-1.205-1.646-2.203-2.44-2.635zm-9.685-11.89c1.625-.329 3.465-.954 5.17-.902-.24.54-.502 1.067-.756 1.599-1.415-.102-2.888.038-4.302.065-.118.002-.118.181 0 .183 1.364.026 2.782.154 4.151.072-.166.345-.322.696-.492 1.04-1.836-.169-3.928-.041-5.756.199-.117.015-.123.177 0 .186 1.791.135 3.823.14 5.618-.108-.251.506-.5 1.013-.753 1.517-1.091-.045-2.215.041-3.293.063-.113.002-.113.174 0 .176 1.026.02 2.095.103 3.137.072-.243.485-.487.969-.728 1.455-1.103-.002-2.187.06-3.293-.046-.084-.008-.105.137-.02.149 1.036.146 2.13.258 3.183.162-.217.44-.437.879-.649 1.323-.908-.55-2.04-.782-3.026-1.147-1.503-.556-1.929-.583-2.399-2.795-.162-.762-.082-1.654-.129-2.433 1.452-.245 2.896-.538 4.337-.83zm-3.179 6.949c.694.33 1.492.463 2.17.819.916.48 1.056.161.428 1.166-.693 1.109-1.805 1.829-2.586 2.881-1.078-.537-2.552-1.121-2.886-2.153-.369-1.14.547-3.008 1.126-4.261.355.615.899 1.143 1.748 1.548zm-6.103 7.836c-.052.267-.091.536-.139.803-2.117-.106-4.266.018-6.384.042-.115.001-.116.178 0 .179 2.102.024 4.236.145 6.338.043-.066.382-.139.763-.198 1.146-.62-.102-1.327 0-1.942.015-.136.003-.136.208 0 .211.604.015 1.295.112 1.906.02-.103.677-.199 1.354-.29 2.033a48.293 48.293 0 0 1-3.381-1.77.575.575 0 0 0-.775.203c-.559.952-1.387 2.713-2.369 3.241-1.165.627-1.621-2.003-1.936-2.933a.354.354 0 0 0-.404-.245l-.011-.005c-.833-.163-2.961-.138-3.353-.728-.423-.637.581-2.118.901-2.912.078-.194-.055-.419-.212-.522-.586-.384-1.141-.807-1.724-1.194-.372-.247-.574-.358-.662-.427l.012-.03c.011-.037.01-.074.018-.111.117-.059.344-.15.642-.387.802-.638 2.108-.622 2.851-1.396.873-.909.73-2.555.641-3.888.092-.044.178-.093.261-.144 1.178.384 2.356.77 3.539 1.137.351.109.582-.148.616-.43a.307.307 0 0 0 .191-.111c.842-.993 1.633-2.018 2.485-2.999.33 1.214.771 2.802 1.657 3.117.45.16 1.103-.154 1.498-.265 1.095-.308 2.185-.635 3.275-.961-.203.602-.419 1.201-.632 1.8-2.611-.131-5.279.016-7.891.077-.133.003-.134.204 0 .207 2.569.06 5.193.2 7.763.08-.069.195-.135.39-.205.585-.023.064-.052.135-.083.211-1.637-.093-3.461.081-5.056.301-.131.018-.09.215.03.221 1.539.079 3.281.089 4.853-.114-.186.447-.365.96-.254 1.351-3.047-.028-6.101.126-9.15.088-.103-.001-.101.152 0 .158 3.085.184 6.244.354 9.336.125.388.556 1.215 1.039 2.064 1.453-4.028-.083-8.068.031-12.096.061-.127.001-.127.196 0 .197 4.15.031 8.315.154 12.464.056-1.241.29-2.48.583-3.725.858a.504.504 0 0 0-.404.391c-2.606.006-5.206.057-7.814-.034-.143-.005-.142.214 0 .222 2.596.142 5.215.247 7.817.141.083.287.348.53.721.44a335.21 335.21 0 0 1 4.54-1.047c-.003.036-.017.064-.014.104a11.938 11.938 0 0 0 1.342 4.762c-2.033.467-4.42.815-6.263 1.652.215-1.646.455-3.289.674-4.934.079-.602-.952-.742-1.068-.144zm-13.911 3.773c1.25.408 3.284.056 4.119-.021.25 1.044.53 2.274 1.074 3.24-1.691-.082-2.435 1.74-3.864 1.849-1.948.149-.987-3.4-1.329-5.068zM31.71 14.887c-1.224.348-2.717 1.08-3.964 1.16-1.426.091-1.753-1.049-2.166-2.236.098.003.198.019.295.013 1.788-.099 3.882-.922 5.63-1.764.034 1 .04 1.961.205 2.827zm-5.121-9.38c.428-.609.881-1.526 1.769-.926.201.136.491.811.731 1.416-.73-.02-1.481.098-2.179.241-.134.027-.076.226.056.203.766-.131 1.499-.119 2.254-.111.105.272.194.504.246.614.152.326.312.65.465.976-1.285-.112-2.574-.193-3.861-.279-.112-.008-.109.161 0 .172 1.329.134 2.66.276 3.992.382.243.513.481 1.027.732 1.536-1.601-.291-3.284-.377-4.897-.513-.08-.007-.1.13-.019.142 1.649.229 3.357.53 5.025.588.161.322.314.649.483.966-.024.031-.056.058-.073.092-.244.058-.485.129-.726.197-.016-.064-.059-.119-.147-.12-1.676-.001-3.405-.167-5.072-.085-.091.004-.115.138-.022.162 1.344.356 2.92.377 4.359.301-.938.292-1.871.599-2.838.779-1.898.354-3.274-.629-4.803-1.387 1.715-1.614 3.163-3.411 4.525-5.346zm-5.67 6.13c.854.68 1.887 1.384 2.972 1.806-.938 1.139-1.808 2.315-2.443 3.66-1.007-.325-2.019-.633-3.03-.944.343-.551.578-1.216.834-1.736a54.39 54.39 0 0 0 1.343-2.905.708.708 0 0 0 .324.119zM12.925 9.71c1.333-.069 3.073.588 4.412.797.83.129 1.659.263 2.492.357-.198.31-.372.634-.559.95-1.95-.514-4.358-.583-6.348-.301-.119.017-.081.194.027.2 2.041.126 4.102.303 6.142.405-.196.337-.406.666-.594 1.009-.046.083-.092.179-.137.27-1.171-.017-2.321 0-3.489-.153-.136-.018-.17.22-.033.242 1.11.176 2.258.289 3.383.187-.231.48-.478 1.011-.79 1.45-1.553-.03-3.107.056-4.664-.04-.121-.007-.118.175 0 .186 1.429.136 2.938.274 4.394.188a2.158 2.158 0 0 1-.28.255.484.484 0 0 0-.449.25c-1.12.516-2.525.596-3.852.771.18-1.172.046-2.354-.008-3.542-.034-.736-.07-1.473-.101-2.21a50.747 50.747 0 0 1-.042-1.105c-.126-.473.039-.528.496-.166zm1.477 8.131c.554-.121 1.296-.22 1.992-.394.027 1.445-.073 2.798-1.606 3.512-.441.205-1.079.372-1.642.622-.028-.083-.055-.167-.086-.25-.38-1.004-.856-1.994-1.302-2.987.89-.09 1.767-.311 2.644-.503zM5.23 24.469a24.462 24.462 0 0 1-1.708-1.083 23.5 23.5 0 0 1-1.493-1.119c-.602-.595-.558-.924.134-.988.489-.471 1.806-.635 2.454-.86.778-.27 1.558-.537 2.331-.82 1.176-.43 2.299-.939 3.415-1.485a.58.58 0 0 0 .44.26c.275.969.748 1.978.898 2.925-1.801-.41-3.763-.402-5.579-.251-.145.012-.149.235 0 .228 1.912-.079 3.728.151 5.612.343.015.198.019.394-.006.585-.014.107-.05.21-.08.314-1.248-.018-2.534.13-3.771.217-.121.009-.124.192 0 .19 1.206-.021 2.462.006 3.674-.108-.199.477-.534.93-.936 1.367-1.021.038-2.017.098-3.067-.051-.134-.019-.194.184-.057.207.868.146 1.829.26 2.757.225-.529.527-1.11 1.038-1.601 1.551-1.163-.502-2.316-1.012-3.417-1.647zm-1.948 12.04a64.38 64.38 0 0 1 2.275-4.848C6.249 30.345 6.948 28.608 8 27.43c.075.143.2.26.353.309.028.023.052.048.089.065 1.607.715 3.16 1.101 3.935 2.556a46.692 46.692 0 0 0-3.978.006c-.102.004-.101.15 0 .158 1.358.103 2.762.159 4.135.139.093.227.174.472.232.75.025.12.039.242.056.363-2.123.014-4.214.207-6.348.073-.114-.007-.112.167 0 .176 2.074.172 4.308.318 6.38-.027.058.569.047 1.152.051 1.733-1.262-.009-2.546.12-3.803.202-.116.007-.119.186 0 .183 1.259-.035 2.549-.025 3.805-.15.006.369.021.736.072 1.098-3.235.27-6.475.942-9.697 1.445zm9.663-8.243c-.988-.565-2.462-.851-3.527-1.111.765-.669 1.441-1.43 2.144-2.175.38-.403.892-.833 1.265-1.323.776.499 1.697.887 1.66 1.804-.036.927-1.498 1.813-1.542 2.805zm11.12 8.378c-2.119-.301-4.263-.472-6.391-.695-.163-.017-.158.233 0 .253 2.013.258 4.029.559 6.051.754-.431.412-.854.832-1.268 1.263-.021-.01-.035-.028-.062-.029a168.856 168.856 0 0 0-6.122-.131c-.17-.001-.169.255 0 .264 1.953.098 3.913.18 5.869.212-.583.616-1.153 1.244-1.726 1.869-1.255-.097-2.547-.043-3.792-.066-.127-.002-.126.192 0 .197 1.153.048 2.343.173 3.512.173l-.257.28-1.349 1.453c-.802-.005-1.597-.014-2.408-.128-.127-.018-.184.176-.054.197.715.113 1.46.199 2.2.213l-.124.134c-.456.491-1.398 1.98-2.024 2.18-.155.358-.262.436-.322.236a114.04 114.04 0 0 1-.366-1.639c-.181-.819-.356-1.64-.532-2.46-.354-1.659-.703-3.321-1.078-4.975 1.121.166 1.9-.397 2.852-1.079 2.44-1.748 4.79.061 7.194 1.196.021.07.06.139.134.193.043.032.088.06.132.092-.025.013-.047.03-.069.043zm-3.216-3.471c1.147-.798 2.119-2.297 2.844-3.486a45.455 45.455 0 0 0 3.461 1.824c-.992.99-1.536 2.7-2.093 3.94-1.372-.544-2.797-1.633-4.212-2.278zm14.504 8.057c-1.688-.102-3.998-1.705-5.507-2.455-1.409-.7-2.805-1.432-4.197-2.169a.728.728 0 0 0 .124-.552c1.081-1.791 1.719-3.716 3.848-4.264l6.015-1.55c.213.74.308 1.526.357 2.325-1.434-.186-2.883-.184-4.327-.091-.166.011-.168.267 0 .26 1.457-.055 2.895.034 4.344.14.019.431.03.863.031 1.295-2.219-.128-4.624-.143-6.825.097a.08.08 0 0 0 0 .158c2.2.24 4.605.226 6.824.097-.001.616-.007 1.226.009 1.813-.005-.001-.006-.005-.012-.005-1.734-.116-3.509.02-5.247.039-.097.001-.097.15 0 .151 1.738.019 3.514.155 5.247.039.007 0 .01-.006.017-.008.021.662.045 1.324.07 1.986-.935-.103-1.977.023-2.886.034-.19.002-.19.293 0 .295.914.011 1.961.138 2.898.032.01.289.025.579.031.868l.034.941c.239.954-.043 1.129-.848.524zm11.674-15.954c-.014-.043-.04-.081-.095-.091-2.371-.443-4.989-.624-7.396-.57-.096.002-.128.162-.024.176 2.364.324 4.842.581 7.228.686-.213.125-.475.25-.776.37-.014-.058-.053-.108-.135-.107-3.036.043-6.055.228-9.095.169-.159-.003-.158.239 0 .246 2.837.123 5.731.199 8.567-.065-1.427.485-3.21.893-3.824 1.106-1.815.63-3.656 1.215-5.4 2.022-.938-1.557-1.433-3.032-1.567-4.84a.641.641 0 0 0-.17-.389c.176-.088.268-.266.293-.453 1.339-1.175 3.314-2.487 4.054-4.05.883.781 1.839 1.447 2.84 2.057-1.176-.179-2.396-.169-3.565-.084-.157.011-.159.255 0 .246 1.475-.086 2.872.083 4.319.28.178.102.354.207.535.306.476.261 1.931.905 3.045 1.531-3.184-.718-6.586-.877-9.824-.916-.145-.002-.144.219 0 .225 3.488.151 6.883.709 10.341 1.102a.111.111 0 0 0 .101-.039c.517.337.845.644.749.849a.786.786 0 0 1-.201.233z" fill="#b7b7b7"/></svg>