<svg xmlns="http://www.w3.org/2000/svg" viewBox="0 0 49.298 49.298"><g fill="#b7b7b7"><path d="M24.316 5.654c-3.973-.445-7.355 2.273-9.13 5.835-3.457 6.936.637 15.586-2.889 22.141-3.262 1.289-2.822-6.318-3.106-8.248-.039-.263-.259-.354-.472-.318a.516.516 0 0 0-.364-.213c-2.351-.205-4.937.02-7.273.339-.479.066-.318.766.108.798 2.297.17 4.813.201 7.106-.122-.013.717.004 1.436.034 2.156-1.258-.02-2.516-.025-3.774-.03-.091 0-.091.139 0 .141 1.261.029 2.522.057 3.784.071.026.578.058 1.156.096 1.732-.871-.014-1.744.007-2.616.015-.079.001-.079.122 0 .122.874.009 1.75.029 2.625.015.009.141.015.283.025.423.025.369.058.746.111 1.121-.708-.02-1.421.008-2.128.016-.064.001-.064.098 0 .099.713.008 1.433.037 2.146.016.119.766.341 1.512.825 2.13.891 1.14 3.173 1.749 3.928.168a.493.493 0 0 0 .043-.258c2.054-3.346 1.289-7.401 1.205-11.229-.162-7.404 1.708-15.562 10.57-16.029 2.404.365 4.665.716 6.327 2.669-1.53-.073-3.089-.004-4.602.132-.106.01-.11.172 0 .169 1.601-.054 3.198-.038 4.798-.05.101.131.208.244.305.389.868 1.305 1.444 2.76 1.819 4.271-.978-.096-2.004.126-2.921.446-.066.023-.039.127.029.106.971-.309 1.921-.37 2.929-.412.168.7.305 1.407.384 2.124-1.198.235-2.318.315-3.526.087-.096-.018-.138.127-.041.148 1.178.255 2.421.288 3.588-.046.076.763.106 1.53.092 2.291-1.01.625-1.722 1.533-2.954 1.796-1.401.299-2.813-.356-3.707-1.428.448-1.449.346-3.308-.438-4.624-.472-.792-1.56-1.787-2.53-1.315-.036.017-.059.056-.073.097-1.584.342-2.46 1.452-2.963 2.834a78.223 78.223 0 0 0-2.373.02c-.075.001-.075.115 0 .116.769.015 1.54.028 2.31.021-.293.867-.446 1.832-.533 2.781-.52-.026-1.051 0-1.566.005-.113.001-.113.174 0 .175.51.005 1.035.03 1.55.005a40.064 40.064 0 0 0-.104 1.941c-.007.189-.005.395-.01.589-.702-.055-1.422.048-2.096.227-.101.027-.058.182.043.157.692-.17 1.359-.195 2.049-.184-.02 1.029-.019 2.1-.012 3.21-.614-.004-1.229.007-1.842.017-.083.001-.083.127 0 .129.614.01 1.229.02 1.843.017.005.82.01 1.649.001 2.486-.76.112-1.518.248-2.274.38-.085.015-.048.14.035.128.746-.105 1.494-.207 2.238-.33a47.648 47.648 0 0 1-.124 3.149c-.783.059-1.566.131-2.348.203-.079.007-.08.13 0 .124.778-.055 1.557-.109 2.334-.177a25.377 25.377 0 0 1-.365 2.766c-1.28.277-2.555.511-3.87.621-.068.006-.07.112 0 .108 1.289-.078 2.582-.245 3.838-.556-.211 1.021-.496 2-.89 2.911-1.444.43-2.901.56-4.417.332-.087-.013-.126.118-.037.134a9.217 9.217 0 0 0 4.353-.235 9.95 9.95 0 0 1-1.318 2.163c-.017-.021-.041-.038-.075-.032-1.685.295-3.323.507-5.038.447-.074-.003-.073.11 0 .114 1.667.098 3.379.025 5.003-.394-.945 1.114-2.182 2.025-3.81 2.647-.073-.093-.185-.153-.351-.134-4.107.47-8.293-.227-10.699-4.006C.724 34.52 1.719 30.34 1.179 26.197c-.037-.283-.437-.386-.528-.072-1.238 4.257-.795 10.079 2.07 13.65 2.49 3.103 7.16 4.869 11 3.533 3.651-.646 6.181-3.075 7.466-6.707.965-2.726 1.088-5.655 1.016-8.518-.075-3.007-1.716-13.26 2.887-14.046.455.451.965.825 1.262 1.473.552 1.206.263 2.554.461 3.82.028.18.152.255.29.285 1.106 3.127 6.405 3.274 7.679.201.239.004.491-.147.516-.455.565-7.119-2.91-14.866-10.982-13.707z"/><path d="M48.339 25.52a.402.402 0 0 0-.191-.111c-2.368-.547-5.195-.14-7.568.252a.33.33 0 0 0-.26.196c-.169.021-.337.145-.35.339-.091 1.349-.091 2.702-.159 4.053-.036.713.111 3.736-.876 4.246-.077.023-.154.046-.233.068a.704.704 0 0 1-.195.002c-.107-.017-.198.038-.27.11-.751.154-1.515.146-2.134-.458-.778-.76-.8-2.083-.768-3.076.058-1.813.305-3.622.18-5.437-.003-.047-.03-.079-.052-.114-.054-.237-.297-.415-.543-.264-.987.603-1.734 1.216-2.976 1.231-.935.011-3.621-.405-4.009-1.474-.192-.527-.959-.324-.844.233.004.022.018.04.024.062-.166-.01-.333.09-.345.319-.415 7.639.454 17.393 10.043 17.875 3.575.18 7.756-1.127 9.892-4.165 2.506-3.563 2.314-9.47 2.594-13.57.032-.51-.72-.682-.96-.317zm-.271 1.844c-.011-.012-.02-.026-.04-.032-1.574-.483-3.263-.522-4.887-.326-.103.012-.106.175 0 .165 1.654-.167 3.214.018 4.836.345.03.006.055 0 .074-.013-.074.688-.141 1.378-.205 2.07-1.152.137-2.279.198-3.442.127-.108-.007-.105.156 0 .167 1.134.118 2.291.104 3.42-.069a65.06 65.06 0 0 1-.319 2.911c-1.036.149-2.051.243-3.103.185-.087-.005-.086.129 0 .135 1.027.074 2.068.045 3.081-.153-.11.764-.244 1.52-.422 2.263-.011.046-.028.087-.04.133-1.423.316-2.841.533-4.306.554-.114.002-.114.178 0 .177 1.429-.005 2.856-.156 4.24-.513-.408 1.485-1.072 2.744-1.954 3.757-3.64.369-7.273.7-10.931.833-.058.002-.059.092 0 .091 3.607-.078 7.208-.284 10.786-.756-1.8 1.962-4.423 2.973-7.479 2.951-9.292-.07-9.176-9.295-9.892-16.242.834 1.087 2.697 1.513 3.892 1.653 1.064.124 2.473-.053 3.343-.779-.194 1.206-.296 2.436-.387 3.644-.085 1.136-.126 2.387.383 3.442.814 1.688 3.209 2.536 4.671 1.187 2.152-.522 1.591-6.833 1.329-8.788 2.392.048 5.078.293 7.43-.156.016-.003.027-.012.042-.017-.045.348-.081.702-.12 1.054zM33.863 18.58c-1.611-.017-3.241.134-4.848.239-.083.005-.085.133 0 .131 1.61-.045 3.246-.048 4.848-.214.098-.01.103-.155 0-.156zM32.617 11.378c-.701-.118-1.419-.157-2.125-.226-.086-.008-.083.123 0 .133.699.083 1.403.198 2.107.232.077.003.097-.126.018-.139z"/><path d="M45.875 37.688c-2.879.099-5.755.337-8.635.451-.063.002-.064.1 0 .099 2.874-.057 5.775-.108 8.635-.412.086-.01.09-.141 0-.138z"/></g></svg>