<svg xmlns="http://www.w3.org/2000/svg" viewBox="0 0 47.63 47.63"><g fill="#1d1d1b"><path d="M22.747.706c-9.245 1.271-5.502 16.217 1.236 14.215a.48.48 0 0 0 .17.033c9.014.025 7.858-15.522-1.406-14.248zm-.519 10.864c-.105.014-.112.164 0 .169a23.73 23.73 0 0 0 6.153-.585c-.96 1.401-2.521 2.351-4.36 2.826a.49.49 0 0 0-.161.076c-2.84-.422-4.88-1.897-5.596-4.97-.791-3.396 1.062-6.876 4.701-7.295 1.768-.204 3.404.46 4.589 1.61-1.246-.103-2.511-.128-3.751-.174-.186-.007-.179.267 0 .285 1.38.137 2.788.299 4.182.349.327.392.617.819.838 1.287-1.693-.233-3.491-.119-5.197-.153-.213-.004-.212.321 0 .33 1.72.077 3.531.323 5.247.185.033-.003.058-.023.083-.041.254.63.411 1.309.436 2.019.044 1.239-.229 2.311-.734 3.219-2.143.277-4.287.582-6.43.863z"/><path d="M47.537 14.436c-.206-1.268-.768-2.553-1.796-3.832-2.199-2.736-5.252-3.115-8.271-1.687-4.901 2.318-9.687 6.188-13.591 9.908-.005.005-.006.01-.01.014-5.005-3.976-16.423-14.403-22.247-6.843-5.805 7.535 5.396 13.739 11.171 16.267-.562 5.834-.966 12.332-.276 18.159.044.373.345.522.607.464.103.109.26.161.408.056 2.647-1.883 7.151-6.567 10.4-5.189 3.133 1.329 5.642 3.926 8.902 5.129.476.176.655-.495.317-.752-3.211-2.442-6.971-4.237-10.336-6.488a.552.552 0 0 0-.566 0c-3.061 1.911-5.997 3.963-8.686 6.364.654-5.683.45-11.877.189-17.584.053-.086.038-.195-.036-.292a.436.436 0 0 0-.421-.331c-2.104-1.511-4.356-2.76-6.501-4.207-1.557-1.051-3.868-2.516-4.604-4.329-1.588-3.913.128-7.641 4.383-8.226 5.797-.798 12.482 5.512 16.93 8.902.272.207.59.035.743-.221a.548.548 0 0 0 .395-.13c3.024-2.483 13.82-13.13 18.504-9.7 1.074.786 1.855 1.577 2.403 2.369-2.212-.125-4.459.024-6.67.125-1.31.06-3.359-.213-4.537.4-.076.04-.099.146-.057.217l.054.093c.032.054.112.096.176.071l.079-.031c.18-.069.11-.356-.081-.295.611-.194 1.933.081 2.67.055.989-.035 1.979-.068 2.968-.091 1.836-.041 3.685.019 5.516-.102a.211.211 0 0 0 .128-.06c.361.605.592 1.209.704 1.809-3.195.169-6.392.428-9.578.699-.169.014-.174.274 0 .267 3.217-.132 6.443-.276 9.656-.513a5.178 5.178 0 0 1-.106 1.598l-.008-.001c-.124-.008-.246.116-.239.239l.004.065c.004.078.055.134.115.173-1.531.177-8.858.257-9.448.297-3.136.211-6.273.424-9.407.658-.167.012-.171.271 0 .264 3.86-.176 7.719-.383 11.578-.59 1.818-.097 5.383.379 7.209-.41-.407 1.172-1.159 2.315-2.122 3.408-4.762-.462-9.629-.37-14.401-.161-.157.007-.159.248 0 .246 4.699-.068 9.364.172 14.054.297a23.852 23.852 0 0 1-1.681 1.627c-6.19-.383-12.487-.118-18.667.337-.121.009-.123.195 0 .19 6.088-.232 12.147-.141 18.232-.152a48.577 48.577 0 0 1-3.288 2.523c-5.637-.632-11.386-.686-17.046-.491-.119.004-.12.186 0 .186 5.511.029 10.966.374 16.455.72-1.268.884-2.461 1.672-3.401 2.335-3.285-.19-6.623-.042-9.906.047-.149.004-.15.233 0 .232 3.149-.017 6.307.139 9.455.119a.493.493 0 0 0-.061.249v.001c.001.033-.002.066.005.097.045.673.075 1.343.098 2.012-1.517-.681-3.182-.346-4.872-.238a79.04 79.04 0 0 1-8.829.045c-.148-.007-.146.218 0 .229 2.249.158 4.497.244 6.752.204 2.187-.039 4.873-.617 6.965.29.017.614.03 1.227.036 1.839-2.44-.249-5.007-.004-7.447.166-.179.012-.182.29 0 .281 2.478-.125 4.977.026 7.447-.123.004.776.013 1.553-.003 2.327-3.849-.44-7.786-.483-11.644-.542-.17-.003-.169.258 0 .264 3.883.134 7.754.521 11.631.701a96.53 96.53 0 0 1-.057 1.786c-3.025-.236-6.115-.062-9.104-.336.106.01.125-.157.025-.183l-.152-.04c-.042-.011-.1.007-.12.049l-.085.177c-.022.046-.024.11.019.146.706.609 2.356.301 3.183.335 2.067.083 4.152.243 6.221.215a109.451 109.451 0 0 1-.267 4.151c-1.024-.005-2.049.009-3.072.03-.177.004-.177.271 0 .274 1.013.021 2.028.035 3.042.03-.097 1.104-.206 2.21-.332 3.321-.056.495.742.587.86.116 1.423-5.672 1.575-11.526.814-17.309 5.196-2.337 13.299-8.156 12.576-14.462.073-.103.053-.253-.05-.323z"/><path d="M33.595 40.478c-1.865-.07-3.734.044-5.602-.046-.177-.008-.174.261 0 .274 1.84.137 3.764.292 5.602.085.196-.022.206-.305 0-.313zM28.875 8.645c-2.802.279-5.586.458-8.398.591-.138.007-.138.209 0 .214 2.788.102 5.632-.058 8.398-.423.239-.031.249-.407 0-.382zM28.876 6.836c-2.844-.111-5.725.07-8.573.074-.193 0-.192.293 0 .299 2.832.08 5.748.24 8.573.014.246-.02.252-.377 0-.387z"/></g></svg>