<svg xmlns="http://www.w3.org/2000/svg" viewBox="0 0 47.902 47.902"><g fill="#1d1d1b"><path d="M24.202 6.882c-1.398-.632-3.093.295-3.543 1.832-.561 1.917.758 3.831 2.668 4.197 1.811.347 3.777-.779 4.008-2.693.199-1.651-1.322-3.719-3.133-3.336zm1.988 3.182c-.021.106-.06.201-.095.299-1.012-.246-2.116-.21-3.144-.115-.16.015-.164.265 0 .253 1.032-.074 2.017.039 3.038.113-.475.922-1.574 1.369-2.616 1.072-1.125-.321-1.818-1.492-1.466-2.627.324-1.047 1.544-1.498 2.571-1.427.739.29 1.395.68 1.647 1.346-.856-.212-1.8-.271-2.65-.318-.155-.009-.151.226 0 .239.932.083 1.827.302 2.74.451a2.16 2.16 0 0 1-.025.714z"/><path d="M42.423 7.308c-.197-.427-.688-.732-1.031-1.039l-1.539-1.378c-.14-.125-.296-.13-.419-.069a.548.548 0 0 0-.669.048c-3.244 2.808-6.503 5.602-9.841 8.298-2.326 1.879-3.709 3.822-7.141 2.737-2.264-.716-4.512-3.399-6.253-5.028-.257-.24-.6.118-.38.38 1.996 2.385 5.956 7.359 9.659 6.282 1.99-.579 4.068-3.014 5.54-4.243 3.052-2.549 6.122-5.077 9.176-7.623l1.13 1.334c.228.269.445.612.718.854-.583.486-1.176.963-1.764 1.446-.016-.005-.024-.017-.044-.017-1.047-.003-2.104.137-3.147.222-.187.015-.192.304 0 .295.917-.042 1.848-.058 2.764-.15-.701.574-1.395 1.154-2.101 1.723a.15.15 0 0 0-.138-.125c-.792-.088-1.654-.022-2.449.025-.167.01-.168.25 0 .26.761.045 1.584.104 2.348.031-.744.598-1.486 1.2-2.239 1.786-.774-.098-1.606-.01-2.382.001-.194.003-.195.3 0 .302.627.009 1.291.069 1.931.04-.615.474-1.23.948-1.853 1.411-.839-.007-1.657-.016-2.489-.164-.181-.032-.26.242-.077.278.695.138 1.412.228 2.123.205-.816.601-1.633 1.2-2.465 1.777-.919-.035-1.855.032-2.767.048-.129.002-.129.198 0 .2.766.014 1.549.065 2.324.061-.33.226-.651.466-.984.688-5.711 3.79-10.988-.721-15.431-4.348a.399.399 0 0 0 .213-.254c.389-.234.761-.504 1.117-.776.451-.344 1.056-.701 1.18-1.292.113-.536-.31-.89-.817-.817-.54.077-.956.63-1.35.973-.417.363-.876.678-1.286 1.046-.22.198-.255.576-.106.824l.059.098c.009.016.026.028.037.043.012.033.009.065.036.097 2.84 3.28 8.518 8.651 13.326 7.273 3.152-.903 6.234-4.029 8.802-5.914 3.059-2.246 5.996-4.616 8.875-7.089.313-.27.111-.65-.196-.76zM36.04 34.879c-3.216-2.958-7.908-9.307-13.1-8.204-2.622.557-4.741 2.822-6.665 4.495-3.275 2.85-6.689 5.608-9.737 8.704-.388-.07-.825.255-.649.647-.209.247.073.668.365.506.522.68 1.08 1.357 1.689 1.943.406.39.91.16 1.081-.226a.283.283 0 0 0 .306-.019c5.005-3.592 9.539-8.858 15.445-10.833 3.312 1.248 5.27 3.943 8.184 5.881.173.115.33.085.442-.011a.542.542 0 0 0 .906.004c.281-.397.5-.827.81-1.207.261-.321.559-.545.68-.904.324-.082.56-.484.243-.776zm-1.456.164l-.004-.005c-.815-.375-1.684-.446-2.565-.293-.156.028-.086.255.065.235.797-.107 1.557.022 2.307.289-.15.205-.277.437-.394.636-.211.358-.423.753-.561 1.157-2.096-2.692-5.759-6.097-9.373-6.027-.112.002-.18.067-.227.145-.841.158-1.62.477-2.36.884-1.064-.087-2.216.014-3.245.071-.113.006-.113.17 0 .176.838.046 1.758.122 2.645.105-.851.535-1.654 1.173-2.442 1.813-.71.036-1.42.126-2.127.196-.095.009-.098.159 0 .151.628-.048 1.26-.086 1.888-.153-1.476 1.202-2.954 2.405-4.421 3.621-.683-.037-1.378.047-2.045.166-.092.017-.052.153.038.139.59-.088 1.168-.098 1.752-.095a206.928 206.928 0 0 0-4.543 3.87c-.023-.039-.035-.078-.067-.115-.511-.592-1.111-1.149-1.714-1.67 3.713-2.793 7.059-6.057 10.619-9.04 3.178-2.663 6.392-4.162 9.883-2.212a6.883 6.883 0 0 0-2.503.027c-.112.022-.063.186.047.169 1.119-.173 2.155-.025 3.206.274.104.072.208.135.312.214.436.328.86.674 1.283 1.023-2.908-.452-5.91-.5-8.837-.414-.115.003-.116.178 0 .179 3.105.022 6.156.337 9.244.57.519.439 1.024.897 1.531 1.352-.73-.108-1.473-.165-2.201-.251-.162-.019-.201.263-.039.287.892.129 1.796.303 2.698.369.755.685 1.506 1.375 2.259 2.054-.041.029-.074.069-.109.103zM19.191 23.03a.278.278 0 0 0-.199-.137c-.798-2.317-3.167-3.787-5.063-5.314-3.386-2.726-6.519-5.871-10.055-8.392-.294-.21-.609.046-.655.339-.052-.018-.1-.045-.16-.044-.639.008-1.009.401-1.453.815-.419.391-.829.772-1.163 1.24-.056.078-.07.162-.056.239-.358.173-.566.637-.178.954 4.633 3.779 9.311 7.39 13.26 11.876.017.404-.046.803-.282 1.228-.483.869-1.431 1.481-2.186 2.071-1.173.916-2.281 1.9-3.222 3.057-.013.017-.02.035-.029.054-.195.179-.282.474-.035.75.394.44.816.844 1.244 1.25.395.376.753.891 1.357.719-.123.124-.248.248-.364.373-.096.104-.003.311.149.256 2.724-.991 5.057-3.35 6.941-5.48 1.346-1.523 3.354-3.755 2.149-5.854zm-1.039 2.215c-.733.017-1.436.024-2.171-.114-.165-.031-.237.216-.07.254.688.157 1.417.245 2.127.186a8.948 8.948 0 0 1-1.017 1.772c-.948-.021-1.874.024-2.827-.071-.129-.013-.159.203-.031.228.822.161 1.747.259 2.605.171a16.403 16.403 0 0 1-1.476 1.627c-.013-.006-.024-.017-.04-.018-.981-.042-1.994.124-2.972.205-.142.012-.146.232 0 .225.906-.044 1.847-.032 2.749-.159-1.437 1.353-3.064 2.582-4.395 3.867.023-.06.056-.114.064-.182.077-.596-.579-.919-.977-1.245a42.04 42.04 0 0 0-.979-.774c-.013-.028-.042-.043-.072-.058l-.038-.03c1.79-1.162 4.011-2.569 5.25-4.219.809-1.077 1.344-3.118-.125-3.893a.316.316 0 0 0-.32.011c-1.009-1.524-2.338-2.813-3.741-4.039-2.78-2.43-5.697-4.717-8.542-7.072.378-.247.742-.513 1.138-.731.481-.264.939-.403 1.226-.903.033-.057.036-.118.045-.178.72.699 1.475 1.366 2.245 2.018a10.245 10.245 0 0 0-1.4.034c-.167.015-.171.275 0 .264a10.97 10.97 0 0 1 1.832.058c.568.473 1.137.944 1.714 1.408-.6.005-1.201.026-1.798.038-.138.003-.138.212 0 .214.715.014 1.437.045 2.155.036.826.663 1.653 1.325 2.463 1.998-.664-.021-1.331.001-1.995.009-.158.002-.159.244 0 .246.757.01 1.518.046 2.274.005.011-.001.015-.009.024-.011.123.103.251.203.373.307.561.479 1.225.989 1.914 1.523a8.245 8.245 0 0 0-1.638.228c-.128.03-.074.223.054.197.652-.136 1.279-.16 1.926-.157.747.582 1.516 1.194 2.228 1.842a7.027 7.027 0 0 0-2.114.195c-.116.028-.065.196.049.176.795-.14 1.553-.137 2.351-.095.767.726 1.459 1.491 1.95 2.304-.836-.241-1.776-.148-2.598.079-.137.038-.08.247.059.214.937-.224 1.773-.121 2.706-.005.075.139.148.279.211.421a6.706 6.706 0 0 1-.396 1.594zM42.615 30.683c-1.721-1.317-6.333-3.74-7.503-6.358l.038.006c.175.03.253-.223.075-.271-.073-.02-.148-.026-.221-.042a2.795 2.795 0 0 1-.165-.809c.496-1.142 1.458-1.966 2.372-2.797 1.098-.999 2.224-1.97 3.276-3.017.367-.065.585-.49.39-.823-.407-.692-1.481-1.011-2.179-1.354-.26-.128-1.316-.785-1.476-.155-.006.023-.001.044-.004.067-1.879 1.611-3.836 3.037-5.858 4.464-1.044.737-1.875 1.576-2.174 2.723-1.395 2.654 1.61 4.852 3.484 6.481 3.86 3.355 7.607 7.108 11.881 9.932.139.092.269.026.336-.085l.004-.002c.493-.362.948-.787 1.403-1.196.444-.398 1.12-.766 1.273-1.361.006-.025.005-.049.008-.074.073.02.141.049.217.064.067.014.138-.058.095-.124-1.349-2.061-3.331-3.783-5.272-5.269zm3.511 5.165c-.9-.07-1.815-.068-2.71-.108-.152-.007-.15.225 0 .236.815.056 1.644.15 2.468.191-.12.171-.236.347-.361.507-.331.425-.672.855-.973 1.305-2.236-2.452-4.87-4.566-7.369-6.74-2.101-1.827-7.754-5.348-7.227-8.59.753-1.649 2.653-2.5 4.101-3.511a35.14 35.14 0 0 0 3.842-3.097c.158.1.313.189.43.269.297.204.622.474.966.697-.224.187-.438.391-.66.583a45.465 45.465 0 0 0-1.828-.368c-.153-.028-.222.199-.065.237.541.132 1.083.253 1.628.366-.427.374-.859.739-1.275 1.126-.807-.016-1.62.042-2.422.068-.111.004-.111.169 0 .172.697.023 1.403.067 2.105.069-.364.348-.737.691-1.079 1.051a6.828 6.828 0 0 0-.834 1.098c-.764-.006-1.53.013-2.291.024-.156.002-.156.24 0 .243.707.01 1.417.027 2.126.026-.071.13-.158.252-.219.387a.431.431 0 0 0-.303.171c-.403.535-.541 1.077-.498 1.611a7.924 7.924 0 0 0-1.662.191c-.145.032-.083.248.061.22a7.152 7.152 0 0 1 1.654-.109c.155.753.639 1.486 1.255 2.153-.573.013-1.147.039-1.715.045-.104.001-.104.161 0 .162.647.007 1.302.038 1.955.048.543.548 1.15 1.048 1.692 1.47-.82.008-1.648.114-2.444.247-.079.013-.061.152.019.142.931-.125 1.842-.125 2.767-.124l.437.335c.511.394 1.037.768 1.562 1.143-.481-.014-.964.009-1.44.058-.146.015-.15.245 0 .232a10.72 10.72 0 0 1 1.854.013c.677.479 1.357.954 2.027 1.442a9.338 9.338 0 0 1-1.056-.116c-.132-.024-.19.177-.056.204.493.098 1.001.171 1.509.202.63.469 1.251.951 1.842 1.472.125.111.247.229.37.345-.824.004-1.652.04-2.469.05-.133.002-.134.206 0 .208.925.011 1.865.059 2.797.051.583.564 1.16 1.139 1.827 1.561a1.83 1.83 0 0 0-.338.332z"/><path d="M13.154 30.695c-.928.027-1.876.108-2.797.228-.117.015-.126.191 0 .19a28.124 28.124 0 0 0 2.797-.172c.153-.017.162-.25 0-.246zM26.622 18.618c-2.151-.154-4.321-.102-6.477-.236-.116-.007-.113.169 0 .179 2.132.204 4.334.452 6.477.345.186-.009.185-.275 0-.288zM41.027 7.653c-1.039-.219-2.16-.161-3.209-.058-.197.019-.204.324 0 .313 1.068-.058 2.095.068 3.156.132.22.013.27-.341.053-.387zM15.775 36.148c-.589.053-1.176.15-1.762.229-.074.01-.057.14.018.131.588-.066 1.18-.116 1.765-.208.085-.014.066-.16-.021-.152zM12.1 39.313c-.416.018-.829.114-1.238.183-.081.014-.046.133.034.122.405-.058.824-.093 1.219-.202.056-.015.046-.105-.015-.103z"/></g></svg>