<svg xmlns="http://www.w3.org/2000/svg" viewBox="0 0 49.102 49.102"><g fill="#b7b7b7"><path d="M38.16 42.016c-.037-.736-.167-1.504-.413-2.161a.39.39 0 0 0-.244-.234c-.036-.177-.167-.318-.403-.291-2.064.236-4.355.678-6.248-.492-2.676-1.653-2.302-4.643-2.357-7.224-.073-3.42-.091-6.856.08-10.274 2.092.353 4.633.79 6.761.449.521.04 1.048.075 1.57.046a.544.544 0 0 0 .295-.105.583.583 0 0 0 .529-.611c.012-2.539.091-5.139-.113-7.67-.032-.394-.547-.596-.804-.38-1.275-.422-2.742-.323-4.072-.365-1.351-.043-2.789-.255-4.113.052.01-.043.026-.082.026-.132-.016-3.717.23-7.496.036-11.209a.57.57 0 0 0-.103-.654l-.012-.015a.501.501 0 0 0-.198-.114c-2.616-.788-5.742-.765-8.418-.335-.223.036-.305.212-.286.389a.627.627 0 0 0-.08.237c-.718 5.489-2.722 10.592-8.338 12.589-.152.054-.224.165-.233.281-.022.014-.044.027-.06.052-.661 1.002-.609 2.386-.635 3.556-.027 1.204-.021 2.485.271 3.668-.087.207-.02.379.133.512a.409.409 0 0 0 .508.252c.031.009.06.019.092.026.714.164 1.474.181 2.201.231.756.051 1.534.142 2.296.114-1.297 6.636-1.364 17.189 2.888 22.706 4.741 6.152 13.115 4.329 19.344 2.08a.525.525 0 0 0 .156-.095c.266.043.58-.125.571-.452-.039-1.358-.177-2.987-.627-4.427zm-20.355-1.438c-1.851-6.01-1.306-12.345-1.282-18.522.3-.25.34-.785-.148-.886-.864-.179-1.757-.16-2.636-.189-.37-.012-1.513-.18-2.184-.097.01-1.155-.147-2.326-.149-3.482-.002-1.065.218-2.216-.045-3.249.024 0 .045.005.07.001 6.17-.955 8.791-7.461 9.289-13.016 2.404.151 4.815.416 7.212.523-.018.106-.031.214-.047.32-1.484-.014-2.961-.065-4.44-.217-.103-.011-.101.149 0 .16 1.466.166 2.938.251 4.413.236a32.7 32.7 0 0 0-.228 1.864c-2.231-.14-4.48-.094-6.715-.189-.126-.005-.126.189 0 .196 2.219.12 4.478.292 6.7.187a48.94 48.94 0 0 0-.147 5.362c-1.356-.098-2.705-.026-4.054.164-.085.012-.066.162.02.151 1.345-.167 2.687-.193 4.038-.151.02.8.052 1.597.09 2.383a101.924 101.924 0 0 0-3.91.018c-.06.001-.06.092 0 .093 1.304.025 2.612.043 3.916.018l.017.366c.024.454.487.602.795.45a.25.25 0 0 0 .136.147c1.307.514 2.833.464 4.222.596 1.258.119 2.599.371 3.858.175a28.017 28.017 0 0 0-.148 1.671c-2.982-.375-6.001-.444-9.002-.378-.087.002-.087.136 0 .135 3.011-.027 5.99.174 8.987.416a38.052 38.052 0 0 0-.063 1.999c-2.878-.467-5.815-.499-8.718-.297-.078.005-.079.127 0 .122 2.935-.172 5.805.014 8.718.319-.003.924.015 1.847.057 2.758h-.065c-.046-.042-.087-.089-.159-.106-1.207-.292-2.515-.147-3.755-.161-1.406-.015-2.811-.042-4.217-.068-.196-.004-.329.126-.391.285a.42.42 0 0 0-.107.251 390.011 390.011 0 0 0-.239 3.861c-1.711.213-3.373.23-5.084-.059-.091-.015-.131.124-.039.14 1.696.304 3.409.361 5.113.094-.108 1.972-.186 3.945-.173 5.927.005.81-.024 1.732 0 2.669-1.008.08-2.008.114-3.028.041-.087-.006-.086.128 0 .135 1.009.082 2.029.095 3.037-.006.027.827.095 1.661.281 2.434-1.171.154-2.338.235-3.531.189-.094-.004-.093.141 0 .146 1.199.058 2.397.019 3.578-.164.115.434.258.852.461 1.231.273.509.607.943.981 1.32-1.678.028-3.346-.018-5.018-.207-.073-.008-.071.105 0 .114 1.718.22 3.443.319 5.172.253 1.931 1.803 4.928 2.035 7.474 1.291-.002.554.09 1.102.203 1.647-3.222-.263-6.459-.392-9.687-.575-.073-.004-.073.109 0 .114 3.231.224 6.464.503 9.7.646.011 0 .016-.007.024-.009.074.344.151.687.219 1.029.048.243.099.486.147.73-4.14.042-8.273.013-12.411-.173-.078-.003-.077.116 0 .12 4.146.23 8.3.341 12.452.257.124.622.247 1.245.377 1.866-7.167 2.581-17.108 3.766-19.937-5.419z"/><path d="M37.147 45.81c-3.866.103-7.732.059-11.595-.137-.045-.002-.044.066 0 .07 3.864.279 7.721.369 11.595.264.126-.004.126-.2 0-.197zM27.238 30.878c-1.263-.047-2.531-.01-3.795-.003-.106.001-.106.164 0 .164 1.264.007 2.532.044 3.795-.003.102-.003.102-.154 0-.158zM27.027 27.491c-2.305-.102-4.652-.07-6.958.016-.099.004-.099.15 0 .154 2.305.086 4.653.118 6.958.016.12-.005.12-.18 0-.186zM27.027 22.222c-1.615-.023-3.235 0-4.849.033-.076.002-.076.117 0 .118 1.615.033 3.235.055 4.849.033.118-.003.119-.183 0-.184zM36.295 19.845c-4.338-1.035-8.827-1.311-13.273-1.159-.069.002-.069.109 0 .108 4.485-.083 8.817.431 13.229 1.214.105.018.151-.138.044-.163zM27.027 6.625c-1.294-.148-2.581.032-3.822.41-.123.037-.071.23.053.193 1.24-.366 2.482-.464 3.769-.426.117.004.111-.164 0-.177z"/></g></svg>