<svg xmlns="http://www.w3.org/2000/svg" viewBox="0 0 49.689 49.689"><g fill="#1d1d1b"><path d="M42.942 23.771c-.225-.573-.659-1.083-1.026-1.562a14.019 14.019 0 0 0-1.372-1.517c.639-.584.859-1.744.876-2.531.025-1.174-.4-2.368-1.246-3.193-1.518-1.48-3.923-1.475-5.519-.21-3.2-1.607-7.101-2.595-10.722-2.169.337-2.517-2.024-4.939-4.538-4.881-2.381.055-4.389 2.276-4.202 4.604-.928.177-1.854.804-2.649 1.215a30.32 30.32 0 0 0-3.185 1.91c-1.298-1.567-2.969-2.729-5.096-2.086-1.686.51-3.487 1.715-4.062 3.457-.564 1.708.1 4.334 1.438 5.551 1.593 1.45 3.836 1.19 5.721.553 1.142 3.078 3.843 6.059 6.294 8.066-1.601 4.24-.389 9.279 4.482 10.64 4.779 1.335 10.669-1.048 11.564-6.257 3.413-1.15 6.757-2.663 10.093-4.029 1.45 4.309 7.636 3.596 9.401-.111 1.913-4.019-2.05-8.667-6.252-7.45zm4.832 7.53c-1.455.055-2.839.202-4.3.029-.154-.018-.191.248-.037.273 1.295.205 2.708.328 4.021.101-.755.834-1.859 1.356-2.993 1.352-1.784-.007-2.861-1.14-3.929-2.398-.018-.021-.04-.032-.06-.049a.808.808 0 0 0-.03-.282c2.486.391 5.17.754 7.641.444a3.923 3.923 0 0 1-.313.53zm-8.851-2.134c3.154.019 6.294.159 9.444.272.032.001.047-.018.071-.027a3.83 3.83 0 0 1-.146.852c-.023.077-.061.148-.09.223-.004-.001-.005-.004-.009-.004-2.6-.282-5.253-.189-7.875-.406a.527.527 0 0 0-.516-.188c-.01-.09-.068-.177-.185-.182-1.413-.053-2.827-.091-4.241-.137 1.505-.302 2.987-.693 4.265-1.325a.48.48 0 0 0 .267-.451c.2-.013.397-.127.446-.339.113-.492.143-.926.609-1.285.316-.243.429-.656.125-.973-1.036-1.081-1.882-2.265-2.788-3.449-.003-.005-.009-.007-.012-.011a.43.43 0 0 0-.274-.23c-.901-.262-1.756-.23-2.437-.992-.836-.935-.431-1.63-.531-2.686-.116-1.221-1.671-1.082-2.675-.84-.019-.029-.035-.061-.055-.09-.287-.428-.898-.104-.764.344a3.273 3.273 0 0 0-1.6.065c-.154.049-.088.261.065.237.422-.065.833-.099 1.257-.02.159.03.31.08.46.133.005.008.007.018.012.026.214.444.387.901.546 1.361-.233.031-.466.076-.703.094-.354.026-.706.01-1.06-.01-.111-.006-.139.178-.027.197.571.096 1.3.166 1.897.009.168.523.304 1.053.404 1.59-.521-.055-1.067-.042-1.574-.074-.154-.01-.147.219 0 .236.527.06 1.095.178 1.642.207.083.55.139 1.104.137 1.665-.012-.003-.018-.014-.032-.014-.696-.03-1.402.017-2.099.032-.152.003-.152.232 0 .236.697.015 1.403.062 2.099.032.01 0 .014-.009.023-.011-.014.442-.046.885-.118 1.332-.038.232-.107.436-.16.654-.778-.068-1.588.006-2.368.018-.167.003-.168.257 0 .26.755.012 1.539.08 2.295.023-.403 1.426-1.096 2.604-1.808 3.903-1.25-.036-2.5-.074-3.75-.109 2.221-.863 3.338-3.791 3.322-6.027-.02-2.73-1.751-5.398-4.466-6.115-1.427-.377-2.788-.029-3.925.726-.708-.071-1.454.002-2.163.013-.143.002-.143.219 0 .222.59.01 1.206.061 1.804.038a7.068 7.068 0 0 0-1.422 1.472 5.592 5.592 0 0 0-1.112.193c-.142.039-.082.254.061.22.287-.068.57-.105.855-.127a7.467 7.467 0 0 0-.5.904 8.85 8.85 0 0 0-.402 1.132 4.136 4.136 0 0 0-1.085.341c-.124.058-.016.236.106.182.301-.132.599-.211.904-.261a10.774 10.774 0 0 0-.342 1.879c-.439.039-.877.09-1.314.136-.128.014-.132.215 0 .204.433-.038.868-.072 1.302-.117-.041.938.13 1.763.751 2.052.035.105.117.201.246.215 1.331.143 2.601.35 3.821.93.955.454 1.674 1.143 2.498 1.757a3121.33 3121.33 0 0 1-5.297-.15c-.123-.004-.121.183 0 .19 3.298.181 6.598.348 9.899.488-.044.083-.089.164-.133.249-.138.266.162.651.447.447.096-.068.178-.147.27-.218.039.003.078.008.123 0 .679-.128 1.392-.245 2.118-.368 1.92.071 3.84.132 5.761.176a159.729 159.729 0 0 0-4.867 1.951l-.29.124c-.006-.091-.046-.177-.15-.191-4.901-.679-9.806-.864-14.749-.723-.162.005-.163.256 0 .253 4.821-.08 9.606.271 14.384.881-.499.212-.999.423-1.497.637-.493.212-.985.425-1.476.639-.542.039-.799.25-.781.628a.277.277 0 0 0-.15-.021l-.22.028a.56.56 0 0 0-.347.165c-3.694-.625-7.578-.735-11.314-.614-.16.005-.161.246 0 .25 3.618.077 7.174.395 10.772.682a.784.784 0 0 0-.092.178 9.502 9.502 0 0 1-.69 1.503c-.005-.001-.007-.006-.012-.007-3.709-.463-7.467-.64-11.201-.738-.129-.003-.128.193 0 .2 3.677.2 7.328.57 10.992.912-1.728 2.714-4.749 4.085-8.212 3.477-4.903-.86-5.473-5.195-4.86-9.289.268-.191.392-.56.074-.86-1.309-1.235-2.599-2.464-3.745-3.857-1.129-1.372-2.019-2.934-3.174-4.276-.188-.219-.555.014-.476.277l.011.03c-1.278.003-2.68.097-3.829-.488-1.452-.738-2.128-2.818-1.778-4.344.334-1.46 1.667-2.44 3.082-2.86 1.836-.545 2.986.787 4.116 1.981.42.444.959.083 1.018-.384 1.144-.537 2.276-1.1 3.417-1.644.263-.125.543-.239.825-.354.016.016.028.035.057.041.774.165 1.505.423 2.239.695a8.186 8.186 0 0 0-1.123.403c-.938-.132-1.888-.209-2.828-.304-.139-.014-.134.197 0 .215.78.102 1.563.213 2.347.301-.555.266-1.098.564-1.633.847-.877-.073-1.767-.08-2.642-.122-.155-.007-.152.228 0 .239.69.051 1.388.124 2.084.171-.548.274-1.119.55-1.625.902-.733-.069-1.476-.083-2.207-.125-.184-.011-.181.271 0 .285.604.045 1.214.107 1.823.143a3.168 3.168 0 0 0-.445.452.141.141 0 0 0-.025.113c-.181.051-.323.253-.198.451.399.632.832 1.241 1.276 1.841-.624-.099-1.25-.19-1.873-.288-.125-.02-.181.17-.053.193.713.132 1.426.273 2.142.398a41.167 41.167 0 0 0 1.571 1.944 14.726 14.726 0 0 0-2.119-.248c-.142-.005-.138.207 0 .218.808.065 1.602.195 2.392.355.415.475.839.943 1.271 1.404-.868-.154-1.78-.198-2.613-.212-.12-.002-.119.18 0 .186 1.038.052 2.02.268 3.021.451.322.337.64.679.967 1.009.35.354 1.104.113 1.052-.436-.229-2.45.082-4.879 1.281-7.075 1.199-2.197 2.898-2.977 5.143-3.791.157-.057.185-.259.085-.354.209-.14.034-.438-.197-.404-1.053.157-2.078.343-3.124.532-.43.077-.876.153-1.315.122-.547-.038-.963-.322-1.478-.455-.333-.086-.554.237-.456.529-.757-.378-1.577-.617-2.405-.788.704-.296 1.386-.637 1.833-1.224.159-.209.014-.438-.182-.54.29-1.69 1.491-3.333 3.358-3.364a2.872 2.872 0 0 1 2.11.842c-.863-.279-1.849-.337-2.698-.311-.183.005-.184.287 0 .285a8.272 8.272 0 0 1 1.876.174c.438.095.851.252 1.274.383.208.301.38.633.51.985-1.211-.353-2.611-.398-3.835-.392-.131.001-.131.201 0 .204 1.351.026 2.615.321 3.932.512.1.335.178.677.211 1.018a.56.56 0 0 0 .045.154c-.145.159-.11.478.135.52 3.907.671 7.52 1.198 11.279 2.533a.407.407 0 0 0 .4-.025c.014-.007.028-.014.042-.023.005-.004.011-.004.016-.009 1.289-1.034 3.468-1.059 4.612.231.039.044.069.095.105.141-1.014-.226-2.156-.163-3.137-.005-.107.017-.083.2.026.19 1.185-.111 2.243.082 3.388.244.186.353.312.74.364 1.137-1.238-.144-2.523-.098-3.75-.01-.159.011-.162.257 0 .25 1.276-.056 2.521.049 3.784.125 0 .017.004.033.005.05.002.271-.056.51-.131.739-1.26-.109-2.573.005-3.834.02-.194.002-.195.3 0 .302 1.218.015 2.487.119 3.708.028-.154.369-.33.725-.398 1.141a.505.505 0 0 0 .003.156c-.407.043-.813.1-1.218.153-.103.013-.108.175 0 .165.426-.038.854-.07 1.28-.119l.001.004a.46.46 0 0 0 .09.199c.316.406.599.84.891 1.267-.465-.009-.939.021-1.383.057a.122.122 0 0 0 0 .243c.522.042 1.088.08 1.63.051.077.116.165.225.24.342.372.579.649 1.376 1.191 1.803.196.155.518.17.727.041 1.195.146 2.302.07 3.422.732a4.4 4.4 0 0 1 1.606 1.665c-1.745-.189-3.574-.061-5.317.014-.18.008-.182.284 0 .281 1.831-.025 3.681.148 5.507.08.209.486.33 1.009.341 1.543-.025-.014-.043-.036-.077-.038-3.135-.226-6.304-.216-9.444-.118-.168.011-.169.258-.005.259zm-4.395-8.175c.652.92 2.051 1.77 3.226 1.487.526 1.16 1.272 2.219 2.105 3.182-.313.47-.485.978-.446 1.559-.018-.001-.033-.008-.052-.007-2.255.116-4.663 1.009-6.882 1.805 2.409-3.104 2.18-7.865.35-11.258.252-.006.504.013.757.061.353.008.448.163.284.462.026.26-.048.545-.028.814.051.681.292 1.34.686 1.895zm-7.845 7.405c-1.413-1.874-4.329-2.776-6.603-2.407-.011-.009-.013-.024-.025-.032-.665-.419.041-2.896.198-3.38.295-.91.78-1.818 1.421-2.529 1.525-1.694 3.692-2.145 5.559-.645 1.542 1.239 2.117 3.222 1.769 5.131-.305 1.663-1.329 2.627-2.319 3.862zm-9.957-13.258l.119.043a.1.1 0 0 0 .1-.015c.467.685 1.289.872 2.209.8-2.295 1.868-3.432 5.214-3.557 8.22-1.736-1.842-3.434-3.722-5.208-5.525 1.033-.068 2.063-.703 2.972-1.142 1.135-.547 2.351-1.051 3.344-1.834.197-.155.157-.388.021-.547z"/><path d="M25.11 38.257c-2.253-.274-4.562-.287-6.828-.413-.204-.011-.202.304 0 .316 2.265.144 4.559.405 6.828.398.2 0 .188-.279 0-.301zM25.63 38.444c-.054 0-.054.084 0 .084s.054-.084 0-.084zM46.843 25.89c-1.012-.312-2.147-.349-3.197-.306-.173.007-.175.272 0 .271 1.067-.008 2.062.184 3.105.371.217.038.309-.269.092-.336zM31.457 27.724c-.704-.393-1.559-.263-2.215.164-.115.075-.013.253.108.185.659-.368 1.312-.338 2.016-.134.128.037.209-.15.091-.215zM22.514 12.823c-1.139-.294-2.361-.332-3.531-.326-.131.001-.131.202 0 .204 1.184.019 2.33.202 3.503.329.12.013.141-.178.028-.207z"/></g></svg>