<svg xmlns="http://www.w3.org/2000/svg" viewBox="0 0 52.651 52.651"><g fill="#1d1d1b"><path d="M51.888 15.339c-.021-.037-.059-.05-.089-.074-.552-3.569-2.096-6.474-5.793-7.871-6.289-2.375-14.395-1.825-20.997-1.804-9.235.029-22.889-.984-23.847 10.148a.225.225 0 0 0-.167.193c-1.062 6.68-1.408 14.85-.37 21.538.749 4.828 3.614 7.818 8.478 8.491a.45.45 0 0 0 .177-.01c5.183 1.168 10.851 1.102 16.073 1.162 6.037.07 12.18-.038 18.145-1.035.039-.007.068-.025.1-.039 3.294-.213 6.091-2.364 7.387-5.535 1.107-2.711 1.026-5.983 1.197-8.843.223-3.736.365-7.471.174-11.204.478-1.678.41-3.583-.468-5.117zm-2.057 23.514c-2.04.061-4.099.309-6.129.49-.113.01-.116.186 0 .179 2.001-.111 4.038-.165 6.034-.388a10.942 10.942 0 0 1-.945 2.015c-3.483.248-6.948.706-10.393 1.274-.077.013-.043.127.032.116 3.388-.486 6.783-.814 10.191-1.094a8.916 8.916 0 0 1-1.845 2.029c-5.741.057-11.486.372-17.211.776-.091.006-.093.148 0 .143 5.617-.26 11.236-.419 16.854-.635-.79.578-1.718 1.078-2.819 1.494a.388.388 0 0 0-.223-.065c-6.019.229-11.991.797-18.024.749-5.402-.043-10.887-.888-16.283-.842-10.788-1.929-7.271-18.903-7.415-27.689.983-5.67 3.805-9.276 9.918-10.041 4.407-.551 9.002-.544 13.436-.533 4.624.011 9.258.202 13.864.605 2.628.23 4.919.59 6.821 1.399-2.767-.174-5.552-.163-8.318-.054-.094.004-.095.149 0 .148 3.022-.037 6.021.098 9.035.26.855.443 1.632.983 2.302 1.683-5.808-.347-11.634-.511-17.449-.692-.098-.003-.097.146 0 .152 5.903.332 11.817.684 17.728.841.49.565.926 1.212 1.301 1.967a24.625 24.625 0 0 0-6.382-.129c-.08.009-.085.126 0 .129 2.181.057 4.337.144 6.515.265.323.698.603 1.474.83 2.352.071 1.003.151 1.987.189 2.976-1.949.144-3.845.306-5.8.231-.361-2.369-1.34-4.281-3.292-5.165.09-.173.045-.434-.184-.479-9.717-1.913-20.776-2.172-30.569-.192-6.294.396-5.308 12.963-4.28 19.776-.081 2.434.601 4.851 2.699 6.363 1.289.929 2.778 1.163 4.328 1.289 2.655.216 5.354.441 8.008.158l.003.006c1.268 1.453 2.591 2.951 3.552 4.63.239.417.767.343 1.02 0 1.009-1.363 2.125-2.784 2.773-4.361a.417.417 0 0 0 .029-.156c4.974 1.004 12.5.441 15.599-3.947a.514.514 0 0 0 .063-.54c.027-.081.044-.162.069-.243 1.689-.077 3.408-.128 5.079-.346-.167 1.108-.393 2.144-.711 3.096zm-5.083-12.671c.067 3.29.338 6.677-.355 9.913a.638.638 0 0 0-.162.147c-3.096 4.166-10.205 3.99-14.898 4.111-.18-.057-.379-.035-.51.124-.912 1.106-1.647 2.375-2.444 3.581-1.089-1.367-2.146-2.708-3.453-3.904a.377.377 0 0 0-.374-.094c-.03-.015-.04-.043-.079-.051-2.696-.52-5.396-.372-8.125-.527-3.506-.199-5.366-2.021-6.133-4.742-.525-5.913-1.985-18.756 3.449-20.881 9.751-.663 18.986-.849 28.716-.045.028.026.046.061.085.076 4.979 1.871 4.201 8.228 4.283 12.292zm6.24 4.262c-1.234-.118-2.516.022-3.727.232-.089.015-.05.146.037.134 1.24-.175 2.44-.149 3.677-.133-.032.648-.062 1.296-.104 1.944-.008.127-.021.244-.031.369-1.253-.151-2.555-.003-3.79.225-.096.018-.054.159.04.144 1.257-.196 2.469-.175 3.732-.157a37.53 37.53 0 0 1-.243 2.272c-1.676.026-3.377.227-5.051.401.659-2.335.415-4.718.361-7.175a46.47 46.47 0 0 1-.009-.916c1.737.039 3.522.003 5.233-.263-.038.975-.078 1.949-.125 2.923zm.401-8.222c-1.434-.046-2.881.022-4.315.038-.1.001-.1.155 0 .156 1.428.016 2.87.083 4.298.038-.058.877-.108 1.754-.149 2.631-1.375.002-2.783.187-4.151.315-.086.008-.089.141 0 .137 1.369-.061 2.783-.075 4.143-.258-.03.66-.062 1.319-.089 1.979-1.751.099-3.491.263-5.246.322-.002-2.747.159-5.552-.176-8.262-.008-.062-.021-.12-.029-.181 1.908.153 3.899.174 5.778-.182.019.624.024 1.251-.016 1.891a.351.351 0 0 0 .037.183c-.034.398-.058.796-.085 1.193z"/><path d="M50.869 15.913c-1.676-.092-3.381.014-5.06.033-.087.001-.087.134 0 .135 1.679.018 3.384.125 5.06.033.129-.008.129-.194 0-.201z"/></g></svg>