<svg xmlns="http://www.w3.org/2000/svg" viewBox="0 0 49.721 49.721"><g fill="#1d1d1b"><path d="M49.173 9.152c-1.669-.045-3.264.241-4.769.892.116-.199.217-.407.325-.611.145.001.212-.167.133-.25.663-1.303 1.208-2.679 1.951-3.932.161-.272-.104-.55-.383-.499-1.27.235-2.48.684-3.683 1.144-.878.335-1.864.623-2.614 1.203-.01-.012-.015-.025-.028-.036-6.732-5.901-19.595-.502-16.59 9.089-.019-.004-.033-.014-.053-.017-7.55-.982-13.452-3.885-18.774-9.347-.261-.269-.72-.018-.723.292-.157-.061-.337-.028-.441.179-1.538 3.072-1.585 9.065 1.313 11.59-.121-.001-.242-.001-.364-.009-.646-.039-1.26-.17-1.896-.261-.376-.054-.697.439-.368.677a.369.369 0 0 0-.114.24c-.278 3.285 2.164 7.37 5.198 9.069-.17.019-.339.037-.508.047-.718.042-1.438.045-2.155.087-.308.018-.469.355-.381.594a.386.386 0 0 0-.016.307c.632 1.88 2.193 3.404 3.752 4.565 1.057.788 2.617 2.051 4.092 2.3-1.625.461-3.165 1.131-4.846 1.441-2.083.384-4.158.369-6.265.27-.211-.01-.299.208-.247.375-.113-.082-.233-.156-.344-.24-.245-.185-.498.199-.313.406 6.255 7 20.476 7.944 28.639 4.347 7.061-3.11 11.646-9.018 14-15.884a.13.13 0 0 0 .048-.145c1.256-3.721 1.871-7.713 1.848-11.702a.576.576 0 0 0-.119-.346c.976-.457 1.861-1.298 2.609-2.023a21.311 21.311 0 0 0 2.548-3.006c.248-.346-.086-.796-.462-.806zm-2.793 2.876c-4.752-.293-9.542-.238-14.296-.097-.099.003-.099.154 0 .154 4.665-.018 9.32.147 13.981.228-.775.671-1.697 1.238-2.372 1.991-4.991-.104-9.999.086-14.982.342-.074.004-.075.118 0 .116 4.942-.129 9.88-.104 14.821-.15a.581.581 0 0 0 .027.262.546.546 0 0 0-.204.462 33.043 33.043 0 0 1-.134 3.945c-1.498.072-5.808-.324-6.498-.314-2.605.036-5.215.159-7.799.501-.086.011-.092.144 0 .139 3.348-.175 6.676-.395 10.031-.337.861.015 3.014.49 4.241.261a34.27 34.27 0 0 1-.302 2.333c-.02-.01-.033-.026-.06-.026-3.162-.03-6.326.004-9.488.024-.109.001-.109.167 0 .169 3.162.05 6.326.115 9.488.115.009 0 .012-.007.02-.009a32.841 32.841 0 0 1-.494 2.32c-4.569-.638-9.267-.614-13.864-.37-.085.004-.086.135 0 .133 4.632-.128 9.185.182 13.8.475a31.417 31.417 0 0 1-.656 2.212c-2.902-.078-5.832.112-8.713.386-.103.01-.106.169 0 .162 2.87-.179 5.728-.186 8.596-.223a29.57 29.57 0 0 1-1.064 2.64c-4.48.085-8.961.178-13.44.316-.096.003-.097.15 0 .15 4.43-.015 8.861-.074 13.291-.142a27.609 27.609 0 0 1-.95 1.803.112.112 0 0 0-.105-.058c-3.444.069-6.906.472-10.34.748-.108.009-.111.177 0 .171 3.433-.188 6.911-.257 10.327-.649-.558.946-1.153 1.869-1.828 2.733-.021-.01-.036-.027-.065-.026-4.778.115-9.556.206-14.336.27-.105.001-.105.161 0 .162 4.713.057 9.427.028 14.138-.087a23.474 23.474 0 0 1-3.072 3.164c.016-.066-.015-.143-.105-.148-3.629-.229-7.343.076-10.955.44-.082.008-.085.137 0 .131 3.652-.246 7.294-.2 10.947-.332a22.851 22.851 0 0 1-2.677 1.943c-.019-.015-.037-.032-.066-.034-4.749-.435-9.559-.407-14.314-.101-.073.005-.074.116 0 .114 4.689-.134 9.334.004 14.015.239-.865.511-1.761.989-2.72 1.396-4.526-.236-9.093-.133-13.624-.134-.103 0-.103.158 0 .16 4.34.112 8.71.314 13.054.226-.025.01-.047.022-.072.032-8.212 3.197-19.361 1.463-26.57-3.612 3.747.82 8.739.426 11.82-2.039.077-.061.078-.142.052-.216.068-.008.139 0 .207-.015.21-.045.202-.367 0-.417-1.42-.35-3.129-1.866-4.298-2.729-1.46-1.077-2.49-2.249-3.486-3.703.497.057.997.09 1.497.078.696-.017 1.441-.001 2.063-.339.167-.091.23-.278.205-.451.056-.127.058-.275-.067-.381-1.475-1.251-2.962-2.255-4.063-3.893-1.091-1.622-1.515-3.324-2.102-5.139.422.141.857.248 1.293.304.586.075 1.349.174 1.852-.184.183-.131.234-.428.028-.565-.012-.02-.008-.041-.026-.06-2.94-3.03-2.29-7.671-1.703-11.417 4.527 5.731 11.874 9.49 19.196 9.59.365.005.517-.265.487-.531a.337.337 0 0 0 .291-.41c-.701-3.837.879-7.836 4.415-9.731 2.789-1.495 5.972-1.069 8.8.064-1.581.064-3.163.148-4.74.239-.108.006-.109.171 0 .169 1.777-.036 3.558-.08 5.335-.157.56.248 1.105.518 1.626.807a.33.33 0 0 0 .271.023c.058.069.132.124.228.125 1.128.012 2.274-.575 3.32-.966a27.267 27.267 0 0 0 2.261-.935c-.55 1.068-1.183 2.101-1.716 3.177a29.042 29.042 0 0 0-9.432.365c-.09.019-.051.151.038.136a33.05 33.05 0 0 1 9.245-.19c-.16.34-.314.684-.443 1.037a.32.32 0 0 0-.02.135c-.212.224 0 .684.338.564 1.393-.496 2.818-.799 4.28-.858a20.729 20.729 0 0 1-1.664 1.794z"/><path d="M43.045 17.053c-3.373.009-6.747.038-10.12.085-.081.001-.082.125 0 .127 3.373.047 6.747.076 10.12.085.192.001.192-.297 0-.297z"/></g></svg>