<svg xmlns="http://www.w3.org/2000/svg" viewBox="0 0 49.751 49.751"><g fill="#1d1d1b"><path d="M49.666 15.049c-.177-.025-.357-.038-.535-.062-.031-.753-.052-1.509-.09-2.259-.018-.347-.313-.495-.574-.455-.007-.277-.188-.552-.547-.564-10.806-.338-21.824-.995-32.631-.465.058-.843.267-2.144-.233-2.729-.542-.634-1.982-.374-2.666-.376-1.474-.003-3.434-.269-4.853.164a2.335 2.335 0 0 0-.36.14c-.118-.153-.36-.181-.529-.102-.617.288-.766 1.165-.8 1.783-.025.465.063.919.211 1.354-1.395-.172-5.456-.62-5.539.825a.36.36 0 0 0-.119.26C.074 18.159.282 23.821.325 29.426c.023 2.973-1.087 8.141.671 10.731-.156.065-.244.286-.049.372 2.87 1.255 5.43.735 8.51.517 4.165-.295 8.338-.225 12.507-.043 8.655.376 17.332 1.226 25.974.216a.64.64 0 0 0 .542-.44.422.422 0 0 0 .283-.38c.16-1.955.279-3.923.372-5.896.088-.007.086-.122.007-.141.298-6.362.257-12.784-.001-19.122.165.016.328.027.493.043.133.014.165-.215.032-.234zm-1.705 5.49c-3.43-.03-6.867.024-10.296.054-.102.001-.102.162 0 .159l.718-.02c.071-.002.071-.107 0-.11 3.077.126 6.378.219 9.575.142-.009.816-.026 1.629-.034 2.445-.011-.005-.018-.013-.033-.013-2.926.08-5.828.174-8.756.132-.096-.001-.094.142 0 .148 2.896.186 5.869.197 8.756-.113.014-.002.021-.01.031-.016-.007.752-.026 1.5-.032 2.252-2.847.231-5.635.404-8.502.195-.1-.007-.099.148 0 .156 2.813.23 5.701.262 8.5-.174-.008 1.017-.023 2.034-.027 3.051-2.485-.159-5.009.009-7.479.265-.107.011-.109.179 0 .169 2.499-.241 4.976-.238 7.478-.256-.003.86-.018 1.72-.017 2.58-2.67-.004-5.311-.094-7.969-.431-.11-.014-.109.159 0 .173 2.638.347 5.307.534 7.97.443.001.854-.003 1.708.003 2.561-3.403-.051-6.812.017-10.214.04-.071 0-.071.109 0 .11 3.402.023 6.813.092 10.216.041.013 1.826.028 3.652.065 5.473-7.717.772-15.327.417-23.057.04-3.849-.188-7.705-.354-11.559-.243-3.837.11-7.774.94-11.596.415a.32.32 0 0 0-.022-.13c-1.411-3.792-.373-9.567-.377-13.627-.004-4.622.113-9.275-.185-13.887-.001-.012-.006-.02-.008-.031.542-.31 2.349-.094 2.619-.093.917.004 1.779-.062 2.689-.167l.001-.001c.211.224.634.003.553-.325a4.087 4.087 0 0 1-.014-1.889c.056-.256.15-.496.219-.738.079-.027.149-.075.175-.174.009-.031 4.393.164 4.735.166.322.002 1.938-.229 2.128-.043.216.212.016 1.977.017 2.294l.001.006a.378.378 0 0 0 .299.449.575.575 0 0 0 .31.035c10.923.98 22.115.727 33.078.797.057 0 .101-.017.149-.029-.014.679-.018 1.361-.029 2.041-4.357-.516-8.797-.679-13.164-.415-.075.005-.077.118 0 .118 4.423-.01 8.772.183 13.16.578-.027 1.798-.055 3.596-.075 5.397z"/><path d="M24.179 13.474a.425.425 0 0 0-.421-.26c-6.923.099-12.503 6.026-11.84 13.008.664 6.987 6.784 11.946 13.689 11.812 16.822-.328 11.993-26.646-1.428-24.56zm.746 23.441c-14.365-.353-16.158-21.493-1.393-22.706 6.488.819 11.578 4.78 11.989 11.821.376 6.425-4.139 11.043-10.596 10.885z"/><path d="M31.372 24.447c-.727-4.223-3.585-6.251-7.384-5.884a.555.555 0 0 0-.233-.042c-8.914.227-7.681 15.274 1.204 14.138 3.819-.488 7.063-4.433 6.413-8.212zm-5.341 6.6c-7.511 2.948-10.613-10.575-2.276-11.471a.541.541 0 0 0 .316-.148c2.667.118 4.848 1.048 5.819 3.98 1.089 3.291-.636 6.374-3.859 7.639zM47.629 38.568c-7.605.281-15.138.371-22.743.01-.057-.003-.056.084 0 .088 7.549.563 15.195.654 22.743.017.074-.005.076-.118 0-.115zM46.629 36.33c-4.399-.27-8.84-.182-13.246-.235-.072-.001-.072.11 0 .112 4.405.097 8.841.335 13.246.213.059-.001.059-.087 0-.09zM47.824 17.116c-1.002 1.007-4.592.45-5.858.453-1.861.005-3.722.004-5.583.018-.114.001-.114.176 0 .177 2.577.022 5.154.022 7.731.031 1.142.004 3.034.472 3.849-.542.077-.095-.047-.229-.139-.137z"/></g></svg>