<svg xmlns="http://www.w3.org/2000/svg" viewBox="0 0 49.259 49.259"><g fill="#b7b7b7"><path d="M38.34 36.656c-.021-.135-.109-.262-.288-.276-4.489-.354-9.011-.676-13.522-.457-.029-.023-.052-.051-.099-.058-3.844-.635-4.721-3.908-4.79-7.287l.018.003c.08.015.116-.105.034-.124l-.053-.01c-.011-.8.021-1.601.068-2.375.05.011.099.015.149.027.099.023.14-.125.042-.152-.06-.017-.12-.023-.18-.037.038-.596.082-1.178.123-1.72 5.048.766 25.894 2.93 22.229-7.259a.41.41 0 0 0-.15-.196c-.475-2.154-1.908-3.857-4.287-4.527-2.47-.695-5.504-.405-8.02-.518l-10.236-.459c.836-2.689.734-5.955-.755-8.372-1.045-1.697-3.206-3.32-5.278-2.737C9.552-.394 7.523 3.613 7.03 7.067c-.519 3.638-.133 7.63-.15 11.305-.021 4.386-.264 8.867.175 13.233-.3 5.523 2.476 10.715 7.066 13.967 6.307 4.468 15.798 3.879 23.084 3.275a.415.415 0 0 0 .381-.313c2.751.031 4.317-3.521 4.321-5.906.004-2.433-1.229-5.151-3.567-5.972zm1.38 9.514c-.511.55-2.086 1.661-2.932 1.534a.372.372 0 0 0-.431.304c-5.854-.007-12.329.593-17.849-1.446-7.025-2.596-9.974-8.67-10.646-15.665.401-4.459.175-9.02.177-13.489.002-5.531-1.482-14.535 5.577-16.375 1.818.298 3.17.96 4.036 2.323-1.083-.014-2.166-.001-3.249.005-.102.001-.102.158 0 .158 1.12.007 2.24.022 3.36.004.277.478.5 1.034.665 1.69.067.265.115.531.154.797-1.393-.042-2.764-.12-4.154-.352-.073-.012-.105.099-.031.112 1.38.247 2.796.418 4.204.419.083.675.096 1.352.079 2.03-1.562-.168-3.133-.275-4.698-.406-.076-.006-.075.111 0 .118 1.562.143 3.127.31 4.694.416-.028.954-.094 1.91-.055 2.866-.703.064-.676 1.192.089 1.23l11.815.587c3.902.194 7.302.121 9.384 2.733-5.901-.137-11.803-.244-17.704-.341-.072-.001-.072.11 0 .112 5.964.182 11.929.352 17.895.492a7.91 7.91 0 0 1 .984 1.873c-3.466-.167-6.976-.027-10.445.016-.092.001-.092.142 0 .143 3.492.043 7.026.186 10.514.014l.01.024a5.177 5.177 0 0 1-.62 1.718c-3.8.066-7.576.069-11.377-.031-.077-.002-.075.112 0 .118a78.11 78.11 0 0 0 11.231.155c-3.37 5.158-15.797 3.417-20.678 3.235-.284-.01-.44.261-.424.503a.322.322 0 0 0-.248.268 47.183 47.183 0 0 0-.231 1.69 6.866 6.866 0 0 0-2.325.166c-.093.023-.053.163.039.142a7.03 7.03 0 0 1 2.261-.132 26.899 26.899 0 0 0-.18 2.35 10.427 10.427 0 0 0-2.098-.015c-.079.007-.08.131 0 .125a11.264 11.264 0 0 1 2.095.042c-.017.866.019 1.732.138 2.569-.815.002-1.63.005-2.445.012-.06 0-.06.092 0 .093.819.007 1.638.011 2.457.012.118.777.309 1.527.596 2.226a5.196 5.196 0 0 1-1.78-.207c-.063-.019-.089.078-.027.098a4.616 4.616 0 0 0 1.841.203c.022.051.035.106.057.156.676 1.5 2.022 2.81 3.613 2.951.057.105.16.191.317.209 4.37.501 8.782.445 13.169.308a.444.444 0 0 0 .208.168c2.44.941 3.898 2.193 3.979 4.985.038 1.36-.018 2.889-1.011 3.957z"/><path d="M39.071 46.541c-2.905-.102-5.814-.13-8.721-.171a1800.52 1800.52 0 0 0-4.025-.052c-.765-.009-4.02-.521-4.524-.053.027-.025-.007-.067-.038-.05l-.161.092c-.047.027-.024.096.027.098 5.801.235 11.636.308 17.442.276.091.001.091-.137 0-.14zM39.913 45.161c-3.781-.233-7.597-.168-11.385-.222-.075-.001-.075.114 0 .116 3.786.093 7.598.306 11.385.22.074-.001.073-.109 0-.114zM40.546 43.165c-5.06-.021-10.121.031-15.18.07-.068 0-.068.105 0 .105 5.059.039 10.12.09 15.18.07.158-.001.158-.244 0-.245zM40.335 41.082c-2.734-.098-5.486.017-8.222.041-.072.001-.072.111 0 .112 2.736.025 5.488.139 8.222.041.125-.004.125-.189 0-.194zM38.651 39.132c-2.936-.299-5.897-.406-8.847-.419-1.546-.007-4.461-.514-5.818.277a.055.055 0 0 0-.011.085l.083.083c.02.02.052.019.073 0l.064-.059c.048-.044-.022-.111-.07-.07.508-.428 2.696-.094 3.464-.097a125.23 125.23 0 0 1 3.876.047c2.401.065 4.79.244 7.186.389.153.01.148-.221 0-.236zM37.383 21.884c-2.768-.161-5.542-.227-8.313-.322-1.279-.044-2.558-.089-3.837-.131-.71-.023-3.444-.574-3.889-.312.051-.03.006-.103-.046-.078l-.578.278c-.069.033-.029.13.036.134 5.529.322 11.088.58 16.625.673.159.004.157-.233.002-.242zM17.99 10.064c-1.329-.117-2.673-.157-4.007-.198-.087-.003-.086.129 0 .135 1.331.087 2.673.176 4.007.188.081.001.079-.118 0-.125z"/></g></svg>