<svg xmlns="http://www.w3.org/2000/svg" viewBox="0 0 49.087 49.087"><g fill="#b7b7b7"><path d="M26.331 16.604a.389.389 0 0 0 .005.417c-.002.01-.008.015-.009.026-.176 1.264.974 2.386 1.737 3.292 1.021 1.212 2.201 2.641 3.587 3.438.422.242.793-.151.728-.536a.265.265 0 0 0 .165-.085c.854-.973 1.651-1.84 2.951-2.204 1.822-.51 3.775.222 4.633 1.938.648 1.295.583 2.903-.24 4.106-.94 1.373-2.324 1.657-3.841 1.742-5.498-1.022-10.704-9.979-14.382-13.363-3.02-2.778-6.691-4.659-10.807-3.451-.035.01-.058.03-.087.044-8.614 2.137-13.594 12.245-9.062 20.233 4.845 8.539 16.822 7.703 21.009-.923.01-.02.008-.039.016-.058.323.064.568-.427.335-.71-1.504-1.826-3.099-3.588-4.612-5.411-.195-.235-.498-.128-.636.082-.005-.027-.001-.053-.007-.08-.047-.22-.341-.18-.407 0-.581 1.602-1.809 3.082-3.659 3.061-1.614-.019-3.033-1.16-3.665-2.588-1.427-3.225 1.289-6.415 4.469-5.752 6.071 5.646 10.819 15.897 19.729 17.111 6.673.91 12.528-3.178 14.342-9.571 3.66-12.898-15.342-23.41-22.292-10.758zm21.721 9.651c-1.285-.01-2.564.112-3.854.059-.193-.008-.191.286 0 .299 1.243.084 2.557.156 3.798-.043-.672 3.095-2.514 5.96-5.42 7.78-12.144 7.608-18.852-7.968-26.868-14.235.138-.07.196-.268.024-.385-4.235-2.899-8.341 2.547-6.476 6.53.892 1.904 2.999 3.29 5.136 3.037 1.874-.222 3.51-1.731 3.475-3.593a20.154 20.154 0 0 0 1.826 2.565c-.922-.041-1.861.026-2.782.047-.115.003-.116.177 0 .179.984.023 1.991.108 2.973.046.011-.001.015-.009.025-.012.347.404.704.8 1.079 1.173-4.054.342-8.043.807-12.123.852-.113.001-.113.173 0 .176 4.067.108 8.284.042 12.29-.735a.126.126 0 0 0 .082-.058c.226.216.447.441.681.643a.551.551 0 0 0-.13.156c-.264.483-.559.926-.867 1.35-3.093.226-6.184.519-9.263.886-.131.016-.138.219 0 .211 3.009-.185 6.015-.445 9.013-.765a11.801 11.801 0 0 1-1.855 1.915c-3.492.086-6.993.212-10.474.509-.113.01-.117.18 0 .179 3.358-.004 6.721-.169 10.074-.373-5.824 4.313-14.681 2.181-16.825-6.083-1.89-7.285 3.251-12.734 9.266-15.717a.517.517 0 0 0 .26.022c8.188-1.458 14.266 7.911 19.082 13.265 1.921 2.135 3.941 4.363 6.761 3.483 3.146.115 5.155-4.015 3.783-6.817-1.648-3.365-7.395-4.075-8.707-.061-.773-.84-1.71-1.556-2.494-2.393-.705-.753-2.367-2.152-2.44-3.195a.364.364 0 0 0-.036-.132c3.894-5.332 10.319-6.625 15.547-3.259-2.792.081-5.612.409-8.389.667-.144.013-.149.235 0 .228 2.951-.131 5.962-.182 8.896-.535.583.416 1.155.875 1.699 1.413a11.482 11.482 0 0 1 2.595 3.925c-2.135-.165-4.426-.11-6.539.061-.178.014-.179.263 0 .278 2.158.174 4.504.231 6.678.052a12.21 12.21 0 0 1 .499 6.405z"/><path d="M42.972 33.434c-3.909.354-7.798.491-11.722.358-.146-.005-.143.215 0 .225 3.909.286 7.824.245 11.722-.175.257-.028.263-.432 0-.408zM45.252 31.239c-3.979.289-7.902.607-11.898.556-.123-.001-.121.184 0 .19 3.961.192 8.015.186 11.945-.398.197-.028.152-.362-.047-.348zM46.828 29.052c-1.571-.055-3.151.113-4.729.059-.197-.007-.196.296 0 .306 1.554.075 3.229.195 4.77-.064.176-.03.125-.295-.041-.301zM47.731 23.15c-1.423-.201-2.972-.071-4.406-.043-.154.003-.153.232 0 .239 1.421.064 2.956.237 4.37.073.137-.015.203-.245.036-.269zM44.896 16.143c-4.017.027-8.056.415-12.065.668-.125.008-.128.201 0 .197 4.012-.147 8.067-.163 12.065-.534.208-.019.216-.332 0-.331z"/></g></svg>