<svg xmlns="http://www.w3.org/2000/svg" viewBox="0 0 49.897 49.897"><g fill="#1d1d1b"><path d="M49.869 23.381c-.803-14.492-17.75-13.217-24.264-3.458-4.482-4.62-10.37-9.251-17.256-7.801C2.441 13.366-.803 19.265.17 25.029c.86 5.092 4.835 10.91 10.228 11.749 5.645.878 11.772-2.299 15.324-6.605.018.036.034.072.064.108 3.845 4.496 9.757 8.984 16.064 7.462 6.042-1.458 8.327-8.818 8.019-14.362zM38.947 36.758c-2.483-.095-4.615-1.043-6.582-2.33 3.586.796 7.287 1.339 10.968 1.315-1.242.698-2.701 1.08-4.386 1.015zM48.8 24.494c-1.056-.005-2.1-.004-3.151-.124-.119-.014-.117.171 0 .186 1.041.129 2.099.201 3.145.096a16.89 16.89 0 0 1-.271 2.717c-1.25-.119-2.512-.015-3.745.2-.104.018-.06.176.044.159 1.227-.202 2.431-.226 3.669-.191a16.472 16.472 0 0 1-.509 2.001c-1.484.133-2.947.2-4.443.153-.083-.003-.08.119 0 .127 1.449.137 2.931.111 4.377-.083a13.952 13.952 0 0 1-.936 2.142c-.001-.035-.023-.07-.069-.072-1.964-.059-3.938.004-5.903.02-.069.001-.069.107 0 .108 1.965.016 3.939.079 5.903.02.043-.001.06-.034.064-.067-.844 1.535-1.979 2.849-3.425 3.723-3.834-.227-7.59-.546-11.368-1.322-.01-.002-.011.009-.019.012-2.04-1.367-3.905-3.088-5.801-4.591a.465.465 0 0 0-.191-.089.315.315 0 0 0 .015-.019c.336-.446-.375-.949-.754-.581-.38.368-.769.718-1.16 1.065-1.166-.08-2.34-.106-3.505-.157-.073-.003-.073.11 0 .114 1.112.062 2.231.147 3.347.188a31.87 31.87 0 0 1-1.647 1.358c-1.551-.001-3.102.019-4.652.028-.068 0-.068.105 0 .105 1.479.008 2.959.026 4.439.028-.599.449-1.208.88-1.843 1.267-1.846-.069-3.701-.028-5.547-.028-.056 0-.056.086 0 .087 1.785.026 3.577.087 5.362.054-.789.469-1.605.89-2.463 1.237-2.508-.127-5.03-.118-7.539-.166-.054-.001-.054.082 0 .084 2.362.082 4.733.214 7.099.237-.819.305-1.664.563-2.558.735-6.398 1.232-11.416-3.085-13.128-9.03-1.944-6.752 2.319-13.54 9.816-13.197 5.472.25 9.79 4.14 13.493 7.745.242.236.543.175.73-.005.13.044.278.026.392-.098 2.885-3.147 6.023-5.982 10.292-7 3.792-.904 7.06.224 9.297 2.504-1.762-.031-3.531.082-5.282.251-.097.009-.099.162 0 .154 1.824-.149 3.643-.179 5.469-.213 1.311 1.411 2.245 3.23 2.684 5.273-1.027-.11-2.062-.156-3.092-.225-.13-.009-.129.193 0 .203 1.041.076 2.085.178 3.128.21.151.758.239 1.544.249 2.352.001.102-.012.21-.013.315z"/><path d="M44.538 24.505c-.285-2.778-2.286-5.683-5.189-6.001-3.872-.425-7.491 3.054-10.229 5.299-.279.228-.238.577-.052.823-.102.104-.136.262.004.389 2.81 2.552 6.587 5.554 10.649 5.03 2.764-.358 5.116-2.628 4.817-5.54zm-9.802 3.052c-1.671-.804-3.195-1.877-4.831-2.748 3.465-2.317 10.189-8.823 12.748-1.737 2.124 5.882-4.397 6.179-7.917 4.485zM20.479 24.599c-1.648 1.774-3.43 3.841-5.809 4.608-3.414 1.101-6.348-1.051-6.491-4.584-.15-3.692 3.128-5.697 6.498-4.745 2.487.703 4.266 2.709 6.081 4.416.305.287.861-.091.605-.467-1.965-2.883-4.986-5.513-8.687-5.362-3.261.133-5.592 2.549-5.637 5.799-.043 3.082 1.64 6.027 4.869 6.475 4.033.56 7.045-2.48 9.445-5.268.511-.595-.328-1.46-.874-.872zM45.223 33.507c-3.321-.075-6.594-.207-9.892-.654-.062-.008-.09.086-.026.096 3.276.48 6.604.798 9.918.701.092-.003.092-.141 0-.143zM47.335 18.793c-1.2.001-2.389-.002-3.584-.13-.137-.015-.135.198 0 .213 1.19.136 2.39.203 3.584.083.105-.01.11-.166 0-.166zM43.747 14.708c-2.107-.038-4.218.014-6.325.028-.083 0-.083.128 0 .129 2.107.014 4.218.066 6.325.027.118-.003.118-.182 0-.184z"/></g></svg>