<svg xmlns="http://www.w3.org/2000/svg" viewBox="0 0 49.677 49.677"><g fill="#1d1d1b"><path d="M14.89 1.102c.016-.581-.594-.731-.97-.485C9.742-.389 4.969.461.766.897c-.312.032-.443.484-.154.612C.211 3.483.464 5.601.499 7.604.536 9.701.354 11.681.15 13.763c-.02.206.124.353.301.414.019.082.06.157.149.203 3.938 2.018 9.455.904 13.709.736.404-.016.583-.416.47-.719.144-4.428-.009-8.864.111-13.295zM7.871 13.969c-2.302.16-4.502-.146-6.781-.214.688-1.653.643-3.469.595-5.248-.061-2.229.1-4.699-.45-6.885 4.029.572 8.291.003 12.363.048-.028.408-.036.818-.053 1.228-2.267-.453-4.615-.525-6.913-.402-.137.007-.139.218 0 .214 2.338-.065 4.595.183 6.898.516-.015.379-.04.756-.049 1.135-2.477-.422-5.048-.421-7.549-.287-.135.007-.137.213 0 .211 2.535-.045 5.002.206 7.518.445.01.001.014-.008.023-.008-.009.455-.022.909-.024 1.364-2.582-.414-5.264-.376-7.866-.251-.13.006-.132.209 0 .204 2.651-.096 5.232.157 7.866.358 0 .428-.013.855-.004 1.283-1.491-.131-3.045-.005-4.539.01-.204.002-.204.314 0 .316 1.498.016 3.057.143 4.552.01.014.525.03 1.051.058 1.575-3.157-.211-6.348-.191-9.508-.083-.115.004-.116.179 0 .179 3.184.013 6.352.159 9.531.283.023.36.035.721.066 1.08-1.967-.112-3.956-.06-5.925-.082-.12-.001-.12.182 0 .186 1.978.076 3.972.228 5.952.212.034.364.052.729.094 1.091-3.349-.157-6.719-.056-10.068.044-.108.003-.109.169 0 .169 3.372-.014 6.743.116 10.114.122.05.392.1.784.161 1.173-1.989-.448-4.032-.138-6.062.004zM32.441.956c.011-.246-.167-.365-.356-.366-.057-.168-.206-.31-.45-.337-4.448-.484-9.393-.296-13.757.743-.053.013-.074.051-.111.077a.383.383 0 0 0-.468.363c-.345 4.177-.516 8.651-.226 12.833a.578.578 0 0 0 .362.523c.031.172.16.333.365.334 4.402.015 9.148.484 13.506-.088a.58.58 0 0 0 .476-.438c.163-.012.316-.12.308-.322-.169-4.509.148-8.829.351-13.322zM18.249 14.289l.005-.018c.299-4.085.158-8.447-.156-12.545 4.405.238 9.078-.004 13.463-.474-.144.428-.264.866-.372 1.309-1.931-.43-3.965-.407-5.904-.08-.149.025-.116.285.036.266 1.981-.255 3.84-.116 5.78.212a21.6 21.6 0 0 0-.23 1.165c-.026-.016-.051-.034-.087-.031-2.124.157-4.175.337-6.31.269-.179-.006-.172.257 0 .274 2.069.204 4.3.224 6.346-.186a22.753 22.753 0 0 0-.185 1.655c-3.385-.139-6.799.048-10.186.062-.138.001-.138.214 0 .214 3.377.014 6.781.199 10.156.063-.039.69-.054 1.382-.033 2.074-1.677-.133-3.377-.11-5.056-.219-.175-.011-.171.255 0 .271 1.669.154 3.391.358 5.074.323.03.641.076 1.28.154 1.912-2.549-.139-5.123-.026-7.677-.176-.105-.006-.103.153 0 .162 2.525.215 5.174.489 7.719.312.051.377.104.754.171 1.125-3.152-.043-6.308.014-9.46.045-.158.001-.159.244 0 .246 3.172.031 6.346.089 9.518.045.097.498.206.991.331 1.473-4.114-.992-8.92-.462-13.097.252zM48.404.692C44.047-.43 39.607.968 35.2.575c-.293-.026-.468.147-.533.367a.385.385 0 0 0-.238.341c-.119 4.358.078 8.797.216 13.156.015.471.434.653.778.562 1.48.58 3.47.382 4.947.342 2.609-.069 5.155-.714 7.764-.546.034.002.06-.008.091-.011a.478.478 0 0 0 .768-.346c.474-4.465.566-9.015.53-13.503-.007-.673-.871-.744-1.119-.245zm-.296 4.551c-.009-.001-.013-.009-.023-.009-3.605 0-7.246.361-10.843.603-.136.009-.139.219 0 .214 3.601-.119 7.258-.124 10.843-.483.005 0 .007-.005.012-.006-.028.686-.057 1.371-.075 2.057a.152.152 0 0 0-.108-.042c-2.853.111-5.733.209-8.576.472-.137.013-.143.218 0 .218 2.853-.002 5.727-.173 8.576-.328.045-.002.074-.026.102-.049a97.26 97.26 0 0 0 .028 5.793c-2.032-.559-4.158.073-6.226.231-1.92.146-3.986.336-5.94.288.179-4.054.071-8.306-.573-12.328 1.433.587 3.862.041 5.244-.05 2.623-.171 5.129-.207 7.739-.013a169.1 169.1 0 0 0-.18 3.432zM31.803 18.093c-.118-.407-.803-.349-.767.104l.004.075c-4.116-.668-8.6-.571-12.765-.442-.29-.158-.781.017-.763.422.198 4.378-.792 9.051.377 13.33a.293.293 0 0 0 .139.185.27.27 0 0 0 .186.152c4.029.844 8.831.537 12.92.286a.588.588 0 0 0 .58-.601.555.555 0 0 0 .152-.315c.521-4.382 1.192-8.874-.063-13.196zm-9.604 7.033c2.98.007 6.038-.041 8.998-.471-.015.67-.037 1.34-.07 2.011-1.867.03-3.729.29-5.605.283-.181-.001-.181.276 0 .281 1.819.054 3.781.128 5.585-.213-.027.51-.052 1.019-.089 1.53a653.01 653.01 0 0 0-9.693.228c-.147.004-.148.229 0 .228a647.8 647.8 0 0 0 9.658-.058c-.054.679-.104 1.357-.176 2.039-3.916-.24-8.426-.494-12.281.252.038-4.153.546-8.456.012-12.586 4.087.443 8.476.877 12.55.514.031.482.037.961.055 1.441-2.479-.389-5.056-.403-7.545-.261-.137.008-.139.217 0 .214 2.558-.051 5.033.195 7.56.458.01.336.033.674.038 1.01-2.945.187-5.886.458-8.827.695-.127.01-.13.207 0 .2 2.942-.153 5.889-.273 8.828-.477.006.612.013 1.224.003 1.835-3.005.217-5.981.539-9.002.598-.16.002-.16.248.001.249zM31.859 35.494a.317.317 0 0 0-.082-.122c.116-.21.065-.528-.211-.567-4.471-.633-9.419.093-13.931.208a.396.396 0 0 0-.398.337c-.769.865-.488 2.756-.536 3.733-.152 3.092-.33 6.249-.175 9.341.001.027.013.045.016.07l-.001.002c-.128.244-.041.477.167.636 1.318 1.014 3.928.314 5.455.238 2.99-.15 5.984-.33 8.967-.582.015-.001.025-.009.04-.011.155.306.648.23.655-.146.079-4.248 1.504-9.043.034-13.137zm-.748 4.118c-2.738.127-5.487.526-8.214.8-.169.017-.172.282 0 .267 2.72-.241 5.482-.369 8.186-.751-.064.691-.133 1.384-.199 2.075-3.063.075-6.165.278-9.21.57-.128.012-.134.206 0 .204 3.046-.041 6.138-.185 9.179-.443-.043.474-.083.948-.109 1.42-2.142-.048-4.306.118-6.447.203-.149.006-.15.234 0 .232 2.137-.032 4.301.015 6.433-.148-.017.351-.029.701-.03 1.05-2.773.128-5.621.78-8.349 1.198-.134.02-.104.254.032.238 2.726-.321 5.627-.45 8.322-1.056.013.698.052 1.392.167 2.074-2.344.09-4.687.233-7.028.379-.843.053-4.666.767-6.174.518.001-.007.005-.012.005-.019.202-2.235.164-4.503.187-6.746.011-1.072-.503-4.478-.098-5.804 4.296.177 9.197.657 13.434-.256.053.644.06 1.295.041 1.95-2.405-.04-4.916.172-7.291.422-.145.015-.153.23 0 .232 2.378.036 4.888.019 7.272-.235a40.58 40.58 0 0 1-.109 1.626z"/><path d="M47.733 11.297c-2.977.065-6.217.319-9.11 1.064-.107.028-.088.204.027.197 3.021-.185 6.065-.607 9.083-.885.237-.022.246-.381 0-.376zM47.739 9.507c-2.488-.029-5.046.418-7.522.664-.195.019-.2.326 0 .309 2.493-.207 5.102-.231 7.558-.711.151-.029.111-.26-.036-.262zM47.782 3.476c-1.575-.372-3.398-.27-4.986-.031-.133.02-.102.242.032.235 1.666-.089 3.253.074 4.909.138.194.008.237-.296.045-.342z"/></g></svg>