<svg xmlns="http://www.w3.org/2000/svg" viewBox="0 0 49.202 49.202"><g fill="#b7b7b7"><path d="M9.151 7.779c-.306-1.96-2.318-3.599-4.228-3.262C2.549 3.707.417 5.774.058 8.134c-.443 2.911 1.718 4.736 4.52 4.658 2.62-.073 5.002-2.267 4.573-5.013zm-6.132.91c1.551.042 3.163.195 4.733.157a2.765 2.765 0 0 1-.505 1.205c-1.345-.054-2.71.021-4.054.047-.177.003-.177.271 0 .274 1.232.024 2.48.088 3.716.057-.657.629-1.598.997-2.564.987C.46 11.374.82 7.033 3.4 5.62c.018.312.255.592.65.464 1.355-.437 2.782-.185 3.413.978-.954-.062-1.916-.078-2.87-.115-.143-.005-.141.212 0 .221 1.006.07 2.02.168 3.03.203.075.206.129.434.158.686.017.143.012.278.008.413-1.578-.09-3.206.012-4.77.005-.138-.001-.138.211 0 .214zM45.726 15.026c-2.663-.663-5.968-.155-8.697-.167-2.805-.012-5.591-.029-8.388.163.655-2.932 1.292-7.415-.847-9.798.024-.179-.036-.377-.195-.477-6.122-3.867-6.341 6.376-5.896 10.402-3.483-.529-8.857-1.367-11.224 1.675-1.325 1.702-.804 4.435.983 5.332.04.123.129.224.289.249 3.06.472 6.635.664 9.711-.062-1.554 5.845 2.361 16.903-7.461 16.813-2.151-.02-5.414-2.259-6.031-4.338-.39-1.315-.183-2.92-.129-4.291.125-3.157.362-6.281.327-9.435.738-2.178-.531-5.228-2.75-5.929a2.923 2.923 0 0 0-2.978.724c-.651.646-.874 1.364-.969 2.146-.014.024-.039.036-.044.069C.47 24.493-.507 32.441.625 38.834c.64 3.616 3.396 5.091 6.802 5.847.024.005.043 0 .065.003 5.579 1.539 12.791.204 17.117-3.58 5.332-4.664 2.929-12.69 4.663-18.774.014-.051.011-.096.011-.141 5.287.199 10.968.494 16.19-.178 1.693-.218 3.291-.945 3.462-2.458a.372.372 0 0 0 .154-.217c.579-2.384-1.162-3.762-3.363-4.31zm1.555 4.475c-8.236.627-16.405 1.037-24.674 1.096-.156.001-.156.237 0 .243 8.017.293 16.155.024 24.137-.899-2.165 1.398-6.818.801-8.687.86-3.128.098-6.247.249-9.365.524a.43.43 0 0 0-.34.654c-.015.03-.035.052-.045.087-.348 1.196-.506 2.442-.593 3.706-1.054.001-2.142.112-3.183.219-.207.021-.217.333 0 .33 1.037-.01 2.114-.035 3.154-.148-.033.6-.057 1.203-.069 1.808-.984-.151-2.119-.122-3.084-.061-.169.01-.16.235 0 .257.959.128 2.09.242 3.077.158-.011.612-.018 1.225-.033 1.836-1.128-.124-2.322.039-3.435.214-.17.027-.132.326.041.304 1.132-.142 2.252-.104 3.384-.162a38.386 38.386 0 0 1-.081 1.705c-.006-.056-.032-.107-.112-.118-.845-.122-1.728-.051-2.58-.03-.461.011-1.287-.152-1.636.214a.156.156 0 0 0-.024.183c.058.111.087.129.208.159a.137.137 0 0 0 .15-.061l.035-.054c.027-.042.017-.083-.004-.119.222.026.56.054.637.054.37.003.74.008 1.109.012.682.007 1.383.062 2.06-.026.075-.01.129-.074.152-.142a20.923 20.923 0 0 1-.2 1.747c-.903-.088-1.848-.01-2.75.012-.174.004-.174.266 0 .271.885.022 1.812.097 2.7.016-.114.62-.263 1.229-.464 1.825-.915-.185-2.01-.009-2.935.012-.142.003-.143.218 0 .221.895.02 1.945.178 2.84.023a10.19 10.19 0 0 1-.769 1.66c-.208.356-.437.684-.676 1.001-1.558-.068-3.163.169-4.718.28-.107.008-.11.173 0 .169 1.495-.055 3.046-.01 4.532-.21-1.182 1.473-2.688 2.516-4.38 3.241-2.555.199-5.117.593-7.672.844-.11.011-.115.174 0 .176 1.85.036 3.836-.043 5.73-.338-3.539.988-7.575.924-11.036.647-.013-.006-.02-.015-.034-.021-6.32-2.443-6.151-6.801-6.072-12.502.059-4.31.345-8.613.364-12.922.641-1.408 1.689-2.887 3.377-2.311 1.004.342 1.633 1.175 1.913 2.155-.994-.258-2.161-.179-3.162-.114-.121.008-.123.191 0 .19 1.085-.01 2.158.213 3.232.22.008.038.02.075.027.113.103.563.061 1.125.049 1.686-1.014-.208-2.12-.24-3.123-.359-.113-.014-.141.181-.027.2 1.013.168 2.1.451 3.146.529a4.225 4.225 0 0 0 .059.654c-.062.423-.122.851-.181 1.28-.012-.004-.018-.014-.032-.015-1.028-.105-2.115.013-3.148.033-.142.003-.143.219 0 .221 1.031.021 2.116.137 3.142.034a69.552 69.552 0 0 0-.502 4.922c-1.342-.052-2.703.028-4.039.05-.168.003-.168.257 0 .26 1.328.022 2.682.102 4.016.051-.028.506-.047 1.01-.058 1.513-.674-.059-1.363-.052-2.032-.082-.135-.006-.131.196 0 .208.669.06 1.353.16 2.031.19-.008.631 0 1.258.024 1.879-.805-.013-1.61.007-2.41.017-.151.002-.152.234 0 .236.805.01 1.615.031 2.422.017.029.599.07 1.193.137 1.776.04.345.105.672.173.996-1.134-.136-2.3-.155-3.43-.233-.13-.009-.126.188 0 .2 1.151.118 2.329.303 3.494.355.152.623.369 1.193.635 1.719a23.053 23.053 0 0 0-2.732.01c-.148.008-.15.236 0 .232.982-.022 1.951.039 2.923.11.951 1.626 2.518 2.688 4.836 2.88 3.031.25 6.632-.919 8.354-3.529 2.762-4.186.212-9.652 1.501-14.215a.499.499 0 0 0-.254-.6c.01-.156-.084-.321-.279-.334-3.284-.228-6.661.006-9.966-.064-.918-.728-1.582-1.725-1.235-3.078.52-2.024 2.946-2.504 4.639-2.59 2.237-.114 4.505.203 6.737.318.513.026.652-.798.173-.925.14-2.081.285-4.18.603-6.238.202-1.308.327-3.5 2.164-3.762.566-.081 1.24.131 1.854.254.167.383.298.773.408 1.168a16.082 16.082 0 0 0-2.695-.4c-.111-.006-.139.181-.027.197.937.132 1.859.298 2.786.48.084.339.162.68.215 1.026-.86-.068-1.783.008-2.625.053-.124.007-.124.187 0 .193.857.046 1.798.124 2.669.05.058.448.1.899.114 1.354-1.292-.129-2.752.075-4.013.188-.159.014-.166.253 0 .253 1.265.002 2.743.079 4.018-.163.009.648-.016 1.3-.07 1.952-.952-.124-1.98-.054-2.893.017-.138.011-.142.224 0 .218.966-.041 1.907.081 2.856.145a40.002 40.002 0 0 1-.218 1.816c-1.222.005-2.419.043-3.652-.123-.149-.02-.217.207-.064.231 1.186.182 2.454.31 3.671.194-.038.261-.076.524-.116.782a.637.637 0 0 0 .12.491.434.434 0 0 0 .406.32c2.959.237 12.216-.899 17.18.619-5.738.143-11.484.31-17.213.644-.123.007-.125.194 0 .193 6.096-.012 12.199-.213 18.291-.432.678.314 1.228.702 1.599 1.185-8.377.284-16.771.683-25.133 1.263-.116.008-.119.186 0 .183 8.396-.199 16.806-.582 25.189-1.079l.001-.001a2.183 2.183 0 0 1-.514.969z"/><path d="M40.645 4.074a.372.372 0 0 0-.292.168c-1.681-.376-3.552 1.18-3.938 2.775-.503 2.08.915 4.357 3.008 4.782 2.121.431 4.331-.935 4.727-3.092.378-2.063-1.18-4.766-3.505-4.633zm2.177 3.879c-1.136-.097-2.284-.112-3.422-.16-.179-.008-.177.266 0 .278 1.131.071 2.268.176 3.402.199a2.545 2.545 0 0 1-.531 1.249c-.007-.031-.017-.064-.051-.069-1.086-.157-2.253-.028-3.347.002-.106.003-.106.162 0 .165 1.079.029 2.228.154 3.301.006a2.608 2.608 0 0 1-2.312.854c-1.512-.204-2.48-1.807-2.106-3.265.37-1.442 1.639-1.863 2.895-2.194.697.667 1.561 1.038 1.958 1.872-1.224-.198-2.504-.217-3.734-.314-.18-.014-.175.259 0 .278 1.271.139 2.581.377 3.862.392.049.181.084.378.09.604.002.036-.005.068-.005.103zM47.079 40.293c.064-.132.037-.302-.147-.358-2.669-.805-5.241-.254-7.021-3.019-1.448-2.25-1.34-4.891-1.4-7.433-.054-2.283-.684-4.445-3.153-4.949-.057-.012-.108-.005-.159-.001l-.003-.001-.011.001c-.022.003-.046.001-.066.006-5.422.035-4.008 8.878-3.373 12.358.432 2.366 1.332 5.201 3.468 6.597 2.438 1.594 6.181 1.509 8.979 1.73a.456.456 0 0 0 .475-.259c1.566.155 3.525-.109 3.86-1.82.226-1.153-.474-2.239-1.449-2.852zm-8.73 2.606c3.079.08 6.191.162 9.27.003-.008.038-.004.069-.015.109-.272 1.022-1.843 1.202-3.001 1.306a.562.562 0 0 0-.41-.221c-5.034-.436-9.596-.553-11.071-6.217-.772-2.965-1.756-10.573 1.653-12.563a.444.444 0 0 0 .309.215c1.466.312 2.065 1.287 2.306 2.47-1.301-.142-2.639-.139-3.941-.205-.18-.009-.177.265 0 .278 1.322.097 2.674.273 4.004.285.052.361.082.734.091 1.112-1.055-.051-2.185-.072-3.218.062-.151.02-.151.216 0 .236 1.035.134 2.166.113 3.223.062.001.338-.005.675-.011 1.004-1.255-.022-2.43.077-3.694-.122-.164-.026-.239.22-.07.254 1.176.235 2.566.403 3.759.138-.009.528-.009 1.027.039 1.459.006.049.016.097.022.146-1.435-.018-2.889.092-4.317.171-.161.009-.164.256 0 .253 1.444-.023 2.916-.017 4.36-.141.08.545.186 1.085.332 1.613-.748-.007-1.499.016-2.245.024-.12.001-.12.185 0 .186.77.008 1.545.033 2.316.024.186.627.411 1.241.684 1.837-1.346-.048-2.709.021-4.049.029-.149.001-.15.231 0 .232 1.387.008 2.801.081 4.193.022.144.297.285.594.448.881.148.259.31.486.478.7-1.285-.123-2.619-.086-3.894-.116-.169-.004-.166.249 0 .26 1.386.091 2.837.277 4.232.228a4.818 4.818 0 0 0 1.738 1.172c-1.472.014-2.945.081-4.396.152-.13.006-.132.205 0 .204 2.758-.026 5.513.139 8.268.154.363.177.747.365 1.077.593-1.984-.083-4.058.125-6.021.259-.172.012-.176.27 0 .271 2.113.015 4.358.112 6.462-.149.257.284.42.626.395 1.068-3.091-.162-6.215-.079-9.306.001-.17.002-.17.257 0 .261zM6.69 25.661c-.827-.039-1.597.052-2.427-.106-.123-.023-.177.16-.052.19.774.188 1.728.367 2.514.172.146-.037.108-.249-.035-.256zM22.432 41.142c-5.365.089-10.729.129-16.09.349-.135.005-.136.21 0 .211 5.365.05 10.727-.081 16.09-.162.255-.005.256-.403 0-.398zM27.723 23.896c-1.117-.352-2.382-.386-3.542-.339-.18.007-.182.283 0 .281 1.185-.014 2.287.206 3.445.41.229.04.325-.281.097-.352z"/></g></svg>