<svg xmlns="http://www.w3.org/2000/svg" viewBox="0 0 50.224 50.224"><g fill="#1d1d1b"><path d="M22.053 25.901C16.253 18.739 11.836 10.809 4.93 4.56c-.061-.11-.112-.227-.175-.335-.166-.288-.663-.098-.549.231 1.768 5.13 2.476 10.931 5.002 15.754a.277.277 0 0 0 .144.249l.006.003a.466.466 0 0 0 .312.163 96.472 96.472 0 0 0 5.67 2.822c1.848.844 3.788 1.489 5.381 2.777a.519.519 0 0 0 .444.089c.082.077.155.162.238.237.445.406 1.016-.197.65-.649zm-11.761-5.745a.495.495 0 0 0-.022-.195C8.847 15.535 7.827 10.69 5.865 6.41c2.597 3.28 5.421 6.378 7.868 9.783 1.744 2.427 3.244 5.085 5.07 7.464-.678-.315-1.38-.588-2.039-.881a102.266 102.266 0 0 0-6.472-2.62z"/><path d="M48.843 1.204c-.001-.06-.02-.107-.034-.158.237-.422.061-1.061-.567-1.046-7.666.19-15.325.53-22.994.618-7.614.088-15.417-.597-23 .042-.158.014-.264.141-.311.28a.28.28 0 0 0-.256.267C.35 16.758 1.317 32.779 1.543 48.374c.006.387.288.588.588.619-.048.183.037.4.29.419 14.763 1.105 29.853.768 44.651.753a.653.653 0 0 0 .617-.38.456.456 0 0 0 .513-.418c1.61-15.817.923-32.279.641-48.163zm-1.481 17.441c-1.946.022-3.91.192-5.848.338.182-.96.386-1.913.595-2.865.009.002.013.01.022.011 1.716.083 3.55.209 5.27-.019-.012.846-.028 1.688-.039 2.535zm-4.103-11.22c-1.267 3.545-2.206 7.19-2.939 10.891a.689.689 0 0 0-.275.104c-3.394 2.163-6.89 4.21-10.235 6.459 4.454-5.85 8.916-11.667 13.449-17.454zm4.147 8.334c-1.735-.063-3.498.102-5.237.067.197-.887.404-1.772.62-2.654 1.528.005 3.144.016 4.66-.217-.013.936-.03 1.868-.043 2.804zm.132-8.602c-.946-.048-1.937.087-2.84.213-.208.029-.161.395.05.37.932-.111 1.857-.076 2.783-.091-.011.794-.025 1.585-.036 2.379-.847-.06-1.719.002-2.565.012-.235.003-.236.363 0 .366.844.01 1.714.071 2.559.012-.01.727-.023 1.452-.033 2.179-1.516-.016-3.069.157-4.584.255a193.51 193.51 0 0 1 2.052-7.566l.105-.135a.516.516 0 0 0 .08-.522.345.345 0 0 0-.011-.216c.828-.027 1.656-.062 2.484-.097l-.044 2.841zm.069-4.507c-1.642-.099-3.337.055-4.953.23-.203.022-.21.34 0 .323 1.654-.135 3.297-.088 4.946-.12l-.012.796c-3.909-.069-7.877.245-11.751.654-.154.016-.16.256 0 .246 2.837-.179 5.674-.254 8.51-.344-.006.006-.013.007-.019.013-.73.719-1.45 1.466-2.165 2.225a18.816 18.816 0 0 0-4.984.346c-.16.034-.127.312.039.29a25.48 25.48 0 0 1 4.539-.203 95.74 95.74 0 0 0-3.328 3.774c-.022-.064-.069-.122-.146-.124-1.164-.029-2.337.098-3.497.184-.225.017-.23.364 0 .355 1.156-.044 2.325-.055 3.472-.207-.584.703-1.163 1.414-1.732 2.135-1.279-.037-2.562-.012-3.841.003-.186.002-.186.286 0 .288 1.202.014 2.407.033 3.61.007-.477.609-.958 1.214-1.422 1.833-2.824-.009-5.669.171-8.487.295-.115.005-.116.18 0 .179 2.736-.024 5.501.003 8.238-.139-.438.591-.889 1.173-1.312 1.771-1.13-.038-2.307.129-3.424.199-.141.009-.143.227 0 .221 1.048-.041 2.157-.003 3.215-.12-.422.6-.839 1.203-1.245 1.81-.015-.007-.027-.019-.047-.018-1.055.061-2.132.215-3.177.373-.125.019-.096.231.03.221 1.004-.076 2.033-.168 3.029-.329a95.286 95.286 0 0 0-1.453 2.25c-.979.181-1.92.282-2.95.131-.141-.021-.204.193-.06.217.899.15 1.869.189 2.784.012a84.433 84.433 0 0 0-2.222 3.782c-.255.465.388.805.692.404l.052-.068c4.234-1.919 8.219-4.446 12.145-6.92.305.103.649.007.759-.358 1.963-.046 3.956-.068 5.916-.238-.014 1.072-.037 2.138-.049 3.21-2.113-.104-4.291.129-6.402.211-.205.008-.207.325 0 .32 2.11-.051 4.296.042 6.398-.194-.009.794-.023 1.587-.031 2.381-4.078-.158-8.259.01-12.311.432-.106.011-.111.171 0 .169 4.103-.092 8.204-.137 12.306-.213-.007.717-.02 1.433-.026 2.15-5.827-.549-11.957-.375-17.712.564-.059.01-.045.107.014.104a215.79 215.79 0 0 1 8.863-.333c-4.544 2.295-9.413 4.922-14.535 5.289-5.644.404-10.248-2.582-14.818-5.428-.245-.152-.516.193-.317.397-.011.039-.027.076-.016.123 1.781 7.261 6.289 18.221 14.851 19.157a644.89 644.89 0 0 0-10.126 0c-.113.001-.113.171 0 .176 11.261.506 22.574.415 33.844.36.006.281.009.564.015.845-.072-.024-.144-.049-.232-.05-14.695-.183-29.651-.783-44.332.034a.583.583 0 0 0 .11-.359c-.359-15.614.453-31.442-.581-47.016 7.2 1.049 14.761.654 22.021.652 7.778-.002 15.57-.091 23.335-.575-.007.404-.012.81-.018 1.215zm-9.826 35.316c3.028.034 6.144-.004 9.129-.54.176-.032.137-.327-.042-.314-3 .221-5.961.563-8.973.618a26.422 26.422 0 0 0 1.713-4.83c2.551-.167 5.052-.094 7.584.163-.002.717-.01 1.435-.01 2.152-2.139-.089-4.321.032-6.451.078-.149.003-.15.229 0 .232 2.13.046 4.313.167 6.452.078.002 1.738-.007 3.478.008 5.213-2.962-.102-5.964.149-8.906.442-.155.016-.159.259 0 .246 2.974-.239 5.935-.237 8.911-.319.015 1.577.033 3.153.062 4.728a62.356 62.356 0 0 0-6.814-.542 72.726 72.726 0 0 0-3.823.01c-.371.011-4.862.104-4.817.004.026-.057-.053-.106-.085-.05l-.252.436c-.027.046.007.114.064.111 5.284-.292 10.481-.096 15.734.43.008.428.011.857.02 1.285-7.185-.028-14.375-.147-21.563-.209 5.641-.458 9.667-4.502 12.059-9.422zm-16.479 7.379c-6.96-2.718-8.504-10.431-11.633-16.408 3.738 3.264 8.308 5.686 13.388 5.63 5.721-.063 11.369-3.053 16.374-5.631-1.059 8.436-8.007 20.362-18.129 16.409zm18.965-17.043a.68.68 0 0 0-.039-.487 197.91 197.91 0 0 1 7.009.063c-.006.787-.022 1.575-.026 2.362-1.682-.174-3.398-.122-5.079-.028-.179.01-.182.286 0 .281 1.698-.05 3.384.05 5.077.083-.004.689-.012 1.379-.014 2.069a32.265 32.265 0 0 0-7.525-.031c.33-1.375.565-2.747.665-4.064a.375.375 0 0 0-.068-.248z"/><path d="M46.856 43.726c-3.178-.269-6.438-.1-9.623-.015-.138.004-.138.216 0 .215 3.204-.031 6.423.172 9.623.082.183-.006.179-.267 0-.282zM39.859 8.376c-3.52-.068-7.134.157-10.643.447-.087.007-.118.14-.022.161l.494.11c.081.018.115-.102.035-.125 1.351.397 3.433-.02 4.814-.053 1.772-.042 3.555-.037 5.321-.188.224-.019.231-.348.001-.352z"/></g></svg>