<svg xmlns="http://www.w3.org/2000/svg" viewBox="0 0 48.898 48.898"><g fill="#b7b7b7"><path d="M44.074 3.995c.071-.286-.033-.596-.401-.649-3.749-.541-7.607.795-10.553 3.116-1.784 1.405-5.863 5.524-4.927 8.084.086.235.276.329.519.294l.195-.028c.023-.003.034-.019.053-.027.047.133.16.24.341.238a26.73 26.73 0 0 0 1.961-.054c2.375 1.112 3.233 2.74 2.574 4.883-.237 1.312-.759 2.559-1.391 3.725-.926 1.709-2.6 4.979-4.435 6.029-4.752-.839-5.809-11.332-6.463-15.116-.548-3.171-1.156-6.039-2.898-8.625.1-.228.064-.528-.186-.686a6.425 6.425 0 0 0-.556-.313l-.024-.033a.29.29 0 0 0-.291-.108C11.47 2.059 3.448 10.222.094 14.447c-.124.156-.088.326.016.423-.031.046-.075.079-.091.138-.095.355.206.687.391.951.261.374.538.737.809 1.104.241.328.424.719.85.798.238.044.418-.098.441-.336.049-.506-.472-.955-.764-1.333-.159-.207-.317-.416-.478-.621-.063-.08-.285-.281-.397-.433.013-.043.025-.087.009-.134a1.498 1.498 0 0 0-.081-.194c-.02-.04-.057-.066-.092-.092 4.631-3.75 10.599-10.554 16.989-8.68.324.664.609 1.339.866 2.023-1.304-.019-2.613.093-3.901.266-.106.014-.082.201.025.189 1.33-.159 2.645-.193 3.973-.184.225.617.432 1.24.62 1.869-1.314-.106-2.643-.124-3.958-.179-.118-.005-.117.177 0 .184 1.335.071 2.681.191 4.02.207.256.873.491 1.752.697 2.64-.865.03-1.731.102-2.594.161-.462.032-1.22-.099-1.568.267a.071.071 0 0 0-.018.068c.042.13.031.124.159.183.027.012.053.01.075-.01l.061-.055c.058-.052-.026-.133-.085-.085.433-.355 1.699-.18 2.24-.207.593-.03 1.187-.055 1.779-.104.137.598.268 1.199.394 1.801-1.676.245-3.248.337-4.943.199-.075-.006-.093.12-.018.133 1.628.276 3.386.249 4.999-.144.368 1.777.709 3.564 1.126 5.333-.844.055-1.689.143-2.53.224-.077.007-.079.128 0 .122.854-.056 1.713-.106 2.566-.19.218.911.45 1.818.726 2.714-.884.13-1.756.179-2.658.099-.052-.005-.051.075 0 .08.898.089 1.801.072 2.689-.075l.037.125c.309.979.608 2.036.99 3.02-.901-.07-1.8.001-2.685.191-.061.013-.035.106.026.094a10.082 10.082 0 0 1 2.712-.153c.771 1.928 1.889 3.541 4.106 3.653.021.003.031.02.054.02.059 0 .11-.015.168-.018.107.001.208.01.321.003a.451.451 0 0 0 .257-.095c1.278-.361 2.048-1.62 2.871-2.722 1.674-2.241 3.14-4.738 3.658-7.524.276-1.483.542-4.045-.582-5.276-1.142-1.252-3.764-1.036-5.17-.605a.363.363 0 0 0-.133.073c-.009-.016-.013-.036-.025-.049-.253-.292 1.233-2.73 1.502-3.163a14.026 14.026 0 0 1 3.389-3.751c2.799-2.138 5.917-2.648 9.322-2.863 1.378.65 2.383 1.511 3.099 2.516-2.261-.047-4.528-.009-6.788-.015-.121 0-.121.186 0 .188 2.318.031 4.644.106 6.964.09.528.818.883 1.72 1.075 2.69-3.037.232-6.031.399-9.09.225-.09-.005-.089.133 0 .139 3.028.213 6.113.237 9.133-.149.438 2.536-.128 5.477-1.174 8.348-2.02.044-4.048.225-6.063.357-.119.008-.122.193 0 .188 1.985-.084 3.988-.123 5.97-.288-.826 2.206-1.921 4.361-3.039 6.244-1.27.142-2.532.308-3.811.365a36.21 36.21 0 0 1-1.744.035c-.1 0-.565.023-.911.048-.004-.026-.017-.054-.052-.055-.26-.007-.52-.019-.78-.035-.099-.005-.097.145 0 .153 2.364.183 4.807.134 7.153-.271a41.886 41.886 0 0 1-2.359 3.522 98.007 98.007 0 0 1-1.833 2.358c-2.213.272-4.372.463-6.607.357-.097-.005-.096.143 0 .15 2.134.143 4.315.106 6.427-.278-.654.812-1.314 1.6-1.985 2.362-1.978.323-3.882.429-5.908.14-.065-.009-.094.088-.028.1 1.875.321 3.819.358 5.7.029-1.652 1.856-3.373 3.56-5.254 5.079-.004 0-.006-.004-.01-.004-2.88.088-5.769.442-8.64.684-.1.008-.102.166 0 .158 2.797-.204 5.625-.312 8.41-.651a33.48 33.48 0 0 1-9.02 5.141c-7.636 1.067-8.142-9.489-9.253-14.622-.947-4.373-1.87-8.714-3.632-12.84-.007-.016-.018-.025-.026-.038-.314-.881-.967-1.608-1.965-1.789-1.774-.322-3.713 1.23-4.734 2.508-.155.194.033.465.269.348 1.004-.499 1.993-1.151 3.053-1.518 1.6-.557 2.189.504 2.883 1.71.043.074.108.12.178.148.882 3.942 2.011 7.824 2.868 11.774.715 3.299 1.027 6.882 2.285 10.025 1.422 3.556 4.596 6.617 8.607 5.139a.481.481 0 0 0 .24-.188c9.538-1.135 17.911-12.393 22.048-20.137 2.946-5.517 7.657-18.09-.838-20.972z"/><path d="M21.012 18.261c-1.476.031-2.953.138-4.428.214-.096.005-.097.154 0 .15 1.475-.064 2.955-.097 4.428-.206.1-.007.103-.16 0-.158zM27.965 41.197c-3.093.155-6.17.483-9.27.579-.106.003-.106.167 0 .164 3.086-.062 6.235-.126 9.291-.582.092-.014.071-.166-.021-.161zM33.85 36.392c-2.202.414-4.294.56-6.521.284-.068-.008-.084.109-.016.12 2.173.365 4.449.345 6.587-.223.118-.032.067-.203-.05-.181zM40.8 27.715c-2.254.305-4.44.512-6.716.459-.098-.002-.097.146 0 .152 2.249.142 4.561.055 6.768-.424.125-.027.068-.203-.052-.187zM45.02 21.408c-2.136.382-4.149.544-6.309.309-.082-.009-.102.132-.02.145 2.1.333 4.323.31 6.384-.252.132-.037.075-.226-.055-.202zM46.933 15.766c-2.011.405-3.848.684-5.9.431-.102-.013-.126.164-.024.18 1.945.31 4.116.294 5.972-.438.106-.042.067-.196-.048-.173zM47.372 12.89c-2.6-.015-5.204.09-7.806.08-.109 0-.108.164 0 .169 2.58.123 5.23.191 7.806-.027.14-.012.145-.221 0-.222z"/></g></svg>