<svg xmlns="http://www.w3.org/2000/svg" viewBox="0 0 48.919 48.919"><g fill="#1d1d1b"><path d="M46.988 32.722a222.634 222.634 0 0 0-2.664-2.998c-1.077-1.19-2.6-2.478-3.177-4.031 2.121-2.461 3.968-5.171 5.661-7.941.962-1.575 2.532-3.472 1.916-5.36a.312.312 0 0 0-.159-.432c-.016-.007-.033-.01-.049-.017a.262.262 0 0 0-.247-.084c-2.145-.77-4.624-.669-6.865-.603-1.447.043-2.829.014-4.001.813a.397.397 0 0 0-.287.163c-.027.038-.049.078-.076.116-.016.014-.034.024-.051.039a.342.342 0 0 0-.112.211c-1.11 1.646-1.987 3.474-3.035 5.162a96.964 96.964 0 0 1-1.737 2.704c-.297.446-.599.888-.906 1.326-.441.97-1.198 1.138-2.272.505-.012-.038-.04-.054-.061-.08-.029-1.236-.179-2.467-.152-3.708.035-1.593.396-3.146.489-4.728.094-1.602-.337-3.053-1.978-3.521-.188-.054-.372.079-.444.245-1.872.173-3.51.217-5.436-.165-1.429-.283-2.625-.289-4.001.131-.182-.076-.429-.022-.466.207-.268 1.658.827 2.267 1.623 3.593.829 1.38.871 3.042.733 4.624-.071.814-.105 3.687-1.158 4.002a.33.33 0 0 0-.104.055c-1.751-.235-4.249-5.451-4.774-6.317-.936-1.542-1.837-3.104-2.905-4.556.073-.183.026-.408-.218-.477-.052-.015-.107-.025-.159-.039l-.023-.031c-.104-.132-.235-.128-.34-.06-2.48-.606-5.436-.662-7.903-.301-1.325.194-1.514.667-1.477 1.498-.109.037-.2.14-.165.27 2.03 7.406 6.497 14.189 11.925 19.567 4.137 4.099 9.645 8.084 15.585 5.411.139-.063.139-.203.074-.31.429-.327.779-.666 1.084-1.132.204-.312.355-.647.517-.981.65-1.347.278-1.668 2.069-1.804 1.513-.114 1.334-.105 2.271.707.513.444 1.034.88 1.564 1.304a44.42 44.42 0 0 0 2.396 1.77c1.42 1.707 4.751 1.048 6.664 1.077 1.53.023 3.904.216 4.469-1.462.149-.044.273-.169.286-.387.1-1.643-.892-2.792-1.924-3.975zm-3.978 4.744c-1.171-.03-3.342.23-4.621-.338a.459.459 0 0 0-.136-.176c-1.701-1.303-3.254-2.739-4.891-4.111-.706-.592-1.377-1.241-2.367-1.191-2.333.119-2.847 4.138-3.969 5.584a.363.363 0 0 0-.053.32C14.144 40.39 5.263 23.52.797 13.599c.114-.707-.167-1.057.92-1.426.692-.235 1.894-.013 2.631.002 1.751.035 3.513.219 5.264.156.855 1.802 1.941 3.487 2.967 5.196 1.021 1.701 1.993 3.706 3.301 5.21.799.919 2.29 1.884 3.074.418.004-.008 0-.018.003-.026 1.083-.879 1.121-2.984 1.209-4.236.092-1.304-.058-2.421-.568-3.639-.578-1.381-1.9-2.5-2.041-4.019 1.86-.11 3.528.447 5.364.648 1.501.164 3.018-.074 4.468-.463.441.596.61 1.331.651 2.116-1.617-.298-3.282-.384-4.917-.359-.068.001-.068.105 0 .105 1.67.003 3.291.199 4.926.45.012.479-.018.972-.064 1.463-2.304-.298-4.652-.389-6.968-.569-.08-.006-.079.117 0 .124 2.309.212 4.634.517 6.951.612-.072.717-.164 1.423-.186 2.054-.009-.006-.007-.02-.02-.02-1.91-.043-3.783-.133-5.671-.455-.077-.013-.11.104-.033.118 1.878.343 3.793.557 5.704.459.01-.001.008-.013.016-.016-.001.044-.007.092-.007.136-.005.733.005 1.475.054 2.213-1.003-.071-2.009-.117-3.013-.173-.077-.004-.077.115 0 .12 1.006.068 2.013.146 3.021.199.057.771.161 1.536.348 2.28a6.598 6.598 0 0 0-3.394-.068c-.068.016-.039.118.029.104 1.126-.241 2.226-.2 3.34.084.025.006.035-.014.048-.029.046.177.077.359.133.534.023.07.067.118.118.149.383 1.424 2.458.803 3.339-.203 2.343-2.676 4.701-6.519 5.885-9.938 1.575-.771 3.708-.582 5.402-.609 1.649-.027 3.272.174 4.91.222.028.357-.039.747-.156 1.15-1.215.065-2.401.182-3.626.139-.042-.002-.039.059 0 .063 1.158.136 2.419.184 3.58-.027-.456 1.376-1.57 2.921-2.447 4.134-1.218-.047-2.446-.004-3.664.003-.122.001-.122.189 0 .19 1.172.006 2.351.043 3.522.004a27.64 27.64 0 0 0-.639.91c-.269.408-.553.806-.833 1.206-1.536.036-3.054.025-4.588-.142-.119-.013-.117.172 0 .186 1.47.174 2.958.256 4.438.173-.6.852-1.211 1.696-1.833 2.532-1.779-.024-3.561.007-5.339.016-.102 0-.102.158 0 .158 1.731.009 3.465.037 5.197.017-.444.596-.888 1.192-1.331 1.791a.427.427 0 0 0-.08.337c-1.822-.105-3.649-.141-5.472-.198-.11-.003-.11.167 0 .171 1.819.072 3.641.166 5.461.192v.003c.095.885.515 1.62 1.051 2.295-2.173.074-4.334.151-6.511.074-.088-.003-.088.133 0 .137 2.206.096 4.434.125 6.638-.06.517.624 1.12 1.204 1.643 1.811.194.225.41.458.639.698-3.732-.319-7.498-.516-11.24-.652-.069-.003-.067.1 0 .105 3.779.313 7.59.568 11.382.693.638.662 1.362 1.373 2.039 2.124-2.361-.176-4.729-.281-7.093-.413-.054-.003-.054.081 0 .084 2.399.157 4.799.341 7.201.45a13.47 13.47 0 0 1 1.234 1.581c-1.633-.059-3.268-.093-4.901-.135-.733-.019-2.461-.445-3.03.117a.037.037 0 0 0 0 .052l.111.114c.012.013.032.011.045 0l.086-.078c.028-.026-.013-.066-.042-.042.593-.499 3.314.006 4.152.037 1.234.046 2.469.096 3.704.13.354.582.619 1.177.733 1.782-1.03 1.553-3.385 1.072-5.012 1.031z"/><path d="M47.573 36.425c-2.813-.33-5.684-.678-8.491-.922.084.007.08-.118 0-.129l-.129-.017c-.031-.004-.055.024-.065.049l-.058.15a.07.07 0 0 0 .018.069c.613.544 2.177.352 2.935.424 1.928.183 3.858.391 5.79.523.096.007.092-.137 0-.147zM46.54 15.566c-1.14.05-2.24.174-3.386.092-.108-.008-.106.157 0 .167 1.112.1 2.312.158 3.408-.093.093-.022.074-.17-.022-.166z"/></g></svg>