<svg xmlns="http://www.w3.org/2000/svg" viewBox="0 0 49.742 49.742"><g fill="#1d1d1b"><path d="M25.433.002C16.38-.134 8.171 6.365 8.082 15.699 7.963 28.277 18.31 38.407 24.054 48.731a.39.39 0 0 0 .279.212c-.118.468.409 1.039.879.692.436-.322.71-.734 1.029-1.162a.302.302 0 0 0 .053-.288c6.737-8.477 14.492-18.951 15.317-30.078C42.323 8.514 35.19.148 25.433.002zm13.918 22.881c-1.007 3.499-2.523 6.964-4.331 10.324-2.775.026-5.551.127-8.325.201-.94.025-3.649-.443-4.298.338-.032.038-.031.095.016.123l.132.077c.032.019.081.009.099-.026l.049-.094c.04-.078-.072-.145-.118-.069.319-.521 5.921-.161 6.548-.174 1.921-.039 3.844-.065 5.765-.132-.501.923-1.02 1.84-1.56 2.745a46.388 46.388 0 0 0-10.13-.269c-.083.007-.085.133 0 .131 3.365-.073 6.655.063 10 .35a92.689 92.689 0 0 1-2.326 3.677c-.004-.037-.028-.072-.078-.073-1.905-.02-3.791-.054-5.691-.214-.091-.008-.089.131 0 .141 1.882.212 3.798.33 5.691.241.01 0 .014-.007.022-.01-.563.842-1.134 1.675-1.713 2.493-1.548.131-3.074.309-4.634.314-.087 0-.087.134 0 .135 1.491.019 3.025-.013 4.502-.265a129.21 129.21 0 0 1-1.756 2.411c-1.134-.009-2.272.116-3.385.304-.054.009-.03.089.023.081 1.085-.161 2.154-.21 3.235-.216-.625.835-1.252 1.657-1.877 2.458a.533.533 0 0 0-.112.361c-.092.05-.181.106-.269.164-.006-.039-.009-.077-.026-.118-3.667-8.556-10.574-15.275-13.902-24.022-3.95-10.372.393-21.706 12.433-22.941 3.89-.399 7.2.469 9.831 2.175-3.843-.64-7.762-.868-11.651-.803-.091.001-.091.141 0 .141 4.084.036 8.075.424 12.113.973.83.588 1.59 1.258 2.271 2.005-5.165-.737-10.441-.962-15.648-1.083-.118-.003-.118.179 0 .183 5.307.186 10.562.717 15.85 1.127a15.268 15.268 0 0 1 2.016 2.93c-2.712-.215-5.458-.227-8.171-.332-.117-.005-.116.175 0 .181 2.757.141 5.54.382 8.305.403 1.999 3.955 2.471 8.889 1.1 13.654z"/><path d="M38.797 23.231c-4.137.313-8.272.609-12.413.857.048-.01.094-.014.143-.025a.291.291 0 0 0 .23-.214c3.563-1.119 6.188-4.454 5.878-8.379-.347-4.39-4.23-7.639-8.614-7.1-9.214 1.132-7.564 15.067.093 15.858-.304.016-.606.04-.91.056-.069.003-.07.11 0 .108 5.202-.159 10.411-.415 15.593-.904.161-.017.165-.27 0-.257zm-19.934-6.107c-.729-3.691 2.064-7.555 5.95-7.57 3.718-.014 6.666 2.947 6.578 6.712-.088 3.769-3.197 6.081-6.647 6.63-.068.011-.12.04-.173.068-2.811-.829-5.097-2.749-5.708-5.84zM31.637 38.105a39.867 39.867 0 0 0-7.591-.149c-.056.005-.058.088 0 .089 2.54.014 5.054.068 7.591.212.099.005.095-.141 0-.152zM36.062 30.032c-4.917.04-9.849.218-14.757.534-.079.005-.081.127 0 .124l14.757-.407c.161-.005.162-.253 0-.251zM37.113 26.553c-5.407.041-10.823.326-16.226.537-.088.003-.089.139 0 .137 5.404-.118 10.827-.163 16.226-.45.142-.008.144-.225 0-.224z"/><path d="M39.022 20.932c-2.113.005-4.216.122-6.332.066-.132-.004-.131.199 0 .205 2.095.085 4.242.16 6.332-.056.135-.014.141-.215 0-.215zM39.459 18.105c-2.011-.374-4.121-.333-6.145-.095-.103.012-.107.174 0 .165 2.07-.181 4.055-.055 6.115.15.124.012.153-.197.03-.22zM39.247 14.948c-2.08-.36-4.26-.301-6.354-.112-.11.01-.112.181 0 .173 2.133-.147 4.201.001 6.326.142.115.008.144-.183.028-.203zM39.006 12.112c-2.446-.211-4.917-.243-7.37-.349-.095-.004-.094.142 0 .148 2.452.15 4.914.376 7.37.42.143.003.138-.207 0-.219z"/></g></svg>