<svg xmlns="http://www.w3.org/2000/svg" viewBox="0 0 47.919 47.919"><g fill="#1d1d1b"><path d="M34.894 31.778c-.023-7.874.39-15.905-.357-23.749a.408.408 0 0 0-.251-.358.552.552 0 0 0-.069-.397c-.766-1.304-2.176-2.306-3.215-3.405-1.15-1.216-2.261-2.462-3.381-3.704-.255-.282-.675-.082-.762.218-.039-.007-.07-.024-.114-.025-2.868-.05-21.91-1.469-23.559 1.716-.133-.276-.571-.248-.599.119-.541 7.048-.34 14.183-.385 21.249-.044 7.049-.454 14.215.003 21.248.023.352.329.487.58.415.772 2.611 4.339 2.426 6.948 2.432 7.678.019 15.36.079 23.039.065.013 0 .022-.006.034-.007.28.335.785.481 1.193.08 1.204-1.184.927-2.34.929-4.024.006-3.956-.023-7.915-.034-11.873zM27.315 1.3a33.96 33.96 0 0 0 2.545 3.355c.638.734 1.318 1.624 2.081 2.36-1.396-.065-2.832-.013-4.204.062-.221-1.83-.331-3.677-.685-5.487a.597.597 0 0 0 .263-.29zm-8.279 13.011c4.78-.272 9.562-.323 14.347-.408-.03 1.02-.051 2.041-.06 3.063-2.552.167-5.082.514-7.643.62-.169.007-.17.266 0 .264 2.526-.036 5.15-.093 7.642-.555-.017 2.633.016 5.269.022 7.892-4.724.156-9.409.392-14.141.283-.127-.003-.126.191 0 .197 4.688.237 9.464.332 14.141-.133 0 .433.002.866 0 1.298l-.013 2.614c-.021-.052-.06-.097-.125-.096-2.354.008-4.646.162-7-.07-.197-.019-.193.284 0 .306 2.298.262 4.747.45 7.039.054a.12.12 0 0 0 .085-.056l-.008 1.715-.128.049c-.21.081-.127.363.092.332-4.85.69-10.04.501-14.949.867-.118.009-.121.191 0 .186 3.029-.13 6.057-.293 9.085-.442 1.707-.084 4.268.282 5.898-.393l-.013 2.654c-2.776.112-5.554.352-8.325.553-.174.013-.178.282 0 .274 2.772-.121 5.556-.206 8.323-.416l-.004.773c-.004.834.137 2.284.242 3.863-3.496.119-6.991.289-10.485.441-.13.006-.132.207 0 .204 3.498-.081 6.997-.145 10.495-.258.006 0 .008-.006.014-.007.056.911.096 1.85.085 2.733a.149.149 0 0 0-.106-.063c-5.453-.647-10.957-.649-16.436-.382-.121.006-.123.194 0 .19 5.5-.167 10.951.121 16.437.485a.126.126 0 0 0 .1-.035c-.017.775-.073 1.502-.197 2.112a233.535 233.535 0 0 0-26.483-.427c-.133.005-.134.208 0 .207 8.817-.065 17.594.136 26.4.558-.115.433-.267.801-.475 1.058-.04-.008-.074-.025-.12-.025-4.48-.021-8.96.046-13.439.05-3.189.004-14.503 1.347-16.186-2.309.483-6.851.184-13.825.223-20.69.038-6.839.303-13.741-.094-20.574.1.005.203-.043.221-.151C3.885.461 22.291 1.495 26.22 1.647c.001.209.015.418.02.627-1.492-.343-3.064-.371-4.581-.264-.188.013-.191.304 0 .295 1.563-.071 3.055.113 4.593.326.012.369.017.737.035 1.106-2.03-.256-4.162-.194-6.206-.236-.205-.004-.202.304 0 .316 2.046.127 4.175.368 6.224.277.063 1.243.132 2.487.088 3.73-.015.412.342.683.717.717 2.087.188 4.386.36 6.472.159.036-.003.058-.022.091-.029a87.916 87.916 0 0 0-.276 4.821c-4.794.019-9.581.331-14.36.687-.083.008-.085.137-.001.132zM45.249 8.777c-.228-1.568-.26-3.326-.834-4.807-.568-1.463-1.95-2.408-3.427-1.546a.38.38 0 0 0-.101.088c-.66-.681-1.555-1.034-2.411-.711a.28.28 0 0 0-.258-.098c-2.258.25-3.141 1.247-3.143 3.469-.004 4.114.554 8.657 1.25 12.737-.302.286-.403.881.16.967.327.05.654.075.981.086.43 8.135.797 18.418 5.283 25.378.208.322.813.12.655-.276-3.267-8.204-3.727-16.535-5.367-25.104a8.51 8.51 0 0 0 1.862-.272c.66-.174 1.471-.412 2.143-.785.145 1.041.303 2.111.464 3.193a27.92 27.92 0 0 0-.581-.023c-.39-.013-.886-.116-1.267-.014-.262.07-.434.396-.137.553.1.052.188-.095.089-.152.05-.152.141-.204.272-.157l.209.022.73.077c.247.026.495.053.742.073l.29 1.947c-.903-.07-1.808-.012-2.714.121-.157.023-.122.295.038.28.917-.089 1.824-.07 2.734-.01.122.828.242 1.661.356 2.499-.805-.077-1.664.101-2.399.4-.13.053-.083.259.06.217.803-.238 1.563-.278 2.379-.308.079.587.16 1.174.231 1.764a54.355 54.355 0 0 0-2.99-.102c-.151-.002-.147.221 0 .232 1.001.078 2.013.149 3.021.17.127 1.079.245 2.161.332 3.24-.645-.052-1.309.001-1.953.016-.163.004-.163.249 0 .253.65.016 1.322.07 1.973.016.04.526.08 1.053.108 1.577-.578.165-1.103.307-1.729.242-.144-.015-.18.235-.035.256.585.083 1.236.058 1.782-.199.043.903.07 1.802.065 2.692-.43.029-.861.076-1.286.118-.129.013-.132.214 0 .204.424-.03.853-.056 1.28-.099a39.148 39.148 0 0 1-.062 2.093 8.374 8.374 0 0 1-1.762-.012c-.094-.012-.116.149-.022.166a7.066 7.066 0 0 0 1.764.103 29.47 29.47 0 0 1-.641 4.485c-.087.381.448.52.58.16.56-1.531.917-3.148 1.123-4.818.013-.004.027-.005.04-.008.117-.034.08-.176-.021-.193.824-7.124-1.079-15.214-2.059-21.943.265-.036.509-.212.469-.513l-.994-7.531c-.228-1.727-.21-4.07-1.03-5.641-.04-.077-.09-.147-.135-.22 2.343-.61 2.482 4.524 2.634 5.573.257 1.766.473 3.544.827 5.294.125.616 1.165.487 1.108-.15-.15-1.7-.431-3.384-.676-5.069zm-7.362 6.644c1.37.235 2.978.39 4.406.104l.11.813c-.23.025-.439.162-.487.386-.709.254-1.383.628-2.135.799-.914.208-1.826.247-2.753.254-.049-2.475-.351-4.902-.644-7.36-.29-2.429-1.269-6.406 1.363-7.783.04.021.087.028.14.008 1.762-.661 2.611.903 3.052 2.754-.397-.069-.796-.131-1.193-.197-.558-.093-1.198-.305-1.759-.282-.34.014-.708.282-.374.606.137.133.336-.068.209-.209a.613.613 0 0 1 .535.012l.641.132.962.197c.361.073.722.148 1.084.217.102.51.178 1.029.236 1.52-.971-.166-2.038-.086-3.004-.109-.158-.004-.153.229 0 .243.979.09 2.052.302 3.047.234.087.826.13 1.532.182 1.913l.038.281c-.98.022-2.002.179-2.963.329-.134.021-.101.238.032.235.975-.024 2.009-.055 2.979-.209l.284 2.108c-.962.064-1.871.118-2.863-.073-.165-.032-.237.216-.07.254.943.217 2.001.346 2.984.201l.309 2.292c-1.431.12-2.788.282-4.277.077-.165-.024-.24.224-.071.253z"/><path d="M32.678 37.494c-5.02-.198-10.688-.464-15.617.595-.1.021-.073.17.023.173l.202.006c.104.003.098-.147 0-.158 2.022.24 4.672-.196 6.865-.246 2.841-.064 5.688.063 8.527-.029.219-.007.219-.333 0-.341zM32.851 22.3c-2.391.058-4.771.353-7.17.383-.156.002-.156.24 0 .243 2.371.046 4.868.085 7.205-.363.15-.029.114-.267-.035-.263zM33.033 19.899c-4.137.166-8.293.289-12.424.553-.108.007-.11.165 0 .169 4.125.125 8.307-.043 12.424-.314.26-.017.265-.418 0-.408zM33.028 10.009c-5.578-.182-11.211.152-16.791.279-.151.003-.152.236 0 .236 5.58-.016 11.22.175 16.791-.148.233-.015.236-.36 0-.367zM26.037 6.642c-2.042-.008-4.081.138-6.127.107-.15-.002-.149.226 0 .232 2.024.09 4.106.202 6.127.006.216-.021.226-.344 0-.345z"/></g></svg>