<svg xmlns="http://www.w3.org/2000/svg" viewBox="0 0 49.508 49.508"><g fill="#b7b7b7"><path d="M31.35.654c-.99-.207-2.08-.075-3.087-.046-.797.023-1.701-.086-2.337.44a.168.168 0 0 0-.059.138c-.145-.09-.343-.076-.404.147-.976 3.563-2.04 7.12-3.179 10.636-.981-3.646-2.144-7.401-3.543-10.894-.004-.01-.006-.021-.012-.03l-.02-.052a.325.325 0 0 0-.472-.177c-.59-.143-1.216-.079-1.83-.045-.803.044-1.615.075-2.412.188-.114.016-.17.111-.191.214a.257.257 0 0 0-.164.163c-1.154 3.28-2.824 6.747-3.396 10.242C9.054 8.07 7.898 4.551 6.722 1.037 6.635.779 6.351.767 6.2.905 6.191.902 6.188.893 6.179.89 5.351.604 4.406.7 3.537.686 2.55.67 1.563.654.577.641A.362.362 0 0 0 .311.74c-.195.045-.368.223-.293.45 2.105 6.306 4.056 12.694 6.176 18.99.144.427.726.247.661-.182-.92-6.11-3.201-12.901-5.899-18.529.86.06 1.72.118 2.58.176.876.058 1.786.225 2.643.007.018-.005.023-.02.04-.026.955 3.998 2.239 7.922 3.752 11.742.193.487.981.294.804-.222-.063-.184-.123-.369-.186-.553 1.858-3.303 2.527-7.444 3.555-11.05.75.097 1.511.132 2.266.173.601.033 1.215.096 1.794-.035.733 3.702 1.924 7.515 3.295 11.006a.496.496 0 0 0 .638.292c.164.206.53.27.657-.02 1.626-3.725 2.686-7.442 3.23-11.472.004-.031-.015-.052-.018-.08.678.468 1.666.277 2.458.252.714-.022 1.47.009 2.192-.08a60.538 60.538 0 0 0-1.597 3.637c-.781-.064-1.564-.112-2.344-.168-.107-.008-.106.158 0 .167.757.06 1.515.127 2.273.18-.252.624-.508 1.245-.745 1.878-.786-.1-1.582-.116-2.373-.084-.082.003-.083.13 0 .129.777-.014 1.541.049 2.306.133a83.855 83.855 0 0 0-1.088 3.094c-.757-.022-1.515-.024-2.271-.031-.084-.001-.084.129 0 .131.741.017 1.484.04 2.226.045a98.027 98.027 0 0 0-.899 2.902 6.25 6.25 0 0 1-2.169.103c-.103-.014-.102.149 0 .162.721.096 1.424.06 2.123-.113a117.834 117.834 0 0 0-1.23 4.576 192.8 192.8 0 0 0-3.217-.355c-.084-.009-.083.121 0 .131 1.062.121 2.124.242 3.188.345-.114.464-.232.93-.34 1.391-.838.103-1.678.172-2.523.172-.702 0-1.474-.134-2.15.065 0-.024.006-.046.002-.072-.565-3.676-1.037-8.316-3.158-11.539l.023-.079c.069-.263-.151-.457-.371-.459-.19-.237-.67-.11-.543.237.029.079.053.158.081.236-.233.419-.445.861-.654 1.304-.73-.08-1.461-.144-2.192-.215-.064-.006-.062.092 0 .099.708.083 1.417.172 2.126.247a31.455 31.455 0 0 0-.842 1.974c-.638-.076-1.279-.134-1.918-.198-.068-.007-.066.097 0 .106.622.077 1.244.158 1.866.224a41.792 41.792 0 0 0-.636 1.783 4.674 4.674 0 0 0-1.893.192c-.067.021-.039.125.029.106.61-.173 1.201-.205 1.818-.164a51.782 51.782 0 0 0-.659 2.188 5.944 5.944 0 0 0-2.021.223c-.066.019-.038.122.029.104.645-.173 1.297-.218 1.958-.195a64.663 64.663 0 0 0-.483 1.833c-.003.001-.003-.005-.007-.003-1.022.378-2.068.517-3.149.357-.063-.009-.092.087-.027.098 1.076.176 2.141.083 3.152-.325-.181.75-.352 1.493-.506 2.216-.069.322.375.438.488.135 1.304-3.513 2.888-7.137 3.971-10.756 1.1 3.453 1.772 6.981 2.775 10.477.067.234.257.303.428.263.013.027.023.056.051.079 1.259 1.008 3.681.65 5.167.431a.446.446 0 0 0 .26-.141.46.46 0 0 0 .328-.312c2.132-6.275 4.439-12.714 6.101-19.126.294-.162.305-.665-.07-.743z"/><path d="M11.382 20.08c-.835-.232-1.782-.257-2.645-.231-.646.019-1.525-.036-1.98.482-.066.075-.089.212 0 .283.513.414 1.176.293 1.813.326.89.046 1.78.198 2.667.217.622.014.739-.911.145-1.077zM41.961.554c-6.109-1.74-10.784 2.679-11.872 8.522-.96 5.157 1.656 10.789 6.815 12.538 4.888 1.657 10.683-1.345 11.493-6.569a.47.47 0 0 0-.474-.561c0-.268-.169-.516-.518-.483-1.526.14-2.992.071-4.516-.013-.318-.017-.413.322-.281.54-.315 2.05-2.012 3.32-4.092 2.513-1.789-.694-2.927-2.456-3.048-4.336-.024-.378-.627-.517-.704-.095-.485 2.64 1.726 5.286 4.303 5.742 2.13.377 4.614-1.217 4.442-3.478 1.265.314 2.62.364 3.896.213.004 0 .006-.003.01-.003-3.856 10.65-18.334 4.717-16.322-5.805.996-5.21 5.681-9.703 11.247-7.932.404.129.782.286 1.144.461-1.161-.121-2.327-.212-3.487-.308-.057-.005-.056.082 0 .089 1.271.143 2.55.299 3.828.404 2.037 1.1 3.383 2.906 4.095 5.012-1.296-.134-2.614-.149-3.916-.201-1.892-4.211-8.695-3.435-9.254 1.61-.025.224.166.344.357.344a.354.354 0 0 0 .131.041c2.662.308 5.794.859 8.444.341.255-.05.324-.336.239-.549.276-.043.528-.283.456-.647a5.322 5.322 0 0 0-.312-1.019c1.293.085 2.597.206 3.892.205.481 1.481.663 3.097.563 4.706-4.083-.403-9.2-.771-13.154.27-.152.04-.159.279 0 .315 2.019.457 4.137.336 6.198.352 2.389.019 4.795.14 7.18.034.345-.015.484-.287.444-.537a.343.343 0 0 0 .189-.263c.821-5.264-2.282-9.99-7.416-11.453zm-6.395 7.6c1.247-3.977 6.516-4.055 7.783.072.012.039.034.064.05.096-2.493-.433-5.292-.158-7.833-.168zM28.851 30.655c-1.102-7.38-8.643-7.728-12.965-2.941-3.119-5.235-11.02-3.316-12.552 2.37-2.075 7.701 5.991 16.044 12.197 19.195a.44.44 0 0 0 .626-.208.51.51 0 0 0 .601.015c5.837-3.57 13.222-10.868 12.093-18.431zm-.956 1.826c-1.517-.055-3.037-.065-4.555-.085-.08-.001-.08.122 0 .124 1.51.051 3.023.112 4.534.129a9.695 9.695 0 0 1-.342 1.824c-1.534.349-3.029.447-4.601.146-.104-.02-.15.139-.044.161 1.525.309 3.087.296 4.587-.104a15.367 15.367 0 0 1-1.203 2.787c-1.871.498-3.723.642-5.654.296-.091-.016-.131.122-.039.14 1.865.363 3.745.328 5.561-.188a23.914 23.914 0 0 1-2.025 3.055c-1.946.079-3.896.236-5.834.394-.094.008-.096.152 0 .148 1.895-.092 3.8-.19 5.693-.355a29.21 29.21 0 0 1-1.672 1.937c-2.045.115-4.076.191-6.131.135-.079-.002-.078.118 0 .122 1.973.109 3.973.108 5.948-.062a32.22 32.22 0 0 1-2.051 1.98c-1.937.158-3.843.339-5.795.299-.065-.001-.065.099 0 .101 1.847.071 3.744.057 5.582-.221a43.064 43.064 0 0 1-3.687 2.83.585.585 0 0 0-.246.36C12.056 45.705 8.197 42.492 5.86 38.28c-1.33-2.397-2.195-5.138-1.376-7.879 1.656-5.536 7.605-5.263 11.174-1.992.204.187.473.013.464-.22 3.275-2.561 8.612-3.987 10.861.038-1.354-.138-2.714-.236-4.07-.344-.083-.007-.081.12 0 .129 1.385.145 2.773.303 4.162.415.276.537.508 1.15.669 1.877.005.021.004.042.009.063-1.505-.338-3.102-.363-4.631-.279-.101.006-.102.163 0 .158 1.582-.066 3.095.115 4.656.303.122.651.162 1.297.117 1.932zM37.07 25.078c-.42-.931-2.294-.509-3.088-.503-1.179.009-2.035-.137-2.335 1.171-.245 1.067-.429 2.53.155 3.509.108.181.398.149.453-.059.199-.757.08-1.573.181-2.352.053-.413.046-1.055.43-1.285.237-.142 1.015.008 1.303.011.434.004.869.015 1.303.013.623-.003.81-.293.688.359-.027.145-.056.289-.085.433a4.455 4.455 0 0 0-1.997.229c-.066.023-.038.128.029.106a4.367 4.367 0 0 1 1.94-.19 33.667 33.667 0 0 0-.297 1.633c-1.009-.11-2.331.25-3.149.523-.426.142-.383.849.111.822.684-.038 1.366-.128 2.05-.184.578-.047 1.155-.03 1.68-.296.184-.093.219-.263.173-.42.012-.026.03-.048.037-.078.181-.764.288-1.553.413-2.328.059-.365.164-.762.005-1.114zM36.499 30.414c.001-.379-.579-.504-.709-.174-.035-.025-.057-.06-.103-.075-.613-.208-1.332-.101-1.972-.081-.582.018-1.212-.014-1.737.26-.127.066-.159.221-.114.346a.288.288 0 0 0-.154.225 74.727 74.727 0 0 0-.101 16.499c.042.389.488.493.7.281a.339.339 0 0 0 .161.069c.573.087 1.144.167 1.721.228.55.058 1.088.199 1.599-.047.25-.12.249-.419.11-.616a.397.397 0 0 0 .326-.419c-.133-5.516.256-10.994.273-16.496zM34.307 46.98a36.912 36.912 0 0 0-1.729-.003.354.354 0 0 0-.154.038 330.8 330.8 0 0 0-.131-15.969c.085.06.188.031.243-.038.385.069.791.063 1.179.071.638.013 1.358.113 1.968-.099-.082.642-.15 1.287-.209 1.935-.672-.006-1.345.009-2.016.015-.064.001-.064.099 0 .099.668.006 1.338.021 2.006.015a74.601 74.601 0 0 0-.268 5.384 5.337 5.337 0 0 1-1.739.187c-.074-.005-.072.106 0 .114.592.064 1.17.018 1.735-.154-.012.836-.014 1.672-.007 2.507-.783.126-1.561.239-2.36.272-.074.003-.075.116 0 .116a12.11 12.11 0 0 0 2.361-.215c.013 1.477.047 2.95.093 4.41a5.212 5.212 0 0 1-2.42-.153c-.095-.03-.135.118-.041.149a4.787 4.787 0 0 0 2.465.148l.035 1.1c.002.049.017.087.03.128-.333-.071-.697-.048-1.041-.057zM47.932 43.805c-.099-.276-.364-.332-.57-.24a.276.276 0 0 0-.271-.049c-2.875.965-1.81-3.325-1.753-4.606.073-1.615-.066-3.226-.243-4.831.775.09 1.555.174 2.33.19.313.006.501-.252.534-.534.111-.942.188-1.875.238-2.822a.389.389 0 0 0-.168-.341.437.437 0 0 0-.114-.374c-.485-.469-1.315-.498-1.964-.474a4.972 4.972 0 0 0-1.614.355c.015-.122.017-.243.03-.365l.048.006c.079.01.096-.123.019-.139-.018-.004-.037-.005-.055-.009.118-1.162.169-2.32.113-3.494-.017-.361-.393-.474-.634-.346a.433.433 0 0 0-.162-.086c-1.142-.327-2.425-.3-3.6-.221a.528.528 0 0 0-.515.516c-.058 1.356.056 2.673.285 4.006-.405-.081-.805-.015-1.214.001-.176.007-.37-.011-.545.008-.215.023-.392.141-.602.174a.176.176 0 0 0-.121.069.297.297 0 0 0-.136.206c-.136 1.17-.14 2.318-.15 3.494-.002.247.226.512.489.489.675-.059 1.65.04 2.246-.327-.42 2.463-.457 5.055-.412 7.543.034 1.876.191 3.852 1.457 5.352 1.591 1.885 5.331 2.524 7.229.822a.433.433 0 0 0 .14-.392.585.585 0 0 0 .276-.476c.063-1.007-.256-2.17-.591-3.105zm-6.574 1.951c-.892-1.361-.854-3.096-.847-4.653.011-2.494.215-4.985-.14-7.462-.023-.161-.205-.201-.339-.147a.295.295 0 0 0-.111-.104c-.534-.264-1.224-.142-1.851-.046a17.662 17.662 0 0 0-.195-2.578c.037.02.07.046.112.058.175.051.391.053.572.072.432.045.89.104 1.308-.036.227-.076.338-.312.323-.529.114-.027.219-.113.225-.247.058-1.217.124-2.432.172-3.649 1.003-.032 1.977.065 2.987.1.027.001.049-.008.074-.012-.001.42-.015.839-.034 1.258-.643-.069-1.289-.116-1.931-.172-.089-.008-.088.131 0 .139.64.061 1.284.133 1.927.181a38.35 38.35 0 0 1-.105 1.514 12.675 12.675 0 0 0-2.255-.002c-.07.006-.071.114 0 .11a13.944 13.944 0 0 1 2.241.061c-.02.209-.029.418-.054.626-.027.23.103.36.27.402.049.196.244.376.478.325a7.18 7.18 0 0 1 1.885-.131c.405.02.802.136 1.199.152-.047.284-.077.57-.117.854-1.959-.113-3.949.031-5.891.246-.069.008-.071.116 0 .11 1.963-.188 3.907-.184 5.869-.198-.057.411-.122.821-.169 1.233-.709.042-1.419.122-2.124.209a.35.35 0 0 0-.356.042c-.024.003-.048.005-.071.009-.298.038-.311.392-.056.479-.011.351-.037.702-.054 1.052-.802-.002-1.604.006-2.406.013-.064 0-.064.099 0 .099.8.007 1.6.015 2.4.013-.024.475-.042.951-.074 1.425-.003 0-.002-.004-.005-.003a6.438 6.438 0 0 1-2.318.131c-.056-.007-.07.091-.014.099.786.113 1.56.087 2.329-.114-.05.74-.104 1.479-.155 2.22l-.021.242a7.379 7.379 0 0 1-2.14.086c-.062-.007-.061.089 0 .097a6.96 6.96 0 0 0 2.128-.048c-.074.822-.193 1.707-.154 2.558a5.194 5.194 0 0 1-1.975.14c-.069-.008-.068.099 0 .108a5.127 5.127 0 0 0 1.981-.127c.028.436.096.862.245 1.261.127.339.324.631.561.868-.859 0-1.719-.001-2.578.006-.069.001-.069.107 0 .108.906.008 1.811.008 2.717.007.642.548 1.528.704 2.262.17-.018.417-.015.854.018 1.285-1.384.109-2.763.162-4.152.084-.084-.005-.083.125 0 .131 1.392.104 2.78.094 4.165-.073.041.429.116.849.245 1.229-1.835 1.169-4.854.47-6.001-1.281zM25.236 15.857c-.632-.009-1.265-.003-1.898-.001-.06 0-.06.093 0 .093.632.002 1.265.008 1.898-.001.058-.002.058-.091 0-.091zM29.685 3.383a7.857 7.857 0 0 0-2.762-.207c-.099.01-.103.165 0 .158.92-.057 1.818.01 2.723.193.093.019.133-.12.039-.144z"/><path d="M48.427 10.385c-3.44-.11-6.89-.046-10.331-.015-.064.001-.064.099 0 .099 3.441.031 6.891.095 10.331-.015.045 0 .045-.067 0-.069zM47.795 9.089c-1.192-.057-2.391-.018-3.584-.009-.096.001-.097.149 0 .15 1.193.009 2.392.048 3.584-.009.085-.003.085-.128 0-.132zM46.945 5.115c-1.33-.168-2.665-.304-3.998-.453-.063-.007-.061.089 0 .097 1.332.176 2.663.367 3.998.525.108.012.107-.156 0-.169zM45.704 3.411c-1.24-.199-2.603-.072-3.841.102-.062.009-.048.115.015.11 1.278-.109 2.531-.038 3.806-.069.079-.002.105-.129.02-.143zM35.145 43.67c-.719-.074-1.431.018-2.126.209-.082.023-.048.15.035.128.692-.182 1.378-.23 2.091-.213.081.002.078-.116 0-.124zM34.929 36.264c-.497.066-.993.14-1.489.217-.066.01-.037.108.028.1.493-.068.984-.137 1.475-.215.056-.01.043-.11-.014-.102zM34.934 34.186c-.562-.016-1.124-.009-1.687-.006-.083 0-.083.128 0 .129.562.002 1.125.01 1.687-.006.075-.003.075-.115 0-.117zM35.773 27.268c-.701-.084-1.406-.137-2.109-.197-.075-.006-.073.108 0 .116.703.073 1.405.154 2.109.203.08.006.077-.113 0-.122z"/></g></svg>