<svg xmlns="http://www.w3.org/2000/svg" viewBox="0 0 48.557 48.557"><g fill="#b7b7b7"><path d="M24.598 24.193a.284.284 0 0 0-.152-.207c-4.072-2.227-9.19-.303-11.443 3.612-2.055 3.572-1.713 9.26 2.625 10.908 3.909 1.484 9.244-.627 11.528-3.987 2.395-3.521 1.224-8.548-2.558-10.326zm-8.523 13.259l-.03-.015c.111.015.218.033.348.035.033 0 .032-.05 0-.051-.273-.007-.399-.018-.435-.029l-.012-.006c-.008-.037.896-.081 1.087-.079.639.009 1.279.012 1.918.011a80.775 80.775 0 0 0 2.509-.034c-1.811.663-3.784.855-5.385.168zm10.802-5.011c-1.598.043-3.198.177-4.793.269-.101.006-.102.163 0 .158 1.573-.072 3.155-.106 4.726-.224-.283.735-.732 1.455-1.386 2.139a8.957 8.957 0 0 1-1.098.945c-2.095.213-4.136.263-6.231-.026-.079-.011-.115.11-.034.122 2.007.299 4.036.361 6.045.065-.672.475-1.425.902-2.23 1.234-2.116-.033-4.243.034-6.359.042-3.382-1.927-3.092-6.649-1.066-9.587 2.098-3.042 5.544-3.597 8.923-3.127.479.32.918.683 1.319 1.076-1.847-.168-3.71-.133-5.559.032-.091.008-.092.151 0 .144 1.957-.157 3.875-.098 5.807.083.341.361.657.74.931 1.139-2.167-.13-4.361-.126-6.526-.144-.105-.001-.104.157 0 .163 2.22.107 4.471.241 6.7.225.271.427.51.867.686 1.325-1.745-.246-3.52-.27-5.278-.188-.097.005-.098.155 0 .152 1.771-.059 3.51.059 5.271.229.034.003.056-.015.072-.039.202.566.328 1.149.359 1.739-1.554-.108-3.131.011-4.667.242-.079.012-.061.151.019.141 1.558-.201 3.092-.223 4.654-.208a5.422 5.422 0 0 1-.285 1.879z"/><path d="M19.826 29.836c-1.137-.988-3.372-.843-3.819.719-.675.785-.835 1.984-.273 2.939.792 1.348 2.824 1.682 4.031.715 1.338-1.073 1.342-3.259.061-4.373zm-.998 3.698c-.796.39-1.888.059-2.289-.746-.24-.482-.202-1.028-.009-1.521.024-.017.054-.018.074-.042.335-.407.662-.844 1.217-.949.611-.115 1.272.222 1.605.733.526.808.299 2.085-.598 2.525z"/><path d="M47.459 15.676c.41-.418.824-.903 1.013-1.468.151-.451.063-.863.02-1.284a.591.591 0 0 0 .041-.311c-.008-.055-.033-.099-.044-.152.004-.058-.003-.114.007-.174a.321.321 0 0 0-.193-.353c-.607-1.161-2.19-1.511-3.448-1.163-.942.26-1.775.834-2.526 1.444-.945.769-1.744 2.136-2.764 2.912-.151-.235-.56-.309-.794-.112-.917-.109-1.283-.471-1.098-1.086.024-.306.091-.602.201-.89.155-.467.415-.905.671-1.322.416-.677.894-1.274 1.097-2.058.251-.967.075-1.934-.785-2.48-.033-.021-.065-.015-.098-.021-3.317-2.302-8.196 3.946-9.859 5.998l-.001.002c-.604.227-1.235.466-1.223-.666.004-.408.416-1.147.552-1.513.383-1.028.896-2.137.888-3.261-.006-1.098-.656-2.016-1.622-2.206a.447.447 0 0 0-.434-.279c-2.141.065-3.918 1.314-5.308 2.875-.788.885-1.447 1.872-2.097 2.86-.81 1.231-1.758 3.422-3.354 3.755-.735-.889.42-4.573-.013-5.45-.442-.896-1.47-1.104-2.345-.711-1.279.576-2.116 2.358-2.681 3.529-.689 1.429-1.145 4.318-2.566 5.317-.906-.797-.508-3.895-2.852-3.385-2.799.609-4.463 6.962-5.163 9.271-2.722 8.972 3.049 15.946 11.522 18.525 9.219 2.805 20.115 1.842 27.892-4.154 5.696-4.392 10.827-12.828 5.166-19.212.245-.414.332-.905.682-1.306.462-.531 1.024-.97 1.516-1.471zM36.848 38.425c-1.311.081-2.622.191-3.931.313 1.156-.618 2.187-1.366 3.058-2.242 1.269 0 2.536-.054 3.8-.174a25.16 25.16 0 0 1-2.927 2.103zm-2.767-1.983C25.755 42.91 4.82 40.226 6.697 27.968c5.327-9.192 25.989-13.503 30.136-1.21 1.411 4.183.115 7.374-2.592 9.559l-.139-.001c-.082-.003-.079.092-.021.126zm5.922-.315a69.96 69.96 0 0 1-3.853.188c.45-.475.847-.991 1.195-1.541 1.366.008 2.734.025 4.1.012-.467.466-.946.918-1.442 1.341zm4.47-19.2c-1.91.017-3.824.14-5.731.214-.108.004-.109.172 0 .169 1.865-.05 3.74-.056 5.604-.157-.271.538-.355 1.105.049 1.577a.379.379 0 0 0 .121.085.367.367 0 0 0 .051.111c.07.093.13.187.197.281-2.285-.05-4.581.028-6.866.036-.091 0-.091.141 0 .141 2.333.008 4.679.09 7.013.033a9.663 9.663 0 0 1 1.138 2.253c-2.421-.166-4.881-.127-7.306-.152-.078-.001-.077.117 0 .12 2.441.098 4.915.263 7.359.216.456 1.43.527 2.879.29 4.305-1.845-.045-3.698.014-5.543.027-.109.001-.109.168 0 .169 1.831.014 3.67.07 5.501.028a11.455 11.455 0 0 1-.441 1.69c-1.966-.125-3.951-.014-5.908.19-.095.01-.096.159 0 .15 1.951-.188 3.88-.183 5.834-.136a14.383 14.383 0 0 1-.879 1.922c-1.718-.056-3.443-.016-5.161-.012-.117 0-.117.181 0 .181 1.69.004 3.387.041 5.078-.011a18.665 18.665 0 0 1-1.651 2.442c-1.424.162-2.811.168-4.243-.098-.107-.02-.154.144-.045.165 1.36.263 2.748.328 4.117.147a23.109 23.109 0 0 1-1.441 1.611c-1.391-.017-2.784 0-4.175.01a9.534 9.534 0 0 0 1.346-4.021c1.771-17.009-29.496-15.615-33.41-2.234-.078.267.095.494.316.586-1.661 10.784 16.85 15.021 26.908 9.953 1.311-.081 2.623-.177 3.93-.297-.251.148-.502.291-.75.424a26.216 26.216 0 0 1-3.4 1.506c-2.447.198-4.892.449-7.337.672-.059.005-.06.098 0 .093 2.27-.196 4.545-.371 6.815-.582-6.917 2.372-15.027 2.151-21.646-.603-4.513-1.878-8.274-5.141-9.129-10.185-.523-3.083.808-10.555 3.384-12.909 2.371-2.167 2.548.532 3.79 1.049.011.008.024.01.037.017.29.108.638.099 1.083-.116.114-.055.117-.194.06-.292 2.148-1.453 1.939-5.475 3.816-7.159.211-.457.624-.549 1.239-.275 1.025-.384 1.349-.135.972.747-.03.179-.07.357-.108.535a10.563 10.563 0 0 0-2.751-.089c-.084.008-.086.139 0 .133.924-.067 1.81.005 2.712.15-.068.306-.138.612-.201.918l-.046.221a9.942 9.942 0 0 0-2.061.262c-.066.015-.038.115.028.102a9.728 9.728 0 0 1 1.996-.189c-.101.481-.184.973-.069 1.455.022.094.053.182.087.269a24.7 24.7 0 0 0-2.236.055c-.072.005-.072.107 0 .112.761.055 1.558.073 2.341.052.32.583.913.905 1.613.622a.36.36 0 0 0 .225-.293c1.209-.267 2.017-1.468 2.767-2.521 2.102-2.954 3.677-5.697 7.436-6.595.038-.009.066-.029.097-.045.457.223.656.596.702 1.059-1.059-.158-2.158-.06-3.193.18-.11.026-.063.192.047.169 1.087-.233 2.101-.217 3.159-.104a4.339 4.339 0 0 1-.164 1.04c-1.502-.156-3.058.042-4.51.401-.096.024-.056.171.041.148 1.491-.349 2.918-.377 4.409-.338-.313 1.062-.868 2.26-1.139 3.279-.953.089-1.899.12-2.867.042-.11-.009-.109.161 0 .171a14.74 14.74 0 0 0 2.818-.002c-.134.585-.162 1.105.039 1.484.64 1.206 2.276.916 3.117.096a.426.426 0 0 0 .092-.484c1.215-.972 2.343-2.044 3.492-3.096 1.667-1.527 3.089-2.566 5.388-1.831.035.326-.027.636-.13.938-1.071-.041-2.15.003-3.222.013-.098.001-.098.151 0 .152 1.053.01 2.114.051 3.167.014a5.878 5.878 0 0 1-.583 1.03c-1.357.077-2.714.299-4.062.464-.105.013-.107.179 0 .167 1.315-.149 2.652-.25 3.958-.476-.327.474-.674.945-.905 1.434l-.006.016c-1.097.152-2.191.334-3.285.511-.093.015-.053.153.039.14 1.06-.153 2.121-.303 3.177-.478-.21.477-.389 1.004-.451 1.542-1.054.1-2.107.214-3.159.323-.08.008-.082.134 0 .127 1.047-.096 2.095-.187 3.141-.292-.031.425.01.849.167 1.244.394.99 1.539 1.439 2.346 1.021.025 0 .048.004.076-.001 2.46-.465 6.167-7.036 8.572-3.242.013.021.03.033.045.05-1.342-.109-2.722.018-4.044.222-.129.02-.073.213.054.195 1.325-.186 2.617-.187 3.941-.183-.068.274-.162.543-.354.792-.459.599-1.092 1.051-1.646 1.555-.337.308-.777.77-1.083 1.273z"/><path d="M25.87 33.831c-1.909.292-3.748.491-5.681.365-.091-.006-.09.134 0 .141 1.902.146 3.861.103 5.719-.366.093-.023.052-.154-.038-.14zM46.132 23.598c-2.569.426-5.015.632-7.61.352-.087-.009-.084.124 0 .135 2.525.333 5.175.31 7.653-.334.099-.027.055-.169-.043-.153zM46.127 14.897c-1.2.058-2.398.164-3.596.259-.111.009-.113.183 0 .175 1.199-.08 2.399-.148 3.596-.265.106-.011.11-.175 0-.169zM27.145 9.97c-1.041-.092-2.117-.007-3.163.004-.08.001-.08.123 0 .124 1.045.011 2.121.096 3.163.004a.066.066 0 0 0 0-.132z"/></g></svg>