<svg xmlns="http://www.w3.org/2000/svg" viewBox="0 0 51.888 51.888"><g fill="#1d1d1b"><path d="M16.095 45.257c-3.243-8.982-6.172-18.229-10.059-26.954-.113-.253-.519-.073-.443.187.053.181.112.36.165.54-.155-.108-.394-.112-.492.089-4.277 8.729 1.076 22.403 10.008 26.254l.038.101c.18.483.961.277.783-.217zM5.873 19.407c2.525 8.434 5.92 16.706 9.018 24.951-7.688-5.386-12.364-15.903-9.018-24.951zM32.557 46.548c-1.564-5.548-3.474-11.01-5.519-16.397a.95.95 0 0 1 .017-.049c.209-.623-.755-.873-.976-.269-.232.633-.467 1.266-.701 1.899a60.638 60.638 0 0 0-1.859.014c-.07.002-.071.108 0 .11.602.016 1.206.016 1.808.014l-.996 2.7c-.481.046-.962.088-1.443.137-.081.008-.083.136 0 .129.466-.043.93-.093 1.396-.138l-1.009 2.734a7.083 7.083 0 0 1-1.441-.003c-.061-.007-.059.087 0 .095a7.36 7.36 0 0 0 1.386.057c-.293.795-.589 1.589-.88 2.385-.802-.01-1.604-.001-2.406.001-.075 0-.075.116 0 .116.787.002 1.575.01 2.362.001-.344.942-.697 1.882-1.033 2.827a4.97 4.97 0 0 0-2.204.43c-.046.021-.013.103.035.083a5.242 5.242 0 0 1 2.128-.397c-.296.831-.595 1.661-.882 2.494-.767.059-1.534.122-2.3.185-.058.005-.058.095 0 .091.757-.061 1.513-.123 2.27-.188-.151.437-.309.873-.457 1.311-.047.139.014.259.113.336-.038.166.028.346.249.398 3.899.925 7.836 1.078 11.746.083.335-.085.411-.378.321-.621.205-.084.355-.282.275-.568zm-12.008.423c2.384-5.149 4.358-10.532 6.176-15.91 1.421 5.296 2.988 10.57 4.856 15.726-3.68.623-7.334.797-11.032.184z"/><path d="M27.671.056C13.578-.949.056 11.658.172 25.749c.111 13.424 9.643 27.67 24.462 26.005a.544.544 0 0 0 .336.125c13.467.322 25.738-9.722 26.687-23.445.957-13.843-9.81-27.367-23.986-28.378zm22.561 23.638c-.93-.08-1.867-.027-2.789.105a21.12 21.12 0 0 0-.368-2.383 15.563 15.563 0 0 0 2.695-.248c.191.833.356 1.673.462 2.526zm-1.802-6.622c.247.591.477 1.189.679 1.797-.87-.016-1.741.001-2.61.007-.083.001-.083.128 0 .129.886.006 1.775.025 2.661.007.214.656.407 1.319.567 1.991a47.72 47.72 0 0 1-2.69.244 20.572 20.572 0 0 0-1.342-4.131c.9.015 1.804.038 2.701-.008.023-.002.024-.022.034-.036zM38.081 42.713c-.021-.004-.042-.004-.063-.008.451-1.025.909-2.076 1.365-3.144 0-.007.009-.009.007-.016 2.762-6.47 5.448-13.64 6.101-20.408 2.032 9.422-.054 18.064-7.879 24.489l.352-.799c.028.004.055.005.083.008.079.011.115-.106.034-.122zm10.308-25.735c-.915-.047-1.837-.022-2.755-.007l-.008-.018a.362.362 0 0 0-.099-.225c-.058-.122-.102-.248-.162-.369-.142-.286-.598-.086-.511.215.017.058.029.115.045.173a.376.376 0 0 0-.063.145c-.019.092-.042.182-.062.273-1.04-.023-2.087.001-3.125.022-.085.002-.086.131 0 .133 1.025.02 2.058.044 3.085.022-.066.287-.132.575-.196.863-.973-.047-1.958.038-2.914.182-.051.008-.04.098.012.091.963-.12 1.906-.124 2.863-.099a92.524 92.524 0 0 1-.53 2.197c-.633.051-1.267.124-1.897.189-.102.011-.105.171 0 .162.616-.053 1.236-.101 1.852-.167-.247.973-.503 1.941-.771 2.905a7.828 7.828 0 0 1-1.923.015c-.112-.014-.11.161 0 .175a6.724 6.724 0 0 0 1.869-.004c-.32 1.144-.642 2.288-.986 3.423-.576-.003-1.153.001-1.729.007-.118.001-.118.182 0 .184.556.006 1.113.01 1.669.008-.433 1.42-.877 2.837-1.338 4.248a3.518 3.518 0 0 1-1.362-.214c-.106-.039-.151.129-.047.169.428.165.883.254 1.338.258a444.025 444.025 0 0 1-1.193 3.592 4.494 4.494 0 0 1-1.592-.17c-.004-.001-.007.002-.012.001 1.185-3.402 2.209-6.941 2.547-10.487.132-1.384.147-2.697-.266-4.039-.3-.974-2.006-3.531-2.752-5.837 3.296.158 6.673.165 9.965.026.046-.002.068-.033.075-.067.35.662.681 1.335.973 2.025zM32.89 13.943c.066-.443-.408-.693-.698-.506-2.086-.317-4.264-.055-6.369.017-1.081.037-2.162.078-3.242.126-.835.037-3.188.599-3.83-.066-.084-.087-.18-.092-.27-.069a.392.392 0 0 0-.416.172c-.241.4-.215.896-.21 1.353.006.484.032.971.159 1.44.009.031.033.041.047.066-.007.112.021.224.116.3.81.648 2.302.383 3.308.072.222 2.873 1.335 5.991 2.407 8.655-.925 1.799-1.467 3.798-2.087 5.718-.463 1.433-1.113 2.952-1.38 4.476-2.18-6.226-4.572-12.43-6.881-18.607.376.062.75.126 1.129.177.505.067.993.251 1.401-.122.011-.01.01-.029.02-.041.216.001.425-.141.439-.433.036-.769-.025-1.542.017-2.316.01-.184-.101-.345-.242-.455a.367.367 0 0 0-.33-.336c-2.172-.272-4.308-.398-6.493-.306 8.296-8.12 19.104-9.407 29.081-3.455-2.241.61-3.015 2.828-2.369 5.276 1.024 3.881 3.409 5.993 2.919 10.48-.42 3.854-1.704 7.792-2.821 11.526-1.648-6.734-4.17-13.673-6.749-20.097.944.227 2.063.389 2.81-.037a.359.359 0 0 0 .183-.333c.127-.044.23-.144.264-.326.139-.762-.029-1.57.087-2.349zm7.938 31.598c-.01-.003-.011-.017-.023-.015-2.115.305-4.184.594-6.324.648-.09.002-.09.139 0 .139 2.026-.001 4.113-.141 6.098-.588a25.708 25.708 0 0 1-3.024 1.909c-2.07.273-4.138.403-6.236.344-.072-.002-.072.109 0 .112a35.37 35.37 0 0 0 5.713-.186 26.139 26.139 0 0 1-12.062 2.815.51.51 0 0 0-.457.24C9.96 49.693.579 38.998 1.338 24.016c.677-13.364 14.764-24.8 27.895-22.572 1.177.2 2.317.502 3.428.87a47.31 47.31 0 0 0-2.818-.102c-.079-.001-.079.121 0 .122 1.195.029 2.38.122 3.563.238 1.124.415 2.216.9 3.26 1.468-1.22-.059-2.442-.098-3.661-.144-.09-.003-.089.135 0 .139 1.319.061 2.64.13 3.96.17a25.771 25.771 0 0 1 2.955 1.926c-1.46-.069-2.924-.104-4.384-.156-.084-.003-.084.127 0 .131 1.535.069 3.074.159 4.612.203a26.074 26.074 0 0 1 2.194 1.883c-1.037.177-1.957.194-3.003-.04-.043-.01-.059.051-.018.065.991.351 2.146.416 3.159.108a26.856 26.856 0 0 1 2.249 2.507c-1.724-.094-3.479.049-5.187.261-.075.009-.078.128 0 .12 1.782-.176 3.547-.175 5.333-.2a26.791 26.791 0 0 1 2.494 3.848c-.009-.004-.015-.012-.027-.012a111.61 111.61 0 0 0-10.003.027c-.646-2.079-.472-3.928 2.277-4.189.657-.062.681-1.075 0-1.044-.064.003-.115.022-.177.027a.534.534 0 0 0-.176-.663c-9.494-6.891-22.999-5.267-30.45 3.809a.4.4 0 0 0-.014.503c-.542.197-.498 1.096.174 1.094 2.152-.004 4.298-.079 6.446-.138-.006.029-.026.047-.029.079-.052.6-.038 1.308.104 1.936-.193-.034-.4-.043-.618-.068a39.075 39.075 0 0 0-1.744-.159c-.405-.028-.575.474-.399.76 1.905 6.983 4.368 14.203 7.467 20.748.203.429.926.127.771-.325-.038-.111-.079-.221-.117-.332.984-1.452 1.411-3.32 1.964-4.967.68-2.023 1.505-4.077 1.841-6.188.089-.089.138-.219.091-.39-.776-2.837-1.399-5.941-2.484-8.665a.435.435 0 0 0-.272-.244c.029-.2-.085-.417-.346-.441-.608-.057-1.219-.07-1.83-.089-.386-.012-.786-.055-1.157.029.013-.329.019-.659.051-.988.018-.188.052-.375.076-.562 1.109.692 3.263.21 4.332.19 2.838-.054 5.968.149 8.769-.452-.156.637-.265 1.376-.095 1.973-.392-.028-.8.04-1.189.048-.597.013-1.196-.01-1.791-.06-.248-.021-.36.217-.315.416.002.033-.002.063.009.1 1.98 7.156 4.375 14.786 7.431 21.558.074.164.232.186.364.129.204.076.47.013.569-.252.315-.846.627-1.706.93-2.573.006.005.008.012.017.015a4.55 4.55 0 0 0 1.569.211c-.447 1.324-.897 2.649-1.347 3.978-.492.079-.985.155-1.477.236-.099.016-.057.166.042.151.461-.073.921-.152 1.382-.227-.308.91-.616 1.822-.921 2.736a14.96 14.96 0 0 0-2.376-.103c-.085.004-.086.134 0 .133a22.29 22.29 0 0 1 2.328.114c-.156.469-.314.936-.469 1.407-.084.258.148.468.376.486.121.42.707.752 1.172.379.441-.354.862-.729 1.277-1.11 1.137.016 2.277.03 3.415.017a24.52 24.52 0 0 1-1.962 1.632zm2.152-1.812a111.99 111.99 0 0 0-3.429.013 25.824 25.824 0 0 0 2.564-2.782c1.208.107 2.428.021 3.58-.382.1-.035.061-.188-.044-.161-1.141.294-2.261.444-3.42.387.506-.646.97-1.32 1.411-2.008.755-.091 2.28-.037 3.368.009a24.21 24.21 0 0 1-4.03 4.924zm4.101-5.053c-.759-.005-1.518-.012-2.277-.008-.293.001-.688-.057-1.053-.044a25.635 25.635 0 0 0 1.72-3.24c1.077.161 2.183.192 3.258.01a23.09 23.09 0 0 1-1.648 3.282zm1.757-3.536c-1.099.138-2.165.182-3.275.039.486-1.119.885-2.27 1.199-3.441 1.01.178 2.055.285 3.066.221a22.901 22.901 0 0 1-.99 3.181zm1.532-6.705a23.068 23.068 0 0 1-.513 3.398c-1.027-.074-2.036-.143-3.052-.269.259-.996.437-2.009.563-3.028.915.072 1.864.063 2.751-.143.087-.02.07-.163-.021-.157-.911.056-1.797.12-2.702.096.072-.63.108-1.263.127-1.897.968.073 1.937.146 2.907.182.001.603-.014 1.209-.06 1.818zm-2.843-2.216a22.27 22.27 0 0 0-.07-2.251c.938-.101 1.865-.104 2.805-.072.095.827.159 1.66.168 2.5a73.988 73.988 0 0 0-2.903-.177z"/><path d="M34.018 48.934c-2.702.538-5.25.778-7.997.508-.059-.006-.073.094-.014.104 2.649.415 5.477.328 8.049-.473.088-.028.052-.156-.038-.139zM45.234 12.968c-2.67-.037-5.342.009-8.012.025-.056 0-.056.086 0 .087 2.67.016 5.342.062 8.012.025.088-.001.088-.135 0-.137z"/></g></svg>