<svg xmlns="http://www.w3.org/2000/svg" viewBox="0 0 49.694 49.694"><g fill="#1d1d1b"><path d="M48.943.58c-.081-.353-.502-.257-.6.022-.023-.006-.038-.02-.063-.024-2.687-.381-5.389-.419-8.099-.379-2.472.037-5.445-.311-7.756.627a.21.21 0 0 0-.13.164c-.279-.288-.867-.024-.793.47.703 4.708.654 9.45.491 14.193-2.809.024-5.617.044-8.425.084-2.068.03-4.164.004-6.268-.021.182-3.946.353-7.898.262-11.824a.226.226 0 0 0-.012-.305c-.025-.918-.048-1.836-.107-2.75-.007-.115-.079-.195-.166-.254a.636.636 0 0 0-.465-.237c-5.197-.367-10.567-.387-15.655.865-.007-.03-.012-.06-.02-.089-.044-.159-.268-.152-.315 0-.018.057-.028.117-.045.175l-.068.016c-.353.093-.372.57-.127.748C.098 4.367.301 6.893.251 9.221c-.05 2.322-.561 5.219.037 7.471.05.19.217.372.414.414l.305.065a.532.532 0 0 0 .423-.078c4.756.316 9.575.17 14.386.056-.002 2.024.004 4.043-.015 6.043-.026 2.752-.045 5.507-.053 8.261-4.51-.134-9.08-.16-13.299.662-1.478-.869-1.917.596-2.003 1.932-.313 4.862.061 9.875-.179 14.775-.027.559.59.699.943.44 5.003.689 10.406.014 15.432-.133.689-.02.853-.843.497-1.223a.58.58 0 0 0 .149-.407c-.067-4.745-.177-9.488-.24-14.232 2.317-.098 4.605-.202 6.805-.207 2.621-.006 5.243-.002 7.865.003.057 4.976.197 9.953.422 14.92.025.555.57.764.968.623l.048.007c-.238.066-.281.102 1.34.22 1.439.104 2.887.122 4.329.159 2.883.074 5.772.184 8.655.202a.662.662 0 0 0 .397-.126.63.63 0 0 0 .427-.01c.09-.03.196-.106.21-.21l.015-.111c.004-.03-.009-.059-.015-.088h.001c.075-.024.146-1.329.151-1.42.11-1.918-.035-3.83.136-5.75.275-3.08.559-5.922-.307-8.906.205-.467-.017-1.133-.683-1.134-4.888-.012-9.778.042-14.667.099-.04-2.813-.06-5.627-.009-8.444.035-1.956.126-3.912.209-5.867 4.908.035 9.817-.03 14.711-.335a.674.674 0 0 0 .634-.526c.333.096.759-.081.776-.536.189-4.931.591-10.414-.523-15.25zM1.458 48.648c.175-2.608.318-5.22.365-7.833.013-.742-.398-7.71.47-8.054 4.264.81 8.891.739 13.451.559 0 .504.006 1.008.01 1.512-2.188-.203-4.459-.016-6.618.315-.192.029-.149.364.046.342 2.208-.252 4.366-.237 6.574-.228l.009 1.347c-3.654.048-7.316.341-10.949.708-.157.016-.162.261 0 .25 3.65-.255 7.298-.36 10.952-.496.005.547.004 1.095.011 1.642a.146.146 0 0 0-.104-.044c-2.381.002-4.811.408-7.18.646-.148.015-.153.246 0 .236 2.388-.159 4.862-.166 7.223-.56.031-.005.045-.025.064-.042a270.8 270.8 0 0 0 .229 8.551.66.66 0 0 0 .058.235c-4.786.17-9.921-.042-14.611.914zM16.419 3.377c-4.41-.64-8.918-.678-13.352-.358-.145.01-.148.234 0 .228 4.484-.163 8.865.133 13.305.602-.042.408-.085.817-.121 1.226-2.827-.39-5.795-.401-8.632-.255-.169.009-.171.26 0 .264 2.874.069 5.73.296 8.597.418-.043.513-.092 1.024-.126 1.539-.023-.013-.041-.031-.073-.033-2.833-.148-5.738.137-8.574.232-.158.005-.159.247 0 .246 2.836-.024 5.75.137 8.574-.13.025-.002.037-.019.056-.028a111.443 111.443 0 0 0-.177 3.927c-2.655.058-5.272.227-7.933.117-.175-.007-.172.257 0 .271 2.605.204 5.329.298 7.926-.073-.016.639-.034 1.278-.043 1.918-4.135-.023-8.295.266-12.425.436-.158.007-.159.249 0 .246 4.13-.08 8.297-.044 12.421-.316-.007.616-.019 1.232-.022 1.847-4.777-.049-9.584-.026-14.229.723a.584.584 0 0 0-.178-.217c-.678-.49.055-6.986.064-8.137.015-1.969.203-4.026-.129-5.975 5.129-.339 10.14-.804 15.293-.47a51.104 51.104 0 0 0-.222 1.752zM31.743 23.11c-4.023.271-8.05.66-12.06 1.074-.15.016-.156.248 0 .239 4.016-.234 8.044-.496 12.05-.873-.011.511-.031 1.023-.035 1.534v.08c-2.837.029-5.682.229-8.515.37-.142.007-.143.224 0 .222 2.834-.058 5.685-.058 8.515-.228a287.32 287.32 0 0 0 0 2.076c-3.367.182-6.708.471-10.086.474-.233 0-.233.36 0 .362 3.351.028 6.759-.015 10.086-.484v1.336l-.07-.02c-.208-.059-.325.233-.145.344-1.21-.746-5.286.268-6.619.353-1.108.071-2.216.135-3.324.194-.824.044-3.43.606-4.078.233.109.063.19-.092.096-.164l-.091-.07c-.037-.028-.094-.012-.124.016l-.111.102c-.059.054-.047.168.026.205 1.508.742 4.292.078 5.945.003 2.835-.13 5.666-.327 8.497-.538.002.535-.004 1.069 0 1.603-2.615.031-5.23.06-7.845.08-2.209.017-4.504-.066-6.828-.141a365.4 365.4 0 0 1-.014-7.329c.023-2.339.119-4.69.225-7.045 2.444-.053 4.884-.087 7.311-.034 2.461.054 4.926.1 7.39.127a375.605 375.605 0 0 0-.196 5.899zm15.946 9.91c.009.548.031 1.09.053 1.632-3.395-.128-6.854.134-10.22.522-.185.021-.192.31 0 .295 3.419-.263 6.814-.293 10.235-.374.023.574.047 1.147.056 1.722a.17.17 0 0 0-.143.076c-.543.823-4.547.472-5.503.523-1.721.093-3.442.191-5.163.29-.182.01-.184.291 0 .285 2.725-.096 5.45-.2 8.175-.306.697-.027 2.102.269 2.64-.316 0 .658-.017 1.319-.084 1.99-1.823.03-3.67.293-5.484.449-.158.014-.162.259 0 .25 1.806-.108 3.657-.121 5.455-.347-.089.785-.18 1.567-.257 2.348-2.161.329-4.229.624-6.422.542-.168-.006-.166.25 0 .26 2.115.124 4.331.069 6.393-.472a37.538 37.538 0 0 0-.155 2.325c-4.239.127-8.465.385-12.709.43-.165.002-.165.254 0 .257 4.218.057 8.499.057 12.703-.329-.005.292-.018.583-.013.876.005.277-.048 1.09.033 1.821-4.55-.294-9.217-.45-13.767-.138-.101-4.858-.256-9.711-.344-14.566 4.841.009 9.682.014 14.521-.045zm.365-17.511c-4.883.057-9.766.092-14.649.13.179-4.843.188-9.669-.989-14.431-.002-.007-.006-.011-.008-.018.007.003.009.009.016.012 2.222.759 4.861.26 7.187.222 2.853-.046 5.669.079 8.513.303.034.003.061-.01.092-.013-.047.542-.07 1.089-.094 1.637-4.099-.144-8.257.144-12.344.385-.186.011-.189.298 0 .292 4.1-.123 8.221-.031 12.317-.205a62.138 62.138 0 0 0-.03 2.288c-2.454-.076-4.935.089-7.39.148-.19.004-.191.296 0 .295 2.455-.005 4.941.096 7.392-.043.007.714.02 1.43.041 2.146-2.625.351-5.122.613-7.785.339-.24-.025-.235.345 0 .373 2.545.302 5.277.351 7.799-.25.044 1.395.096 2.789.132 4.171-3.984.42-8.171 1.541-12.13 1.189-.169-.015-.162.24 0 .26 2.236.278 4.561-.19 6.791-.429 1.784-.191 3.572-.363 5.35-.601.014.618.024 1.233.025 1.845a.665.665 0 0 0-.236-.045z"/><path d="M15.676 45.284c-4.615.442-9.189.736-13.828.651-.134-.002-.133.202 0 .208 4.626.188 9.279.084 13.872-.534.183-.025.142-.343-.044-.325zM14.965 43.075c-3.382.371-6.739.743-10.142.873-.135.005-.136.213 0 .211 3.399-.058 6.825-.223 10.19-.731.197-.031.153-.375-.048-.353zM15.503 41.14c-2.251-.054-4.585.385-6.837.546-.172.012-.175.278 0 .271 2.243-.095 4.681-.031 6.876-.527.166-.037.124-.286-.039-.29zM15.488 9.338c-3.879-.467-7.851-.241-11.72.211-.126.015-.13.212 0 .2 3.933-.361 7.786-.218 11.72-.042.243.011.23-.342 0-.369zM31.232 20.498c-2.517.232-4.987.548-7.521.57-.195.002-.195.3 0 .302 2.509.034 5.102-.008 7.573-.486.215-.041.17-.407-.052-.386zM31.407 18.552c-4.127-.14-8.303.127-12.419.43-.17.012-.173.275 0 .267 4.142-.192 8.277-.16 12.419-.271.274-.008.273-.416 0-.426zM47.673 11.783c-3.825-.006-7.733.271-11.544.609-.106.009-.11.169 0 .169 3.823-.009 7.738-.091 11.544-.444.21-.019.219-.333 0-.334z"/></g></svg>