<svg xmlns="http://www.w3.org/2000/svg" viewBox="0 0 49.552 49.552"><g fill="#b7b7b7"><path d="M10.32 13.408a.52.52 0 0 0-.264-.536c-.016-.045-.024-.091-.067-.131-.624-.588-1.828-1.055-2.674-.689-2.211.267-2.358 1.932-2.39 4.052-.069 4.65-.374 9.523.148 14.145.039.347.324.486.569.429.194.454.589.811 1.096.989.973.342 2.159.013 3.034-.457a.439.439 0 0 0 .197-.214.221.221 0 0 0 .144-.182c1.01-5.789-.628-11.644.207-17.406zM6.016 30.06c.279-2.613.162-5.267.159-7.894-.002-1.755-.732-7.552.949-9.162.038.027.072.062.114.078.387.148.795.032 1.196.03.313-.001.618.058.923.122-.612 2.604-.298 5.145-.131 7.793.194 3.081-.024 6.201.277 9.27-.037.001-.073-.003-.112.007-1.028.26-2.657.922-3.375-.244zM19.046 14.825c.119-.01.224-.091.213-.246a2.424 2.424 0 0 0-.49-1.325l-.014-.078c-.02-.099-.099-.138-.182-.146-.983-.988-2.815-1.106-4.18-.743-.01.003-.016.009-.026.013-.19-.081-.444-.006-.452.268a241.726 241.726 0 0 0 .095 18.001c.018.424.438.568.732.438.946.534 2.16.647 3.139.118.779-.421 1.415-1.337 1.092-2.215.751-4.574.798-9.493.073-14.085zm-.713 13.931c-.016.024-.04.041-.049.069-.249.704-.455 1.306-1.224 1.589-.654.24-1.362.189-2.038.093a241.838 241.838 0 0 0-.411-17.134c1.189-.024 2.85-.338 3.725.602.126 4.956.147 9.828-.003 14.781z"/><path d="M23.076 38.471a.37.37 0 0 0-.206-.228.5.5 0 0 0-.244-.446c-.475-.282-1.002-.196-1.537-.185-.598.013-1.201.028-1.795.095a.555.555 0 0 0-.409.234c-.094.031-.179.086-.218.195-.544 1.517-.67 3.043-.587 4.626-1.103-.142-2.347-.291-3.42-.117.286-2.711.097-5.535-.026-8.246-.001-.025-.013-.043-.016-.066.792.157 1.607.19 2.411.232.875.046 1.824.195 2.66-.113a.572.572 0 0 0 .38-.47c2.211-.631 2.802-2.762 2.881-5.218.104-3.253-.102-6.506.031-9.765.112-2.738.316-5.375-.538-7.983.191-1.413-.959-2.655-2.207-3.219-1.898-.858-4.311-.472-6.323-.221.319-1.741.586-3.842.283-5.557-.223-1.262-1.156-1.031-2.254-.886-.963.127-2.789-.061-3.022 1.179-.157.83.075 1.847.143 2.681.083 1.011.161 2.017.33 3.018.007.044.025.078.042.112-2.619-.103-5.696-.717-7.442 1.698C.507 11.877.146 15.632.43 18.07c.031.261.188.408.369.456-.294 2.069-.387 4.138-.496 6.25-.106 2.054-.659 4.551.064 6.513 1.308 3.547 5.434 3.657 8.616 3.344-.455 2.724-.499 5.699.307 8.346-2.547-.418-5.21-.448-7.775-.364a.289.289 0 0 0-.143.003h-.008c-.006 0-.01.003-.015.004-.023.007-.047.003-.067.016-.245.072-.348.398-.21.58-.338 1.616-.43 3.604.2 5.097.123.292.431.29.649.145 5.603.448 11.521.721 17.114.267a.445.445 0 0 0 .294-.132c1.614-.25 3.074-.909 3.864-2.539 1.045-2.159.586-5.412-.117-7.585zm-.809 5.618c-.38 2.294-2.107 3.06-4.052 3.715-5.247-.577-10.815-.427-16.065.024-.01-.779-.204-1.559-.259-2.337-.049-.694-.075-1.389-.107-2.084 2.651.409 5.411.729 8.079.544.302-.021.476-.334.425-.581a.451.451 0 0 0 .083-.297c-.21-3.019-.593-5.953-.551-8.994a.332.332 0 0 0-.144-.277c-.071-.164-.224-.288-.472-.277-3.055.136-6.889.488-7.847-3.792-.242-1.079.098-2.534.148-3.618.146-3.134.389-6.244.047-9.372-.001-.006-.006-.009-.007-.014.135-1.958.164-4.047 1.095-5.75C3.927 8.62 7.361 8.956 9.695 8.776c.298-.023.378-.346.241-.525a.412.412 0 0 0 .245-.347c.073-1.289.022-2.592-.035-3.881-.014-.314-.22-1.242-.057-1.5.104-.164 1.326-.194 1.555-.228.214-.031 1.42-.362 1.537-.274.188.141.03 1.656.025 1.911-.026 1.279-.182 2.536-.311 3.806-.028.275.19.443.427.473.054.125.171.222.363.228 3.029.094 6.907-.808 7.98 2.883.048.167.191.25.338.262.133 3.081.24 6.156.21 9.246-.032 3.272.571 10.5-2.868 12.441-.748-.173-1.559-.076-2.317-.04-.875.042-1.763.067-2.62.26-.191.043-.285.211-.292.382-.288-.024-.589.146-.59.526-.006 2.889-.09 5.91.396 8.765.012.071.054.103.088.144.041.196.17.379.379.449 1.116.373 2.593.155 3.78-.163.244.581 1.249.525 1.186-.198-.134-1.542-.094-3.091-.059-4.636.592.067 1.196.082 1.792.095.422.009.837.057 1.227-.058-.049 1.772.247 3.513-.048 5.292zM49.369 3.732c-.086-.931-.15-1.874-.32-2.794-.094-.508-.774-.407-.912.007C39.7.399 30.986.643 22.537.944c-.387.014-.509.401-.375.662a.298.298 0 0 0-.286.296 26.908 26.908 0 0 0-.04 2.603c.019.608-.006 1.225.191 1.792l.008.022c.034.094.058.189.106.279.14.262.495.211.634-.015 2.676.18 5.357.294 8.04.233-.929 13.625-.437 27.6-.277 41.252.007.616.679.784 1.068.52 1.652.05 3.296.022 4.929-.286.516-.098.561-.723.273-1.047.435-6.594.041-13.337-.111-19.936-.149-6.478-.038-12.975-.29-19.449a.76.76 0 0 0 .493-.614c3.878.016 7.759-.183 11.638-.178.17 0 .298-.059.405-.14a.483.483 0 0 0 .519-.393c.214-.908-.007-1.89-.093-2.813zM36.24 6.163c-.226.029-.463.198-.54.413a.391.391 0 0 0-.167.325c-.003.119-.001.238-.004.357-.182.079-.257.332-.043.465.013.008.025.01.038.017-.13 6.52.114 13.057.093 19.579-.021 6.547-.275 13.236.271 19.769-1.355.075-2.687.32-4.006.633.14-13.546.591-27.405-.354-40.916h.011c.588-.021.579-.865 0-.907-2.875-.209-5.755-.194-8.633-.112-.007-.484-.106-.981-.154-1.454-.081-.81-.155-1.62-.243-2.43-.004-.034-.028-.049-.039-.077.024.004.042.014.067.015 8.436.3 17.139.544 25.564 0 0 .699.026 1.401.05 2.097.02.562-.004 1.156.056 1.727-3.981-.024-8.016-.011-11.967.499z"/><path d="M48.782 29.06c-1.812-3.923-4.051-7.755-6.89-11.028-.163-.188-.406-.108-.519.06a.495.495 0 0 0-.184-.066c-.865-.127-1.766.406-2.442.907-.547.406-1.382 1.032-1.261 1.794.007.047.044.085.081.121.147 1.734 1.773 3.831 2.611 5.289 1.225 2.133 2.524 4.302 4.087 6.206.396.483 1.086.031 1.076-.49.934-.455 1.889-.975 2.663-1.655.023-.02.031-.045.05-.067.473.032.997-.489.728-1.071zm-1.603.069c-.809.52-1.553 1.187-2.283 1.832-.985-1.621-2.098-3.173-3.125-4.766-.541-.839-1.091-1.673-1.627-2.515-.244-.383-1.797-2.373-1.828-2.94.365-.222.694-.579 1.028-.787.615-.383 1.408-.479 1.981-.888a.622.622 0 0 0 .212-.295c1.94 3.433 3.91 6.818 5.676 10.345-.011.008-.022.007-.034.014z"/></g></svg>