<svg xmlns="http://www.w3.org/2000/svg" viewBox="0 0 49.384 49.384"><g fill="#b7b7b7"><path d="M21.733 19.061c-.748-1.703-1.983-3.253-3.006-4.805-.929-1.41-1.808-2.875-2.985-4.095-.17-.176-.484-.069-.553.137-2.545-.13-5.17-.299-7.721-.253-.002 0-.003-.003-.005-.003-.591-.12-1.172.209-1.267.83-.031.204.042.397.222.493a.314.314 0 0 0 .026.331c.884 1.278 1.871 2.492 2.862 3.688.812.979 1.608 2.188 2.609 3.024-3.555 4.355-5.179 10.04-8.157 14.785a.484.484 0 0 0-.02.515c-.068.239.056.521.399.543 1.591.101 3.177.147 4.765.302 1.353.132 2.724.519 4.065.28a.447.447 0 0 0 .463-.188c3.33-4.59 5.949-9.766 8.248-14.936a.572.572 0 0 0 .049-.215.542.542 0 0 0 .006-.433zm-1.433.931c-1.429-.348-2.954-.367-4.412-.264-.118.008-.12.192 0 .186 1.468-.08 2.872.074 4.323.249l-.541 1.046c-2.304-.111-4.638 0-6.944.012-.126.001-.127.195 0 .196 2.267.012 4.561.118 6.828.016-.352.678-.694 1.362-1.052 2.035-.934-.003-1.852-.029-2.794-.164-.106-.015-.155.145-.045.165.886.163 1.809.262 2.718.227-.274.514-.546 1.029-.823 1.542-.907.011-1.798-.026-2.708-.175-.081-.014-.118.108-.035.126.86.187 1.748.278 2.63.257-.535.988-1.068 1.976-1.608 2.961-1.24-.058-2.506.017-3.743.03-.065.001-.065.101 0 .101 1.207.012 2.441.084 3.652.034l-1.013 1.847c-1.227-.08-2.467-.078-3.693-.12-.08-.003-.08.121 0 .125 1.192.057 2.395.156 3.592.179-.291.531-.583 1.062-.872 1.594-1.406.043-2.798.023-4.204-.137-.085-.01-.083.122 0 .133 1.358.172 2.731.252 4.1.196-.263.485-.529.967-.788 1.454-1.101-.507-2.43-.519-3.628-.591a29.186 29.186 0 0 0-4.223.038c2.839-4.596 5.084-9.656 7.491-14.485.184.028.396-.141.318-.337-.507-1.259-1.609-2.346-2.461-3.392-1.048-1.288-2.104-2.582-3.258-3.779.099-.086.089-.274-.032-.333.082.04.278-.026.436-.108 2.498.706 5.39.711 7.904.245.019-.004.031-.014.049-.019.334.714.724 1.4 1.137 2.073-1.635-.218-3.283-.234-4.928-.119-.098.007-.1.159 0 .154 1.7-.089 3.373.005 5.063.191l.006-.002c.362.58.735 1.154 1.103 1.728-1.352-.042-2.713.009-4.064.02-.1.001-.101.155 0 .156 1.392.012 2.796.069 4.187.019.444.702.878 1.426 1.333 2.136-1.486-.033-2.981.024-4.466.036-.064.001-.064.099 0 .099 1.523.013 3.056.075 4.58.036.385.592.786 1.173 1.233 1.708-.111.228-.231.45-.348.675zM38.127 16.06c2.708-4.81 5.313-9.715 7.521-14.776.222-.508-.187-.968-.6-.994-.096-.191-.301-.33-.596-.28-1.591.269-3.162.271-4.767.183-1.16-.064-2.354-.265-3.449.098a.37.37 0 0 0-.449.148c-6.21 9.052-11.209 19.215-15.872 29.134-.16.341.024.657.284.793 2.809 6.272 6.419 12.439 10.032 18.275a.477.477 0 0 0 .479.241.404.404 0 0 0 .26.125c3.001.315 6.323.621 9.31.073.291-.053.393-.263.372-.48a.406.406 0 0 0-.014-.321c-3.054-6.701-6.576-13.198-10.407-19.485a.61.61 0 0 0-.189-.198.437.437 0 0 0 .185-.343l.053-.582.164.012c.094.007.118-.125.05-.169 3.237-1.456 5.962-8.485 7.633-11.454zm-7.013 8.705a103.59 103.59 0 0 0-4.05-.132c-.09-.002-.089.134 0 .139 1.305.083 2.623.163 3.937.198a46.19 46.19 0 0 0-1.262 2.427c-1.232-.151-2.504-.127-3.726-.019-.093.008-.096.153 0 .148 1.223-.062 2.411.009 3.616.098-.065.139-.138.275-.201.414-.104.23-.036.41.093.517-.318.119-.555.468-.335.852.119.208.235.417.353.626a58.203 58.203 0 0 0-5.845-.169c-.068.001-.065.097 0 .103 1.96.189 3.993.292 5.965.278.366.648.733 1.297 1.097 1.946-1.369-.028-2.743.012-4.112.024-.085.001-.086.132 0 .133 1.402.012 2.81.056 4.213.023.281.501.566 1.001.846 1.502-.895-.051-1.864-.055-2.74.056a.039.039 0 0 0 0 .078c.91.115 1.923.11 2.845.053.24.43.485.858.726 1.288-2.111-.007-4.207.035-6.319-.074-.082-.004-.08.12 0 .127 2.117.177 4.288.28 6.41.109.444.794.897 1.582 1.339 2.377-1.876-.035-3.759.015-5.633.026-.08 0-.08.124 0 .124 1.907.011 3.822.063 5.731.024.306.551.615 1.101.921 1.652-1.377.073-2.738.139-4.121.086-.07-.003-.068.103 0 .108 1.393.099 2.82.123 4.213-.028.374.673.75 1.345 1.123 2.019-2.478.049-4.984.2-7.447.424-.058.005-.061.093 0 .093 2.506-.023 5.049-.126 7.551-.33.304.55.611 1.098.916 1.649-1.345.029-2.686.098-4.037.061-.089-.002-.088.133 0 .137 1.367.071 2.78.124 4.157.019.397.718.797 1.435 1.193 2.153-1.57-.047-3.149.003-4.719.011-.107 0-.107.166 0 .167 1.604.008 3.218.063 4.822.01.314.569.63 1.137.945 1.706-2.752-.24-5.677.058-8.42.24-.01-.039-.013-.076-.033-.116-3.058-6.08-6.394-12.329-10.23-17.964l.006-.008c4.878-9.833 10.417-19.292 15.404-29.056 1.185.52 2.72.444 3.966.501 1.371.063 2.655.024 3.939-.38-.56 1.105-1.125 2.204-1.687 3.306-2.341-.135-4.68-.179-7.021-.395-.114-.01-.109.161 0 .175 2.248.299 4.59.542 6.877.502-.451.883-.9 1.769-1.353 2.651-1.276-.095-2.567-.105-3.841-.159-.14-.006-.139.209 0 .217 1.225.073 2.462.191 3.693.232-.284.552-.56 1.108-.846 1.659-1.516-.096-3.002-.152-4.507-.409-.119-.02-.171.16-.05.183 1.449.278 2.958.5 4.439.454-.319.612-.628 1.229-.953 1.838-.018-.023-.042-.041-.077-.04-1.938.059-3.762.036-5.677-.334-.104-.02-.15.136-.044.161 1.842.433 3.819.641 5.703.388-.491.918-.985 1.834-1.494 2.744-1.308-.163-2.638-.194-3.953-.274-.481-.029-2.205-.447-2.58-.034-.256.283-.225.597.235.513.034-.006.053-.041.055-.072l.007-.111c.006-.094-.132-.089-.143 0 .052-.423 4.944.102 6.26.192a99.025 99.025 0 0 1-2.018 3.388c-1.023-.137-2.056-.23-3.071-.408-.119-.021-.171.159-.05.183.947.192 1.945.402 2.938.521l-1.317 2.121c-.819-.047-1.64-.087-2.457-.132-.12-.007-.118.177 0 .186.771.056 1.543.118 2.316.174-.444.715-.885 1.431-1.317 2.151-1.106-.099-2.208-.191-3.312-.388-.074-.013-.106.099-.031.114 1.043.208 2.13.404 3.212.498a54.755 54.755 0 0 0-1.033 1.755z"/><path d="M16.522 26.725c-1.889-.144-3.799-.139-5.693-.199-.084-.003-.084.127 0 .131 1.893.08 3.798.227 5.693.222.1 0 .098-.147 0-.154z"/></g></svg>