<svg xmlns="http://www.w3.org/2000/svg" viewBox="0 0 49.165 49.165"><g fill="#b7b7b7"><path d="M23.613 1.1c-.047-.175-.266-.199-.382-.105-2.508-2.662-12.024.525-12.417 3.61a.43.43 0 0 0-.104.221c-.262 1.954 1.319 3.812 2.226 5.479 1.497 2.753 3.048 5.468 4.795 8.072 1.296 1.932 3.704 6.642 6.604 5.063.26.1.634-.038.667-.407.651-7.257.504-14.861-1.389-21.933zm-2.9 19.005a8 8 0 0 0 3.456.191c-.015.85-.04 1.702-.079 2.558-3.407-.114-6.294-6.625-7.75-9.096-1.562-2.652-3.395-5.402-4.573-8.28-.988-3.149 9.561-5.071 11.443-3.721.205 2.331.388 4.64.549 6.944-2.277-.027-4.505-.086-6.768-.421-.114-.017-.164.157-.048.175 2.247.355 4.553.583 6.83.456.059.852.126 1.705.173 2.557-1.89-.198-3.82-.183-5.719-.257-.111-.004-.111.168 0 .173 1.9.091 3.824.277 5.727.242.057 1.03.105 2.06.141 3.092-1.788-.036-3.581.006-5.368.017-.094.001-.094.145 0 .146 1.789.011 3.584.053 5.374.017.024.717.056 1.432.067 2.151-1.564.257-3.059.281-4.654-.123-.101-.026-.144.13-.043.157 1.529.402 3.15.517 4.702.2.012.949.017 1.9.002 2.855-1.151.169-2.274.147-3.425-.155-.083-.023-.117.1-.037.122zM36.431 14.697c-.088-.284-.377-.496-.673-.27-2.371 1.811-10.957 9.144-6.722 12.36.132.1.286.06.395-.037 1.16.991 2.777.79 4.389.479 3.125-.604 6.374-1.052 8.853-3.198.206-.178.202-.423.096-.623.66-3.503-3.191-7.568-6.338-8.711zm5.444 8.526c-3.131.338-6.247.649-9.399.762-.077.003-.078.122 0 .12 2.985-.073 5.983-.243 8.948-.627-1.704.99-3.367 1.581-5.341 2.049-1.873.444-5.48 2.014-6.842.085-.01-.014-.022-.02-.032-.031-.516-2.123 2.085-4.895 3.227-6.226 1.157-1.349 2.467-2.552 3.646-3.876.919.784 1.956 1.569 2.903 2.43-1.584-.088-3.18-.096-4.76-.154-.103-.004-.103.155 0 .16 1.678.086 3.369.226 5.054.27.505.478.979.979 1.382 1.52-2.057-.119-4.131-.132-6.187-.184-.099-.003-.099.149 0 .154 2.109.1 4.235.243 6.35.267.283.408.539.831.727 1.288l-.052-.012c-.116-.028-.165.146-.049.179.073.021.134.039.186.056.014.038.025.077.039.115-.354-.015-1.123-.118-1.333-.118l-2.135.002c-1.66.003-3.321.011-4.981.017-.109 0-.109.168 0 .169 2.829.02 5.658.041 8.487.042.149.465.248.955.27 1.481-.036.023-.072.039-.108.062zM43.227 37.698l-.372-.239c.006-.463-.005-.932-.034-1.41.102-.158.095-.384-.111-.511-2.134-1.32-4.694-2.185-7.024-3.119-1.744-.699-3.43-1.433-5.263-1.118-.128-.159-.343-.226-.507-.016-.041.052-.069.107-.107.16-.025.007-.049.009-.074.017-.211.067-.286.283-.243.463-.812 1.463-.641 3.053.138 4.641 1.352 2.754 3.574 5.634 5.674 7.847.213.225.5.146.655-.044.009.005.014.012.023.016 1.681.742 3.771-.969 4.96-2.042 1.382-1.247 1.819-2.777 1.9-4.439.109-.001.219 0 .328-.002.113-.002.147-.146.057-.204zm-1.274.03c-.218-.02-.432-.044-.557-.043-.592.004-1.184.012-1.776.018-1.382.014-2.764.021-4.144.084-.035.001-.035.053 0 .055 2.143.086 4.294.084 6.441.066a8.18 8.18 0 0 1-.297 1.152l-.877-.311c-.074-.026-.103.088-.032.116.49.195 1.256.263.273.425-.548.091-1.115.121-1.669.159-1.197.082-2.389.069-3.588.058-.052 0-.051.076 0 .08 1.906.166 3.861.096 5.759-.179-.21.51-.478.998-.837 1.448-1.913.41-3.707.558-5.663.169-.074-.015-.106.097-.031.114 1.799.399 3.721.449 5.505-.054-.895 1.046-2.807 2.87-4.195 2.635a.376.376 0 0 0-.286.076c-1.786-3.279-6.896-7.518-5.622-11.603 1.826.039 3.578.629 5.307 1.357-1.556-.27-3.115-.528-4.675-.777-.08-.013-.116.109-.034.124 1.787.325 3.576.644 5.369.939 1.38.606 2.749 1.264 4.133 1.773-2.477-.385-4.996-.657-7.478-.893-.083-.008-.103.134-.02.147 2.9.474 5.86.921 8.789 1.167.122.035.244.072.367.104a12.297 12.297 0 0 1-.162 1.594zM20.855 29.378c.008-2.496-4.038-3.25-5.888-4.042-1.74-.745-5.039-2.979-7.033-1.831-2.709.921-3.255 13.361 1.625 11.297 1.928-.011 3.916-1.076 5.656-1.752 1.673-.649 4.192-1.179 5.222-2.73.091-.136-.004-.282-.132-.331.208.088.489.027.53-.236.01-.066.005-.126.011-.189.077-.032.079-.135.009-.186zm-.743.618c-.781.463-1.674.806-2.585 1.116-.012-.01-.014-.032-.033-.029-2.961.341-5.799.53-8.771.189-.08-.009-.078.115 0 .125 2.655.337 5.4.416 8.052-.034-.773.249-1.545.49-2.259.765-1.796.692-3.823 1.84-5.755 2.015-1.559-.83-1.667-3.373-1.659-4.933.003-.745-.052-3.727.618-4.994.019-.005.037.003.057-.009 1.802-1.079 5.209 1.101 6.845 1.822.753.332 2.738.996 4.093 1.868-2.879-.515-5.821-.78-8.737-.913-.068-.003-.067.101 0 .105 3.056.208 6.062.613 9.091 1.053.528.393.912.821.988 1.278-3.36-.73-7.419-.271-10.829-.15-.077.003-.078.121 0 .12 3.62-.033 7.227.044 10.843.171.001.031.011.06.009.091-.009.149.074.256.187.318a.219.219 0 0 0-.155.026zM25.759 36.681l-.035-.007c-.151-1.052-.529-2.015-1.467-2.738-.102-.079-.208-.008-.253.091-1.73-.891-3.749.915-4.907 2.121-2.171 2.262-4.048 5.142-5.724 7.774-.237.372.049.799.4.913 1.394 3.33 7.097 4.556 10.247 4.295a.585.585 0 0 0 .479-.355c.225.073.499-.001.551-.282.558-3.012.68-6.18.751-9.239.019-.811.037-1.63-.055-2.406.085-.02.112-.144.013-.167zm-1.758-1.877a.282.282 0 0 0 .166.018c-.15.314-.097.654.162 1.021.045.194.068.391.102.587a20.485 20.485 0 0 0-3.798-.201c1.059-1.093 2.26-1.884 3.368-1.425zm.608 5.896c-1.637-.049-3.244-.167-4.863-.463-.091-.017-.131.122-.039.14 1.61.315 3.252.516 4.896.518l-.012.39a64.544 64.544 0 0 1-.12 2.328 22.337 22.337 0 0 0-5.422-.355c-.059.003-.06.092 0 .092h.178c.057 0 .057-.088 0-.089 1.732.031 3.501.256 5.232.532-.043.633-.088 1.265-.13 1.898-2.043-.151-4.059-.308-6.085-.693-.098-.019-.14.131-.042.151 2.002.395 4.066.694 6.115.709a60.422 60.422 0 0 0-.112 2.21c-.014-.004-.023-.012-.038-.015-3.405-.701-7.263-.745-9.805-3.409 1.308-1.636 2.474-3.39 3.697-5.09.501-.696 1.387-2.058 2.423-3.168a23.26 23.26 0 0 1 3.986.259c.09.565.153 1.133.158 1.707l.001.09c-1.465-.097-2.935-.142-4.402-.21-.09-.004-.089.134 0 .139 1.467.087 2.936.196 4.404.253.022.692.004 1.385-.02 2.076z"/><path d="M23.47 6.131c-2.404-.268-4.81-.368-7.21-.714-.127-.018-.183.176-.054.195 2.385.362 4.848.731 7.264.681.107-.002.102-.151 0-.162zM23.233 3.374c-2.481-.319-5.008-.387-7.507-.413-.129-.001-.129.198 0 .2 2.513.051 5.002.272 7.507.449.155.011.147-.218 0-.236z"/></g></svg>