<svg xmlns="http://www.w3.org/2000/svg" viewBox="0 0 49.879 49.879"><g fill="#1d1d1b"><path d="M49.641 15.275c-.345-2.659-2.214-5.349-4.734-6.04.071-.184.017-.414-.222-.455-10.055-1.708-20.896-1.182-31.05-.661C9.809 8.315-.523 7.877.889 14.2c-1.161 5.825-.892 12.213-.78 18.118.066 3.496.506 6.949 4.011 8.594 4.477 2.102 10.956 1.124 15.706 1.144 6.985.03 14.004.005 20.979-.421.032.081.061.15.111.258.065.14.284.017.209-.122-.025-.052-.059-.098-.088-.148.071-.004.143-.006.214-.011a.48.48 0 0 0 .361-.186c3.204.352 5.683-1.193 6.777-4.345.984-2.835.688-6.529.864-9.46.239-3.984.447-7.972.625-11.96.009-.204-.097-.33-.237-.386zm-.861 3.304c-5.898-.569-11.864-.467-17.768-.052-.091.006-.093.148 0 .143 5.939-.296 11.815-.109 17.746.196-.124 1.589-.246 3.179-.364 4.769-3.329.065-6.688.291-10.005.567-.068.006-.07.108 0 .108 3.317-.04 6.672-.134 9.983-.384-.067.9-.144 1.799-.206 2.699-.005.069-.006.149-.01.219-4.309-.135-8.627-.011-12.929.249-.135.008-.137.216 0 .211 4.307-.175 8.605-.177 12.914-.139-.067 1.4-.059 3.08-.169 4.794-6.58-.554-13.182-.247-19.702.781-.073.012-.057.14.018.131 6.572-.836 13.062-.989 19.667-.617a23.764 23.764 0 0 1-.242 2.136c-5.49-.065-11.025.285-16.484.842-.081.008-.084.133 0 .129 5.478-.316 10.95-.479 16.431-.693-.124.683-.277 1.349-.497 1.967-.019-.053-.056-.099-.129-.101-6.666-.17-13.382.023-20.024.617-.066.006-.069.108 0 .105a810.169 810.169 0 0 1 20.024-.416c.025 0 .037-.016.056-.024-.844 2.226-2.438 3.865-5.529 3.928a.449.449 0 0 0-.309-.109c-10.07.153-20.118.519-30.192.24-3.653-.101-7.944.071-9.518-4.596-.754-2.235-.325-5.342-.292-7.664.063-4.543.527-9.195.139-13.733.092-.033.168-.099.154-.224-.977-8.617 35.893-5.305 42.541-5.185.969.762 1.954 1.511 2.756 2.441-4.337-.314-8.789-.092-13.098.352-.101.01-.105.166 0 .16 4.474-.24 8.902-.178 13.372-.162.105.136.221.261.317.406.924 1.397 1.266 2.959 1.45 4.589-.036.44-.067.88-.101 1.32z"/><path d="M33.618 23.412a177.276 177.276 0 0 0-9.79-5.369c-1.268-.645-3.958-2.651-5.403-1.743-.22.138-.235.416-.125.607-.7.822-.365 2.788-.387 3.584-.107 3.892-.085 7.787-.135 11.679-.005.4.388.536.673.42a.311.311 0 0 0 .347.087c5.175-1.815 9.887-5.29 14.47-8.258.524.067.892-.686.35-1.007zm-14.873 8.457c.066-2.563.153-5.125.217-7.689.052-2.074-.408-5.042.029-7.11 1.047-.004 3.477 1.631 4.228 2.012a203.9 203.9 0 0 1 2.977 1.536c1.957 1.033 3.883 2.122 5.829 3.175-4.417 2.716-8.756 5.534-13.28 8.076zM45.561 38.358c-11.034.151-22.079.529-33.105.947-.12.005-.121.19 0 .188 11.032-.172 22.08-.384 33.105-.823.2-.008.201-.315 0-.312zM47.243 29.594a145.266 145.266 0 0 0-13.493-.127c-.099.003-.099.155 0 .154 4.504-.054 8.994.049 13.493.268.191.009.189-.284 0-.295zM48.296 21.214c-4.686-.34-9.429-.283-14.124-.209-.103.002-.103.16 0 .16 4.711.025 9.416.252 14.124.296.161.002.157-.235 0-.247zM47.689 15.569c-6.115-1.036-12.236-1.034-18.367-.124-.075.011-.058.145.018.135 6.14-.797 12.143-.651 18.259.314.212.034.305-.289.09-.325z"/></g></svg>