<svg xmlns="http://www.w3.org/2000/svg" viewBox="0 0 48.238 48.238"><g fill="#1d1d1b"><path d="M33.061.757c-2.503-.909-5.223-.98-7.792-.317a13.612 13.612 0 0 0-4.438 2.026c-.097.068-2.495 2.295-3.214 3.296a.274.274 0 0 0-.072-.127c.367-.808.695-2.077-.194-2.382-.589-.202-1.407.007-2.017.049-.89.062-1.779.112-2.665.223a.475.475 0 0 0-.424.516c-.019.028-.039.056-.05.092-4.085 13.608-4.859 29.003-5.251 43.12a.548.548 0 0 0 .269.509c-.061.167.076.346.227.394 1.168.371 3.012-.634 4.145-.973a266.53 266.53 0 0 0 5.523-1.699.591.591 0 0 0 .436-.171.463.463 0 0 0 .161-.523c.108-8.179-.605-16.385-.309-24.556.182-5.029 1.013-11.144 6.681-12.908 1.764-.549 4.516-.675 6.325-.016 3.681 1.34 4.553 4.509 4.928 7.768-.361 4.006-2.015 8.613-6.864 8.721-2.344.052-4.907-1.396-5.031-3.972-.072-1.503.625-2.966 1.044-4.422 1.052-1.361 2.643-2.42 4.293-1.03.734.618 1.121 1.637.643 2.535-.392.734-1.196 1.17-1.88 1.595a.213.213 0 0 0-.089.12l-.083-.017c-.403-.081-.684.374-.4.688 1.216 1.344 3.608.95 4.945.004 1.344-.95 1.923-2.408 1.834-3.958.539-3.768-3.789-6.62-7.308-6.231-4.062.449-7.216 3.842-7.381 7.81a.506.506 0 0 0-.267.393C18.108 23 22.563 28.179 28.341 28.33c6.484.169 11.654-5.027 12.703-11.207 1.1-6.463-1.436-13.989-7.983-16.366zm7.117 14.115c-.939-.098-1.951.019-2.883.04-.136.003-.136.208 0 .211.926.021 1.93.137 2.863.042-.033.446-.077.89-.146 1.329-.016-.016-.032-.032-.057-.036-.914-.135-1.913-.012-2.835.004-.167.003-.168.257 0 .26.923.016 1.921.138 2.835.004.011-.002.015-.011.024-.016a15.115 15.115 0 0 1-.596 2.359c-.804-.056-1.636.018-2.439.034-.145.003-.145.222 0 .225.764.016 1.555.081 2.322.04a13.08 13.08 0 0 1-.858 1.886c-.903.198-1.703.388-2.647.25-.171-.025-.249.233-.073.264.781.142 1.672.163 2.455-.082-.351.564-.73 1.106-1.17 1.592-.194.214-.397.414-.603.609-1.486-.037-3.043.165-4.5.283-.12.01-.124.191 0 .19 1.304-.012 2.697.045 4.033-.062-.62.523-1.278.976-1.97 1.342-2.901-.107-5.811-.001-8.706.198-.094.006-.096.15 0 .148 2.664-.057 5.325-.023 7.989.003-6.137 2.707-13.992-.43-13.439-8.674a.43.43 0 0 0-.102-.324c.715-2.987 2.552-5.761 5.702-6.571 4.207-1.082 7.004 1.914 7.276 5.865.002.035.026.051.034.082-.308.774-.787 1.483-1.438 1.959-1.024.747-1.999.66-3.065.451 1.044-.367 2.1-.945 2.399-2.085.296-1.128-.265-2.368-1.144-3.076-1.868-1.505-5.269-.789-5.894 1.623-2.305 3.598-.647 8.732 3.902 9.471 5.446.885 9.376-4.906 8.456-9.858-.003-.016-.016-.019-.021-.033.293-7.452-7.965-11.916-14.69-7.267-1.911 1.322-2.993 3.336-3.621 5.565-.657.042-1.316.128-1.968.195-.15.016-.156.247 0 .239.623-.031 1.254-.05 1.88-.099-.178.687-.321 1.39-.428 2.1-.612-.075-1.262.021-1.848.162-.164.04-.094.283.069.251.592-.118 1.149-.1 1.73-.094-.107.776-.18 1.555-.231 2.32a6.818 6.818 0 0 1-.835.034 6.585 6.585 0 0 1-1.557-.272c-.182-.052-.253.22-.078.281.728.255 1.63.433 2.446.343a77.634 77.634 0 0 0-.093 2.196c-1.332-.111-2.695-.087-4.029-.113-.148-.003-.146.22 0 .229 1.329.08 2.684.214 4.019.211-.027.955-.037 1.914-.054 2.871-.614-.062-1.251-.008-1.866.005-.176.004-.177.27 0 .274.614.013 1.248.067 1.861.005-.014.81-.036 1.619-.046 2.43-1.188.101-2.33.158-3.541-.017-.136-.02-.198.186-.058.21 1.169.204 2.406.293 3.596.131-.01.868-.023 1.736-.03 2.605-1.47.065-2.924.201-4.405.152-.141-.005-.139.21 0 .218 1.444.088 2.955.138 4.402-.063-.005.644-.014 1.288-.018 1.932-1.696.06-3.38.208-5.084.177-.161-.003-.16.243 0 .25 1.672.064 3.409.106 5.082-.102-.003.713-.013 1.424-.014 2.137-.989-.017-1.954.007-2.946-.139-.105-.016-.153.143-.045.163.965.179 1.999.315 2.99.231 0 .76-.012 1.52-.009 2.279-.342.027-.684.069-1.026.086-.47.024-.937.002-1.407.008-.103.001-.134.166-.025.186.757.14 1.662.178 2.457.038.003.604-.008 1.209-.003 1.813-1.805.099-3.617.307-5.411.498-.161.017-.167.267 0 .257 1.799-.113 3.618-.213 5.413-.417.005.544.005 1.089.012 1.633-.801.183-1.583.245-2.432.081-.101-.02-.145.132-.043.156.808.188 1.666.226 2.478.046.008.575.009 1.151.02 1.726-1.404.155-2.789.38-4.22.391-.102.001-.102.156 0 .158 1.362.026 2.844.026 4.225-.235.01.47.011.942.022 1.411-1.493.442-2.98.905-4.465 1.376-.726.23-1.454.458-2.179.69-.479.149-.962.306-1.442.472-.085-.006-.144.005-.215.009.469-14.5 3.095-28.463 4.667-42.814 1.052.005 2.105-.053 3.156-.096.236-.01.474-.029.711-.033.022.004.034.003.052.005l-.042.17c-.163.379-.232.847-.232 1.27a.623.623 0 0 0-.011.546c.561 1.113 1.05.482 1.808.23.598-.199 1.709-1.94 2.128-2.311 1.236-1.093 2.885-1.992 4.457-2.485a12.15 12.15 0 0 1 7.636.121c-1.388-.076-2.789-.065-4.174-.095-.152-.003-.151.227 0 .235 1.683.092 3.386.254 5.072.234l.004-.002c.538.242 1.065.511 1.563.837.079.052.151.112.228.166a50.933 50.933 0 0 0-7.041.152c-.167.015-.171.274 0 .264a58.888 58.888 0 0 1 7.643.042c.628.524 1.184 1.12 1.673 1.773-1.697-.311-3.467-.277-5.158-.012-.153.024-.119.292.037.273 1.857-.232 3.603-.103 5.426.179.418.617.798 1.263 1.102 1.957-1.233-.114-2.511-.082-3.727-.135-.144-.006-.14.21 0 .221 1.273.104 2.602.307 3.897.33.232.583.433 1.182.589 1.798-1.072-.093-2.193-.029-3.262-.064-.129-.004-.124.185 0 .197 1.072.106 2.245.258 3.337.18.149.644.271 1.297.338 1.961-.83.039-1.681.257-2.491.409-.11.021-.086.207.027.197.817-.076 1.691-.101 2.497-.289.059.744.087 1.487.046 2.229z"/><path d="M18.056 11.022c-.814-.031-1.635.025-2.449.04-.138.003-.138.212 0 .215.814.015 1.635.072 2.449.04.19-.007.19-.288 0-.295z"/></g></svg>