<svg xmlns="http://www.w3.org/2000/svg" viewBox="0 0 49.296 49.296"><g fill="#1d1d1b"><path d="M48.084 7.839a.395.395 0 0 0-.035-.358c-2.023-3.102-7.299-3.028-10.653-3.397-6.995-.769-13.639-2.153-20.527-3.446C13.581.02 9.883-.185 7.003 1.845c-1.674 1.179-3.428 3.785-2.9 5.966C3.033 15.776 2.296 23.717.731 31.64c-.953 4.823-1.838 10.445 3.313 13.091a.442.442 0 0 0 .564-.115c7.627 2.824 16.898 2.836 24.8 3.808 6.715.826 12.833 2.159 14.589-5.132a.396.396 0 0 0 .213-.233c2.697-6.997 2.423-14.805 3.64-22.12.703-4.236 2.735-9.29.234-13.1zm-4.596 35.055c-.005-.001-.007-.006-.012-.007a87.6 87.6 0 0 0-3.564-.386c-.193-.53-.42-1.032-.669-1.515 1.514-.031 2.961.128 4.452.328-.071.515-.137 1.03-.208 1.544-.002.014 0 .025.001.036zm4.101-27.027c-.025-.018-.047-.039-.084-.043-2.52-.291-5.185-.09-7.7.182-.139.015-.145.229 0 .222 2.577-.143 5.128-.022 7.7-.063.02 0 .028-.013.043-.018a52.065 52.065 0 0 1-.492 2.694.133.133 0 0 0-.092-.04c-2.014-.056-4.105.319-6.111.508-.151.014-.155.249 0 .239 2.022-.132 4.157-.095 6.148-.471.004-.001.004-.004.008-.005-.379 1.815-.802 3.62-1.074 5.374-2.019-.119-4.107.098-6.131.068-.184-.003-.183.278 0 .285 1.968.078 4.106.25 6.08-.005-.02.138-.043.277-.061.414-.09.694-.183 1.386-.275 2.08-1.774-.156-3.657.016-5.4.134-.143.01-.146.228 0 .225 1.764-.04 3.583.097 5.352.011l-.362 2.742c-2.645-.23-5.269-.225-7.916-.657-.112-.018-.162.149-.048.173 2.517.524 5.311 1.031 7.916.846-.091.682-.179 1.365-.27 2.047-.022-.019-.038-.044-.073-.049-4.635-.667-9.359-.883-14.038-.879-.15 0-.149.227 0 .232 4.688.152 9.32.579 13.985 1.037.035.004.058-.016.085-.03-.089.666-.175 1.334-.264 2-3.29-.324-6.652-.303-9.955-.47-.162-.008-.158.235 0 .25 3.261.298 6.626.672 9.907.586-.109.816-.214 1.633-.323 2.448-1.762-.25-3.618-.215-5.386-.308-.161-.008-.159.237 0 .25 1.752.14 3.574.422 5.34.408-.118.877-.227 1.756-.348 2.633-1.515-.304-3.127-.318-4.65-.18-3.475-6.408-11.672-8.684-18.678-8.023.433-2.052.831-4.118 1.068-6.202 1.07.112 5.028 1.528 5.91 1.818a17.33 17.33 0 0 0 4.408.857c2.272.131 4.489-.257 6.139-1.896.228-.227.159-.548-.03-.737a.379.379 0 0 0 .269-.322c.204-1.349.325-2.704.417-4.061 2.475.12 5.1.303 7.542-.046.172-.024.115-.276-.039-.287-2.461-.175-5.003.047-7.483.068.114-1.763.175-3.529.251-5.295.002-.048-.012-.084-.019-.125.166-.474-.249-1.151-.821-.93-2.743 1.059-5.289 1.209-8.029.013-1.885-.823-3.502-2.155-5.435-2.88-1.694-.635-3.24-.795-4.801-.176-.227-.422-.924-.514-1.048.076-1.363 6.454-2.114 13.15-1.975 19.749-4.346-.095-8.592 1.232-12.067 3.857a.422.422 0 0 0-.021.66c.12 2.739 6.349 1.204 7.837 1.211 4.408.02 8.828.422 13.179 1.113 3.691.586 8.389 1.052 11.716 3.125-4.09-.271-8.213-.332-12.28-.35-.118 0-.117.177 0 .183 4.406.216 8.815.566 13.223.821.229.182.449.373.659.575.456.442 1.08-.001 1.062-.488 1.106.057 2.213.114 3.319.151-.499 1.278-.991 2.35-1.779 3.159-2.831-.254-5.792-.036-8.614.18-.131.01-.135.209 0 .207 2.718-.042 5.466.093 8.183.003-1.002.805-2.436 1.288-4.74 1.384-1.085.046-2.289-.262-3.364-.393-3.347-.409-6.692-.831-10.039-1.244-6.458-.799-12.791-1.826-19.173-3.015-5.643-4.416-1.113-15.818-.27-21.758.593-4.18 1.169-8.436 1.279-12.677.083-.014.151-.071.14-.181-.322-3.238 2.02-6.415 5.051-7.291 2.396-.692 5.043-.221 7.394.298 3.32.733 6.539 1.763 9.896 2.367 6.108 1.099 14.292.214 19.66 3.61.125.312.233.627.328.944-3.027-.844-6.182-.639-9.31-.64-4.187-.002-8.381.009-12.564.19-.146.006-.148.226 0 .229 7.112.13 14.961-.962 21.952.532.22.826.354 1.666.407 2.518-6.51-.123-13.043.063-19.55.23-.14.004-.141.217 0 .218 6.514.048 13.055.113 19.567-.13.054 1.292-.048 2.608-.238 3.931zM17.493 32.508c.601-6.416 1.281-12.766 2.274-19.133 4.305-.521 7.056 2.842 10.924 4.109 2.397.785 4.812.609 7.084-.319-.28 2.973-.603 5.944-.555 8.934a.45.45 0 0 0 .176.347c-.026.011-.052.014-.078.031-4.263 2.736-8.308 1.023-12.644-.492-.88-.307-2.72-.868-3.674-.227-.244-.015-.491.097-.539.376-.379 2.194-.57 4.423-.725 6.643l-.054.005c-.478.06-.497.719 0 .759 7.13.573 13.894 1.406 17.93 7.392-3.447-1.985-7.882-2.402-11.698-2.934-2.075-.289-18.428-.689-20.365-1.402 3.591-2.095 7.344-3.11 11.543-3.049.609.008.736-.705.401-1.04z"/><path d="M41.904 45.13c-9.638-.247-19.243-.638-28.858-1.37-.145-.011-.142.212 0 .225 9.587.908 19.226 1.454 28.858 1.443.193.001.192-.293 0-.298zM43.508 6.702c-4.736-.974-9.729-1.115-14.549-1.062-.138.002-.138.212 0 .214 4.879.103 9.666.678 14.521 1.058.12.01.147-.186.028-.21z"/></g></svg>