<?xml version="1.0" encoding="iso-8859-1"?>
<!-- Generator: Adobe Illustrator 18.0.0, SVG Export Plug-In . SVG Version: 6.00 Build 0)  -->
<!DOCTYPE svg PUBLIC "-//W3C//DTD SVG 1.1//EN" "http://www.w3.org/Graphics/SVG/1.1/DTD/svg11.dtd">
<svg version="1.1" id="Capa_1" xmlns="http://www.w3.org/2000/svg" xmlns:xlink="http://www.w3.org/1999/xlink" x="0px" y="0px"
	 viewBox="0 0 49.368 49.368" style="enable-background:new 0 0 49.368 49.368;" xml:space="preserve">
<g>
	<path style="fill:#1D1D1B;" d="M44.764,19.413c-4.766-1.693-9.439,1.657-12.797,4.684c-1.549-2.784-4.795-4.645-7.948-4.806
		c-2.297-0.117-5.972,0.767-7.239,3.012c-1.643-3.287-6.559-3.095-9.66-1.541c0.262-1.05,0.402-2.156,0.527-3.225
		c2.733,0.414,5.917,0.144,8.637-0.287c0.128,0.035,0.279,0,0.339-0.124c0.198-0.404,0.176-0.817,0.138-1.246
		c0.146,0.01,0.292,0.022,0.438,0.032c0.073,0.005,0.069-0.103,0-0.112c-0.149-0.019-0.299-0.03-0.449-0.048
		c-0.008-0.085-0.016-0.17-0.022-0.257c-0.039-0.57-0.088-1.138-0.144-1.706c0.233-0.3-0.021-0.811-0.497-0.745
		c-4.141,0.574-8.379-0.362-12.549-0.057c-0.356,0.026-0.524,0.524-0.273,0.716c-0.008,0.009-0.019,0.012-0.024,0.023
		c-0.715,1.391-0.707,2.986-0.913,4.524c-0.311,2.32-0.702,4.626-1.056,6.94c-0.022,0.147,0.02,0.27,0.095,0.366
		c-0.026,0.151,0.037,0.304,0.239,0.344c0.709,0.139,1.44,0.189,2.159,0.249c0.645,0.054,1.361,0.206,1.94-0.131
		c0.109-0.064,0.157-0.167,0.158-0.271c2.271-1.659,5.81-1.316,5.971,2.096c0.067,1.421-0.042,2.906-1.69,3.263
		c-1.645,0.356-3.47-0.042-4.106-1.746c-0.125-0.334-0.545-0.394-0.748-0.182c-0.747-0.224-1.568-0.302-2.337-0.342
		c-0.867-0.046-1.859-0.178-2.683,0.124c-0.148,0.054-0.226,0.182-0.247,0.314c-0.004,0.018-0.02,0.029-0.021,0.049
		c-0.184,8.705,12.702,8.941,16.64,2.98c0.48,2.503,4.532,4.047,6.671,4.132c3.473,0.137,7.053-1.785,9.049-4.616
		c2.312,3.26,6.742,4.991,10.681,4.362c4.276-0.682,5.962-4.129,6.283-8.134C49.613,24.489,48.426,20.714,44.764,19.413z
		 M41.993,35.29c-2.247,0.143-4.191-0.506-5.978-1.536c3.151,0.177,6.307,0.354,9.462,0.431
		C44.511,34.808,43.348,35.204,41.993,35.29z M48.571,29.434c-1.033-0.113-2.076-0.156-3.112-0.226c-0.068-0.004-0.067,0.1,0,0.106
		c1.025,0.085,2.052,0.198,3.08,0.241c-0.142,0.616-0.336,1.207-0.597,1.756c-1.245-0.051-2.505,0-3.749,0.016
		c-0.077,0.001-0.077,0.119,0,0.12c1.217,0.016,2.451,0.063,3.67,0.017c-0.515,1.023-1.231,1.908-2.158,2.564
		c-3.304-0.213-6.621-0.308-9.93-0.41c-1.078-0.646-2.101-1.428-3.097-2.259c-0.009-0.007-0.021-0.004-0.03-0.01
		c0.028-0.238-0.236-0.487-0.462-0.322c-0.409,0.298-0.803,0.606-1.196,0.913c-1.149-0.027-2.306-0.007-3.452,0.045
		c-0.045,0.002-0.045,0.068,0,0.07c1.076,0.049,2.161,0.066,3.24,0.047c-0.434,0.34-0.864,0.678-1.302,1.001
		c-1.853,0.165-3.65,0.191-5.507-0.094c-0.053-0.008-0.076,0.072-0.023,0.081c1.753,0.295,3.545,0.385,5.312,0.171
		c-0.518,0.373-1.046,0.73-1.615,1.028c-2.079-0.086-4.151-0.006-6.225,0.175c-0.044,0.004-0.045,0.073,0,0.07
		c2.003-0.169,4.004-0.19,6.01-0.144c-0.491,0.244-1.004,0.457-1.561,0.611c-1.529,0.423-3.11,0.492-4.637,0.006
		c-1.18-0.375-3.881-1.733-4.066-3.2c-0.018-0.144-0.121-0.218-0.231-0.248c-0.101-0.375-0.669-0.568-0.948-0.144
		c-1.994,3.038-5.361,4.078-8.863,3.82c-3.393-0.249-5.516-2.328-6.382-5.475c0.721,0.102,1.494,0.018,2.213,0.033
		c0.744,0.015,1.502,0.05,2.245-0.015c0.208,2.039,2.698,2.589,4.438,2.456c2.154-0.164,3.158-1.419,3.28-3.52
		c0.116-1.99-0.455-3.876-2.438-4.675c-1.847-0.744-3.774-0.157-5.04,1.281c-0.468-0.192-1.021-0.151-1.526-0.154
		c-0.574-0.003-1.155,0-1.732,0.035c0.458-2.106,0.814-4.234,1.12-6.366c0.238-1.651,0.683-3.418,0.252-5.044
		c2.121,0.316,4.274,0.374,6.415,0.452c2.045,0.074,4.176,0.334,6.164-0.228c-0.046,0.494-0.091,0.987-0.125,1.483
		c-0.004,0.06-0.009,0.117-0.013,0.176c-3.445-0.378-6.923-0.526-10.384-0.604c-0.067-0.002-0.066,0.101,0,0.103
		c3.467,0.119,6.915,0.399,10.372,0.652c-0.022,0.267-0.04,0.53-0.01,0.786c-2.637-0.319-5.694-0.463-8.299,0.012
		c-0.142-0.167-0.496-0.146-0.564,0.114c-0.016,0.059-0.031,0.123-0.047,0.183c-0.958-0.251-1.937-0.357-2.929-0.339
		c-0.067,0.001-0.067,0.104,0,0.103c0.986-0.007,1.945,0.126,2.899,0.353c-0.116,0.446-0.235,0.897-0.347,1.357
		c-0.702-0.144-1.408-0.187-2.131-0.129c-0.067,0.005-0.068,0.11,0,0.105c0.711-0.054,1.41,0.008,2.107,0.134
		c-0.131,0.551-0.253,1.108-0.341,1.666c-0.668,0.037-1.318,0.007-1.98-0.153c-0.058-0.014-0.083,0.074-0.025,0.09
		c0.654,0.17,1.322,0.24,1.991,0.178c-0.051,0.342-0.096,0.683-0.119,1.023c-0.041,0.028-0.088,0.053-0.127,0.082
		c-0.3,0.216-0.169,0.597,0.106,0.666c0.063,0.272,0.44,0.282,0.547,0.014c0.025-0.062,0.04-0.13,0.063-0.193
		c3.754-1.65,7.069-1.586,9.662,1.975c0.278,0.382,0.872,0.161,0.771-0.325c-0.008-0.04-0.023-0.073-0.032-0.111
		c0.133-0.056,0.227-0.18,0.163-0.354c-0.349-0.948,3.784-2.364,4.235-2.464c1.303-0.29,2.711-0.27,3.998,0.079
		c2.552,0.692,4.231,2.413,6.026,4.235c0.128,0.13,0.28,0.133,0.402,0.07c0.156,0.118,0.359,0.154,0.547,0.01
		c2.732-2.107,5.54-4.667,9.174-4.897c1.445-0.092,2.692,0.223,3.725,0.819c-1.474-0.214-2.968-0.182-4.441,0.047
		c-0.067,0.01-0.038,0.111,0.028,0.102c1.616-0.23,3.162-0.17,4.764,0.063c0.61,0.411,1.139,0.925,1.57,1.526
		C45.191,22.527,43,22.5,40.82,22.446c-0.065-0.002-0.065,0.098,0,0.101c2.215,0.1,4.439,0.231,6.657,0.258
		c0.805,1.193,1.262,2.685,1.307,4.306c-0.897-0.02-1.797,0-2.694,0.002c-0.072,0-0.072,0.112,0,0.112
		c0.898,0.003,1.798,0.022,2.696,0.002C48.797,27.991,48.723,28.73,48.571,29.434z"/>
	<path style="fill:#1D1D1B;" d="M30.152,28.346c-1.432-1.775-4.421-4.285-6.879-4.13c-2.067,0.13-2.779,1.998-2.714,3.861
		c0.171,4.916,7.553,4.664,9.459,1.087c0.054-0.101,0.044-0.219-0.004-0.317C30.21,28.791,30.317,28.551,30.152,28.346z
		 M21.63,27.794c-0.079-5.536,5.844-0.226,7.917,0.914C27.362,30.29,21.699,32.658,21.63,27.794z"/>
	<path style="fill:#1D1D1B;" d="M45.262,27.72c-0.276-1.889-1.629-3.852-3.695-3.938c-2.376-0.099-4.883,2.41-6.52,3.884
		c-0.286,0.258-0.116,0.608,0.159,0.723c-0.151,0.108-0.224,0.344-0.061,0.499c1.787,1.696,4.565,3.216,7.108,3.095
		C44.452,31.879,45.553,29.717,45.262,27.72z M42.721,30.887c-0.815,0.282-1.966-0.058-2.794-0.3
		c-1.603-0.469-2.998-1.266-4.374-2.191c0.048-0.019,0.097-0.041,0.142-0.08c1.231-1.048,2.508-2.023,3.853-2.92
		c1.034-0.689,2.046-1.245,3.282-0.502c0.794,0.478,1.309,1.499,1.484,2.366C44.58,28.584,44.183,30.381,42.721,30.887z"/>
	<path style="fill:#1D1D1B;" d="M45.878,32.837c-2.805-0.143-5.624-0.179-8.433-0.221c-0.063-0.001-0.062,0.094,0,0.097
		c2.807,0.113,5.624,0.233,8.433,0.244C45.956,32.957,45.955,32.841,45.878,32.837z"/>
	<path style="fill:#1D1D1B;" d="M47.789,24.813c-0.918-0.17-1.877-0.062-2.777,0.16c-0.073,0.018-0.042,0.129,0.031,0.112
		c0.919-0.214,1.798-0.212,2.732-0.168C47.833,24.919,47.848,24.824,47.789,24.813z"/>
</g>
<g>
</g>
<g>
</g>
<g>
</g>
<g>
</g>
<g>
</g>
<g>
</g>
<g>
</g>
<g>
</g>
<g>
</g>
<g>
</g>
<g>
</g>
<g>
</g>
<g>
</g>
<g>
</g>
<g>
</g>
</svg>
