<?xml version="1.0" encoding="iso-8859-1"?>
<!-- Generator: Adobe Illustrator 18.0.0, SVG Export Plug-In . SVG Version: 6.00 Build 0)  -->
<!DOCTYPE svg PUBLIC "-//W3C//DTD SVG 1.1//EN" "http://www.w3.org/Graphics/SVG/1.1/DTD/svg11.dtd">
<svg version="1.1" id="Capa_1" xmlns="http://www.w3.org/2000/svg" xmlns:xlink="http://www.w3.org/1999/xlink" x="0px" y="0px"
	 viewBox="0 0 49.16 49.16" style="enable-background:new 0 0 49.16 49.16;" xml:space="preserve">
<g>
	<path style="fill:#1D1D1B;" d="M14.997,22.669c-0.029-0.003-0.052,0.007-0.08,0.009c0.002-0.648-0.034-1.296-0.038-1.944
		c-0.003-0.58,0.07-1.16-0.155-1.695c0.003,0.001,0.003,0.003,0.006,0.004c3.338,0.918,7.457,1.268,10.897,1.111
		c0.536-0.024,0.776-0.713,0.472-1.05c0.068-1.163,0.125-2.32,0.129-3.486c0.001-0.155-0.056-0.27-0.133-0.362
		c0.02-0.279-0.149-0.583-0.476-0.548c-5.245,0.56-10.513-0.244-15.78-0.031c-0.211-0.01-0.429,0.094-0.463,0.321
		c-0.295,1.961-0.236,3.975-0.355,5.955c-0.117,1.941-0.521,3.975-0.165,5.895c0.002,0.008,0.01,0.012,0.012,0.02
		c-0.274,0.357-0.09,1.046,0.453,0.986c3.048-0.336,8.632-0.973,10.341,2.371c1.506,2.946-2.059,4.607-4.392,4.756
		c-1.741,0.111-3.49-0.301-5.194-0.592c-0.225-0.038-0.427,0.142-0.476,0.335c-0.171-0.056-0.373-0.011-0.505,0.176
		c-0.243,0.344-0.272,0.817-0.393,1.218c-0.139,0.459-0.305,0.907-0.502,1.345c-0.029,0.064-0.02,0.121-0.012,0.177
		c-0.117,0.14-0.119,0.386,0.069,0.508c5.329,3.463,16.053,2.291,18.715-4.334C29.962,26.373,20.264,23.269,14.997,22.669z
		 M24.026,35.539c-4.277,3.93-10.1,3.62-15.246,2.088c0.252-0.382,0.487-0.775,0.686-1.188c0.191-0.398,0.463-0.864,0.433-1.312
		c3.473,1.433,11.34,2.028,11.458-3.527c0.118-5.538-7.958-5.726-11.822-4.998c0.621-1.629,0.648-3.472,0.752-5.202
		c0.118-1.964,0.248-3.991,0.009-5.952c4.812,0.654,9.932,1.128,14.745,0.342c0.008,1.015,0.053,2.024,0.111,3.036
		c-3.289-0.541-7.119-0.716-10.353-0.291c-0.141,0.019-0.232,0.134-0.247,0.252c-0.161-0.086-0.384-0.015-0.495,0.139
		c-0.365,0.506-0.333,1.203-0.367,1.807c-0.041,0.738-0.069,1.482,0.017,2.217c0.051,0.436,0.438,0.626,0.761,0.564
		c0.059,0.155,0.175,0.283,0.372,0.315c2.462,0.396,5.059,0.749,7.264,2.006C25.685,27.877,27.417,32.424,24.026,35.539z"/>
	<path style="fill:#1D1D1B;" d="M35.922,2.109c-0.011-0.027-0.014-0.056-0.026-0.083c-0.16-0.342-0.718-0.327-0.884,0
		c-0.263,0.521-0.266,1.056-0.416,1.619c-0.181,0.676-0.483,1.295-0.88,1.87c-0.646,0.935-1.499,1.645-2.507,2.09
		c1.125-2.175,0.188-5.382-0.693-7.397c-0.108-0.247-0.349-0.249-0.529-0.133c-0.148-0.04-0.314-0.019-0.435,0.094
		c-1.438,1.339-2.452,2.809-4.527,3.212c-2.581,0.5-4.2-0.916-5.475-2.985c-0.24-0.389-0.732-0.196-0.802,0.153
		c-0.248-0.099-0.542-0.052-0.686,0.248c-0.962,1.999-0.97,4.652,0.08,6.659c-0.415-0.069-0.839-0.091-1.255-0.208
		c-0.827-0.233-1.596-0.656-2.23-1.235c-1.213-1.106-1.777-2.632-1.966-4.229c-0.036-0.301-0.268-0.431-0.483-0.401
		c-0.165-0.079-0.361-0.097-0.568,0.008C2.677,5.925-0.72,17.574,0.311,26.992c0.56,5.122,2.411,10.033,5.386,14.241
		c1.873,2.65,4.961,7.217,8.607,6.861c0.281-0.028,0.39-0.457,0.071-0.528c-3.678-0.82-7.534-6.677-9.212-9.644
		c-2.195-3.883-3.508-8.242-3.718-12.705C1.055,16.887,4.128,7.008,11.817,2.784c0.088,1.554,0.796,3.053,1.945,4.123
		c1.137,1.058,3.425,2.313,4.999,1.65c0.104-0.044,0.179-0.111,0.236-0.185c0.263-0.01,0.506-0.214,0.401-0.541
		c-0.73-2.281-0.875-4.102-0.295-6.414c1.217,2.125,3.056,3.518,5.706,3.24c2.029-0.213,4.137-1.503,5.144-3.324
		c0.169,0.742,0.341,1.485,0.441,2.237c-0.5,0.024-1.005,0.112-1.475,0.224c-0.162,0.038-0.093,0.281,0.068,0.247
		c0.495-0.102,0.97-0.124,1.452-0.136c0.028,0.277,0.044,0.555,0.043,0.835c0,0.082-0.019,0.148-0.023,0.227
		c-0.786-0.039-1.61,0.034-2.38,0.089c-0.111,0.008-0.111,0.165,0,0.172c0.757,0.054,1.569,0.126,2.344,0.091
		c-0.056,0.453-0.148,0.875-0.295,1.269c-1.311-0.159-2.708,0-4.002,0.181c-0.105,0.015-0.081,0.198,0.025,0.186
		c1.298-0.139,2.574-0.072,3.866-0.1c-0.173,0.419-0.369,0.838-0.582,1.311c-0.184,0.409,0.244,1.055,0.707,0.707
		c0.005-0.004,0.009-0.009,0.014-0.013c0.087,0.04,0.185,0.064,0.298,0.047c1.661-0.25,3.174-1.111,4.225-2.428
		c0.678-0.849,1.413-2.2,1.42-3.415c1.008,0.696,1.951,1.45,2.84,2.249c-0.822,0-1.646,0.018-2.466,0.026
		c-0.197,0.002-0.197,0.304,0,0.306c0.946,0.009,1.899,0.036,2.847,0.023c0.594,0.554,1.17,1.122,1.708,1.718
		c-1.867-0.012-3.743,0.087-5.606,0.142c-0.149,0.004-0.15,0.232,0,0.232c1.96-0.004,3.936,0.042,5.895-0.046
		c0.432,0.494,0.851,0.997,1.243,1.518c-5.356,0.325-10.695,0.439-16.059,0.218c-0.12-0.005-0.119,0.179,0,0.186
		c5.442,0.332,10.888,0.362,16.328-0.028c0.456,0.629,0.891,1.271,1.288,1.935c-6.565-0.16-13.147-0.124-19.714-0.089
		c-0.131,0.001-0.131,0.201,0,0.204c6.583,0.141,13.181,0.283,19.765,0.227c0.056,0,0.097-0.024,0.125-0.057
		c0.322,0.555,0.628,1.119,0.907,1.696c-6.887,0.043-13.729,0.031-20.61-0.367c-0.107-0.006-0.104,0.155,0,0.165
		c6.893,0.665,13.879,0.969,20.8,0.574c0.299,0.647,0.574,1.305,0.817,1.978c-0.026-0.028-0.063-0.049-0.113-0.054
		c-1.425-0.148-2.94-0.016-4.373,0.025c-0.181,0.005-0.181,0.276,0,0.281c1.432,0.04,2.948,0.172,4.373,0.025
		c0.098-0.01,0.146-0.078,0.153-0.149c0.214,0.601,0.419,1.206,0.586,1.827c-0.012-0.003-0.019-0.014-0.033-0.014
		c-1.616-0.027-3.285,0.098-4.903,0.166c-0.116,0.005-0.109,0.161,0,0.176c1.58,0.207,3.375,0.275,4.951,0.011
		c0.028-0.005,0.04-0.024,0.058-0.038c0.189,0.739,0.352,1.488,0.474,2.252c-1.325-0.176-2.757-0.02-4.085,0.007
		c-0.188,0.004-0.188,0.288,0,0.292c1.345,0.027,2.796,0.189,4.133,0.002c0.092,0.63,0.17,1.264,0.215,1.91
		c-2.131-0.112-4.31,0.101-6.447,0.078c-0.159-0.002-0.158,0.24,0,0.246c2.115,0.087,4.359,0.261,6.47-0.009
		c0.041,0.711,0.063,1.427,0.045,2.155c-0.04,1.56-0.217,3.14-0.507,4.709c-0.462-0.031-0.932,0.004-1.392,0.01
		c-0.722,0.009-1.448-0.007-2.166,0.067c-0.169,0.018-0.17,0.246,0,0.264c0.718,0.074,1.445,0.058,2.166,0.067
		c0.437,0.005,0.882,0.035,1.32,0.012c-0.112,0.56-0.239,1.117-0.381,1.672c-0.012-0.048-0.039-0.092-0.093-0.099
		c-1.928-0.273-4.042-0.034-5.986,0.016c-0.161,0.004-0.161,0.246,0,0.25c1.945,0.05,4.058,0.289,5.986,0.016
		c0.024-0.003,0.039-0.02,0.055-0.034c-0.192,0.732-0.409,1.459-0.655,2.176c-1.138-0.074-2.325,0.012-3.461,0.043
		c-0.158,0.004-0.158,0.242,0,0.246c1.097,0.031,2.243,0.11,3.346,0.049c-0.196,0.55-0.403,1.096-0.63,1.632
		c-0.025-0.02-0.051-0.04-0.092-0.044c-1.315-0.141-2.701,0-4.023,0.026c-0.179,0.004-0.179,0.274,0,0.278
		c1.311,0.026,2.687,0.163,3.992,0.028c-0.208,0.473-0.425,0.942-0.657,1.402c-1.542,0.171-3.057,0.211-4.606,0.131
		c-0.127-7.729,0.484-15.488,0.184-23.194c-0.015-0.383-0.635-0.512-0.704-0.095c-0.003,0.018-0.005,0.036-0.008,0.054
		c-0.011,0.001-0.022-0.006-0.033-0.004c-1.531,0.215-2.896,1.244-4.402,1.675c-1.691,0.485-3.412,0.684-5.162,0.805
		c-0.3,0.021-0.46,0.375-0.346,0.598c-0.15,0.54-0.036,1.17,0.005,1.72c0.045,0.615,0.066,1.235,0.166,1.844
		c0.018,0.108,0.094,0.169,0.184,0.208c0.052,0.121,0.16,0.212,0.319,0.201c1.3-0.092,2.563-0.01,3.846,0.132
		c-0.304,2.675-0.213,5.395-0.301,8.085c-0.081,2.469-1.024,6.235-0.481,8.578c0.126,0.545,0.418,0.907,0.809,1.149
		c-1.855-0.141-3.709-0.296-5.564-0.487c-0.129-0.013-0.16,0.209-0.031,0.228c4.784,0.698,9.614,1.169,14.45,1.248
		c-1.584,2.318-3.547,4.339-5.913,5.857c-0.621-0.013-1.263,0.055-1.868,0.08c-0.147,0.006-0.147,0.222,0,0.229
		c0.414,0.017,0.845,0.054,1.274,0.071c-0.459,0.271-0.929,0.527-1.417,0.759c-0.15-0.681-0.431-1.387-0.827-1.999
		c1.316-0.027,2.626,0.041,3.942,0.005c0.209-0.006,0.197-0.291,0-0.316c-1.339-0.17-2.746-0.065-4.105,0.08
		c-0.58-0.791-1.375-1.377-2.397-1.421c-2.175-0.093-4.225,2.24-5.372,3.839c-0.06-0.053-0.132-0.098-0.232-0.121
		c-0.941-0.219-1.994-0.078-2.976,0.116c-0.869-2.022-3.607-3.812-5.81-3.588c-1.781,0.181-3.156,1.902-2.249,3.61
		c0.148,0.278,0.606,0.088,0.511-0.215c-0.773-2.455,2.365-2.684,3.852-1.902c1.145,0.602,1.855,1.533,2.741,2.38
		c-0.15,0.21-0.033,0.592,0.283,0.579c1.16-0.046,2.358,0.181,3.505,0.076c0.266-0.024,0.449-0.228,0.507-0.452
		c0.119,0.06,0.265,0.061,0.371-0.055c0.883-0.966,1.896-1.846,3.037-2.497c0.997-0.569,1.789-1.021,2.959-0.013
		c0.697,0.6,1.058,1.574,1.173,2.456c0.024,0.184,0.114,0.322,0.235,0.417c0.1,0.299,0.389,0.55,0.741,0.438
		c9.285-2.95,13.702-14.256,14.168-23.211C49.493,16.245,45.017,6.244,35.922,2.109z M34.543,38.356
		c-0.498-0.548,0.372-5.54,0.403-6.263c0.146-3.367,0.32-6.832-0.208-10.173c0.404-0.209,0.435-1.01-0.109-1.087
		c-1.433-0.201-2.868-0.103-4.281,0.181c0.058-0.491,0.089-0.986,0.125-1.479c0.034-0.455,0.127-0.967,0.073-1.436
		c2.729,0.287,6.665-0.154,8.67-2.066c-1.058,7.391-0.779,15.131-0.584,22.559C37.518,38.68,35.128,38.999,34.543,38.356z
		 M43.126,40.319c-0.003,0-0.003-0.003-0.006-0.003c-1.655-0.092-3.308-0.191-4.96-0.296c0.289-0.025,0.561-0.044,0.803-0.048
		c0.342-0.006,0.553-0.213,0.636-0.466c0.196-0.091,0.346-0.27,0.339-0.555c-0.006-0.233-0.004-0.467-0.009-0.7
		c1.458,0.18,2.938,0.178,4.397,0.006C43.954,38.963,43.56,39.655,43.126,40.319z"/>
	<path style="fill:#1D1D1B;" d="M41.023,42.374c-8.976-0.525-17.944-0.822-26.936-0.769c-0.12,0.001-0.12,0.183,0,0.186
		c8.981,0.243,17.963,0.523,26.936,0.962C41.267,42.766,41.266,42.389,41.023,42.374z"/>
	<path style="fill:#1D1D1B;" d="M39.622,43.811c-6.048-0.377-12.13-0.553-18.189-0.629c-0.1-0.001-0.098,0.148,0,0.155
		c6.048,0.415,12.128,0.733,18.189,0.847C39.864,44.188,39.86,43.826,39.622,43.811z"/>
	<path style="fill:#1D1D1B;" d="M47.319,27.144c-2.27-0.034-4.553,0.017-6.821,0.095c-0.149,0.005-0.149,0.227,0,0.232
		c2.269,0.078,4.552,0.128,6.821,0.095C47.59,27.562,47.591,27.148,47.319,27.144z"/>
	<path style="fill:#1D1D1B;" d="M46.969,24.913c-1.318-0.134-2.699,0.001-4.023,0.025c-0.186,0.003-0.186,0.285,0,0.288
		c1.324,0.023,2.705,0.159,4.023,0.025C47.186,25.228,47.186,24.935,46.969,24.913z"/>
</g>
<g>
</g>
<g>
</g>
<g>
</g>
<g>
</g>
<g>
</g>
<g>
</g>
<g>
</g>
<g>
</g>
<g>
</g>
<g>
</g>
<g>
</g>
<g>
</g>
<g>
</g>
<g>
</g>
<g>
</g>
</svg>
