<?xml version="1.0" encoding="iso-8859-1"?>
<!-- Generator: Adobe Illustrator 18.0.0, SVG Export Plug-In . SVG Version: 6.00 Build 0)  -->
<!DOCTYPE svg PUBLIC "-//W3C//DTD SVG 1.1//EN" "http://www.w3.org/Graphics/SVG/1.1/DTD/svg11.dtd">
<svg version="1.1" id="Capa_1" xmlns="http://www.w3.org/2000/svg" xmlns:xlink="http://www.w3.org/1999/xlink" x="0px" y="0px"
	 viewBox="0 0 48.334 48.334" style="enable-background:new 0 0 48.334 48.334;" xml:space="preserve">
<g>
	<path style="fill:#1D1D1B;" d="M27.53,8.391c-0.085-0.095-0.208-0.159-0.374-0.16c-5.574-0.028-11.303-0.4-16.854,0.187
		C10.099,8.25,9.776,8.225,9.613,8.524C7.031,13.25,4.054,17.74,1.455,22.45c-0.133,0.241,0.011,0.44,0.205,0.495
		c-0.186,0.853,0.719,1.625,1.681,1.836c1.379,0.303,3.001,0.079,4.401,0.037c1.918-0.057,3.836-0.132,5.75-0.264
		c0.031-0.002,0.054-0.015,0.081-0.022c2.254,0.714,3.231,4.45,1.862,6.307c-1.53,2.075-5.516,1.376-6.581-0.785
		c-0.192-0.389-0.76-0.24-0.876,0.101c-0.067-0.099-0.172-0.175-0.325-0.187c-1.22-0.092-2.448-0.094-3.671-0.126
		c-0.887-0.023-1.984-0.246-2.833,0.021c-0.719,0.226-0.957,0.773-0.975,1.389c-0.092-0.016-0.195,0.065-0.173,0.18
		C2.086,42.319,17.13,43.077,22.79,34.949c0.069-0.099,0.082-0.203,0.062-0.3c0.171-0.174,0.22-0.441-0.027-0.64
		c-3.084-2.472-2.434-8.25-0.306-11.232c0.104-0.146-0.016-0.302-0.161-0.343c0.066-0.087,0.104-0.199,0.084-0.311
		c-0.604-3.34-4.96-4.515-8.071-4.806c-0.006-0.053-0.01-0.108-0.035-0.158c-0.219-0.445-0.647-0.759-0.537-1.314
		c0.11-0.555,0.603-0.733,0.869-1.161c3.131,0.08,6.381,0.514,9.487,0.295c0.295-0.021,0.471-0.304,0.447-0.55
		c1.253-1.702,2.796-3.495,3.498-5.475C28.231,8.583,27.851,8.322,27.53,8.391z M16.24,31.457c0.487-0.681,0.734-1.607,0.756-2.573
		c0.929,0.127,1.958,0.051,2.863-0.249c-0.048,0.982,0.023,1.96,0.267,2.866c-1.441,0.185-2.856,0.401-4.316,0.445
		C15.966,31.796,16.112,31.636,16.24,31.457z M21.929,34.532c-0.483,0.545-0.995,1.044-1.523,1.517
		c-0.017-0.005-0.025-0.019-0.045-0.019c-4.898-0.024-9.795,0.057-14.692,0.128c-0.072,0.001-0.072,0.111,0,0.113
		c4.783,0.07,9.567,0.145,14.351,0.127c-0.72,0.606-1.477,1.143-2.274,1.591c-0.003,0-0.004-0.003-0.007-0.003
		c-3.266,0.164-6.525,0.245-9.796,0.225c-0.105-0.001-0.103,0.156,0,0.162c3.016,0.168,6.039,0.169,9.055,0.004
		c-2.002,0.956-4.231,1.366-6.683,0.993c-4.57-0.695-7.189-3.534-9.482-7.144c-0.151-1.172,0.27-1.548,1.575-1.656
		c0.508-0.042,1.066,0.056,1.573,0.083c1.223,0.064,2.447,0.157,3.671,0.161c0.208,0.001,0.335-0.115,0.383-0.261
		c1.083,2.602,5.244,3.341,7.463,1.654c1.538,0.068,3.204,0.032,4.726-0.34C20.562,32.899,21.116,33.825,21.929,34.532z
		 M25.478,10.899c-0.016-0.006-0.025-0.02-0.044-0.022c-2.944-0.252-5.981-0.011-8.922,0.206c-0.094,0.007-0.096,0.151,0,0.148
		c2.927-0.1,5.856,0.057,8.779-0.018c-0.317,0.536-0.619,1.083-0.912,1.623c-4.537-0.39-9.106-0.542-13.653-0.767
		c-0.139-0.007-0.136,0.204,0,0.214c4.479,0.329,8.972,0.73,13.462,0.902c-0.147,0.269-0.293,0.541-0.439,0.8
		c-3.034-0.547-6.421-0.181-9.428,0.193c-0.015,0.002-0.021,0.015-0.035,0.018c-0.311-0.053-0.626,0.092-0.898,0.32
		c-0.94-0.013-1.895,0.045-2.819,0.093c-0.118,0.006-0.118,0.177,0,0.183c0.809,0.042,1.641,0.088,2.467,0.091
		c-0.199,0.263-0.339,0.557-0.38,0.802c-0.039,0.231-0.024,0.49,0.026,0.745c-1.239,0.119-2.479,0.313-3.707,0.484
		c-0.095,0.013-0.074,0.178,0.023,0.169c1.246-0.115,2.506-0.226,3.751-0.396c0.078,0.245,0.187,0.479,0.345,0.666
		c-0.077,0.125-0.051,0.318,0.122,0.368c1.186,0.341,2.418,0.613,3.602,0.996c-2.608,0.001-5.218,0.048-7.823,0.107
		c-0.095,0.002-0.095,0.146,0,0.148c2.933,0.066,5.874,0.127,8.809,0.11c0.107,0.043,0.217,0.076,0.323,0.122
		c1.093,0.477,1.835,1.14,2.535,1.909c-4.868-0.237-9.769-0.163-14.643-0.296c-0.134-0.004-0.133,0.2,0,0.207
		c4.954,0.257,9.978,0.583,14.939,0.421c0.286,0.329,0.572,0.674,0.88,1.031c0.066,0.077,0.142,0.111,0.217,0.116
		c-0.699,0.822-1.253,1.885-1.634,3.049c-1.193,0.057-2.351,0.227-3.557,0.176c-0.162-0.007-0.159,0.238,0,0.25
		c1.113,0.083,2.336,0.138,3.447-0.088c-0.218,0.744-0.365,1.523-0.429,2.305c-0.966,0.23-1.879,0.396-2.885,0.434
		c-0.006-2.111-1.069-4.363-3.064-4.676c-0.011-0.216-0.153-0.417-0.437-0.406c-1.78,0.065-3.559,0.146-5.339,0.189
		c-0.974,0.024-6.173,0.699-5.78-1.443c3.081-4.151,5.575-8.8,8.024-13.338c5.334,0.574,10.831,0.274,16.199,0.246
		C26.191,9.788,25.824,10.334,25.478,10.899z"/>
	<path style="fill:#1D1D1B;" d="M39.091,16.863c-0.006-0.001-0.008-0.006-0.014-0.007c-0.021-0.001-0.042-0.001-0.062-0.003
		c-0.086-0.008-0.17-0.025-0.256-0.031c0.67-0.907,1.182-2.008,1.697-2.944c0.907-1.648,1.882-3.199,3.004-4.708
		c0.24-0.323-0.108-0.647-0.433-0.615c-0.043-0.094-0.122-0.173-0.249-0.206c-2.713-0.689-5.912-0.472-8.672,0.132
		c-0.075-0.065-0.188-0.086-0.288,0c-0.03,0.026-0.061,0.056-0.091,0.082c-0.047,0.011-0.097,0.02-0.144,0.031
		c-0.154,0.037-0.225,0.17-0.23,0.307c-5.554,4.993-11.674,13.543-10.596,21.308c0.897,6.467,7.001,11.09,13.48,9.993
		c5.745-0.972,11.31-6.433,12.023-12.27C48.963,22.171,44.586,17.431,39.091,16.863z M46.971,27.415
		c-1.529-0.083-3.121,0.135-4.62,0.35c-0.146,0.021-0.112,0.278,0.035,0.259c1.523-0.199,3.03-0.17,4.551-0.232
		c-0.064,0.631-0.181,1.267-0.372,1.903c0.042-0.095-0.004-0.232-0.13-0.218c-1.469,0.153-2.904,0.411-4.385,0.464
		c-0.185,0.007-0.186,0.291,0,0.288c1.463-0.018,3.005-0.07,4.425-0.452c0.039-0.01,0.065-0.035,0.083-0.065
		c-0.239,0.789-0.572,1.577-1.015,2.35c-1.936,0.207-3.812,0.506-5.766,0.505c-0.183,0-0.183,0.282,0,0.285
		c1.839,0.028,3.775-0.028,5.574-0.472c-0.112,0.181-0.206,0.365-0.33,0.545c-0.317,0.461-0.673,0.898-1.045,1.323
		c-2.803,0.161-5.604,0.521-8.399,0.792c-0.138,0.013-0.141,0.23,0,0.218c2.698-0.221,5.417-0.367,8.106-0.68
		c-0.594,0.64-1.24,1.238-1.936,1.771c-3.164,0.263-6.323,0.586-9.486,0.871c-0.152,0.014-0.154,0.252,0,0.239
		c2.997-0.255,5.998-0.479,8.993-0.75c-3.464,2.438-7.908,3.374-11.889,1.282c-12.366-6.499-1.791-21.795,4.349-28.745
		c2.906-0.243,5.708-0.099,8.596-0.1c-0.779,0.814-1.411,1.749-1.991,2.716c-1.526,0.195-3.021,0.458-4.569,0.509
		c-0.165,0.005-0.166,0.257,0,0.257c1.428-0.005,2.935-0.07,4.349-0.386c-0.117,0.201-0.235,0.402-0.35,0.604
		c-0.304,0.537-0.663,1.084-1.018,1.636c-1.278,0.003-2.584,0.188-3.854,0.29c-0.145,0.012-0.148,0.236,0,0.228
		c1.199-0.058,2.438-0.054,3.64-0.185c-0.411,0.647-0.804,1.304-1.09,1.971c-1.781-0.032-3.581,0.063-5.35,0.076
		c-0.145,0.001-0.145,0.224,0,0.225c1.72,0.012,3.472,0.104,5.205,0.08c-0.013,0.181,0.091,0.383,0.244,0.466l0.091,0.049
		c0.134,0.072,0.33,0.054,0.44-0.061v0.004c0.01-0.009,0.017-0.021,0.026-0.03c2.092,0.186,3.855,0.895,5.259,1.937
		c-4.45-0.18-8.915-0.164-13.364-0.006c-0.115,0.004-0.116,0.18,0,0.179c4.646-0.014,9.278,0.104,13.92,0.275
		c1.287,1.123,2.216,2.551,2.694,4.154c-2.262-0.044-4.58,0.18-6.818,0.45c-0.136,0.016-0.143,0.227,0,0.218
		c2.304-0.15,4.614-0.176,6.916-0.312C46.934,25.426,47.035,26.409,46.971,27.415z"/>
	<path style="fill:#1D1D1B;" d="M37.934,24.421c-1.609-0.925-6.587-4.035-6.816-0.059c-0.003,0.051,0.009,0.093,0.019,0.137
		c-0.038,0.048-0.078,0.096-0.088,0.172c-0.352,2.703-0.418,5.473-0.481,8.198c-0.019,0.802-0.201,1.826,0.714,2.165
		c1.164,0.432,2.678-0.874,3.459-1.537c1.715-1.457,3.563-2.639,5.331-4.001C42.818,27.381,39.893,25.546,37.934,24.421z
		 M35.761,31.004c-0.73,0.593-1.389,1.276-2.127,1.858c-0.527,0.538-1.161,0.843-1.903,0.917c0.014-0.607,0.023-1.214,0.03-1.822
		c0.035-2.367,0.112-4.745-0.059-7.107c0.187-0.025,0.361-0.136,0.421-0.352c0.631-2.29,3.546,0.051,4.444,0.577
		c0.802,0.469,2.45,1.05,2.99,1.814C40.649,28.435,36.795,30.164,35.761,31.004z"/>
	<path style="fill:#1D1D1B;" d="M20.712,34.365c-3.393-0.298-6.914-0.02-10.32,0.032c-0.088,0.001-0.088,0.136,0,0.137
		c3.405,0.052,6.927,0.329,10.32,0.032C20.84,34.554,20.841,34.376,20.712,34.365z"/>
	<path style="fill:#1D1D1B;" d="M20.712,23.247c-2.332,0.013-4.666,0.048-6.996,0.121c-0.1,0.003-0.1,0.152,0,0.155
		c2.33,0.073,4.664,0.109,6.996,0.121C20.967,23.646,20.968,23.246,20.712,23.247z"/>
	<path style="fill:#1D1D1B;" d="M44.844,21.668c-1.528,0.003-3.062,0.164-4.586,0.27c-1.236,0.086-3.608,0.673-4.72,0.06
		c-0.097-0.054-0.183,0.092-0.087,0.149c1.044,0.614,2.587,0.194,3.749,0.14c1.877-0.087,3.778-0.104,5.644-0.319
		C45.03,21.946,45.041,21.668,44.844,21.668z"/>
	<path style="fill:#1D1D1B;" d="M41.35,9.622c-1.931-0.005-3.845,0.072-5.777-0.04c-0.152-0.009-0.149,0.223,0,0.236
		c1.907,0.162,3.866,0.297,5.777,0.135C41.559,9.935,41.566,9.622,41.35,9.622z"/>
</g>
<g>
</g>
<g>
</g>
<g>
</g>
<g>
</g>
<g>
</g>
<g>
</g>
<g>
</g>
<g>
</g>
<g>
</g>
<g>
</g>
<g>
</g>
<g>
</g>
<g>
</g>
<g>
</g>
<g>
</g>
</svg>
