<?xml version="1.0" encoding="iso-8859-1"?>
<!-- Generator: Adobe Illustrator 18.0.0, SVG Export Plug-In . SVG Version: 6.00 Build 0)  -->
<!DOCTYPE svg PUBLIC "-//W3C//DTD SVG 1.1//EN" "http://www.w3.org/Graphics/SVG/1.1/DTD/svg11.dtd">
<svg version="1.1" id="Capa_1" xmlns="http://www.w3.org/2000/svg" xmlns:xlink="http://www.w3.org/1999/xlink" x="0px" y="0px"
	 viewBox="0 0 48.491 48.491" style="enable-background:new 0 0 48.491 48.491;" xml:space="preserve">
<g>
	<path style="fill:#1D1D1B;" d="M25.594,0.525c-0.075-0.279-0.34-0.339-0.549-0.258c-0.081-0.146-0.226-0.258-0.451-0.262
		C11.312-0.275-1.511,11.636,0.366,25.443c0.026,0.194,0.148,0.287,0.29,0.304c0.028,0.051,0.065,0.098,0.123,0.133
		c8.208,4.956,18.71,5.551,27.904,3.559c0.077-0.017,0.138-0.047,0.187-0.085c0.15,0.004,0.299-0.071,0.342-0.255
		C31.382,19.841,27.97,9.436,25.594,0.525z M28.433,28.534c-9.746,1.98-18.122,0.181-27.219-3.295
		C1.838,18.836,3.147,13.035,7.756,8.22c4.48-4.68,10.491-6.735,16.838-7.118c0.105-0.006,0.19-0.04,0.264-0.085
		c0.214,0.818,0.412,1.629,0.601,2.436c-2.681-0.443-5.4-0.521-8.11-0.364c-0.132,0.008-0.133,0.213,0,0.207
		c2.748-0.134,5.441,0.051,8.165,0.405c0.158,0.684,0.311,1.366,0.457,2.046c-2.94-0.15-5.889-0.214-8.83-0.361
		c-0.092-0.005-0.089,0.133,0,0.141c2.938,0.259,5.925,0.473,8.882,0.47c0.146,0.689,0.3,1.38,0.432,2.066
		c-2.116-0.125-4.248-0.119-6.365-0.173c-0.123-0.003-0.122,0.185,0,0.19c2.133,0.083,4.279,0.227,6.416,0.235
		c0.157,0.828,0.305,1.654,0.442,2.479c-2.432-0.002-4.846,0.017-7.277-0.145c-0.101-0.007-0.099,0.148,0,0.156
		c2.421,0.206,4.882,0.343,7.313,0.217c0.801,4.885,1.254,9.746,1.421,14.834c-4.035-0.064-8.076,0.012-12.111,0.031
		c-0.083,0-0.083,0.128,0,0.129c4.037,0.019,8.08,0.095,12.117,0.031c0.015,0.488,0.038,0.97,0.049,1.463
		c-5.394,0.07-10.776,0.186-16.171,0.065c-0.067-0.002-0.066,0.101,0,0.103c5.385,0.186,10.792,0.29,16.176,0.03
		c0.005,0.277,0.018,0.547,0.022,0.825C28.468,28.535,28.453,28.53,28.433,28.534z"/>
	<path style="fill:#1D1D1B;" d="M29.422,0.427c-0.314-0.096-0.564,0.201-0.565,0.474c-0.067,0.094-0.096,0.218-0.053,0.371
		c2.597,9.137,3.365,17.769,3.646,27.221c0.002,0.064,0.026,0.118,0.057,0.166c-0.047,0.156,0.048,0.351,0.25,0.372
		c4.829,0.5,10.049-1.12,14.46-2.934c0.172-0.071,0.267-0.204,0.309-0.349c0.333,0.174,0.82,0.035,0.78-0.438
		C47.387,14.18,40.363,3.774,29.422,0.427z M46.951,25.131c-4.539,1.398-9.226,1.978-13.778,3.221
		c1.21-8.769-0.287-18.386-3.264-26.704c2.577,1.235,4.942,2.766,7.058,4.538c-1.755-0.154-3.524-0.166-5.282-0.098
		c-0.065,0.003-0.066,0.103,0,0.101c1.879-0.04,3.731,0.071,5.59,0.248c0.694,0.596,1.362,1.216,1.997,1.866
		c-1.893-0.089-3.8-0.099-5.69-0.126c-0.101-0.001-0.1,0.151,0,0.156c1.969,0.093,3.956,0.206,5.932,0.227
		c0.693,0.726,1.357,1.475,1.97,2.263c-1.792,0.061-3.575,0.122-5.37,0.067c-0.095-0.003-0.095,0.144,0,0.148
		c1.838,0.079,3.693,0.11,5.531-0.015c0.513,0.672,1.006,1.358,1.457,2.073c-2.61,0.346-5.189,0.578-7.832,0.541
		c-0.107-0.002-0.107,0.164,0,0.167c2.661,0.064,5.34-0.06,7.969-0.498c0.547,0.884,1.061,1.79,1.506,2.737
		c-3.165,0.251-6.296,0.393-9.474,0.311c-0.117-0.003-0.116,0.175,0,0.181c3.177,0.17,6.39,0.094,9.547-0.326
		c0.645,1.399,1.18,2.862,1.582,4.39c-2.511-0.08-5.034-0.006-7.545,0.006c-0.099,0-0.099,0.153,0,0.154
		c2.527,0.012,5.065,0.087,7.591,0.004c0.18,0.702,0.342,1.413,0.467,2.141c-3.6-0.021-7.212,0.201-10.797,0.495
		c-0.06,0.005-0.061,0.099,0,0.095c3.612-0.25,7.217-0.323,10.834-0.407c0.11,0.668,0.198,1.346,0.26,2.035
		C47.131,25.104,47.048,25.101,46.951,25.131z"/>
	<path style="fill:#1D1D1B;" d="M27.949,43.815c-0.013-0.031-0.047-0.043-0.081-0.047c1.201-3.468,1.76-7.229,1.343-10.789
		c-0.028-0.242-0.19-0.382-0.369-0.427c-0.061-0.079-0.149-0.135-0.264-0.134c-9.42,0.08-17.944-0.879-27.114-3.098
		c-0.283-0.068-0.432,0.18-0.376,0.391C0.961,29.78,0.87,29.92,0.9,30.116c1.761,11.396,13.425,19.133,24.52,18.316
		c0.244-0.018,0.401-0.155,0.486-0.325c0.059-0.045,0.112-0.107,0.156-0.189c0.62-1.147,1.166-2.364,1.63-3.623
		c0.103-0.039,0.208-0.075,0.291-0.132c0.06-0.041,0.072-0.103,0.044-0.168C28.001,43.935,27.975,43.875,27.949,43.815z
		 M26.968,42.027c-3.507,0.01-6.975-0.102-10.465-0.533c-0.096-0.012-0.094,0.137,0,0.15c3.447,0.463,6.933,0.706,10.412,0.582
		c-0.16,0.589-0.331,1.176-0.526,1.765c-3.358,0.022-6.775-0.234-10.146-0.27c-0.062-0.001-0.061,0.091,0,0.095
		c2.452,0.16,4.91,0.237,7.365,0.34c0.629,0.026,1.679,0.234,2.634,0.285c-0.172,0.494-0.354,0.99-0.553,1.487
		c-2.086,0.163-4.135,0.245-6.241,0.051c-0.091-0.008-0.089,0.132,0,0.141c2.025,0.218,4.101,0.28,6.136,0.06
		c-0.147,0.36-0.287,0.718-0.45,1.081C13.391,47.09,5.85,40.683,1.677,30.076c8.206,3.131,17.882,4.262,26.593,3.107
		c-0.078,1.476-0.209,2.889-0.399,4.27c-4.903-0.189-9.832-0.399-14.74-0.386c-0.077,0-0.075,0.113,0,0.118
		c4.89,0.306,9.814,0.392,14.712,0.498C27.633,39.159,27.348,40.597,26.968,42.027z"/>
	<path style="fill:#1D1D1B;" d="M47.066,29.679c0.039-0.286-0.173-0.595-0.544-0.496c-4.767,1.267-9.53,2.156-14.347,3.183
		c-0.22-0.03-0.458,0.067-0.507,0.321c-0.392,2.035-0.181,4.051-0.352,6.104c-0.212,2.548-1.056,4.889-1.512,7.378
		c-0.041,0.224,0.121,0.379,0.299,0.403c-0.016,0.188,0.085,0.378,0.334,0.379c3.894,0.02,7.643-3.202,10.176-5.874
		c2.981-3.144,5.288-6.839,6.564-10.992C47.233,29.903,47.172,29.765,47.066,29.679z M44.562,33.652
		c-1.552-0.012-3.104,0.007-4.655,0.016c-0.109,0.001-0.109,0.168,0,0.169c1.513,0.009,3.027,0.027,4.541,0.017
		c-0.213,0.377-0.411,0.765-0.638,1.131c-1.869,0.091-3.711,0.225-5.589,0.142c-0.113-0.005-0.112,0.169,0,0.175
		c1.807,0.098,3.669,0.126,5.471-0.122c-0.443,0.703-0.903,1.392-1.399,2.05c-1.848-0.026-3.702,0.021-5.548,0.03
		c-0.098,0-0.098,0.151,0,0.152c1.793,0.009,3.593,0.054,5.388,0.034c-0.527,0.685-1.08,1.347-1.665,1.978
		c-1.518,0.222-3.033,0.444-4.567,0.573c-0.086,0.007-0.087,0.142,0,0.135c1.439-0.107,2.896-0.239,4.333-0.462
		c-0.601,0.633-1.224,1.246-1.885,1.817c-1.031,0.149-2.061,0.309-3.09,0.464c-0.075,0.011-0.043,0.124,0.031,0.114
		c0.951-0.133,1.904-0.262,2.855-0.398c-2.203,1.866-4.726,3.385-7.557,4.468c2.319-3.978,1.584-8.556,1.949-12.931
		c4.599-0.193,9.357-1.354,13.674-2.947C45.737,31.44,45.169,32.56,44.562,33.652z"/>
	<path style="fill:#1D1D1B;" d="M27.417,39.635c-0.045-0.032-0.09-0.064-0.136-0.096c-0.041-0.029-0.101-0.006-0.125,0.033
		c-0.021,0.033-0.041,0.067-0.062,0.1c-0.048,0.077,0.064,0.165,0.126,0.097c-0.44,0.477-4.447-0.022-5.24-0.029
		c-0.832-0.007-1.665-0.015-2.497-0.021c-0.332-0.002-2.703-0.249-2.745-0.22c0.048-0.032,0.006-0.105-0.046-0.078
		c-0.193,0.099-0.387,0.198-0.58,0.297c-0.076,0.039-0.037,0.154,0.042,0.156c2.497,0.052,4.993,0.083,7.49,0.116
		c0.861,0.011,3.177,0.533,3.793-0.194C27.483,39.742,27.473,39.675,27.417,39.635z"/>
	<path style="fill:#1D1D1B;" d="M27.257,34.902c-4.708-0.011-9.418,0.014-14.126,0.06c-0.071,0.001-0.071,0.109,0,0.11
		c4.708,0.046,9.418,0.071,14.126,0.06C27.405,35.132,27.406,34.903,27.257,34.902z"/>
	<path style="fill:#1D1D1B;" d="M27.897,23.038c-3.251,0.061-6.459,0.135-9.707-0.108c-0.106-0.008-0.105,0.156,0,0.165
		c3.214,0.265,6.49,0.413,9.707,0.115C28.005,23.199,28.009,23.036,27.897,23.038z"/>
	<path style="fill:#1D1D1B;" d="M27.471,19.584c-3.656,0.056-7.312,0.244-10.965,0.383c-0.126,0.005-0.127,0.2,0,0.196
		c3.654-0.106,7.314-0.164,10.965-0.353C27.615,19.802,27.617,19.582,27.471,19.584z"/>
	<path style="fill:#1D1D1B;" d="M27.257,16.347c-4.134-0.069-8.318,0.123-12.438,0.479c-0.103,0.009-0.106,0.167,0,0.163
		c4.146-0.165,8.292-0.279,12.438-0.433C27.391,16.55,27.392,16.349,27.257,16.347z"/>
	<path style="fill:#1D1D1B;" d="M26.842,13.525c-2.536,0.036-5.057,0.167-7.596,0.102c-0.098-0.002-0.097,0.148,0,0.152
		c2.518,0.1,5.083,0.18,7.596-0.048C26.972,13.72,26.977,13.523,26.842,13.525z"/>
	<path style="fill:#1D1D1B;" d="M46.866,24.514c-3.96-0.145-7.925,0.279-11.814,1.009c-0.061,0.012-0.035,0.104,0.026,0.094
		c3.93-0.675,7.809-0.879,11.788-0.881C47.009,24.735,47.009,24.519,46.866,24.514z"/>
	<path style="fill:#1D1D1B;" d="M45.601,18.323c-2.386-0.014-4.783,0.143-7.168,0.226c-0.081,0.003-0.082,0.128,0,0.127
		c2.386-0.054,4.787-0.034,7.168-0.184C45.709,18.485,45.711,18.324,45.601,18.323z"/>
</g>
<g>
</g>
<g>
</g>
<g>
</g>
<g>
</g>
<g>
</g>
<g>
</g>
<g>
</g>
<g>
</g>
<g>
</g>
<g>
</g>
<g>
</g>
<g>
</g>
<g>
</g>
<g>
</g>
<g>
</g>
</svg>
