<?xml version="1.0" encoding="iso-8859-1"?>
<!-- Generator: Adobe Illustrator 18.0.0, SVG Export Plug-In . SVG Version: 6.00 Build 0)  -->
<!DOCTYPE svg PUBLIC "-//W3C//DTD SVG 1.1//EN" "http://www.w3.org/Graphics/SVG/1.1/DTD/svg11.dtd">
<svg version="1.1" id="Capa_1" xmlns="http://www.w3.org/2000/svg" xmlns:xlink="http://www.w3.org/1999/xlink" x="0px" y="0px"
	 viewBox="0 0 48.591 48.591" style="enable-background:new 0 0 48.591 48.591;" xml:space="preserve">
<g>
	<path style="fill:#1D1D1B;" d="M11.877,17.712c0.302-0.394-0.262-0.816-0.628-0.628c-2.932,1.512-3.255,4.96-3.174,7.918
		c0.053,1.905,0.417,5.86,3.301,5.052c0.582-0.163,0.636-0.919,0.161-1.234c-2.055-1.36-1.774-4.264-1.536-6.445
		C10.196,20.597,10.787,19.133,11.877,17.712z"/>
	<path style="fill:#1D1D1B;" d="M22.891,20.936c-0.001-0.139-0.047-0.258-0.109-0.364c0.001-0.89-0.01-1.78-0.048-2.671
		c-0.034-0.81-1.282-1.058-1.471-0.199c-0.067,0.305-0.113,0.612-0.172,0.918c-1.399-1.31-3.325-1.719-5.133-0.583
		c-2.144,1.347-3.108,4.555-2.504,6.945c0.593,2.35,3.089,3.439,5.303,2.588c0.73-0.281,1.377-0.758,1.944-1.338
		c0.009,0.023,0.013,0.047,0.022,0.07c0.24,0.6,1.256,0.974,1.59,0.208c0.542-1.243,0.395-2.556,0.438-3.899
		c0.004-0.127,0.002-0.254,0.006-0.381C22.84,21.793,22.896,21.357,22.891,20.936z M15.328,24.325
		c-0.321-1.348,0.196-3.16,1.125-4.169c1.461-1.584,2.85-0.779,4.378-0.03c-0.088,0.615-0.166,1.231-0.214,1.854
		c-0.021,0.271-0.05,0.553-0.078,0.839c-0.192,0.521-0.412,1.03-0.737,1.494C18.705,25.881,15.945,26.92,15.328,24.325z"/>
	<path style="fill:#1D1D1B;" d="M28.971,17.973c-0.779-0.381-1.644,0.079-2.304,0.626c-0.037-0.371-0.095-0.736-0.198-1.085
		c-0.248-0.844-1.331-0.744-1.617,0c-0.583,1.515-0.391,3.37-0.435,4.979c-0.038,1.396-0.427,3.156,0.433,4.334
		c0.179,0.246,0.568,0.375,0.803,0.104c0.957-1.101,0.754-2.697,0.836-4.098c0.034-0.591,0.1-1.214,0.152-1.844
		c0.217-0.248,0.463-0.472,0.746-0.675c0.604-0.432,1.494-0.505,1.895-1.15C29.518,18.786,29.385,18.176,28.971,17.973z"/>
	<path style="fill:#1D1D1B;" d="M35.476,17.631c-0.512-0.615-1.226-0.477-1.936-0.393c-0.007-1.126-0.04-2.241-0.103-3.333
		c-0.039-0.683-1.093-0.909-1.253-0.17c-0.261,1.202-0.452,2.413-0.609,3.629c-0.307,0.031-0.611,0.075-0.905,0.159
		c-0.707,0.202-0.707,1.231,0,1.434c0.228,0.065,0.463,0.107,0.701,0.138c-0.055,0.509-0.107,1.019-0.157,1.529
		c-0.221,2.262-0.627,4.633,0.008,6.846c0.296,1.032,1.65,0.723,1.761-0.238c0.296-2.58,0.472-5.296,0.527-7.994
		c0.719,0.083,1.446,0.234,1.966-0.39C35.795,18.465,35.797,18.016,35.476,17.631z"/>
	<path style="fill:#1D1D1B;" d="M40.365,3.79c-5.403-2.406-11.382-0.912-15.339,3.27C17.948-4.204,2.379,3.108,0.301,14.533
		c-2.353,12.94,9.461,28.521,21.783,31.994c0.033,0.367,0.335,0.717,0.804,0.602c12.749-3.126,24.579-14.469,25.644-28.041
		C49.028,12.757,46.405,6.48,40.365,3.79z M47.195,18.622c-0.014-0.008-0.018-0.027-0.038-0.024
		c-2.136,0.315-4.157,0.451-6.304,0.147c-0.066-0.009-0.095,0.091-0.028,0.102c2.098,0.332,4.282,0.381,6.36-0.113
		c-0.063,0.889-0.173,1.778-0.345,2.657c-1.881,0.055-3.746,0.141-5.627,0.089c-0.468-2.061-1.712-3.845-3.953-4.716
		c-0.708-0.275-1.254,0.766-0.729,1.252c3.329,3.073,3.104,6.606,1.18,10.443c-0.625,1.246,1.069,2.221,1.858,1.086
		c1.524-2.193,2.23-5.285,1.669-7.942c1.852,0.081,3.73,0.111,5.573-0.078c-0.179,0.885-0.405,1.761-0.676,2.617
		c-0.009-0.006-0.007-0.021-0.021-0.02c-1.549,0.036-3.101,0.204-4.646,0.316c-0.077,0.005-0.078,0.125,0,0.12
		c1.541-0.095,3.096-0.137,4.631-0.307c-0.35,1.091-0.766,2.15-1.231,3.156c-0.01,0.021-0.022,0.041-0.032,0.062
		c-1.337,0.129-2.652,0.204-3.999,0.111c-0.081-0.006-0.081,0.12,0,0.127c1.305,0.101,2.627,0.098,3.925-0.092
		c-1.263,2.679-2.874,5.105-4.757,7.274c-4.141,0.186-8.284,0.379-12.422,0.625c-0.044,0.003-0.057,0.068-0.011,0.079
		c0.199,0.05,0.398,0.1,0.597,0.151c0.028,0.007,0.039-0.034,0.012-0.043c0.454,0.143,1.709-0.184,2.314-0.207
		c1.133-0.043,2.265-0.087,3.397-0.132c1.971-0.078,3.941-0.156,5.911-0.243c-0.853,0.964-1.753,1.882-2.708,2.74
		c-0.012-0.01-0.026-0.019-0.048-0.019c-4.082,0.131-8.163,0.413-12.24,0.653c-0.057,0.003-0.057,0.091,0,0.089
		c4.042-0.171,8.093-0.303,12.13-0.579c-0.627,0.557-1.267,1.099-1.933,1.61c-0.014-0.023-0.036-0.041-0.073-0.038
		c-5.343,0.398-10.661,0.709-16.022,0.686c-0.071,0-0.071,0.109,0,0.11c5.298,0.071,10.614-0.049,15.887-0.596
		c-3.529,2.663-7.572,4.677-11.894,5.969c-0.062-0.127-0.175-0.234-0.351-0.286C12.97,42.636,3.683,31.928,1.766,22.167
		C0.517,15.801,2.315,8.493,8.05,4.836c6.049-3.857,12.458-1.841,16.657,3.452c0.297,0.375,0.834-0.007,0.778-0.409
		c5.188-4.717,13.225-5.46,18.116-0.292c-2.917-0.08-5.844-0.013-8.759,0.087c-0.967,0.033-3.872-0.397-4.529,0.407
		c-0.018,0.022-0.015,0.049,0.008,0.066c0.041,0.028,0.082,0.057,0.123,0.086c0.018,0.013,0.044,0.003,0.055-0.014
		c0.019-0.03,0.039-0.059,0.058-0.089c0.028-0.042-0.039-0.08-0.067-0.039c0.495-0.719,6.154-0.289,6.954-0.299
		c2.113-0.028,4.225,0.002,6.338-0.01c0.467,0.516,0.914,1.067,1.315,1.696c0.203,0.32,0.387,0.646,0.559,0.977
		c-5.753,0.044-11.507,0.038-17.26-0.021c-0.113-0.001-0.113,0.173,0,0.175c5.763,0.092,11.56,0.182,17.277-0.124
		c0.001,0.002,0.002,0.003,0.003,0.005c-0.119,0.02-0.119,0.201,0.011,0.203c0.029,0,0.058,0.001,0.087,0.001
		C46.985,13.151,47.373,15.883,47.195,18.622z"/>
	<path style="fill:#1D1D1B;" d="M31.491,41.658c-2.536,0.402-5.085,0.684-7.652,0.771c-1.103,0.038-2.207,0.04-3.31,0.013
		c-0.863-0.021-1.979-0.39-2.703-0.374c0.05-0.001,0.05-0.078,0-0.078c-0.474-0.004-0.347-0.076-0.653,0.307
		c-0.04,0.051-0.014,0.118,0.052,0.124c4.8,0.422,9.571,0.214,14.325-0.555C31.686,41.845,31.628,41.636,31.491,41.658z"/>
	<path style="fill:#1D1D1B;" d="M41.259,32.198c-4.43,0.248-8.847,0.365-13.283,0.28c-0.095-0.002-0.095,0.145,0,0.148
		c4.428,0.145,8.863,0.096,13.283-0.219C41.391,32.397,41.394,32.191,41.259,32.198z"/>
	<path style="fill:#1D1D1B;" d="M43.157,30.118c-3.091,0.006-6.187,0.155-9.277,0.249c-0.07,0.002-0.071,0.111,0,0.11
		c3.09-0.044,6.189-0.034,9.277-0.167C43.279,30.304,43.281,30.117,43.157,30.118z"/>
	<path style="fill:#1D1D1B;" d="M46.74,15.985c-3.51-0.032-7.032,0.158-10.541,0.267c-0.069,0.002-0.069,0.109,0,0.108
		c3.51-0.061,7.036-0.042,10.541-0.243C46.823,16.111,46.825,15.986,46.74,15.985z"/>
	<path style="fill:#1D1D1B;" d="M45.477,13.713c-3.795,0.067-7.593,0.273-11.386,0.437c-0.08,0.003-0.08,0.127,0,0.125
		c3.793-0.106,7.596-0.172,11.386-0.376C45.596,13.893,45.598,13.711,45.477,13.713z"/>
	<path style="fill:#1D1D1B;" d="M41.687,5.998c-2.866-0.311-5.775-0.284-8.653-0.184c-0.1,0.003-0.101,0.159,0,0.156
		c2.894-0.073,5.763,0.078,8.653,0.186C41.79,6.16,41.786,6.009,41.687,5.998z"/>
</g>
<g>
</g>
<g>
</g>
<g>
</g>
<g>
</g>
<g>
</g>
<g>
</g>
<g>
</g>
<g>
</g>
<g>
</g>
<g>
</g>
<g>
</g>
<g>
</g>
<g>
</g>
<g>
</g>
<g>
</g>
</svg>
