<?xml version="1.0" encoding="iso-8859-1"?>
<!-- Generator: Adobe Illustrator 18.0.0, SVG Export Plug-In . SVG Version: 6.00 Build 0)  -->
<!DOCTYPE svg PUBLIC "-//W3C//DTD SVG 1.1//EN" "http://www.w3.org/Graphics/SVG/1.1/DTD/svg11.dtd">
<svg version="1.1" id="Capa_1" xmlns="http://www.w3.org/2000/svg" xmlns:xlink="http://www.w3.org/1999/xlink" x="0px" y="0px"
	 viewBox="0 0 49.046 49.046" style="enable-background:new 0 0 49.046 49.046;" xml:space="preserve">
<g>
	<g>
		<path style="fill:#1D1D1B;" d="M18.73,41.896c-0.062-0.056-0.154,0.034-0.093,0.093c1.288,1.217,3.734,0.952,5.64,0.823
			C21.989,42.873,19.675,42.742,18.73,41.896z"/>
		<path style="fill:#1D1D1B;" d="M24.278,42.812c0.428-0.011,0.854-0.028,1.271-0.05c-0.038,0-0.076,0.001-0.113,0.001
			C25.091,42.761,24.693,42.784,24.278,42.812z"/>
		<path style="fill:#1D1D1B;" d="M48.487,20.169c-0.142-0.117-0.42-0.075-0.495,0.134c-0.632,1.75-1.116,3.386-2.322,4.854
			c-0.845,1.029-1.848,1.943-2.581,3.06c-3.003,2.536-5.945,5.251-9.721,6.557c-4.062,1.404-8.599,1.682-12.828,1.16
			c-8.884-1.097-16.194-6.39-19.322-14.824c0-0.002,0-0.005,0.001-0.007c0.017-0.133-0.047-0.223-0.138-0.273
			c-0.217-0.239-0.682-0.071-0.586,0.309c0.006,0.025,0.015,0.048,0.022,0.073c-1.754,6.167,1.208,14.472,5.154,19.346
			c4.284,5.291,11.303,7.208,17.864,7.348c15.262,0.325,25.777-12.589,25.506-27.358C49.034,20.206,48.727,20.084,48.487,20.169z
			 M43.688,35.69c-2.623-0.072-5.255-0.01-7.878,0.001c-0.104,0-0.105,0.162,0,0.162c2.59,0.011,5.188,0.071,7.778,0.003
			c-0.476,0.784-0.975,1.548-1.524,2.266c-6.728-0.056-13.45-0.131-20.175-0.34c-0.064-0.002-0.064,0.097,0,0.099
			c6.678,0.277,13.364,0.452,20.048,0.416c-0.542,0.696-1.109,1.367-1.721,1.992c-8.143-0.287-16.291-0.507-24.437-0.653
			c-0.054-0.001-0.054,0.082,0,0.084c8.097,0.309,16.198,0.543,24.299,0.712c-0.698,0.699-1.437,1.354-2.227,1.951
			c-2.872,0.074-5.745,0.144-8.618,0.172c-0.817,0.008-2.187,0.129-3.683,0.206c4.024,0.022,8.045-0.046,12.066-0.209
			c-1.278,0.938-2.669,1.743-4.186,2.381c-6.333,0.266-12.582,0.031-18.884-0.879c-0.049-0.007-0.071,0.067-0.021,0.075
			c6.132,1.004,12.299,1.373,18.488,0.975c-2.557,1.011-5.445,1.577-8.681,1.584c-5.937,0.014-12.501-1.515-16.773-5.923
			c-4.1-4.231-6.597-11.657-6.468-17.735c2.844,7.748,10.291,12.471,18.402,13.63c7.369,1.053,13.821-0.097,19.3-3.899
			c2.107,0.025,4.208,0.161,6.312,0.229C44.675,33.922,44.205,34.826,43.688,35.69z M46.833,28.293
			c-0.787-0.048-1.593,0.001-2.378,0.005c-0.124,0.001-0.124,0.191,0,0.192c0.766,0.004,1.552,0.051,2.322,0.008
			c-0.208,0.707-0.43,1.406-0.68,2.089c-1.39-0.073-2.782-0.118-4.172-0.173c-0.106-0.004-0.106,0.16,0,0.165
			c1.368,0.059,2.737,0.128,4.106,0.17c-0.259,0.698-0.532,1.387-0.835,2.055c-2.044-0.178-4.112-0.2-6.16-0.214
			c1.516-1.08,2.962-2.354,4.326-3.857c2.107-0.814,3.728-3.292,4.582-5.707C47.698,24.834,47.321,26.594,46.833,28.293z"/>
	</g>
	<path style="fill:#1D1D1B;" d="M21.012,1.156C9.741,1.6-1.316,13.836,5.087,25.007c0.167,0.291,0.591,0.106,0.546-0.205
		c8.963-8.892,28.321-9.194,37.279-0.345c0.274,0.271,0.606,0.212,0.82,0.015c0.235,0.07,0.518-0.018,0.625-0.327
		C49.327,9.86,33.438,0.666,21.012,1.156z M37.208,18.875c-4.583-1.99-9.864-2.282-15.023-1.748
		c-5.507,0.57-13.825,1.41-16.711,6.934c-1.077-4.844-1.096-9.494,1.675-13.904c3.024-4.813,8.956-7.743,14.579-7.657
		c4.873,0.074,9.807,1.404,13.778,3.834c-3.399-0.375-6.816-0.572-10.235-0.653c-0.107-0.003-0.107,0.164,0,0.167
		c3.543,0.1,7.064,0.371,10.589,0.723c1.074,0.686,2.091,1.437,2.992,2.287c-5.014-0.392-10.036-0.702-15.053-1.049
		c-0.09-0.006-0.089,0.133,0,0.139c5.09,0.376,10.18,0.793,15.274,1.121c1.616,1.578,2.912,3.415,3.73,5.516
		c-7.228-0.564-14.48-0.924-21.717-1.33c-0.093-0.005-0.091,0.136,0,0.144c0.27,0.023,0.54,0.045,0.811,0.068
		c0.046,0.004,0.057-0.073,0.011-0.081c6.798,1.088,14.056,1.131,20.968,1.41c0.133,0.359,0.271,0.716,0.376,1.09
		c-7.535-0.331-15.078-0.476-22.62-0.444c-0.088,0-0.088,0.137,0,0.137c7.564,0.048,15.119,0.234,22.677,0.515
		c0.104,0.391,0.188,0.792,0.261,1.199c-3.657-0.197-7.297-0.404-10.941-0.837c-0.103-0.012-0.101,0.148,0,0.16
		c3.633,0.464,7.306,0.811,10.973,0.859c0.119,0.709,0.174,1.447,0.192,2.202c-2.154-0.367-4.338-0.592-6.505-0.869
		C37.243,18.801,37.216,18.836,37.208,18.875z M43.502,23.292c-1.759-1.892-3.778-3.281-5.961-4.276
		c2.081,0.293,4.166,0.628,6.258,0.828C43.813,20.947,43.728,22.093,43.502,23.292z"/>
	<path style="fill:#1D1D1B;" d="M41.312,12.098c-5.169-0.907-10.376-1.22-15.621-1.029c-0.064,0.002-0.064,0.101,0,0.099
		c5.245-0.171,10.397,0.225,15.572,1.106C41.378,12.295,41.428,12.119,41.312,12.098z"/>
</g>
<g>
</g>
<g>
</g>
<g>
</g>
<g>
</g>
<g>
</g>
<g>
</g>
<g>
</g>
<g>
</g>
<g>
</g>
<g>
</g>
<g>
</g>
<g>
</g>
<g>
</g>
<g>
</g>
<g>
</g>
</svg>
