<?xml version="1.0" encoding="iso-8859-1"?>
<!-- Generator: Adobe Illustrator 18.0.0, SVG Export Plug-In . SVG Version: 6.00 Build 0)  -->
<!DOCTYPE svg PUBLIC "-//W3C//DTD SVG 1.1//EN" "http://www.w3.org/Graphics/SVG/1.1/DTD/svg11.dtd">
<svg version="1.1" id="Capa_1" xmlns="http://www.w3.org/2000/svg" xmlns:xlink="http://www.w3.org/1999/xlink" x="0px" y="0px"
	 viewBox="0 0 50.633 50.633" style="enable-background:new 0 0 50.633 50.633;" xml:space="preserve">
<g>
	<path style="fill:#1D1D1B;" d="M35.82,12.195c-6.846-3.583-17.373-4.228-23.01,1.788c0.026-0.153,0.051-0.306,0.077-0.458
		c0.097-0.417,0.109-0.882,0.154-1.307c0.161-1.524,0.264-3.054,0.302-4.585c0.005-0.195,0.015-0.406,0.026-0.619
		c0.138-0.016,0.277-0.025,0.414-0.044c0.09-0.012,0.096-0.149,0-0.146c-0.136,0.006-0.271,0.017-0.406,0.024
		c0.095-1.792,0.267-4.082-0.811-5.477c-1.448-1.874-4.217-1.741-5.591-0.116c-3.248,1.28-2.196,7.02-2.131,9.824
		C5.038,19.515,4.75,28.104,5.54,36.506c0.018,0.193,0.131,0.316,0.268,0.37c1.219,8.548,11.716,13.988,19.675,13.75
		c9.056-0.271,17.064-6.472,19.531-15.145C47.737,25.905,44.894,16.944,35.82,12.195z M40.536,30.039
		c1.484,0.407,3.079,0.595,4.615,0.38c-0.05,0.93-0.169,1.859-0.358,2.779c-1.486,0.06-2.961,0.127-4.452,0.059
		c-0.106-0.005-0.105,0.158,0,0.165c1.461,0.094,2.943,0.125,4.405-0.017c-0.185,0.849-0.415,1.692-0.723,2.517
		c-1.652,0.045-3.289,0.144-4.947,0.111c-0.067-0.001-0.065,0.098,0,0.103c1.592,0.135,3.268,0.176,4.866-0.021
		c-0.158,0.409-0.318,0.819-0.507,1.219c-0.204,0.431-0.441,0.825-0.669,1.229c-1.657,0.142-3.291,0.262-4.957,0.201
		c-0.099-0.004-0.099,0.149,0,0.154c1.618,0.078,3.258,0.061,4.863-0.182c-0.482,0.837-0.993,1.639-1.557,2.376
		c-2.017,0.217-4.004,0.312-6.042,0.14c-0.099-0.008-0.098,0.145,0,0.154c1.951,0.184,3.924,0.187,5.869-0.073
		c-0.534,0.677-1.091,1.325-1.688,1.913c-2.385,0.073-4.746,0.225-7.136,0.152c-0.089-0.003-0.088,0.132,0,0.137
		c2.297,0.122,4.652,0.175,6.942-0.098c-0.689,0.659-1.412,1.267-2.17,1.809c-3.279,0.11-6.557,0.313-9.834,0.491
		c-0.075,0.004-0.076,0.121,0,0.118c3.164-0.116,6.333-0.211,9.495-0.387c-0.779,0.533-1.582,1.017-2.415,1.429
		c-4.264,0.184-8.499,0.458-12.773,0.41c-0.075-0.001-0.075,0.114,0,0.116c4.104,0.09,8.264,0.094,12.356-0.326
		c-10.01,4.671-23.211,0.8-27.311-11.386c0.225-5.055-0.06-10.159-0.153-15.213C6.184,16.75,4.237,3.316,8.351,1.44
		c0.004-0.002,0.004-0.007,0.008-0.009c1.193-0.522,2.273,0.137,3.024,1.285c-0.969-0.073-1.943-0.009-2.907,0.189
		C8.352,2.931,8.405,3.119,8.528,3.095c1.01-0.199,2-0.234,2.999-0.146c0.22,0.377,0.41,0.792,0.556,1.237
		c0.032,0.097,0.045,0.212,0.066,0.32C10.653,4.269,9.126,4.33,7.637,4.61C7.528,4.63,7.575,4.796,7.683,4.777
		c1.527-0.272,2.993-0.245,4.509-0.064c0.091,0.665,0.034,1.46-0.035,2.207C10.73,7.01,9.303,7.115,7.87,7.155
		c-0.084,0.002-0.084,0.132,0,0.131c1.415-0.023,2.848-0.045,4.267-0.152c-0.037,0.386-0.071,0.754-0.084,1.071
		c-0.017,0.456-0.057,0.913-0.091,1.37c-1.291,0.171-2.567,0.316-3.881,0.318c-0.084,0-0.084,0.129,0,0.131
		c1.283,0.024,2.594-0.028,3.868-0.245c-0.068,0.849-0.147,1.7-0.22,2.55c-0.01-0.021-0.02-0.046-0.049-0.043
		c-1.159,0.116-2.213,0.16-3.358-0.119C8.243,12.149,8.21,12.27,8.289,12.29c1.095,0.284,2.3,0.407,3.409,0.131
		c0.021-0.005,0.019-0.027,0.027-0.043c-0.093,1.087-0.166,2.174-0.134,3.256c0.01,0.338,0.395,0.45,0.611,0.271
		c0.288,0.126,0.659,0.103,0.899-0.208c5.239-6.811,16.429-5.971,23.191-2.073c-3.617-0.534-7.272-0.795-10.925-0.898
		c-0.099-0.003-0.099,0.15,0,0.154c3.821,0.138,7.595,0.532,11.384,1.016c1.025,0.634,1.956,1.367,2.8,2.175
		c-3.603-0.299-7.211-0.542-10.818-0.786c-0.094-0.006-0.092,0.138,0,0.146c3.696,0.315,7.395,0.634,11.097,0.889
		c0.949,0.948,1.776,1.996,2.479,3.117c-1.497-0.192-3-0.351-4.501-0.499c-0.122-0.012-0.117,0.172,0,0.188
		c1.551,0.207,3.107,0.405,4.664,0.563c0.502,0.83,0.939,1.698,1.304,2.596c-1.412-0.216-2.857-0.294-4.278-0.43
		c-0.125-0.012-0.123,0.181,0,0.194c1.444,0.156,2.902,0.379,4.354,0.445c0.393,1.003,0.714,2.035,0.93,3.092
		c-1.554-0.016-3.08-0.103-4.62-0.375c-0.114-0.02-0.163,0.153-0.048,0.175c1.55,0.292,3.128,0.458,4.706,0.412
		c0.279,1.445,0.398,2.926,0.335,4.408c-1.558,0.098-3.029,0.081-4.578-0.315C40.481,29.866,40.44,30.013,40.536,30.039z"/>
	<path style="fill:#1D1D1B;" d="M21.539,29.665c-0.495-2.302-2.601-3.602-4.79-3.523c-2.615-1.368-3.677,2.874-3.503,4.649
		c0.242,2.476,2.072,4.509,4.696,4.172C20.492,34.637,22.07,32.136,21.539,29.665z M18.293,33.462
		c-1.667,0.502-3.136-0.456-3.579-2.083c-0.494-1.814-0.076-3.914,1.95-4.328c0.029-0.006,0.042-0.03,0.067-0.041
		c0.64,0.078,1.268,0.278,1.817,0.6c-0.756-0.088-1.522-0.018-2.266,0.196c-0.072,0.021-0.042,0.132,0.031,0.112
		c0.861-0.234,1.692-0.239,2.538-0.083c0.385,0.279,0.732,0.607,0.978,1.032c-1.11-0.117-2.242-0.03-3.34,0.15
		c-0.062,0.01-0.035,0.102,0.026,0.094c1.133-0.157,2.234-0.142,3.372-0.075c0.016,0.001,0.024-0.007,0.035-0.013
		c0.005,0.009,0.011,0.017,0.016,0.027C20.735,30.675,20.13,32.909,18.293,33.462z"/>
	<path style="fill:#1D1D1B;" d="M38.825,26.411c-1.627-7.357-9.304-12.227-16.494-10.033c-0.121-0.063-0.267-0.086-0.442-0.026
		c-7.52,2.566-13.597,7.173-11.763,15.967c1.61,7.717,8.996,13.487,16.965,11.977C34.957,42.805,40.551,34.211,38.825,26.411z
		 M26.039,42.913c-7.14,0.884-13.433-3.836-14.936-10.863c-1.769-8.267,4.388-12.07,11.121-14.488
		c0.229-0.082,0.349-0.253,0.397-0.441c6.599-0.601,12.714,2.046,14.751,8.937C39.571,33.5,33.562,41.981,26.039,42.913z"/>
	<path style="fill:#1D1D1B;" d="M19.888,31.617c-1.474-0.053-2.953-0.008-4.427,0.01c-0.064,0.001-0.064,0.098,0,0.099
		c1.475,0.017,2.953,0.063,4.427,0.009C19.964,31.732,19.964,31.62,19.888,31.617z"/>
	<path style="fill:#1D1D1B;" d="M20.108,30.262c-1.056,0.004-2.124,0.155-3.176,0.243c-0.076,0.006-0.078,0.125,0,0.12
		c1.059-0.072,2.143-0.085,3.193-0.241C20.195,30.373,20.177,30.261,20.108,30.262z"/>
	<path style="fill:#1D1D1B;" d="M44.997,28.033c-1.207-0.263-2.512-0.157-3.669,0.274c-0.101,0.038-0.063,0.193,0.045,0.165
		c1.217-0.316,2.351-0.377,3.596-0.235C45.085,28.249,45.11,28.057,44.997,28.033z"/>
</g>
<g>
</g>
<g>
</g>
<g>
</g>
<g>
</g>
<g>
</g>
<g>
</g>
<g>
</g>
<g>
</g>
<g>
</g>
<g>
</g>
<g>
</g>
<g>
</g>
<g>
</g>
<g>
</g>
<g>
</g>
</svg>
