<?xml version="1.0" encoding="iso-8859-1"?>
<!-- Generator: Adobe Illustrator 18.0.0, SVG Export Plug-In . SVG Version: 6.00 Build 0)  -->
<!DOCTYPE svg PUBLIC "-//W3C//DTD SVG 1.1//EN" "http://www.w3.org/Graphics/SVG/1.1/DTD/svg11.dtd">
<svg version="1.1" id="Capa_1" xmlns="http://www.w3.org/2000/svg" xmlns:xlink="http://www.w3.org/1999/xlink" x="0px" y="0px"
	 viewBox="0 0 48.381 48.381" style="enable-background:new 0 0 48.381 48.381;" xml:space="preserve">
<g>
	<path style="fill:#1D1D1B;" d="M9.083,11.958c-0.046-0.024-0.089-0.027-0.134-0.04c0.174-0.139,0.21-0.457-0.022-0.559
		c-2.633-1.156-4.95,1.929-5.62,4.171c-0.874,2.926-0.117,6.817,3.058,7.973c2.742,0.999,5.298-1.184,6.108-3.711
		C13.487,16.628,11.942,13.465,9.083,11.958z M11.341,18.085c-2.04,0.258-4.056,0.6-6.12,0.715c-0.123,0.007-0.125,0.197,0,0.193
		c2.006-0.057,4.097-0.156,6.086-0.55c-0.061,0.389-0.152,0.778-0.3,1.153c-0.751,0.145-1.489,0.371-2.237,0.531
		c-0.355,0.076-0.711,0.145-1.068,0.209c-0.28,0.05-1.368,0.468-1.053-0.189c0.025-0.052-0.049-0.098-0.079-0.046
		c-0.116,0.17-0.232,0.34-0.348,0.51c-0.058,0.072-0.029,0.21,0.084,0.203c1.468-0.1,3.115-0.336,4.534-0.839
		c-0.89,1.845-2.778,3.142-4.842,1.655c-3.525-2.54-1.13-8.091,2.233-9.443c-0.185,0.279-0.183,0.676,0.197,0.891
		c0.83,0.469,1.538,1.1,2.054,1.856c-1.751,0.003-3.515,0.15-5.26,0.228c-0.119,0.005-0.121,0.188,0,0.186
		c1.811-0.026,3.647,0.022,5.458-0.094c0.233,0.4,0.419,0.827,0.536,1.285c-1.533,0.092-3.069,0.355-4.591,0.544
		c-0.132,0.016-0.137,0.224,0,0.211c1.547-0.148,3.124-0.227,4.659-0.475c0.054,0.282,0.092,0.571,0.096,0.872
		C11.381,17.82,11.352,17.954,11.341,18.085z"/>
	<path style="fill:#1D1D1B;" d="M22.863,3.03c0.018-0.068-0.005-0.132-0.071-0.164c-0.763-1.765-2.197-2.973-4.39-2.859
		c-0.168,0.009-0.292,0.073-0.39,0.16c-6.275,1.455-5.867,15.882,0.469,14.531C22.72,13.794,24.48,7.063,22.863,3.03z M15.716,6.946
		c2.065,0.046,4.172,0.033,6.23-0.218c-0.033,0.585-0.116,1.175-0.248,1.748c-1.816,0.031-3.645,0.245-5.454,0.377
		c-0.166,0.012-0.168,0.269,0,0.26c1.782-0.096,3.593-0.118,5.37-0.307c-0.15,0.563-0.34,1.107-0.575,1.604
		c-1.37,0.217-2.703,0.352-4.108,0.228c-0.159-0.014-0.154,0.228,0,0.246c1.28,0.149,2.617,0.157,3.897-0.082
		c-0.505,0.924-1.149,1.664-1.908,2.025c-4.44,2.112-5.314-8.945-0.875-11.714c0.094,0.072,0.207,0.128,0.357,0.137
		c1.225,0.068,2.092,0.641,2.665,1.497c-1.094,0.006-2.202,0.122-3.257,0.246c-0.154,0.018-0.16,0.259,0,0.246
		c1.173-0.094,2.339-0.057,3.506-0.052c0.222,0.437,0.388,0.921,0.492,1.445c-1.214,0.078-2.416,0.168-3.643,0.126
		c-0.191-0.006-0.189,0.285,0,0.295c1.217,0.068,2.476,0.097,3.701-0.031c0.062,0.442,0.1,0.895,0.091,1.361
		c-2.082,0.153-4.146,0.339-6.241,0.34C15.573,6.725,15.573,6.943,15.716,6.946z"/>
	<path style="fill:#1D1D1B;" d="M37.121,6.92c-0.394-2.885-2.691-6.734-6.147-5.801c-6.019,1.625-5.317,15.489,0.748,14.382
		c0.094,0.369,0.479,0.659,0.912,0.405C35.782,14.059,37.623,10.594,37.121,6.92z M30.588,7.958
		c1.745,0.135,3.531,0.386,5.282,0.364c-0.014,0.427-0.059,0.851-0.139,1.259c-0.027,0.14-0.077,0.267-0.112,0.402
		c-1.44-0.058-2.904-0.001-4.337,0.042c-0.172,0.005-0.172,0.262,0,0.267c1.399,0.042,2.829,0.097,4.237,0.046
		c-0.136,0.424-0.295,0.833-0.497,1.216c-0.597,0.084-1.188,0.204-1.793,0.246c-0.709,0.05-1.409-0.001-2.118-0.019
		c-0.102-0.003-0.126,0.158-0.024,0.18c1.151,0.247,2.538,0.26,3.733-0.029c-0.691,1.146-1.678,2.095-2.832,2.872
		c-0.018,0.012-0.025,0.028-0.041,0.041c-0.815-0.11-1.471-0.463-1.997-0.964c1.233-0.035,2.488-0.191,3.649-0.599
		c0.12-0.042,0.073-0.226-0.053-0.193c-1.246,0.324-2.462,0.577-3.745,0.638c-1.375-1.455-1.773-3.982-1.662-5.76
		c0.063-0.999,0.326-1.99,0.743-2.895c0.822-1.785,1.762-2.82,3.769-2.241c1.014,0.293,1.759,0.922,2.278,1.729
		c-1.424-0.292-2.922-0.403-4.347-0.496c-0.167-0.011-0.166,0.248,0,0.26c1.554,0.115,3.059,0.412,4.588,0.647
		c0.172,0.333,0.31,0.689,0.417,1.059c-2.056-0.253-4.164-0.288-6.226-0.424c-0.146-0.01-0.142,0.211,0,0.225
		c2.096,0.198,4.224,0.514,6.333,0.582c0.116,0.518,0.178,1.056,0.181,1.595c-1.738-0.247-3.54-0.237-5.29-0.332
		C30.406,7.667,30.409,7.944,30.588,7.958z"/>
	<path style="fill:#1D1D1B;" d="M45.248,20.5c0.038-0.074,0.029-0.16-0.035-0.212c-0.709-3.82-3.277-6.991-7.215-5.344
		c-3.127,1.308-3.707,6.314-3.183,9.205c0.66,3.645,3.444,5.375,6.958,4.553c0.03-0.007,0.04-0.029,0.062-0.043
		c0.055,0.292,0.354,0.531,0.684,0.326C44.988,27.453,45.793,23.769,45.248,20.5z M44.369,23.796
		c-1.454-0.029-2.887,0.025-4.344-0.11c-0.16-0.015-0.2,0.261-0.038,0.283c1.407,0.19,2.912,0.334,4.335,0.183
		c-0.095,0.639-0.259,1.261-0.519,1.837c-0.023-0.034-0.054-0.061-0.102-0.059c-1.931,0.068-3.834,0.251-5.771,0.198
		c-0.148-0.004-0.146,0.221,0,0.229c1.903,0.099,3.882,0.157,5.769-0.153c-0.38,0.758-0.906,1.44-1.659,1.963
		c-0.065,0.045-0.112,0.099-0.147,0.157c-0.043-0.061-0.101-0.112-0.187-0.118c-3.208-0.255-5.402-1.531-5.676-4.938
		c-0.151-1.873,0.13-5.107,1.598-6.502c1.718-1.631,3.517-0.88,4.802,0.514c-1.204-0.137-2.421-0.115-3.633,0.041
		c-0.16,0.021-0.166,0.273,0,0.257c1.335-0.132,2.637-0.087,3.948,0.069c0.229,0.286,0.44,0.589,0.623,0.9
		c-1.455-0.142-2.957-0.079-4.389,0.015c-0.211,0.014-0.214,0.341,0,0.331c1.568-0.076,3.098,0.046,4.648,0.132
		c0.206,0.415,0.37,0.83,0.469,1.216c-1.882-0.005-3.752,0.024-5.64-0.129c-0.22-0.018-0.216,0.321,0,0.341
		c1.884,0.178,3.825,0.313,5.728,0.207c0.105,0.517,0.181,1.046,0.212,1.583c-1.672-0.145-3.401-0.072-5.068-0.112
		c-0.136-0.003-0.135,0.206,0,0.211c1.67,0.061,3.396,0.241,5.078,0.196C44.418,22.958,44.413,23.38,44.369,23.796z"/>
	<path style="fill:#1D1D1B;" d="M42.884,36.967c-1.81-5.139-8.361-6.952-11.484-11.135c-2.157-2.89-4.329-6.067-7.959-5.888
		c0.003-0.24-0.186-0.472-0.511-0.404c-5.527,1.141-6.923,7.912-11.246,10.847c-3.013,2.046-6.571,3.474-7.325,7.452
		c-0.655,3.457,1.106,6.916,4.075,8.697c5.084,3.05,10.214-0.317,15.48-0.063c0.043,0.016,0.082,0.037,0.132,0.043
		c5.093,0.623,11.305,3.746,16.027,0.203C43.039,44.491,44.098,40.415,42.884,36.967z M42.114,42.069
		c-0.353,1.064-0.977,1.946-1.745,2.676c-9.723-0.928-19.619-0.995-29.375-0.741c-0.142,0.004-0.143,0.22,0,0.221
		c9.698,0.082,19.358,0.541,29.047,0.841c-1.584,1.326-3.732,2.01-5.783,2.007c-3.399-0.005-6.818-1.339-10.213-1.657
		c-0.161-0.015-0.28,0.034-0.366,0.112c-1.443-0.308-2.85-0.146-4.492,0.164c-2.999,0.566-5.756,1.57-8.8,0.303
		c-4.338-1.806-6.806-6.906-3.269-11.024c1.96-2.282,5.178-3.147,7.342-5.218c3.128-2.993,4.021-7.124,8.121-9.134
		c2.187,0.105,3.691,0.94,4.93,2.117c-1.932-0.16-3.93,0.009-5.849,0.191c-0.204,0.019-0.209,0.339,0,0.323
		c2.074-0.158,4.138-0.068,6.209-0.146c0.555,0.579,1.067,1.217,1.565,1.891c-2.208-0.301-4.53-0.209-6.726,0.032
		c-0.187,0.021-0.194,0.313,0,0.299c2.372-0.174,4.662-0.033,7.025,0.077c0.445,0.613,0.891,1.242,1.368,1.86
		c-2.951-0.187-6,0.039-8.921,0.373c-0.163,0.018-0.17,0.271,0,0.26c3.092-0.204,6.159-0.149,9.248-0.213
		c0.164,0.204,0.332,0.406,0.505,0.604c0.636,0.728,1.324,1.344,2.047,1.905c-4.913-0.233-9.855-0.16-14.767-0.02
		c-0.149,0.004-0.15,0.233,0,0.232c5.142-0.03,10.269,0.155,15.408,0.264c1.028,0.742,2.11,1.413,3.199,2.163
		c1.373,0.946,2.656,2.1,3.528,3.455c-1.534-0.85-4.81-0.365-6.527-0.408c-3.337-0.085-6.676-0.078-10.011,0.079
		c-0.146,0.007-0.148,0.229,0,0.229c2.712,0,5.423-0.01,8.134,0.062c1.251,0.033,2.502,0.081,3.752,0.142
		c1.261,0.062,3.389-0.304,4.514-0.014c-0.224-0.058-0.356,0.251-0.157,0.373c0.024,0.015,0.048,0.029,0.072,0.044
		c0.075,0.046,0.203,0.038,0.262-0.034c0.023-0.027,0.045-0.055,0.068-0.082c0.034-0.041,0.039-0.092,0.046-0.141
		C42.442,38.118,42.814,39.961,42.114,42.069z"/>
	<path style="fill:#1D1D1B;" d="M40.933,42.991c-8.042-1.153-16.226-1.495-24.342-1.452c-0.118,0.001-0.118,0.181,0,0.183
		c8.146,0.153,16.194,0.828,24.299,1.587C41.069,43.325,41.113,43.017,40.933,42.991z"/>
	<path style="fill:#1D1D1B;" d="M42.121,39.895c-9.423-0.86-18.868-1.221-28.329-1.064c-0.102,0.002-0.102,0.158,0,0.158
		c9.471,0.05,18.898,0.5,28.329,1.374C42.421,40.39,42.419,39.922,42.121,39.895z"/>
	<path style="fill:#1D1D1B;" d="M38.288,33.664c-6.78-0.865-13.646-1.033-20.473-0.867c-0.135,0.003-0.136,0.212,0,0.211
		c6.864-0.042,13.644,0.438,20.473,1.075C38.559,34.108,38.549,33.697,38.288,33.664z"/>
</g>
<g>
</g>
<g>
</g>
<g>
</g>
<g>
</g>
<g>
</g>
<g>
</g>
<g>
</g>
<g>
</g>
<g>
</g>
<g>
</g>
<g>
</g>
<g>
</g>
<g>
</g>
<g>
</g>
<g>
</g>
</svg>
