<?xml version="1.0" encoding="iso-8859-1"?>
<!-- Generator: Adobe Illustrator 18.0.0, SVG Export Plug-In . SVG Version: 6.00 Build 0)  -->
<!DOCTYPE svg PUBLIC "-//W3C//DTD SVG 1.1//EN" "http://www.w3.org/Graphics/SVG/1.1/DTD/svg11.dtd">
<svg version="1.1" id="Capa_1" xmlns="http://www.w3.org/2000/svg" xmlns:xlink="http://www.w3.org/1999/xlink" x="0px" y="0px"
	 viewBox="0 0 49.141 49.141" style="enable-background:new 0 0 49.141 49.141;" xml:space="preserve">
<g>
	<path style="fill:#1D1D1B;" d="M45.927,24.806C44.069,13.828,34.255,9.501,24.142,8.809c-0.186-0.013-0.319,0.056-0.406,0.162
		c-2.187-0.433-3.726,1.238-3.806,3.471c-0.077,2.135,1.271,3.767,3.122,4.439c0.041,0.115,0.129,0.22,0.261,0.234
		c4.669,0.494,8.709,1.673,11.533,5.668c2.663,3.768,2.722,8.822,0.073,12.654c-3.055,4.419-9.64,5.461-14.601,4.245
		c-5.766-1.413-8.361-6.732-8.962-12.184c-0.005-0.041-0.031-0.063-0.048-0.094c0.046-1.648,0.093-3.319,0.131-4.998
		c0.025-0.002,0.051-0.001,0.076-0.003c0.067-0.005,0.067-0.098,0-0.103c-0.024-0.002-0.049-0.001-0.074-0.003
		c0.136-6.094,0.132-12.324-0.619-18.248c0.592-2.38-2.132-4.322-4.285-4.019c-2.383,0.335-3.801,2.353-3.551,4.53
		c-0.137,7.231,0.33,14.482,0.631,21.704c0.238,5.71,0.547,11.109,4.263,15.729c5.993,7.45,16.513,8.892,25.018,5.178
		C41.443,43.439,47.53,34.274,45.927,24.806z M43.796,33.959c-1.413-0.03-2.83,0.004-4.243,0.013c-0.082,0-0.082,0.126,0,0.126
		c1.394,0.009,2.792,0.042,4.186,0.014c-0.322,0.87-0.701,1.718-1.145,2.532c-1.718,0.019-3.428,0.097-5.149,0.056
		c-0.076-0.002-0.076,0.115,0,0.118c1.67,0.08,3.384,0.126,5.057-0.014c-0.468,0.841-0.994,1.653-1.576,2.424
		c-1.788-0.066-3.59,0.009-5.379,0.023c-0.069,0-0.069,0.107,0,0.108c1.748,0.014,3.509,0.084,5.257,0.026
		c-0.619,0.804-1.28,1.578-2.008,2.293c-2.367,0.082-4.656,0.069-7.026-0.324c-0.09-0.015-0.129,0.122-0.038,0.138
		c2.237,0.406,4.558,0.601,6.835,0.406c-0.7,0.668-1.439,1.297-2.221,1.873c-4.366,0.095-8.676,0.136-13.036-0.206
		c-0.071-0.006-0.069,0.103,0,0.11c4.232,0.417,8.539,0.61,12.786,0.286c-0.75,0.537-1.533,1.03-2.342,1.474
		c-0.097-0.033-0.194-0.067-0.291-0.1c-0.095-0.033-0.163,0.124-0.069,0.164c-0.349-0.148-1.568,0.141-2.07,0.16
		c-1.056,0.039-2.113,0.069-3.17,0.088c-1.963,0.036-3.925,0.025-5.889-0.003c-0.102-0.001-0.102,0.155,0,0.158
		c3.604,0.107,7.208,0.074,10.808-0.096c-1.619,0.818-3.331,1.447-5.093,1.845C16.917,50.147,6.268,43.121,4.976,31.79
		C3.941,22.726,4.474,13.499,3.591,4.406c0.284-1.485,1.201-2.858,2.744-3.235c1.472-0.359,2.456,0.26,3.126,1.244
		C9.34,2.401,9.221,2.383,9.101,2.369C8.753,2.33,8.406,2.289,8.058,2.25C7.88,2.23,7.525,2.121,7.351,2.191
		C7.146,2.273,6.99,2.504,7.28,2.592c0.056,0.017,0.079-0.069,0.024-0.087c0.235-0.154,0.48-0.193,0.735-0.119l0.26,0.036
		C8.603,2.465,8.906,2.508,9.209,2.55C9.336,2.568,9.463,2.581,9.59,2.598c0.227,0.371,0.414,0.784,0.567,1.214
		c-0.022,0.247-0.03,0.498-0.049,0.746C9.237,4.342,8.346,4.361,7.471,4.599C7.366,4.628,7.41,4.789,7.515,4.762
		c0.872-0.22,1.72-0.199,2.579-0.005c-0.048,0.657-0.1,1.313-0.13,1.976c-0.881-0.12-1.783-0.154-2.667-0.22
		c-0.135-0.01-0.133,0.197,0,0.209c0.88,0.079,1.773,0.195,2.659,0.22c-0.041,0.962-0.067,1.929-0.077,2.9
		C9.3,9.78,8.718,9.732,8.14,9.681c-0.132-0.012-0.13,0.192,0,0.205c0.576,0.057,1.156,0.12,1.735,0.167
		c-0.007,0.795-0.006,1.592,0.004,2.391c-0.86-0.018-1.723-0.001-2.582,0.003c-0.109,0.001-0.109,0.168,0,0.169
		c0.86,0.004,1.724,0.021,2.586,0.003c0.009,0.639,0.017,1.278,0.035,1.919c-1.012-0.029-2.033,0.011-3.042,0.016
		c-0.111,0-0.111,0.172,0,0.173c1.011,0.004,2.034,0.044,3.049,0.015c0.024,0.824,0.048,1.649,0.085,2.473
		c-1.033-0.177-2.093-0.234-3.135-0.229c-0.106,0.001-0.106,0.165,0,0.165c1.064,0,2.099,0.111,3.144,0.254
		c0.037,0.816,0.069,1.632,0.115,2.446c-0.875-0.022-1.75-0.033-2.625-0.043c-0.06-0.001-0.06,0.091,0,0.093
		c0.877,0.023,1.753,0.044,2.63,0.056c0.044,0.767,0.091,1.532,0.14,2.295c-0.993-0.035-1.988-0.051-2.98-0.119
		c-0.082-0.006-0.081,0.12,0,0.127c0.986,0.078,1.992,0.167,2.992,0.178c0.054,0.832,0.111,1.661,0.168,2.487
		c-1.053-0.033-2.109,0-3.162,0.006c-0.054,0-0.054,0.084,0,0.084c1.053,0.006,2.11,0.04,3.162,0.006
		c0.004,0,0.003-0.006,0.006-0.007c0.062,0.887,0.124,1.771,0.186,2.648c-0.766-0.019-1.535,0.001-2.3,0.007
		c-0.056,0-0.056,0.086,0,0.086c0.768,0.006,1.539,0.027,2.307,0.007c0.029,0.413,0.059,0.831,0.087,1.241
		c0.008,0.122,0.086,0.185,0.174,0.217c0.024,0.295,0.058,0.589,0.099,0.882c-1.033-0.015-2.055-0.042-3.084-0.164
		c-0.067-0.008-0.067,0.097,0,0.105c1.025,0.126,2.068,0.198,3.103,0.167c0.638,4.274,3.102,8.18,7.279,9.93
		c5.357,2.244,13.419,1.225,17.186-3.453c6.883-8.551-0.746-20.656-10.915-20.266c-0.051-0.056-0.112-0.103-0.198-0.123
		c-1.63-0.383-2.929-1.594-3.16-3.299c-0.101-0.749-0.044-1.656,0.421-2.284c0.614-0.828,1.557-0.635,2.461-0.722
		c0.08-0.008,0.147-0.036,0.207-0.071c2.329,0.171,4.62,0.579,6.785,1.23c-2.593-0.083-5.191-0.103-7.784-0.15
		c-0.091-0.002-0.091,0.139,0,0.141c2.802,0.075,5.609,0.189,8.413,0.21c1.168,0.382,2.299,0.83,3.37,1.36
		c-2.945,0.123-5.871,0.178-8.833-0.011c-0.091-0.006-0.09,0.134,0,0.141c3.075,0.236,6.193,0.319,9.278,0.095
		c1.372,0.718,2.654,1.552,3.786,2.539c-0.627,0.084-1.716-0.112-2.134-0.122c-0.755-0.019-1.51-0.037-2.265-0.055
		c-1.762-0.043-3.524-0.089-5.286-0.132c-0.068-0.002-0.068,0.103,0,0.106c2.265,0.084,4.531,0.165,6.796,0.248
		c0.716,0.026,2.211,0.385,3.07,0.122c0.797,0.715,1.528,1.495,2.17,2.354c-2.53-0.271-5.078-0.449-7.614-0.64
		c-0.074-0.006-0.072,0.107,0,0.114c2.583,0.263,5.176,0.546,7.768,0.723c0.563,0.78,1.062,1.615,1.478,2.515
		c-2.297-0.353-4.617-0.588-6.922-0.873c-0.081-0.01-0.079,0.116,0,0.127c2.329,0.31,4.659,0.675,6.996,0.912
		c0.327,0.729,0.62,1.486,0.84,2.295c-2.048-0.1-4.1-0.133-6.15-0.192c-0.071-0.002-0.07,0.107,0,0.11
		c2.062,0.08,4.126,0.186,6.189,0.223c0.212,0.809,0.389,1.642,0.485,2.532c-1.71-0.199-3.47-0.218-5.189-0.279
		c-0.099-0.003-0.096,0.144,0,0.152c1.721,0.142,3.479,0.332,5.207,0.334c0.057,0.596,0.094,1.206,0.096,1.839
		C44.874,30.009,44.487,32.044,43.796,33.959z"/>
	<path style="fill:#1D1D1B;" d="M44.191,31.226c-1.401-0.186-2.81-0.304-4.216-0.442c-0.114-0.011-0.112,0.165,0,0.177
		c1.404,0.148,2.807,0.316,4.216,0.417C44.291,31.385,44.285,31.239,44.191,31.226z"/>
	<path style="fill:#1D1D1B;" d="M44.406,28.412c-1.499-0.14-2.931-0.211-4.391-0.628c-0.124-0.036-0.177,0.157-0.053,0.193
		c1.396,0.411,2.983,0.75,4.445,0.591C44.505,28.557,44.507,28.422,44.406,28.412z"/>
</g>
<g>
</g>
<g>
</g>
<g>
</g>
<g>
</g>
<g>
</g>
<g>
</g>
<g>
</g>
<g>
</g>
<g>
</g>
<g>
</g>
<g>
</g>
<g>
</g>
<g>
</g>
<g>
</g>
<g>
</g>
</svg>
