<?xml version="1.0" encoding="iso-8859-1"?>
<!-- Generator: Adobe Illustrator 18.0.0, SVG Export Plug-In . SVG Version: 6.00 Build 0)  -->
<!DOCTYPE svg PUBLIC "-//W3C//DTD SVG 1.1//EN" "http://www.w3.org/Graphics/SVG/1.1/DTD/svg11.dtd">
<svg version="1.1" id="Capa_1" xmlns="http://www.w3.org/2000/svg" xmlns:xlink="http://www.w3.org/1999/xlink" x="0px" y="0px"
	 viewBox="0 0 49.459 49.459" style="enable-background:new 0 0 49.459 49.459;" xml:space="preserve">
<g>
	<path style="fill:#1D1D1B;" d="M21.938,22.82c3.802-1.785,4.597-7.729,2.051-11.024c-1.537-1.989-4.213-2.472-6.546-2.78
		C12.02,8.3,6.424,8.337,1.006,9.03C0.878,9.046,0.779,9.104,0.696,9.175C0.51,9.212,0.343,9.348,0.327,9.596
		c-0.643,9.716-0.204,19.61,0.184,29.33c0.012,0.309,0.229,0.478,0.467,0.52c0.033,0.083,0.101,0.155,0.22,0.19
		c6.254,1.852,18.276,2.488,23.042-2.986C28.131,32.182,26.541,25.964,21.938,22.82z M23.686,34.591
		c-1.98,0.19-3.955,0.452-5.93,0.687c-0.074,0.009-0.076,0.126,0,0.118c1.928-0.191,3.863-0.36,5.787-0.592
		c-0.856,1.156-2.011,2.167-3.388,2.926c0.003-0.052-0.026-0.103-0.096-0.097c-4.444,0.365-9.031,1.433-13.492,1.14
		c-0.112-0.007-0.109,0.162,0,0.173c4.311,0.416,9.052-0.507,13.344-1.087c-0.892,0.464-1.867,0.827-2.91,1.055
		c-5.018,1.097-10.349,0.927-15.387,0.099c0.003-0.029,0.015-0.052,0.014-0.084C1.242,29.328,1.471,19.74,1.245,10.146
		c3.878-0.404,7.733-0.679,11.638-0.495c2.057,0.097,4.579,0.009,6.475,0.799c0.364,0.152,0.71,0.346,1.044,0.564
		c-3.34,0.2-6.693,0.4-10.016,0.756c-0.069,0.007-0.072,0.111,0,0.11c3.466-0.082,6.941-0.336,10.401-0.581
		c0.701,0.528,1.327,1.175,1.829,1.918c-1.488,0.307-2.905,0.543-4.438,0.435c-0.105-0.007-0.103,0.153,0,0.162
		c1.503,0.143,3.127,0.09,4.57-0.413c0.509,0.799,0.885,1.683,1.087,2.592c-1.397,0.079-2.767,0.175-4.173,0.121
		c-0.087-0.003-0.084,0.125,0,0.133c1.382,0.121,2.831,0.155,4.213-0.044c0.134,0.696,0.171,1.403,0.082,2.092
		c-0.018-0.032-0.049-0.056-0.097-0.047c-1.655,0.342-3.254,0.586-4.93,0.606c0.351-1.376-0.167-3.016-1.328-3.774
		c-0.005-0.174-0.099-0.34-0.314-0.393c-2.952-0.729-6.394-0.355-9.366,0.278c-0.111-0.114-0.322-0.127-0.357,0.074
		c-0.001,0.004-0.002,0.009-0.002,0.013c-0.184,0.067-0.2,0.314-0.075,0.431c-0.279,1.614-0.56,3.554-0.384,5.199
		c-0.455,0.162-0.367,0.973,0.221,1.038c2.226,0.245,4.446,0.225,6.664-0.087c1.415-0.199,3.256-0.382,4.283-1.519
		c0.283-0.314,0.47-0.688,0.596-1.084c1.686,0.07,3.445-0.076,5.042-0.604c0.019-0.006,0.028-0.02,0.038-0.031
		c-0.112,0.772-0.372,1.521-0.814,2.206c-1.581,0.118-3.149,0.352-4.735,0.439c-0.104,0.006-0.105,0.166,0,0.162
		c1.52-0.052,3.093-0.112,4.595-0.39c-0.416,0.583-0.951,1.121-1.655,1.576c-0.043,0.028-0.072,0.064-0.094,0.104
		c-3.137,0.348-6.273,0.834-9.391,1.307c-0.066,0.01-0.051,0.126,0.016,0.118c3.072-0.353,6.164-0.699,9.224-1.169
		c-0.203,0.222-0.253,0.604,0.073,0.825c0.921,0.623,1.66,1.297,2.244,2.002c-1.262,0.191-2.472,0.345-3.752,0.28
		c-0.099-0.005-0.098,0.147,0,0.154c1.264,0.087,2.582,0.06,3.814-0.265c0.022-0.006,0.034-0.019,0.044-0.033
		c0.489,0.615,0.865,1.251,1.129,1.9c-1.302,0.322-2.573,0.552-3.931,0.531c-0.098-0.001-0.097,0.149,0,0.152
		c1.337,0.045,2.719-0.079,4-0.495c0.265,0.71,0.416,1.43,0.439,2.148c-1.548,0.148-3.149,0.484-4.649,0.825
		c-0.045,0.01-0.037,0.088,0.011,0.083c1.522-0.155,3.135-0.345,4.64-0.694C25.153,31.715,24.626,33.245,23.686,34.591z
		 M8.039,15.53c2.882-0.152,5.729,0.079,8.593,0.039c1.788,1.165,1.543,3.907-0.665,4.562c-0.915,0.271-1.941,0.39-2.874,0.491
		c-1.653,0.178-3.304,0.174-4.958,0.08C8.401,19.081,8.225,17.139,8.039,15.53z"/>
	<path style="fill:#1D1D1B;" d="M18.258,25.998c-2.919-1.635-7.22-0.674-10.354-0.189c-0.11,0.017-0.174,0.079-0.211,0.156
		c-0.184-0.05-0.428,0.067-0.446,0.295c-0.1,1.221-0.114,2.444-0.16,3.669c-0.045,1.204-0.261,2.468-0.128,3.663
		c0.026,0.233,0.196,0.388,0.383,0.433c0.058,0.106,0.164,0.192,0.333,0.227c2.739,0.571,11.854,0.949,12.162-3.274
		C21.077,29.221,20.053,27.003,18.258,25.998z M7.988,33.182c0.474-2.081,0.288-4.642-0.053-6.717
		c0.023,0.006,0.036,0.027,0.061,0.027c2.861,0.07,11.42-1.374,11.276,2.963c-0.044,0.037-0.074,0.087-0.069,0.162
		c0.015,0.227-0.009,0.428-0.035,0.628c-0.04,0.172-0.092,0.351-0.155,0.537c-0.01,0.03-0.01,0.059-0.011,0.088
		C17.746,33.959,10.626,32.942,7.988,33.182z"/>
	<path style="fill:#1D1D1B;" d="M44.641,13.044c-0.011-0.537,0.074-1.073,0.054-1.607c-0.014-0.388-0.362-0.55-0.651-0.463
		c-0.065-0.034-0.141-0.057-0.229-0.063c-4.011-0.293-8.081-0.422-12.104-0.269c-0.119-0.079-0.281-0.071-0.4,0.01
		c-0.055,0.002-0.11,0.002-0.165,0.004c-0.399,0.018-0.415,0.478-0.125,0.632c-0.183,0.81-0.022,1.824,0.033,2.583
		c0.026,0.357,0.039,0.856,0.248,1.175c-0.007,0.184,0.117,0.387,0.342,0.401c-0.003,0.005-0.006,0.011-0.009,0.016
		c4.133-0.076,8.206-0.427,12.349-0.237c0.206,0.009,0.341-0.086,0.422-0.217c0.182-0.034,0.349-0.173,0.333-0.376
		C44.698,14.105,44.652,13.575,44.641,13.044z M31.837,14.709c-0.058-0.487,0.119-1.925,0.127-2.144
		c0.013-0.387,0.052-0.763,0.022-1.131c3.828,0.401,7.715,0.555,11.56,0.551c-0.031,0.231-0.035,0.468-0.028,0.705
		c-2.893,0.222-5.786,0.48-8.674,0.762c-0.07,0.007-0.073,0.116,0,0.112c2.897-0.173,5.795-0.372,8.688-0.605
		c0.034,0.41,0.113,0.819,0.233,1.204C39.824,13.987,35.722,13.945,31.837,14.709z"/>
	<path style="fill:#1D1D1B;" d="M49.391,29.398c0.662-6.044-3.563-11.577-9.597-12.545c-5.741-0.921-11.798,2.314-12.534,8.415
		c-0.687,5.686,1.597,12.711,7.561,14.341c5.65,1.544,13.264-0.313,14.423-6.862c0.06-0.337-0.182-0.546-0.433-0.554
		c0.036-0.251-0.091-0.537-0.358-0.578c-0.833-0.128-1.677,0.043-2.519,0.076c-0.927,0.036-1.855-0.008-2.782-0.01
		c-0.199,0-0.322,0.124-0.369,0.274c-0.079,0.044-0.15,0.102-0.199,0.198c-0.866,1.702-2.685,2.717-4.602,2.177
		c-1.848-0.521-3.076-2.282-3.639-4.03c4.755,0.499,9.885,0.561,14.64,0.258c0.467-0.03,0.511-0.61,0.152-0.771
		C49.265,29.714,49.37,29.588,49.391,29.398z M33.985,29.689c-0.201,0.017-0.284,0.168-0.27,0.313
		c-0.062,0.054-0.1,0.133-0.086,0.241c0.329,2.482,1.906,4.773,4.496,5.27c2.238,0.43,4.629-0.751,5.459-2.887
		c1.48,0.374,3.336,0.541,4.73,0.009c-0.334,0.872-0.767,1.641-1.265,2.332c-1.405,0.118-2.783,0.209-4.197,0.116
		c-0.092-0.006-0.091,0.137,0,0.143c1.349,0.1,2.728,0.107,4.071-0.093c-0.322,0.426-0.662,0.829-1.038,1.186
		c-1.64,0.205-3.27,0.33-4.934,0.302c-0.083-0.001-0.083,0.126,0,0.129c1.566,0.058,3.139,0,4.693-0.213
		c-0.597,0.528-1.247,0.977-1.947,1.338c-2.596-0.145-5.206-0.151-7.805-0.211c-0.071-0.001-0.07,0.107,0,0.11
		c2.493,0.093,4.992,0.234,7.487,0.257c-0.443,0.208-0.896,0.396-1.37,0.54c-1.984,0.136-3.927,0.174-5.914-0.019
		c-0.074-0.007-0.071,0.105,0,0.114c1.51,0.191,3.048,0.28,4.574,0.211c-1.765,0.296-3.661,0.189-5.553-0.344
		c-5.099-1.437-6.945-7.085-6.847-11.965c0.135-6.708,7.044-10.405,13.061-8.31c0.644,0.224,1.224,0.522,1.774,0.85
		c-2.336-0.122-4.673-0.203-7.007-0.392c-0.097-0.008-0.095,0.14,0,0.15c2.478,0.252,4.986,0.485,7.483,0.535
		c0.821,0.557,1.541,1.215,2.146,1.967c-1.622-0.311-3.345-0.266-4.984-0.167c-0.088,0.005-0.089,0.141,0,0.137
		c1.706-0.073,3.364,0.102,5.062,0.185c0.015,0.001,0.016-0.017,0.027-0.024c0.474,0.609,0.888,1.264,1.228,1.964
		c-1.189-0.035-2.391,0.019-3.576,0.026c-0.08,0-0.1,0.085-0.069,0.137c-1.131-1.878-3.608-2.962-5.732-2.69
		c-1.901,0.243-5.41,2.279-4.422,4.616c-0.137,0.154-0.088,0.462,0.141,0.511c3.035,0.649,6.486,0.395,9.582,0.452
		c0.492,0.009,0.627-0.522,0.421-0.841c0.306,0.048,0.633-0.221,0.563-0.604c-0.094-0.515-0.282-0.993-0.542-1.43
		c0.014,0.014,0.033,0.025,0.059,0.025c1.217,0.008,2.452,0.065,3.672,0.023c0.327,0.711,0.598,1.454,0.796,2.225
		c-0.009-0.003-0.015-0.01-0.025-0.009c-1.071,0.07-2.1,0.172-3.175,0.081c-0.129-0.011-0.127,0.188,0,0.2
		c1.05,0.099,2.164,0.133,3.198-0.111c0.019-0.005,0.03-0.017,0.04-0.03c0.143,0.581,0.26,1.171,0.331,1.772
		c-3.647-0.071-7.304-0.035-10.952-0.009c-0.091,0.001-0.091,0.14,0,0.141c3.652,0.062,7.312,0.133,10.964,0.097
		c0.005,0,0.006-0.004,0.011-0.005c0.047,0.449,0.08,0.901,0.088,1.355c0.002,0.14,0.052,0.243,0.122,0.319
		C43.81,29.328,38.708,29.278,33.985,29.689z M38.878,22.178c2.107,0.206,3.152,1.627,4.192,3.272
		c0.004,0.006,0.009,0.009,0.013,0.015c-0.034-0.007-0.063-0.022-0.101-0.023c-2.898-0.077-6.078-0.425-8.983-0.053
		c-0.001-0.01,0.002-0.02,0-0.03C33.593,23.214,37.388,22.033,38.878,22.178z"/>
	<path style="fill:#1D1D1B;" d="M21.961,35.749c-4.071,0.827-8.071,1.224-12.222,0.966c-0.079-0.005-0.078,0.116,0,0.122
		c4.111,0.351,8.268,0.128,12.274-0.899C22.136,35.907,22.084,35.725,21.961,35.749z"/>
	<path style="fill:#1D1D1B;" d="M24.095,32.279c-1.34,0.24-2.648,0.439-4.014,0.443c-0.102,0-0.102,0.157,0,0.158
		c1.356,0.019,2.748-0.07,4.064-0.418C24.266,32.43,24.214,32.258,24.095,32.279z"/>
</g>
<g>
</g>
<g>
</g>
<g>
</g>
<g>
</g>
<g>
</g>
<g>
</g>
<g>
</g>
<g>
</g>
<g>
</g>
<g>
</g>
<g>
</g>
<g>
</g>
<g>
</g>
<g>
</g>
<g>
</g>
</svg>
