<?xml version="1.0" encoding="iso-8859-1"?>
<!-- Generator: Adobe Illustrator 18.0.0, SVG Export Plug-In . SVG Version: 6.00 Build 0)  -->
<!DOCTYPE svg PUBLIC "-//W3C//DTD SVG 1.1//EN" "http://www.w3.org/Graphics/SVG/1.1/DTD/svg11.dtd">
<svg version="1.1" id="Capa_1" xmlns="http://www.w3.org/2000/svg" xmlns:xlink="http://www.w3.org/1999/xlink" x="0px" y="0px"
	 viewBox="0 0 47.723 47.723" style="enable-background:new 0 0 47.723 47.723;" xml:space="preserve">
<g>
	<path style="fill:#1D1D1B;" d="M46.752,39.142c-0.456-0.358-1.016-0.537-1.581-0.529c-0.076-0.118-0.196-0.209-0.358-0.215
		c-2.666-0.11-5.165-0.221-7.681-1.233c-3.241-1.304-3.28-3.708-3.033-6.803c0.004-0.055-0.009-0.101-0.02-0.149
		c0.02-0.149-0.035-0.311-0.2-0.428c-3.109-2.2-6.761,0.304-7.935,3.459c-1.253,3.37-0.548,7.586,1.857,10.265
		c4.061,4.523,19.988,7.371,19.658-2.13c0-0.008-0.007-0.011-0.008-0.018c0.074-0.022,0.142-0.061,0.178-0.138
		C47.971,40.484,47.317,39.586,46.752,39.142z M46.962,41.312c-0.269,0.849-0.663,1.574-1.139,2.203
		c0.006-0.048-0.002-0.101-0.036-0.128l-0.104-0.084c-0.075-0.06-0.161-0.049-0.218,0.028c-0.019,0.025-0.038,0.051-0.056,0.076
		c-0.074,0.1,0.066,0.214,0.161,0.161c-0.376,0.208-1.722,0.027-2.257,0.051c-0.813,0.037-1.626,0.05-2.44,0.043
		c-1.512-0.013-3.017-0.109-4.521-0.258c-0.14-0.014-0.137,0.202,0,0.218c2.198,0.256,4.4,0.38,6.613,0.325
		c0.705-0.018,2.242,0.266,2.785-0.317c-0.515,0.653-1.13,1.19-1.814,1.622c-3.636-0.061-7.276,0.064-10.915-0.015
		c-0.114-0.002-0.113,0.171,0,0.176c3.432,0.157,6.91,0.317,10.351,0.174c-3.71,1.926-9.127,1.081-12.499-1.284
		c-2.058-1.443-3.362-3.384-3.817-5.87c-0.718-3.921,1.611-8.198,5.846-7.912c-0.3,1.608-0.375,3.326,0.196,4.767
		c-0.841-0.011-1.687,0.032-2.523,0.043c-0.156,0.002-0.156,0.24,0,0.243c0.887,0.012,1.787,0.06,2.679,0.041
		c0.326,0.672,0.791,1.28,1.485,1.763c-1.217-0.002-2.439,0.084-3.644,0.207c-0.122,0.013-0.125,0.203,0,0.193
		c1.387-0.111,2.762-0.113,4.146-0.094c2.776,1.593,6.591,2.228,9.695,1.606c0.099-0.02,0.166-0.068,0.219-0.126
		c0.437,0.055,0.849,0.255,1.18,0.566c0.215,0.203,0.393,0.447,0.497,0.725c0.094,0.251,0.098,0.508,0.219,0.746
		C47.014,41.23,46.979,41.26,46.962,41.312z"/>
	<path style="fill:#1D1D1B;" d="M45.687,16.492c0.127-0.081,0.116-0.292-0.073-0.3c-0.015-0.001-0.03,0-0.045,0
		c-0.448-1.129-0.981-2.225-1.615-3.257c-0.076-0.124-0.234-0.113-0.33-0.037c-0.046,0.004-0.093,0.002-0.134,0.025
		c-1.458,0.815-2.832,1.708-4.505,0.689c-0.612-0.373-1.029-0.924-1.285-1.548c0.018-0.058,0-0.113-0.055-0.144
		c-0.3-0.829-0.32-1.772-0.067-2.621c0.021-0.069,0.008-0.13-0.022-0.179c0.037-0.181-0.094-0.408-0.307-0.327
		c-0.991,0.379-1.784,1.142-2.924,1.025c-0.31-0.032-0.554-0.119-0.771-0.227c0.059,0.001,0.117,0.004,0.176,0.005
		c0.118,0.002,0.15-0.189,0.028-0.211c-0.201-0.035-0.406-0.051-0.61-0.074c-0.671-0.647-0.657-1.789-0.377-2.824
		c0.033-0.121-0.044-0.224-0.143-0.267c0-0.005,0.001-0.009,0.001-0.014c-0.017-0.322-0.382-0.471-0.621-0.257
		c-0.519,0.465-0.885,1.02-1.658,1.071c-0.795,0.053-1.532-0.453-2.042-1.012c-0.644-0.706-0.973-1.571-1.102-2.478
		c0.059-0.068,0.042-0.178-0.032-0.243c-0.067-0.664-0.033-1.344,0.073-1.998c0.051-0.314-0.394-0.573-0.559-0.236
		c-0.021,0.043-0.031,0.09-0.051,0.134c-0.007-0.17-0.096-0.34-0.293-0.42C20.347-1.65,11.527,2.213,6.79,6.091
		C2.134,9.903,0.279,16.72,0.022,22.511c-0.661,14.917,13.666,25.127,27.796,23.922c0.258-0.022,0.317-0.295,0.182-0.439
		c0.195-0.164,0.248-0.505-0.035-0.686c-3.366-2.147-4.559-5.589-4.163-9.445c0.012-0.115-0.054-0.175-0.135-0.207
		c-0.053-0.074-0.131-0.135-0.255-0.159c-5.431-1.054-10.781-2.999-11.994-9.139c-1.012-5.122,1.775-10.188,5.986-12.961
		c0.075-0.004,0.15-0.001,0.225-0.006c0.127-0.008,0.164-0.131,0.126-0.219c0.376-0.232,0.758-0.452,1.153-0.646
		c5.048-2.48,11.192-0.914,14.445,3.762c2.713,3.9,2.558,8.391,1.963,12.834c-0.081,0.028-0.153,0.077-0.182,0.174
		c-0.621,2.103,0.185,4.37,1.926,5.699c1.408,1.074,4.05,1.753,5.559,0.55c0.153-0.122,0.148-0.305,0.067-0.455
		C47.5,30.103,48.062,22.748,45.687,16.492z M42.49,33.739c-1.459-0.067-2.936,0.01-4.396,0.027c-0.143,0.002-0.143,0.22,0,0.222
		c1.371,0.017,2.756,0.082,4.129,0.035c-0.185,0.197-0.356,0.397-0.557,0.591c-0.102,0.098-0.14,0.208-0.15,0.317
		c-0.435,0.069-0.867,0.154-1.321,0.13c-0.896-0.048-1.785-0.341-2.519-0.862c-1.413-1.003-1.977-2.697-1.978-4.364
		C38.821,21.14,32.624,10.24,23.8,10.225c-2.457-0.585-5.024-0.836-7.521-1.212c-0.171-0.026-0.248,0.234-0.073,0.264
		c1.989,0.348,3.997,0.777,6.008,1.055c-0.954,0.138-1.931,0.398-2.926,0.807c-1.877-0.259-3.796-0.322-5.685-0.467
		c-0.206-0.016-0.203,0.302,0,0.32c1.672,0.145,3.358,0.354,5.038,0.433c-0.077,0.036-0.153,0.064-0.23,0.102
		c-0.862,0.423-1.673,0.947-2.435,1.539c-1.552-0.029-3.091-0.102-4.644-0.311c-0.146-0.02-0.182,0.237-0.035,0.259
		c1.403,0.212,2.828,0.361,4.252,0.401c-0.465,0.39-0.917,0.797-1.335,1.24c-1.707-0.187-3.443-0.223-5.155-0.318
		c-0.148-0.008-0.145,0.216,0,0.229c1.614,0.136,3.241,0.325,4.863,0.39c-1.257,1.403-2.257,3.038-2.902,4.795
		c-1.001-0.032-2.014,0.017-3.011,0.03c-0.133,0.002-0.134,0.206,0,0.207c0.964,0.012,1.941,0.06,2.91,0.035
		c-0.301,0.877-0.516,1.781-0.628,2.702c-1.052-0.022-2.106-0.004-3.156,0.003c-0.167,0.001-0.168,0.259,0,0.26
		c1.038,0.006,2.08,0.024,3.12,0.003c-0.073,0.726-0.085,1.461-0.025,2.198c0.013,0.16,0.037,0.311,0.055,0.467
		c-1.281-0.031-2.574,0.032-3.85,0.043c-0.17,0.001-0.17,0.262,0,0.264c1.289,0.011,2.597,0.075,3.891,0.042
		c0.15,1.048,0.411,2.001,0.774,2.861c-2.244-0.137-4.519-0.072-6.766-0.099c-0.12-0.001-0.12,0.182,0,0.186
		c2.291,0.076,4.608,0.25,6.901,0.204c0.455,0.989,1.039,1.861,1.737,2.62c-1.53-0.035-3.09,0.135-4.615,0.211
		c-0.117,0.006-0.118,0.186,0,0.183c1.595-0.043,3.239,0.018,4.826-0.16c0.943,0.967,2.066,1.754,3.318,2.385
		c-2.714-0.033-5.434-0.046-8.144-0.054c-0.12,0-0.115,0.171,0,0.183c2.921,0.289,5.958,0.371,8.912,0.233
		c1.791,0.786,3.799,1.298,5.879,1.611c-0.037,0.144-0.061,0.289-0.088,0.434c-2.761,0.13-5.442,0.361-8.226,0.122
		c-0.087-0.007-0.083,0.124,0,0.134c2.651,0.322,5.502,0.514,8.166,0.06c-0.101,0.698-0.1,1.404-0.009,2.102
		c-1.49,0.088-2.976,0.204-4.469,0.253c-0.753,0.024-1.506,0.038-2.259,0.045c-0.377,0.005-0.753,0.007-1.13,0.006
		c-0.431-0.213-0.687-0.171-0.788,0.097c-0.011-0.017-0.014-0.039-0.039-0.042c-0.226-0.023-0.452-0.046-0.678-0.069
		c-0.156-0.016-0.161,0.24,0,0.248c3.129,0.139,6.301,0.131,9.421-0.187c0.153,0.88,0.439,1.742,0.847,2.548
		c-2.865-0.017-5.689-0.151-8.531-0.541c-0.12-0.016-0.175,0.165-0.051,0.187c2.843,0.482,5.727,0.739,8.612,0.633
		c0.039-0.001,0.066-0.019,0.089-0.041c0.169,0.313,0.362,0.611,0.565,0.904c-1.553-0.02-3.126,0.111-4.674,0.21
		c-0.092,0.006-0.094,0.146,0,0.144c1.593-0.024,3.215-0.014,4.802-0.168c0.697,0.957,1.562,1.786,2.547,2.399
		C14.73,44.521,1.363,38.608,0.868,24.149C0.66,18.067,2.586,10.923,7.354,6.912c4.485-3.773,13.067-7.134,18.758-5.301
		c0.173,0.056,0.306,0.007,0.397-0.086c-0.191,0.527-0.275,1.081-0.28,1.635c-2.134-0.193-4.374-0.191-6.478,0.01
		c-0.137,0.013-0.139,0.228,0,0.216l0.503-0.046c0.018-0.002,0.017-0.02,0.028-0.03c0.062,0.215,0.254,0.257,0.596,0.103
		c0.188,0,0.376,0,0.564,0c0.658,0.004,1.316,0.015,1.974,0.033c0.943,0.025,1.887,0.081,2.83,0.111
		c0.034,0.511,0.127,1.019,0.302,1.5c-1.099-0.092-2.224-0.068-3.321-0.111c-0.1-0.004-0.099,0.148,0,0.155
		c1.13,0.07,2.284,0.215,3.42,0.226c0.332,0.775,0.845,1.474,1.535,1.997c0.029,0.022,0.069,0.041,0.101,0.063
		c-0.988,0.048-1.968,0.072-2.954-0.043c-0.113-0.013-0.141,0.182-0.027,0.2c1.068,0.174,2.133,0.23,3.2,0.028
		c0.018-0.003,0.027-0.016,0.038-0.026c0.932,0.477,2.473,0.649,3.374,0.103c-0.109,0.558-0.098,1.101,0.084,1.584
		c-0.828-0.018-1.661,0.021-2.473,0.076c-0.125,0.009-0.128,0.202,0,0.197c0.88-0.038,1.751-0.001,2.623,0.036
		c0.232,0.4,0.604,0.746,1.176,1c1.036,0.46,2.455,0.296,3.409-0.404c-0.136,0.541-0.152,1.105-0.066,1.653
		c-1.036-0.079-2.099-0.051-3.122-0.089c-0.191-0.007-0.189,0.285,0,0.295c1.049,0.059,2.136,0.189,3.201,0.2
		c0.172,0.667,0.506,1.292,0.989,1.795c-0.816,0.042-1.637,0.132-2.441,0.182c-0.139,0.009-0.141,0.223,0,0.218
		c0.922-0.03,1.873-0.008,2.805-0.068c0.106,0.085,0.208,0.173,0.324,0.247c1.549,0.976,4.309,0.834,5.367-0.825
		c0.291,0.81,0.56,1.623,0.808,2.436c-2.913-0.038-5.888,0.243-8.779,0.435c-0.145,0.01-0.149,0.23,0,0.229
		c2.934-0.027,5.961,0.028,8.897-0.242c0.178,0.604,0.355,1.208,0.505,1.811c-1.934-0.102-3.988,0.224-5.908,0.357
		c-0.21,0.015-0.214,0.34,0,0.33c1.949-0.091,4.059-0.003,5.993-0.341c0.203,0.854,0.383,1.706,0.505,2.553
		c-2.275-0.31-4.75-0.029-7.02,0.157c-0.196,0.016-0.2,0.323,0,0.309c2.347-0.16,4.733,0.025,7.067-0.173
		c0.211,1.603,0.252,3.188,0.049,4.735c-1.356-0.058-2.722,0.014-4.081-0.008c-0.616-0.01-1.232-0.026-1.847-0.046
		c-0.131-0.004-0.384,0.01-0.629,0.031c-0.011-0.013-0.011-0.035-0.034-0.035c-0.396,0.01-0.79-0.012-1.182-0.065
		c-0.18-0.017-0.178,0.264,0,0.281c2.519,0.24,5.185,0.433,7.717,0.204c-0.134,0.857-0.34,1.702-0.64,2.531
		c-0.025-0.038-0.063-0.068-0.123-0.069c-2.213-0.047-4.434,0.03-6.646,0.06c-0.131,0.002-0.131,0.202,0,0.204
		c2.213,0.03,4.434,0.107,6.646,0.06c0.011,0,0.014-0.009,0.024-0.011C44.547,30.955,43.704,32.382,42.49,33.739z"/>
	<path style="fill:#1D1D1B;" d="M12.69,16.056c-1.456,0.298-2.809,0.429-4.282,0.16c-0.23-0.042-0.329,0.31-0.097,0.353
		c1.474,0.272,3.033,0.281,4.464-0.208C12.967,16.295,12.89,16.015,12.69,16.056z"/>
	<path style="fill:#1D1D1B;" d="M46.49,41.735c-4.788-0.022-9.561-0.186-14.345-0.376c-0.092-0.004-0.089,0.132,0,0.141
		c4.764,0.437,9.561,0.602,14.345,0.608C46.73,42.108,46.73,41.736,46.49,41.735z"/>
	<path style="fill:#1D1D1B;" d="M45.968,39.955c-4.153-0.422-8.423-0.298-12.597-0.376c-0.114-0.002-0.113,0.171,0,0.176
		c4.17,0.194,8.425,0.598,12.597,0.446C46.129,40.195,46.123,39.971,45.968,39.955z"/>
	<path style="fill:#1D1D1B;" d="M43.516,31.428c-2.023-0.043-4.058-0.041-6.081,0.022c-0.162,0.005-0.207,0.252-0.039,0.291
		c0.169,0.03,0.333,0.078,0.492,0.144c0.078,0.028,0.139-0.062,0.121-0.128c1.833,0.051,3.675,0.06,5.507,0.026
		C43.745,31.778,43.745,31.432,43.516,31.428z"/>
	<path style="fill:#1D1D1B;" d="M45.79,24.118c-1.548-0.158-3.166-0.017-4.722-0.004c-0.183,0.002-0.183,0.283,0,0.285
		c1.556,0.014,3.175,0.154,4.722-0.003C45.968,24.378,45.969,24.136,45.79,24.118z"/>
</g>
<g>
</g>
<g>
</g>
<g>
</g>
<g>
</g>
<g>
</g>
<g>
</g>
<g>
</g>
<g>
</g>
<g>
</g>
<g>
</g>
<g>
</g>
<g>
</g>
<g>
</g>
<g>
</g>
<g>
</g>
</svg>
