<?xml version="1.0" encoding="iso-8859-1"?>
<!-- Generator: Adobe Illustrator 18.0.0, SVG Export Plug-In . SVG Version: 6.00 Build 0)  -->
<!DOCTYPE svg PUBLIC "-//W3C//DTD SVG 1.1//EN" "http://www.w3.org/Graphics/SVG/1.1/DTD/svg11.dtd">
<svg version="1.1" id="Capa_1" xmlns="http://www.w3.org/2000/svg" xmlns:xlink="http://www.w3.org/1999/xlink" x="0px" y="0px"
	 viewBox="0 0 49.285 49.285" style="enable-background:new 0 0 49.285 49.285;" xml:space="preserve">
<g>
	<path style="fill:#1D1D1B;" d="M35.85,14.679c0.063-0.3-0.099-0.66-0.499-0.675c-2.509-0.092-5.514-0.668-7.976-0.151
		c-0.18,0.038-0.358,0.215-0.395,0.395c-0.382,1.866,0.458,4.352,0.725,6.226c0.426,2.99,0.841,5.989,1.499,8.938
		c0.013,0.057,0.041,0.101,0.074,0.138c0.019,0.091,0.069,0.174,0.171,0.197c0.864,0.185,2.084,0.42,2.913,0.046
		c0.009-0.004,0.012-0.015,0.021-0.02c0.118-0.005,0.235-0.059,0.27-0.2c1.211-4.819,1.992-9.74,3.202-14.564
		C35.885,14.887,35.876,14.778,35.85,14.679z M28.917,17.99c1.565,0.078,3.266,0.341,4.835,0.205
		c-0.151,0.672-0.321,1.333-0.461,2.009c-1.223-0.034-2.456,0.005-3.677,0.039c-0.136,0.004-0.136,0.207,0,0.211
		c1.201,0.034,2.414,0.07,3.617,0.04c-0.123,0.605-0.26,1.207-0.369,1.815c-0.845-0.13-1.758,0.008-2.581,0.197
		c-0.143,0.033-0.08,0.241,0.06,0.217c0.836-0.145,1.637-0.111,2.473-0.132c-0.134,0.775-0.258,1.551-0.361,2.329
		c-0.598-0.002-1.198,0.016-1.79,0.023c-0.165,0.002-0.165,0.255,0,0.257c0.579,0.007,1.166,0.024,1.751,0.024
		c-0.094,0.746-0.178,1.493-0.236,2.24c-0.672,0.101-1.331,0.13-2.023,0.011c-0.132-0.023-0.19,0.176-0.056,0.203
		c0.678,0.14,1.38,0.184,2.062,0.075c-0.032,0.453-0.064,0.906-0.08,1.36c-0.668-0.188-1.498-0.098-2.208,0.039
		c-0.22-3.387-0.734-6.753-1.21-10.112c-0.224-1.583-1.135-3.601,0.706-4.072c1.351-0.345,3.478-0.049,5.108,0.068
		c-0.104,0.41-0.192,0.83-0.286,1.246c-1.55-0.497-3.344-0.493-4.929-0.283c-0.161,0.021-0.17,0.275,0,0.26
		c1.684-0.152,3.208,0.094,4.846,0.387c-0.091,0.407-0.187,0.81-0.279,1.216c-1.577-0.269-3.321-0.137-4.911-0.182
		C28.718,17.675,28.719,17.98,28.917,17.99z"/>
	<path style="fill:#1D1D1B;" d="M39.847,34.245c-0.054-0.227-0.333-0.266-0.486-0.137c-0.03-0.05-0.068-0.096-0.124-0.131
		c-4.61-2.896-11.346-1.685-16.137,0.153c-0.144-0.095-0.36-0.083-0.397,0.13c-0.498,2.896-0.748,5.956-0.742,8.894
		c0.001,0.256,0.147,0.397,0.324,0.442c-0.21,0.036-0.3,0.364-0.088,0.497c4.666,2.945,12.524,4.408,17.322,0.882
		c0.339,0.146,0.807-0.01,0.791-0.486C40.199,41.166,40.615,37.491,39.847,34.245z M22.452,43.609
		c0.219-0.02,0.436-0.172,0.47-0.455c0.335-2.787,0.449-5.713,0.319-8.524c2.613-0.352,5.177-1.066,7.816-1.223
		c2.776-0.166,5.254,0.442,7.876,1.293c0.094,0.031,0.177,0.02,0.249-0.009c-0.027,0.132-0.039,0.268-0.062,0.401
		c-1.097-0.699-4.069-0.297-5.2-0.327c-1.9-0.05-3.801-0.089-5.701-0.127c-0.136-0.003-0.135,0.205,0,0.211
		c3.619,0.163,7.237,0.378,10.856,0.529c-0.095,0.635-0.163,1.279-0.19,1.936c-0.637-0.056-1.315,0.025-1.953,0.152
		c-0.002-0.076,0.001-0.152-0.002-0.228c0.309-0.168,0.436-0.637,0.04-0.877c-3.153-1.911-7.057-1.401-10.417-0.308
		c-0.116-0.027-0.241,0.016-0.322,0.119c-0.141,0.07-0.196,0.228-0.166,0.368c-0.557,1.537-0.968,3.72-0.429,5.229
		c0.037,0.104,0.117,0.176,0.209,0.227c0.26,1.016,2.323,1.428,3.138,1.576c0.468,0.085,0.957,0.133,1.452,0.157
		c-2.193,0.047-4.387,0.061-6.587,0.033c-0.084-0.001-0.083,0.125,0,0.13c4.951,0.298,9.912,0.228,14.857-0.153
		c0.244-0.019,0.247-0.401,0-0.383c-2.215,0.159-4.427,0.263-6.639,0.331c1.411-0.143,2.794-0.567,3.907-1.374
		c0.029-0.021,0.048-0.05,0.071-0.076c0.345,0.266,0.936,0.149,0.915-0.414c-0.002-0.054,0.001-0.108-0.001-0.162
		c0.683,0.024,1.364-0.002,2.032-0.098c0.055,0.82,0.117,1.631,0.163,2.419C33.722,46.697,27.918,45.78,22.452,43.609z
		 M38.889,39.73c0.02,0.503,0.047,1.006,0.079,1.506c-0.675,0.05-1.343,0.094-2.013,0.113c-0.01-0.522-0.005-1.045-0.002-1.567
		C37.599,39.809,38.266,39.798,38.889,39.73z M36.953,39.456c0.004-0.588-0.004-1.175-0.017-1.761
		c0.653-0.067,1.287-0.049,1.941-0.058c-0.015,0.588-0.017,1.179,0.003,1.772C38.257,39.373,37.594,39.396,36.953,39.456z
		 M35.757,41.338c-0.185-0.008-0.368-0.008-0.555-0.025c-0.141-0.013-0.137,0.202,0,0.218c0.009,0.001,0.019,0.002,0.028,0.003
		c-1.332,0.512-2.563,1.002-4.032,1.08c-0.578,0.031-4.808-0.219-4.693-1.013c0.007-0.051-0.001-0.1-0.017-0.147
		c0.092-0.753,0.009-1.536,0.04-2.294c0.034-0.821,0.117-1.638,0.184-2.456c3.268-0.409,6.279-1,9.382,0.391
		C35.66,38.443,35.619,39.928,35.757,41.338z"/>
	<path style="fill:#1D1D1B;" d="M49.097,8.993c-0.006-0.26-0.147-0.427-0.327-0.517c-0.024-0.171-0.115-0.336-0.305-0.456
		C41.021,3.333,32.143,1.894,23.46,2.317C16.266,2.667,6.907,3.33,0.926,7.847C0.592,7.681,0.099,7.835,0.088,8.326
		c-0.205,9.291-0.073,18.732,0.6,28.001c0.027,0.367,0.387,0.5,0.643,0.394c0.017,0.043,0.034,0.088,0.081,0.123
		c5.376,4.029,12.327,5.684,18.941,6.012c0.12,0.006,0.21-0.03,0.286-0.081c0.167,0.116,0.408,0.116,0.521-0.098
		c0.417-0.789,0.319-1.704,0.355-2.582c0.043-1.047,0.084-2.095,0.042-3.143c0.387-0.088,0.385-0.604-0.034-0.658
		c-5.214-0.662-9.847-1.614-14.319-4.482c0.062-0.076,0.108-0.17,0.113-0.297c0.005-0.124,0.005-0.248,0.009-0.372
		c0.025,0,0.05,0.003,0.076,0.003c0.174,0.003,0.169-0.253,0-0.267c-0.023-0.002-0.046-0.002-0.069-0.004
		c0.197-6.423-0.145-12.905-0.51-19.318c0.058,0.018,0.114,0.035,0.173,0.052c0.173,0.053,0.269-0.194,0.121-0.286
		c-0.098-0.061-0.211-0.095-0.314-0.149C6.801,11.16,6.8,11.145,6.799,11.13c6.119-0.903,11.851-2.425,18.125-2.277
		c6.035,0.142,11.671,1.417,17.398,3.128c0.108,7.125,0.003,14.44,0.887,21.512c0.052,0.416,0.639,0.438,0.664,0
		c0.416-7.046-0.16-14.27-0.522-21.323c0.467-0.159,0.555-0.949-0.036-1.172C32.52,6.915,17.277,5.618,6.506,10.514
		c-0.287-0.168-0.689-0.088-0.819,0.226c-0.924-0.255-1.915-0.338-2.838-0.305c-0.223,0.008-0.225,0.351,0,0.348
		c1.001-0.014,1.891,0.176,2.79,0.427c0.015,0.36,0.026,0.72,0.041,1.08c-0.992-0.116-2.044-0.097-2.999-0.172
		c-0.197-0.015-0.194,0.287,0,0.306c0.964,0.092,2.011,0.299,3.017,0.351c0.033,0.855,0.072,1.71,0.098,2.566
		c-1.03-0.12-2.082-0.128-3.113-0.266c-0.183-0.024-0.228,0.298-0.044,0.325c1.021,0.15,2.121,0.337,3.166,0.303
		c0.035,1.2,0.067,2.401,0.096,3.602c-0.779-0.043-1.584-0.028-2.349,0.028c-0.181,0.013-0.181,0.268,0,0.281
		c0.767,0.055,1.576,0.071,2.357,0.027c0.018,0.754,0.038,1.508,0.057,2.263C5.103,21.92,4.233,22.027,3.373,22.1
		c-0.113,0.009-0.117,0.184,0,0.179c0.863-0.039,1.741-0.045,2.601-0.142c0.03,1.159,0.062,2.317,0.103,3.475
		c-0.897-0.078-1.803-0.101-2.699-0.144c-0.17-0.008-0.169,0.254,0,0.264c0.898,0.052,1.806,0.139,2.709,0.156
		c0.031,0.858,0.056,1.717,0.098,2.575c-0.819-0.005-1.639,0.013-2.457,0.025c-0.104,0.001-0.104,0.16,0,0.162
		c0.821,0.011,1.645,0.03,2.467,0.025c0.036,0.713,0.058,1.427,0.104,2.139c-0.915-0.051-1.83-0.088-2.745-0.128
		c-0.175-0.008-0.173,0.261,0,0.271c0.919,0.052,1.839,0.107,2.76,0.147c0.009,0.137,0.012,0.275,0.022,0.412
		c0.007,0.096,0.038,0.172,0.079,0.239c-0.173,0.202-0.206,0.55,0.078,0.751c0.949,0.672,1.95,1.296,2.988,1.856
		c-1.67-0.236-3.355-0.395-5.018-0.675C4.3,33.66,4.228,33.907,4.394,33.938c1.903,0.36,3.901,0.737,5.854,0.821
		c3.297,1.646,6.949,2.608,10.622,2.276c-0.042,0.25-0.073,0.501-0.108,0.752c-1.568-0.718-4.983-0.624-6.377-0.8
		c-3.674-0.466-7.348-0.932-11.026-1.373c-0.109-0.013-0.136,0.177-0.026,0.193c3.205,0.479,6.413,0.939,9.621,1.396
		c2.473,0.352,5.337,0.376,7.733,1.102c-0.056,0.45-0.104,0.902-0.15,1.354c-0.007,0.068-0.017,0.14-0.026,0.21
		c-4.893-0.677-9.823-1.132-14.734-1.653c-1.363-0.559-2.729-1.157-4.12-1.792c-0.034-0.015-0.06-0.005-0.091-0.007
		c0.006-0.03,0.018-0.056,0.018-0.091c0.087-9.215-0.1-18.492-0.35-27.706c11.066-5.579,25.122-6.801,37.28-3.289
		c-3.891-0.135-7.811-0.05-11.698-0.041c-0.172,0-0.172,0.262,0,0.267c4.399,0.12,8.839,0.355,13.238,0.237
		c2.704,0.884,5.306,1.998,7.739,3.372c0.024,0.013,0.046,0.013,0.069,0.023c0.005,0.486,0.001,0.972,0.003,1.457
		c-1.004-0.1-2.077,0.004-3.037,0.1c-0.155,0.015-0.16,0.256,0,0.246c1.019-0.062,2.028,0.043,3.038,0.069
		c0.001,0.881,0.004,1.762,0.005,2.643c-1.14-0.082-2.301,0.034-3.425,0.212c-0.141,0.022-0.11,0.27,0.034,0.252
		c1.136-0.143,2.254-0.136,3.391-0.13c0,1.205,0.011,2.41,0.006,3.616c-0.956-0.002-1.919,0.048-2.873,0.1
		c-0.128,0.007-0.13,0.2,0,0.201c0.954,0.007,1.917,0.011,2.872-0.036c-0.004,1.08-0.007,2.159-0.012,3.239
		c-0.016-0.007-0.029-0.018-0.05-0.016c-0.884,0.096-1.742,0.174-2.632,0.091c-0.188-0.018-0.184,0.272,0,0.292
		c0.888,0.094,1.798,0.097,2.666-0.131c0.007-0.002,0.009-0.009,0.015-0.012c-0.004,0.912-0.009,1.825-0.012,2.737
		c-0.853,0.085-1.699,0.275-2.54,0.433c-0.204,0.038-0.115,0.341,0.085,0.308c0.818-0.134,1.65-0.243,2.455-0.445
		c-0.004,1.129-0.008,2.257-0.007,3.386c-0.018-0.005-0.035-0.013-0.055-0.009c-0.895,0.164-1.683,0.37-2.605,0.26
		c-0.193-0.023-0.19,0.278,0,0.302c0.858,0.11,1.883,0.092,2.661-0.337c0.001,1.12-0.001,2.241,0.009,3.361
		c-0.767,0.151-1.521,0.26-2.322,0.225c-0.143-0.006-0.141,0.211,0,0.222c0.764,0.056,1.567,0.036,2.325-0.141
		c0.008,0.808,0.006,1.617,0.02,2.425c-1.067,0.188-2.129,0.305-3.219,0.263c-0.181-0.007-0.18,0.272,0,0.281
		c1.085,0.057,2.167-0.009,3.222-0.25c0.009,0.493,0.007,0.987,0.019,1.48c-0.021-0.017-0.046-0.03-0.08-0.027
		c-1.797,0.144-3.61,0.574-5.384,0.916c-0.074-0.829-0.187-1.655-0.322-2.451c0.239-0.015,0.477-0.024,0.716-0.08
		c0.174-0.041,0.33-0.198,0.372-0.372c0.038-0.159,0.028-0.27-0.054-0.41c-0.09-0.154-0.276-0.275-0.459-0.264
		c-0.421,0.026-0.84,0.119-1.227,0.287c-0.265,0.115-0.295,0.345-0.199,0.539c-0.211,2.029-0.31,4.288,0.061,6.288
		c0.099,0.535,0.678,0.506,0.971,0.193c0.046,0.005,0.094,0.003,0.147-0.01c1.146-0.284,2.221-0.844,3.254-1.405
		c0.951-0.517,2.016-1.058,2.674-1.934c0.033-0.043,0.053-0.09,0.067-0.137c0.136-0.049,0.249-0.168,0.266-0.356
		C49.506,27.505,49.312,18.175,49.097,8.993z M20.461,40.266c-0.072,0.514-0.149,1.048-0.121,1.557
		c-5.024-0.284-9.435-1.554-13.863-3.32C11.132,39.126,15.79,39.798,20.461,40.266z M47.748,36.351
		c-0.976,0.351-1.807,1.115-2.677,1.674c-0.842,0.542-1.732,1.007-2.577,1.541c0.054-0.849,0.03-1.727-0.041-2.604
		c1.792-0.239,3.651-0.403,5.401-0.838c0.022-0.006,0.032-0.022,0.047-0.035c0.002,0.079,0.001,0.158,0.003,0.237
		C47.852,36.325,47.8,36.332,47.748,36.351z"/>
	<path style="fill:#1D1D1B;" d="M38.017,44.029c-2.928,0.276-5.805,0.647-8.752,0.705c-0.138,0.003-0.138,0.213,0,0.214
		c2.915,0.033,5.926-0.044,8.792-0.625C38.219,44.289,38.185,44.013,38.017,44.029z"/>
	<path style="fill:#1D1D1B;" d="M44.831,7.761c-3.246-0.174-6.543,0.04-9.798-0.008c-0.123-0.002-0.121,0.183,0,0.19
		c3.224,0.176,6.579,0.431,9.798,0.12C45.023,8.045,45.028,7.772,44.831,7.761z"/>
</g>
<g>
</g>
<g>
</g>
<g>
</g>
<g>
</g>
<g>
</g>
<g>
</g>
<g>
</g>
<g>
</g>
<g>
</g>
<g>
</g>
<g>
</g>
<g>
</g>
<g>
</g>
<g>
</g>
<g>
</g>
</svg>
