<?xml version="1.0" encoding="iso-8859-1"?>
<!-- Generator: Adobe Illustrator 18.0.0, SVG Export Plug-In . SVG Version: 6.00 Build 0)  -->
<!DOCTYPE svg PUBLIC "-//W3C//DTD SVG 1.1//EN" "http://www.w3.org/Graphics/SVG/1.1/DTD/svg11.dtd">
<svg version="1.1" id="Capa_1" xmlns="http://www.w3.org/2000/svg" xmlns:xlink="http://www.w3.org/1999/xlink" x="0px" y="0px"
	 viewBox="0 0 50.489 50.489" style="enable-background:new 0 0 50.489 50.489;" xml:space="preserve">
<g>
	<path style="fill:#1D1D1B;" d="M32.141,1.076c0.029-0.17-0.015-0.315-0.096-0.427c0.008-0.324-0.198-0.669-0.581-0.648
		c-4.041,0.223-8.206,0.235-12.226,0.728c-0.103-0.013-0.205-0.006-0.297,0.03c-0.025,0.003-0.051,0.004-0.076,0.008
		c-0.369,0.048-0.428,0.431-0.204,0.616c0.68,7.416,0.377,16.453,3.095,23.426c-0.334,0.112-0.224,0.672,0.144,0.675
		c0.897,0.008,1.794-0.022,2.69-0.039c0.816-0.015,1.661,0.052,2.452-0.165c0.351-0.096,0.441-0.392,0.36-0.65
		c0.026-0.036,0.048-0.078,0.06-0.128C29.251,16.768,30.819,8.902,32.141,1.076z M27.27,20.116
		c-0.803,0.028-1.618,0.139-2.411,0.202c-0.198,0.016-0.203,0.324,0,0.313c0.775-0.041,1.574-0.039,2.355-0.11
		c-0.102,0.743-0.22,1.486-0.311,2.229c-1.038,0.159-2.012,0.309-3.091,0.225c-0.097-0.008-0.122,0.157-0.023,0.173
		c0.969,0.153,2.09,0.173,3.074-0.091c-0.046,0.38-0.108,0.76-0.151,1.139c-0.82-0.052-1.695,0.154-2.505,0.261
		c-0.691,0.092-1.382,0.182-2.071,0.286c0.779-7.375-1.51-15.741-2.319-23.156c3.652,0.38,7.564,0.269,11.178-0.307
		c-0.237,0.907-0.46,1.82-0.675,2.736c-1.683-0.082-3.388-0.013-5.07,0.003c-0.689,0.007-2.315-0.326-2.835,0.218
		c-0.039,0.041-0.047,0.119,0,0.159c0.033,0.028,0.067,0.056,0.1,0.084c0.039,0.033,0.101,0.043,0.139,0
		c0.021-0.024,0.042-0.048,0.063-0.072c0.062-0.07-0.021-0.2-0.107-0.138c0.217-0.158,1.699,0.074,2.023,0.08
		c0.616,0.011,1.232,0.019,1.848,0.026c1.247,0.015,2.502,0.067,3.75,0.026c-0.148,0.638-0.295,1.276-0.436,1.916
		c-1.398-0.023-2.849,0.215-4.239,0.348c-0.177,0.017-0.183,0.293,0,0.281c1.369-0.086,2.811-0.088,4.17-0.314
		c-0.14,0.64-0.286,1.277-0.419,1.919c-2.19,0.118-4.342,0.438-6.549,0.424c-0.15-0.001-0.149,0.227,0,0.232
		c2.114,0.073,4.393,0.108,6.484-0.343c-0.287,1.405-0.563,2.814-0.817,4.227c-2.04-0.05-4.178,0.044-6.193,0.254
		c-0.122,0.013-0.127,0.187,0,0.193c1.998,0.105,4.111,0.09,6.124-0.06c-0.094,0.53-0.194,1.06-0.283,1.591
		c-1.163-0.125-2.408,0.003-3.566,0.02c-0.158,0.002-0.159,0.244,0,0.246c1.143,0.017,2.368,0.14,3.518,0.024
		c-0.115,0.688-0.237,1.376-0.344,2.064c-1.703,0.121-3.439,0.333-5.112,0.623c-0.131,0.023-0.101,0.238,0.031,0.231
		c1.665-0.088,3.371-0.267,5.03-0.52C27.511,18.546,27.38,19.331,27.27,20.116z"/>
	<path style="fill:#1D1D1B;" d="M38.675,44.596c0.169-4.435-0.136-9.13-0.695-13.507c-0.021-0.164-0.104-0.28-0.209-0.357
		c-0.025-0.034-0.045-0.069-0.083-0.1c-7.232-5.889-17.983-4.062-25.339,0.588c-0.128,0.081-0.184,0.189-0.196,0.299
		c-0.008,0.025-0.03,0.037-0.033,0.067c-0.266,2.24-0.236,4.503-0.34,6.755c-0.103,2.233-0.438,4.521-0.257,6.749
		c0.026,0.323,0.381,0.502,0.636,0.414c5.621,8.138,19.857,4.909,26.582,0.21C39.194,45.4,39.035,44.796,38.675,44.596z
		 M32.931,47.315c-4.616-0.067-9.229-0.108-13.845-0.212c-0.174-0.004-0.169,0.253,0,0.267c4.298,0.351,8.669,0.452,12.985,0.258
		c-6.549,2.305-14.337,2.275-19.436-2.607c-0.055-0.053-0.12-0.075-0.185-0.083c0.75-4.035,0.695-8.917,0.332-13.004
		c7.145-3.349,13.451-4.385,20.382-2.11c-2.701-0.231-5.429-0.258-8.13-0.186c-0.12,0.003-0.12,0.186,0,0.186
		c3.175,0.009,6.313,0.235,9.47,0.477c0.83,0.32,1.667,0.674,2.52,1.09c-0.007,0.182-0.009,0.367-0.014,0.55
		c-3.173-0.088-6.355-0.12-9.529-0.105c-0.116,0-0.115,0.174,0,0.179c3.169,0.137,6.348,0.228,9.52,0.263
		c-0.023,0.885-0.033,1.776-0.029,2.673c-0.829,0.01-1.658,0.087-2.491,0.046c-0.18-0.009-0.177,0.265,0,0.278
		c0.805,0.06,1.674,0.117,2.495,0.013c0.005,0.606,0.005,1.211,0.02,1.819c-0.775-0.046-1.575-0.001-2.34,0.035
		c-0.138,0.006-0.138,0.208,0,0.214c0.768,0.036,1.57,0.081,2.347,0.034c0.016,0.588,0.015,1.175,0.043,1.763
		c-1.031-0.004-2.064,0.065-3.098,0.074c-0.021-1.671-0.191-3.365-0.303-4.977c-0.019-0.271-0.224-0.401-0.425-0.395
		c-4.759-2.303-11.09-2.635-15.714,0.199c-0.142-0.158-0.474-0.122-0.519,0.115c-0.498,2.671-0.583,5.71-0.396,8.415
		c0.024,0.353,0.285,0.514,0.54,0.498c0.393,1.685,4.56,2.468,5.652,2.619c3.646,0.507,7.773-0.356,10.589-2.803
		c0.12-0.105,0.172-0.229,0.176-0.352c0.114-0.066,0.201-0.169,0.223-0.315c0.134-0.897,0.177-1.821,0.174-2.752
		c1.034,0.063,2.095,0.09,3.115-0.043c0.041,0.808,0.09,1.614,0.154,2.414c-0.736-0.022-1.476-0.002-2.21,0.013
		c-0.138,0.003-0.138,0.212,0,0.214c0.742,0.015,1.489,0.035,2.232,0.013c0.057,0.675,0.107,1.354,0.182,2.019
		c-1.145-0.068-2.322,0.011-3.464,0.019c-0.149,0.001-0.15,0.231,0,0.232c1.151,0.008,2.338,0.089,3.491,0.018
		c0.025,0.208,0.037,0.423,0.064,0.629C36.119,45.899,34.569,46.677,32.931,47.315z M32.668,42.038
		c-2.471,1.362-4.762,2.411-7.646,2.495c-0.981,0.029-7.098-0.37-7.386-1.978c0.273-2.513,0.305-5.305-0.006-7.846
		c5.317-1.574,9.879-1.941,15.14,0.199C32.593,37.251,32.357,39.724,32.668,42.038z"/>
	<path style="fill:#1D1D1B;" d="M35.874,45.694c-3.251-0.093-6.538,0.209-9.788,0.344c-0.133,0.006-0.134,0.21,0,0.208
		c3.247-0.057,6.561-0.013,9.788-0.414C35.96,45.821,35.965,45.697,35.874,45.694z"/>
	<path style="fill:#1D1D1B;" d="M28.53,11.006c-1.517,0.08-3.039,0.205-4.551,0.351c-0.146,0.014-0.152,0.237,0,0.232
		c1.516-0.053,3.039-0.129,4.551-0.249C28.742,11.323,28.746,10.994,28.53,11.006z"/>
</g>
<g>
</g>
<g>
</g>
<g>
</g>
<g>
</g>
<g>
</g>
<g>
</g>
<g>
</g>
<g>
</g>
<g>
</g>
<g>
</g>
<g>
</g>
<g>
</g>
<g>
</g>
<g>
</g>
<g>
</g>
</svg>
