<?xml version="1.0" encoding="iso-8859-1"?>
<!-- Generator: Adobe Illustrator 18.0.0, SVG Export Plug-In . SVG Version: 6.00 Build 0)  -->
<!DOCTYPE svg PUBLIC "-//W3C//DTD SVG 1.1//EN" "http://www.w3.org/Graphics/SVG/1.1/DTD/svg11.dtd">
<svg version="1.1" id="Capa_1" xmlns="http://www.w3.org/2000/svg" xmlns:xlink="http://www.w3.org/1999/xlink" x="0px" y="0px"
	 viewBox="0 0 47.679 47.679" style="enable-background:new 0 0 47.679 47.679;" xml:space="preserve">
<g>
	<path style="fill:#1D1D1B;" d="M22.643,5.204c-6.526,0.549-11.865,2.381-16.217,7.447c-4.041,4.704-7.7,11.687-5.999,17.966
		c0.005,0.018,0.02,0.025,0.03,0.038c-0.004,0.035-0.013,0.066-0.017,0.101c-0.03,0.25,0.376,0.297,0.435,0.059
		c2.765-11.074,10.263-17.637,21.74-18.592c11.625-0.967,20.727,6.674,23.457,17.662c0.025,0.102,0.073,0.175,0.129,0.234
		c0.001,0.098,0.006,0.194,0.005,0.292c-0.002,0.944,1.447,0.944,1.466,0C47.97,15.479,37.887,3.921,22.643,5.204z M0.657,29.479
		C0.568,23.663,3.314,17.66,7.12,13.345c4.385-4.971,9.96-6.471,16.366-6.799c3.982-0.204,7.509,0.54,10.538,1.992
		C29.217,7.8,24.289,7.661,19.446,7.662c-0.174,0-0.174,0.268,0,0.271C24.76,8.01,29.971,8.622,35.243,9.157
		c0.867,0.494,1.681,1.057,2.453,1.67c-5.15-1.115-10.583-1.481-15.803-1.629c-0.128-0.004-0.125,0.189,0,0.197
		c5.531,0.359,10.946,1.225,16.424,1.942c0.65,0.561,1.249,1.179,1.824,1.821c-1.441-0.38-2.974-0.525-4.428-0.572
		c-0.198-0.006-0.195,0.294,0,0.306c1.707,0.102,3.3,0.471,4.932,0.842c0.482,0.58,0.926,1.196,1.349,1.829
		c-0.634-0.113-1.282-0.172-1.91-0.208c-0.268-0.016-0.264,0.394,0,0.415c0.77,0.061,1.52,0.205,2.275,0.336
		c0.319,0.51,0.607,1.045,0.888,1.585c-0.473-0.059-0.939-0.153-1.404-0.259c-0.185-0.042-0.253,0.218-0.078,0.281
		c0.483,0.175,1.123,0.382,1.742,0.469c0.979,1.989,1.708,4.16,2.154,6.463C37.578,4.811,4.585,7.161,0.657,29.479z"/>
	<path style="fill:#1D1D1B;" d="M31.48,30.038c3.846-4.542,0.055-10.124-4.813-11.618c-0.001-0.114-0.051-0.221-0.199-0.243
		c-3.71-0.553-8.239-0.171-10.223,3.495c-2.113,3.902-2.121,9.699-1.424,14.222c-0.302,6.184,8.835,7.885,13.296,5.877
		C33.177,39.494,35.236,34.303,31.48,30.038z M29.704,39.133c-3.659,0.051-7.295,0.234-10.959,0.113
		c-0.174-0.006-0.174,0.263,0,0.271c3.451,0.159,6.969,0.271,10.423-0.006c-4.503,2.991-12.529,2.691-13.513-4.196
		c-0.002-0.014-0.009-0.021-0.012-0.034c-0.132-3.469-0.152-6.974,0.594-10.371c1.14-5.191,4.598-5.758,8.837-6.062
		c1.251,0.447,2.48,0.911,3.57,1.614c-2.362-0.209-4.737-0.314-7.102-0.463c-0.184-0.012-0.181,0.269,0,0.285
		c2.57,0.217,5.145,0.491,7.722,0.62c0.361,0.282,0.704,0.595,1.018,0.958c-1.352-0.316-2.823-0.373-4.187-0.536
		c-0.175-0.021-0.218,0.284-0.042,0.311c1.48,0.227,3.051,0.625,4.55,0.626c0.438,0.597,0.763,1.259,0.96,1.949
		c-0.367-0.002-0.734,0.006-1.097-0.004c-0.64-0.017-1.281-0.08-1.921-0.073c-0.149,0.002-0.189,0.232-0.036,0.266
		c0.956,0.211,2.118,0.337,3.166,0.272c0.16,0.804,0.156,1.628-0.049,2.415c-0.028-0.027-0.062-0.05-0.112-0.056
		c-1.407-0.166-2.895-0.033-4.313-0.019c0.472-0.48,0.733-1.137,0.607-2.008c-0.284-1.962-3.062-3.228-4.917-2.617
		c-3.866,0.025-3.608,6.566-3.44,9.173c0.174,2.712,1.789,7.27,5.375,5.848c0.055-0.022,0.101-0.053,0.14-0.089
		c0.788-0.14,1.465-0.615,1.881-1.279c0.006,0.058,0.043,0.115,0.119,0.12c1.594,0.104,3.302,0.31,4.902,0.198
		C31.456,37.43,30.69,38.369,29.704,39.133z M22.441,31.997c0.026,0.027,0.045,0.062,0.079,0.081
		c1.049,0.557,2.306,0.15,3.247,1.118c1.223,1.257,0.384,2.915-0.969,3.422c-0.027-0.005-0.051-0.015-0.082-0.015
		c-3.465-0.063-4.263-3.169-4.306-6.053c-0.036-2.474-0.081-5.654,2.223-7.202c1.382,0.044,3.299-0.073,3.886,1.563
		c0.74,2.062-2.471,2.167-3.625,2.267c-0.207,0.018-0.319,0.188-0.323,0.355c-0.02,0.021-0.046,0.03-0.06,0.059
		c-0.264,0.553-0.26,1.18-0.332,1.785c-0.088,0.736-0.152,1.471-0.132,2.212C22.054,31.82,22.244,31.969,22.441,31.997z
		 M26.967,35.905c-0.024,0-0.037,0.013-0.053,0.022c0.306-0.546,0.445-1.203,0.311-1.921c-0.185-0.989-0.855-1.77-1.738-2.225
		c-0.701-0.362-1.704-0.716-2.533-0.58c0.078-0.508,0.136-1.019,0.161-1.53c0.027-0.565,0.121-1.173,0.031-1.738
		c1.247,0.257,2.894,0.067,3.869-0.74c0.013,0.059,0.051,0.112,0.129,0.115c1.434,0.042,2.942,0.214,4.37,0.077
		c0.019-0.002,0.028-0.015,0.044-0.021c-0.211,0.651-0.552,1.271-1.059,1.819c-2.214-0.122-4.463,0.013-6.679,0.042
		c-0.19,0.003-0.19,0.293,0,0.295c2.155,0.028,4.342,0.153,6.497,0.048c-0.008,0.083-0.003,0.165,0.02,0.244
		c-0.031,0.131-0.014,0.277,0.093,0.41c0.378,0.468,0.667,0.925,0.918,1.377c-1.215-0.155-2.463-0.181-3.678-0.268
		c-0.151-0.011-0.146,0.216,0,0.232c1.282,0.143,2.59,0.366,3.883,0.417c0.345,0.71,0.555,1.399,0.622,2.057
		c-1.48-0.232-3.023-0.261-4.507-0.28c-0.197-0.002-0.196,0.299,0,0.306c1.517,0.051,3.014,0.251,4.521,0.367
		c0.014,0.565-0.056,1.11-0.217,1.623C30.351,35.82,28.597,35.91,26.967,35.905z"/>
	<path style="fill:#1D1D1B;" d="M30.468,37.757c-2.087-0.09-4.213,0.094-6.301,0.161c-0.111,0.004-0.111,0.173,0,0.172
		c2.089-0.016,4.219,0.085,6.301-0.087C30.624,37.99,30.628,37.764,30.468,37.757z"/>
</g>
<g>
</g>
<g>
</g>
<g>
</g>
<g>
</g>
<g>
</g>
<g>
</g>
<g>
</g>
<g>
</g>
<g>
</g>
<g>
</g>
<g>
</g>
<g>
</g>
<g>
</g>
<g>
</g>
<g>
</g>
</svg>
