<?xml version="1.0" encoding="iso-8859-1"?>
<!-- Generator: Adobe Illustrator 18.0.0, SVG Export Plug-In . SVG Version: 6.00 Build 0)  -->
<!DOCTYPE svg PUBLIC "-//W3C//DTD SVG 1.1//EN" "http://www.w3.org/Graphics/SVG/1.1/DTD/svg11.dtd">
<svg version="1.1" id="Capa_1" xmlns="http://www.w3.org/2000/svg" xmlns:xlink="http://www.w3.org/1999/xlink" x="0px" y="0px"
	 viewBox="0 0 49.119 49.119" style="enable-background:new 0 0 49.119 49.119;" xml:space="preserve">
<g>
	<path style="fill:#1D1D1B;" d="M47.781,24.069c-1.482-3.847-4.705-6.415-8.887-5.893c1.192-4.038,0.383-8.727-2.021-12.179
		c-2.858-4.104-7.408-5.319-12.156-5.796C16.857-0.587,0.751,0.519,0.593,11.197C0.236,16.284,0.367,21.421,0.336,26.52
		c-0.023,3.796-0.316,7.765,0.309,11.53c0.976,5.882,4.687,8.658,10.046,10.103c0.023,0.121,0.103,0.238,0.261,0.257
		c5.372,0.648,10.849,0.637,16.254,0.661c3.641,0.016,7.632,0.385,11.027-1.197c5.182-2.415,9.545-7.6,10.142-13.319
		c0.43-0.493,0.351-1.503,0.405-2.096C49.033,29.697,48.785,26.675,47.781,24.069z M47.968,33.049
		c-0.106,0.851-0.277,1.679-0.505,2.482c-2.482,0.208-4.922,0.394-7.419,0.283c-0.075-0.003-0.074,0.112,0,0.116
		c2.451,0.136,4.952,0.125,7.381-0.276c-1.645,5.618-6.147,9.942-11.62,11.665c-7.415-1.44-14.641-0.773-22.125-1.283
		c-0.064-0.004-0.063,0.094,0,0.099c7.326,0.641,14.422,0.193,21.727,1.304c-1.109,0.321-2.25,0.548-3.419,0.644
		c-6.598,0.546-13.288-0.193-19.9-0.244c-0.042-0.066-0.103-0.124-0.197-0.157c-3.998-1.416-7.92-2.828-9.543-7.157
		c-1.076-2.87-0.953-6.152-0.96-9.17c-0.016-6.223,0.17-12.516-0.178-18.738C2.467,1.066,16.263,0.348,25.373,1.434
		c2.433,0.29,4.488,0.932,6.201,1.862c-3.988-0.26-7.992-0.405-11.982-0.579c-0.078-0.003-0.077,0.115,0,0.12
		c4.147,0.263,8.305,0.561,12.459,0.726c0.995,0.595,1.869,1.291,2.613,2.088c-4.662-0.152-9.307-0.29-13.963-0.633
		c-0.086-0.006-0.089,0.114-0.019,0.141c0.192,0.073,0.384,0.147,0.576,0.22c0.045,0.017,0.075-0.056,0.032-0.077
		c0.595,0.295,2.045,0.09,2.797,0.145c1.318,0.096,2.637,0.175,3.957,0.239c2.26,0.109,4.525,0.189,6.788,0.172
		c0.61,0.685,1.144,1.428,1.58,2.242C31.94,7.771,27.44,7.651,22.961,7.436c-0.088-0.004-0.088,0.132,0,0.137
		c4.518,0.254,9.049,0.607,13.575,0.741c0.871,1.71,1.374,3.681,1.523,5.863c-1.934-0.082-3.882-0.06-5.817-0.063
		c-0.097,0-0.096,0.147,0,0.15c1.94,0.047,3.892,0.122,5.833,0.09c0.063,1.066,0.048,2.179-0.054,3.338
		c-1.855-0.029-3.713-0.005-5.568,0.005c-0.081,0-0.082,0.126,0,0.127c1.851,0.009,3.704,0.034,5.555,0.005
		c-0.028,0.298-0.046,0.591-0.085,0.895c-0.042,0.331,0.288,0.441,0.541,0.344c0.086,0.101,0.207,0.166,0.366,0.146
		c2.013-0.252,3.802,0.313,5.245,1.397c-3.73-0.074-7.472,0.026-11.2,0.047c-0.071,0-0.071,0.109,0,0.11
		c3.812,0.021,7.639,0.126,11.452,0.042c0.951,0.777,1.74,1.784,2.323,2.935c-5.224,0.008-10.449,0.035-15.673,0.069
		c-0.079,0.001-0.079,0.122,0,0.122c5.268,0.034,10.536,0.062,15.805,0.07c0.198,0.42,0.37,0.856,0.513,1.307
		c0.519,1.642,0.6,3.365,0.595,5.075c-0.01-0.02-0.015-0.046-0.045-0.047c-1.953-0.085-3.95-0.029-5.903,0.049
		c-0.027,0.001-0.027,0.041,0,0.042c1.953,0.079,3.95,0.135,5.903,0.05c0.03-0.001,0.036-0.027,0.046-0.047
		c0,0.086,0.002,0.172,0.002,0.258c-0.004,0.434,0.089,1.445,0.088,2.338C47.977,33.037,47.969,33.04,47.968,33.049z"/>
	<path style="fill:#1D1D1B;" d="M29.121,13.038c0.221,0.002,0.438-0.163,0.34-0.424c-0.587-1.56-1.865-2.287-3.493-2.578
		c-3.449-0.617-7.367-0.492-10.863-0.445c-0.153,0.002-0.251,0.076-0.305,0.173c-2.247,0.389-4.004,2.935-3.542,5.166
		c0.392,1.891,2.479,3.817,4.484,3.557c2.144,0.326,4.31,0.471,6.476,0.587c1.78,0.096,3.671,0.229,5.32-0.6
		C29.718,17.378,30.64,15.016,29.121,13.038z M16.826,17.896c-0.02-0.076-0.066-0.144-0.154-0.159
		c-1.724-0.286-3.552-0.694-4.19-2.581c-0.818-2.421,1.112-4.156,3.245-4.685c0.064-0.016,0.092-0.059,0.133-0.093
		c3.925,0.167,10.796-0.654,12.954,2.508c0.004,0.005,0.009,0.008,0.013,0.013c-0.121,0.051-0.215,0.197-0.144,0.337
		C31.503,18.854,21.483,18.147,16.826,17.896z"/>
	<path style="fill:#1D1D1B;" d="M37.901,33.336c0.002-1.761-0.847-4.277-2.772-4.72c-0.121-0.028-0.243-0.003-0.35,0.053
		c-0.046-0.027-0.099-0.048-0.162-0.055c-3.819-0.437-7.703-0.466-11.545-0.456c-2.88,0.007-6.388-0.496-9.224,0.076
		c-2.377,0.479-3.366,2.311-3.374,4.396c-0.016,0.026-0.035,0.05-0.034,0.085c0.024,2.806,1.434,4.556,4.169,5.241
		c2.725,0.683,6.211,0.013,8.99-0.073c3.838-0.117,7.707-0.101,11.529-0.462c0.215-0.02,0.327-0.182,0.337-0.346
		C37.004,36.452,37.898,35.127,37.901,33.336z M34.67,36.546c-0.106,0.032-0.173,0.095-0.216,0.17
		c-5.625,0.109-20.275,2.813-23.246-2.949c0.833-6.081,7.61-4.814,11.863-4.712c3.803,0.091,7.62,0.331,11.423,0.286
		c0.028,0.052,0.068,0.103,0.126,0.148c1.064,0.831,1.732,1.716,1.961,3.098C36.834,34.113,36.364,36.036,34.67,36.546z"/>
	<path style="fill:#1D1D1B;" d="M40.043,45.054c-7.442-0.465-14.893-0.645-22.349-0.547c-0.056,0.001-0.056,0.086,0,0.086
		c7.459,0.001,14.903,0.224,22.349,0.661C40.172,45.262,40.171,45.062,40.043,45.054z"/>
	<path style="fill:#1D1D1B;" d="M43.841,41.837c-6.164-0.386-12.393-0.175-18.556,0.137c-0.054,0.003-0.055,0.086,0,0.084
		c6.193-0.234,12.363-0.103,18.556-0.101C43.919,41.957,43.918,41.841,43.841,41.837z"/>
	<path style="fill:#1D1D1B;" d="M45.529,39.288c-3.237,0.053-6.464,0.154-9.703,0.101c-0.086-0.001-0.085,0.13,0,0.133
		c3.226,0.111,6.479,0.163,9.703-0.044C45.65,39.47,45.652,39.286,45.529,39.288z"/>
	<path style="fill:#1D1D1B;" d="M47.841,33.185c-1.819-0.121-3.657-0.083-5.479-0.112c-0.073-0.001-0.073,0.112,0,0.114
		c1.822,0.048,3.657,0.163,5.479,0.118C47.919,33.304,47.918,33.19,47.841,33.185z"/>
	<path style="fill:#1D1D1B;" d="M47.21,27.158c-2.05-0.004-4.069,0.008-6.112-0.206c-0.092-0.01-0.09,0.133,0,0.143
		c2.017,0.235,4.084,0.389,6.112,0.225C47.313,27.312,47.316,27.158,47.21,27.158z"/>
	<path style="fill:#1D1D1B;" d="M37.301,11.364c-2.328-0.109-4.635-0.175-6.953-0.452c-0.084-0.01-0.082,0.12,0,0.131
		c2.294,0.301,4.636,0.549,6.953,0.488C37.409,11.528,37.408,11.369,37.301,11.364z"/>
</g>
<g>
</g>
<g>
</g>
<g>
</g>
<g>
</g>
<g>
</g>
<g>
</g>
<g>
</g>
<g>
</g>
<g>
</g>
<g>
</g>
<g>
</g>
<g>
</g>
<g>
</g>
<g>
</g>
<g>
</g>
</svg>
