<?xml version="1.0" encoding="iso-8859-1"?>
<!-- Generator: Adobe Illustrator 18.0.0, SVG Export Plug-In . SVG Version: 6.00 Build 0)  -->
<!DOCTYPE svg PUBLIC "-//W3C//DTD SVG 1.1//EN" "http://www.w3.org/Graphics/SVG/1.1/DTD/svg11.dtd">
<svg version="1.1" id="Capa_1" xmlns="http://www.w3.org/2000/svg" xmlns:xlink="http://www.w3.org/1999/xlink" x="0px" y="0px"
	 viewBox="0 0 49.2 49.2" style="enable-background:new 0 0 49.2 49.2;" xml:space="preserve">
<g>
	<path style="fill:#1D1D1B;" d="M35.08,13.678c-5.831-3.556-12.643-2.358-17.382,2.191c-0.546-4.067,0.079-8.238-0.659-12.255
		c0.42-0.962-0.076-2.187-0.823-2.848c-0.728-0.644-1.688-0.796-2.587-0.572c-0.96-0.196-2.01-0.138-2.972-0.163
		C9.311-0.002,7.966-0.003,6.62,0.002C6.284,0.004,6.159,0.467,6.395,0.64C6.306,0.713,6.245,0.816,6.25,0.952
		c0.068,1.612,0.096,3.3,0.363,4.898C6.263,6.109,6.572,6.6,6.967,6.441c0.191,0.054,0.418,0.003,0.564-0.141
		c0.518-0.055,1.057,0.081,1.506,0.345c0.61,0.358,0.756,0.942,1.198,1.432c0.021,0.023,0.05,0.028,0.075,0.044
		c-1.4,12.506-0.199,25.775-0.14,38.336c0,0.076,0.019,0.139,0.041,0.199c-0.21,0.07-0.199,0.413,0.023,0.463
		c2.078,0.464,4.165,0.494,6.288,0.527c0.479,0.007,0.706-0.432,0.646-0.848c-0.133-0.916-0.179-1.835-0.217-2.758
		c2.766,5.471,9.799,6.192,15.063,4.016c6.253-2.586,10.154-8.62,10.817-15.239C43.515,25.99,41.278,17.458,35.08,13.678z
		 M9.865,5.91C9.713,5.808,9.558,5.715,9.409,5.647c-0.567-0.262-1.175-0.321-1.758-0.21C7.594,3.906,7.325,2.34,7.11,0.835
		C7.108,0.819,7.099,0.81,7.095,0.795c1.085,0.198,2.17,0.365,3.273,0.456c1.255,0.103,2.662,0.321,3.871-0.082
		c0.06-0.02,0.091-0.062,0.133-0.096c0.377,0.135,0.722,0.359,1.001,0.674c0.16,0.18,0.264,0.375,0.35,0.576
		c-1.214-0.153-2.457-0.182-3.675-0.251c-0.16-0.009-0.155,0.23,0,0.246c1.257,0.129,2.534,0.31,3.8,0.34
		c0.069,0.232,0.122,0.469,0.175,0.711c-2.542-0.016-5.122-0.086-7.648,0.125c-0.12,0.01-0.12,0.176,0,0.186
		c2.571,0.215,5.198,0.138,7.785,0.124c0.032,0.059,0.061,0.122,0.112,0.159c-0.01,0.473-0.021,0.953-0.034,1.428
		c-2.079-0.003-4.205,0.277-6.289,0.366C9.857,5.76,9.833,5.849,9.865,5.91z M41.827,30.806c-0.013-0.004-0.021-0.015-0.036-0.014
		c-1.234,0.026-2.441,0.161-3.68,0.094c-0.187-0.01-0.183,0.274,0,0.288c1.215,0.098,2.511,0.166,3.71-0.09
		c-0.001,0.022,0,0.044-0.001,0.066c-0.045,1.003-0.169,1.993-0.362,2.963c-1.951-0.177-4.034-0.089-5.97,0.015
		c-0.037,0.002-0.06,0.021-0.075,0.044c1.711-7.828-1.457-17.718-9.418-16.077c0.038-0.305-0.127-0.615-0.515-0.57
		c-12.106,1.41-10.385,26.172,1.472,25.582c4.593-0.229,7.403-4.169,8.448-8.868c0.007,0.041,0.033,0.078,0.088,0.083
		c1.903,0.151,3.951,0.291,5.881,0.173c-0.174,0.796-0.386,1.58-0.652,2.343c-1.343-0.245-2.703-0.217-4.047,0.004
		c-0.186,0.031-0.105,0.308,0.077,0.281c1.306-0.189,2.563-0.141,3.862,0.056c-0.251,0.678-0.535,1.341-0.861,1.982
		c-1.194,0.096-2.31,0.211-3.534,0.012c-0.147-0.024-0.213,0.197-0.063,0.227c1.075,0.217,2.287,0.337,3.402,0.144
		c-0.432,0.802-0.922,1.571-1.476,2.297c-1.732-0.016-3.476,0.141-5.213,0.117c-0.119-0.002-0.116,0.175,0,0.183
		c1.611,0.107,3.323,0.207,4.953,0.042c-0.456,0.566-0.937,1.113-1.471,1.619c-0.032-0.051-0.08-0.09-0.157-0.093
		c-4.359-0.16-8.765-0.208-13.12,0.059c-0.09,0.005-0.091,0.139,0,0.141c4.319,0.094,8.637,0.099,12.957,0.209
		c-0.612,0.548-1.26,1.066-1.971,1.525c-0.377,0.243-0.767,0.464-1.165,0.673c-3.899-0.501-7.836-0.818-11.751-1.146
		c-0.135-0.011-0.13,0.192,0,0.207c3.719,0.448,7.457,0.91,11.194,1.21c-0.64,0.302-1.301,0.559-1.973,0.767
		c-1.781-0.192-3.568-0.21-5.35-0.455c-0.074-0.01-0.109,0.099-0.032,0.115c1.404,0.292,2.913,0.564,4.38,0.611
		c-4.446,1.034-9.191-0.106-11.788-4.422c-0.247-0.41-0.741-0.221-0.837,0.136c-0.333-0.276-0.955-0.119-1.005,0.45
		c-0.075,0.847-0.045,1.678,0.043,2.511c-1.504-0.019-2.991,0.002-4.478,0.191c0.001-0.012,0.007-0.02,0.007-0.032
		c0.003-12.66,1.164-26.044-0.343-38.63c0.147-0.734-0.392-1.419-1.005-1.86c2.022,0.11,4.291,0.155,6.281-0.278
		c-0.025,0.941-0.052,1.879-0.067,2.824c-1.378-0.037-2.743,0.024-4.123-0.088c-0.154-0.012-0.146,0.216,0,0.236
		c1.345,0.177,2.765,0.297,4.119,0.116c-0.011,0.808-0.015,1.615,0.002,2.42c-0.911,0.082-1.791,0.126-2.713,0.12
		c-0.136-0.001-0.175,0.222-0.033,0.245c0.879,0.146,1.867,0.126,2.761-0.043c0.02,0.71,0.047,1.418,0.103,2.122
		c-0.947,0.122-1.863,0.279-2.832,0.302c-0.178,0.004-0.174,0.261,0,0.274c0.894,0.068,1.96,0.013,2.853-0.263
		c0.104,1.181,0.266,2.352,0.521,3.505c0.122,0.549,0.784,0.49,1.016,0.112c0.014-0.013,0.03-0.017,0.044-0.032
		c3.956-4.385,9.852-6.086,15.15-3.788c-2.116-0.245-4.347-0.153-6.466-0.152c-0.137,0-0.135,0.203,0,0.211
		c2.232,0.136,4.59,0.402,6.821,0.229c0.044-0.003,0.075-0.033,0.097-0.068c0.589,0.283,1.172,0.601,1.741,0.988
		c0.365,0.248,0.708,0.518,1.039,0.803c-3.036-0.263-6.138-0.167-9.172-0.054c-0.169,0.006-0.17,0.265,0,0.264
		c3.21-0.034,6.41,0.178,9.615,0.203c0.689,0.656,1.309,1.382,1.848,2.174c-0.025-0.022-0.053-0.042-0.094-0.046
		c-2.172-0.226-4.46-0.058-6.645-0.036c-0.132,0.001-0.131,0.199,0,0.204c2.183,0.082,4.468,0.315,6.645,0.149
		c0.135-0.01,0.171-0.132,0.128-0.222c0.588,0.872,1.092,1.81,1.511,2.795c-1.417-0.018-2.841,0.1-4.262,0.086
		c-0.172-0.002-0.167,0.249,0,0.264c1.43,0.123,2.978,0.199,4.399-0.044c0.365,0.901,0.665,1.834,0.9,2.784
		c-0.007-0.002-0.009-0.01-0.017-0.011c-1.19-0.195-2.505-0.028-3.709-0.008c-0.176,0.003-0.177,0.271,0,0.274
		c1.203,0.019,2.519,0.187,3.709-0.008c0.028-0.005,0.048-0.021,0.063-0.041c0.279,1.174,0.467,2.368,0.565,3.548
		c-1.716-0.177-3.492-0.107-5.211-0.146c-0.213-0.005-0.212,0.322,0,0.331c1.728,0.068,3.508,0.252,5.241,0.178
		C41.832,29.214,41.851,30.021,41.827,30.806z M25.264,41.669c-8.868-2.292-9.862-21.259-0.213-22.961
		c0.042,0.105,0.121,0.191,0.264,0.177C39.666,17.553,35.51,44.318,25.264,41.669z"/>
</g>
<g>
</g>
<g>
</g>
<g>
</g>
<g>
</g>
<g>
</g>
<g>
</g>
<g>
</g>
<g>
</g>
<g>
</g>
<g>
</g>
<g>
</g>
<g>
</g>
<g>
</g>
<g>
</g>
<g>
</g>
</svg>
