<?xml version="1.0" encoding="iso-8859-1"?>
<!-- Generator: Adobe Illustrator 18.0.0, SVG Export Plug-In . SVG Version: 6.00 Build 0)  -->
<!DOCTYPE svg PUBLIC "-//W3C//DTD SVG 1.1//EN" "http://www.w3.org/Graphics/SVG/1.1/DTD/svg11.dtd">
<svg version="1.1" id="Capa_1" xmlns="http://www.w3.org/2000/svg" xmlns:xlink="http://www.w3.org/1999/xlink" x="0px" y="0px"
	 viewBox="0 0 49.054 49.054" style="enable-background:new 0 0 49.054 49.054;" xml:space="preserve">
<g>
	<path style="fill:#1D1D1B;" d="M39.096,26.337c0.014-0.071-0.015-0.137-0.082-0.169c-0.165-0.299-0.353-0.593-0.588-0.873
		c0.007-0.05,0-0.103-0.045-0.153c-3.793-4.209-11.332-1.29-14.429,2.222c-4.101-4.17-12.228-7.638-14.057,0.535
		c-1.8,8.046,7.875,15.901,13.717,19.638c0.234,0.15,0.456,0.114,0.627-0.005c0.071,0.093,0.178,0.163,0.314,0.136
		c3.862-0.765,6.926-3.443,9.373-6.588c0.065-0.03,0.106-0.085,0.116-0.151c1.295-1.686,2.418-3.496,3.387-5.218
		c0.636-1.13,1.238-2.353,1.663-3.591c0.05-0.045,0.067-0.111,0.06-0.177C39.79,30.004,39.955,28.04,39.096,26.337z M38.296,31.627
		c-4.026-0.861-8.598-0.785-12.651-1.101c-0.159-0.012-0.156,0.231,0,0.246c4.053,0.394,8.385,1.34,12.483,1.389
		c-0.609,1.754-1.61,3.473-2.663,5.007c-0.008-0.001-0.011-0.009-0.019-0.01c-6.241-0.444-12.481-0.929-18.717-1.431
		c-0.147-0.012-0.146,0.216,0,0.229c6.147,0.521,12.294,1.06,18.437,1.637c-0.731,1.033-1.471,1.976-2.106,2.77
		c-0.056,0.069-0.114,0.129-0.17,0.196c-4.008-0.731-8.083-1.164-12.139-1.473c-0.12-0.009-0.118,0.175,0,0.186
		c3.979,0.371,7.905,0.982,11.841,1.631c-0.457,0.528-0.922,1.027-1.401,1.482c-4.296-0.805-8.691-1.258-13.049-1.538
		c-0.098-0.006-0.095,0.141,0,0.151c4.256,0.443,8.466,1.077,12.693,1.719c-0.664,0.601-1.35,1.151-2.067,1.662
		c-2.445-0.151-4.871-0.22-7.31-0.529c-0.163-0.021-0.204,0.265-0.039,0.29c2.247,0.337,4.57,0.611,6.855,0.585
		c-1.166,0.792-2.406,1.515-3.749,2.254c0.003-0.195-0.07-0.392-0.278-0.529c-4.147-2.726-8.169-6.072-10.93-10.262
		c-2.008-3.047-4.175-8.074-0.521-11.16c4.345-3.67,8.36,1.183,11.176,3.369c0.191,0.148,0.408,0.086,0.519-0.055
		c0.093-0.024,0.185-0.067,0.268-0.161c1.648-1.865,3.75-3.242,6.225-3.7c2.46-0.455,4.406,0.445,6.693,0.879
		c0.145,0.221,0.269,0.446,0.381,0.673c-2.368-0.283-4.781-0.373-7.153-0.555c-0.163-0.013-0.16,0.237,0,0.253
		c2.429,0.24,4.885,0.587,7.328,0.709c0.258,0.632,0.416,1.28,0.467,1.942c-3.433-0.519-6.966-0.658-10.422-0.799
		c-0.204-0.008-0.202,0.306,0,0.316c3.492,0.183,6.953,0.624,10.433,0.896C38.727,29.732,38.578,30.682,38.296,31.627z"/>
	<path style="fill:#1D1D1B;" d="M32.086,18.879c0.087-0.121,0.117-0.283,0.023-0.457c-2.929-5.383-11.868-4.107-15.221,0.059
		c-0.024,0.031-0.036,0.062-0.051,0.094c-0.554,0.483-0.751,1.33-0.273,1.967c0.302,0.402,0.811,0.66,1.317,0.663
		c0.443,0.002,1.064-0.176,1.156-0.672c0.046-0.246-0.101-0.429-0.346-0.454c-0.449-0.046-0.891,0.317-1.284-0.106
		c-0.215-0.232-0.254-0.543-0.185-0.831c0.075-0.01,0.152-0.036,0.226-0.101c2.826-2.461,7.325-4.207,10.806-2.773
		c-1.557-0.189-3.144-0.218-4.7-0.197c-0.1,0.001-0.1,0.153,0,0.155c1.859,0.036,3.68,0.252,5.518,0.455
		c0.429,0.255,0.841,0.556,1.222,0.931c-1.789-0.167-3.59-0.253-5.38-0.376c-0.988-0.068-2.949-0.624-3.819-0.076
		c-0.032,0.02-0.048,0.058-0.039,0.095c0.017,0.065,0.033,0.13,0.05,0.194c0.007,0.028,0.035,0.049,0.064,0.049
		c0.055-0.001,0.109-0.002,0.164-0.003c0.053-0.001,0.069-0.086,0.013-0.097c0.235-0.293,0.553-0.33,0.954-0.11
		c0.498,0.045,0.995,0.091,1.493,0.136c0.746,0.066,1.493,0.127,2.24,0.191c1.538,0.131,3.078,0.286,4.62,0.372
		c0.188,0.216,0.374,0.437,0.546,0.688c-0.038,0.049-0.063,0.107-0.083,0.166c-0.977-0.235-2.057-0.302-3.016-0.279
		c-0.131,0.003-0.127,0.19,0,0.2c1.011,0.087,2.001,0.259,2.999,0.403c0.066,0.355,0.102,0.614-0.251,0.886
		c-0.319,0.245-0.76,0.304-1.177,0.322c-0.021-0.076-0.056-0.152-0.124-0.222c-2.9-2.973-7.629-3.199-10.407,0.074
		c-0.304,0.358,0.173,0.855,0.522,0.522c2.72-2.595,6.584-2.761,9.162,0.127c0.207,0.232,0.48,0.184,0.665,0.024
		c0.776,0.202,1.61,0.288,2.245-0.311C32.171,20.175,32.392,19.403,32.086,18.879z"/>
	<path style="fill:#1D1D1B;" d="M40.113,15.141c-0.234-0.026-0.474-0.037-0.715-0.049c-8.405-8.72-23.561-8.737-30.89,1.557
		C8.311,16.77,8.16,16.94,8.093,17.227c-0.123,0.531,0.128,1.051,0.536,1.387c0.434,0.358,1.021,0.493,1.571,0.417
		c0.554-0.076,1.353-0.347,1.509-0.95c0-0.001-0.001-0.003,0-0.004c7.739-7.45,17.253-7.248,25.327-0.417
		c0.072,0.061,0.147,0.086,0.22,0.096c0.525,0.49,1.234,0.798,1.946,0.509c0.696-0.283,1.191-1.159,0.773-1.826
		c0.188-0.126,0.289-0.402,0.092-0.627c-0.116-0.133-0.239-0.258-0.359-0.387c0.135-0.01,0.273-0.013,0.406-0.028
		C40.278,15.379,40.278,15.16,40.113,15.141z M33.244,13.426c-7.052-4.049-16.738-2.388-22.034,4.194
		c-0.019,0.024-0.028,0.05-0.04,0.075c-0.484,0.038-0.952,0.369-1.471,0.271c-0.25-0.047-0.49-0.183-0.581-0.43
		c-0.033-0.09-0.056-0.25-0.054-0.406c6.908-7.007,16.036-9.203,24.058-5.37c-3.259-0.776-6.582-1.256-9.924-1.505
		c-0.118-0.009-0.116,0.172,0,0.183c3.835,0.358,7.551,1.086,11.266,2.032c1.028,0.589,2.03,1.291,3.007,2.088
		c-1.29-0.557-2.749-0.881-4.082-1.283C33.281,13.243,33.225,13.343,33.244,13.426z M39.367,16.494
		c0.032,0.454-0.153,0.904-0.632,1.035c-0.368,0.101-0.743-0.052-1.064-0.267c-0.016-0.052-0.043-0.103-0.084-0.153
		c-1.198-1.465-2.604-2.635-4.134-3.546c1.379,0.47,2.817,1.087,4.245,1.334c0.048,0.008,0.088-0.018,0.115-0.053
		c0.089,0.076,0.177,0.156,0.265,0.233c-0.649,0.018-1.299,0.061-1.921,0.1c-0.118,0.007-0.118,0.175,0,0.183
		c0.764,0.049,1.567,0.098,2.363,0.104c0.305,0.275,0.607,0.557,0.903,0.857C39.387,16.369,39.363,16.426,39.367,16.494z"/>
	<path style="fill:#1D1D1B;" d="M48.932,13.283c0.073-0.144,0.078-0.329-0.049-0.488C36.745-2.511,12.305-2.456,0.437,13.147
		c-0.019,0.025-0.025,0.05-0.035,0.075c-0.491,0.571-0.543,1.536-0.096,2.177c0.465,0.666,1.969,1.132,2.509,0.346
		c0.018-0.01,0.037-0.016,0.054-0.03c6.345-5.43,12.773-9.874,21.483-10.062c8.25-0.178,15.966,3.377,21.336,9.57
		c0.234,0.269,0.53,0.216,0.724,0.03c0.694,0.431,1.54,0.595,2.182-0.061C48.975,14.801,49.211,13.831,48.932,13.283z
		 M45.584,13.377C34.425,0.795,12.912,1.723,2.503,15.153c-0.48-0.006-0.953,0.123-1.301-0.358c-0.331-0.458-0.032-1.121,0.29-1.503
		c0.077-0.091,0.084-0.188,0.065-0.277C8.583,5.797,17.459,2.395,26.226,2.825c-0.017,0-0.033,0.001-0.05,0.001
		c-0.125,0.001-0.125,0.192,0,0.193c0.842,0.007,1.686,0.021,2.529,0.027c1.578,0.209,3.148,0.53,4.695,0.992
		c-0.718,0.001-1.435,0.01-2.152,0.014c-0.122,0.001-0.122,0.189,0,0.19c0.933,0.006,1.867,0.014,2.8,0.005
		c1.152,0.372,2.295,0.79,3.417,1.303c-0.848-0.088-1.697-0.172-2.545-0.252c-0.122-0.011-0.12,0.177,0,0.19
		c1.04,0.11,2.08,0.224,3.122,0.315c0.876,0.422,1.742,0.879,2.593,1.389c-0.796-0.107-1.604-0.145-2.389-0.138
		c-0.09,0.001-0.09,0.139,0,0.141c0.999,0.016,1.959,0.156,2.925,0.328c1.008,0.631,1.999,1.317,2.963,2.074
		c-0.903-0.169-1.813-0.314-2.714-0.472c-0.121-0.021-0.174,0.163-0.051,0.186c1.049,0.202,2.102,0.429,3.159,0.603
		c0.635,0.514,1.263,1.046,1.876,1.615c-0.846-0.166-1.7-0.306-2.543-0.438c-0.111-0.017-0.163,0.148-0.048,0.173
		c0.967,0.214,1.952,0.425,2.937,0.586c0.397,0.379,0.79,0.767,1.176,1.17c-0.063,0.074-0.093,0.174-0.059,0.284
		c0.032,0.104,0.068,0.206,0.098,0.306C47.166,13.574,46.379,13.512,45.584,13.377z M47.821,14.497
		c-0.336,0.334-0.827,0.288-1.254,0.106c-0.021-0.058-0.045-0.116-0.089-0.171c-0.22-0.276-0.451-0.537-0.68-0.802
		c0.732,0.147,1.481,0.25,2.227,0.266C48.052,14.103,48.016,14.304,47.821,14.497z"/>
	<path style="fill:#1D1D1B;" d="M36.03,34.464c-3.747-0.586-7.65-0.612-11.434-0.782c-0.186-0.008-0.184,0.276,0,0.288
		c3.781,0.258,7.599,0.789,11.386,0.853C36.181,34.826,36.237,34.496,36.03,34.464z"/>
</g>
<g>
</g>
<g>
</g>
<g>
</g>
<g>
</g>
<g>
</g>
<g>
</g>
<g>
</g>
<g>
</g>
<g>
</g>
<g>
</g>
<g>
</g>
<g>
</g>
<g>
</g>
<g>
</g>
<g>
</g>
</svg>
