<?xml version="1.0" encoding="iso-8859-1"?>
<!-- Generator: Adobe Illustrator 18.0.0, SVG Export Plug-In . SVG Version: 6.00 Build 0)  -->
<!DOCTYPE svg PUBLIC "-//W3C//DTD SVG 1.1//EN" "http://www.w3.org/Graphics/SVG/1.1/DTD/svg11.dtd">
<svg version="1.1" id="Capa_1" xmlns="http://www.w3.org/2000/svg" xmlns:xlink="http://www.w3.org/1999/xlink" x="0px" y="0px"
	 viewBox="0 0 48.185 48.185" style="enable-background:new 0 0 48.185 48.185;" xml:space="preserve">
<g>
	<path style="fill:#1D1D1B;" d="M47.707,11.222C39.491,8.791,31.87,5.363,24.171,1.648c-0.384-0.185-0.711,0.186-0.615,0.5
		c-3.186,0.307-5.794,2.418-8.619,3.803c-4.227,2.072-8.856,3.183-13.04,5.298c-0.072,0.036-0.11,0.088-0.128,0.144
		c-0.618-0.248-1.106,0.672-0.503,1.077c3.638,2.443,7.571,4.772,11.743,6.197c-0.329,2.012-0.397,4.143-0.614,6.168
		c-0.024,0.227,0.097,0.373,0.261,0.439c-0.012,0.189,0.14,0.395,0.363,0.326c7.231-2.234,14.015-2.653,21.215-0.052
		c0.488,0.177,0.799-0.204,0.813-0.609c0.236,0.066,0.502-0.014,0.542-0.311c0.251-1.854,0.555-4.238-0.168-6.063
		c0.006-0.003,0.011-0.002,0.016-0.004c1.018-0.491,2.035-0.981,3.047-1.485c0.652-0.324,1.451-0.597,2.081-1.026
		c-0.131,1.089-0.071,2.286,0.309,3.205c-0.198,0.016-0.397,0.029-0.595,0.043c-0.138-0.13-0.414-0.08-0.471,0.125
		c0,0.001,0,0.001,0,0.002c-0.091,0.092-0.105,0.216-0.07,0.335c-0.401,1.683-0.443,3.552-0.464,5.261
		c-0.016,1.312,0.86,1.441,2.047,1.665c0.945,0.179,1.684-0.009,2.003-1.001c0.531-1.648,0.638-3.79,0.721-5.509
		c0.017-0.355-0.313-0.533-0.603-0.49c0.007-0.149-0.055-0.3-0.196-0.377c-0.464-0.251-0.964-0.142-1.477-0.119
		c-0.041,0.002-0.081,0.007-0.122,0.009c0.033-0.696-0.142-1.405-0.206-2.099c-0.051-0.555-0.061-1.11-0.084-1.665
		c1.173-0.334,2.34-0.698,3.48-1.133c0.95-0.363,2.063-0.695,2.803-1.407c0.1-0.096,0.116-0.233,0.095-0.362
		C48.275,12.345,48.403,11.428,47.707,11.222z M41.771,20.137c0.434,0.019,0.857,0.087,1.259-0.041
		c-0.012,0.047-0.017,0.097-0.029,0.144c-0.643,0.064-1.284,0.161-1.924,0.244c-0.061,0.008-0.063,0.104,0,0.097
		c0.632-0.066,1.267-0.123,1.897-0.207c-0.13,0.563-0.245,1.132-0.341,1.704c-0.436,0.047-0.871,0.1-1.305,0.142
		c-0.078,0.008-0.079,0.13,0,0.122c0.425-0.039,0.852-0.068,1.279-0.103c-0.069,0.422-0.138,0.844-0.199,1.265
		c-0.012,0.079-0.019,0.179-0.027,0.281c-0.599,0.001-1.198,0.004-1.797,0.009c-0.064,0-0.064,0.099,0,0.099
		c0.595,0.005,1.191,0.007,1.787,0.009c-0.027,0.385-0.053,0.847-0.169,1.105c-0.278,0.623-0.543,0.511-1.189,0.381
		c-0.798-0.16-0.585-0.373-0.56-1.16c0.017-0.526,0.037-1.052,0.049-1.578c0.019-0.874,0.035-1.747-0.06-2.613
		C40.885,20.077,41.327,20.117,41.771,20.137z M44.295,13.234c-0.96,0.391-1.926,0.764-2.896,1.13
		c-7.965-1.17-16.027-1.738-24.068-2c-0.086-0.003-0.085,0.129,0,0.133c7.917,0.347,15.755,1.128,23.618,2.043
		c-0.01,0.004-0.021,0.008-0.031,0.012c-0.19,0.071-0.287,0.218-0.317,0.375c-0.884,0.085-1.763,0.627-2.533,1.017
		c-0.492,0.25-0.97,0.522-1.441,0.805c-6.45-0.184-12.878-0.49-19.307-1.082c-0.08-0.007-0.079,0.116,0,0.124
		c1.387,0.14,15.051,0.953,19.112,1.073c-0.487,0.299-0.965,0.612-1.436,0.938c-0.051,0.036-0.088,0.077-0.12,0.12
		c-0.19-0.004-0.382,0.09-0.423,0.294c-0.196,0.97-0.025,1.973,0.04,2.954c0.018,0.268,0.026,0.537,0.042,0.805
		c-5.251-0.309-10.467-0.614-15.696-1.243c-0.084-0.01-0.082,0.12,0,0.131c5.19,0.697,10.461,1.218,15.703,1.254
		c0.043,0.718,0.089,1.436,0.113,2.155c-0.022-0.011-0.036-0.029-0.06-0.038c-6.788-2.594-14.557-2.751-21.145,0.487
		c0.573-1.89,0.927-4.176,0.63-6.133c0.082-0.198,0.046-0.446-0.179-0.572c-3.835-2.148-7.774-4.037-11.545-6.306
		C5.9,11.08,9.399,9.707,12.7,8.301c3.847-1.638,7.287-4.171,11.279-5.428c0.112-0.035,0.185-0.113,0.228-0.205
		c1.034,0.646,2.092,1.254,3.16,1.844c-2.007-0.153-4.021-0.226-6.033-0.234c-0.071,0-0.071,0.108,0,0.11
		c2.157,0.04,4.3,0.171,6.444,0.349c1.91,1.04,3.863,2.006,5.857,2.888C28.9,6.915,24.12,6.668,19.334,6.756
		c-0.11,0.002-0.11,0.172,0,0.171c5.023-0.072,9.971,0.314,14.946,0.973c2.987,1.293,6.045,2.43,9.134,3.431
		c-8.847-1.302-17.926-1.677-26.83-1.948c-0.095-0.003-0.095,0.144,0,0.148c9.577,0.359,19.019,1.446,28.543,2.335
		c0.482,0.149,0.963,0.303,1.446,0.446C45.79,12.526,45.04,12.93,44.295,13.234z"/>
	<path style="fill:#1D1D1B;" d="M17.223,41.651c-0.537-0.524-1.051-1.056-1.625-1.542c-0.446-0.378-0.872-0.853-1.449-0.971
		c-0.075-0.183-0.312-0.307-0.536-0.208c-1.188,0.523-2.429,1.353-3.754,1.422c-1.832,0.095-2.875-1.307-2.838-3.056
		c0.03-1.431,0.829-2.851,2.252-3.285c1.359-0.415,2.377,0.165,3.425,0.959c0.182,0.138,0.371,0.086,0.502-0.042
		c0.081,0.047,0.185,0.062,0.312,0.022c0.722-0.229,1.373-0.613,2.004-1.028c0.561-0.369,1.274-0.789,1.492-1.452
		c0.109-0.332-0.203-0.603-0.514-0.575c-5.174-7.09-16.819-3.379-16.486,5.684c0.313,8.518,12.921,12.859,17.037,4.551
		c0.001-0.001,0-0.002,0.001-0.003C17.254,42.102,17.407,41.831,17.223,41.651z M15.992,42c-3.218-0.03-6.439,0.02-9.657,0.042
		c-0.068,0-0.068,0.105,0,0.105c3.153,0.021,6.308,0.068,9.461,0.042c-0.444,0.429-0.898,0.844-1.374,1.215
		c0.002-0.051-0.037-0.108-0.104-0.098c-0.547,0.083-8.234,1.012-8.222,0.264c-0.001,0.055,0.081,0.054,0.084,0l0.005-0.093
		c0.001-0.018-0.014-0.039-0.032-0.042C5.959,43.397,6,43.374,5.873,43.517c-0.014,0.015-0.021,0.042-0.008,0.061
		c0.524,0.716,2.178,0.399,2.946,0.399c1.845-0.002,3.692-0.158,5.505-0.493c-1.917,1.465-4.115,2.341-6.765,1.778
		c-3.554-0.756-6.325-4.04-6.491-7.682c-0.145-3.187,1.837-6.065,4.597-7.51c2.968-1.554,6.192-0.968,8.697,0.879
		c-2.128-0.505-4.344-0.677-6.52-0.639c-0.065,0.001-0.065,0.101,0,0.101c2.349-0.004,4.6,0.341,6.881,0.812
		c0.378,0.306,0.738,0.639,1.075,1.001c-0.311,0.229-0.597,0.518-0.879,0.742c-0.55,0.437-1.153,0.795-1.712,1.218
		c-0.733-1.133-2.263-1.541-3.599-1.378c-0.008-0.004-0.005-0.016-0.016-0.017c-1.916-0.044-3.833-0.005-5.75,0.006
		c-0.065,0-0.065,0.101,0,0.101c1.744,0.01,3.487,0.037,5.231,0.009c-0.09,0.023-0.184,0.039-0.27,0.068
		c-0.958,0.317-1.708,0.983-2.222,1.809c-1.33-0.017-2.66,0.004-3.989,0.013c-0.065,0-0.065,0.101,0,0.101
		c1.304,0.009,2.608,0.028,3.912,0.013c-0.375,0.646-0.613,1.377-0.677,2.128c-0.911-0.022-1.825-0.005-2.735,0
		c-0.076,0-0.076,0.118,0,0.118c0.908,0.005,1.818,0.022,2.726,0c-0.048,0.782,0.087,1.582,0.395,2.292
		c-1.121-0.085-2.248-0.135-3.368-0.202c-0.061-0.004-0.061,0.091,0,0.095c1.14,0.082,2.283,0.181,3.426,0.243
		c0.407,0.858,1.08,1.564,2.045,1.888c2.013,0.674,3.961-0.316,5.427-1.66c0.272,0.48,0.805,0.767,1.253,1.088
		c0.417,0.299,0.849,0.566,1.283,0.83C16.181,41.822,16.084,41.908,15.992,42z"/>
	<path style="fill:#1D1D1B;" d="M44.151,29.873c-3.255-2.612-7.984-2.128-10.514,1.064c-0.677-1.563-2.583-2.397-4.235-2.646
		c-2.276-0.343-4.583,0.206-6.116,1.953c-0.01-0.297-0.037-0.597-0.047-0.887c-0.011-0.325-0.245-0.509-0.548-0.548
		c-1.226-0.16-2.504-0.132-3.717,0.12c-0.049,0.01-0.072,0.04-0.101,0.066c-0.167-0.026-0.343,0.048-0.377,0.253
		c-0.761,4.563-1.026,9.646-0.597,14.256c0.233,2.507,1.984,1.987,4.304,2.124c0.319,0.019,0.494-0.175,0.545-0.41
		c0.069,0.467,0.728,0.425,0.79-0.054c0.306-2.382-0.301-11.169,3.339-11.185c0.799,0.381,1.598,0.762,2.397,1.142
		c0.34,0.695,0.525,1.43,0.556,2.203c0.074,0.758,0.07,1.532,0.064,2.291c-0.013,1.631-0.159,3.255-0.358,4.872
		c-0.045,0.367,0.297,0.565,0.618,0.554c0.072,0.119,0.197,0.213,0.388,0.229c0.598,0.049,1.193,0.056,1.793,0.073
		c0.566,0.016,1.147,0.153,1.683-0.072c0.042-0.018,0.06-0.052,0.095-0.075c0.235,0.109,0.574-0.021,0.574-0.344
		c0.002-2.78-0.967-10.232,3.242-10.646c4.031-0.396,3.159,7.65,2.939,10.1c-0.024,0.27,0.144,0.457,0.361,0.548
		c0.039,0.137,0.142,0.254,0.342,0.296c0.741,0.155,1.498,0.184,2.253,0.175c0.696-0.009,1.426,0.069,1.952-0.44
		c0.048-0.047,0.075-0.107,0.102-0.167c0.031,0.775,1.213,0.76,1.249-0.032C47.344,39.944,48.355,33.246,44.151,29.873z
		 M46.002,39.743c-1.17-0.09-2.345-0.135-3.518-0.18c-0.001-0.815-0.049-1.639-0.162-2.422c1.194,0.097,2.39,0.204,3.587,0.257
		C45.971,38.171,46.005,38.955,46.002,39.743z M43.44,31.25c-2.816-0.024-5.632-0.003-8.448,0.018
		C37.672,29.496,41.142,29.213,43.44,31.25z M32.335,44.183c-0.539,0.031-1.074,0.057-1.611,0.11
		c0.268-1.545,0.676-4.116,0.545-6.453c0.736-0.059,1.476-0.107,2.209-0.193c-0.127,0.73-0.191,1.489-0.199,2.249
		c-0.573,0.119-1.145,0.25-1.713,0.381c-0.069,0.016-0.039,0.119,0.029,0.106c0.561-0.105,1.125-0.213,1.685-0.33
		c-0.001,0.735,0.041,1.466,0.12,2.162c-0.687-0.082-1.381-0.133-2.065-0.198c-0.086-0.008-0.083,0.123,0,0.133
		c0.69,0.081,1.387,0.178,2.084,0.241c0.076,0.62,0.175,1.212,0.292,1.747C33.261,44.062,32.796,44.157,32.335,44.183z
		 M41.321,34.185c1.182,0.049,2.312,0.27,3.492,0.484c0.098,0.018,0.133-0.113,0.041-0.148c-1.131-0.434-2.425-0.532-3.652-0.511
		c-0.669-0.918-1.651-1.475-3.097-1.369c-1.008,0.074-1.815,0.399-2.464,0.896c-0.014-0.015-0.032-0.027-0.058-0.028
		c-1.264-0.075-2.525,0.045-3.765,0.286c-0.078,0.015-0.044,0.132,0.033,0.118c1.208-0.212,2.401-0.266,3.622-0.236
		c-0.504,0.428-0.91,0.961-1.223,1.576c-0.985-0.039-2.033,0.199-2.932,0.538c-0.074,0.028-0.044,0.146,0.033,0.12
		c0.939-0.316,1.844-0.41,2.803-0.466c-0.297,0.633-0.516,1.33-0.654,2.072c-0.747,0.047-1.494,0.136-2.239,0.212
		c-0.17-2.648-1.054-4.967-3.689-5.086c-0.887-0.04-1.613,0.148-2.213,0.499c0.047-0.036,0.049-0.113-0.027-0.118
		c-1.572-0.094-3.175,0.011-4.75,0.025c-0.061,0.001-0.061,0.094,0,0.095c1.565,0.014,3.158,0.117,4.721,0.026
		c-0.615,0.375-1.092,0.928-1.462,1.596c-1.165-0.05-2.344,0.003-3.509,0.014c-0.086,0.001-0.086,0.132,0,0.133
		c1.137,0.011,2.286,0.059,3.424,0.015c-0.323,0.627-0.568,1.336-0.736,2.105c-0.978-0.026-1.96,0.002-2.937,0.009
		c-0.071,0-0.071,0.109,0,0.11c0.969,0.007,1.942,0.033,2.911,0.009c-0.157,0.756-0.256,1.553-0.31,2.353
		c-0.868,0.074-1.734,0.187-2.6,0.285c-0.076,0.009-0.078,0.128,0,0.12c0.862-0.082,1.728-0.15,2.588-0.255
		c-0.05,0.82-0.059,1.637-0.048,2.406c-0.011-0.018-0.014-0.041-0.042-0.043c-0.91-0.062-1.838-0.002-2.75,0.006
		c-0.083,0.001-0.083,0.128,0,0.129c0.911,0.009,1.84,0.069,2.75,0.006c0.028-0.002,0.031-0.026,0.042-0.044
		c0.016,1.031,0.065,1.976,0.097,2.715c-0.077-0.201-0.248-0.37-0.52-0.392c-2.215-0.183-2.749-0.529-3.189-2.791
		c-0.223-1.149-0.039-2.539-0.029-3.697c0.025-2.839,0.219-5.675,0.215-8.513c0.981,0.104,1.952,0.223,2.925,0.38
		c-0.026,0.541-0.051,1.092,0.182,1.577c0.144,0.301,0.67,0.313,0.81,0c0.049-0.11,0.072-0.226,0.099-0.342
		c0.096,0.024,0.206,0.01,0.312-0.078c2.797-2.31,7.685-2.229,9.384,1.307c0.215,0.448,0.908,0.267,0.979-0.179
		c0.277-0.25,0.572-0.475,0.874-0.688c2.963,0.021,5.927,0.047,8.89,0.019c0.586,0.576,1.087,1.311,1.463,2.228
		c0.446,1.089,0.665,2.308,0.777,3.569c-1.194-0.109-2.394-0.165-3.591-0.23C42.136,35.929,41.822,34.951,41.321,34.185z
		 M45.882,44.243c-0.046-0.108-0.112-0.206-0.221-0.264c-0.609-0.323-1.176-0.099-1.835-0.02c-0.56,0.068-1.124,0.101-1.685,0.154
		c0.067-0.484,0.139-1.07,0.201-1.71c1.189,0.096,2.403,0.11,3.596-0.012C45.914,43.024,45.892,43.648,45.882,44.243z
		 M45.944,42.202c-1.197,0.053-2.385,0.095-3.588,0.043c0.073-0.788,0.125-1.659,0.129-2.544c1.171,0.079,2.345,0.157,3.518,0.191
		C45.997,40.668,45.972,41.444,45.944,42.202z"/>
	<path style="fill:#1D1D1B;" d="M34.08,19.338c-5.653-0.396-11.335-0.548-16.997-0.774c-0.071-0.003-0.07,0.106,0,0.11
		c5.659,0.311,11.332,0.698,16.997,0.839C34.194,19.516,34.192,19.346,34.08,19.338z"/>
	<path style="fill:#1D1D1B;" d="M15.027,32.108l-0.101-0.146c-0.028-0.04-0.084-0.064-0.129-0.034
		c-0.036,0.024-0.072,0.048-0.108,0.072c-0.094,0.063-0.012,0.208,0.089,0.153c-0.455,0.248-2.545-0.422-3.115-0.5
		c-0.491-0.067-0.984-0.126-1.477-0.177c-1.697-0.172-3.397-0.227-5.103-0.209c-0.073,0.001-0.073,0.113,0,0.114
		c2.307,0.018,4.604,0.175,6.885,0.526c0.774,0.119,2.311,0.823,3.021,0.341C15.034,32.219,15.061,32.156,15.027,32.108z"/>
</g>
<g>
</g>
<g>
</g>
<g>
</g>
<g>
</g>
<g>
</g>
<g>
</g>
<g>
</g>
<g>
</g>
<g>
</g>
<g>
</g>
<g>
</g>
<g>
</g>
<g>
</g>
<g>
</g>
<g>
</g>
</svg>
