<?xml version="1.0" encoding="iso-8859-1"?>
<!-- Generator: Adobe Illustrator 18.0.0, SVG Export Plug-In . SVG Version: 6.00 Build 0)  -->
<!DOCTYPE svg PUBLIC "-//W3C//DTD SVG 1.1//EN" "http://www.w3.org/Graphics/SVG/1.1/DTD/svg11.dtd">
<svg version="1.1" id="Capa_1" xmlns="http://www.w3.org/2000/svg" xmlns:xlink="http://www.w3.org/1999/xlink" x="0px" y="0px"
	 viewBox="0 0 48.846 48.846" style="enable-background:new 0 0 48.846 48.846;" xml:space="preserve">
<g>
	<path style="fill:#1D1D1B;" d="M5.707,33.035c-0.044-0.104-0.125-0.195-0.255-0.205c-2.585-0.195-5.352,1.262-5.45,4.156
		c-0.09,2.686,2.605,4.587,5.121,4.304c2.322-0.261,4.052-2.41,3.836-4.734C8.798,34.82,7.375,33.342,5.707,33.035z M7.669,37.373
		c-1.717-0.138-3.489-0.079-5.203-0.092c-0.139-0.001-0.137,0.207,0,0.215c1.689,0.089,3.431,0.25,5.132,0.221
		c-0.088,0.305-0.219,0.595-0.388,0.861c-0.005,0-0.008-0.005-0.013-0.005c-1.291,0.034-2.559,0.17-3.856,0.123
		c-0.087-0.003-0.085,0.127,0,0.134c1.205,0.093,2.475,0.164,3.681,0c-0.551,0.71-1.377,1.2-2.321,1.226
		c-1.845,0.05-3.673-1.45-3.323-3.393c0.255-1.413,1.422-2.283,2.704-2.798c0.06,0.037,0.127,0.066,0.21,0.068
		c1.298,0.045,2.64,0.641,3.175,1.813c-1.023-0.059-2.058-0.048-3.077-0.078c-0.157-0.005-0.155,0.233,0,0.243
		c1.069,0.066,2.153,0.178,3.228,0.206c0.055,0.197,0.09,0.408,0.099,0.633C7.726,36.96,7.704,37.168,7.669,37.373z"/>
	<path style="fill:#1D1D1B;" d="M22.702,17.875c0.005-0.506,0.018-1.013,0.016-1.516c-0.002-0.452-0.405-0.682-0.81-0.617
		c-0.831,0.133-1.646,0.151-2.486,0.154c-0.039,0-0.066,0.014-0.101,0.02c0.011-0.143,0.02-0.29,0.03-0.434
		c0.086-0.06,0.093-0.18,0.018-0.255c0.162-2.229,0.263-4.536,0.172-6.724C19.468,6.74,18.039,7.065,16.528,7
		c-1.254-0.054-3.118-0.573-3.488,1.02c-0.271,1.166-0.117,2.532-0.144,3.729c-0.031,1.347-0.051,2.695-0.002,4.041
		c-0.23,0.003-0.468,0.046-0.701,0.052c-0.482,0.011-0.953-0.05-1.433-0.084c-0.328-0.023-0.439,0.285-0.351,0.529
		c-0.295,0.711-0.311,1.53-0.407,2.291c-0.135,1.082-0.271,2.165-0.407,3.247c-0.044,0.354,0.341,0.673,0.667,0.667
		c0.843-0.015,1.722-0.052,2.558-0.216c0.013,3.026,0.274,6.048,0.329,9.075c0.058,3.208-0.323,6.474-0.07,9.663
		c0.005,0.07,0.041,0.123,0.08,0.172c-0.017,0.146,0.066,0.306,0.262,0.329c1.819,0.218,3.83,0.734,5.629,0.257
		c0.183-0.049,0.366-0.212,0.404-0.404c0.54-2.755-0.125-6.001-0.142-8.817c-0.021-3.445,0.179-6.879,0.249-10.321
		c0.721,0.189,1.663,0.348,2.33,0.145c0.245,0.131,0.6,0.016,0.634-0.36c0.118-1.299,0.158-2.611,0.175-3.921
		C22.751,18.03,22.755,17.936,22.702,17.875z M18.313,39.18c-0.075,0.202-0.163,0.374-0.258,0.533
		c-0.939,0.048-1.82,0.063-2.786-0.186c-0.16-0.041-0.227,0.202-0.068,0.247c0.796,0.23,1.699,0.389,2.563,0.344
		c-0.963,1.064-2.542,0.795-4.023,0.817c0.76-3.388,0.934-7.3,0.705-11.13c1.21,0.045,2.458,0.116,3.675,0.064
		c-0.007,0.698-0.012,1.397-0.009,2.095c-0.784-0.012-1.575,0.024-2.355,0.038c-0.165,0.003-0.165,0.254,0,0.257
		c0.779,0.014,1.571,0.05,2.356,0.038c0.002,0.33,0,0.66,0.003,0.99c0.001,0.083,0.007,0.178,0.012,0.269
		c-0.614-0.01-1.239,0.04-1.846,0.052c-0.124,0.003-0.125,0.191,0,0.193c0.613,0.013,1.243,0.063,1.864,0.051
		c0.038,0.477,0.105,1.028,0.172,1.604c-0.752-0.019-1.509,0.07-2.243,0.221c-0.131,0.027-0.073,0.216,0.054,0.197
		c0.748-0.112,1.48-0.134,2.222-0.126c0.06,0.536,0.115,1.082,0.135,1.596c-0.925-0.03-1.876,0.086-2.77,0.214
		c-0.14,0.02-0.108,0.265,0.034,0.249c0.923-0.108,1.831-0.09,2.746-0.092C18.501,38.281,18.456,38.795,18.313,39.18z
		 M20.578,21.357c-0.345,0.003-0.69-0.023-1.034-0.048c-0.159-0.412-0.84-0.324-0.92,0.182c-0.022-0.011-0.037-0.029-0.066-0.03
		c-1.158-0.068-2.339,0.021-3.498,0.044c-0.172,0.003-0.172,0.264,0,0.267c1.159,0.022,2.341,0.112,3.498,0.044
		c0.014-0.001,0.019-0.011,0.031-0.014c-0.056,0.488-0.106,0.977-0.149,1.466c-0.019-0.01-0.032-0.025-0.058-0.028
		c-1.494-0.141-3.048-0.037-4.548-0.002c-0.192,0.004-0.193,0.294,0,0.299c1.499,0.036,3.054,0.139,4.548-0.002
		c0.014-0.001,0.02-0.012,0.032-0.016c-0.069,0.825-0.123,1.651-0.165,2.478c-0.99-0.08-2.032-0.004-3.016,0.034
		c-0.199,0.008-0.199,0.302,0,0.309c0.977,0.038,2.013,0.112,2.998,0.035c-0.026,0.574-0.063,1.147-0.078,1.721
		c-0.756-0.031-1.525,0.055-2.263,0.183c-0.127,0.022-0.099,0.245,0.031,0.228c0.751-0.097,1.481-0.089,2.224-0.067
		c-0.008,0.352-0.019,0.704-0.024,1.056c-1.222-0.052-2.475,0.02-3.69,0.065c-0.17-2.648-0.528-5.251-1.04-7.604
		c0.02-0.099,0.007-0.201-0.056-0.283c-0.003-0.013-0.005-0.027-0.008-0.04c-0.044-0.195-0.25-0.218-0.389-0.133
		c-0.628-0.159-1.295-0.244-1.952-0.295c0.076-0.804,0.153-1.607,0.229-2.411c0.063-0.669,0.212-1.374,0.17-2.05
		c0.267,0.053,0.538,0.092,0.806,0.125c0.503,0.062,0.992,0.175,1.382-0.204c0.191-0.185,0.151-0.434,0.003-0.611
		c0.22-1.428,0.356-2.866,0.484-4.305c0.065-0.732-0.089-2.2,0.233-2.843C14.27,8.24,14.565,8.024,15.18,8.259
		c0.337,0.01,0.674,0.02,1.011,0.031c0.737,0.022,1.55-0.182,2.045,0.413c-0.929-0.18-1.88-0.214-2.826-0.145
		c-0.174,0.013-0.178,0.28,0,0.274c1.032-0.032,2.027,0.097,3.028,0.303c0.069,0.462-0.039,1.227-0.102,1.772
		c-0.858,0.04-1.709,0.094-2.575,0.077c-0.189-0.004-0.176,0.262,0,0.285c0.819,0.107,1.699,0.142,2.538,0.041
		c0,0.011-0.002,0.026-0.003,0.036c-0.015,0.596-0.036,1.193-0.056,1.79c-0.831-0.077-1.69-0.025-2.491,0.081
		c-0.144,0.019-0.152,0.244,0,0.232c0.848-0.067,1.659-0.013,2.481,0.06c-0.017,0.525-0.034,1.05-0.041,1.575
		c-1.041-0.058-2.097-0.05-3.13-0.059c-0.19-0.002-0.185,0.278,0,0.292c1.031,0.077,2.083,0.174,3.127,0.203
		c-0.001,0.386,0,0.772,0.011,1.158c0.016,0.544,0.622,0.645,0.913,0.338c0.086,0.059,0.185,0.105,0.312,0.115
		c0.681,0.057,1.354,0.026,2.027-0.048c0.001,0.196,0.011,0.392,0.014,0.588c-2.459-0.262-5.029-0.118-7.455,0.125
		c-0.179,0.018-0.185,0.296,0,0.285c2.513-0.154,4.972-0.029,7.466,0.047c0.009,0.392,0.012,0.783,0.028,1.175
		c-2.565-0.194-5.296,0.134-7.841,0.242c-0.189,0.008-0.191,0.295,0,0.295c2.554,0,5.304,0.209,7.866-0.094
		c0.024,0.51,0.048,1.02,0.087,1.529C21.271,21.268,20.922,21.354,20.578,21.357z"/>
	<path style="fill:#1D1D1B;" d="M48.451,15.913c0.106-0.294-0.054-0.694-0.378-0.775c-1.14-0.284-2.482,0.059-3.638,0.209
		c-0.748,0.097-1.621,0.044-2.19,0.527c-0.279-0.174-0.68-0.174-0.835,0.176c-1.945,4.389-3.737,8.854-5.427,13.349
		c-0.625-1.91-1.688-3.624-2.651-5.403c-1.305-2.411-2.315-4.937-3.487-7.411c-0.133-0.281-0.478-0.137-0.538,0.111
		c-0.231-0.102-0.48-0.06-0.781-0.042c-0.174,0.011-0.348,0.016-0.522,0.023c-0.521-0.145-1.089-0.1-1.637-0.114
		c-0.857-0.022-1.719-0.062-2.574-0.002c-0.066,0.005-0.128,0.02-0.187,0.041c-0.021,0.007-0.039,0.02-0.059,0.029
		c-0.081,0.039-0.154,0.089-0.212,0.153c-0.008,0.01-0.021,0.011-0.029,0.021c-0.059,0.076-0.09,0.156-0.109,0.237
		c-0.004,0.016-0.008,0.031-0.011,0.048c-0.004,0.029-0.007,0.058-0.006,0.087c-0.001,0.034,0.002,0.068,0.007,0.103
		c0.002,0.011,0.005,0.021,0.007,0.032c0.015,0.068,0.042,0.135,0.085,0.2c1.843,7.949,6.324,15.893,10.065,23.082
		c0.043,0.083,0.096,0.145,0.155,0.191c0.008,0.071,0.035,0.139,0.11,0.18c0.736,0.408,1.534,0.62,2.355,0.784
		c0.706,0.141,1.535,0.38,2.186,0.002c0.153-0.089,0.22-0.235,0.218-0.382c0.138,0.019,0.28-0.028,0.354-0.175
		c3.955-7.892,7.063-16.307,10.085-24.59C48.935,16.252,48.728,16.001,48.451,15.913z M47.152,17.581
		c-1.261-0.493-2.653-0.55-3.977-0.322c-0.15,0.026-0.117,0.289,0.036,0.269c1.328-0.169,2.543,0.026,3.801,0.416
		c-0.192,0.499-0.381,1-0.573,1.499c-1.244-0.003-2.499,0.124-3.745,0.091c-0.21-0.005-0.206,0.31,0,0.323
		c1.149,0.077,2.384,0.173,3.56,0.068c-0.299,0.775-0.587,1.554-0.889,2.327c-1.119-0.006-2.251,0.099-3.37,0.073
		c-0.22-0.005-0.214,0.32,0,0.337c1.02,0.083,2.133,0.164,3.186,0.06c-0.312,0.797-0.622,1.595-0.937,2.391
		c-1.04-0.027-2.087,0.013-3.125,0.04c-0.199,0.005-0.199,0.304,0,0.309c0.986,0.025,1.981,0.059,2.97,0.042
		c-0.268,0.676-0.532,1.354-0.801,2.03c-1.629-0.232-3.342-0.194-4.968-0.112c-0.204,0.01-0.207,0.32,0,0.32
		c1.608,0,3.209,0.143,4.812,0.186c-0.26,0.653-0.516,1.307-0.776,1.96c-0.996,0.012-1.995,0.091-2.987,0.151
		c-0.206,0.013-0.209,0.332,0,0.323c0.949-0.037,1.904-0.06,2.853-0.136c-0.258,0.649-0.517,1.298-0.774,1.948
		c-0.908-0.15-1.833-0.241-2.739-0.369c-0.171-0.024-0.249,0.235-0.073,0.264c0.884,0.149,1.775,0.334,2.668,0.467
		c-0.169,0.428-0.34,0.855-0.509,1.283c-1.283-0.215-2.655-0.14-3.919,0.05c-0.165,0.025-0.128,0.31,0.04,0.294
		c1.272-0.125,2.473-0.036,3.717,0.067c-0.16,0.406-0.322,0.811-0.481,1.217c-1.981-0.155-3.995-0.163-5.977-0.303
		c-0.15-0.011-0.147,0.219,0,0.232c0.041,0.004,0.082,0.007,0.123,0.011c0.076,0.007,0.11-0.067,0.101-0.131
		c0.184,0.226,0.429,0.326,0.743,0.283c0.182,0.025,0.365,0.047,0.548,0.066c0.506,0.057,1.013,0.105,1.521,0.141
		c0.923,0.066,1.863,0.132,2.791,0.085c-0.199,0.509-0.402,1.016-0.598,1.526c-1.452-0.133-2.971-0.152-4.407-0.094
		c-0.176,0.007-0.168,0.248,0,0.267c1.377,0.159,2.836,0.255,4.246,0.242c-0.223,0.582-0.456,1.161-0.676,1.745
		c-1.382-0.257-2.883-0.162-4.273-0.072c-0.145,0.01-0.149,0.228,0,0.229c1.38,0.008,2.774,0.18,4.151,0.162
		c-0.134,0.357-0.277,0.71-0.409,1.068c-0.002,0.004,0,0.008-0.002,0.012c-0.566-0.313-1.29-0.213-1.925-0.252
		c-0.596-0.036-1.189-0.101-1.784-0.138c0.073-0.147,0.092-0.323,0.001-0.509c-3.534-7.23-6.287-15.245-10.294-22.211
		c0.776,0.038,1.556,0.013,2.332-0.007c0.657-0.017,1.341,0.045,1.939-0.235c0.031,0.009,0.063,0.016,0.094,0.025
		c0.391,0.111,0.715,0.269,1.081,0.009c0.003-0.002,0.004-0.005,0.007-0.007c0.114,0.447,0.252,0.883,0.394,1.317
		c-1.245-0.278-2.533-0.331-3.803-0.241c-0.217,0.015-0.221,0.351,0,0.341c1.339-0.062,2.629,0.092,3.941,0.328
		c0.172,0.493,0.355,0.98,0.552,1.462c-1.103-0.126-2.217-0.017-3.309,0.17c-0.19,0.033-0.108,0.316,0.08,0.288
		c1.114-0.168,2.219-0.165,3.34-0.197c0.327,0.779,0.676,1.549,1.044,2.31c-0.941-0.14-1.905-0.178-2.85-0.257
		c-0.126-0.011-0.12,0.178,0,0.193c0.991,0.13,1.994,0.313,2.994,0.364c0.555,1.136,1.133,2.263,1.682,3.404
		c-0.798-0.031-1.607,0.008-2.402,0.02c-0.181,0.003-0.181,0.278,0,0.281c0.846,0.013,1.708,0.062,2.555,0.017
		c0.27,0.57,0.534,1.142,0.78,1.724c-0.909-0.231-1.882-0.278-2.811-0.23c-0.13,0.007-0.132,0.202,0,0.204
		c1,0.013,1.952,0.171,2.933,0.337c0.193,0.469,0.382,0.94,0.55,1.42c0.05,0.142,0.136,0.235,0.233,0.303
		c0.078,0.359,0.675,0.545,0.859,0.142c2.207-4.828,4.303-9.721,6.206-14.676c0.706,0.304,1.669,0.07,2.413,0.026
		c0.902-0.054,1.863-0.033,2.742-0.267C47.464,16.777,47.306,17.179,47.152,17.581z"/>
	<path style="fill:#1D1D1B;" d="M32.602,25.458c-1.178-0.239-2.409-0.162-3.584,0.055c-0.112,0.021-0.063,0.186,0.047,0.17
		c1.18-0.173,2.279-0.089,3.454,0.078C32.712,25.787,32.803,25.499,32.602,25.458z"/>
</g>
<g>
</g>
<g>
</g>
<g>
</g>
<g>
</g>
<g>
</g>
<g>
</g>
<g>
</g>
<g>
</g>
<g>
</g>
<g>
</g>
<g>
</g>
<g>
</g>
<g>
</g>
<g>
</g>
<g>
</g>
</svg>
