<?xml version="1.0" encoding="iso-8859-1"?>
<!-- Generator: Adobe Illustrator 18.0.0, SVG Export Plug-In . SVG Version: 6.00 Build 0)  -->
<!DOCTYPE svg PUBLIC "-//W3C//DTD SVG 1.1//EN" "http://www.w3.org/Graphics/SVG/1.1/DTD/svg11.dtd">
<svg version="1.1" id="Capa_1" xmlns="http://www.w3.org/2000/svg" xmlns:xlink="http://www.w3.org/1999/xlink" x="0px" y="0px"
	 viewBox="0 0 50.918 50.918" style="enable-background:new 0 0 50.918 50.918;" xml:space="preserve">
<g>
	<path style="fill:#1D1D1B;" d="M23.375,3.556c-0.202-0.208-0.609-0.121-0.672,0.178c-0.007,0.034-0.008,0.062-0.012,0.092
		c-0.084-0.147-0.227-0.257-0.427-0.25C18.4,3.716,14.619,3.66,10.756,3.45C9.029,3.356,5.478,2.488,4.054,3.697
		C3.905,3.824,3.87,4.108,3.98,4.27c0.012,0.019,0.025,0.037,0.038,0.056C3.968,4.388,3.927,4.462,3.915,4.56
		c-0.683,5.745-0.494,11.759,0.147,17.501c0.024,0.219,0.158,0.361,0.317,0.431c-0.049,0.229,0.082,0.494,0.401,0.528
		c5.931,0.639,12.149-0.485,18.017,0.586c0.486,0.089,0.795-0.348,0.763-0.718c0.068-0.086,0.119-0.191,0.121-0.33
		c0.063-4.106,0.132-8.212,0.189-12.319C23.893,8.58,24.646,4.861,23.375,3.556z M15.068,22.077
		c-3.33-0.033-6.696-0.205-10.018,0.063c0.003-0.027,0.014-0.049,0.014-0.079C5.025,16.248,5.055,10.365,4.738,4.56
		c-0.001-0.023-0.01-0.039-0.014-0.059c0.092-0.069,0.155-0.175,0.146-0.326C4.941,5.259,20.851,4.866,22.402,4.6
		c0.27-0.046,0.379-0.275,0.367-0.504c0.462,0.709-0.047,3.994-0.059,4.774c-0.021,1.369-0.034,2.738-0.051,4.106
		c-0.038,3.12-0.076,6.241-0.115,9.361C20.08,21.973,17.554,22.101,15.068,22.077z"/>
	<path style="fill:#1D1D1B;" d="M50.844,1.725c-0.009-0.403-0.332-0.592-0.641-0.574c-0.1-0.209-0.292-0.374-0.594-0.383
		C41.102,0.504,32.578,0.556,24.067,0.48c-3.84-0.034-7.704-0.202-11.54,0.016C8.608,0.72,4.808,0.456,0.924,0.603
		C0.52,0.618,0.325,1.107,0.505,1.39c-1.14,15.816,0.073,31.962-0.38,47.832c-0.019,0.663,0.788,0.801,1.146,0.426
		c0.056,0.021,0.112,0.044,0.18,0.05c15.846,1.295,31.963,0.842,47.833,0.235c0.677-0.026,0.871-0.765,0.601-1.198
		c0.918-7.665,0.714-15.552,0.834-23.259C50.842,17.561,51.021,9.64,50.844,1.725z M47.591,42.242
		c-0.013-1.261-0.044-2.525-0.084-3.79c0.532-0.026,1.056-0.134,1.551-0.35c-0.039,1.327-0.07,2.654-0.085,3.979
		C48.512,42.129,48.052,42.186,47.591,42.242z M48.972,42.171c-0.009,0.874-0.029,1.749-0.022,2.621
		c-0.45,0.035-0.899,0.077-1.348,0.118c0.012-0.86-0.003-1.725-0.011-2.588C48.052,42.274,48.513,42.226,48.972,42.171z
		 M49.062,37.937c-0.521,0.178-1.037,0.289-1.563,0.326c-0.035-1.092-0.081-2.183-0.125-3.275c0.004,0.002,0,0.008,0.005,0.009
		c0.59,0.111,1.191,0.084,1.74-0.173c0.056-0.026,0.016-0.119-0.042-0.1c-0.562,0.179-1.08,0.263-1.666,0.159
		c-0.021-0.004-0.027,0.015-0.04,0.026c-0.036-0.89-0.064-1.773-0.099-2.661c0.666-0.044,1.332-0.092,1.996-0.155
		C49.197,34.04,49.121,35.989,49.062,37.937z M49.273,31.957c-0.669,0.044-1.338,0.104-2.005,0.167
		c-0.035-0.888-0.067-1.775-0.099-2.66c0.723-0.138,1.45-0.245,2.189-0.304C49.328,30.093,49.308,31.023,49.273,31.957z
		 M28.598,28.358C34.2,29.28,40.468,28.982,46.13,28.76c-0.007,0.27-0.012,0.544-0.019,0.815c-0.004,0.001-0.009,0.002-0.013,0.003
		c-0.056,0.015-0.036,0.081,0.011,0.09c-0.13,5.415-0.135,11.074,0.62,16.409c-0.038-0.009-0.072-0.024-0.116-0.024
		c-5.837-0.097-12.181-0.673-17.977,0.02C29.13,40.317,28.801,34.141,28.598,28.358z M49.623,3.673
		c-4.738-0.315-9.509-0.299-14.252-0.131c-0.103,0.004-0.104,0.162,0,0.16c4.759-0.071,9.496,0.066,14.25,0.22
		c-0.009,0.97-0.02,1.94-0.027,2.91C44.121,5.902,38.59,5.803,33.069,6.358c-0.075,0.008-0.076,0.125,0,0.118
		c5.567-0.469,10.998-0.212,16.523,0.594c-0.004,0.63-0.014,1.26-0.018,1.89C43.247,8.289,36.856,8.377,30.52,8.89
		c-0.09,0.007-0.091,0.148,0,0.141c6.382-0.459,12.681-0.302,19.054,0.123c-0.008,1.534-0.015,3.068-0.02,4.602
		c-0.014-0.009-0.026-0.02-0.048-0.019c-7.452,0.106-14.899,0.368-22.353,0.387c-0.058,0-0.059,0.09,0,0.091
		c7.446,0.035,14.914,0.073,22.353-0.288c0.021-0.001,0.033-0.013,0.047-0.022c-0.006,1.725-0.01,3.45-0.022,5.175
		c-7.029-0.522-14.084-0.446-21.113,0.032c-0.054,0.004-0.054,0.087,0,0.084c7.055-0.378,14.063-0.27,21.111,0.114
		c-0.009,1.401-0.019,2.802-0.038,4.203c-7.362-0.406-14.766-0.328-22.13-0.039c-0.066,0.003-0.067,0.105,0,0.103
		c7.387-0.19,14.745-0.05,22.128,0.122c-0.008,0.592-0.01,1.184-0.021,1.776c-0.001,0.051-0.003,0.102-0.004,0.153
		c-9.834-0.755-19.668-0.526-29.478,0.441c-0.066,0.007-0.066,0.109,0,0.103c9.827-0.899,19.629-0.931,29.474-0.349
		c-0.021,1.061-0.063,2.127-0.097,3.191c-0.741,0.05-1.472,0.17-2.198,0.324c-0.011-0.316-0.026-0.634-0.035-0.948
		c0.135-0.336-0.035-0.795-0.517-0.82c-5.852-0.307-12.402-0.748-18.223,0.16c-0.223-0.118-0.56-0.006-0.593,0.331
		c-0.027,0.275-0.046,0.563-0.071,0.842c-1.809,0.075-3.607,0.141-5.421,0.075c-0.072-0.003-0.072,0.108,0,0.112
		c1.797,0.089,3.611,0.115,5.408-0.027c-0.063,0.711-0.129,1.418-0.181,2.145c-1.673,0.142-3.344,0.378-5.011,0.572
		c-0.08,0.009-0.081,0.135,0,0.126c1.665-0.183,3.343-0.328,5.003-0.563c-0.064,0.899-0.122,1.805-0.166,2.72
		c-2.952,0.13-5.889,0.213-8.848,0.198c-0.068,0-0.067,0.102,0,0.105c2.93,0.155,5.906,0.122,8.838-0.113
		c-0.039,0.86-0.071,1.722-0.087,2.587c-1.649,0.183-3.292,0.349-4.956,0.393c-0.069,0.002-0.069,0.109,0,0.108
		c1.654-0.031,3.315-0.121,4.955-0.355c-0.015,0.873-0.022,1.747-0.008,2.617c-1.373,0.143-2.743,0.325-4.113,0.495
		c-0.061,0.007-0.062,0.104,0,0.097c1.372-0.157,2.746-0.304,4.116-0.488c0.013,0.782,0.019,1.566,0.06,2.338
		c-1.183,0.137-2.368,0.278-3.547,0.45c-0.05,0.007-0.039,0.094,0.012,0.089c1.182-0.118,2.363-0.268,3.541-0.422
		c0.051,0.919,0.116,1.832,0.215,2.726c-1.739,0.205-3.464,0.261-5.225,0.097c-0.054-0.005-0.053,0.079,0,0.084
		c1.751,0.18,3.502,0.172,5.241-0.053c0.057,0.502,0.109,1.006,0.183,1.497c0.068,0.452,0.619,0.383,0.812,0.07
		c5.708,1.111,12.292,0.695,18.068,0.459c0.276-0.011,0.425-0.199,0.463-0.406c0.229,0.021,0.497-0.134,0.505-0.405
		c0.012-0.404,0.014-0.81,0.021-1.215c0.45-0.044,0.9-0.088,1.35-0.138c0.011,1.186,0.033,2.372,0.085,3.554
		c-15.886,0.616-31.7,0.112-47.584,0.073C1.586,33.04,2.771,17.055,1.27,1.658c7.082,1.247,14.615-0.012,21.815,0.113
		C31.922,1.924,40.77,2.212,49.609,2.17c0.011,0,0.018-0.005,0.028-0.006C49.63,2.667,49.628,3.17,49.623,3.673z"/>
	<path style="fill:#1D1D1B;" d="M48.659,47.788c-9.416-0.473-18.385-0.873-27.808,0.017c-0.06,0.006-0.062,0.099,0,0.095
		c9.422-0.603,18.409-0.138,27.808,0.036C48.754,47.938,48.753,47.793,48.659,47.788z"/>
	<path style="fill:#1D1D1B;" d="M49.312,21.387c-4.696-0.66-9.448-0.548-14.145,0.038c-0.081,0.01-0.083,0.138,0,0.129
		c4.74-0.549,9.381-0.444,14.121,0.009C49.388,21.572,49.412,21.401,49.312,21.387z"/>
	<path style="fill:#1D1D1B;" d="M48.87,16.653c-4.718-0.26-9.458,0.071-14.135,0.693c-0.072,0.01-0.075,0.125,0,0.116
		c4.716-0.54,9.394-0.633,14.135-0.577C49.02,16.887,49.018,16.661,48.87,16.653z"/>
	<path style="fill:#1D1D1B;" d="M49.293,10.983c-4.008,0.003-8.012,0.119-12.021,0.066c-0.085-0.001-0.085,0.131,0,0.133
		c4,0.08,8.024,0.16,12.021-0.038C49.396,11.139,49.397,10.983,49.293,10.983z"/>
</g>
<g>
</g>
<g>
</g>
<g>
</g>
<g>
</g>
<g>
</g>
<g>
</g>
<g>
</g>
<g>
</g>
<g>
</g>
<g>
</g>
<g>
</g>
<g>
</g>
<g>
</g>
<g>
</g>
<g>
</g>
</svg>
