<?xml version="1.0" encoding="iso-8859-1"?>
<!-- Generator: Adobe Illustrator 18.0.0, SVG Export Plug-In . SVG Version: 6.00 Build 0)  -->
<!DOCTYPE svg PUBLIC "-//W3C//DTD SVG 1.1//EN" "http://www.w3.org/Graphics/SVG/1.1/DTD/svg11.dtd">
<svg version="1.1" id="Capa_1" xmlns="http://www.w3.org/2000/svg" xmlns:xlink="http://www.w3.org/1999/xlink" x="0px" y="0px"
	 viewBox="0 0 48.896 48.896" style="enable-background:new 0 0 48.896 48.896;" xml:space="preserve">
<g>
	<path style="fill:#1D1D1B;" d="M22.936,15.604c-0.116,0.037-0.178,0.165-0.174,0.281c-2.122,1.012-4.065,3.545-4.615,5.654
		c-0.557,2.136,0.807,4.038,3.108,3.762c2.55-0.306,5.068-3.171,5.429-5.631C27.002,17.509,25.393,14.813,22.936,15.604z
		 M25.483,19.832c-0.937-0.476-2.039-0.617-3.076-0.541c-0.076,0.006-0.078,0.124,0,0.12c1.089-0.058,2.035,0.185,3.036,0.558
		c-0.108,0.403-0.263,0.806-0.501,1.195c-0.924-0.024-1.831-0.149-2.726-0.416c-0.094-0.028-0.133,0.117-0.04,0.146
		c0.879,0.276,1.767,0.426,2.674,0.437c-0.002,0.003-0.004,0.007-0.006,0.011c-0.244,0.363-0.578,0.776-0.961,1.174
		c-1.127,0.01-2.237-0.058-3.362-0.252c-0.087-0.015-0.126,0.115-0.037,0.134c1.059,0.226,2.138,0.335,3.217,0.3
		c-0.952,0.933-2.187,1.714-3.334,1.399c-2.347-0.645-0.961-3.468-0.093-4.695c0.913-1.29,2.151-2.098,3.256-3.153
		c1.107,0.333,1.746,1.097,1.962,2.017c-0.73-0.193-1.486-0.269-2.242-0.251c-0.077,0.002-0.077,0.12,0,0.12
		c0.786,0,1.532,0.125,2.278,0.329C25.6,18.9,25.591,19.362,25.483,19.832z"/>
	<path style="fill:#1D1D1B;" d="M32.235,8.515c-0.105-0.035-0.208,0.026-0.261,0.114c-7.822-2.443-15.112,2.192-19.276,8.832
		c-3.604,5.748-6.721,15.202,2.032,17.97C26.622,39.19,46.296,13.163,32.235,8.515z M16.963,34.474
		c-9.68-1.132-6.674-12.321-2.685-17.896c4.233-5.917,11.206-9.299,18.287-6.631c0.202,0.076,0.361,0.021,0.475-0.089
		C41.015,18.309,27.037,35.653,16.963,34.474z"/>
	<path style="fill:#1D1D1B;" d="M47.982,12.203c0.052-0.045,0.043-0.131-0.026-0.153c-0.125-0.751-0.286-1.497-0.52-2.226
		C45.359,3.35,38.932-0.408,32.322,0.035c-0.17,0.011-0.285,0.101-0.356,0.216C13.795,1.964-8.384,25.937,4.586,43.178
		c-0.107,0.092-0.149,0.254-0.018,0.394c11.703,12.494,30.193,0.575,37.516-10.91C45.718,26.966,49.081,19.212,47.982,12.203z
		 M47.138,15.65c-2.335-0.137-4.682-0.147-7.02-0.2c-0.077-0.002-0.077,0.117,0,0.12c2.336,0.081,4.678,0.205,7.016,0.202
		c-0.034,0.772-0.094,1.548-0.208,2.328c-2.278,0.156-4.528,0.15-6.804-0.122c-0.086-0.01-0.085,0.125,0,0.135
		c2.254,0.279,4.521,0.344,6.78,0.132c-0.267,1.757-0.72,3.521-1.315,5.253c-0.003,0-0.005-0.002-0.007-0.002
		c-2.166,0.298-4.119,0.405-6.279-0.033c-0.111-0.023-0.159,0.145-0.047,0.171c2.025,0.477,4.236,0.606,6.264,0.068
		c-0.437,1.247-0.936,2.477-1.499,3.671c-2.285,0.032-4.562,0.121-6.852,0.094c-0.101-0.001-0.099,0.15,0,0.156
		c2.218,0.143,4.514,0.182,6.74-0.023c-0.537,1.122-1.113,2.218-1.73,3.262c-2.22-0.098-4.48-0.077-6.697,0.012
		c-0.085,0.003-0.086,0.129,0,0.133c2.186,0.088,4.413,0.107,6.603,0.014c-0.514,0.861-1.046,1.694-1.595,2.484
		c-0.12,0.173-0.258,0.342-0.384,0.514c-1.639,0.052-3.209-0.004-4.821-0.384c-0.101-0.024-0.145,0.131-0.043,0.157
		c1.542,0.384,3.151,0.566,4.737,0.398c-0.528,0.707-1.089,1.407-1.699,2.091c-0.011-0.018-0.018-0.04-0.042-0.038
		c-1.65,0.115-3.224,0.171-4.871-0.046c-0.068-0.009-0.084,0.108-0.016,0.12c1.582,0.278,3.255,0.364,4.84,0.063
		c-1.847,2.055-4.028,3.985-6.356,5.679c-2.64-0.167-5.302-0.2-7.947-0.238c-0.072-0.001-0.071,0.108,0,0.112
		c2.582,0.124,5.179,0.25,7.765,0.254c-0.944,0.68-1.907,1.329-2.882,1.923c-3.949-0.062-7.891-0.029-11.839-0.199
		c-0.071-0.003-0.07,0.106,0,0.11c3.857,0.203,7.746,0.367,11.609,0.225c-1.447,0.869-2.91,1.639-4.348,2.277
		c-6.132,2.724-12.529,1.458-17.785-2.255C-6.077,25.216,12.904,4.542,31.991,0.815c0.073,0.082,0.182,0.135,0.331,0.127
		c3.701-0.187,7.087,0.948,9.687,3.017c-2.366-0.406-4.76-0.551-7.163-0.503c-0.089,0.002-0.09,0.14,0,0.139
		c2.491-0.017,4.937,0.214,7.396,0.572c0.762,0.635,1.463,1.341,2.069,2.131c-2.296-0.372-4.61-0.65-6.914-0.961
		c-0.075-0.01-0.109,0.105-0.032,0.116c2.35,0.344,4.701,0.725,7.061,1.002c0.523,0.702,0.986,1.453,1.369,2.259
		c-2.033-0.035-4.068-0.004-6.1,0.016c-0.092,0.001-0.092,0.142,0,0.143c2.058,0.021,4.12,0.053,6.178,0.016
		c0.453,0.989,0.806,2.042,1.021,3.161c-2.335,0.03-4.646,0.021-6.983-0.205c-0.095-0.009-0.093,0.137,0,0.148
		c2.319,0.26,4.681,0.402,7.02,0.286c0.141,0.806,0.233,1.634,0.238,2.495C47.17,15.065,47.149,15.358,47.138,15.65z"/>
	<path style="fill:#1D1D1B;" d="M25.148,45.853c-3.521-0.074-7.026-0.144-10.536-0.463c-0.057-0.005-0.056,0.083,0,0.089
		c3.496,0.37,7.019,0.626,10.536,0.513C25.237,45.989,25.238,45.855,25.148,45.853z"/>
	<path style="fill:#1D1D1B;" d="M35.046,38.911c-1.951,0.565-3.794,0.293-5.773,0.117c-0.079-0.007-0.098,0.126-0.019,0.139
		c1.918,0.298,3.971,0.593,5.834-0.103C35.181,39.029,35.145,38.882,35.046,38.911z"/>
	<path style="fill:#1D1D1B;" d="M46.447,20.021c-2.111-0.005-4.21,0.046-6.322-0.026c-0.075-0.003-0.074,0.11,0,0.116
		c2.087,0.161,4.232,0.257,6.322,0.108C46.573,20.21,46.576,20.021,46.447,20.021z"/>
</g>
<g>
</g>
<g>
</g>
<g>
</g>
<g>
</g>
<g>
</g>
<g>
</g>
<g>
</g>
<g>
</g>
<g>
</g>
<g>
</g>
<g>
</g>
<g>
</g>
<g>
</g>
<g>
</g>
<g>
</g>
</svg>
