<?xml version="1.0" encoding="iso-8859-1"?>
<!-- Generator: Adobe Illustrator 18.0.0, SVG Export Plug-In . SVG Version: 6.00 Build 0)  -->
<!DOCTYPE svg PUBLIC "-//W3C//DTD SVG 1.1//EN" "http://www.w3.org/Graphics/SVG/1.1/DTD/svg11.dtd">
<svg version="1.1" id="Capa_1" xmlns="http://www.w3.org/2000/svg" xmlns:xlink="http://www.w3.org/1999/xlink" x="0px" y="0px"
	 viewBox="0 0 48.352 48.352" style="enable-background:new 0 0 48.352 48.352;" xml:space="preserve">
<g>
	<path style="fill:#1D1D1B;" d="M48.137,17.742c-0.042-2.204-0.083-4.408-0.125-6.612c-0.008-0.447-0.365-0.797-0.81-0.81
		c-2.316-0.065-4.635-0.06-6.929,0.29c-0.054,0.008-0.091,0.033-0.136,0.051c-0.046-2.775-0.072-5.55-0.097-8.325
		c-0.003-0.376-0.311-0.676-0.684-0.684C34.391,1.54,29.171,1.098,24.24,1.783c-0.944,0.131-0.542,1.564,0.395,1.434
		c4.574-0.635,9.409-0.197,14.042-0.199c0.008,0.642,0.011,1.285,0.017,1.927c-2.874,0.147-5.75,0.492-8.616,0.751
		c-0.164,0.015-0.169,0.271,0,0.26c2.868-0.183,5.76-0.283,8.619-0.578c0.014,1.473,0.03,2.947,0.039,4.42
		c-2.416,0.354-4.813,0.668-7.257,0.79c-0.195,0.01-0.198,0.312,0,0.306c2.425-0.073,4.866-0.252,7.261-0.662
		c0.003,0.569,0.014,1.139,0.015,1.708c0.002,0.738,0.124,1.585,0.101,2.382c-1.838-0.02-3.682,0.216-5.501,0.463
		c-0.551,0.075-1.101,0.157-1.649,0.244c-0.472,0.074-2.853,0.79-3.321,0.659c0.063-0.017,0.107-0.107,0.047-0.16
		c-0.027-0.024-0.054-0.048-0.081-0.073c-0.041-0.036-0.105-0.042-0.145,0c-0.035,0.036-0.07,0.073-0.104,0.11
		c-0.041,0.043-0.051,0.127,0,0.169c0.686,0.561,2.559-0.202,3.296-0.312c2.474-0.367,4.975-0.51,7.446-0.875
		c-0.063,0.935-0.364,1.778-1.357,2.258c-1.11,0.537-3.737,0.123-4.989,0.165c-1.285,0.043-3.803,0.617-4.989,0.17
		c-2.409-0.909-1.956-3.318-2.122-5.284c-0.236-2.792-0.53-5.58-0.939-8.354c-0.068-0.461-0.796-0.337-0.798,0.108
		c-0.01,2.286,0.065,4.574,0.183,6.858c-0.064-0.026-0.131-0.048-0.206-0.051c-1.277-0.052-2.573,0.127-3.846,0.223
		c-0.963,0.073-1.965,0.084-2.858,0.46c-0.194-0.451-0.407-0.882-0.639-1.291c-0.007-0.048-0.029-0.083-0.067-0.112
		c-1.513-2.606-3.848-4.244-7.437-3.725c-3.853,0.556-6.577,3.801-7.693,7.344c-1.233,3.914-1.859,10.238,0.576,13.819
		c-0.002,0.001-0.004,0.001-0.006,0.002c-0.185,0.091-0.157,0.357,0,0.455c0.792,0.495,1.84,0.409,2.75,0.482
		c1.033,0.083,2.178,0.341,3.186,0.055c0.04-0.011,0.053-0.042,0.086-0.059C7.37,31.547,7.538,35.129,7.69,38.605
		c0.005,0.114,0.037,0.209,0.083,0.292c-1.398-0.519-3.069-0.099-4.001,1.149c-0.928,1.243-0.978,3.482,0.565,4.27
		c0.162,0.083,0.34,0.054,0.476-0.034c1.167,0.867,2.805,1.178,4.189,1.395c2.017,0.316,4.753,0.585,6.463-0.826
		c1.135-0.937,1.594-2.563,1.005-3.93c-0.712-1.651-2.304-2.147-3.936-2.097c0.119-3.597-0.107-7.194-0.074-10.791
		c0.9,0.156,1.843,0.101,2.75,0.078c1.082-0.028,2.177,0.006,3.244-0.184c0.509-0.09,0.513-0.635,0.24-0.942
		c0.069-0.105,0.122-0.226,0.129-0.381c0.031-0.712,0.055-1.554,0.061-2.476c2.602-0.101,1.35,8.934,1.345,10.477
		c-0.012,3.778,0.101,7.55,0.293,11.324c0.019,0.383,0.308,0.704,0.707,0.707c3.716,0.022,7.433,0.033,11.149,0.049
		c0.276,0.345,0.838,0.349,1.105,0.005c2.91,0.012,5.82,0.028,8.73,0.038c0.392,0.001,0.757-0.342,0.743-0.743
		c-0.25-7.217-0.536-14.434-0.731-21.653c1.83-0.043,5.442,0.239,5.954-1.645C48.578,21.225,48.165,19.254,48.137,17.742z
		 M8.917,22.75c2.839-0.044,5.697,0.016,8.533-0.122c-0.004,0.738-0.021,1.446-0.045,2.105c-4.168-0.034-8.338,0.189-12.511,0.103
		c-0.134-0.003-0.133,0.202,0,0.207c4.13,0.177,8.362,0.383,12.496,0.055c-0.022,0.54-0.048,1.048-0.074,1.505
		c-0.003,0.055,0.015,0.095,0.021,0.144c-0.789,0.011-1.587,0.095-2.364,0.147c-0.891,0.059-1.826,0.086-2.687,0.339
		c-0.275-0.207-0.785-0.084-0.807,0.372c-0.025,0.513-0.04,1.024-0.062,1.537c-0.542-0.01-1.087,0.008-1.626,0.015
		c-0.174,0.002-0.174,0.268,0,0.271c0.535,0.007,1.076,0.024,1.613,0.015c-0.032,0.754-0.071,1.508-0.092,2.262
		c-0.627,0.083-1.224,0.173-1.87,0.11c-0.096-0.009-0.119,0.156-0.023,0.169c0.609,0.086,1.279,0.117,1.888-0.035
		c-0.027,1.111-0.036,2.221-0.003,3.33c-0.58,0.086-1.155,0.214-1.729,0.332c-0.165,0.034-0.094,0.28,0.069,0.251
		c0.557-0.099,1.121-0.189,1.673-0.316c0.023,0.644,0.047,1.289,0.101,1.932c-0.718,0.059-1.417,0.128-2.152,0.061
		c-0.17-0.015-0.166,0.246,0,0.264c0.706,0.077,1.468,0.109,2.183-0.018c0.036,0.386,0.073,0.772,0.123,1.157
		c0.057,0.449,0.559,0.582,0.813,0.349c1.157-0.007,2.09,0.468,2.799,1.427c-2.196-0.318-4.606-0.023-6.795,0.157
		c-0.15,0.012-0.152,0.247,0,0.236c2.309-0.174,4.658,0.042,6.95-0.164c0.064,0.098,0.129,0.192,0.188,0.299
		c0.093,0.42,0.101,0.803,0.041,1.157c-0.004,0-0.006-0.004-0.01-0.004c-3.148,0.205-6.289,0.45-9.44,0.615
		c-0.15,0.008-0.153,0.239,0,0.236c3.127-0.073,6.28-0.221,9.391-0.558c-0.223,0.732-0.809,1.305-1.763,1.717
		c-0.806,0.319-1.946,0.258-2.785,0.229c-2.056-0.071-4.711-0.281-6.365-1.666c-0.277-0.733-0.294-1.525,0.242-2.209
		c0.763-0.974,2.278-1.023,3.4-0.827c0.407,0.071,0.628-0.423,0.28-0.665c-0.036-0.025-0.076-0.039-0.112-0.062
		c0.29-0.026,0.559-0.222,0.56-0.605c0.012-3.675,0.042-7.464-0.479-11.107c-0.051-0.359-0.446-0.346-0.653-0.143
		c-0.06-0.081-0.138-0.151-0.242-0.191c-0.969-0.38-2.156-0.228-3.186-0.248c-0.663-0.013-1.364-0.102-2.02,0.003
		C1.156,20.684,0.372,7.657,9.524,7.453c2.06-0.046,3.587,0.718,4.728,1.966c-2.062-0.202-4.167-0.241-6.21-0.16
		c-0.167,0.007-0.167,0.253,0,0.26c2.231,0.102,4.445,0.274,6.666,0.443c0.33,0.44,0.628,0.917,0.886,1.44
		c-2.268-0.094-4.584,0.07-6.852,0.073c-0.184,0-0.183,0.278,0,0.285c2.302,0.08,4.719,0.233,7.022,0.014
		c0.321,0.714,0.587,1.484,0.801,2.296c-0.033-0.028-0.071-0.053-0.128-0.054c-2.051-0.04-4.113,0.099-6.164,0.171
		c-1.133,0.04-3.135-0.3-4.125,0.279c-0.075,0.044-0.101,0.165-0.029,0.226c0.023,0.019,0.046,0.039,0.068,0.058
		c0.055,0.047,0.146,0.061,0.2,0c0.014-0.016,0.029-0.033,0.043-0.049c0.073-0.084,0.024-0.181-0.052-0.218
		c0.477-0.015,2.006,0.141,2.354,0.136c0.899-0.014,1.798-0.031,2.697-0.047c1.667-0.029,3.345-0.012,5.008-0.132
		c0.11-0.008,0.164-0.082,0.185-0.163c0.223,0.888,0.39,1.817,0.513,2.76c-1.27-0.075-2.601,0.091-3.845,0.241
		c-0.167,0.02-0.173,0.283,0,0.267c1.296-0.12,2.598-0.074,3.892-0.145c0.081,0.684,0.142,1.372,0.183,2.055
		c-3.75,0.013-7.498,0.071-11.25,0.017c-0.148-0.002-0.146,0.222,0,0.229c3.75,0.166,7.52,0.275,11.276,0.182
		c0.041,0.821,0.059,1.63,0.059,2.408c-2.841-0.03-5.695,0.139-8.534,0.204C8.752,22.497,8.751,22.752,8.917,22.75z M45.898,22.336
		c-1.039,0.427-3.256,0.007-3.617,1.256c0.112-0.387-0.368-0.823-0.728-0.56c-0.025,0.018-0.049,0.036-0.074,0.054
		c-0.363-0.004-0.722,0.225-0.704,0.691c0.01,0.25,0.016,0.501,0.025,0.751c-2.019-0.381-4.147-0.411-6.179-0.206
		c-0.179,0.018-0.187,0.291,0,0.285c2.101-0.073,4.116,0.092,6.193,0.337c0.022,0.671,0.045,1.343,0.066,2.014
		c-1.249-0.126-2.521-0.123-3.772-0.137c-0.724-0.008-2.099-0.341-2.679,0.17c-0.056,0.049-0.061,0.141-0.026,0.203
		c0.02,0.036,0.04,0.073,0.061,0.109c0.032,0.058,0.117,0.099,0.182,0.074c0.03-0.011,0.061-0.023,0.092-0.035
		c0.072-0.027,0.096-0.087,0.098-0.147c0.132,0.07,0.292,0.075,0.483,0.002c0.341,0.005,0.682,0.013,1.022,0.021
		c0.511,0.013,1.023,0.029,1.534,0.048c1.005,0.036,2.013,0.109,3.019,0.117c0.018,0.575,0.039,1.149,0.057,1.723
		c-2.046-0.113-4.113-0.008-6.15,0.179c-0.162,0.015-0.167,0.265,0,0.257c2.06-0.106,4.104-0.07,6.164-0.035
		c0.018,0.593,0.04,1.185,0.058,1.778c-0.024-0.022-0.053-0.042-0.096-0.044c-1.969-0.131-3.974-0.014-5.947-0.002
		c-0.199,0.001-0.199,0.308,0,0.309c1.973,0.012,3.978,0.129,5.947-0.002c0.046-0.003,0.078-0.023,0.103-0.048
		c0.032,1.054,0.072,2.107,0.104,3.161c-1.519,0.004-3.061,0.22-4.579,0.281c-0.162,0.006-0.164,0.255,0,0.253
		c1.503-0.019,3.092,0.023,4.589-0.209c0.028,0.965,0.058,1.931,0.086,2.896c-1.899-0.11-3.864,0.089-5.735,0.389
		c-0.146,0.023-0.113,0.275,0.035,0.26c1.907-0.193,3.8-0.231,5.709-0.327c0.013,0.435,0.026,0.87,0.039,1.305
		c0.005,0.174,0.018,0.325,0.027,0.491c-1.634-0.03-3.298,0.119-4.925,0.217c-0.116,0.007-0.119,0.184,0,0.183
		c1.634-0.022,3.308,0.005,4.939-0.146c0.036,0.601,0.08,1.17,0.105,1.669c-1.741,0.107-3.466,0.336-5.219,0.349
		c-0.19,0.001-0.19,0.292,0,0.295c1.715,0.025,3.526,0.03,5.234-0.275c0.038,1.646-0.335,2.655-2.719,2.943
		c-1.626,0.196-3.369,0.135-5.081,0.066c0.039-4.498-0.074-9.058-0.493-13.528c-0.055-0.59-0.892-0.604-0.928,0
		c-0.266,4.461-0.225,9-0.035,13.474c-0.449-0.014-0.895-0.026-1.332-0.026c-2.118-0.003-4.948,0.505-6.995,0
		c-2.859-0.704-2.116-3.67-2.159-6.258c-0.088-5.232,0.151-10.449,0.281-15.678c0.008-0.316-0.303-0.688-0.645-0.645
		c-1.584,0.202-1.281,0.097-2.447,0.541c-0.031-3.507-0.374-7.94-1.701-11.443c0.992,0.253,2.099,0.137,3.111,0.116
		c1.171-0.025,2.345-0.002,3.506-0.161c0.033-0.004,0.054-0.021,0.083-0.029c0.054,1.715-0.106,3.908,0.417,5.484
		c0.966,2.91,5.852,1.453,8.199,1.37c2.027-0.072,7.086,0.975,7.741-1.573c0.367-1.427,0.112-3.309-0.027-4.953
		c0.077,0.03,0.16,0.05,0.254,0.048c1.987-0.037,3.952-0.138,5.936-0.11c0.01,0.796,0.02,1.592,0.03,2.389
		c-1.209-0.089-2.552,0.193-3.662,0.511c-0.208,0.059-0.121,0.368,0.089,0.322c0.731-0.16,1.457-0.302,2.204-0.366
		c0.457-0.039,0.917-0.041,1.374-0.06c0.009,0.679,0.017,1.358,0.025,2.037c-1.43,0.006-2.91,0.245-4.318,0.392
		c-0.229,0.024-0.238,0.38,0,0.366c1.411-0.088,2.909-0.099,4.323-0.325c0.008,0.667,0.015,1.333,0.025,2
		c-2.894-0.07-5.847,0.227-8.72,0.443c-0.176,0.013-0.18,0.286,0,0.278c2.895-0.14,5.832-0.091,8.725-0.304c0,0.007,0,0.014,0,0.02
		c0.009,0.605,0.112,1.29,0.033,1.889C46.409,22.44,46.935,21.91,45.898,22.336z"/>
	<path style="fill:#1D1D1B;" d="M41.111,43.542c-0.993,0.122-1.961,0.416-2.948,0.589c-1.122,0.196-2.255,0.297-3.381,0.461
		c-0.092,0.013-0.067,0.158,0.022,0.159c2,0.031,4.477-0.216,6.344-0.946C41.273,43.755,41.273,43.522,41.111,43.542z"/>
	<path style="fill:#1D1D1B;" d="M45.832,20.949c-3.976,0.326-7.953,0.835-11.912,1.323c-0.14,0.017-0.147,0.237,0,0.225
		c3.969-0.322,7.959-0.628,11.912-1.112C46.104,21.352,46.116,20.926,45.832,20.949z"/>
	<path style="fill:#1D1D1B;" d="M46.226,12.811c-1.072-0.294-2.281-0.225-3.376-0.125c-0.229,0.021-0.235,0.377,0,0.362
		c1.126-0.071,2.21,0.084,3.329,0.112C46.381,13.165,46.419,12.864,46.226,12.811z"/>
	<path style="fill:#1D1D1B;" d="M38.308,12.409c-2.625,0.079-5.25,0.491-7.877,0.623c-0.211,0.011-0.214,0.338,0,0.331
		c2.612-0.094,5.352-0.124,7.916-0.671C38.505,12.658,38.47,12.404,38.308,12.409z"/>
	<path style="fill:#1D1D1B;" d="M38.306,7.292c-3.565,0.303-7.098,0.833-10.674,1.057c-0.173,0.011-0.175,0.279,0,0.271
		c3.56-0.16,7.214-0.32,10.72-0.99C38.541,7.595,38.501,7.276,38.306,7.292z"/>
</g>
<g>
</g>
<g>
</g>
<g>
</g>
<g>
</g>
<g>
</g>
<g>
</g>
<g>
</g>
<g>
</g>
<g>
</g>
<g>
</g>
<g>
</g>
<g>
</g>
<g>
</g>
<g>
</g>
<g>
</g>
</svg>
