<?xml version="1.0" encoding="iso-8859-1"?>
<!-- Generator: Adobe Illustrator 18.0.0, SVG Export Plug-In . SVG Version: 6.00 Build 0)  -->
<!DOCTYPE svg PUBLIC "-//W3C//DTD SVG 1.1//EN" "http://www.w3.org/Graphics/SVG/1.1/DTD/svg11.dtd">
<svg version="1.1" id="Capa_1" xmlns="http://www.w3.org/2000/svg" xmlns:xlink="http://www.w3.org/1999/xlink" x="0px" y="0px"
	 viewBox="0 0 49.538 49.538" style="enable-background:new 0 0 49.538 49.538;" xml:space="preserve">
<g>
	<path style="fill:#1D1D1B;" d="M37.76,24.928c0.212-7.972,0.523-15.989,0.202-23.96c-0.02-0.506-0.479-0.704-0.85-0.606
		c-0.139-0.24-0.4-0.414-0.746-0.348c-3.463,0.658-6.883,1.41-10.272,2.378c-0.07,0.02-0.124,0.06-0.169,0.107
		c-0.12-0.227-0.486-0.328-0.618-0.046c-0.446,0.952-0.38,2.065-0.379,3.103c0.001,0.976,0.057,1.952,0.173,2.921
		c-1.983,0.565-3.98,1.042-6.005,1.431c-1.475,0.283-3.12,0.322-4.553,0.819c-0.025-0.002-0.046-0.019-0.073-0.014
		c-0.514,0.093-1.056,0.15-1.554,0.307c-0.198,0.063-0.293,0.213-0.316,0.374c-0.091,0.006-0.174,0.047-0.191,0.168
		c-1.679,12.154-0.718,25.162-0.498,37.408c0.01,0.564,0.666,0.708,0.996,0.434c7.127,0.396,16.333-0.021,23.069-2.379
		c0.592-0.207,0.349-1.022-0.255-0.925c-7.451,1.186-15.245,1.244-22.63,2.694c-0.273-12.201,0.776-24.719-0.166-36.863
		c0.072,0.017,0.151,0.022,0.241-0.007c0.335-0.107,0.657-0.259,0.976-0.415c1.566,0.334,3.302-0.1,4.864-0.362
		c2.198-0.368,4.361-0.901,6.503-1.514c0.302-0.087,0.426-0.327,0.424-0.571c0.011-0.03,0.024-0.06,0.028-0.094
		c0.108-1.132,0.123-2.276,0.151-3.413c0.019-0.759,0.109-1.57,0.001-2.331c0.031,0.003,0.059,0.012,0.094,0.007
		c3.514-0.454,6.972-1.109,10.432-1.875c-0.026,1.228-0.026,2.456-0.032,3.684c-2.37,0.222-4.712,0.584-7.095,0.728
		c-0.17,0.01-0.173,0.272,0,0.267c2.34-0.058,4.79-0.174,7.092-0.66c-0.003,0.623-0.016,1.247-0.016,1.87
		c-2.161-0.126-4.446,0.023-6.584,0.333c-0.075,0.011-0.056,0.133,0.018,0.131c2.184-0.048,4.384-0.063,6.566-0.147
		c0,0.557-0.003,1.115-0.001,1.672c-3.436-0.128-6.978,0.14-10.399,0.342c-0.141,0.008-0.144,0.22,0,0.221
		c3.426,0.025,6.977,0.109,10.401-0.195c0.005,1.397,0.009,2.793,0.02,4.19c-4.756,0.039-9.515,0.191-14.269,0.323
		c-0.131,0.004-0.132,0.204,0,0.204c4.756-0.021,9.517-0.021,14.272-0.134c0.008,0.977,0.016,1.954,0.023,2.931
		c-1.113,0.336-3.765,0.043-4.454,0.046c-1.531,0.008-3.061-0.019-4.591-0.045c-0.146-0.002-0.144,0.217,0,0.225
		c1.784,0.094,3.57,0.144,5.357,0.161c1.138,0.011,2.533,0.219,3.691-0.004c0.013,1.858,0.021,3.715,0.014,5.572
		c-2.525-0.212-5.131-0.022-7.665-0.007c-0.185,0.001-0.186,0.287,0,0.288c2.533,0.015,5.14,0.204,7.664-0.007
		c-0.002,0.527,0.003,1.055-0.001,1.582c-0.002,0.246-0.019,0.502-0.025,0.75c-1.416-0.138-2.893-0.011-4.315,0.003
		c-0.195,0.002-0.195,0.3,0,0.302c1.418,0.014,2.892,0.14,4.305,0.004c-0.016,0.576-0.026,1.147-0.057,1.733
		c-3.11-0.1-6.252,0.088-9.367,0.096c0.107-3.707,0.064-7.399-0.39-10.925c-0.027-0.21-0.373-0.315-0.414-0.056
		c-0.02,0.128-0.031,0.26-0.05,0.388c-0.15-0.137-0.37-0.198-0.591-0.076c-0.55,0.303-1.044,0.793-1.516,1.265
		c-0.082-0.308-0.529-0.29-0.564,0.059c-0.019,0.185-0.029,0.374-0.046,0.559c-0.042,0.077-0.047,0.161-0.02,0.238
		c-0.686,7.556-0.346,15.469-0.17,23.037c0.009,0.397,0.467,0.497,0.696,0.298c0.03-0.005,0.056,0.004,0.087-0.011
		c0.496-0.242,0.959-0.665,1.353-1.047c0.375-0.365,0.892-0.786,1.042-1.299c0.024-0.082,0.016-0.165-0.012-0.241
		c0.165-3.876,0.466-7.936,0.59-11.982c3.092,0.103,6.265,0.263,9.351,0.02c-0.047,0.849-0.102,1.704-0.165,2.568
		c-0.014-0.006-0.023-0.018-0.041-0.019c-1.783-0.164-3.632-0.015-5.422,0.002c-0.176,0.002-0.177,0.273,0,0.274
		c1.79,0.016,3.64,0.165,5.422,0.002c0.01-0.001,0.014-0.009,0.023-0.011c-0.056,0.768-0.115,1.539-0.173,2.314
		c-2.798-0.16-5.64-0.064-8.427,0.153c-0.125,0.01-0.128,0.2,0,0.197c2.807-0.073,5.596-0.01,8.399,0.033
		c-0.037,0.497-0.075,0.993-0.109,1.491c-2.241-0.001-4.457,0.097-6.707-0.093c-0.161-0.014-0.157,0.233,0,0.25
		c2.182,0.232,4.478,0.404,6.687,0.189c-0.05,0.763-0.102,1.526-0.134,2.286c-1.195,0.074-2.374,0.163-3.581,0.108
		c-0.132-0.006-0.13,0.194,0,0.204c1.172,0.088,2.387,0.129,3.566-0.002c-0.025,0.652-0.042,1.302-0.046,1.948
		c-2.163,0.154-4.316,0.431-6.495,0.47c-0.165,0.003-0.165,0.254,0,0.257c2.11,0.035,4.371,0.048,6.502-0.29
		c0.002,1.457,0.057,2.899,0.222,4.304c-6.004,0.224-12.102,1.373-18.104,1.085c-0.105-0.005-0.103,0.154,0,0.162
		c5.895,0.446,12.262-0.349,18.141-0.955c0.087,0.682,0.19,1.359,0.33,2.022c0.022,0.106,0.175,0.095,0.203,0
		C38.66,40.235,37.574,31.937,37.76,24.928z M25.632,40.116c-0.225,0.272-0.41,0.589-0.642,0.851
		c-0.231,0.261-0.483,0.503-0.731,0.747c0.034-7.414,0.416-14.993,0.038-22.389c0.65-0.375,1.38-0.747,1.931-1.245
		C25.287,25.238,25.832,32.94,25.632,40.116z"/>
	<path style="fill:#1D1D1B;" d="M34.933,42.986c-2.27,0.011-4.556,0.251-6.821,0.401c-0.128,0.008-0.13,0.206,0,0.2
		c2.267-0.092,4.564-0.097,6.821-0.327C35.105,43.243,35.113,42.985,34.933,42.986z"/>
	<path style="fill:#1D1D1B;" d="M36.33,20.262c-1.407,0.073-2.775,0.364-4.195,0.37c-0.172,0.001-0.172,0.264,0,0.267
		c1.363,0.025,2.92,0.049,4.23-0.379C36.501,20.477,36.486,20.254,36.33,20.262z"/>
	<path style="fill:#1D1D1B;" d="M36.155,11.115c-4.892,0.097-9.807,0.635-14.687,0.996c-0.143,0.011-0.146,0.233,0,0.225
		c4.883-0.278,9.825-0.385,14.687-0.925C36.339,11.39,36.35,11.111,36.155,11.115z"/>
	<path style="fill:#1D1D1B;" d="M36.163,2.969c-2.335,0.116-4.661,0.202-7,0.159c-0.161-0.003-0.16,0.242,0,0.25
		c2.33,0.105,4.671,0.141,7,0.01C36.431,3.372,36.433,2.955,36.163,2.969z"/>
</g>
<g>
</g>
<g>
</g>
<g>
</g>
<g>
</g>
<g>
</g>
<g>
</g>
<g>
</g>
<g>
</g>
<g>
</g>
<g>
</g>
<g>
</g>
<g>
</g>
<g>
</g>
<g>
</g>
<g>
</g>
</svg>
