<?xml version="1.0" encoding="iso-8859-1"?>
<!-- Generator: Adobe Illustrator 18.0.0, SVG Export Plug-In . SVG Version: 6.00 Build 0)  -->
<!DOCTYPE svg PUBLIC "-//W3C//DTD SVG 1.1//EN" "http://www.w3.org/Graphics/SVG/1.1/DTD/svg11.dtd">
<svg version="1.1" id="Capa_1" xmlns="http://www.w3.org/2000/svg" xmlns:xlink="http://www.w3.org/1999/xlink" x="0px" y="0px"
	 viewBox="0 0 50.893 50.893" style="enable-background:new 0 0 50.893 50.893;" xml:space="preserve">
<g>
	<path style="fill:#1D1D1B;" d="M47.305,35.055c-0.594-0.274-1.216-0.235-1.861-0.214c-0.66,0.022-1.336,0.068-1.977,0.232
		c-0.028,0.007-0.035,0.028-0.057,0.04c-0.16-0.052-0.337-0.012-0.445,0.194c-0.975,1.862-1.744,3.774-2.942,5.519
		c-1.139,1.659-2.52,3.154-3.921,4.601c-0.017-0.005-0.032-0.014-0.051-0.016c-2.795-0.363-5.714-0.1-8.532-0.129
		c-2.299-0.023-6.722,0.606-8.595-0.906c-1.098-5.306-0.176-11.482,0.105-16.852c2.046,0.455,4.214,0.409,6.297,0.592
		c1.587,0.139,3.5,0.01,4.752,1.21c1.05,1.007,1.221,2.687,1.49,4.026c0.042,0.21,0.197,0.327,0.376,0.373
		c0.007,0.028,0.006,0.052,0.018,0.081c0.208,0.49,0.912,0.415,1.351,0.418c0.608,0.005,1.332,0.108,1.904-0.112
		c0.35-0.134,0.505-0.515,0.406-0.818c0.005-0.031,0.019-0.055,0.02-0.089c0.117-5.347,0.587-10.833,0.082-16.163
		c-0.029-0.305-0.427-0.473-0.635-0.319c-0.536-0.242-1.099-0.173-1.684-0.149c-0.675,0.027-1.346,0.074-2.019,0.131
		c-0.509,0.043-0.61,0.605-0.314,0.868c0.138,3.423-1.276,5.608-4.97,5.473c-2.378-0.087-4.741-0.233-7.12-0.242
		c0.305-5.279,0.268-10.743-0.208-16.017C24.066,7.02,29.82,6.664,35.067,6.214c3.309,2.1,2.358,5.532,3.586,8.796
		c-0.063,0.231,0.069,0.51,0.397,0.554c1.181,0.158,2.504,0.219,3.651-0.164c0.13-0.043,0.224-0.129,0.293-0.228
		c0.202,0.008,0.397-0.09,0.441-0.342c0.798-4.578,1.186-9.652,1.034-14.291c-0.01-0.3-0.315-0.471-0.563-0.429
		c-0.094-0.067-0.207-0.115-0.358-0.108C30.473,0.597,17.259,0.27,4.219,1.241c-0.166,0.012-0.272,0.1-0.33,0.21
		c-0.002,0.001-0.005,0-0.007,0.001C3.36,1.732,3.427,2.356,3.47,2.871c0.044,0.537,0.117,1.079,0.46,1.507
		c0.071,0.088,0.176,0.116,0.285,0.121C4.16,4.693,4.233,4.936,4.464,5c7.402,2.042,5.304,13.74,5.327,19.593
		c0.018,4.493,2.344,21.548-5.492,20.955c-0.077-0.006-0.147,0.006-0.21,0.03c-0.179-0.091-0.406-0.064-0.469,0.195
		c-0.169,0.692-0.277,1.369-0.266,2.085c0.009,0.634-0.002,1.402,0.363,1.939c0.172,0.254,0.51,0.293,0.72,0.124
		c0.018,0.008,0.024,0.025,0.047,0.03c6.134,1.171,12.759,0.732,18.986,0.781c6.901,0.054,14.058,0.482,20.918-0.319
		c0.053-0.006,0.097-0.024,0.14-0.042c0.003,0.014,0.004,0.028,0.008,0.041c0.031,0.121,0.21,0.147,0.27,0.035
		c1.026-1.902,1.025-4.267,1.294-6.389c0.342-2.694,0.689-5.389,0.91-8.096c0.06-0.007,0.119-0.007,0.179-0.019
		C47.58,35.86,47.682,35.23,47.305,35.055z M45.64,37.808c-0.832-0.1-1.685-0.009-2.495,0.19c-0.063,0.015-0.036,0.112,0.027,0.098
		c0.823-0.186,1.612-0.192,2.443-0.11c-0.087,0.613-0.185,1.224-0.265,1.838c-0.009-0.025-0.022-0.052-0.056-0.048
		c-0.933,0.109-1.812,0.22-2.753,0.122c-0.099-0.01-0.096,0.142,0,0.154c0.908,0.113,1.888,0.136,2.772-0.131
		c0.023-0.007,0.023-0.031,0.031-0.051c-0.072,0.553-0.146,1.105-0.215,1.658c-0.011-0.021-0.02-0.045-0.049-0.044
		c-1.279,0.06-2.521,0.193-3.805,0.11c-0.089-0.006-0.087,0.129,0,0.137c1.255,0.11,2.586,0.166,3.824-0.108
		c0.017-0.004,0.014-0.022,0.022-0.035c-0.057,0.461-0.118,0.921-0.174,1.382c-0.012,0.097-0.03,0.199-0.043,0.298
		c-1.419-0.035-2.846,0.013-4.264,0.029c-0.094,0.001-0.094,0.145,0,0.146c1.408,0.015,2.825,0.062,4.235,0.029
		c-0.243,1.749-0.639,3.636-0.551,5.421c-5.896-1.236-11.872,0.08-17.825-0.491c-0.047-0.004-0.058,0.076-0.011,0.083
		c5.953,0.803,11.941-0.578,17.857,0.68c0.01,0.124,0.013,0.25,0.029,0.373c-6.573-0.534-13.309-0.036-19.908-0.076
		c-6.512-0.04-13.379-0.796-19.839,0.016c0.088-0.524-0.038-1.093-0.088-1.618c-0.036-0.388-0.085-0.773-0.131-1.159
		c9.177,0.958,6.519-15.063,6.493-20.171c-0.028-5.339,0.841-11.486-0.322-16.725C9.855,6.538,7.942,4.578,4.65,4.257
		c0.014-0.028,0.04-0.049,0.046-0.081c0.083-0.461-0.032-0.929-0.027-1.397c0.003-0.251,0.043-0.494,0.025-0.721
		C17.491,2.91,30.682,1.932,43.471,1.249C43.4,1.67,43.35,2.105,43.288,2.531c-4.114,0.142-8.257,0.247-12.351,0.621
		c-0.043,0.004-0.044,0.067,0,0.068c4.094,0.039,8.214-0.195,12.308-0.389c-0.069,0.489-0.149,0.97-0.209,1.465
		c-2.487,0.057-4.974,0.271-7.455,0.434c-0.095,0.006-0.097,0.155,0,0.15c2.478-0.125,4.968-0.201,7.439-0.431
		c-0.096,0.81-0.184,1.624-0.253,2.443c-1.198,0.047-2.41,0.256-3.599,0.391c-0.094,0.011-0.097,0.159,0,0.15
		c1.184-0.109,2.404-0.154,3.581-0.347c-0.057,0.698-0.105,1.397-0.143,2.094c-0.021-0.017-0.045-0.027-0.076-0.017
		c-1.035,0.366-2.028,0.537-3.122,0.342c-0.125-0.022-0.179,0.168-0.053,0.191c1.086,0.204,2.237,0.134,3.239-0.361
		c-0.05,0.957-0.083,1.91-0.096,2.855c-0.697,0.105-1.393,0.228-2.084,0.366c-0.108,0.022-0.06,0.178,0.045,0.163
		c0.681-0.1,1.361-0.214,2.037-0.346c-0.007,0.619-0.024,1.244-0.014,1.852c-0.956,0.066-1.908,0.263-2.862,0.398
		c0.219-3.203-0.94-8.768-4.666-9.304c-0.116-0.017-0.221,0.024-0.304,0.089C29.622,4.948,23.576,4.795,18.69,6.257
		c-0.086-0.09-0.24-0.059-0.285,0.079c-0.098,0.031-0.204,0.051-0.301,0.084c-0.187,0.062-0.152,0.331,0.046,0.342
		c0.067,0.004,0.136,0.004,0.203,0.008c-0.563,5.283-0.578,10.796-0.134,16.081c-0.272,0.16-0.307,0.661,0.07,0.714
		c2.115,0.297,4.237,0.531,6.368,0.688c1.659,0.122,3.569,0.38,5.128-0.392c2.425-1.201,2.332-3.78,2.167-6.116
		c0.484,0.037,0.968,0.075,1.454,0.095c0.507,0.021,0.997,0.068,1.467-0.073c-0.05,0.417-0.088,0.836-0.126,1.255
		c-0.657-0.076-1.307-0.013-1.943,0.187c-0.108,0.034-0.064,0.201,0.047,0.171c0.626-0.172,1.239-0.211,1.876-0.16
		c-0.053,0.611-0.099,1.224-0.136,1.838c-0.577,0.12-1.146,0.106-1.741-0.083c-0.099-0.031-0.14,0.122-0.043,0.155
		c0.574,0.194,1.184,0.251,1.772,0.14c-0.038,0.654-0.076,1.308-0.099,1.964c-0.911-0.051-1.825,0.041-2.718,0.23
		c-0.088,0.019-0.05,0.151,0.037,0.134c0.897-0.17,1.776-0.204,2.675-0.175c-0.014,0.418-0.028,0.836-0.037,1.254
		c-2.854,0.144-5.726,0.289-8.564,0.591c-0.049,0.005-0.051,0.079,0,0.078c2.848-0.029,5.713-0.219,8.56-0.408
		c-0.012,0.585-0.023,1.169-0.029,1.754c-1.319,0.17-2.541,0.265-3.884,0.035c-0.063-0.011-0.091,0.085-0.027,0.098
		c1.267,0.24,2.635,0.315,3.909,0.033c-0.006,0.66-0.013,1.321-0.017,1.981c-0.679,0.347-1.396,0.473-2.153,0.305
		c-0.091-0.02-0.13,0.118-0.039,0.14c0.75,0.18,1.513,0.095,2.191-0.259c-0.004,0.658-0.007,1.316-0.013,1.972
		c-0.49,0.201-0.98,0.31-1.534,0.271c-0.106-0.007-0.104,0.154,0,0.165c0.526,0.054,1.053-0.007,1.531-0.212
		c-0.005,0.545-0.011,1.09-0.021,1.633c-0.483,0.021-0.981,0.108-1.419,0.165c-0.077,0.01-0.175,0.026-0.276,0.047
		c-0.292-2.214-0.923-4.741-3.25-5.617c-1.408-0.53-3.117-0.452-4.593-0.561c-1.955-0.145-3.99-0.353-5.928,0
		c-0.237-0.178-0.655-0.142-0.707,0.21c-0.515,3.494-0.763,6.975-0.79,10.509c-0.018,2.386-0.484,5.604,0.944,7.671
		c0.166,0.241,0.48,0.215,0.63,0.037c1.584,1.277,3.958,0.998,5.933,1.066c3.487,0.119,7.196,0.433,10.672-0.067
		c0.079,0.13,0.237,0.211,0.403,0.117c3.732-2.122,7.064-6.38,7.76-10.7c0.57,0.058,1.146,0.073,1.717,0.13
		c0.157,0.015,0.313,0.037,0.468,0.058C45.809,36.546,45.73,37.178,45.64,37.808z"/>
	<path style="fill:#1D1D1B;" d="M44.225,47.302c-4.982-0.05-9.99,0.268-14.968,0.456c-0.081,0.003-0.082,0.128,0,0.126
		c4.981-0.112,9.998-0.098,14.968-0.448C44.31,47.431,44.312,47.303,44.225,47.302z"/>
	<path style="fill:#1D1D1B;" d="M44.232,45.245c-1.911,0.143-3.776,0.386-5.7,0.363c-0.105-0.001-0.104,0.16,0,0.162
		c1.888,0.042,3.868,0.027,5.717-0.397C44.32,45.357,44.306,45.24,44.232,45.245z"/>
</g>
<g>
</g>
<g>
</g>
<g>
</g>
<g>
</g>
<g>
</g>
<g>
</g>
<g>
</g>
<g>
</g>
<g>
</g>
<g>
</g>
<g>
</g>
<g>
</g>
<g>
</g>
<g>
</g>
<g>
</g>
</svg>
