<?xml version="1.0" encoding="iso-8859-1"?>
<!-- Generator: Adobe Illustrator 18.0.0, SVG Export Plug-In . SVG Version: 6.00 Build 0)  -->
<!DOCTYPE svg PUBLIC "-//W3C//DTD SVG 1.1//EN" "http://www.w3.org/Graphics/SVG/1.1/DTD/svg11.dtd">
<svg version="1.1" id="Capa_1" xmlns="http://www.w3.org/2000/svg" xmlns:xlink="http://www.w3.org/1999/xlink" x="0px" y="0px"
	 viewBox="0 0 50.261 50.261" style="enable-background:new 0 0 50.261 50.261;" xml:space="preserve">
<g>
	<path style="fill:#1D1D1B;" d="M23.93,11.241c-0.011,0.006-0.021,0.013-0.031,0.019c0.148-0.178,0.198-0.431,0.036-0.697
		C20.598,5.067,12.978,3.602,8.363,8.471C4.266,12.795,5.58,20.658,11.39,22.764c0.057,0.02,0.093-0.048,0.072-0.093
		c-0.837-1.734-2.51-2.733-3.389-4.486c-1.237-2.468-1.133-5.461,0.378-7.803c3.599-5.577,11.114-4.053,14.363,0.836
		c0.179,0.27,0.455,0.334,0.701,0.275c-2.15,1.23-4.074,2.915-6.008,4.441c-1.09,0.86-2.163,1.739-3.201,2.66
		c-0.576,0.511-1.144,1.03-1.681,1.583c-0.213,0.223-0.425,0.446-0.638,0.67c-0.426,0.223-0.599,0.474-0.572,0.746
		c-0.115,0.023-0.232,0.088-0.256,0.212c-0.006,0.033-0.012,0.065-0.018,0.098c-0.045,0.237,0.099,0.431,0.342,0.449
		c0.598,0.042,0.819-0.348,1.264-0.745c1.269-1.132,2.549-2.241,3.883-3.296c2.597-2.054,5.173-4.159,7.923-6.005
		C25.209,11.866,24.636,10.864,23.93,11.241z"/>
	<path style="fill:#1D1D1B;" d="M28.345,28.717c-0.524-2.249-0.893-4.527-1.063-6.832c-0.135-1.832-0.053-3.644-0.607-5.415
		c-0.127-0.406-0.631-0.669-1.019-0.414c-3.282,2.159-6.408,4.626-9.172,7.426c-0.794-0.272-1.127,1.014-0.328,1.34
		c3.797,1.545,7.552,3.19,11.349,4.733C28.02,29.764,28.451,29.171,28.345,28.717z M26.77,27.753
		c-3.097-1.37-6.242-2.645-9.382-3.913c2.698-2.075,5.406-4.112,8.205-6.051c0.412,1.897,0.294,3.944,0.511,5.865
		C26.261,25.032,26.501,26.394,26.77,27.753z"/>
	<path style="fill:#1D1D1B;" d="M43.859,19.8c-0.709-6.511-7.505-10.686-13.325-6.677c-0.099,0.068-0.158,0.157-0.199,0.252
		c-1.115-0.073-2.26-0.005-3.35,0.067c-0.199,0.013-0.203,0.322,0,0.313c1.047-0.046,2.083,0.016,3.121,0.06
		c0.024,0.449,0.062,0.899,0.1,1.349c-1.189-0.035-2.383-0.002-3.572,0.011c-0.199,0.002-0.199,0.307,0,0.309
		c1.196,0.013,2.399,0.047,3.596,0.01c0.062,0.699,0.134,1.399,0.216,2.1c-0.982-0.101-2.025,0.037-2.978,0.204
		c-0.174,0.03-0.097,0.285,0.072,0.261c0.995-0.139,1.964-0.088,2.953-0.109c0.094,0.767,0.186,1.535,0.302,2.302
		c-0.86,0.095-1.717,0.204-2.587,0.233c-0.115,0.004-0.116,0.178,0,0.179c0.869,0.006,1.76-0.009,2.627-0.136
		c0.165,1.08,0.343,2.16,0.54,3.235c-0.827-0.097-1.701,0.005-2.507,0.144c-0.142,0.024-0.08,0.234,0.059,0.214
		c0.844-0.124,1.66-0.085,2.5-0.092c0.154,0.83,0.311,1.661,0.478,2.485c-0.817,0.148-1.629,0.25-2.472,0.242
		c-0.151-0.001-0.147,0.22,0,0.232c0.842,0.066,1.704,0.013,2.532-0.174c0.134,0.658,0.271,1.313,0.41,1.964
		c-1.207-0.092-2.439-0.064-3.641-0.097c-0.136-0.004-0.135,0.204,0,0.211c1.224,0.065,2.474,0.196,3.707,0.196
		c0.099,0.465,0.199,0.931,0.299,1.392c0.076,0.348,0.327,0.48,0.588,0.467c2.553,1.211,5.366-0.395,7.389-2.074
		C43.426,26.627,44.232,23.223,43.859,19.8z M34.011,30.148c-0.001-0.006,0.002-0.011,0.001-0.017
		c-0.828-5.309-1.571-10.793-2.867-16.015c2.154-0.586,4.365-1.373,6.603-0.622c2.576,0.865,3.979,3.164,4.459,5.691
		C43.135,24.077,39.499,30.461,34.011,30.148z"/>
	<path style="fill:#1D1D1B;" d="M49.227,19.23C47.495,9.673,37.425,4.979,28.876,8.906c-2.855-4.097-6.157-7.773-11.305-8.684
		c-4.368-0.774-8.976,0.489-12.222,3.55c-7.204,6.795-5.541,18.182,2.483,23.374c-6.139,7.437-2.087,18.99,6.637,22.221
		c9.058,3.354,18.347-3.148,18.845-12.556c0.045,0.004,0.085,0.018,0.136,0.012C42.559,35.617,51.092,29.514,49.227,19.23z
		 M30.237,42.031c-1.446-0.055-2.909,0.033-4.363,0.053c0.659-0.599,1.261-1.312,1.717-2.088c1.175,0.074,2.402,0.095,3.556-0.105
		C30.897,40.636,30.603,41.358,30.237,42.031z M23.789,41.762c-2.216,1.406-5.203,1.703-7.706,0.996
		c-7.187-2.03-5.155-8.647-2.984-13.631c4.715,2.12,9.454,4.19,14.17,6.309c-0.01,0.023-0.034,0.036-0.039,0.062
		C26.687,38.019,26.141,40.269,23.789,41.762z M31.28,39.505c-1.169,0.018-2.331,0.127-3.501,0.147
		c0.375-0.727,0.608-1.502,0.639-2.288c1.087,0.051,2.212,0.111,3.301,0.056C31.618,38.134,31.482,38.835,31.28,39.505z
		 M33.266,35.455c-0.126,0.026-0.218,0.092-0.295,0.172c-0.43-0.215-1.085-0.01-1.118,0.626c-0.013,0.244-0.057,0.477-0.083,0.716
		c-1.104-0.06-2.246,0-3.348,0.052c-0.02-0.511-0.129-1.025-0.354-1.531c0.456-0.231,0.659-0.898,0.074-1.203
		c-0.241-0.125-0.486-0.244-0.729-0.367c2.886,0.321,5.781,0.619,8.674,0.818C35.158,35.018,34.213,35.257,33.266,35.455z
		 M44.127,21.959c1.173,0.078,2.578,0.238,3.723-0.075c0.025-0.007,0.035-0.024,0.051-0.037c-0.001,1.241-0.166,2.388-0.484,3.437
		c-1.207-0.365-2.588-0.321-3.825-0.192c-0.157,0.016-0.162,0.262,0,0.25c1.281-0.1,2.476,0.084,3.739,0.215
		c-0.287,0.866-0.669,1.672-1.138,2.416c-1.51,0.127-2.998,0.242-4.515,0.184c-0.141-0.006-0.139,0.209,0,0.218
		c1.437,0.097,2.89,0.104,4.319-0.093c-0.57,0.842-1.239,1.612-2.007,2.3c-0.014-0.005-0.023-0.016-0.041-0.016
		c-1.806,0.044-3.611,0.231-5.417,0.309c-0.16,0.007-0.161,0.254,0,0.25c1.71-0.042,3.444-0.065,5.145-0.267
		c-0.925,0.78-1.962,1.463-3.078,2.053c-0.014-0.061-0.046-0.115-0.118-0.129c-5.923-1.159-12.039-1.666-18.051-2.092
		c-0.16-0.011-0.155,0.23,0,0.246c5.932,0.616,11.825,1.535,17.75,2.186c-0.984,0.492-2.017,0.923-3.085,1.287
		c-3.431-0.389-6.896-0.614-10.349-0.824c-4.283-2.118-8.84-3.867-13.452-5.056c-0.038-0.315-0.403-0.589-0.654-0.272
		c-4.303,5.414-4.854,13.749,3.032,15.997c1.903,0.543,4.01,0.557,5.967,0.057c2.294,0.141,4.704,0.176,6.95-0.365
		c0.123-0.03,0.1-0.233-0.03-0.224c-2.043,0.138-4.038,0.35-6.077,0.335c1.059-0.364,2.061-0.875,2.93-1.571
		c0.02-0.016,0.04-0.034,0.06-0.051c1.496,0.08,3.055,0.142,4.541-0.032c-0.889,1.513-2.049,2.826-3.425,3.842
		c-4.536,0.199-9.062,0.205-13.596-0.051c-0.163-0.009-0.161,0.242,0,0.253c4.359,0.304,8.714,0.365,13.077,0.139
		c-0.587,0.39-1.215,0.716-1.862,1.001c-1.99,0.05-3.983,0.154-5.968,0.26c-0.15,0.008-0.153,0.237,0,0.236
		c1.61-0.011,3.225-0.027,4.839-0.063c-2.317,0.759-4.907,0.85-7.557,0.015C6.161,45.086,5.3,35.237,8.597,27.479
		c0.029-0.068,0.032-0.139,0.025-0.208c0.199-0.17,0.287-0.473,0.041-0.666C2.043,21.42-0.453,11.951,5.897,5.35
		c3.05-3.171,7.687-4.524,11.983-3.516c0.666,0.156,1.289,0.369,1.882,0.624c-2.821-0.18-5.698-0.106-8.521-0.08
		c-0.148,0.001-0.147,0.222,0,0.229c2.954,0.132,5.968,0.327,8.924,0.216c0.084-0.003,0.125-0.054,0.146-0.112
		c0.307,0.151,0.608,0.311,0.898,0.485c-2.267-0.129-4.638,0.05-6.815,0.322c-0.148,0.018-0.158,0.243,0,0.239
		c2.531-0.058,5.093,0.035,7.626-0.029c0.635,0.449,1.232,0.946,1.796,1.486c-1.374-0.312-2.778-0.329-4.179-0.173
		c-0.152,0.017-0.157,0.256,0,0.243c1.466-0.13,2.888-0.009,4.341,0.204c0.037,0.005,0.069-0.004,0.094-0.022
		c0.37,0.367,0.731,0.745,1.078,1.14c-1.193-0.082-2.388-0.012-3.587-0.163c-0.162-0.02-0.202,0.263-0.039,0.287
		c1.233,0.177,2.625,0.378,3.865,0.159c0.502,0.588,0.989,1.193,1.46,1.816c-1.014-0.047-2.046,0.071-3.045,0.217
		c-0.142,0.021-0.11,0.269,0.034,0.252c1.078-0.13,2.148-0.128,3.228-0.177c0.22,0.294,0.441,0.588,0.658,0.885
		c0.224,0.307,0.563,0.37,0.857,0.292c0.091,0.023,0.188,0.029,0.295-0.014c3.733-1.505,7.779-1.465,11.178-0.09
		c-3.655-0.03-7.346,0.37-10.967,0.803c-0.139,0.017-0.143,0.235,0,0.221c3.786-0.36,7.575-0.438,11.366-0.692
		c0.078-0.005,0.118-0.054,0.14-0.11c1.166,0.531,2.246,1.227,3.198,2.077c-1.27-0.258-2.68-0.245-3.904-0.002
		c-0.161,0.032-0.125,0.294,0.039,0.287c1.519-0.066,2.898,0.05,4.396,0.221c0.429,0.433,0.835,0.891,1.197,1.392
		c-0.932-0.066-1.945,0.094-2.817,0.246c-0.075,0.013-0.059,0.142,0.018,0.135c0.582-0.054,1.164-0.095,1.749-0.097
		c0.42-0.002,0.846,0.029,1.268,0.034c0.95,1.408,1.644,3.054,1.958,4.952c-0.95-0.066-1.918-0.01-2.869-0.001
		c-0.215,0.002-0.215,0.332,0,0.334c0.971,0.009,1.959,0.07,2.928-0.002c0.017,0.121,0.049,0.232,0.063,0.354
		c0.055,0.482,0.084,0.949,0.092,1.403c-0.026-0.025-0.059-0.043-0.1-0.048c-0.603-0.065-1.234,0.036-1.84,0.05
		c-0.614,0.014-1.228,0.008-1.841-0.012C43.903,21.607,43.907,21.944,44.127,21.959z"/>
	<path style="fill:#1D1D1B;" d="M46.749,16.94c-0.986-0.056-1.986,0.013-2.973,0.037c-0.131,0.003-0.131,0.201,0,0.204
		c0.987,0.024,1.987,0.093,2.973,0.037C46.928,17.207,46.928,16.95,46.749,16.94z"/>
</g>
<g>
</g>
<g>
</g>
<g>
</g>
<g>
</g>
<g>
</g>
<g>
</g>
<g>
</g>
<g>
</g>
<g>
</g>
<g>
</g>
<g>
</g>
<g>
</g>
<g>
</g>
<g>
</g>
<g>
</g>
</svg>
