<?xml version="1.0" encoding="iso-8859-1"?>
<!-- Generator: Adobe Illustrator 18.0.0, SVG Export Plug-In . SVG Version: 6.00 Build 0)  -->
<!DOCTYPE svg PUBLIC "-//W3C//DTD SVG 1.1//EN" "http://www.w3.org/Graphics/SVG/1.1/DTD/svg11.dtd">
<svg version="1.1" id="Capa_1" xmlns="http://www.w3.org/2000/svg" xmlns:xlink="http://www.w3.org/1999/xlink" x="0px" y="0px"
	 viewBox="0 0 47.206 47.206" style="enable-background:new 0 0 47.206 47.206;" xml:space="preserve">
<g>
	<path style="fill:#1D1D1B;" d="M46.84,17.094c-1.737-0.831-4.002-1.03-5.882-1.451c-2.473-0.554-4.939-1.166-7.437-1.595
		c-0.054-0.009-0.099,0.002-0.149,0.003c-0.019-1.747-0.115-3.483-0.341-5.166c-0.011-0.08-0.069-0.137-0.135-0.176
		c-0.004-0.264-0.178-0.525-0.523-0.533c-1.797-0.041-3.606-0.082-5.418-0.107c-0.785-2.513-1.616-5.014-2.452-7.511
		c-0.196-0.584-0.991-0.724-1.324-0.173c-1.505,2.494-2.97,5.043-4.088,7.74c-1.397,0.05-2.789,0.125-4.174,0.239
		c-0.17-0.268-0.58-0.305-0.703,0.072c-0.524,1.604-0.568,3.408-0.562,5.087c0.001,0.132,0.065,1,0.143,1.956
		c-0.116-0.075-0.262-0.114-0.432-0.087c-4.234,0.672-8.408,1.415-12.698,1.67c-0.547,0.032-0.909,0.717-0.469,1.132
		c3.999,3.776,7.8,7.796,11.971,11.383c-0.004,0.012-0.012,0.019-0.016,0.032c-1.323,5.106-2.416,10.261-3.466,15.429
		c-0.111,0.548,0.429,0.99,0.937,0.72c1.8-0.955,3.55-1.989,5.067-3.336c1.426,0.429,3.779-0.234,4.898-0.309
		c1.559-0.104,5.712,0.492,6.66-1.282c0.097-0.183,0.148-0.405,0.175-0.644c3.451,2.664,7.12,5.135,11.097,6.921
		c0.38,0.171,0.942-0.02,0.908-0.521c-0.406-5.966-1.142-11.814-2.469-17.641c2.459-1.756,4.564-4.109,6.749-6.172
		c1.285-1.213,4.568-3.078,4.497-5.044C47.196,17.485,47.074,17.206,46.84,17.094z M23.597,2.43
		c0.617,1.878,1.243,3.754,1.891,5.621c-1.843-0.015-3.688-0.004-5.527,0.048C21.226,6.247,22.401,4.329,23.597,2.43z
		 M13.946,33.032c-0.29,1.47-0.369,2.941-0.383,4.444c-0.011,1.141-0.368,3.125,0.113,4.147c0.046,0.097,0.103,0.182,0.166,0.262
		c-1.233,0.668-2.437,1.396-3.655,2.094c0.903-4.715,1.946-9.401,3.003-14.084c0.083-0.368-0.183-0.613-0.47-0.656
		c-0.014-0.046-0.036-0.093-0.073-0.138c-3.152-3.879-6.808-7.352-10.424-10.806c3.853-0.253,7.743-0.725,11.446-1.796
		c0.083-0.024,0.148-0.061,0.204-0.103c0.087,0.993,0.172,1.86,0.199,1.859c-0.224,0.012-0.302,0.368-0.056,0.414
		c0.214,0.04,0.375,0.013,0.509-0.046c-0.002,0.28,0.175,0.563,0.515,0.542c0.419-0.026,0.842-0.048,1.261-0.035
		c0.128,0.004,0.254,0.015,0.378,0.023c-0.214,4.309,0.096,8.662-0.024,12.981c-0.272-0.03-0.569,0.042-0.871,0.07
		c-0.581,0.054-1.163,0.102-1.744,0.156C13.622,32.399,13.603,32.904,13.946,33.032z M25.127,33.57
		c-2.261-0.086-4.558-0.671-6.777-0.022c-0.147,0.043-0.085,0.256,0.063,0.227c2.274-0.439,4.421,0.352,6.661,0.192
		c-0.05,0.456-0.089,0.912-0.12,1.37c-2.524-0.212-5.163,0.109-7.671,0.364c-0.097,0.01-0.1,0.162,0,0.155
		c2.551-0.196,5.111-0.068,7.656-0.219c-0.023,0.409-0.059,0.817-0.063,1.228c-1.574-0.092-3.216,0.126-4.789,0.205
		c-0.128,0.007-0.13,0.203,0,0.2c1.575-0.033,3.225,0.062,4.791-0.137c0,0.268-0.004,0.536,0.004,0.805
		c0.006,0.19,0.014,0.356,0.021,0.515c-2.595,0.131-5.2,0.391-7.784,0.66c-0.134,0.014-0.14,0.221,0,0.214
		c2.595-0.131,5.21-0.274,7.794-0.543c0.03,1.04-0.109,1.34-1.574,1.699c-1.011,0.248-2.239,0.156-3.281,0.229
		c-1.093,0.076-2.191,0.126-3.281,0.229c-0.615,0.014-1.222,0.086-1.823,0.216c-0.027-0.613-0.05-1.226-0.068-1.84
		c-0.069-2.07-0.052-4.142-0.343-6.194c0.414,0.037,0.828,0.073,1.242,0.111c0.516,0.048,1.019,0.232,1.403-0.201
		c0.093-0.105,0.129-0.229,0.117-0.352c0.082-0.064,0.141-0.162,0.148-0.294c0.233-4.506,0.68-9.18,0.216-13.681
		c0.053-0.165,0.033-0.348-0.109-0.493c-0.581-0.593-1.881-0.294-2.62-0.11c0.107-0.341,0.119-0.77,0.13-1.13
		c0.079-2.545,0.212-5.331-0.027-7.888c5.728,0.458,11.589,0.309,17.331,0.178c0.059-0.001,0.106-0.019,0.155-0.034
		c-0.075,0.484-0.131,0.975-0.183,1.467c-0.001,0-0.001-0.001-0.001-0.001c-3.761-0.489-7.678-0.185-11.408,0.42
		c-0.114,0.019-0.089,0.217,0.028,0.204c3.815-0.436,7.512-0.338,11.333-0.193c-0.052,0.544-0.096,1.09-0.131,1.639
		c-2.734-0.107-5.495,0.029-8.23,0.06c-0.17,0.002-0.17,0.262,0,0.264c2.728,0.03,5.482,0.166,8.209,0.06
		c-0.031,0.544-0.072,1.086-0.088,1.632c-0.023-0.017-0.043-0.038-0.077-0.042c-4.685-0.568-9.466-0.409-14.164-0.083
		c-0.089,0.006-0.091,0.144,0,0.141c4.744-0.202,9.429,0.075,14.164,0.266c0.031,0.001,0.047-0.015,0.068-0.025
		c-0.027,0.999-0.039,1.999-0.026,2.993c-0.883-0.03-1.788,0.044-2.664,0.064c-0.14,0.003-0.14,0.215,0,0.218
		c0.877,0.02,1.783,0.095,2.667,0.064c0.008,0.484,0.028,0.958,0.042,1.438c-0.823-0.091-1.71,0.016-2.533,0.036
		c-0.131,0.003-0.131,0.201,0,0.204c0.826,0.02,1.716,0.128,2.541,0.035c0.014,0.448,0.021,0.902,0.039,1.345
		c-0.62,0.095-1.246,0.166-1.871,0.189c-0.517,0.019-1.036-0.034-1.55-0.003c-0.015-1.161,0.057-2.314,0.246-3.462
		c0.069-0.419-0.258-0.869-0.726-0.726c-0.81,0.248-1.639,0.437-2.487,0.488c-0.706,0.043-1.448-0.101-2.128,0.095
		c-0.272,0.078-0.35,0.381-0.225,0.596c-0.066,0.236-0.103,0.479-0.131,0.725c-1.101,0.025-2.244,0.249-3.325,0.36
		c-0.135,0.014-0.138,0.227,0,0.214c1.069-0.095,2.218-0.095,3.295-0.27c-0.021,0.278-0.031,0.557-0.043,0.834
		c-0.015,0.357-0.028,0.714-0.042,1.071c-0.851,0.013-1.728,0.228-2.523,0.467c-0.095,0.029-0.056,0.173,0.041,0.149
		c0.826-0.2,1.639-0.237,2.469-0.299c-0.02,0.507-0.041,1.014-0.06,1.521c-0.013,0.346,0.311,0.666,0.655,0.655
		c1.352-0.043,2.741-0.036,4.086-0.205c-0.013,0.267-0.014,0.536-0.021,0.804c-2.671-0.13-5.363-0.08-8.034-0.099
		c-0.154-0.001-0.153,0.233,0,0.239c2.667,0.109,5.352,0.289,8.023,0.288c-0.012,0.731-0.017,1.463-0.02,2.193
		c-1.345,0.009-2.69,0.019-4.036,0.028c-0.424,0.003-0.607,0.361-0.567,0.687c-0.025,0.088-0.039,0.18-0.056,0.27
		c-1.409,0.043-2.799,0.193-4.218,0.135c-0.164-0.007-0.161,0.242,0,0.253c1.356,0.096,2.805,0.173,4.167-0.026
		c-0.033,0.365-0.03,0.737-0.028,1.093c0.001,0.163-0.002,0.34-0.004,0.521c-1.372,0.034-2.753,0.281-4.136,0.278
		c-0.159,0-0.158,0.241,0,0.246c1.315,0.039,2.819,0.102,4.138-0.194c0.002,0.519,0.03,1.057,0.187,1.487
		c0.175,0.479,0.56,0.649,1.035,0.616c0.314-0.021,0.69-0.07,1.053-0.158C25.216,32.854,25.171,33.212,25.127,33.57z M44.439,19.143
		c-2.983,2.722-6.461,5.5-8.882,8.808c-0.319-0.139-0.796,0.123-0.706,0.579c0.022,0.11,0.039,0.221,0.061,0.33
		c-0.005,0.007-0.01,0.014-0.015,0.021c-0.103,0.159-0.03,0.336,0.1,0.44c1.033,5.347,1.809,10.74,2.144,16.178
		c-3.616-2.082-7.236-4.094-10.73-6.391c-0.059-0.594-0.166-1.187-0.181-1.617c-0.068-1.946,0.116-3.848,0.367-5.776
		c0.021-0.164-0.033-0.296-0.127-0.391c-0.058-0.099-0.143-0.181-0.289-0.212c-0.509-0.107-0.877,0.004-1.384,0.123
		c-0.039,0.009-0.293,0.09-0.499,0.143c0.042-0.041,0.045-0.107,0.007-0.202c-0.021-0.163-0.041-0.327-0.059-0.491
		c-0.076-0.685-0.054-1.47-0.168-2.193c1.427,0.003,2.855,0.006,4.282,0.009c0.323,0.001,0.64-0.286,0.622-0.622
		c-0.077-1.467-0.195-2.974-0.52-4.416c0.117-0.365-0.128-0.883-0.591-0.906c-1.163-0.059-2.361,0.047-3.534,0.131
		c-0.026-0.737-0.052-1.473-0.082-2.21c-0.019-0.482-0.032-0.971-0.109-1.445c1.066,0.312,2.441,0.096,3.561-0.212
		c-0.063,1.04,0.01,2.067,0.212,3.102c-0.105,0.25,0.028,0.606,0.312,0.71c1.283,0.47,3.003,0.02,4.282-0.469
		c0.251,0.039,0.535-0.106,0.56-0.445c0.149-2.039,0.274-4.149,0.299-6.259c2.372,0.632,4.789,1.105,7.188,1.626
		c1.058,0.23,2.12,0.495,3.185,0.693c0.618,0.195,1.251,0.286,1.897,0.274C45.24,18.413,44.839,18.777,44.439,19.143z"/>
	<path style="fill:#1D1D1B;" d="M27.261,25.702c-3.033,0.103-6.066,0.235-9.098,0.375c-0.13,0.006-0.132,0.205,0,0.204
		c3.033-0.026,6.066-0.059,9.098-0.122C27.555,26.153,27.556,25.692,27.261,25.702z"/>
	<path style="fill:#1D1D1B;" d="M31.812,16.6c-4.471-0.35-9-0.179-13.472,0.084c-0.153,0.009-0.155,0.245,0,0.239
		c4.494-0.174,8.979-0.07,13.472-0.123C31.942,16.799,31.939,16.61,31.812,16.6z"/>
</g>
<g>
</g>
<g>
</g>
<g>
</g>
<g>
</g>
<g>
</g>
<g>
</g>
<g>
</g>
<g>
</g>
<g>
</g>
<g>
</g>
<g>
</g>
<g>
</g>
<g>
</g>
<g>
</g>
<g>
</g>
</svg>
