<?xml version="1.0" encoding="iso-8859-1"?>
<!-- Generator: Adobe Illustrator 18.0.0, SVG Export Plug-In . SVG Version: 6.00 Build 0)  -->
<!DOCTYPE svg PUBLIC "-//W3C//DTD SVG 1.1//EN" "http://www.w3.org/Graphics/SVG/1.1/DTD/svg11.dtd">
<svg version="1.1" id="Capa_1" xmlns="http://www.w3.org/2000/svg" xmlns:xlink="http://www.w3.org/1999/xlink" x="0px" y="0px"
	 viewBox="0 0 50.274 50.274" style="enable-background:new 0 0 50.274 50.274;" xml:space="preserve">
<g>
	<path style="fill:#1D1D1B;" d="M45.126,4.466c-0.033-0.079-0.087-0.146-0.147-0.207c0.225-0.124,0.373-0.358,0.251-0.648
		c-1.727-4.122-6.588-4.444-10.079-2.331c-4.151,2.513-8.145,8.314-7.91,13.299c0.005,0.114,0.087,0.2,0.183,0.246
		c-2.423-0.338-5.171,0.091-7.639,0.498c-0.389-0.28-1.027-0.073-1.092,0.421c-0.012,0.068-0.003,0.138,0.017,0.208
		c0.005,0.028-0.002,0.051,0.007,0.079c0.528,1.837,1.016,3.854,1.95,5.534c0.049,0.087,0.124,0.144,0.209,0.173
		c0.063,0.176,0.176,0.301,0.333,0.355c-0.003,0.002-0.007,0.004-0.01,0.006c0.012,0.003,0.026,0.004,0.039,0.007
		c0.021,0.006,0.044,0.009,0.066,0.012c0.797,0.192,1.745,0.111,2.553,0.131c0.674,0.017,1.415,0.09,2.126,0.056
		c-0.939,4.582-1.672,9.238-2.882,13.755c-1.861,6.948-9.625,4.974-15.127,4.849c-0.236-0.005-0.335,0.204-0.306,0.392
		c-0.721,0.788-1.242,1.69-1.653,2.686c-0.415,1.006-0.926,2.17-0.78,3.274c-0.462,0.698-0.301,1.494,0.511,2.262
		c1.45,1.372,5.529,0.456,7.196,0.388c3.049-0.125,6.253-0.039,9.267-0.603c3.881-0.727,6.792-2.566,8.504-6.185
		c2.979-6.297,3.713-14.109,5.38-20.845c0.526-0.003,1.052-0.032,1.578-0.032c0.639,0,1.291,0.101,1.909-0.086
		c0.198-0.06,0.29-0.205,0.329-0.363c1.215-0.961,1.747-2.451,1.852-3.997c0.053-0.775,0.037-1.65-0.551-2.242
		c-0.444-0.446-1.105-0.678-1.627-0.277c-0.007,0.005-0.008,0.012-0.014,0.018c-0.016-0.014-0.026-0.031-0.044-0.045
		c-0.915-0.676-2.165-0.509-3.181-0.124c0.18-1.877,1.089-3.661,2.261-5.125c0.596-0.744,1.291-1.403,2.168-1.807
		c0.851-0.392,1.729-0.346,2.622-0.522c0.096-0.019,0.169-0.071,0.226-0.137c0.386-0.036,0.765-0.193,1.036-0.448
		C45.296,6.492,45.459,5.255,45.126,4.466z M43.903,4.837c-2.735-0.164-5.452-0.301-8.177-0.648
		c-0.173-0.022-0.216,0.28-0.042,0.307c2.705,0.423,5.464,0.766,8.208,0.808c-0.006,0.249-0.024,0.495-0.119,0.725
		c-0.144,0.348-0.42,0.65-0.792,0.563c-0.654-0.192-1.343-0.133-2.015,0.07c-2.028-0.224-4.085-0.256-6.118-0.491
		c-0.129-0.015-0.16,0.206-0.031,0.228c1.709,0.287,3.52,0.569,5.284,0.599c-0.937,0.466-1.784,1.179-2.369,1.876
		c-0.085,0.101-0.167,0.215-0.251,0.322c-1.224-0.11-2.466-0.134-3.686-0.207c-0.153-0.009-0.149,0.221,0,0.236
		c1.125,0.108,2.263,0.264,3.398,0.35c-0.484,0.679-0.933,1.458-1.266,2.276c-1.283-0.157-2.6-0.18-3.881-0.267
		c-0.184-0.012-0.18,0.268,0,0.285c1.233,0.113,2.491,0.295,3.736,0.35c-0.25,0.701-0.411,1.423-0.425,2.13
		c-1.688-0.041-3.371-0.006-5.061-0.132c-0.171-0.013-0.166,0.247,0,0.264c1.66,0.168,3.373,0.323,5.049,0.246
		c0.017,0.302,0.062,0.599,0.142,0.89c0.069,0.251,0.297,0.329,0.495,0.278c0.058,0.024,0.121,0.037,0.189,0.023
		c0.507-0.103,1.022-0.057,1.533,0.013c0.484,0.066,0.907,0.275,1.379,0.365c0.303,0.058,0.527-0.083,0.632-0.286
		c0.611,0.281,0.832,0.918,0.824,1.663c-5.618-0.451-11.261-0.709-16.89-1.004c-0.157-0.008-0.154,0.23,0,0.243
		c5.61,0.455,11.23,0.949,16.851,1.249c-0.088,0.677-0.32,1.395-0.619,2.002c-0.024-0.025-0.045-0.053-0.086-0.06
		c-5.351-0.986-10.903-1.101-16.321-0.755c-0.15,0.009-0.153,0.24,0,0.236c5.477-0.147,10.788,0.303,16.22,0.933
		c-0.127,0.222-0.259,0.421-0.392,0.586c-0.579-0.123-1.196-0.04-1.782,0.013c-0.601,0.055-1.211,0.12-1.798,0.269
		c-0.341-0.144-0.78-0.055-0.883,0.405c-0.064,0.284-0.124,0.583-0.185,0.873c-1.928,0.08-3.809,0.194-5.756,0.127
		c-0.118-0.004-0.149,0.19-0.028,0.211c1.798,0.312,3.844,0.393,5.692,0.097c-0.188,0.9-0.371,1.815-0.55,2.75
		c-0.849-0.037-1.71,0.006-2.557,0.019c-0.417,0.007-1.21-0.168-1.52,0.187c-0.052,0.06-0.06,0.131-0.026,0.202
		c0.05,0.104,0.09,0.132,0.204,0.15c0.066,0.011,0.156-0.005,0.187-0.076c0.007-0.016,0.014-0.031,0.021-0.047
		c0.014-0.032,0.006-0.061,0.002-0.091c0.556,0.067,1.728,0.105,1.806,0.107c0.595,0.013,1.196,0.037,1.792,0.023
		c-0.101,0.527-0.201,1.047-0.303,1.58c-2.158-0.109-4.306-0.09-6.467-0.297c-0.199-0.019-0.248,0.323-0.048,0.352
		c2.087,0.3,4.307,0.542,6.427,0.401c-0.165,0.862-0.333,1.729-0.51,2.597c-1.254-0.049-2.523,0.021-3.776,0.041
		c-0.201,0.003-0.202,0.31,0,0.313c1.224,0.02,2.463,0.086,3.689,0.044c-0.175,0.843-0.352,1.687-0.549,2.522
		c-0.265,0.003-0.531,0.012-0.796-0.002c-0.657-0.034-1.304-0.134-1.945-0.281c-0.204-0.047-0.291,0.262-0.087,0.315
		c0.808,0.212,1.809,0.453,2.721,0.427c-0.159,0.656-0.326,1.308-0.505,1.951c-0.025-0.017-0.046-0.038-0.082-0.041
		c-1.558-0.147-3.159-0.077-4.722-0.045c-0.163,0.003-0.163,0.25,0,0.253c1.571,0.025,3.147,0.159,4.717,0.146
		c-0.268,0.941-0.553,1.87-0.878,2.766c-0.014-0.077-0.065-0.151-0.166-0.16c-1.68-0.147-3.402-0.033-5.078,0.112
		c-0.189,0.016-0.193,0.311,0,0.299c1.699-0.107,3.38-0.043,5.078-0.042c0.05,0,0.083-0.021,0.111-0.045
		c-0.313,0.849-0.652,1.677-1.031,2.469c-2.668-0.203-5.336-0.164-8.005-0.448c-0.154-0.016-0.192,0.251-0.037,0.273
		c2.567,0.352,5.288,0.704,7.884,0.525c-0.051,0.102-0.09,0.214-0.143,0.316c-0.403,0.781-0.853,1.445-1.34,2.021
		c-5.885-0.517-11.825-0.582-17.729-0.617c-0.127-0.001-0.127,0.194,0,0.197c5.802,0.134,11.583,0.539,17.377,0.81
		c-0.829,0.874-1.759,1.516-2.776,1.983c-5.372-0.207-10.836,0.042-16.186-0.453c0.128,0.012,0.128-0.166,0.028-0.207
		c-0.032-0.013-0.064-0.026-0.096-0.039c-0.052-0.021-0.108,0.015-0.136,0.055c-0.025,0.035-0.05,0.07-0.074,0.106
		c-0.045,0.064-0.011,0.16,0.052,0.197c1.529,0.917,4.818,0.453,6.582,0.53c2.959,0.129,5.929,0.237,8.893,0.186
		c-1.962,0.686-4.184,0.883-6.548,1.031c-1.809,0.114-3.626,0.156-5.437,0.237c-0.552,0.025-5.36,0.278-5.964-0.927
		c0.081-0.044,0.159-0.098,0.209-0.18c0.546-0.889,0.582-2.063,0.886-3.059c0.297-0.972,0.658-1.921,0.955-2.892
		c4.183,1.161,11.114,2.321,14.518-1.196c1.546-1.597,1.832-4.088,2.226-6.152c0.781-4.089,1.614-8.165,2.404-12.252
		c0.443-0.288,0.392-0.964-0.157-1.158c-0.937-0.331-2.051-0.162-3.036-0.143c-0.873,0.017-1.844-0.056-2.698,0.163
		c-0.18-1.526-0.657-3.059-1.121-4.531c2.364,0.132,4.967,0.233,7.181-0.33c0.538-0.137,0.62-1.033,0.068-1.186
		c0.102,0.016,0.207-0.01,0.264-0.128c1.553-3.207,2.401-6.438,4.782-9.222c2.841-3.322,8.582-6.544,11.531-1.477
		c-1.864-0.611-3.97-0.764-5.916-0.819c-0.161-0.005-0.159,0.24,0,0.249c1.99,0.123,3.86,0.568,5.804,0.932
		c-0.009,0.028-0.024,0.048-0.031,0.08C43.918,4.587,43.908,4.712,43.903,4.837z"/>
</g>
<g>
</g>
<g>
</g>
<g>
</g>
<g>
</g>
<g>
</g>
<g>
</g>
<g>
</g>
<g>
</g>
<g>
</g>
<g>
</g>
<g>
</g>
<g>
</g>
<g>
</g>
<g>
</g>
<g>
</g>
</svg>
