<?xml version="1.0" encoding="iso-8859-1"?>
<!-- Generator: Adobe Illustrator 18.0.0, SVG Export Plug-In . SVG Version: 6.00 Build 0)  -->
<!DOCTYPE svg PUBLIC "-//W3C//DTD SVG 1.1//EN" "http://www.w3.org/Graphics/SVG/1.1/DTD/svg11.dtd">
<svg version="1.1" id="Capa_1" xmlns="http://www.w3.org/2000/svg" xmlns:xlink="http://www.w3.org/1999/xlink" x="0px" y="0px"
	 viewBox="0 0 46.052 46.052" style="enable-background:new 0 0 46.052 46.052;" xml:space="preserve">
<g>
	<path style="fill:#1D1D1B;" d="M39.947,6.819c-0.533-0.173-1.084-0.062-1.513,0.272c0.097-0.657-0.124-1.358-0.677-1.768
		c-0.347-0.257-0.759-0.36-1.163-0.332c0.089-0.765-0.321-1.64-1.056-1.962c-0.599-0.262-1.277-0.171-1.796,0.221
		c-0.228,0.173-0.397,0.391-0.554,0.619c-0.092-0.383-0.279-0.746-0.561-1.019c-0.526-0.508-1.302-0.612-1.969-0.392
		c0-0.023,0.003-0.048,0.003-0.071c-0.012-0.679-0.333-1.369-0.932-1.718c-1.014-0.589-2.284,0.014-2.664,1.034
		c-0.158-0.15-0.339-0.276-0.55-0.346c-0.772-0.256-1.504,0.171-1.819,0.82c-0.072-0.152-0.157-0.294-0.247-0.413
		c-0.442-0.584-1.175-0.947-1.911-0.768c-1.265,0.309-1.761,1.995-0.943,2.955c-0.042,0.031-0.092,0.051-0.131,0.087
		c-0.2-0.481-0.565-0.899-1.053-1.094c-0.159-0.063-0.32-0.097-0.48-0.11c0.068-0.947-0.589-1.951-1.624-1.914
		c-0.392,0.014-0.732,0.197-0.977,0.466c-0.105-0.239-0.222-0.464-0.354-0.637c-0.486-0.638-1.291-0.905-2.059-0.661
		c-1.46,0.464-1.588,2.336-0.448,3.108c-0.604-0.013-1.183,0.246-1.571,0.694c-0.484-0.72-1.509-1.039-2.354-0.513
		c-1.189,0.74-1.111,2.492-0.031,3.236c-0.193,0.144-0.359,0.325-0.483,0.538C10.013,7.129,10,7.1,9.984,7.078
		C9.676,6.652,9.182,6.361,8.647,6.379c-0.883,0.03-1.442,0.785-1.444,1.576c-0.26-0.114-0.54-0.178-0.827-0.15
		C5.283,7.912,4.487,9.15,4.849,10.163c-0.003,0.085,0.024,0.174,0.1,0.255c0,0.006-0.003,0.01-0.003,0.016
		c0.304,9.731,1.97,19.795,3.946,29.315c0.07,0.336,0.334,0.443,0.588,0.399c5.917,9.188,20.271,6.47,26.944-0.118
		c0.364,0.08,0.834-0.117,0.893-0.602c1.185-9.631,2.986-19.337,3.639-29.013c0.008-0.114-0.042-0.195-0.109-0.258
		C41.622,9.007,41.42,7.297,39.947,6.819z M35.703,6.174c0.015-0.006,0.024-0.017,0.039-0.023c0.036-0.009,0.072-0.02,0.108-0.044
		c0.55-0.357,1.395-0.161,1.488,0.568c0.042,0.329-0.209,0.578-0.167,0.891l0,0.002c-0.242-0.033-0.491-0.009-0.741,0.102
		c-0.135-0.588-0.518-1.153-1.016-1.484C35.501,6.212,35.597,6.215,35.703,6.174z M31.651,12.169
		c0.124-0.061,0.209-0.186,0.15-0.344c-0.201-0.532,0.041-1.234,0.635-1.397c0.284-0.078,0.586,0.025,0.802,0.217
		c0.288,0.255,0.27,0.548,0.394,0.881c0.112,0.299,0.577,0.443,0.752,0.109c0.209,0.061,0.463-0.011,0.51-0.265
		c0.111-0.593,0.762-1.164,1.391-0.878c0.252,0.115,0.431,0.37,0.513,0.628c0.042,0.134,0.039,0.259,0.029,0.384
		c-1.634,0.796-3.355,1.507-5.146,2.087C31.903,13.199,31.858,12.626,31.651,12.169z M32.943,5.536
		c0.557-0.372,0.887-1.149,1.48-1.429c0.304-0.144,0.737-0.068,0.924,0.235c0.245,0.397-0.078,0.716-0.246,1.05
		c-0.115,0.229-0.037,0.54,0.148,0.704c-0.264-0.141-0.552-0.223-0.851-0.204c-0.556,0.037-1.039,0.331-1.446,0.739
		c0.089-0.346-0.009-0.708-0.201-1.034C32.813,5.594,32.877,5.58,32.943,5.536z M34.093,7.134c1.107-0.507,1.074,1.025,1.484,1.617
		c-0.026,0.21,0.01,0.424,0.157,0.617c0.018,0.024,0.047,0.03,0.068,0.05c-0.63,0.081-1.183,0.492-1.478,1.06
		c-0.381-0.683-1.292-1.168-2.017-0.991c-0.458,0.112-0.81,0.41-1.029,0.788c-0.154-0.503-0.42-1.027-0.766-1.48
		c0.003-0.022,0.021-0.033,0.02-0.057c-0.018-0.42,0.368-0.972,0.846-0.753c0.253,0.116,0.333,0.373,0.363,0.63
		c-0.004,0.01-0.009,0.021-0.012,0.03c-0.043,0.122-0.012,0.229,0.053,0.314c0.054,0.236,0.353,0.375,0.539,0.176
		c0.094-0.101,0.155-0.211,0.2-0.325C32.874,8.159,33.415,7.444,34.093,7.134z M30.838,13.855c-1.208,0.361-2.437,0.672-3.68,0.912
		c-0.419-0.182-0.73-0.609-0.655-1.094c0.177-1.148,1.375-1.088,2.199-0.705c0.273,0.127,0.498-0.174,0.313-0.406
		c-0.875-1.093-2.546-0.729-3.233,0.325c-0.01-0.245-0.045-0.485-0.092-0.69c-0.01-0.044-0.039-0.067-0.065-0.093
		c0.055-0.208,0.056-0.425,0.035-0.644c0.099-0.034,0.188-0.109,0.194-0.228c0.484-0.56,0.844-0.737,1.081-0.533
		c0.062,0.122,0.127,0.244,0.205,0.354c0.22,0.309,0.714,0.13,0.624-0.263c-0.035-0.153-0.091-0.282-0.154-0.399
		c-0.267-0.89-0.073-2.162,1.208-1.736c0.944,0.314,1.223,1.379,1.689,2.136c0.129,0.21,0.356,0.25,0.542,0.183
		c-0.023,0.175-0.027,0.354,0.001,0.53c-0.964-0.482-2.224,0.377-1.924,1.471c0.047,0.171,0.314,0.181,0.356,0
		c0.114-0.497,0.81-1.123,1.327-0.752c0.199,0.143,0.292,0.401,0.292,0.639c0.001,0.302-0.174,0.425-0.282,0.68
		C30.773,13.646,30.788,13.762,30.838,13.855z M13.973,14.512c-1.536-0.417-3.022-0.991-4.432-1.74
		c0.21-0.141,0.398-0.307,0.533-0.457c0.126-0.141,0.228-0.301,0.315-0.469c0.325-0.411,0.896-0.158,1.13,0.217
		c0.144,0.23,0.189,0.5,0.264,0.753c0.005,0.041,0.016,0.077,0.035,0.109c0.046,0.128,0.103,0.251,0.198,0.355
		c0.142,0.155,0.356,0.052,0.423-0.112c0.064-0.156,0.078-0.337,0.056-0.527c0.191-0.441,0.663-0.778,1.163-0.65
		c0.592,0.152,0.707,0.74,0.656,1.257c-0.007,0.072,0.003,0.134,0.024,0.188C14.066,13.734,13.924,14.135,13.973,14.512z
		 M13.968,7.234c-0.165-0.387,0.254-0.828,0.615-0.861c0.521-0.047,0.885,0.416,1.116,0.814c0.07,0.121,0.207,0.203,0.348,0.2
		c0.125-0.003,0.194-0.036,0.285-0.118c0.023-0.021,0.034-0.058,0.051-0.088c0.136-0.034,0.254-0.16,0.223-0.342
		c-0.066-0.398-0.037-0.905,0.28-1.203c0.384-0.36,0.79-0.203,1.049,0.206c0.278,0.44,0.594,1.068,0.387,1.574
		c-0.348-0.056-0.707-0.004-1.014,0.21c-0.908,0.633-0.678,2.003,0.198,2.513c-0.227,0.046-0.448,0.122-0.638,0.256
		c-0.038-0.167-0.089-0.324-0.151-0.456c-0.294-0.625-0.901-1.07-1.591-1.147c-0.358-0.04-0.69,0.036-0.981,0.182
		c-0.021-0.411-0.133-0.827-0.311-1.207C13.979,7.655,14.062,7.456,13.968,7.234z M21.8,9.464c-0.401,0.198-0.748,0.473-0.957,0.819
		c-0.172-0.16-0.37-0.286-0.581-0.346c-0.552-0.158-1.149,0.082-1.479,0.525c-0.032-0.028-0.055-0.064-0.089-0.089
		c-0.197-0.145-0.418-0.212-0.643-0.246c0.099-0.15,0.1-0.376-0.089-0.472c-0.457-0.233-0.661-1.076-0.134-1.37
		c0.13-0.073,0.25-0.093,0.363-0.086c0.081,0.081,0.196,0.121,0.317,0.109c0.258,0.171,0.451,0.497,0.564,0.758
		c0.104,0.239,0.429,0.129,0.501-0.065c0.003-0.007,0-0.015,0.002-0.022c0.017-0.008,0.037-0.008,0.053-0.02
		c0.455-0.357,1.184-1.029,1.821-0.774c0.212,0.085,0.416,0.305,0.458,0.536c0.042,0.229-0.101,0.443-0.123,0.675
		C21.783,9.418,21.797,9.44,21.8,9.464z M14.111,11.225c0-0.059-0.01-0.12-0.04-0.185c-0.355-0.748,0.404-1.414,1.124-1.214
		c0.379,0.105,0.64,0.379,0.755,0.753c0.128,0.418-0.056,0.759-0.039,1.166c0.014,0.336,0.393,0.478,0.639,0.265
		c0.094-0.081,0.162-0.184,0.219-0.295c0.057-0.04,0.108-0.093,0.14-0.175c0.178-0.453,0.89-0.687,1.226-0.277
		c0.3,0.366,0.081,0.644-0.038,0.963c-0.181-0.031-0.358-0.032-0.512,0.004c-0.582,0.137-0.976,0.598-1.11,1.127
		c-0.36-0.24-0.793-0.368-1.2-0.351C15.324,12.259,14.803,11.509,14.111,11.225z M15.405,13.868c0.6,0.01,0.919,0.588,1.347,0.911
		c0.151,0.114,0.304,0.045,0.402-0.078c0.129-0.062,0.215-0.193,0.154-0.373c-0.143-0.421,0.052-1.056,0.531-1.177
		c0.647-0.164,0.769,0.474,1.082,0.841c0.037,0.043,0.087,0.068,0.14,0.082c-0.084,0.428-0.046,0.878,0.142,1.274
		c-1.519-0.085-3.013-0.308-4.471-0.652C14.593,14.326,15.055,13.862,15.405,13.868z M19.037,12.663
		c0.17-0.238,0.261-0.564,0.28-0.824c0.022-0.303-0.04-0.613-0.17-0.889c0.251-0.206,0.563-0.327,0.89-0.199
		c0.428,0.167,0.451,0.548,0.51,0.939c0.063,0.413,0.641,0.326,0.752,0c0.032-0.094,0.048-0.191,0.052-0.288
		c0.293-0.303,0.46-0.662,0.856-0.888c0.422-0.241,0.967-0.348,1.433-0.162c0.949,0.379,1.026,1.461,1.074,2.337
		c0.012,0.215,0.237,0.32,0.41,0.214c-0.034,0.118-0.066,0.238-0.124,0.349c-0.062,0.119-0.118,0.213-0.163,0.312
		c-0.344-0.161-0.706-0.266-1.104-0.218c-0.346,0.042-0.684,0.207-0.931,0.455c-0.361-0.974-1.446-1.672-2.516-1.254
		c-0.343,0.134-0.616,0.366-0.826,0.644C19.378,12.991,19.223,12.814,19.037,12.663z M22.642,7.372
		c-0.396-0.628,0.34-1.171,0.931-0.955c0.799,0.292,0.788,1.219,0.948,1.915c0.046,0.201,0.29,0.24,0.434,0.125
		c0.182-0.019,0.362-0.15,0.367-0.363c0.01-0.513,0.453-1.011,0.997-0.894c0.508,0.109,0.581,0.566,0.839,0.912
		c-0.438,0.417-0.584,1.033-0.509,1.651c-0.527-0.036-1.067,0.261-1.256,0.815c-0.302-0.594-0.809-1.105-1.37-1.325
		c-0.318-0.124-0.713-0.151-1.117-0.107c0.073-0.41-0.112-0.891-0.386-1.271C22.673,7.766,22.762,7.563,22.642,7.372z
		 M20.503,13.511c0.792-0.517,1.836,0.473,1.709,1.297c-0.064,0.419,0.526,0.607,0.651,0.179c0.004-0.014,0.002-0.028,0.006-0.042
		c0.2,0.06,0.424,0.012,0.547-0.226c0.402-0.779,1.2-0.456,1.869-0.199c0.122,0.047,0.222,0.01,0.288-0.063
		c0.072,0.196,0.172,0.379,0.301,0.536c-1.87,0.292-3.758,0.431-5.624,0.395c-0.01-0.02-0.013-0.041-0.027-0.061
		C19.839,14.785,19.914,13.895,20.503,13.511z M29.269,1.545c0.235,0.229,0.355,0.576,0.332,0.901
		c-0.028,0.389-0.321,0.652-0.365,1.034c-0.026,0.224,0.227,0.471,0.448,0.448c0.192-0.02,0.351-0.098,0.482-0.209
		c0.06-0.017,0.12-0.044,0.178-0.094c0.445-0.378,1.194-0.37,1.557,0.12c0.279,0.376,0.154,0.713,0.075,1.066
		c-0.168-0.103-0.341-0.184-0.51-0.222c-0.609-0.139-1.217,0.07-1.659,0.469c-0.053-0.153-0.112-0.295-0.171-0.404
		c-0.393-0.725-1.144-1.183-1.969-1.198c-0.057-0.001-0.11,0.017-0.167,0.021c0.141-0.29,0.12-0.701,0.042-0.986
		c-0.028-0.103-0.072-0.2-0.118-0.295C27.662,1.494,28.657,0.946,29.269,1.545z M28.012,4.511c0.483,0.138,0.787,0.531,0.92,1.002
		c0.102,0.362-0.007,0.831,0.303,1.094c0.069,0.058,0.165,0.102,0.257,0.068c0.031-0.012,0.05-0.033,0.078-0.048
		c0.157,0.007,0.314-0.071,0.376-0.276c0.16-0.531,0.757-0.965,1.322-0.752c0.597,0.225,0.58,0.773,0.768,1.268
		c0.083,0.22,0.29,0.313,0.483,0.28c-0.099,0.137-0.194,0.278-0.279,0.423c-0.195-0.232-0.451-0.415-0.731-0.486
		c-0.758-0.193-1.454,0.38-1.612,1.079c-0.559-0.447-1.24-0.677-2-0.458c0.002-0.321-0.151-0.667-0.337-0.902
		c-0.194-0.245-0.466-0.429-0.763-0.543c0.004-0.061,0-0.122-0.023-0.176C26.387,5.188,26.941,4.206,28.012,4.511z M22.753,1.996
		c0.35-0.143,0.756,0.044,0.99,0.312c0.314,0.359,0.213,0.744,0.291,1.172c0.048,0.266,0.408,0.324,0.582,0.154
		c0.087-0.086,0.143-0.184,0.187-0.287c0.142,0,0.29-0.088,0.292-0.258c0.008-0.579,0.724-1.201,1.244-0.728
		c0.437,0.398,0.093,0.84,0.338,1.27c0.015,0.026,0.043,0.033,0.062,0.053c-0.382,0.194-0.703,0.499-0.88,0.915
		c-0.215,0.503-0.208,1.106,0.058,1.569c-0.339,0.067-0.63,0.24-0.854,0.481c-0.287-0.628-0.865-1.119-1.557-1.237
		c0.011-0.004,0.016,0.002,0.028-0.004c0.108-0.048,0.153-0.175,0.162-0.282c0.063-0.795-0.604-1.451-1.392-1.425
		C21.95,3.174,22.122,2.253,22.753,1.996z M20.205,3.774c0.291,0.169,0.492,0.497,0.55,0.824c0.057,0.322-0.104,0.609-0.071,0.922
		c0.026,0.251,0.262,0.413,0.5,0.287c0.091-0.048,0.147-0.128,0.208-0.203c0.145-0.018,0.284-0.095,0.312-0.25
		c0.112-0.612,0.689-0.887,1.157-0.418c0.136,0.136,0.218,0.336,0.346,0.439c-1.008,0.01-1.71,0.991-1.469,1.885
		c-0.864-0.298-1.79,0.194-2.275,0.934c-0.103-0.177-0.248-0.328-0.401-0.452c0.139-0.359,0.121-0.777,0.011-1.159
		c-0.129-0.45-0.377-1.03-0.731-1.422c0.094-0.035,0.174-0.105,0.177-0.248C18.535,4.128,19.428,3.325,20.205,3.774z M15.629,0.942
		c1.073,0.109,0.893,1.489,1.266,2.172c0.121,0.221,0.42,0.224,0.583,0.068c0.162-0.05,0.291-0.199,0.219-0.391
		c-0.267-0.716,0.725-1.351,1.139-0.603c0.18,0.324-0.014,0.583,0.07,0.9c-0.608,0.351-1.041,1.019-0.977,1.754
		c-0.463-0.233-1.034-0.13-1.433,0.19c-0.034-0.691-0.67-1.377-1.302-1.676c0.143-0.141,0.164-0.42-0.045-0.549
		C14.308,2.285,14.492,0.826,15.629,0.942z M10.713,4.845c0.087-0.402,0.455-0.803,0.891-0.776c0.509,0.031,0.545,0.468,0.599,0.852
		c0.034,0.239,0.204,0.524,0.487,0.487c0.195-0.026,0.434-0.132,0.47-0.358c0.003-0.022-0.002-0.04,0-0.062
		c0.29-0.537,0.882-0.983,1.52-0.803c0.751,0.212,0.698,0.888,0.994,1.444c0.069,0.13,0.2,0.19,0.332,0.192
		c-0.022,0.1-0.037,0.203-0.043,0.307c-0.46-0.506-1.123-0.822-1.817-0.613c-0.564,0.169-0.985,0.674-1.079,1.224
		c-0.138-0.117-0.284-0.224-0.441-0.303c-0.432-0.218-0.905-0.258-1.34-0.166c-0.013-0.03-0.027-0.06-0.047-0.086
		C10.937,5.806,10.6,5.369,10.713,4.845z M8.781,7.12c0.321,0.009,0.623,0.247,0.76,0.528C9.658,7.887,9.607,8.143,9.724,8.38
		c0.073,0.147,0.29,0.161,0.398,0.051c0.069-0.07,0.1-0.156,0.129-0.242c0.07-0.036,0.127-0.093,0.152-0.182
		c0.29-1.049,1.503-1.223,2.23-0.504c0.785,0.776,0.43,1.658,0.468,2.606c0.003,0.077,0.037,0.135,0.071,0.19
		c-0.038,0.268-0.016,0.548,0.094,0.823c-0.437,0.065-0.822,0.304-1.092,0.645c-0.166-0.271-0.375-0.5-0.586-0.625
		c-0.296-0.175-0.642-0.227-0.956-0.159c0.008-0.149,0.004-0.299-0.023-0.448C10.422,9.481,9.234,8.956,8.42,9.51
		C8.368,9.168,8.201,8.824,8.017,8.586C7.982,8.54,7.935,8.504,7.896,8.461c0.006-0.037,0.027-0.068,0.017-0.108
		C7.788,7.826,8.187,7.103,8.781,7.12z M6.501,8.738c0.387-0.06,0.732,0.154,0.934,0.477c0.196,0.313,0.128,0.63,0.199,0.97
		c0.059,0.284,0.366,0.29,0.555,0.147c0.138,0.085,0.323,0.099,0.457-0.033c0.591-0.587,1.262,0.268,1.023,0.893
		c-0.125,0.329-0.417,0.548-0.717,0.709c-0.179,0.096-0.358,0.15-0.516,0.235c-0.983-0.606-1.923-1.303-2.81-2.104
		C5.595,9.473,5.907,8.831,6.501,8.738z M34.699,15.151c1.452,0.171,3.004,0.346,4.479,0.224c-0.117,0.65-0.237,1.3-0.347,1.952
		c-0.032-0.019-0.059-0.043-0.106-0.042c-3.093,0.084-6.178,0.19-9.273,0.183c-0.145,0-0.144,0.219,0,0.225
		c3.083,0.138,6.19,0.198,9.273,0.046c0.018-0.001,0.025-0.015,0.041-0.019c-0.111,0.669-0.233,1.334-0.336,2.006
		c-6.315,0.34-12.624,0.649-18.948,0.773c-0.142,0.003-0.143,0.221,0,0.222c6.293,0.01,12.591-0.1,18.874-0.474
		c-0.384,2.556-0.722,5.125-1.03,7.696c-2.92-0.581-6.257-0.287-9.28-0.292c-1.01-0.001-3.908-0.678-4.438,0.414
		c-0.035,0.073,0.069,0.136,0.109,0.064c0.47-0.839,6.811-0.096,7.647-0.074c1.977,0.05,3.954,0.106,5.931,0.141
		c-0.074,0.617-0.153,1.234-0.224,1.852c-0.027-0.022-0.054-0.045-0.097-0.049c-6.418-0.582-12.974-0.436-19.415-0.423
		c-0.1,0-0.099,0.152,0,0.155c6.46,0.168,12.956,0.666,19.415,0.62c0.029,0,0.043-0.017,0.065-0.027
		c-0.113,0.978-0.224,1.956-0.334,2.933c-4.568-0.199-9.152-0.163-13.724-0.222c-0.193-0.002-0.192,0.294,0,0.299
		c4.556,0.119,9.122,0.332,13.68,0.312c-0.12,1.068-0.241,2.134-0.362,3.197c-0.005-0.001-0.006-0.006-0.011-0.006
		c-6.403-0.612-12.828-0.878-19.256-1.037c-0.129-0.003-0.129,0.195,0,0.2c6.419,0.248,12.818,0.743,19.22,1.249
		c-0.057,0.5-0.114,1.001-0.173,1.499c-0.098,0.025-0.195,0.069-0.284,0.159c-0.052,0.053-0.108,0.098-0.161,0.15
		c-5.3-0.504-10.658-0.693-15.974-0.958c-0.143-0.007-0.141,0.21,0,0.222c5.174,0.419,10.379,0.913,15.569,1.115
		c-0.597,0.559-1.213,1.09-1.859,1.569c-0.009-0.046-0.017-0.092-0.026-0.138c-0.02-0.104-0.122-0.152-0.215-0.164
		c-0.048-0.006-0.097-0.012-0.145-0.018c-0.245-0.031-0.256,0.33-0.055,0.404c-2.462-0.908-6.406-0.392-8.985-0.491
		c-2.945-0.113-5.89-0.213-8.835-0.316c-0.12-0.004-0.119,0.179,0,0.186c3.398,0.201,6.796,0.404,10.195,0.592
		c2.159,0.119,5.246,0.843,7.444,0.379c-0.778,0.533-1.58,1.022-2.417,1.435c-4.362-0.281-8.753-0.354-13.122-0.34
		c-0.186,0.001-0.185,0.282,0,0.288c4.076,0.135,8.148,0.328,12.222,0.482c-2.239,0.956-4.665,1.458-7.229,1.376
		c-4.984-0.159-8.161-2.672-12.209-4.983c0.019-0.077,0.025-0.162,0.01-0.254c-1.531-9.341-2.616-18.734-4.06-28.078
		c9.102,8.099,24.486,5.387,34.088-0.301c-0.117,0.524-0.21,1.056-0.316,1.583c-0.855,0.014-1.716,0.115-2.567,0.183
		c-0.254,0.02-0.26,0.414,0,0.401c0.823-0.042,1.658-0.061,2.48-0.146c-0.122,0.617-0.256,1.229-0.369,1.849
		c-1.518-0.072-3.035-0.01-4.557-0.155C34.458,14.755,34.465,15.123,34.699,15.151z M40.157,9.885
		c-0.126-0.042-0.269-0.037-0.419,0.054c-0.592,0.358-1.204,0.702-1.832,1.033c-0.198-0.672-0.775-1.316-1.345-1.492
		c-0.042-0.013-0.084-0.017-0.127-0.026c0.079-0.072,0.138-0.168,0.136-0.312c-0.008-0.901,0.897-0.593,1.474-0.321
		c0.002,0.002,0.002,0.006,0.004,0.008c0.052,0.061,0.12,0.083,0.19,0.088c0.013,0.007,0.03,0.015,0.043,0.021
		c0.324,0.168,0.711-0.266,0.409-0.53c-0.007-0.006-0.014-0.012-0.021-0.018c0.048-0.19,0.111-0.372,0.279-0.507
		c0.3-0.242,0.693-0.148,0.965,0.089C40.465,8.452,40.38,9.258,40.157,9.885z"/>
	<path style="fill:#1D1D1B;" d="M37.148,24.268c-3.626-0.039-7.213,0.231-10.847,0.012c-0.202-0.012-0.199,0.298,0,0.313
		c3.568,0.274,7.34,0.535,10.894,0.016C37.393,24.581,37.338,24.27,37.148,24.268z"/>
</g>
<g>
</g>
<g>
</g>
<g>
</g>
<g>
</g>
<g>
</g>
<g>
</g>
<g>
</g>
<g>
</g>
<g>
</g>
<g>
</g>
<g>
</g>
<g>
</g>
<g>
</g>
<g>
</g>
<g>
</g>
</svg>
