<?xml version="1.0" encoding="iso-8859-1"?>
<!-- Generator: Adobe Illustrator 18.0.0, SVG Export Plug-In . SVG Version: 6.00 Build 0)  -->
<!DOCTYPE svg PUBLIC "-//W3C//DTD SVG 1.1//EN" "http://www.w3.org/Graphics/SVG/1.1/DTD/svg11.dtd">
<svg version="1.1" id="Capa_1" xmlns="http://www.w3.org/2000/svg" xmlns:xlink="http://www.w3.org/1999/xlink" x="0px" y="0px"
	 viewBox="0 0 49.043 49.043" style="enable-background:new 0 0 49.043 49.043;" xml:space="preserve">
<g>
	<path style="fill:#1D1D1B;" d="M12.652,15.536c-0.005-0.309-0.496-0.401-0.559-0.076c-0.001,0.007-0.002,0.014-0.004,0.02
		c-3.698-1.122-8.016-0.911-11.735-0.112c-0.159,0.034-0.233,0.165-0.242,0.302C0.086,15.73,0.07,15.798,0.07,15.877
		C0.056,21.65-0.172,27.449,0.279,33.21c0.017,0.222,0.187,0.323,0.351,0.314c0.009,0.009,0.014,0.021,0.025,0.028
		c0.49,0.35,1.165,0.311,1.749,0.361c0.735,0.062,1.473,0.146,2.211,0.164c0.257,0.006,0.416-0.129,0.488-0.305
		c0.233,0.097,0.534,0.018,0.62-0.273c0.287-0.964,0.138-2.047,0.098-3.045c-0.032-0.808-0.08-1.615-0.144-2.42
		c0.965-0.029,1.929-0.068,2.893-0.118c0.923-0.048,1.896,0.013,2.708-0.471c0.03-0.018,0.041-0.045,0.062-0.068
		c0.006,0.023,0.009,0.049,0.015,0.072c0.067,0.256,0.451,0.256,0.519,0c0.145-0.55,0.232-1.138,0.288-1.733
		c0.015-0.038,0.021-0.073,0.013-0.114c0.026-0.309,0.036-0.619,0.043-0.927c0.088-0.041,0.105-0.176,0.009-0.217
		c0.003-0.367-0.008-0.73-0.032-1.082c-0.013-0.18-0.085-0.315-0.187-0.408c0.001-0.157-0.083-0.309-0.287-0.368
		c-1.078-0.309-2.258-0.081-3.358,0.037c-0.911,0.098-1.825,0.194-2.732,0.329c0.039-1.004-0.091-2.037-0.197-3.043
		c1.96,0.691,4.5,0.563,6.469-0.045c0.303,0.326,0.943,0.234,0.941-0.336C12.839,18.207,12.675,16.873,12.652,15.536z M1.667,18.677
		c3.361-0.251,6.697-0.145,10.056-0.202c-0.004,0.222-0.006,0.443,0.005,0.664c-1.008-0.051-2.015-0.055-3.024-0.091
		c-1.187-0.043-2.394-0.329-3.574-0.248c-0.415,0.028-0.686,0.617-0.311,0.869c-0.024,0.241-0.05,0.487-0.077,0.731
		c-0.907-0.125-1.865,0.016-2.755,0.188c-0.186,0.036-0.105,0.31,0.078,0.281c0.886-0.14,1.758-0.114,2.646-0.17
		c-0.065,0.608-0.123,1.219-0.128,1.824c-0.73-0.047-1.482,0.014-2.207,0.028c-0.127,0.002-0.127,0.194,0,0.197
		c0.728,0.014,1.483,0.075,2.216,0.027c0.003,0.201,0.002,0.403,0.021,0.601c0.045,0.49,0.567,0.605,0.84,0.348
		c1.05,0.045,2.11,0.029,3.16,0.013c0.792-0.013,1.631,0.023,2.414-0.138c-0.012,0.226-0.013,0.457-0.014,0.688
		c-1.527-0.151-3.117-0.094-4.612,0.017c-0.134,0.01-0.137,0.212,0,0.211c1.542-0.009,3.078,0.103,4.615,0.153
		c0.006,0.246,0.013,0.493,0.031,0.74c-2.946-0.105-5.91,0.014-8.847,0.207c-0.179,0.012-0.182,0.288,0,0.281
		c2.965-0.104,5.922-0.067,8.886-0.063c0.037,0.348,0.082,0.693,0.148,1.03c-0.013-0.007-0.021-0.02-0.035-0.026
		c-0.898-0.36-1.919-0.119-2.859-0.024c-0.915,0.093-1.828,0.198-2.741,0.312c-0.003-0.027-0.004-0.054-0.007-0.081
		c-0.046-0.399-0.577-0.4-0.622,0c-0.007,0.063-0.009,0.125-0.016,0.188c-0.1,0.049-0.162,0.133-0.205,0.224
		c-0.859-0.091-1.749-0.022-2.586,0.104c-0.136,0.021-0.105,0.258,0.033,0.242c0.866-0.104,1.69-0.06,2.53,0.011
		c0.031,0.079,0.08,0.149,0.162,0.192c-0.036,0.439-0.054,0.88-0.079,1.32c-0.851-0.096-1.749-0.017-2.606-0.014
		c-0.15,0.001-0.149,0.227,0,0.232c0.85,0.029,1.74,0.133,2.589,0.066c-0.015,0.282-0.039,0.563-0.051,0.845
		c-0.006,0.142-0.014,0.286-0.022,0.43c-0.011-0.008-0.017-0.019-0.034-0.023c-0.792-0.183-1.68-0.127-2.49-0.165
		c-0.11-0.005-0.106,0.158,0,0.169c0.798,0.082,1.66,0.269,2.461,0.207c0.022-0.002,0.038-0.013,0.054-0.025
		c-0.014,0.251-0.022,0.505-0.027,0.757c-0.706-0.082-1.429-0.101-2.135-0.109c-0.125-0.001-0.118,0.175,0,0.19
		c0.7,0.086,1.419,0.167,2.129,0.179c0.001,0.317,0.017,0.632,0.065,0.94c-0.042-0.013-0.08-0.032-0.128-0.035
		c-0.734-0.055-1.475-0.044-2.211-0.055c-0.486-0.007-0.99-0.06-1.448,0.083c0.393-5.643,0.147-11.319,0.097-16.97
		c3.673-0.207,7.28-0.01,10.945-0.042c-0.033,0.181-0.056,0.363-0.084,0.545c-2.549-0.244-5.229-0.029-7.787,0.033
		c-0.179,0.004-0.179,0.273,0,0.278c2.54,0.061,5.201,0.272,7.734,0.036c-0.055,0.41-0.1,0.821-0.122,1.233
		c-3.329-0.333-6.756-0.08-10.071,0.25C1.468,18.381,1.462,18.693,1.667,18.677z"/>
	<path style="fill:#1D1D1B;" d="M23.114,14.523c-0.248-0.029-0.392,0.183-0.407,0.401c-4.643-1.325-8.834,3.951-9.574,8.18
		c-0.913,5.22,2.421,10.491,7.802,11.254C32.874,36.049,35.276,15.954,23.114,14.523z M28.739,25.621
		c0.518,0.153,1.112,0.253,1.653,0.141c-0.026,0.123-0.043,0.245-0.074,0.369c-0.106,0.421-0.25,0.836-0.411,1.246
		c-0.997-0.092-2.045-0.013-3.043,0.015c-0.044,0.001-0.075,0.021-0.1,0.045c0.795-1.085,1.101-2.504,0.709-4.016
		c-0.737-2.838-3.339-4.192-6.076-3.744c-0.035-0.006-0.065-0.02-0.105-0.02c-2.896,0-3.931,3.374-3.592,5.786
		c0.442,3.149,3.171,4.453,6.117,3.846c1.263-0.26,2.259-0.928,2.927-1.825c-0.057,0.091-0.021,0.238,0.121,0.242
		c0.95,0.027,1.946,0.096,2.9,0.024c-0.282,0.648-0.624,1.276-1.031,1.86c-0.024-0.046-0.06-0.083-0.119-0.081
		c-2.165,0.098-4.301,0.258-6.472,0.193c-0.132-0.004-0.13,0.196,0,0.204c2.126,0.131,4.31,0.186,6.428-0.095
		c-0.42,0.571-0.892,1.102-1.417,1.567c-0.004-0.054-0.04-0.105-0.115-0.109c-2.604-0.13-5.265,0.147-7.869,0.258
		c-0.115,0.005-0.116,0.181,0,0.179c2.587-0.037,5.238,0.083,7.812-0.187c-1.492,1.261-3.35,2.029-5.4,1.89
		c-11.217-0.758-9.029-18.718,2.03-17.583c0.167,0.017,0.257-0.139,0.252-0.287c1.137,0.292,2.168,0.768,3.064,1.39
		c-1.534-0.176-3.163-0.093-4.637,0.201c-0.105,0.021-0.081,0.191,0.025,0.186c1.768-0.081,3.466-0.017,5.22,0.073
		c0.603,0.501,1.132,1.074,1.571,1.708c-1.577-0.356-3.274-0.35-4.866-0.23c-0.149,0.011-0.153,0.242,0,0.235
		c1.738-0.069,3.39,0.172,5.104,0.371c0.318,0.515,0.591,1.059,0.79,1.639c-0.78-0.091-1.613,0.007-2.396,0.027
		c-0.145,0.004-0.145,0.222,0,0.225c0.8,0.02,1.654,0.124,2.449,0.023c0.017-0.002,0.024-0.013,0.037-0.018
		c0.201,0.659,0.323,1.353,0.356,2.074c-0.005-0.002-0.006-0.007-0.012-0.008c-0.639-0.121-1.312-0.117-1.959-0.158
		c-0.155-0.01-0.15,0.223,0,0.239c0.634,0.068,1.287,0.186,1.925,0.175c0.025,0,0.042-0.014,0.06-0.026
		c0.012,0.592-0.033,1.201-0.146,1.823c-0.562-0.008-1.078,0.024-1.637-0.124C28.644,25.319,28.574,25.572,28.739,25.621z
		 M24.002,27.95c-1.649,0.386-3.714,0.235-4.662-1.359c-1.094-1.839-0.665-5.654,1.952-5.871c0.273-0.023,0.433-0.203,0.487-0.408
		c2.002-0.043,3.927,1.172,4.513,3.163C26.85,25.371,26.057,27.469,24.002,27.95z"/>
	<path style="fill:#1D1D1B;" d="M32.952,15.176c-0.165,0.019-0.276,0.11-0.343,0.222c-0.208-0.097-0.505,0.006-0.528,0.312
		c-0.439,5.921-0.038,11.918,0.472,17.823c0.036,0.417,0.466,0.566,0.758,0.449c0.066,0.099,0.162,0.177,0.303,0.205
		c3.305,0.657,7.634,0.359,10.764-0.986c2.944-1.265,4.307-5.356,4.61-8.317C49.898,15.972,39.555,14.416,32.952,15.176z
		 M47.968,25.816c-0.747-0.068-1.534,0.026-2.246,0.209c-0.122,0.031-0.067,0.2,0.05,0.183c0.727-0.103,1.428-0.101,2.146-0.096
		c-0.131,0.634-0.318,1.247-0.563,1.827c-0.995-0.024-2.011,0.108-3.001,0.175c-0.17,0.011-0.173,0.275,0,0.267
		c0.948-0.042,1.923-0.032,2.87-0.144c-0.297,0.64-0.66,1.239-1.095,1.775c-1.518-0.142-3.136,0.105-4.602,0.405
		c-0.138,0.028-0.079,0.235,0.058,0.21c1.441-0.257,2.839-0.25,4.269-0.304c-0.386,0.426-0.808,0.817-1.285,1.144
		c-2.53,0.085-5.006,0.426-7.558,0.323c-0.13-0.005-0.127,0.19,0,0.2c2.203,0.174,4.638,0.298,6.865-0.109
		c-0.535,0.283-1.112,0.508-1.738,0.655c-2.749,0.641-5.574,0.849-8.373,0.532c-0.081-0.009-0.153,0.001-0.218,0.024
		c-0.451-5.693-0.485-11.378-0.728-17.079c0.041,0.012,0.082,0.026,0.133,0.026c2.773,0.044,6.525,0.091,9.605,1.081
		c-1.377-0.12-2.764-0.108-4.147,0.002c-0.156,0.013-0.159,0.255,0,0.246c1.812-0.099,3.589,0.023,5.381,0.223
		c0.86,0.382,1.642,0.854,2.294,1.455c-1.637-0.123-3.327,0.043-4.92,0.294c-0.193,0.03-0.109,0.318,0.08,0.292
		c1.787-0.25,3.504-0.189,5.273-0.138c0.479,0.537,0.877,1.15,1.151,1.872c-1.153-0.105-2.338-0.077-3.487-0.111
		c-0.168-0.005-0.166,0.249,0,0.26c1.185,0.076,2.407,0.227,3.601,0.216c0.179,0.574,0.313,1.187,0.343,1.884
		c-0.017-0.017-0.032-0.036-0.061-0.043c-0.901-0.216-1.977-0.027-2.871,0.159c-0.141,0.029-0.079,0.235,0.059,0.214
		c0.94-0.147,1.839-0.037,2.774-0.089c0.044-0.003,0.077-0.025,0.101-0.055c0.004,0.165,0.01,0.329,0.005,0.501
		C48.117,24.818,48.056,25.321,47.968,25.816z"/>
	<path style="fill:#1D1D1B;" d="M38.45,19.64c-0.318-0.052-0.581,0.175-0.64,0.434c-0.008-0.043-0.015-0.088-0.024-0.13
		c-0.086-0.441-0.784-0.335-0.777,0.105c0.053,3.157-0.09,6.535,0.274,9.661c0.035,0.299,0.342,0.497,0.6,0.476
		c0.024,0.008,0.039,0.027,0.067,0.028c2.639,0.1,6.379-1.175,6.585-4.277C44.753,22.656,41.392,20.124,38.45,19.64z M38.276,29.554
		c0.459-2.895,0.134-6.238-0.403-9.134c0.042,0.061,0.097,0.118,0.179,0.164c1.991,1.119,4.974,1.801,5.115,4.615
		C43.301,27.889,40.461,28.885,38.276,29.554z"/>
</g>
<g>
</g>
<g>
</g>
<g>
</g>
<g>
</g>
<g>
</g>
<g>
</g>
<g>
</g>
<g>
</g>
<g>
</g>
<g>
</g>
<g>
</g>
<g>
</g>
<g>
</g>
<g>
</g>
<g>
</g>
</svg>
