<?xml version="1.0" encoding="iso-8859-1"?>
<!-- Generator: Adobe Illustrator 18.0.0, SVG Export Plug-In . SVG Version: 6.00 Build 0)  -->
<!DOCTYPE svg PUBLIC "-//W3C//DTD SVG 1.1//EN" "http://www.w3.org/Graphics/SVG/1.1/DTD/svg11.dtd">
<svg version="1.1" id="Capa_1" xmlns="http://www.w3.org/2000/svg" xmlns:xlink="http://www.w3.org/1999/xlink" x="0px" y="0px"
	 viewBox="0 0 49.615 49.615" style="enable-background:new 0 0 49.615 49.615;" xml:space="preserve">
<g>
	<path style="fill:#1D1D1B;" d="M32.966,14.154c0.066-0.13,0.057-0.292-0.101-0.37c-1.482-0.723-3.041-0.005-4.475,0.595
		c-1.639,0.686-3.192,1.552-4.695,2.496c0.318-1.57,0.658-3.135,1-4.7c0.165-0.756,1.184-6.697,2.647-5.983
		C27.36,6.2,27.38,6.193,27.399,6.198c0.511,1.484-1.378,3.035-0.746,4.657c0.39,1,1.695,1.537,2.485,0.669
		c0.001-0.001,0.001-0.002,0.002-0.003c5.677-0.585,5.271-11.208-0.706-11.514c-3.472-0.178-6.657,2.923-8.328,5.623
		c-2.691,4.348-2.929,9.515-3.047,14.484c-0.464-0.108-0.976-0.211-1.36-0.068c-0.659,0.247-0.602,1.136-0.678,1.71
		c-0.085,0.644-0.209,1.358,0.35,1.832c0.374,0.318,0.897,0.36,1.368,0.252c-1.235,6.519-1.526,29.576,10.09,25.234
		c4.412-1.649,5.242-7.285,5.038-11.356c-0.292-5.808-2.787-11.073-6.874-15.121c1.567-0.494,3.127-1.021,4.657-1.617
		c1.331-0.519,3.034-0.978,4.122-1.931C35.539,17.504,34.379,15.446,32.966,14.154z M28.444,29.388
		c-0.43,0.007-0.865,0.055-1.292,0.075c-0.555,0.026-1.113,0.005-1.667,0.049c-0.085,0.007-0.117,0.14-0.021,0.159
		c0.936,0.186,2.175,0.261,3.149,0.049c0.408,0.867,0.761,1.765,1.051,2.7c-1.047-0.067-2.181,0.114-3.182,0.378
		c-0.478-1.741-1.211-3.432-1.85-5.097c0.962,0.048,1.947,0.084,2.877-0.017C27.844,28.238,28.157,28.805,28.444,29.388z
		 M25.541,38.419c-0.426-0.348-0.851-0.695-1.276-1.043c-0.076-0.635-0.143-1.271-0.201-1.908c-0.087-0.955-0.152-1.912-0.202-2.87
		c-0.059-1.105-0.418-3.087-0.248-4.409c0.495,1.351,1.058,2.679,1.497,4.05C25.375,33.063,26.736,37.897,25.541,38.419z
		 M24.244,21.973c-0.118-0.023-0.236-0.001-0.339,0.05c-2.051-0.105-4.144,0.118-6.156,0.442c-0.151,0.024-0.117,0.289,0.037,0.269
		c1.948-0.253,3.862-0.265,5.804-0.264c-0.014,0.137,0.024,0.283,0.152,0.414c0.597,0.608,1.155,1.24,1.685,1.888
		c-2.39-0.194-4.826-0.234-7.21-0.169c-0.115,0.003-0.111,0.166,0,0.176c2.519,0.222,5.058,0.314,7.585,0.461
		c0.524,0.672,1.017,1.362,1.468,2.077c-0.908-0.076-1.857-0.041-2.785,0.005c-0.003-0.009-0.007-0.018-0.01-0.026
		c-0.17-0.455-0.716-0.463-0.973-0.206c-0.184-0.111-0.493-0.026-0.582,0.168c-0.478,1.042-0.305,2.299-0.29,3.423
		c0.026,1.918,0.166,3.836,0.374,5.742c0.133,1.218,0.132,4.358,2.183,3.925c1.646-0.348,1.806-2.923,1.8-4.209
		c-0.005-1.065-0.186-2.107-0.455-3.133c1.088-0.19,2.137-0.218,3.228-0.27c0.05,0.172,0.11,0.339,0.157,0.514
		c0.153,0.58,0.315,1.35,0.454,2.222c-0.874,0.037-1.753,0.141-2.617,0.251c-0.161,0.021-0.172,0.268,0,0.26
		c0.884-0.041,1.782-0.094,2.663-0.212c0.132,0.89,0.238,1.873,0.284,2.882c-1.155,0.005-2.322,0.096-3.47,0.152
		c-0.182,0.009-0.184,0.287,0,0.285c1.153-0.014,2.328,0.005,3.486-0.061c0.021,0.705,0.013,1.417-0.04,2.109
		c-3.591-0.084-7.199,0.06-10.789,0.089c-0.127,0.001-0.127,0.196,0,0.197c3.578,0.029,7.175,0.172,10.754,0.09
		c-0.113,1.126-0.343,2.19-0.748,3.071c-2.404,0.294-4.767,0.552-7.207,0.494c-0.116-0.003-0.115,0.173,0,0.179
		c2.325,0.131,4.707,0.096,7.015-0.301c-0.357,0.646-0.815,1.182-1.416,1.533c-2.416-0.03-4.832-0.06-7.247-0.091
		c-0.604-0.729-1.099-1.504-1.505-2.314c3.422-0.009,7.256,0.394,10.57-0.375c0.171-0.04,0.135-0.314-0.042-0.307
		c-3.549,0.126-7.1,0.318-10.651,0.45c-0.41-0.867-0.711-1.778-0.899-2.736c-0.655-2.188-0.796-4.589-0.962-6.855
		c-0.266-3.641,0.069-7.234,0.082-10.872c0.001-0.172-0.103-0.29-0.235-0.348c-0.036-0.248-0.207-0.454-0.536-0.412
		c-0.116,0.015-0.626,0.147-0.72,0.029c-0.116-0.145,0.097-0.93,0.118-1.089c0.014-0.107,0.093-0.357,0.076-0.482
		c0.043-0.005,0.087-0.011,0.13-0.016c0.387-0.046,0.772-0.094,1.158-0.147c0.23-0.031,0.288-0.289,0.215-0.483
		c0.003-0.056,0.007-0.113,0.011-0.169c3.472,0.148,6.948,0.137,10.42-0.018C26.929,20.836,25.592,21.417,24.244,21.973z
		 M32.753,18.256c-0.623,0.566-1.821,0.862-2.559,1.184c-0.439,0.192-0.882,0.372-1.321,0.562c0.015-0.142-0.059-0.29-0.242-0.279
		c-3.589,0.214-7.173,0.306-10.768,0.302c0.289-4.684,0.704-9.741,3.343-13.752c1.245-1.892,3.63-4.814,6.071-4.993
		c1.477-0.109,2.769,0.36,3.617,1.33c-1.117-0.023-2.255,0.038-3.361,0.093c-0.059,0.003-0.135,0.044-0.145,0.11
		c-0.043,0.28,0.035,0.437,0.324,0.481c0.149,0.023,0.217-0.2,0.064-0.231c0.139,0.028,0.504-0.038,0.697-0.034
		c0.365,0.007,0.731,0.015,1.096,0.021c0.553,0.01,1.11,0.026,1.664,0.013c0.208,0.327,0.384,0.686,0.5,1.099
		c0.03,0.106,0.035,0.235,0.058,0.348c-0.982-0.025-2.021,0.159-2.988,0.24c-0.209,0.018-0.214,0.343,0,0.331
		c0.988-0.057,2.064-0.021,3.051-0.191c0.064,0.486,0.095,0.997,0.05,1.531c-0.37-0.032-0.735,0.059-1.104,0.114
		c-0.502,0.075-1.004,0.148-1.506,0.221c-0.159,0.023-0.123,0.299,0.038,0.283c0.472-0.048,0.943-0.096,1.414-0.144
		c0.367-0.037,0.763-0.034,1.116-0.144c-0.069,0.53-0.177,1.06-0.373,1.552c-1.018,0.273-1.925,0.475-3.021,0.272
		c-0.127-0.024-0.183,0.165-0.054,0.197c0.895,0.219,1.964,0.273,2.877-0.027c-0.563,1.097-1.514,1.926-2.949,2.02
		c-0.117,0.008-0.203,0.055-0.266,0.119c-0.545-0.17-0.513-1.246-0.358-1.76c0.162-0.537,0.429-1.051,0.523-1.608
		c0.126-0.748-0.031-1.418-0.517-1.994c-0.067-0.079-0.149-0.093-0.229-0.081c-0.889-0.822-1.944-0.001-2.445,1.05
		c-0.036,0.075-0.063,0.157-0.098,0.233c-0.854-0.112-1.761-0.055-2.62-0.019c-0.212,0.009-0.213,0.321,0,0.331
		c0.816,0.035,1.675,0.083,2.492-0.008c-0.238,0.564-0.453,1.145-0.632,1.751c-0.711-0.202-1.479-0.208-2.208-0.133
		c-0.195,0.02-0.2,0.325,0,0.309c0.728-0.057,1.407,0.03,2.122,0.135c-0.159,0.569-0.303,1.147-0.422,1.737
		c-0.918,0.039-1.821,0.116-2.748,0.068c-0.201-0.01-0.195,0.29,0,0.309c0.868,0.087,1.792,0.128,2.672,0.003
		c-0.091,0.48-0.174,0.964-0.245,1.45c-0.987,0.049-1.978,0.255-2.959,0.375c-0.104,0.013-0.106,0.176,0,0.165
		c0.967-0.101,1.962-0.125,2.92-0.288c-0.108,0.783-0.195,1.566-0.267,2.338c-0.943,0.054-1.885,0.162-2.824,0.247
		c-0.129,0.012-0.132,0.214,0,0.204c0.933-0.068,1.872-0.116,2.803-0.215c-0.074,0.823-0.136,1.634-0.192,2.407
		c-1.103,0.107-2.205,0.215-3.304,0.319c-0.133,0.013-0.138,0.217,0,0.211c1.234-0.051,2.472-0.099,3.712-0.15
		c0.163,0.092,0.366,0.11,0.58-0.019c0.004-0.003,0.009-0.005,0.014-0.008c3.119-0.131,6.243-0.293,9.333-0.633
		c0.025-0.003,0.035-0.021,0.056-0.03C33.145,17.813,32.992,18.04,32.753,18.256z M33.333,17.216
		c-0.036-0.034-0.083-0.059-0.151-0.058c-2.798,0.074-5.604,0.298-8.405,0.555c0.974-0.559,1.96-1.096,2.973-1.58
		c1.295-0.619,2.693-1.423,4.13-1.698C32.564,15.182,33.455,16.221,33.333,17.216z"/>
	<path style="fill:#1D1D1B;" d="M32.258,15.62c-0.752,0.126-1.461,0.223-2.225,0.159c-0.229-0.019-0.219,0.324,0,0.352
		c0.772,0.097,1.581,0.101,2.331-0.127C32.613,15.927,32.506,15.578,32.258,15.62z"/>
</g>
<g>
</g>
<g>
</g>
<g>
</g>
<g>
</g>
<g>
</g>
<g>
</g>
<g>
</g>
<g>
</g>
<g>
</g>
<g>
</g>
<g>
</g>
<g>
</g>
<g>
</g>
<g>
</g>
<g>
</g>
</svg>
