<?xml version="1.0" encoding="iso-8859-1"?>
<!-- Generator: Adobe Illustrator 18.0.0, SVG Export Plug-In . SVG Version: 6.00 Build 0)  -->
<!DOCTYPE svg PUBLIC "-//W3C//DTD SVG 1.1//EN" "http://www.w3.org/Graphics/SVG/1.1/DTD/svg11.dtd">
<svg version="1.1" id="Capa_1" xmlns="http://www.w3.org/2000/svg" xmlns:xlink="http://www.w3.org/1999/xlink" x="0px" y="0px"
	 viewBox="0 0 49.377 49.377" style="enable-background:new 0 0 49.377 49.377;" xml:space="preserve">
<g>
	<path style="fill:#1D1D1B;" d="M38.052,10.605c-0.464-2.321-1.198-8.857-3.764-10.109c0.001-0.271-0.163-0.531-0.496-0.493
		C28.396,0.617,23.015,2.42,17.82,3.954c-2.809,0.829-5.843,1.462-6.775,4.56c-0.022,0.074-0.009,0.14,0.023,0.193
		c-0.394,2.209,0.858,4.75,1.434,6.901c1.414,5.281,2.993,10.523,4.379,15.81c1.231,4.697,1.708,10.171,3.746,14.597
		c0.605,1.315,1.27,2.213,2.332,2.602c-0.152,0.308,0.017,0.789,0.435,0.757c3.218-0.242,9.054-0.678,10.744-4.122
		c0.977-1.99,0.154-4.379-0.305-6.377c-0.741-3.225-1.453-6.468-2.358-9.652c2.447-0.836,5.47-2.193,6.476-4.714
		c0.961-2.408-0.262-5.14-1.842-7.019C38.769,16.225,38.602,13.353,38.052,10.605z M31.224,45.828c-0.01,0-0.016-0.007-0.026-0.005
		c-1.223,0.17-2.416,0.396-3.619,0.577c1.214-0.329,2.215-0.817,2.552-1.946c0.791-0.036,1.59-0.073,2.376-0.16
		C32.193,44.906,31.756,45.41,31.224,45.828z M24.811,21.694c0.164,0.068,0.31-0.009,0.405-0.133
		c0.84,0.081,1.639-0.062,2.481-0.243c1.021-0.219,2.148-0.377,3.112-0.814c0.005,0.001,0.007,0.005,0.012,0.006
		c0.87,0.077,1.059,1.746,1.181,2.36c0.104,0.525,0.159,1.055,0.221,1.585c-1.915,0.458-3.853,1.03-5.607,1.92
		c-0.425,0.216-0.402,0.733-0.149,1.038c-0.026,0.04-0.052,0.082-0.046,0.144c0.024,0.237,0.061,0.472,0.089,0.709
		c-0.063,0-0.126-0.002-0.188-0.002c-0.146-0.001-0.143,0.215,0,0.225c0.072,0.005,0.146,0.009,0.218,0.014
		c0.322,2.606,0.837,5.181,1.337,7.759c0.266,1.375,0.711,2.892,0.827,4.288c0.299,3.607-1.319,4.577-4.311,5.393
		c-2.568-5.271-3.466-12.107-4.923-17.701c-0.748-2.87-1.465-5.749-2.221-8.617c-0.523-1.984-3.252-8.368-2.049-10.463
		c2.22-1.11,4.837-1.643,7.186-2.366c2.852-0.878,5.632-1.891,8.634-2.065c2.044,2.665,1.716,6.471,2.056,9.672
		c-3.079,0.594-6.555,1.471-9.328,2.843c-0.059,0.029-0.1,0.073-0.133,0.123C22.163,18.035,23.698,21.232,24.811,21.694z
		 M31.495,33.863c-0.85-0.075-1.751,0.062-2.576,0.223c-0.126,0.025-0.07,0.209,0.052,0.19c0.869-0.134,1.716-0.104,2.583-0.146
		c0.13,0.586,0.257,1.172,0.39,1.757c-0.778,0.069-1.483,0.127-2.263-0.091c-0.153-0.043-0.216,0.19-0.065,0.237
		c0.748,0.236,1.622,0.347,2.384,0.103c0.216,0.957,0.431,1.914,0.635,2.873c-0.648,0.079-1.277,0.163-1.941,0.12
		c-0.15-0.01-0.146,0.218,0,0.232c0.654,0.064,1.351,0.07,1.997-0.091c0.048,0.229,0.101,0.457,0.148,0.687
		c0.137,0.669,0.184,1.259,0.186,1.811c-0.895,0.029-1.79,0.083-2.682,0.141c-0.17,0.011-0.173,0.273,0,0.267
		c0.895-0.03,1.793-0.066,2.687-0.125c-0.025,0.721-0.152,1.353-0.377,1.899c-0.822,0.041-1.65,0.143-2.471,0.248
		c0.058-0.293,0.089-0.611,0.06-0.988c-0.363-4.722-1.68-10.011-2.985-14.66c1.058,0.072,2.119,0.123,3.179,0.15
		c-0.033,0.188,0,0.385,0.115,0.52c0.098,0.563,0.211,1.124,0.322,1.684c-0.41,0-0.822,0.014-1.23,0.021
		c-0.133,0.002-0.134,0.205,0,0.207c0.424,0.007,0.852,0.022,1.278,0.02C31.105,32.058,31.296,32.962,31.495,33.863z M36.258,24.934
		c-1.307,1.687-3.489,2.05-5.217,3.128c-0.226-0.139-0.547,0.011-0.599,0.305c-1.086-0.055-2.174-0.084-3.26-0.093
		c-0.06-0.212-0.12-0.431-0.18-0.641c0.046-0.004,0.09,0,0.138-0.015c1.809-0.582,3.57-1.386,5.313-2.159
		c0.284,0.299,0.909,0.079,0.947-0.398c0.01-0.128,0.014-0.279,0.013-0.439c0.017,0.022,0.042,0.039,0.079,0.041
		c0.919,0.047,1.952,0.139,2.906,0.063C36.352,24.795,36.311,24.866,36.258,24.934z M36.992,22.479
		c-0.925-0.063-1.878,0.012-2.8,0.036c-0.152,0.004-0.152,0.232,0,0.236c0.925,0.024,1.883,0.1,2.812,0.036
		c-0.019,0.562-0.143,1.111-0.415,1.624c-1.006-0.108-2.117-0.009-3.097,0.042c-0.037,0.002-0.062,0.019-0.079,0.042
		c-0.032-1.542-0.557-4.178-2.039-4.597c-0.04-0.183-0.187-0.345-0.405-0.356c-2.007-0.1-3.891,1.142-5.885,1.184
		c-0.469-0.794-1.456-2-1.086-2.666c3.252-0.432,6.722-1.7,9.745-2.989c0.247-0.021,0.468-0.186,0.453-0.522
		c-0.149-3.233,0.107-8.096-2.591-10.458c-0.054-0.174-0.199-0.322-0.441-0.339c-0.035-0.024-0.064-0.053-0.099-0.076
		c-0.171-0.113-0.34-0.053-0.444,0.07c-3.118-0.054-6.168,1.216-9.111,2.12c-2.146,0.66-4.554,1.115-6.426,2.394
		c-0.061,0.001-0.124,0.011-0.189,0.047c-1.375,0.761-1.168,1.554-1.02,3.022c0.447,4.416,2.401,9.11,3.593,13.366
		c1.245,4.443,2.472,8.889,3.625,13.357c0.715,2.77,1.044,6.014,2.852,8.309c-0.096,0.392,0.201,0.89,0.703,0.74
		c0.268-0.08,0.543-0.149,0.82-0.214c1.635,0.007,3.411-0.099,4.989-0.548c-1.797,1.031-4.27,1.439-6.583,1.915
		c-2.807-1.669-3.262-6.687-4.115-9.62c-0.99-3.401-2.043-6.773-2.882-10.216c-0.763-3.126-1.534-6.249-2.341-9.364
		c-0.797-3.074-3.098-8.423-2.019-11.557c2.582-2.371,7.688-2.822,10.748-3.652c3.443-0.934,6.951-1.697,10.363-2.727
		c0.497,0.352,0.896,1.128,1.223,2.036c-2.056-0.404-4.168-0.493-6.256-0.384c-0.123,0.006-0.125,0.195,0,0.193
		c2.169-0.021,4.265,0.232,6.396,0.596c0.118,0.362,0.225,0.738,0.324,1.111c-0.602-0.094-1.213-0.138-1.819-0.198
		c-0.15-0.015-0.146,0.214,0,0.232c0.625,0.076,1.252,0.172,1.881,0.207c0.208,0.816,0.375,1.602,0.512,2.18
		c-0.683,0.008-1.33,0.01-2.017-0.127c-0.171-0.034-0.245,0.217-0.073,0.264c0.684,0.188,1.454,0.283,2.165,0.168
		c0.007,0.026,0.014,0.057,0.021,0.082c0.187,0.703,0.502,1.758,0.741,2.903c-0.782-0.083-1.577-0.106-2.358-0.151
		c-0.193-0.011-0.19,0.283,0,0.299c0.803,0.068,1.62,0.169,2.429,0.192c0.145,0.761,0.246,1.552,0.244,2.299
		c-0.747-0.102-1.597,0.011-2.324,0.022c-0.19,0.003-0.19,0.292,0,0.295c0.722,0.012,1.565,0.122,2.307,0.025
		c-0.029,0.585-0.117,1.141-0.322,1.618c-0.663,0.021-1.328,0.124-1.986,0.198c-0.132,0.015-0.137,0.221,0,0.211
		c0.613-0.044,1.235-0.071,1.847-0.152c-0.322,0.589-0.821,1.05-1.59,1.281c-0.219,0.066-0.345,0.208-0.409,0.372
		c-1.23-0.034-2.468-0.009-3.695,0.034c-0.145,0.005-0.145,0.22,0,0.225c1.212,0.043,2.434,0.067,3.649,0.035
		c0.021,0.318,0.241,0.626,0.592,0.635c0.179,0.248,0.355,0.517,0.526,0.795c-2.963-0.509-6.154-0.412-9.141-0.411
		c-0.134,0-0.133,0.202,0,0.208c3.082,0.119,6.232,0.546,9.312,0.483C36.442,19.988,36.951,21.256,36.992,22.479z"/>
	<path style="fill:#1D1D1B;" d="M34.551,26.077c-0.997,0.116-1.978,0.182-2.98,0.108c-0.137-0.01-0.133,0.197,0,0.211
		c1.005,0.107,2.017,0.099,3.008-0.111C34.693,26.26,34.67,26.063,34.551,26.077z"/>
	<path style="fill:#1D1D1B;" d="M36.326,20.602c-0.53-0.139-1.104-0.105-1.65-0.125c-0.627-0.023-1.256-0.063-1.883-0.02
		c-0.072,0.005-0.099,0.119-0.018,0.135c0.583,0.11,1.176,0.146,1.766,0.194c0.59,0.048,1.196,0.157,1.784,0.076
		C36.463,20.844,36.446,20.634,36.326,20.602z"/>
</g>
<g>
</g>
<g>
</g>
<g>
</g>
<g>
</g>
<g>
</g>
<g>
</g>
<g>
</g>
<g>
</g>
<g>
</g>
<g>
</g>
<g>
</g>
<g>
</g>
<g>
</g>
<g>
</g>
<g>
</g>
</svg>
