<?xml version="1.0" encoding="iso-8859-1"?>
<!-- Generator: Adobe Illustrator 18.0.0, SVG Export Plug-In . SVG Version: 6.00 Build 0)  -->
<!DOCTYPE svg PUBLIC "-//W3C//DTD SVG 1.1//EN" "http://www.w3.org/Graphics/SVG/1.1/DTD/svg11.dtd">
<svg version="1.1" id="Capa_1" xmlns="http://www.w3.org/2000/svg" xmlns:xlink="http://www.w3.org/1999/xlink" x="0px" y="0px"
	 viewBox="0 0 49.373 49.373" style="enable-background:new 0 0 49.373 49.373;" xml:space="preserve">
<g>
	<path style="fill:#1D1D1B;" d="M38.68,1.606c-0.087-0.117-0.217-0.207-0.397-0.23C29.556,0.27,19.116-0.243,10.407,1.2
		C5.921,1.943,0.79,4.928,0.914,9.715c-0.075,0.042-0.14,0.106-0.153,0.22c-1.098,9.29-0.864,19.675-0.199,29.003
		c0.014,0.191,0.149,0.284,0.291,0.302c0.604,4.908,4.638,8.324,9.441,9.204c3.801,0.697,7.818,0.404,11.664,0.436
		c4.789,0.04,9.596,0.323,14.376-0.02c0.051,0.055,0.117,0.096,0.203,0.104c2.956,0.272,5.764,0.031,8.167-1.797
		c2.067-1.573,3.856-3.545,3.767-6.239c0.091-0.067,0.162-0.169,0.181-0.315C49.405,34.854,52.053-2.132,38.68,1.606z
		 M47.812,35.239c-3.144,0.11-6.287,0.306-9.428,0.465c-0.111,0.006-0.112,0.178,0,0.173c3.139-0.138,6.284-0.242,9.421-0.43
		c-0.056,1.78-0.079,3.347-0.018,4.585c-0.276,0.019-0.532,0.206-0.538,0.581c-0.007,0.43-0.069,0.845-0.171,1.246
		c-2.533,0.549-5.797-0.01-8.303-0.008c-2.877,0.002-5.754,0.005-8.631,0.008c-5.754,0.006-11.508,0.001-17.263,0.035
		c-0.082,0-0.082,0.126,0,0.127c6.713,0.049,13.426,0.051,20.14,0.067c3.197,0.008,6.393,0.019,9.59,0.022
		c1.332,0.001,2.978,0.289,4.385,0.041c-0.289,0.934-0.805,1.786-1.456,2.545c-9.07,0.702-18.059,0.791-27.15,0.628
		c-0.052-0.001-0.051,0.077,0,0.08c8.96,0.608,18.016,0.328,26.955-0.484c-0.759,0.829-1.667,1.543-2.606,2.11
		c-1.593,0.961-3.528,0.899-5.347,1.169c-0.045-0.026-0.079-0.062-0.143-0.068c-6.327-0.576-12.766-0.114-19.114-0.079
		c-8.083,0.044-14.148-1.557-16.881-9.847c0-0.001-0.002-0.001-0.002-0.003C1.708,29.557,1.999,20.3,1.43,11.629
		c0.055-0.027,0.103-0.072,0.108-0.147c0.647-9.858,11.491-9.371,18.803-9.403c5.523-0.024,11.049,0.363,16.565,0.364
		c0.003,0.123,0.08,0.249,0.217,0.233c2.927-0.339,5.091,0.536,6.689,2.226c-7.108-0.94-14.256-1.34-21.423-1.03
		c-0.059,0.003-0.06,0.094,0,0.093c7.209-0.1,14.33,0.243,21.478,1.211c0.071,0.01,0.113-0.025,0.137-0.068
		c0.708,0.801,1.301,1.767,1.794,2.865c-8.623-0.357-17.279-0.615-25.908-0.7c-0.06-0.001-0.059,0.09,0,0.093
		c8.656,0.432,17.349,0.694,26.015,0.852c0.348,0.813,0.647,1.691,0.899,2.626c-7.666-0.172-15.336-0.312-23.003-0.368
		c-0.077-0.001-0.077,0.118,0,0.12c7.565,0.232,15.487,0.974,23.02,0.317c0.002,0.008,0.004,0.017,0.006,0.024
		c-0.044,0.044-0.032,0.121,0.034,0.142c0.596,2.299,0.934,4.902,1.104,7.615c-3.27-0.118-6.555-0.051-9.826-0.056
		c-0.121,0-0.121,0.186,0,0.188c3.275,0.044,6.564,0.161,9.84,0.091c0.064,1.083,0.104,2.181,0.124,3.282
		c-2.907,0.056-5.805,0.126-8.715,0.075c-0.134-0.002-0.132,0.201,0,0.207c2.895,0.127,5.823,0.147,8.717-0.053
		C48.178,26.978,47.932,31.556,47.812,35.239z"/>
	<path style="fill:#1D1D1B;" d="M36.046,18.896c0.1-0.344,0.032-0.71,0.015-1.09c-0.021-0.478-0.02-0.992-0.168-1.454
		c-0.163-0.509-0.511-0.947-0.967-1.203c-0.012-0.244-0.175-0.483-0.494-0.497c-2.78-0.122-5.567-0.116-8.35-0.153
		c-2.343-0.031-5.847-0.681-8.08-0.017c-1.556,0.462-2.172,1.386-2.286,2.593c-0.348,2.585-0.189,5.193-0.222,7.797
		c-0.038,3.016-0.323,6.046-0.217,9.058c0.007,0.191,0.145,0.321,0.304,0.375c0.201,0.739,1.009,1.264,1.978,1.493
		c2.327,0.55,5.351,0.06,7.729-0.026c2.661-0.096,5.321-0.186,7.967-0.493c0.164-0.019,0.287-0.095,0.379-0.194
		c1.756-0.437,1.784-2.279,1.95-3.872C36.005,27.186,36.352,22.944,36.046,18.896z M33.716,34.338
		c-0.088-0.133-0.235-0.227-0.46-0.218c-2.011,0.082-17.013,1.943-17.01-1.081c0-0.003-0.002-0.004-0.002-0.007
		c0.708-4.521,0.944-9.88,0.223-14.448c0.449-4.175,6.077-3.029,8.919-2.987c2.919,0.043,5.842,0.127,8.761,0.089
		c1,0.675,0.326,2.235,0.756,3.175c-0.289,2.722-0.27,5.478-0.433,8.211C34.389,28.435,34.778,33.068,33.716,34.338z"/>
	<path style="fill:#1D1D1B;" d="M47.389,38.321c-7.492-0.178-15.006-0.012-22.5,0.022c-0.073,0-0.073,0.113,0,0.114
		c7.494,0.034,15.008,0.2,22.5,0.022C47.491,38.477,47.491,38.323,47.389,38.321z"/>
	<path style="fill:#1D1D1B;" d="M47.643,31.481c-2.58-0.055-5.178,0.088-7.757,0.16c-0.125,0.003-0.125,0.196,0,0.194
		c2.58-0.035,5.182,0.001,7.757-0.16C47.767,31.667,47.769,31.483,47.643,31.481z"/>
	<path style="fill:#1D1D1B;" d="M47.889,27.819c-2.375-0.095-4.765-0.056-7.142-0.049c-0.114,0-0.114,0.175,0,0.177
		c2.377,0.046,4.765,0.124,7.142,0.067C48.015,28.013,48.015,27.824,47.889,27.819z"/>
	<path style="fill:#1D1D1B;" d="M47.388,25.321c-2.188-0.218-4.431,0.088-6.553,0.627c-0.109,0.028-0.063,0.195,0.047,0.169
		c2.169-0.519,4.289-0.626,6.506-0.615C47.507,25.503,47.502,25.332,47.388,25.321z"/>
	<path style="fill:#1D1D1B;" d="M46.886,13.99c-3.755,0.224-7.491,0.305-11.252,0.16c-0.122-0.005-0.122,0.184,0,0.19
		c3.749,0.189,7.508,0.179,11.252-0.113C47.036,14.215,47.039,13.981,46.886,13.99z"/>
</g>
<g>
</g>
<g>
</g>
<g>
</g>
<g>
</g>
<g>
</g>
<g>
</g>
<g>
</g>
<g>
</g>
<g>
</g>
<g>
</g>
<g>
</g>
<g>
</g>
<g>
</g>
<g>
</g>
<g>
</g>
</svg>
