<?xml version="1.0" encoding="iso-8859-1"?>
<!-- Generator: Adobe Illustrator 18.0.0, SVG Export Plug-In . SVG Version: 6.00 Build 0)  -->
<!DOCTYPE svg PUBLIC "-//W3C//DTD SVG 1.1//EN" "http://www.w3.org/Graphics/SVG/1.1/DTD/svg11.dtd">
<svg version="1.1" id="Capa_1" xmlns="http://www.w3.org/2000/svg" xmlns:xlink="http://www.w3.org/1999/xlink" x="0px" y="0px"
	 viewBox="0 0 50.138 50.138" style="enable-background:new 0 0 50.138 50.138;" xml:space="preserve">
<g>
	<path style="fill:#1D1D1B;" d="M49.615,0.832c-0.001-0.298-0.209-0.44-0.427-0.44c-0.1-0.233-0.312-0.409-0.65-0.391
		c-8.28,0.453-16.569,0.694-24.862,0.658C16.887,0.631,8.995-0.761,2.447,1.441C2.369,1.467,2.311,1.515,2.263,1.57
		C2.008,1.477,1.659,1.617,1.627,1.978C0.94,9.687,0.938,17.492,0.821,25.227C0.706,32.901,0.168,40.841,0.9,48.485
		c0.027,0.28,0.199,0.448,0.4,0.509c0.025,0.062,0.057,0.12,0.102,0.166c1.69,1.727,5.127,0.355,7.195,0.154
		c4.003-0.39,7.869-0.205,11.875,0.107c9.306,0.726,18.578,0.888,27.907,0.541c0.419-0.016,0.637-0.326,0.672-0.652
		c0.207-0.073,0.387-0.242,0.399-0.487c0.388-7.944-0.432-16.032-0.403-23.999C49.073,16.826,49.639,8.825,49.615,0.832z
		 M48.563,2.266c-4.934,0.023-9.883,0.183-14.808,0.449c-0.106,0.006-0.107,0.164,0,0.165c4.917,0.05,9.854-0.005,14.77-0.196
		c-0.045,0.49-0.094,0.979-0.134,1.47c-0.015,0-0.025-0.011-0.042-0.008C38.884,6.051,28.67,4.484,19.07,4.387
		c-0.13-0.001-0.128,0.192,0,0.2c9.52,0.63,19.865,2.001,29.28,0.053c-0.111,1.429-0.185,2.865-0.253,4.301
		c-6.844-0.67-13.813-0.358-20.645,0.294c-0.153,0.015-0.157,0.254,0,0.243c6.9-0.503,13.724-0.368,20.628-0.244
		c-0.035,0.751-0.054,1.503-0.08,2.255c-0.024-0.014-0.042-0.035-0.076-0.037c-2.729-0.188-5.488-0.158-8.223-0.186
		c-0.134-0.001-0.132,0.2,0,0.207c2.733,0.154,5.486,0.368,8.223,0.362c0.029,0,0.042-0.018,0.064-0.027
		c-0.016,0.482-0.017,0.964-0.03,1.446c-1.499-0.217-3.076-0.155-4.589-0.202c-0.173-0.005-0.17,0.255,0,0.267
		c1.498,0.103,3.053,0.327,4.554,0.26c0.012-0.001,0.018-0.01,0.029-0.013c-0.047,1.829-0.075,3.658-0.097,5.484
		c-1.556-0.079-3.07-0.031-4.63-0.279c-0.129-0.02-0.188,0.172-0.055,0.2c1.493,0.31,3.144,0.569,4.679,0.402
		c-0.02,1.764-0.031,3.523-0.04,5.278c-1.401-0.105-2.86,0.021-4.26,0.047c-0.14,0.003-0.14,0.215,0,0.218
		c1.399,0.026,2.857,0.153,4.258,0.048c-0.001,0.272-0.005,0.546-0.006,0.818c-0.003,0.672-0.01,1.35-0.016,2.026
		c-1.203-0.158-2.506-0.01-3.711,0.011c-0.176,0.003-0.177,0.271,0,0.274c1.205,0.021,2.506,0.168,3.708,0.011
		c-0.005,0.487-0.008,0.98-0.013,1.469c-0.009-0.001-0.012-0.008-0.021-0.008c-2.087-0.027-4.218,0.211-6.297,0.388
		c-0.149,0.013-0.154,0.24,0,0.236c2.085-0.054,4.227-0.054,6.297-0.311c0.008-0.001,0.011-0.008,0.018-0.01
		c-0.016,1.527-0.032,3.06-0.036,4.595c-1.98,0.067-3.944,0.219-5.93,0.192c-0.152-0.002-0.151,0.228,0,0.236
		c1.96,0.097,3.977,0.136,5.93-0.118c-0.001,0.667,0.012,1.334,0.015,2.001c-1.462,0.053-2.9,0.202-4.371,0.146
		c-0.15-0.006-0.147,0.221,0,0.232c1.431,0.105,2.944,0.18,4.373-0.039c0.005,0.727,0.002,1.454,0.017,2.181
		c-2.464-0.085-4.947,0.007-7.417-0.007c0.067-0.248,0.009-0.529-0.176-0.695c-0.812-9.024-0.114-17.963-0.59-26.96
		c-0.019-0.361-0.493-0.518-0.705-0.288c-0.094-0.052-0.202-0.089-0.332-0.095c-8.321-0.34-17.069-0.627-25.311,0.865
		c-0.159-0.381-0.796-0.288-0.86,0.195c-1.126,8.5-1.271,17.827-0.276,26.343c0.039,0.332,0.306,0.505,0.563,0.506
		c0.05,0.084,0.132,0.148,0.251,0.169c8.815,1.508,17.939,0.961,26.825,0.454c0.189-0.011,0.331-0.087,0.436-0.193
		c2.516,0.145,5.09,0.284,7.603,0.11c0.016,0.655,0.021,1.312,0.047,1.965c-6.312-0.302-12.658-0.167-18.963,0.222
		c-0.128,0.008-0.13,0.205,0,0.2c6.333-0.211,12.643-0.166,18.976-0.052c0.017,0.38,0.018,0.763,0.039,1.143
		c-8.204,0.166-16.414,0.407-24.611,0.774c-0.094,0.004-0.096,0.148,0,0.148c8.213-0.049,16.432-0.223,24.641-0.472
		c0.035,0.573,0.067,1.146,0.114,1.716c-11.757,0.313-23.494,0.181-35.253,0.14c-0.166,0-0.164,0.249,0,0.257
		c11.741,0.558,23.543,0.409,35.29,0.092c0.079,0.905,0.173,1.807,0.289,2.703c-7.738,0.33-15.497,0.271-23.23-0.164
		c-3.426-0.193-6.851-0.594-10.281-0.689c-1.339-0.037-12.53,1.272-12.727,0.612c-0.014-0.047-0.044-0.078-0.073-0.11
		c0.5-7.596-0.046-15.345,0.043-22.961C2.165,17.592,2.59,9.941,2.532,2.307c0.012,0,0.02,0.005,0.032,0.004
		C17.832,1.255,33.22,2.32,48.538,1.499c0.037-0.002,0.063-0.019,0.097-0.025C48.607,1.737,48.588,2.002,48.563,2.266z
		 M38.703,38.494c-8.567,0.415-16.972,0.563-25.55-0.015c0.094-8.505,0.089-17.051,0.116-25.561
		c8.436,0.092,16.82-0.589,25.276-0.21c0.012,0.001,0.019-0.005,0.031-0.005C37.17,21.033,37.949,30.163,38.703,38.494z"/>
	<path style="fill:#1D1D1B;" d="M47.561,7.57C36.552,7.171,25.529,6.641,14.513,6.515c-0.18-0.002-0.177,0.267,0,0.278
		c11,0.642,22.035,0.882,33.048,1.252C47.866,8.055,47.866,7.582,47.561,7.57z"/>
	<path style="fill:#1D1D1B;" d="M47.572,16.814c-1.731-0.169-3.505-0.056-5.246-0.175c-0.146-0.01-0.142,0.211,0,0.225
		c1.705,0.166,3.538,0.41,5.246,0.214C47.74,17.058,47.742,16.83,47.572,16.814z"/>
	<path style="fill:#1D1D1B;" d="M47.748,15.343c-2.147-0.162-4.318-0.226-6.471-0.282c-0.131-0.003-0.127,0.19,0,0.2
		c2.149,0.179,4.316,0.351,6.471,0.423C47.969,15.692,47.964,15.36,47.748,15.343z"/>
	<path style="fill:#1D1D1B;" d="M47.397,21.986c-2.133-0.183-4.339-0.062-6.471,0.094c-0.163,0.012-0.167,0.259,0,0.257
		c2.154-0.025,4.32,0.065,6.471,0.001C47.626,22.331,47.62,22.005,47.397,21.986z"/>
	<path style="fill:#1D1D1B;" d="M47.428,32.405c-1.601-0.276-3.307-0.312-4.929-0.374c-0.159-0.006-0.151,0.225,0,0.243
		c1.602,0.183,3.283,0.407,4.896,0.377C47.53,32.648,47.572,32.43,47.428,32.405z"/>
</g>
<g>
</g>
<g>
</g>
<g>
</g>
<g>
</g>
<g>
</g>
<g>
</g>
<g>
</g>
<g>
</g>
<g>
</g>
<g>
</g>
<g>
</g>
<g>
</g>
<g>
</g>
<g>
</g>
<g>
</g>
</svg>
