<?xml version="1.0" encoding="iso-8859-1"?>
<!-- Generator: Adobe Illustrator 18.0.0, SVG Export Plug-In . SVG Version: 6.00 Build 0)  -->
<!DOCTYPE svg PUBLIC "-//W3C//DTD SVG 1.1//EN" "http://www.w3.org/Graphics/SVG/1.1/DTD/svg11.dtd">
<svg version="1.1" id="Capa_1" xmlns="http://www.w3.org/2000/svg" xmlns:xlink="http://www.w3.org/1999/xlink" x="0px" y="0px"
	 viewBox="0 0 48.778 48.778" style="enable-background:new 0 0 48.778 48.778;" xml:space="preserve">
<g>
	<path style="fill:#1D1D1B;" d="M37.057,3.595c0.003-0.058-0.031-0.117-0.106-0.118c-0.027,0-0.054,0-0.081,0
		c-0.23-0.149-0.459-0.299-0.695-0.44C24.078-4.175,7.284,2.098,2.317,15.1c-0.052,0.135-0.034,0.26,0.016,0.369
		C0,19.788,0.111,25.703,0.858,30.254c1.148,6.998,4.941,12.787,11.401,15.915c11.92,5.772,27.454,1.794,33.677-10.239
		C51.525,25.123,47.182,10.301,37.057,3.595z M42.225,30.217c1.43,0.098,2.876,0.218,4.311,0.234
		c-0.171,0.758-0.371,1.507-0.624,2.24c-1.543,0.113-2.987,0.095-4.532-0.208c-0.127-0.025-0.181,0.162-0.054,0.195
		c1.442,0.373,3.01,0.491,4.495,0.271c-0.287,0.795-0.618,1.573-1.006,2.327c-0.033,0.064-0.072,0.123-0.106,0.187
		c-1.743,0.033-3.49,0.173-5.229,0.268c-0.124,0.007-0.125,0.2,0,0.194c1.703-0.082,3.417-0.125,5.117-0.264
		c-0.444,0.817-0.927,1.597-1.46,2.327c-1.996,0.162-3.988,0.481-5.974,0.731c-0.109,0.014-0.111,0.186,0,0.173
		c1.934-0.228,3.89-0.397,5.815-0.701c-0.563,0.752-1.164,1.465-1.804,2.132c-2.744,0.129-5.493,0.458-8.23,0.693
		c-0.101,0.009-0.102,0.166,0,0.158c2.673-0.212,5.372-0.34,8.038-0.645c-0.663,0.672-1.35,1.313-2.086,1.891
		c-0.012-0.005-0.021-0.014-0.038-0.013c-4.66,0.342-9.309,0.873-13.945,1.45c-0.046,0.006-0.048,0.079,0,0.074
		c4.58-0.493,9.167-0.889,13.752-1.322c-0.864,0.661-1.77,1.259-2.715,1.79c0.001-0.037-0.023-0.072-0.072-0.069
		c-5.675,0.327-11.377,1.23-17.068,1.036c-0.095-0.003-0.095,0.143,0,0.148c5.612,0.26,11.414-0.457,16.994-1.027
		c-6.417,3.544-14.484,4.064-21.55,1.207C1.637,40.591-1.524,24.534,4.563,13.228C10.41,3.128,23.623-1.902,34.351,3.473
		c-3.42-0.008-6.841,0.016-10.26,0.043c-0.094,0.001-0.094,0.145,0,0.145c3.566,0.028,7.135,0.055,10.702,0.042
		c0.252,0.134,0.504,0.267,0.752,0.412c1.054,0.616,2.037,1.336,2.96,2.126c-0.917,0.182-5.379-0.264-6.036-0.265
		c-2.304-0.005-4.605,0.085-6.905,0.228c-0.104,0.006-0.105,0.168,0,0.162c2.958-0.173,5.916-0.231,8.878-0.146
		c0.877,0.025,3.252,0.599,4.174,0.121c0.698,0.606,1.367,1.247,1.987,1.938c-2.89-0.031-5.832,0.09-8.713,0.292
		c-0.06,0.004-0.062,0.094,0,0.095c2.935,0.035,5.929-0.014,8.857-0.22c0.768,0.872,1.478,1.798,2.115,2.778
		c0,0-0.001-0.001-0.002-0.001c-2.814,0.031-5.634,0.24-8.445,0.382c-0.103,0.005-0.104,0.164,0,0.16
		c2.812-0.109,5.639-0.152,8.445-0.371c0.038-0.003,0.059-0.027,0.07-0.055c1.097,1.708,1.996,3.556,2.668,5.485
		c-0.003,0-0.001-0.004-0.004-0.005c-3.933-0.239-7.955,0.064-11.842,0.685c-0.053,0.008-0.042,0.101,0.013,0.095
		c3.955-0.452,7.853-0.59,11.829-0.634c0.025,0,0.026-0.023,0.038-0.038c0.594,1.725,1.013,3.51,1.239,5.31
		c-5.132,0.387-10.282,0.833-15.394,1.423c-0.055,0.006-0.058,0.092,0,0.089c5.141-0.324,10.295-0.796,15.42-1.323
		c0.31,2.619,0.224,5.264-0.319,7.795c-1.442-0.139-2.907-0.171-4.355-0.225C42.083,29.992,42.085,30.207,42.225,30.217z"/>
	<path style="fill:#1D1D1B;" d="M12.28,17.986c-1.792,0.378-2.62,3.275-2.231,4.904c0.642,2.683,3.538,4.307,6.173,3.488
		C22.624,24.389,16.985,14.712,12.28,17.986z M15.998,25.015c-4.156,1.483-6.849-5.201-2.437-6.272
		c0.07-0.017,0.113-0.055,0.15-0.096c1.216,0.005,2.328,0.447,3.171,1.481C18.146,21.677,18.157,24.244,15.998,25.015z"/>
	<path style="fill:#1D1D1B;" d="M33.377,14.192c-0.282-1.951-2.309-3.51-4.282-3.454c-0.004,0-0.007-0.004-0.011-0.004
		c-2.248-0.088-3.934,2.176-3.676,4.311c0.264,2.189,2.218,3.805,4.415,3.587C32.036,18.41,33.7,16.43,33.377,14.192z
		 M29.923,17.272c-1.637,0.344-3.147-0.968-3.244-2.597c-0.083-1.4,0.793-2.35,1.878-3.017c1.199,0.514,2.534,0.568,3.17,1.938
		C32.44,15.129,31.59,16.921,29.923,17.272z"/>
	<path style="fill:#1D1D1B;" d="M46.871,24.916c-1.451,0.049-2.92,0.252-4.364,0.417c-0.063-0.104-0.149-0.179-0.261-0.197
		c-1.337-1.833-3.458-1.455-5.018,0.12c-2.06,2.081-2.972,5.075-5.14,7.152c-3.06,2.931-6.506,3.032-10.361,3.163
		c-1.985-1.067-5.222-1.097-6.639,0.776c-0.915,1.209-0.391,3.413,1.099,3.275c10.815,4.812,26.837-0.182,26.399-14.077
		c-0.001-0.043-0.027-0.062-0.036-0.098c1.442-0.098,2.915-0.168,4.342-0.381C46.976,25.052,46.955,24.913,46.871,24.916z
		 M16.196,38.987c-0.992-0.597-0.558-2.077,0.505-2.633c0.552-0.288,1.25-0.411,1.858-0.447c1.186-0.07,2.285,0.244,3.414,0.558
		c0.102,0.028,0.187,0.011,0.254-0.031c3.001,0.516,6.108,0.311,8.757-1.394c1.452-0.934,2.662-2.24,3.696-3.606
		c0.855-1.129,4.566-8.8,6.906-5.594c0.02,0.027,0.045,0.041,0.068,0.063C39.829,38.735,27.425,42.971,16.196,38.987z"/>
	
		<line style="fill:#1D1D1B;stroke:#E6007E;stroke-width:0;stroke-linecap:round;stroke-linejoin:round;" x1="32.946" y1="41.118" x2="32.946" y2="41.116"/>
	<path style="fill:#1D1D1B;" d="M46.871,27.394c-1.349,0.074-2.66,0.198-4.015,0.111c-0.127-0.008-0.125,0.186,0,0.196
		c1.33,0.106,2.727,0.15,4.041-0.117C47.004,27.563,46.981,27.388,46.871,27.394z"/>
	<path style="fill:#1D1D1B;" d="M46.233,19.679c-2.598-0.016-5.21,0.188-7.805,0.302c-0.096,0.004-0.097,0.153,0,0.15
		c2.597-0.094,5.216-0.1,7.805-0.323C46.315,19.801,46.318,19.679,46.233,19.679z"/>
	<path style="fill:#1D1D1B;" d="M44.119,14.246c-2.907,0.06-6.214-0.058-9.05,0.574c0.074-0.017,0.042-0.125-0.031-0.112
		c-0.055,0.01-0.11,0.019-0.165,0.029c-0.069,0.012-0.052,0.123,0.016,0.121c3.072-0.094,6.165-0.194,9.229-0.439
		C44.229,14.41,44.232,14.244,44.119,14.246z"/>
</g>
<g>
</g>
<g>
</g>
<g>
</g>
<g>
</g>
<g>
</g>
<g>
</g>
<g>
</g>
<g>
</g>
<g>
</g>
<g>
</g>
<g>
</g>
<g>
</g>
<g>
</g>
<g>
</g>
<g>
</g>
</svg>
