<?xml version="1.0" encoding="iso-8859-1"?>
<!-- Generator: Adobe Illustrator 18.0.0, SVG Export Plug-In . SVG Version: 6.00 Build 0)  -->
<!DOCTYPE svg PUBLIC "-//W3C//DTD SVG 1.1//EN" "http://www.w3.org/Graphics/SVG/1.1/DTD/svg11.dtd">
<svg version="1.1" id="Capa_1" xmlns="http://www.w3.org/2000/svg" xmlns:xlink="http://www.w3.org/1999/xlink" x="0px" y="0px"
	 viewBox="0 0 50.192 50.192" style="enable-background:new 0 0 50.192 50.192;" xml:space="preserve">
<g>
	<path style="fill:#1D1D1B;" d="M50.096,24.055c-0.104-0.525-0.081-0.83-0.642-1.051c-0.56-0.221-1.756,0.049-2.359,0.077
		c-0.914,0.043-1.827,0.1-2.74,0.162c-0.091,0.006-0.162,0.038-0.225,0.08c-0.001-0.007,0-0.014-0.001-0.021
		c-0.14-1.643-0.317-3.244-1.535-4.473c-2.101-2.121-5.93-2.296-8.083-0.281c0.007-0.208,0.019-0.416,0.058-0.624
		c0.073-0.388-0.164-0.733-0.572-0.751c-0.862-0.038-1.724,0.035-2.585,0.082c-0.543,0.029-1.203-0.025-1.65,0.348
		c-0.244,0.204-0.384,0.502-0.463,0.841c-3.101-4.452-13.922-1.932-13.984,4.358c-1.059-0.083-2.13-0.044-3.192-0.041
		c-0.781,0.003-1.814-0.189-2.539,0.104c-0.493,0.199-0.622,0.535-0.77,1.024c-0.235,0.778-0.507,1.994-0.42,2.796
		c0.026,0.242,0.152,0.461,0.402,0.528c0.815,0.217,1.745,0.035,2.609-0.05c-0.356,3.047-3.835,1.919-4.82,0.124
		c-0.607-1.106-0.628-2.643-0.129-3.783c1.211-2.767,4.386-1.652,6.691-1.494c0.016,0.001,0.025-0.011,0.04-0.013
		c0.139,0.054,0.297,0.035,0.415-0.111c0.38-0.469,0.758-0.935,1.117-1.42c0.335-0.453,0.878-0.96,0.971-1.523
		c0.012-0.07-0.006-0.135-0.019-0.2c0.053-0.117,0.034-0.27-0.095-0.358C9.654,14.347-0.508,17.127,0.02,25.462
		c0.514,8.119,9.735,9.357,15.795,6.667c0.233-0.103,0.279-0.344,0.217-0.559c0.003-0.007,0.008-0.011,0.011-0.018
		c0.156-0.385,0.288-0.751,0.402-1.123c2.921,4.222,10.449,5.293,12.704-0.068c0.006-0.015-0.004-0.027,0-0.042
		c0.173-0.054,0.337-0.202,0.312-0.396c-0.079-0.607-0.597-0.891-1.059-1.238c-0.526-0.394-1.046-0.79-1.599-1.146
		c-0.289-0.186-0.572,0.08-0.566,0.356c-0.883,0.589-2.013,1.063-3.062,0.972c-1.387-0.12-1.923-1.021-2.391-2.089
		c2.903,0.231,5.82,0.417,8.732,0.393c0.017,0,0.029-0.008,0.046-0.009c-0.115,1.763-0.098,3.511-0.087,5.286
		c0.002,0.299,0.262,0.59,0.574,0.574c1.301-0.068,2.855,0.018,4.047-0.543c0.23-0.108,0.273-0.366,0.202-0.587
		c0.12-0.045,0.224-0.134,0.224-0.287c-0.003-1.333-0.141-2.654-0.177-3.985c-0.031-1.156-0.069-3.653,1.11-4.359
		c0.861,0.057,1.721,0.114,2.582,0.171c0.181,0.402,0.313,0.818,0.398,1.25c0.196,0.868,0.251,1.798,0.313,2.682
		c0.11,1.587,0.054,3.162,0.011,4.75c-0.012,0.452,0.397,0.602,0.718,0.479c0.446,0.273,0.983,0.269,1.514,0.304
		c0.784,0.052,1.573,0.09,2.359,0.077c0.018,0,0.03-0.009,0.047-0.01c0.217,0.084,0.533-0.018,0.54-0.325
		c0-0.013,0.001-0.026,0.001-0.039c0.029-0.063,0.037-0.132,0.048-0.199c0.056,0.165,0.125,0.312,0.23,0.409
		c0.55,0.508,1.891,0.223,2.522,0.215c0.777-0.01,2.028,0.201,2.599-0.523c0.655-0.83,0.429-2.655,0.504-3.64
		C49.952,27.386,50.38,25.493,50.096,24.055z M26.715,28.52c0.315,0.32,0.63,0.639,0.956,0.949c0.243,0.231,0.511,0.525,0.818,0.707
		c-0.077,0.084-0.153,0.151-0.229,0.23c0.066-0.086,0.033-0.239-0.11-0.241c-1.344-0.02-2.686-0.024-4.027-0.033
		C25.126,29.936,26.015,29.346,26.715,28.52z M43.285,31.594c-0.765-0.01-1.533,0.025-2.296,0.076
		c-0.379,0.025-0.761,0.033-1.113,0.128c0.264-2.613,0.857-10.896-3.333-10.326c-1.141,0.155-1.896,0.738-2.399,1.546
		c-0.881-0.022-1.826,0.113-2.676,0.211c-0.164,0.019-0.174,0.266,0,0.264c0.778-0.009,1.644,0.006,2.453-0.09
		c-0.454,0.941-0.628,2.118-0.639,3.326c-0.773-0.067-1.565-0.001-2.338,0.021c-0.14,0.004-0.14,0.214,0,0.218
		c0.773,0.022,1.565,0.088,2.338,0.021c0.004,0.431,0.027,0.862,0.062,1.286c-0.584-0.039-1.167,0.043-1.739,0.19
		c-0.178,0.046-0.102,0.317,0.076,0.275c0.564-0.134,1.125-0.161,1.695-0.172c0.076,0.783,0.19,1.525,0.306,2.17
		c-0.65-0.149-1.386-0.132-2.037-0.175c-0.165-0.011-0.158,0.234,0,0.253c0.664,0.078,1.408,0.24,2.087,0.196
		c0.035,0.184,0.07,0.365,0.104,0.527c-1.003-0.19-2.173,0.03-3.232,0.229c-0.047-1.834-0.099-3.646-0.33-5.476
		c-0.038-0.303-0.348-0.386-0.528-0.243c-0.068-0.031-0.143-0.053-0.232-0.058c-3.081-0.161-6.179-0.09-9.261,0.024
		c-0.167-0.06-0.338-0.033-0.469,0.1c-0.036,0.033-0.064,0.071-0.081,0.115c-0.017,0.03-0.044,0.043-0.056,0.08
		c-0.007,0.022-0.006,0.044-0.012,0.066c-0.83-0.047-1.684,0.015-2.509,0.024c-0.14,0.002-0.14,0.216,0,0.218
		c0.807,0.009,1.644,0.069,2.459,0.027c-0.091,0.603,0.086,1.194,0.429,1.717c-0.666-0.114-1.365-0.153-2.012-0.239
		c-0.146-0.019-0.182,0.238-0.035,0.259c0.747,0.109,1.54,0.292,2.311,0.342c0.53,0.626,1.268,1.112,1.968,1.315
		c0.125,0.036,0.247,0.053,0.37,0.077c-1.187-0.015-2.373-0.037-3.562-0.089c-0.157-0.007-0.154,0.23,0,0.243
		c3.012,0.248,6.078,0.397,9.097,0.195c0.044-0.003,0.075-0.023,0.099-0.048c-0.441,0.457-0.873,0.859-1.319,1.186
		c-1.869-0.046-3.733,0.009-5.605-0.126c-0.126-0.009-0.121,0.18,0,0.193c1.669,0.183,3.404,0.338,5.101,0.268
		c-0.991,0.594-2.104,0.882-3.626,0.814c-2.746-0.123-4.929-1.389-6.106-3.873c-0.235-0.496-0.875-0.18-0.925,0.25
		c-0.009,0.103-0.026,0.205-0.038,0.307c-1.167-0.267-2.489-0.222-3.672-0.309c-0.159-0.012-0.155,0.23,0,0.246
		c1.171,0.122,2.452,0.398,3.637,0.343c-0.04,0.269-0.087,0.537-0.143,0.803c-2.976,0.062-5.952,0.249-8.917,0.504
		c-0.104,0.009-0.107,0.17,0,0.165c2.949-0.146,5.898-0.246,8.848-0.361c-0.03,0.128-0.053,0.258-0.087,0.386
		c-5.139,2.101-13.778,1.443-14.206-5.752c-0.203-3.422,1.999-6.312,5.233-7.346c2.778-0.888,5.521-0.209,8.219,0.562
		c-0.29,0.311-0.497,0.736-0.72,1.078c-0.056,0.085-0.105,0.174-0.16,0.259c-3.367-0.008-6.738,0.004-10.104,0.091
		c-0.133,0.003-0.134,0.204,0,0.207c3.286,0.085,6.577,0.098,9.864,0.091c-0.182,0.295-0.368,0.587-0.545,0.885
		c-2.142-1.082-4.6-0.965-6.196,0.193c-1.152-0.149-2.335-0.063-3.482,0.087c-0.189,0.025-0.194,0.325,0,0.302
		c1.052-0.124,2.087-0.111,3.138-0.106c-0.563,0.508-0.989,1.165-1.2,1.971c-0.816-0.038-1.62-0.12-2.426-0.306
		c-0.147-0.034-0.21,0.191-0.063,0.227c0.79,0.196,1.602,0.331,2.416,0.357c-0.096,0.496-0.12,1.039-0.048,1.634
		c-0.827-0.066-1.695,0.005-2.509,0.013c-0.188,0.002-0.188,0.29,0,0.292c0.829,0.008,1.714,0.081,2.554,0.008
		c0.017,0.099,0.021,0.192,0.042,0.294c0.142,0.667,0.409,1.311,0.783,1.875c-0.697-0.149-1.428-0.209-2.129-0.309
		c-0.132-0.019-0.191,0.182-0.056,0.203c0.778,0.122,1.577,0.304,2.365,0.348c0.646,0.858,1.555,1.492,2.685,1.637
		c1.656,0.213,3.706-1.092,3.095-2.931c0.246-0.108,0.217-0.495-0.1-0.526c-0.688-0.066-1.635-0.112-2.376-0.293
		c0.012-0.538,0.138-1.162,0.259-1.618c0.264-0.989,0.696-0.855,1.664-0.847c1.367,0.011,2.756,0.091,4.119-0.031
		c0.358-0.032,0.5-0.332,0.438-0.587c0.008-0.024,0.029-0.035,0.032-0.064c0.348-3.146,3.329-5.01,6.194-5.57
		c3.329-0.651,5.776,0.807,7.142,3.801c0.095,0.208,0.31,0.248,0.495,0.184c0.213-0.008,0.442-0.164,0.463-0.41
		c0.038-0.443,0.073-0.886,0.108-1.329c0.042-0.531-0.053-1.145,0.542-1.26c0.818-0.159,1.702-0.087,2.554-0.131
		c0.05,0.483,0.096,0.958,0.309,1.408c0.107,0.226,0.436,0.203,0.572,0.019c0.085-0.01,0.172-0.038,0.258-0.108
		c1.51-1.237,3.537-1.622,5.368-0.95c0.651,0.239,1.133,0.565,1.517,0.946c-1.414-0.27-3.009-0.144-4.438-0.172
		c-0.16-0.003-0.156,0.235,0,0.246c1.463,0.101,3.09,0.391,4.546,0.216c0.045-0.005,0.077-0.034,0.1-0.067
		c0.183,0.216,0.347,0.442,0.478,0.689c-3.607-0.147-7.316,0.183-10.89,0.616c-0.127,0.015-0.134,0.211,0,0.204
		c3.669-0.202,7.37-0.255,11.031-0.541c0.284,0.646,0.432,1.377,0.53,2.157c-0.876-0.104-1.767-0.121-2.647-0.167
		c-0.123-0.007-0.12,0.179,0,0.19c0.886,0.081,1.782,0.198,2.673,0.217c0.021,0.183,0.042,0.365,0.059,0.552
		c0.041,0.433,0.08,0.883,0.12,1.33c-0.775-0.072-1.553-0.117-2.33-0.165c-0.12-0.007-0.119,0.177,0,0.186
		c0.782,0.06,1.563,0.124,2.346,0.16c0.055,0.63,0.103,1.271,0.144,1.914c-0.649-0.005-1.291-0.037-1.939-0.16
		c-0.147-0.028-0.212,0.195-0.063,0.227c0.666,0.142,1.341,0.228,2.016,0.195c0.036,0.599,0.058,1.199,0.071,1.796
		c-0.624-0.061-1.269-0.106-1.881-0.042c-0.128,0.013-0.183,0.217-0.033,0.245c0.62,0.117,1.281,0.127,1.922,0.117
		C43.332,30.309,43.323,30.958,43.285,31.594z M46.338,26.974c0.807,0.079,1.708,0.249,2.533,0.206
		c-0.034,0.332-0.075,0.663-0.105,0.995c-0.016,0.172-0.023,0.363-0.029,0.562c-0.797,0.017-1.622,0.158-2.403,0.246
		c-0.142,0.016-0.15,0.236,0,0.229c0.779-0.039,1.608-0.036,2.394-0.144c-0.012,0.464-0.028,0.955-0.11,1.4
		c-0.996,0.041-1.973,0.146-2.98,0.088c-0.171-0.01-0.167,0.249,0,0.264c0.936,0.084,1.946,0.141,2.894,0.002
		c-0.065,0.215-0.148,0.414-0.269,0.577c-0.441,0.592-0.496,0.483-1.214,0.501c-0.367,0.009-0.893,0.118-1.248,0.031
		c-1.081-0.266-0.757-1.588-0.79-2.562c-0.058-1.745-0.114-3.507-0.344-5.241c0.924-0.059,1.848-0.12,2.77-0.2
		c0.454-0.039,0.98-0.195,1.408,0.015c0.574,0.281,0.345,0.672,0.242,1.271c-0.789-0.096-1.627-0.073-2.399-0.108
		c-0.185-0.009-0.18,0.269,0,0.285c0.756,0.068,1.568,0.203,2.349,0.217c-0.047,0.419-0.089,0.838-0.133,1.258
		c-0.821-0.161-1.748-0.121-2.567-0.157C46.163,26.699,46.17,26.957,46.338,26.974z"/>
	<path style="fill:#1D1D1B;" d="M22.881,20.295c-0.81-0.032-1.889,0.28-2.689,0.854c-0.747-0.064-1.486,0-2.218,0.184
		c-0.109,0.027-0.062,0.186,0.046,0.166c0.632-0.117,1.262-0.144,1.897-0.132c-0.427,0.376-0.74,0.837-0.805,1.383
		c-0.715-0.045-1.444-0.007-2.16-0.001c-0.111,0.001-0.111,0.171,0,0.172c0.707,0.006,1.426,0.042,2.133,0
		c0,0.024-0.011,0.045-0.011,0.069c0.004,0.253,0.209,0.489,0.469,0.505c0.046,0.12,0.156,0.234,0.281,0.292l-0.021,0.021
		c0.948,0.233,1.936,0.215,2.907,0.268c0.979,0.054,2.004,0.211,2.967,0.002c0.278-0.06,0.409-0.286,0.417-0.521
		c0.218-0.03,0.413-0.177,0.402-0.438C26.431,21.463,24.36,20.354,22.881,20.295z M22.71,22.814
		c-0.839,0.031-1.692,0.041-2.517,0.21c-0.012-0.017-0.02-0.033-0.037-0.047c0.443-1.106,2.03-1.638,3.103-1.431
		c0.889,0.172,1.333,0.711,1.827,1.277C24.307,22.717,23.485,22.786,22.71,22.814z"/>
	<path style="fill:#1D1D1B;" d="M49.18,19.48c-0.008-0.001-0.016-0.001-0.024-0.002c-0.205-1.04-1.096-1.794-2.174-1.851
		c-0.044-0.064-0.111-0.118-0.204-0.151c-1.282-0.455-2.612,0.935-2.779,2.122c-0.202,1.441,0.96,2.823,2.399,2.94
		c1.396,0.114,2.7-1.04,2.804-2.427c0.009-0.117-0.002-0.228-0.009-0.34C49.315,19.709,49.344,19.503,49.18,19.48z M47.922,20.594
		c-0.77-0.09-1.573,0.007-2.325,0.146c-0.14,0.026-0.078,0.23,0.058,0.21c0.698-0.1,1.379-0.082,2.071-0.082
		c-0.306,0.348-0.749,0.579-1.21,0.549c-0.771-0.049-1.46-0.819-1.436-1.59c0.032-1.021,0.923-1.311,1.7-1.63
		c0.033-0.014,0.049-0.041,0.077-0.06c0.52,0.229,0.976,0.705,1.167,1.249c-0.737-0.032-1.481-0.026-2.21-0.047
		c-0.178-0.005-0.175,0.263,0,0.274c0.758,0.05,1.531,0.137,2.299,0.173c0.001,0.018,0.011,0.035,0.012,0.052
		C48.135,20.104,48.054,20.362,47.922,20.594z"/>
	<path style="fill:#1D1D1B;" d="M14.182,18.904c-2.267-0.557-4.727-0.486-7.029-0.234c-0.13,0.014-0.135,0.218,0,0.207
		c2.379-0.18,4.629,0.085,6.988,0.334C14.317,19.23,14.351,18.946,14.182,18.904z"/>
	<path style="fill:#1D1D1B;" d="M33.133,24.883c-5.208-0.845-10.923-0.18-16.181-0.066c-0.151,0.003-0.152,0.235,0,0.236
		c5.319,0.007,10.859-0.508,16.145,0.096C33.248,25.166,33.284,24.907,33.133,24.883z"/>
</g>
<g>
</g>
<g>
</g>
<g>
</g>
<g>
</g>
<g>
</g>
<g>
</g>
<g>
</g>
<g>
</g>
<g>
</g>
<g>
</g>
<g>
</g>
<g>
</g>
<g>
</g>
<g>
</g>
<g>
</g>
</svg>
