<?xml version="1.0" encoding="iso-8859-1"?>
<!-- Generator: Adobe Illustrator 18.0.0, SVG Export Plug-In . SVG Version: 6.00 Build 0)  -->
<!DOCTYPE svg PUBLIC "-//W3C//DTD SVG 1.1//EN" "http://www.w3.org/Graphics/SVG/1.1/DTD/svg11.dtd">
<svg version="1.1" id="Capa_1" xmlns="http://www.w3.org/2000/svg" xmlns:xlink="http://www.w3.org/1999/xlink" x="0px" y="0px"
	 viewBox="0 0 49.139 49.139" style="enable-background:new 0 0 49.139 49.139;" xml:space="preserve">
<g>
	<path style="fill:#1D1D1B;" d="M34.571,22.15c-1.351-5.109-6.748-8.297-11.751-6.873c-0.167-0.155-0.414-0.232-0.675-0.119
		c-5.094,2.209-8.442,7.702-6.404,13.177c1.855,4.984,7.163,7.758,12.268,6.046C33.068,32.684,35.935,27.31,34.571,22.15z
		 M33.409,26.8c-1.72,0.362-3.417,0.757-5.163,1.001c-0.138,0.019-0.107,0.262,0.033,0.245c1.681-0.199,3.39-0.449,5.029-0.895
		c-0.184,0.617-0.43,1.212-0.746,1.768c-3.705,0.366-7.383,0.809-11.107,0.988c-0.139,0.007-0.141,0.223,0,0.218
		c3.638-0.127,7.32-0.323,10.923-0.882c-1.225,1.951-3.241,3.423-5.695,3.989c-4.44,1.025-8.717-1.877-9.898-6.189
		c-1.321-4.82,1.869-8.784,5.945-10.882c0.047-0.024,0.074-0.057,0.109-0.086c2.67-0.212,5.333,0.362,7.359,1.833
		c-2.273-0.004-4.548,0.046-6.82,0.09c-0.133,0.003-0.134,0.205,0,0.207c2.429,0.046,4.862,0.106,7.291,0.093
		c0.453,0.383,0.882,0.798,1.25,1.284c-0.164-0.031-0.37,0.017-0.623,0.155c-0.277,0.018-0.553,0.036-0.83,0.054
		c-0.969,0.06-1.938,0.111-2.907,0.152c-1.8,0.077-3.602,0.118-5.404,0.145c-0.16,0.002-0.161,0.248,0,0.25
		c3.369,0.036,6.736-0.063,10.098-0.277c0.379,0.584,0.701,1.228,0.941,1.949c-1.928,0.081-3.859,0.322-5.792,0.362
		c-0.14,0.003-0.141,0.218,0,0.218c1.932,0.007,3.97,0.04,5.905-0.236c0.013,0.045,0.031,0.086,0.043,0.132
		c0.151,0.551,0.227,1.095,0.269,1.634c-4.01,0.292-7.945,1.229-11.989,1.218c-0.14,0-0.14,0.215,0,0.218
		c3.891,0.075,8.148-0.313,12.016-1.078C33.672,25.276,33.596,26.056,33.409,26.8z"/>
	<path style="fill:#1D1D1B;" d="M39.558,23.654c-0.631-8.319-7.556-14.439-15.68-14.268c-0.078-0.031-0.168-0.047-0.275-0.039
		c-0.26,0.02-0.514,0.062-0.771,0.093c-0.083,0.007-0.164,0.004-0.248,0.013c-0.02,0.002-0.027,0.018-0.044,0.023
		c-7.994,1.099-14.261,7.614-13.89,16.014c0.387,8.79,8.164,15.695,16.963,14.86C33.982,39.555,40.189,31.971,39.558,23.654z
		 M26.206,38.82c-7.691,1.115-15.008-4.252-16.068-11.965c-1.173-8.529,5.156-15.415,13.465-16.253
		c0.276-0.028,0.452-0.199,0.538-0.404c6.535,0.661,12.26,4.578,13.886,11.332C39.952,29.531,34.261,37.653,26.206,38.82z"/>
	<path style="fill:#1D1D1B;" d="M48.566,24.151C48.034,10.897,37.149-0.032,23.784,0C10.338,0.032,0.18,11.302,0.564,24.512
		c0.207,7.144,2.119,13.091,7.734,17.7c4.642,3.811,10.397,7.361,16.568,6.872c0.069,0.029,0.146,0.049,0.236,0.051
		C38.742,49.414,49.103,37.515,48.566,24.151z M47.061,27.246c-1.246,0.122-2.44,0.188-3.703-0.009
		c-0.216-0.034-0.311,0.294-0.092,0.332c1.228,0.216,2.519,0.29,3.758,0.079c-0.08,0.735-0.183,1.462-0.33,2.173
		c-1.415,0.016-2.843,0.148-4.25,0.23c-0.19,0.011-0.194,0.303,0,0.299c1.374-0.026,2.771-0.007,4.15-0.092
		c-0.146,0.638-0.312,1.268-0.51,1.884c-0.002,0-0.003-0.001-0.005-0.001c-2.275,0.328-4.469,0.832-6.781,0.945
		c-0.225,0.011-0.227,0.359,0,0.352c2.179-0.07,4.562-0.221,6.66-0.89c-0.336,0.984-0.736,1.937-1.199,2.853
		c-3.455,0.579-6.891,1.177-10.366,1.643c-0.111,0.015-0.117,0.19,0,0.179c3.386-0.3,6.812-0.733,10.148-1.411
		c-0.596,1.121-1.279,2.189-2.05,3.188c-5.573,0.464-11.158,1.337-16.685,2.168c-0.145,0.022-0.113,0.277,0.035,0.259
		c5.424-0.658,10.888-1.185,16.295-1.975c-0.786,0.967-1.648,1.872-2.585,2.699c-0.029-0.011-0.048-0.034-0.086-0.031
		c-6.532,0.494-13.061,1.032-19.587,1.603c-0.091,0.008-0.094,0.15,0,0.144c6.371-0.376,12.74-0.786,19.107-1.236
		c-1.156,0.956-2.403,1.81-3.742,2.532c-0.023-0.054-0.064-0.098-0.145-0.095c-5.371,0.216-10.717,0.455-16.095,0.411
		c-0.175-0.001-0.174,0.265,0,0.271c5.219,0.159,10.478,0.147,15.685-0.301c-2.879,1.453-6.121,2.344-9.588,2.516
		c-0.172,0.009-0.301,0.078-0.394,0.175c-4.985-0.863-9.417-2.533-13.617-5.56c-6.043-4.355-8.701-9.814-9.104-17.217
		C1.292,12.628,10.7,1.467,23.784,1.422c3.083-0.011,6.031,0.623,8.736,1.762c-4.621,0.024-9.269,0.411-13.865,0.805
		c-0.142,0.012-0.146,0.234,0,0.225c4.947-0.289,9.904-0.327,14.849-0.585c3.292,1.573,6.183,3.906,8.444,6.77
		c-2.047,0.009-4.11,0.152-6.15,0.243c-0.182,0.008-0.184,0.287,0,0.285c2.145-0.027,4.318,0.004,6.463-0.124
		c0.727,0.962,1.393,1.973,1.973,3.038c-2.417-0.075-4.888,0.227-7.261,0.588c-0.202,0.031-0.156,0.386,0.048,0.359
		c2.496-0.325,4.97-0.352,7.47-0.466c0.338,0.656,0.657,1.322,0.934,2.01c-2.563,0.236-5.165,0.119-7.69,0.673
		c-0.116,0.025-0.093,0.223,0.028,0.211c2.586-0.259,5.263-0.034,7.823-0.453c0.65,1.706,1.131,3.492,1.371,5.346
		c-1.399,0.132-2.737,0.277-4.16,0.141c-0.238-0.023-0.231,0.341,0,0.369c1.37,0.166,2.856,0.224,4.226-0.069
		c0.006,0.051,0.018,0.101,0.023,0.152c0.062,0.604,0.092,1.2,0.105,1.792c-2.362-0.232-4.889,0.116-7.2,0.444
		c-0.171,0.024-0.132,0.323,0.041,0.304c2.395-0.262,4.784-0.151,7.171-0.276C47.165,25.735,47.129,26.495,47.061,27.246z"/>
	<path style="fill:#1D1D1B;" d="M46.291,19.489c-1.835-0.199-3.766,0.018-5.596,0.205c-0.213,0.022-0.219,0.354,0,0.337
		c1.865-0.141,3.735-0.049,5.596-0.17C46.534,19.846,46.527,19.515,46.291,19.489z"/>
	<path style="fill:#1D1D1B;" d="M39.119,7.745c-4.311,0.022-8.634,0.325-12.941,0.514c-0.128,0.006-0.13,0.203,0,0.2
		c4.308-0.095,8.64-0.077,12.941-0.338C39.359,8.106,39.363,7.744,39.119,7.745z"/>
	<path style="fill:#1D1D1B;" d="M36.321,5.336c-6.354,0.182-12.732,0.721-19.069,1.21c-0.143,0.011-0.146,0.231,0,0.225
		c6.348-0.279,12.742-0.513,19.069-1.098C36.533,5.654,36.542,5.33,36.321,5.336z"/>
	<path style="fill:#1D1D1B;" d="M30.216,30.901c-3.214,0.203-6.422,0.516-9.636,0.729c-0.148,0.01-0.15,0.239,0,0.232
		c3.209-0.137,6.446-0.294,9.636-0.676C30.393,31.164,30.402,30.889,30.216,30.901z"/>
</g>
<g>
</g>
<g>
</g>
<g>
</g>
<g>
</g>
<g>
</g>
<g>
</g>
<g>
</g>
<g>
</g>
<g>
</g>
<g>
</g>
<g>
</g>
<g>
</g>
<g>
</g>
<g>
</g>
<g>
</g>
</svg>
