<?xml version="1.0" encoding="iso-8859-1"?>
<!-- Generator: Adobe Illustrator 18.0.0, SVG Export Plug-In . SVG Version: 6.00 Build 0)  -->
<!DOCTYPE svg PUBLIC "-//W3C//DTD SVG 1.1//EN" "http://www.w3.org/Graphics/SVG/1.1/DTD/svg11.dtd">
<svg version="1.1" id="Capa_1" xmlns="http://www.w3.org/2000/svg" xmlns:xlink="http://www.w3.org/1999/xlink" x="0px" y="0px"
	 viewBox="0 0 50.132 50.132" style="enable-background:new 0 0 50.132 50.132;" xml:space="preserve">
<g>
	<path style="fill:#1D1D1B;" d="M49.332,23.291c-0.05-0.475-0.775-0.498-0.759,0c0.024,0.761,0.006,1.528-0.04,2.296
		c-3.881,0.115-7.755,0.401-11.642,0.46c-0.152,0.002-0.152,0.232,0,0.235c3.844,0.093,7.776,0.118,11.614-0.284
		c-0.058,0.761-0.143,1.524-0.261,2.285c-5.736-0.243-11.565-0.062-17.299,0.165c-0.099,0.004-0.1,0.152,0,0.155
		c5.724,0.147,11.543,0.246,17.264-0.074c-0.128,0.782-0.277,1.563-0.47,2.336c-3.044,0.204-6.04,0.39-9.097,0.326
		c-0.16-0.003-0.156,0.234,0,0.246c2.97,0.231,6.03,0.236,8.989-0.17c-0.171,0.644-0.357,1.285-0.572,1.918
		c-0.011-0.001-0.017-0.012-0.03-0.011c-3.263,0.323-6.514,0.672-9.787,0.881c-0.136,0.009-0.139,0.217,0,0.215
		c3.223-0.05,6.462-0.222,9.658-0.656c-0.319,0.89-0.672,1.769-1.077,2.621c-1.683-0.005-3.45,0.39-5.115,0.617
		c-0.152,0.021-0.117,0.284,0.036,0.269c1.597-0.147,3.318-0.175,4.899-0.512c-0.413,0.834-0.852,1.653-1.348,2.436
		c-0.02-0.009-0.035-0.025-0.059-0.025c-2.848,0.032-5.725,0.424-8.562,0.678c-0.18,0.016-0.185,0.296,0,0.285
		c2.783-0.167,5.62-0.22,8.386-0.586c-0.629,0.955-1.315,1.868-2.068,2.718c-4.848,0.194-9.712,0.65-14.539,1.126
		c-0.115,0.011-0.119,0.188,0,0.183c4.735-0.221,9.503-0.471,14.222-0.957c-0.787,0.851-1.63,1.648-2.543,2.361
		c-5.579-0.096-11.184,0.228-16.758,0.452c-0.104,0.004-0.105,0.163,0,0.162c5.494-0.069,11.024-0.048,16.509-0.42
		c-1.11,0.84-2.299,1.582-3.587,2.177c-5.574-0.306-11.84,0.883-17.261-0.541c-0.112-0.029-0.158,0.138-0.048,0.173
		c5.019,1.577,11.511,0.941,16.771,0.601c-0.253,0.107-0.495,0.23-0.754,0.327c-5.936,2.225-14.643,0.684-20.295-1.783
		c-5.725-2.499-9.861-7.032-11.079-13.249C0.509,21.9,4.317,9.477,14.398,3.986c5.753-3.134,11.587-3.378,16.894-1.631
		c-1.752-0.18-3.553-0.044-5.271,0.232c-0.151,0.024-0.085,0.248,0.063,0.227c2.292-0.319,4.438-0.151,6.72,0.096
		c1.289,0.526,2.543,1.167,3.751,1.914c-2.686-0.043-5.371-0.096-8.057-0.206c-0.114-0.005-0.111,0.166,0,0.176
		c2.895,0.247,5.802,0.406,8.709,0.44c1.045,0.688,2.056,1.447,3.022,2.282c-3.846-0.119-7.712-0.049-11.559-0.007
		c-0.143,0.001-0.143,0.218,0,0.221c3.899,0.097,7.817,0.226,11.717,0.155c0.08-0.001,0.123-0.048,0.148-0.102
		c1.61,1.429,3.099,3.05,4.434,4.823c-1.255,0.458-2.485,0.996-3.711,1.529c-1.749,0.046-3.488,0.16-5.242,0.121
		c-0.136-0.003-0.135,0.203,0,0.211c1.403,0.079,2.838,0.149,4.257,0.098c-0.553,0.242-1.105,0.484-1.656,0.73
		c-0.898,0.401-2.183,1.279-3.17,1.375c-7.406-13.578-24.578-5.118-22.736,9.098c0.857,6.614,5.414,13.359,12.438,14.276
		c5.398,0.704,10.259-2.703,10.941-8.034c0.499-0.16,0.62-0.903,0.022-1.073c-2.813-0.801-6.485-0.365-9.314,0.234
		c-0.097,0.021-0.175,0.078-0.241,0.148c-0.165-1.789-0.778-5.035-0.069-6.324c1.135-2.066,5.17-1.369,7.119-1.4
		c4.799-0.076,9.559,0.192,14.349,0.396c0.799,0.034,0.751-1.118,0-1.213c-7.278-0.916-14.65-0.715-21.942-0.092
		c-0.353,0.03-0.569,0.255-0.605,0.605c-0.313,2.963-0.27,5.73,0.402,8.634c0.076,0.33,0.495,0.359,0.689,0.159
		c0.044,0.045,0.09,0.09,0.15,0.102c1.031,0.426,2.981-0.143,4.105-0.186c1.493-0.056,3.012,0.124,4.502,0.074
		c-1.712,5.98-8.31,8.3-13.808,5.336c-4.35-2.345-6.74-7.192-7.311-11.926c-0.64-5.314,1.273-11.121,6.386-13.577
		c5.797-2.785,11.128,0.654,13.78,5.797c0.278,0.539,0.894,0.443,1.206,0.084c1.234,0.35,3.006-0.827,4.056-1.253
		c2.104-0.853,4.252-1.672,6.282-2.688c0.394-0.197,0.429-0.641,0.261-0.977c0.005-0.076-0.003-0.156-0.046-0.243
		C40.559,1.437,26.178-3.087,14.985,2.208C3.6,7.593-1.219,21.156,1.317,33.09C4.09,46.141,19.294,51.544,31.381,49.821
		c11.075-1.579,18.015-13.471,18.07-24c0.032-0.059,0.033-0.126,0.002-0.18C49.451,24.848,49.414,24.062,49.332,23.291z"/>
	<path style="fill:#1D1D1B;" d="M44.24,12.004c-3.034,0.098-6.062,0.187-9.098,0.158c-0.129-0.001-0.129,0.195,0,0.2
		c3.03,0.116,6.069,0.158,9.098,0.015C44.478,12.365,44.481,11.996,44.24,12.004z"/>
	<path style="fill:#1D1D1B;" d="M41.612,9.831c-3.122-0.098-6.327,0.035-9.445,0.234c-0.114,0.007-0.116,0.176,0,0.179
		c3.122,0.082,6.329,0.093,9.445-0.122C41.798,10.11,41.802,9.837,41.612,9.831z"/>
</g>
<g>
</g>
<g>
</g>
<g>
</g>
<g>
</g>
<g>
</g>
<g>
</g>
<g>
</g>
<g>
</g>
<g>
</g>
<g>
</g>
<g>
</g>
<g>
</g>
<g>
</g>
<g>
</g>
<g>
</g>
</svg>
