<?xml version="1.0" encoding="iso-8859-1"?>
<!-- Generator: Adobe Illustrator 18.0.0, SVG Export Plug-In . SVG Version: 6.00 Build 0)  -->
<!DOCTYPE svg PUBLIC "-//W3C//DTD SVG 1.1//EN" "http://www.w3.org/Graphics/SVG/1.1/DTD/svg11.dtd">
<svg version="1.1" id="Capa_1" xmlns="http://www.w3.org/2000/svg" xmlns:xlink="http://www.w3.org/1999/xlink" x="0px" y="0px"
	 viewBox="0 0 50.699 50.699" style="enable-background:new 0 0 50.699 50.699;" xml:space="preserve">
<g>
	<path style="fill:#1D1D1B;" d="M32.244,33.351c-1.075-2.06-3.319-3.604-5.332-5.224c0.028-0.069-0.009-0.171-0.099-0.166
		c-0.032,0.002-0.063,0.004-0.095,0.006c-1.47-1.197-2.792-2.445-3.401-3.982c0.16-2.493,3.82-3.939,5.371-5.816
		c1.053-1.275,1.876-2.77,2.168-4.413c0.598-3.365-1.104-6.807-3.557-9.07c1.368,0.141,2.781,0.018,3.966-0.736
		C32.01,3.476,33,2.452,32.966,1.47c0.251-0.287,0.119-0.864-0.384-0.894C24.216,0.065,10.206-2.156,6.051,7.649
		C3.098,14.617,8.14,25.247,16.385,23.966c-0.924,1.343-0.527,3.147,0.565,4.346c-6.576-0.125-13.607,2.895-15.136,9.918
		C0.334,45.033,5.633,49.81,12.002,50.536c7.255,0.828,17.064-1.42,20.3-8.705C33.513,39.108,33.646,36.038,32.244,33.351z
		 M31.546,38.929c-1.076-0.009-2.189,0.172-3.254,0.263c-0.128,0.011-0.131,0.21,0,0.203c1.048-0.062,2.154-0.048,3.202-0.2
		c-0.13,0.587-0.318,1.162-0.564,1.721c-1.239,0.075-2.437,0.212-3.692,0.146c-0.103-0.005-0.099,0.148,0,0.158
		c1.146,0.123,2.415,0.172,3.575-0.043c-0.244,0.513-0.528,1.014-0.859,1.495c-0.268,0.038-0.537,0.08-0.808,0.095
		c-0.497,0.029-0.99,0.011-1.486-0.028c-0.116-0.009-0.11,0.163,0,0.177c0.636,0.081,1.388,0.14,2.086,0.061
		c-0.361,0.493-0.764,0.966-1.205,1.416c-1.26-0.041-2.603,0.162-3.835,0.257c-0.114,0.009-0.117,0.183,0,0.179
		c1.128-0.039,2.363,0.005,3.522-0.124c-0.624,0.597-1.306,1.153-2.046,1.649c-1.547,0.078-3.099,0.3-4.633,0.474
		c-0.094,0.011-0.097,0.157,0,0.15c1.381-0.099,2.783-0.163,4.165-0.322c-0.696,0.433-1.429,0.82-2.192,1.148
		c-3.022-0.167-6.177,0.009-9.148,0.546c-0.041,0.007-0.032,0.075,0.01,0.072c2.877-0.193,5.725-0.325,8.6-0.398
		c-0.625,0.244-1.265,0.454-1.916,0.619c-6.512,1.648-17.481,1.425-18.288-7.47c-0.795-8.764,8.427-11.834,15.509-11.895
		c0.214,0.094,0.436,0.175,0.669,0.226c0.316,0.069,0.536-0.124,0.6-0.359c0.161-0.219,0.045-0.624-0.315-0.672
		c-0.071-0.01-0.144-0.013-0.216-0.021c-2.066-0.786-2.427-2.74-1.76-4.665c0.009-0.002,0.017-0.003,0.026-0.006
		c0.219-0.056,0.218-0.292,0.089-0.414c-0.019-0.123-0.178-0.225-0.287-0.143c-0.02,0.015-0.034,0.032-0.053,0.047
		c-5.112-0.552-9.317-3.065-10.511-8.418C5.35,9.567,8.121,4.579,13.095,2.638c5.704-2.225,12.388-1.161,18.458-1.023
		c-0.008,0.014-0.013,0.026-0.021,0.041c-0.121,0.208-0.28,0.397-0.455,0.573c-0.016-0.006-0.025-0.019-0.046-0.02
		c-2.799-0.055-5.635,0.17-8.431,0.323c-0.126,0.007-0.128,0.2,0,0.198c2.712-0.035,5.466-0.01,8.171-0.228
		c-0.17,0.135-0.347,0.26-0.53,0.361c-1.115,0.613-2.445,0.628-3.681,0.741c-0.212,0.019-0.365,0.173-0.435,0.351
		C24.739,4,23.35,4.13,21.968,4.229c-0.101,0.007-0.103,0.163,0,0.158c1.369-0.06,2.747-0.09,4.114-0.2
		c0.011,0.156,0.097,0.297,0.283,0.356c1.131,1.859,2.63,3.569,3.221,5.709c-1.41-0.057-2.838,0.019-4.247,0.049
		c-0.102,0.002-0.102,0.156,0,0.158c1.431,0.031,2.881,0.109,4.312,0.047c0.113,0.482,0.167,0.947,0.186,1.401
		c-1.91-0.035-3.858,0.163-5.762,0.29c-0.113,0.008-0.115,0.18,0,0.177c1.909-0.039,3.869-0.011,5.77-0.212
		c0.003,0.804-0.12,1.569-0.368,2.286c-1.248-0.086-2.52,0.03-3.749,0.225c-0.142,0.023-0.08,0.233,0.059,0.214
		c1.205-0.166,2.385-0.173,3.588-0.158c-0.2,0.51-0.449,1-0.747,1.468c-1.515,0.037-3.041,0.153-4.55,0.264
		c-0.111,0.008-0.114,0.177,0,0.175c1.448-0.03,2.911-0.059,4.36-0.152c-0.663,0.963-1.505,1.837-2.425,2.632
		c-1.068,0.038-2.153,0.176-3.201,0.264c-0.108,0.009-0.111,0.174,0,0.171c0.913-0.031,1.857-0.033,2.787-0.088
		c-0.067,0.055-0.133,0.112-0.201,0.166c-0.881,0.707-1.748,1.284-2.271,2.015c-1.088,0.027-2.193,0.162-3.267,0.257
		c-0.125,0.011-0.129,0.204,0,0.198c1.007-0.041,2.048-0.049,3.066-0.142c-0.165,0.309-0.271,0.648-0.29,1.036
		c-0.115,0.045-0.212,0.13-0.206,0.278c0.007,0.173,0.033,0.339,0.059,0.504c-1.017,0.04-2.031,0.116-3.055,0.089
		c-0.102-0.003-0.101,0.154,0,0.158c1.016,0.047,2.071,0.084,3.096-0.013c0.129,0.592,0.373,1.137,0.698,1.646
		c-1.627,0.328-3.182,0.475-4.855,0.294c-0.103-0.011-0.128,0.165-0.025,0.182c1.651,0.275,3.408,0.231,5.026-0.243
		c0.553,0.788,1.295,1.491,2.086,2.158c-1.514,0.099-3.019,0.193-4.547,0.173c-0.093-0.001-0.091,0.138,0,0.144
		c1.602,0.097,3.254,0.115,4.865-0.051c0.717,0.589,1.456,1.154,2.119,1.731c-2.328-0.001-4.659,0.008-6.985,0.072
		c-0.103,0.003-0.103,0.157,0,0.16c2.44,0.068,4.886,0.075,7.327,0.073c0.165,0.152,0.325,0.305,0.475,0.46
		c0.362,0.374,0.673,0.751,0.962,1.13c-1.383-0.003-2.857,0.15-4.154,0.437c-0.088,0.019-0.067,0.156,0.021,0.155
		c1.43-0.016,2.933-0.109,4.378-0.261c0.465,0.656,0.839,1.317,1.111,1.978c-1.518-0.013-3.171,0.144-4.594,0.538
		c-0.081,0.022-0.046,0.136,0.034,0.123c0.049-0.008,0.098-0.016,0.147-0.024c0.059-0.01,0.044-0.105-0.014-0.104
		c0.195,0.147,0.41,0.172,0.646,0.074c0.133-0.015,0.266-0.03,0.399-0.045c0.466-0.05,0.933-0.095,1.401-0.131
		c0.699-0.055,1.401-0.075,2.101-0.12c0.245,0.666,0.404,1.331,0.476,1.989c-1.429,0.023-2.868,0.179-4.292,0.29
		c-0.18,0.015-0.185,0.294,0,0.285c0.305-0.016,0.613-0.03,0.92-0.044c0.079,0.024,0.157,0.052,0.236,0.09
		c0.062,0.027,0.117-0.06,0.054-0.093c-0.01-0.005-0.018-0.005-0.028-0.01c1.051-0.048,2.104-0.098,3.144-0.219
		c0.001,0,0.002-0.001,0.003-0.001C31.714,37.553,31.674,38.248,31.546,38.929z"/>
	<path style="fill:#1D1D1B;" d="M12.878,4.819c-0.18-0.268-0.588-0.367-0.775,0.004c-1.947,3.865-0.709,9.494,1.699,12.956
		c2.066,2.969,6.141,4.163,8.657,1.065C26.887,13.392,19.418-0.246,12.878,4.819z M21.442,18.375
		c-3.681,3.457-7.002-0.92-8.171-4.177c-1.001-2.791-1.593-5.735-0.471-8.561c0.017-0.007,0.035-0.009,0.052-0.021
		C19.068,1.554,25.936,14.156,21.442,18.375z"/>
	<path style="fill:#1D1D1B;" d="M27.19,38.709C26.454,28.452,6.942,30.144,8.022,39.26c0,0.002-0.002,0.002-0.002,0.004
		C6.961,48.532,27.985,49.781,27.19,38.709z M26.022,40.532c-1.715,7.03-15.837,6.683-17.422-0.25
		c0.048-0.053,0.08-0.12,0.067-0.208C7.258,30.453,28.584,30.037,26.022,40.532z"/>
	<path style="fill:#1D1D1B;" d="M48.55,18.893c-1.712-0.142-3.44-0.075-5.104,0.35c0.136-1.566,0.186-3.044,0.648-4.59
		c0.118-0.395-0.2-0.719-0.571-0.75c-1.403-0.117-2.862-0.145-4.26,0.04c-0.14,0.019-0.233,0.119-0.288,0.233
		c-0.176,0.016-0.337,0.114-0.364,0.314c-0.118,0.876-0.097,1.755-0.059,2.637c0.019,0.451,0.04,0.906,0.08,1.356
		c0.018,0.206,0.111,0.567,0.128,0.827c-1.759-0.099-3.602,0.057-5.362,0.066c-0.358,0.002-0.532,0.402-0.424,0.677
		c-0.179,0.57-0.138,1.213-0.108,1.802c0.035,0.674,0.06,1.429,0.347,2.052c-0.149,0.154-0.088,0.453,0.193,0.478
		c1.732,0.154,3.822,0.424,5.598,0.185c-0.168,2.109-0.019,4.238,0.1,6.345c0.016,0.285,0.22,0.493,0.508,0.508
		c1.048,0.055,3.994,0.503,4.557-0.795c0.32-0.739,0.147-1.823,0.166-2.606c0.029-1.178,0.02-2.358,0.021-3.536
		c1.391,0.203,3.118-0.285,4.316-0.693c0.156-0.053,0.23-0.164,0.245-0.281c0.118-0.086,0.203-0.219,0.205-0.411
		c0.009-1.208,0.013-2.416,0.014-3.624C49.135,19.142,48.865,18.919,48.55,18.893z M45.829,23.403
		c-0.725,0.034-1.507-0.089-2.197,0.138c-0.229,0.075-0.357,0.388-0.241,0.592c-0.061,0.08-0.108,0.176-0.112,0.303
		c-0.005,0.138-0.007,0.277-0.011,0.415c-0.011-0.001-0.018-0.008-0.031-0.005c-0.768,0.174-1.509,0.271-2.296,0.2
		c-0.107-0.01-0.103,0.151,0,0.164c0.777,0.1,1.573,0.072,2.322-0.17c-0.015,0.567-0.029,1.134-0.044,1.7
		c-0.557,0.029-1.122,0.148-1.669,0.23c-0.109,0.016-0.085,0.208,0.026,0.195c0.539-0.066,1.101-0.113,1.637-0.23
		c-0.017,0.637-0.044,1.274-0.05,1.912c-0.599-0.023-1.204,0.007-1.803,0.018c-0.087,0.002-0.087,0.133,0,0.135
		c0.598,0.011,1.201,0.04,1.799,0.018c0,0.01,0,0.02,0,0.03c-0.006,1.028,0.088,1.183-1.031,1.294
		c-0.673,0.067-1.346,0.078-2.021,0.07c-0.035-2.021-0.07-4.055-0.393-6.053c0.159-0.21,0.094-0.589-0.203-0.648
		c-1.763-0.356-3.927-0.098-5.757,0.074c0.187-0.661,0.14-1.413,0.152-2.088c0.008-0.433,0.031-0.871-0.019-1.295
		c1.719,0.261,3.687,0.339,5.316-0.125c0.297-0.085,0.385-0.346,0.322-0.575c0.046-0.05,0.086-0.107,0.113-0.176
		c0.266-0.699,0.111-1.662,0.086-2.396c-0.027-0.814-0.072-1.634-0.223-2.436c1.074,0.223,2.188,0.333,3.288,0.374
		c-0.045,0.214-0.078,0.436-0.117,0.655c-0.596-0.045-1.201,0.055-1.768,0.234c-0.134,0.042-0.078,0.252,0.058,0.212
		c0.561-0.165,1.102-0.2,1.665-0.195c-0.078,0.486-0.144,0.976-0.18,1.468c-0.643-0.014-1.289,0.002-1.932,0.018
		c-0.118,0.003-0.118,0.181,0,0.183c0.637,0.016,1.278,0.032,1.916,0.018c-0.024,0.424-0.033,0.846-0.007,1.261
		c-0.775-0.033-1.557,0-2.331,0.014c-0.118,0.002-0.118,0.181,0,0.183c0.78,0.014,1.569,0.047,2.35,0.013
		c0.018,0.201,0.023,0.406,0.056,0.602c0.04,0.235,0.204,0.329,0.381,0.329c0.007,0,0.009,0.006,0.015,0.006
		c1.698-0.023,3.383-0.094,5.077-0.024c0.006,0.311,0.014,0.622,0.021,0.933c-2.563,0.11-5.133,0.329-7.687,0.566
		c-0.088,0.008-0.091,0.142,0,0.139c2.561-0.087,5.138-0.195,7.693-0.41c0.007,0.315,0.014,0.63,0.021,0.945
		c-2.632,0.002-5.317,0.303-7.929,0.523c-0.093,0.008-0.096,0.151,0,0.148c2.62-0.082,5.319-0.095,7.935-0.394
		c0.005,0.204,0.008,0.407,0.014,0.611c0.001,0.026,0.012,0.045,0.016,0.069C47.32,23.28,46.576,23.368,45.829,23.403z"/>
	<path style="fill:#1D1D1B;" d="M28.715,8.527c-2.016-0.237-4.088-0.261-6.117-0.342c-0.1-0.004-0.098,0.146,0,0.154
		c2.024,0.167,4.086,0.396,6.117,0.405C28.859,8.745,28.851,8.543,28.715,8.527z"/>
	<path style="fill:#1D1D1B;" d="M27.236,6.265c-1.175-0.116-2.404-0.002-3.584,0.016c-0.119,0.002-0.12,0.184,0,0.186
		c1.18,0.018,2.41,0.132,3.584,0.016C27.375,6.469,27.376,6.279,27.236,6.265z"/>
</g>
<g>
</g>
<g>
</g>
<g>
</g>
<g>
</g>
<g>
</g>
<g>
</g>
<g>
</g>
<g>
</g>
<g>
</g>
<g>
</g>
<g>
</g>
<g>
</g>
<g>
</g>
<g>
</g>
<g>
</g>
</svg>
