<?xml version="1.0" encoding="iso-8859-1"?>
<!-- Generator: Adobe Illustrator 18.0.0, SVG Export Plug-In . SVG Version: 6.00 Build 0)  -->
<!DOCTYPE svg PUBLIC "-//W3C//DTD SVG 1.1//EN" "http://www.w3.org/Graphics/SVG/1.1/DTD/svg11.dtd">
<svg version="1.1" id="Capa_1" xmlns="http://www.w3.org/2000/svg" xmlns:xlink="http://www.w3.org/1999/xlink" x="0px" y="0px"
	 viewBox="0 0 49.499 49.499" style="enable-background:new 0 0 49.499 49.499;" xml:space="preserve">
<g>
	<path style="fill:#1D1D1B;" d="M49.227,26.231c-0.108,0.007-0.215,0.014-0.324,0.021c0.019-0.216,0.042-0.432,0.056-0.649
		C49.864,11.628,38.297-0.021,24.469,0C10.525,0.021-0.014,11.987,0.224,25.579C0.438,37.748,10.96,49.441,23.503,49.031
		c0.061,0.196,0.219,0.363,0.476,0.385c13.736,1.16,23.713-9.982,24.914-23.035c0.116-0.018,0.234-0.026,0.349-0.046
		C49.299,26.324,49.286,26.227,49.227,26.231z M47.364,20.311c-0.011-0.017-0.013-0.039-0.04-0.041
		c-1.048-0.072-2.112-0.024-3.163-0.023c-0.038,0-0.06,0.02-0.074,0.046c-0.204-0.83-0.48-1.644-0.8-2.43
		c0.01,0.003,0.015,0.011,0.028,0.009c1.126-0.098,2.277-0.147,3.405-0.287C46.984,18.476,47.213,19.38,47.364,20.311z
		 M6.892,27.385C2.589,16.543,14.665,5.795,24.594,5.428c5.383-0.199,9.563,1.831,12.959,5.908
		c3.417,4.102,9.846,13.555,2.892,18.034c-0.113,0.073-0.178,0.167-0.223,0.266c-5.42-1.736-7.977-9.807-12.455-13.383
		c-3.477-2.777-7.474-4.578-11.904-5.056c-0.173-0.019-0.292,0.067-0.358,0.188c-0.191-0.065-0.424,0.067-0.378,0.337
		C15.966,16.617,14.929,30.526,6.892,27.385z M40.244,42.185c-3.198-0.279-6.407-0.317-9.611-0.078
		c-3.242,0.242-6.411,0.919-9.669,0.551c-0.084-0.01-0.082,0.121,0,0.131c3.263,0.4,6.419-0.263,9.669-0.485
		c3.147-0.215,6.28-0.132,9.423,0.067c-2.281,2.226-4.992,3.965-8.053,4.987c-0.018-0.015-0.037-0.028-0.067-0.028
		c-2.743,0.056-5.486,0.129-8.227,0.231c-0.051,0.002-0.052,0.08,0,0.08c2.549-0.002,5.1-0.034,7.649-0.077
		c-1.809,0.537-3.728,0.833-5.742,0.843c-0.044-0.114-0.129-0.213-0.3-0.228C12.831,47.11,1.194,39.249,0.801,25.579
		C0.419,12.309,11.3,1.234,24.469,1.131c2.425-0.019,4.764,0.352,6.967,1.039c-0.816-0.054-1.635-0.078-2.453-0.047
		c-0.103,0.004-0.104,0.16,0,0.16c1.094,0.006,2.181,0.068,3.268,0.16c1.209,0.428,2.377,0.944,3.486,1.559
		C34.818,3.997,33.9,4.01,32.988,4.046c-0.077,0.003-0.078,0.117,0,0.12c1.022,0.041,2.054,0.052,3.082,0.038
		c0.968,0.559,1.901,1.174,2.775,1.862c-1.066-0.056-2.148,0.095-3.163,0.404c-0.089,0.027-0.052,0.163,0.039,0.14
		c1.149-0.286,2.257-0.355,3.411-0.311c0.838,0.682,1.631,1.417,2.365,2.207c-0.938,0.046-1.876,0.122-2.813,0.19
		c-0.12,0.009-0.121,0.196,0,0.188c0.989-0.064,1.98-0.119,2.967-0.211c0.756,0.829,1.459,1.706,2.089,2.638
		c-1.205,0.135-2.407,0.33-3.605,0.502c-0.078,0.011-0.06,0.149,0.019,0.139c1.229-0.153,2.468-0.282,3.693-0.477
		c0.48,0.724,0.93,1.469,1.326,2.247c-1.172-0.08-2.366-0.014-3.54-0.007c-0.115,0.001-0.116,0.179,0,0.179
		c1.189,0.007,2.398,0.075,3.584-0.009c0.019-0.001,0.016-0.02,0.028-0.029c0.56,1.117,1.033,2.283,1.404,3.494
		c-1.112,0.074-2.23,0.239-3.332,0.35c-0.039,0.004-0.059,0.03-0.071,0.059c-0.2-0.483-0.412-0.958-0.645-1.411
		c-3.03-5.897-7.91-11.314-14.789-12.046c-6.754-0.718-13.877,2.222-18.177,7.491C6.504,15.63,3.533,22.085,5.788,26.938
		c-0.19,0.027-0.338,0.256-0.158,0.413c0.214,0.188,0.434,0.347,0.658,0.494c0.077,0.12,0.139,0.245,0.223,0.363
		c0.153,0.214,0.395,0.186,0.523,0.045c2.509,1.126,5.374,0.008,7.121-2.35c2.548-3.44,3.148-9.726,1.73-13.818
		c2.74,0.765,5.313,1.758,7.667,3.066c-1.142-0.004-2.288,0.035-3.426,0.039c-0.115,0-0.116,0.179,0,0.179
		c1.281,0.004,2.573,0.057,3.858,0.038c1.251,0.725,2.444,1.534,3.56,2.457c-1.769,0.031-3.546,0.19-5.31,0.286
		c-0.08,0.004-0.08,0.128,0,0.125c1.833-0.075,3.684-0.081,5.513-0.235c0.847,0.717,1.664,1.481,2.422,2.332
		c-1.944,0.038-3.888,0.14-5.829,0.216c-0.092,0.004-0.093,0.146,0,0.143c2-0.049,4.004-0.07,6.002-0.163
		c0.674,0.774,1.314,1.598,1.909,2.491c0.122,0.183,0.232,0.366,0.35,0.549c-1.768-0.055-3.548,0.072-5.305,0.254
		c-0.103,0.011-0.104,0.172,0,0.162c1.811-0.169,3.612-0.195,5.428-0.224c0.589,0.923,1.153,1.847,1.741,2.713
		c-1.828,0.041-3.651,0.109-5.484,0.057c-0.095-0.003-0.095,0.144,0,0.148c1.869,0.074,3.768,0.128,5.644,0.022
		c1.099,1.577,2.338,2.94,4.18,3.686c-4.953-0.249-9.91-0.263-14.886-0.066c-0.087,0.003-0.087,0.138,0,0.135
		c5.333-0.184,10.65-0.069,15.961,0.271c0.165,0.041,0.327,0.085,0.501,0.117c0.153,0.028,0.281-0.006,0.391-0.067
		c1.939,0.134,3.877,0.3,5.814,0.497C45.373,35.475,43.185,39.248,40.244,42.185z M46.674,31.029
		c-1.885-0.194-3.769-0.352-5.654-0.474c0.018-0.037,0.04-0.072,0.051-0.111c0,0,0.001,0,0.001,0
		c0.68-0.456,1.234-0.981,1.696-1.548c0.075,0,0.137,0,0.16-0.001c0.299-0.02,0.599-0.028,0.899-0.05
		c1.132-0.083,2.254-0.158,3.386-0.186C47.065,29.459,46.891,30.252,46.674,31.029z M47.651,24.874
		c-0.02,0.491-0.065,0.977-0.114,1.462c-1.121,0.065-2.236,0.105-3.373,0.04c-0.08-0.005-0.08,0.119,0,0.124
		c1.106,0.071,2.239,0.096,3.358,0.027c-0.07,0.656-0.16,1.307-0.275,1.952c-1.212-0.019-2.405,0.109-3.615,0.207
		c-0.169,0.014-0.441-0.002-0.708,0.007c1.746-2.307,1.885-5.36,1.192-8.279c0.014,0.009,0.026,0.02,0.047,0.02
		c1.05,0.001,2.115,0.048,3.163-0.023c0.032-0.002,0.038-0.028,0.048-0.05c0.148,0.923,0.247,1.863,0.278,2.82
		c-0.893-0.071-1.803,0.013-2.68,0.165c-0.104,0.018-0.059,0.172,0.043,0.157c0.89-0.138,1.758-0.14,2.645-0.124
		C47.67,23.874,47.671,24.372,47.651,24.874z"/>
	<path style="fill:#1D1D1B;" d="M35.517,45.11c-5.9-0.049-11.809,0.075-17.708,0.194c-0.068,0.001-0.068,0.106,0,0.106
		c5.9-0.003,11.811-0.002,17.708-0.173C35.599,45.235,35.599,45.111,35.517,45.11z"/>
	<path style="fill:#1D1D1B;" d="M42.265,39.419c-6.584-0.563-13.214-0.654-19.819-0.579c-0.077,0.001-0.078,0.12,0,0.12
		c6.622-0.013,13.209,0.309,19.819,0.657C42.394,39.624,42.391,39.43,42.265,39.419z"/>
	<path style="fill:#1D1D1B;" d="M43.976,36.908c-7.937-1.129-16.047-1.49-24.057-1.232c-0.041,0.001-0.041,0.063,0,0.063
		c8.066,0.051,16.008,0.557,24.031,1.359C44.058,37.109,44.085,36.924,43.976,36.908z"/>
	<path style="fill:#1D1D1B;" d="M45.223,33.638c-6.593-0.587-13.217-0.641-19.828-0.368c-0.073,0.003-0.074,0.116,0,0.114
		c6.63-0.195,13.214,0.037,19.828,0.492C45.377,33.887,45.374,33.651,45.223,33.638z"/>
</g>
<g>
</g>
<g>
</g>
<g>
</g>
<g>
</g>
<g>
</g>
<g>
</g>
<g>
</g>
<g>
</g>
<g>
</g>
<g>
</g>
<g>
</g>
<g>
</g>
<g>
</g>
<g>
</g>
<g>
</g>
</svg>
