<?xml version="1.0" encoding="iso-8859-1"?>
<!-- Generator: Adobe Illustrator 18.0.0, SVG Export Plug-In . SVG Version: 6.00 Build 0)  -->
<!DOCTYPE svg PUBLIC "-//W3C//DTD SVG 1.1//EN" "http://www.w3.org/Graphics/SVG/1.1/DTD/svg11.dtd">
<svg version="1.1" id="Capa_1" xmlns="http://www.w3.org/2000/svg" xmlns:xlink="http://www.w3.org/1999/xlink" x="0px" y="0px"
	 viewBox="0 0 48.351 48.351" style="enable-background:new 0 0 48.351 48.351;" xml:space="preserve">
<g>
	<path style="fill:#1D1D1B;" d="M41.624,9.616c0.169-0.227,0.204-0.545-0.067-0.822c-1.489-1.524-3.158-2.896-4.743-4.32
		c-1.422-1.278-2.823-2.786-4.509-3.71c-0.149-0.081-0.314-0.01-0.401,0.11c-0.103-0.119-0.252-0.203-0.456-0.209
		c-4.224-0.113-8.451-0.11-12.677-0.147C15.755,0.493,10.983-0.61,8.204,0.481C7.956,0.578,7.83,0.782,7.881,1.051
		C7.886,1.08,7.891,1.108,7.897,1.137c-0.192-0.12-0.506-0.025-0.537,0.276c-0.644,6.229-0.657,12.533-0.66,18.791
		c-0.001,2.968,0.035,5.935,0.102,8.902c0.047,2.086-0.678,6.597,0.339,8.501c0.168,0.315,0.345,0.539,0.53,0.725
		c0.894,1.667,2.579,3.041,3.854,4.412c1.511,1.625,3,3.273,4.529,4.882c0.254,0.267,0.563,0.262,0.807,0.123
		c7.56,1.145,15.985,0.348,23.586,0.106c0.408-0.013,0.623-0.298,0.664-0.607c0.102-0.066,0.177-0.178,0.177-0.351
		c-0.009-6.223-0.448-12.431-0.385-18.659C40.964,22.039,41.761,15.798,41.624,9.616z M8.125,30.095
		C7.834,20.572,8.237,11.059,8.047,1.541c0.106,0.074,0.266,0.077,0.358-0.02c0.421-0.444,5.429,0.331,5.921,0.351
		c1.599,0.065,3.204,0.049,4.804,0.054c-0.387,1.801-0.301,3.727-0.335,5.56c-0.037,1.958-0.136,3.916,0.194,5.852
		c0.067,0.39,0.677,0.364,0.763,0c0.45-1.916,0.46-3.893,0.542-5.852c0.076-1.832,0.27-3.736-0.007-5.555
		C24.007,1.957,27.728,2,31.448,1.952c0.116-0.002,0.211-0.031,0.295-0.074c-0.995,5.276-0.633,10.5-0.349,15.848
		c0.344,6.475,0.198,12.973-0.188,19.444c-0.08-0.03-0.166-0.051-0.269-0.049c-3.446,0.071-6.891,0.163-10.337,0.245
		c0.12-4.104,0.107-8.371-0.517-12.421c-0.081-0.526-0.888-0.376-0.901,0.122c-0.108,4.096,0.097,8.226,0.102,12.33
		c-0.774,0.018-1.547,0.039-2.321,0.055c-1.849,0.037-7.132,0.965-8.57-0.436C7.636,36.278,8.161,31.263,8.125,30.095z
		 M17.236,46.923c-0.028-0.107-0.077-0.213-0.169-0.312c-0.437-0.467-0.885-0.924-1.33-1.384c2.527,0.396,5.065,0.75,7.602,1.082
		C21.266,46.415,19.221,46.603,17.236,46.923z M24.651,46.257c-0.016-0.08-0.065-0.157-0.165-0.17
		c-2.905-0.382-5.82-0.733-8.734-1.033c-0.06-0.006-0.088,0.054-0.08,0.106c-1.076-1.112-2.162-2.215-3.25-3.313
		c-0.9-0.908-1.809-2.007-2.819-2.911c0.404-0.007,0.853-0.034,1.371-0.043c3.003-0.048,6.005-0.102,9.008-0.152
		c0.341,0.481,0.703,0.946,1.054,1.419c-1.431-0.391-2.956-0.541-4.411-0.575c-0.191-0.005-0.189,0.286,0,0.295
		c1.688,0.08,3.243,0.442,4.842,0.86c0.305,0.406,0.599,0.82,0.908,1.223c-1.134-0.175-2.294-0.251-3.427-0.38
		c-0.672-0.076-2.066-0.575-2.622-0.133c-0.024,0.02-0.033,0.063-0.024,0.091c0.012,0.039,0.025,0.077,0.037,0.116
		c0.016,0.051,0.06,0.069,0.11,0.062c0.032-0.004,0.063-0.008,0.095-0.013c0.096-0.013,0.074-0.176-0.023-0.169
		c1.114-0.077,2.532,0.376,3.656,0.532c0.844,0.117,1.691,0.267,2.542,0.338c0.419,0.543,0.836,1.088,1.259,1.627
		c-2.91-0.267-5.813-0.535-8.714-0.957c-0.156-0.023-0.226,0.213-0.066,0.241c3.027,0.519,6.096,0.973,9.168,1.209
		c0.444,0.563,0.883,1.131,1.33,1.692C25.346,46.228,25,46.245,24.651,46.257z M27.44,46.201c-0.028-0.062-0.05-0.125-0.099-0.184
		c-0.379-0.458-0.764-0.912-1.144-1.37c0.074,0.003,0.148,0.012,0.222,0.014c0.261,0.011,0.252-0.377,0-0.401
		c-0.197-0.019-0.393-0.036-0.59-0.055c-1.547-1.856-3.105-3.701-4.733-5.486c3.281-0.055,6.561-0.105,9.841-0.166
		c0.118-0.002,0.22-0.029,0.308-0.072c0.191,0.374,0.68,0.479,1.071,0.328c0.729,0.701,1.47,1.388,2.205,2.083
		c-2.3-0.43-4.749-0.607-7.052-0.568c-0.136,0.002-0.13,0.193,0,0.208c2.515,0.271,5.035,0.594,7.551,0.848
		c0.354,0.342,0.715,0.677,1.056,1.034c0.004,0.004,0.007,0.008,0.01,0.012c-0.262,0.105-1.496,0.017-1.695,0
		c-0.849-0.075-1.697-0.15-2.546-0.225c-1.576-0.139-3.151-0.288-4.728-0.417c-0.159-0.013-0.155,0.229,0,0.246
		c2.423,0.268,4.85,0.505,7.274,0.756c0.555,0.058,1.571,0.421,2.009-0.012c0.514,0.545,1.026,1.092,1.507,1.667
		c0.237,0.284,0.454,0.577,0.675,0.862c-3.586-0.641-7.311-0.743-10.939-0.715c-0.156,0.001-0.156,0.24,0,0.243
		c3.804,0.056,7.517,0.516,11.293,0.894c0.229,0.259,0.471,0.504,0.768,0.701C35.743,46.356,31.576,46.174,27.44,46.201z
		 M34.468,16.734c1.787,0.199,3.676,0.593,5.477,0.559c-0.16,2.737-0.195,5.492-0.229,8.206c-1.317-0.244-2.722-0.228-4.032-0.149
		c-0.148,0.009-0.15,0.234,0,0.232c1.366-0.021,2.684,0.161,4.027,0.295c-0.006,0.46-0.011,0.922-0.018,1.379
		c-0.004,0.24-0.001,0.482-0.003,0.722c-2.075-0.269-4.187-0.342-6.272-0.489c-0.191-0.013-0.187,0.278,0,0.295
		c2.082,0.187,4.179,0.455,6.271,0.516c-0.004,0.812-0.007,1.624-0.009,2.437c-1.375-0.142-2.791-0.125-4.161-0.248
		c-0.155-0.014-0.15,0.221,0,0.239c1.345,0.16,2.781,0.39,4.16,0.379c-0.002,0.899-0.017,1.793-0.01,2.693
		c-1.989-0.331-4.068-0.353-6.074-0.501c-0.143-0.011-0.14,0.207,0,0.222c2.004,0.206,4.059,0.552,6.077,0.57
		c0.007,0.886,0.006,1.771,0.028,2.657c-1.354-0.321-2.807-0.414-4.186-0.594c-0.109-0.014-0.135,0.174-0.026,0.193
		c1.39,0.25,2.813,0.608,4.222,0.709c0.022,0.815,0.045,1.631,0.082,2.445c-2.023-0.483-4.025-0.937-6.016-1.565
		c-0.149-0.047-0.205,0.177-0.063,0.23c1.952,0.733,4.022,1.355,6.094,1.658c0.017,0.355,0.043,0.709,0.064,1.064
		c-0.782-0.4-1.76-0.496-2.608-0.408c-0.128,0.013-0.133,0.21,0,0.204c0.965-0.045,1.745,0.199,2.626,0.499
		c0.073,1.205,0.16,2.408,0.283,3.606c-0.727-1.303-2.08-2.549-2.985-3.483c-1.275-1.314-2.733-2.581-4.317-3.536
		c0.462-8.222-0.013-16.407-0.209-24.601c2.53,0.31,5.009,0.794,7.518,1.209c-0.084,0.864-0.157,1.731-0.212,2.601
		c-1.768-0.371-3.701-0.343-5.497-0.484C34.313,16.482,34.318,16.717,34.468,16.734z M40.215,13.995
		c-2.457-0.59-5.05-0.869-7.562-1.043C32.57,9.37,32.536,5.787,32.668,2.198c0.979,1.146,2.177,2.144,3.255,3.165
		c1.546,1.465,3.048,3.016,4.686,4.377c0.063,0.053,0.13,0.081,0.196,0.109C40.546,11.215,40.36,12.6,40.215,13.995z"/>
	<path style="fill:#1D1D1B;" d="M39.547,22.159c-0.439-0.018-0.877,0.048-1.318,0.025c-0.496-0.026-0.975-0.118-1.452-0.253
		c-0.201-0.057-0.284,0.25-0.086,0.312c0.88,0.273,1.994,0.498,2.899,0.227C39.762,22.418,39.726,22.166,39.547,22.159z"/>
	<path style="fill:#1D1D1B;" d="M39.586,19.969c-1.211-0.437-2.622-0.502-3.897-0.489c-0.186,0.002-0.186,0.283,0,0.288
		c1.306,0.036,2.527,0.321,3.805,0.533C39.712,20.337,39.797,20.045,39.586,19.969z"/>
	<path style="fill:#1D1D1B;" d="M40.284,11.403c-2.231-0.843-4.855-1.015-7.219-1.028c-0.186-0.001-0.185,0.283,0,0.288
		c2.46,0.071,4.729,0.626,7.123,1.085C40.417,11.793,40.5,11.485,40.284,11.403z"/>
	<path style="fill:#1D1D1B;" d="M40.345,9.645c-1.667-0.711-3.527-1.052-5.323-1.236c-0.168-0.017-0.196,0.214-0.079,0.293
		c0.175,0.111,0.343,0.232,0.505,0.361c0.115,0.087,0.268-0.109,0.156-0.201c-0.013-0.01-0.023-0.021-0.036-0.031
		c1.574,0.297,3.062,0.755,4.604,1.226C40.41,10.129,40.583,9.747,40.345,9.645z"/>
</g>
<g>
</g>
<g>
</g>
<g>
</g>
<g>
</g>
<g>
</g>
<g>
</g>
<g>
</g>
<g>
</g>
<g>
</g>
<g>
</g>
<g>
</g>
<g>
</g>
<g>
</g>
<g>
</g>
<g>
</g>
</svg>
