<?xml version="1.0" encoding="iso-8859-1"?>
<!-- Generator: Adobe Illustrator 18.0.0, SVG Export Plug-In . SVG Version: 6.00 Build 0)  -->
<!DOCTYPE svg PUBLIC "-//W3C//DTD SVG 1.1//EN" "http://www.w3.org/Graphics/SVG/1.1/DTD/svg11.dtd">
<svg version="1.1" id="Capa_1" xmlns="http://www.w3.org/2000/svg" xmlns:xlink="http://www.w3.org/1999/xlink" x="0px" y="0px"
	 viewBox="0 0 50.226 50.226" style="enable-background:new 0 0 50.226 50.226;" xml:space="preserve">
<g>
	<path style="fill:#1D1D1B;" d="M33.736,32.372c-0.587-4.406-4.706-8.001-9.123-7.448c-0.058-0.03-0.121-0.055-0.195-0.064
		c-11.392-1.459-11.086,20.363,1.673,18.065C31.033,42.035,34.397,37.34,33.736,32.372z M26.699,41.351
		c-4.19,1.19-8.136-0.839-9.051-5.2c-0.987-4.703,1.088-10.576,6.77-10.226c0.184,0.011,0.313-0.053,0.397-0.152
		c3.383,0.562,6.514,2.249,7.478,5.875C33.426,35.905,30.879,40.164,26.699,41.351z"/>
	<path style="fill:#1D1D1B;" d="M40.905,32.583c-0.214-1.601-0.659-3.153-1.296-4.612c-0.001-0.027-0.011-0.049-0.03-0.067
		c-2.799-6.335-9.258-10.889-16.494-10.033c-8.998,1.065-15.471,9.21-14.442,18.189c0.959,8.373,8.618,14.919,17.028,14.096
		c0.076,0.035,0.163,0.057,0.271,0.048C35.302,49.471,42.185,42.152,40.905,32.583z M39.942,35.509
		c-1.421-0.077-2.884,0.028-4.295,0.043c-0.163,0.002-0.163,0.251,0,0.253c1.401,0.014,2.856,0.119,4.27,0.044
		c-0.097,0.969-0.285,1.905-0.561,2.799c-1.7-0.039-3.411-0.003-5.108,0.026c-0.197,0.003-0.197,0.302,0,0.306
		c1.658,0.029,3.329,0.061,4.99,0.027c-0.349,1.03-0.8,2.01-1.367,2.915c-2.021-0.078-4.095,0.099-6.084,0.341
		c-0.138,0.017-0.145,0.231,0,0.221c1.945-0.126,3.888-0.123,5.831-0.179c-0.353,0.523-0.737,1.026-1.158,1.499
		c-2.906-0.006-5.817,0.165-8.721,0.276c-2.998,0.115-6.455,0.687-9.381-0.091c-0.138-0.037-0.195,0.172-0.059,0.214
		c2.591,0.787,5.409,0.375,8.085,0.304c3.23-0.085,6.473-0.107,9.699-0.309c-0.884,0.922-1.889,1.743-3.007,2.431
		c-4.857,0.22-9.709,0.265-14.57,0.308c-0.127,0.001-0.126,0.192,0,0.197c4.585,0.185,9.179,0.125,13.765-0.022
		c-1.88,1.011-4.02,1.686-6.33,1.954c-0.198,0.023-0.337,0.128-0.427,0.263c-7.921-0.645-15.281-5.305-15.87-13.997
		c-0.569-8.399,5.707-15.736,14.17-16.269c4.92-0.31,9.566,1.844,12.598,5.447c-3.292-0.507-6.735-0.459-10.035-0.298
		c-0.133,0.007-0.134,0.21,0,0.207c3.493-0.055,6.912,0.288,10.381,0.506c0.677,0.865,1.265,1.804,1.743,2.81
		c-1.576-0.175-3.216-0.155-4.778-0.228c-0.146-0.007-0.143,0.213,0,0.225c1.615,0.132,3.301,0.373,4.94,0.382
		c0.3,0.679,0.563,1.38,0.761,2.111c-1.369-0.096-2.762-0.07-4.128-0.106c-0.193-0.005-0.192,0.29,0,0.299
		c1.399,0.063,2.822,0.195,4.228,0.19c0.031,0.13,0.074,0.255,0.102,0.387c0.167,0.78,0.272,1.545,0.323,2.294
		c-1.545-0.075-3.113-0.044-4.653-0.031c-0.177,0.002-0.176,0.266,0,0.274c1.542,0.069,3.114,0.156,4.665,0.136
		C39.99,34.293,39.988,34.909,39.942,35.509z"/>
	<path style="fill:#1D1D1B;" d="M37.915,12.305c-6.696-4.794-20.102-6.965-25.694,0.749c-0.031,0.042-0.034,0.088-0.031,0.132
		c-0.503,0.874-0.602,1.943,0.021,2.869c0.595,0.884,2.539,1.697,3.338,0.665c0.053,0.048,0.119,0.078,0.206,0.051
		c6.438-2.021,12.097-3.256,18.357,0.187l0.001,0c0.859,0.564,2.019,0.408,2.815-0.263c0.935-0.788,1.409-2.445,0.995-3.635
		C38.14,12.896,38.208,12.515,37.915,12.305z M37.168,14.003c-0.019-0.02-0.037-0.042-0.071-0.048
		c-3.715-0.586-7.512-0.819-11.254-1.191c-0.116-0.012-0.112,0.165,0,0.179c3.722,0.469,7.466,1.089,11.209,1.343
		c0.04,0.003,0.071-0.015,0.097-0.036c-0.024,0.305-0.068,0.606-0.159,0.901c-1.027-0.049-2.031-0.063-3.062-0.217
		c-0.146-0.022-0.214,0.194-0.063,0.227c0.951,0.207,2.007,0.355,3.003,0.309c-0.048,0.102-0.099,0.205-0.166,0.304
		c-0.43,0.642-1.221,1.027-1.956,0.904c0.045-0.168,0.003-0.36-0.187-0.485c-5.606-3.694-13.177-3.26-18.872,0.069
		c-0.062-0.127-0.198-0.215-0.363-0.184c-0.473,0.09-0.834,0.318-1.336,0.2c-0.467-0.109-0.9-0.423-1.139-0.838
		c-0.424-0.736-0.21-1.63,0.208-2.375c5.777-3.761,12.149-4.642,18.283-2.794c-2.691-0.154-5.422-0.08-8.111-0.077
		c-0.118,0-0.117,0.178,0,0.183c2.956,0.114,5.964,0.331,8.92,0.214c0.032-0.001,0.05-0.017,0.071-0.031
		c1.643,0.568,3.266,1.321,4.852,2.281c0.019,0.044,0.049,0.081,0.103,0.095c-5.493-1.457-11.523-1.401-17.267-1.114
		c-0.144,0.007-0.145,0.23,0,0.225c5.834-0.192,11.59,0.166,17.366,0.967C37.208,13.343,37.19,13.674,37.168,14.003z"/>
	<path style="fill:#1D1D1B;" d="M42.882,6.061c-0.032-0.01-0.062-0.007-0.093-0.008C36.814,1.875,29.36-0.5,22.039,0.089
		C17.548,0.45,10.934,2.093,7.803,5.924C7.704,5.916,7.594,6.008,7.635,6.116c0.004,0.01,0.003,0.021,0.006,0.031
		c-0.377,0.492-0.707,1.012-0.96,1.575c-0.034,0.076-0.023,0.151,0.005,0.22C6.671,7.986,6.65,8.029,6.636,8.074
		C6.45,8.707,6.456,9.418,6.749,10.019c0.484,0.994,1.761,1.612,2.785,1.084c0.076,0.114,0.219,0.18,0.36,0.088
		c9.679-6.328,19.642-7.086,29.535-0.678c0.01,0.007,0.021,0.007,0.031,0.013c0.022,0.018,0.042,0.037,0.073,0.053
		c0.064,0.033,0.116,0.022,0.161-0.003c1.01,0.706,2.468,0.54,3.286-0.428c0.514-0.608,0.751-1.429,0.736-2.218
		C43.703,7.267,43.598,6.294,42.882,6.061z M39.145,8.491c1.115,0.019,2.272,0.111,3.397,0.064c-0.046,0.23-0.122,0.455-0.24,0.66
		c-0.194,0.334-0.483,0.6-0.815,0.785c-0.036-0.028-0.066-0.062-0.113-0.075c-0.299-0.086-0.569-0.022-0.875-0.008
		c-0.153,0.007-0.305-0.004-0.456-0.017c-0.022-0.033-0.029-0.07-0.064-0.098c-8.683-6.849-22.03-7.018-30.205,0.759
		c-0.073-0.186-0.263-0.328-0.502-0.265c-1.726,0.456-2.261-1.333-1.674-2.647C7.634,7.566,7.677,7.484,7.722,7.4
		c6.838-6.84,16.105-7.135,24.726-4.658c-0.85-0.061-1.7-0.111-2.548-0.17c-0.723-0.051-1.446-0.1-2.169-0.148
		c-0.361-0.023-0.723-0.047-1.084-0.07c-0.422-0.237-0.67-0.206-0.762,0.066c-0.006-0.009-0.003-0.024-0.018-0.026
		c-0.211-0.033-0.422-0.066-0.632-0.099c-0.179-0.028-0.215,0.224-0.033,0.246c2.949,0.372,5.996,0.647,8.975,0.737
		c1.498,0.498,2.971,1.071,4.399,1.705c-2.346-0.398-4.766-0.521-7.125-0.57c-0.134-0.003-0.133,0.202,0,0.207
		c2.75,0.104,5.432,0.506,8.156,0.833c0.941,0.442,1.862,0.905,2.756,1.387c0.009,0.052,0.028,0.105,0.042,0.157
		c-2.4-0.389-4.87-0.529-7.283-0.771c-0.109-0.011-0.105,0.155,0,0.169c2.437,0.318,4.908,0.755,7.365,0.916
		c0.039,0.132,0.076,0.264,0.092,0.4c0.02,0.173,0.018,0.348,0.006,0.522c-1.138-0.052-2.309,0.043-3.438,0.062
		C39.018,8.296,39.018,8.489,39.145,8.491z"/>
	<path style="fill:#1D1D1B;" d="M33.437,21.937c-4.199-0.587-8.597-0.908-12.832-0.672c-0.116,0.006-0.115,0.172,0,0.179
		c4.268,0.289,8.515,0.5,12.777,0.9C33.612,22.366,33.669,21.969,33.437,21.937z"/>
</g>
<g>
</g>
<g>
</g>
<g>
</g>
<g>
</g>
<g>
</g>
<g>
</g>
<g>
</g>
<g>
</g>
<g>
</g>
<g>
</g>
<g>
</g>
<g>
</g>
<g>
</g>
<g>
</g>
<g>
</g>
</svg>
