<?xml version="1.0" encoding="iso-8859-1"?>
<!-- Generator: Adobe Illustrator 18.0.0, SVG Export Plug-In . SVG Version: 6.00 Build 0)  -->
<!DOCTYPE svg PUBLIC "-//W3C//DTD SVG 1.1//EN" "http://www.w3.org/Graphics/SVG/1.1/DTD/svg11.dtd">
<svg version="1.1" id="Capa_1" xmlns="http://www.w3.org/2000/svg" xmlns:xlink="http://www.w3.org/1999/xlink" x="0px" y="0px"
	 viewBox="0 0 48.489 48.489" style="enable-background:new 0 0 48.489 48.489;" xml:space="preserve">
<g>
	<path style="fill:#1D1D1B;" d="M30.396,30.506c0.004-0.002,0.008-0.004,0.012-0.006c0.374-0.228,0.135-0.887-0.309-0.732
		c-0.244,0.085-0.471,0.122-0.73,0.077c-0.177-0.031-0.33-0.082-0.495-0.11c-0.012-0.036-0.01-0.074-0.034-0.105
		c-0.493-0.611,0.274-3.605,0.344-4.316c0.148-1.504,0.205-2.99,0.222-4.5c0.228-0.148,0.24-0.58-0.085-0.64
		c-3.072-0.575-6.011-0.391-9.117-0.332c-0.413,0.008-0.473,0.55-0.205,0.717c-0.087,0.441-0.041,0.934-0.01,1.356
		c0.049,0.651,0.054,1.382,0.385,1.958c0.025,0.043,0.069,0.063,0.106,0.093c-0.157,0.172-0.042,0.497,0.229,0.524
		c0.43,0.042,0.842,0.078,1.261,0.139c-0.064,0.874-0.094,1.745-0.089,2.623c0.004,0.806-0.057,1.656,0.132,2.443
		c-0.273,0.016-0.576-0.017-0.794-0.076c-0.322-0.087-0.608,0.126-0.682,0.427c-0.073-0.087-0.176-0.156-0.328-0.177
		c-0.565-0.075-1.197-0.192-1.729,0.041c0.637-2.875,1.66-7.478-1.093-9.461c-2.448-1.765-5.602-0.073-7.77,1.467
		c0.314-2.573,0.585-5.161,0.589-7.753c0.001-0.291-0.272-0.46-0.523-0.461c-0.085-0.059-0.183-0.107-0.308-0.121
		c-2.689-0.302-5.408-0.028-8.085,0.265c-0.103-0.148-0.352-0.134-0.453,0.019c-0.009,0.014-0.013,0.029-0.022,0.043
		c-0.24,0.062-0.327,0.309-0.246,0.49c-0.199,0.51-0.276,1.067-0.347,1.61c-0.09,0.692-0.284,1.697-0.063,2.377
		c0.232,0.716,1.175,0.875,1.931,0.695c-0.561,3.198-0.242,6.694,0.014,9.91c0.003,0.039,0.019,0.068,0.029,0.103
		c-0.191,0.017-0.379,0.044-0.571,0.049c-0.431,0.01-0.884-0.12-1.253,0.146c-0.212,0.153-0.293,0.421-0.171,0.644
		c-0.132,1.349-0.159,2.694-0.126,4.051c0.008,0.313,0.257,0.569,0.573,0.573c2.94,0.043,5.885,0.088,8.825,0.03
		c0.125,0.331,0.617,0.315,0.652-0.093c0.001-0.015,0.001-0.03,0.002-0.045c0.255-0.213,0.272-0.628,0.045-0.864
		c0.059-1.078,0.082-2.157,0.078-3.236c-0.001-0.269-0.224-0.486-0.49-0.49c-0.322-0.006-0.643-0.027-0.961-0.017
		c0.295-1.447,0.724-2.828,1.661-4.007c0.389-0.49,0.431-0.739,1.057-0.48c0.647,0.267,0.531,0.591,0.526,1.22
		c-0.007,0.905-0.092,1.799-0.171,2.699c-0.302-0.067-0.606-0.123-0.916-0.178c-0.453-0.08-0.838,0.263-0.733,0.733
		c0.273,1.228,0.319,2.41,0.291,3.662c-0.003,0.115,0.038,0.209,0.094,0.291c-0.004,0.186,0.118,0.394,0.331,0.414
		c2.868,0.268,5.786,0.263,8.665,0.36c0.353,0.012,0.568-0.288,0.604-0.604c0.123-1.078,0.311-2.127,0.174-3.2
		c0.083-0.028,0.131-0.084,0.182-0.137c-0.013,0.511-0.025,1.023-0.018,1.535c0.009,0.595-0.041,1.241,0.189,1.797
		c0.093,0.225,0.32,0.317,0.518,0.275c0.053,0.032,0.113,0.055,0.184,0.064c1.675,0.201,3.359,0.343,5.043,0.447
		c1.072,0.066,2.925,0.533,3.895,0.164C31.692,34.374,30.769,31.562,30.396,30.506z M19.24,31.901
		c-2.149-0.035-4.303,0.014-6.451,0.032c-0.077,0.001-0.078,0.12,0,0.12c2.135,0.018,4.276,0.065,6.412,0.032
		c-0.074,0.408-0.127,0.822-0.181,1.239c-2.464-0.135-4.97-0.165-7.427,0.099c0.143-1.09,0.076-2.205-0.147-3.283
		c0.281-0.056,0.56-0.117,0.837-0.209c0.066-0.022,0.116-0.062,0.149-0.11c0.186-0.027,0.35-0.141,0.388-0.361
		c0.222-1.273,0.956-6.451-1.904-5.51c-0.981,0.323-1.718,1.59-2.143,2.455c-0.022,0.045-0.034,0.093-0.055,0.138
		C7.54,26.751,6.413,26.926,5.2,26.84c-0.106-0.008-0.104,0.155,0,0.164c1.119,0.098,2.331,0.07,3.432-0.239
		c-0.25,0.587-0.439,1.193-0.522,1.817c-1.194,0.218-2.324,0.252-3.53-0.01c-0.088-0.019-0.126,0.114-0.038,0.136
		c1.16,0.286,2.378,0.324,3.544,0.05c-0.041,0.392-0.057,0.787-0.016,1.188c-0.358,0.136-0.335,0.657,0.032,0.771
		c0.362,0.113,0.737,0.121,1.113,0.12c0.001,0.13,0.011,0.259,0.013,0.389c-2.109-0.133-4.237-0.121-6.347-0.172
		c-0.076-0.002-0.076,0.115,0,0.118c2.112,0.087,4.238,0.238,6.354,0.241c0.013,0.666,0.028,1.331,0.067,1.996
		c-2.727-0.061-5.458-0.035-8.185-0.004c-0.064-1.038-0.171-2.068-0.331-3.094c0.27,0.035,0.558-0.003,0.838-0.049
		c0.238-0.039,0.483-0.087,0.71-0.167c0.303-0.107,0.457-0.288,0.715-0.454c0.166-0.108,0.174-0.388,0.035-0.502
		c0.012-0.047,0.026-0.092,0.025-0.149c-0.103-3.27,0.094-6.684-0.353-9.923c-0.013-0.09-0.065-0.15-0.133-0.191
		c0.084-0.048,0.166-0.098,0.23-0.158c0.188-0.173,0.152-0.538-0.084-0.654c-0.379-0.187-0.643-0.155-1.06-0.142
		c-0.142,0.006-0.285,0.006-0.427,0.001c-0.014-0.003-0.02-0.002-0.032-0.004c-0.038-0.214,0.023-0.577,0.026-0.73
		c0.016-0.84,0.157-1.726,0.126-2.579c2.589,0.103,5.204,0.316,7.793,0.167c-0.04,0.341-0.062,0.683-0.094,1.024
		c-2.478-0.341-4.988-0.415-7.486-0.326c-0.093,0.003-0.094,0.147,0,0.146c2.508-0.05,4.978,0.125,7.466,0.393
		c-0.094,1.073-0.165,2.148-0.21,3.224c-1.221-0.036-2.454,0.019-3.673,0.03c-0.095,0.001-0.095,0.147,0,0.148
		c1.216,0.011,2.446,0.066,3.664,0.03c-0.018,0.473-0.046,0.946-0.058,1.419c-1.272,0.029-2.552,0.175-3.82,0.269
		c-0.084,0.006-0.086,0.138,0,0.133c1.267-0.069,2.553-0.09,3.817-0.224c-0.014,0.594-0.024,1.187-0.031,1.78
		c-0.005,0.425,0.513,0.456,0.686,0.156c0.043-0.009,0.087-0.018,0.132-0.043c2.212-1.193,6.154-4.313,7.958-0.884
		c0.032,0.061,0.055,0.127,0.083,0.19c-1.3-0.315-2.679-0.349-3.997-0.224c-0.098,0.009-0.099,0.163,0,0.154
		c1.405-0.122,2.728,0.039,4.091,0.284c0.193,0.503,0.297,1.063,0.34,1.655c-1.253-0.149-2.54-0.157-3.799-0.223
		c-0.102-0.005-0.101,0.151,0,0.158c1.259,0.088,2.54,0.237,3.804,0.24c0.034,0.619,0.017,1.264-0.04,1.917
		c-1.037-0.063-2.096-0.001-3.133,0.006c-0.118,0.001-0.118,0.183,0,0.184c1.03,0.007,2.083,0.069,3.114,0.007
		c-0.045,0.469-0.101,0.937-0.16,1.395c-1.214,0.12-2.345,0.15-3.56-0.115c-0.116-0.025-0.166,0.152-0.049,0.179
		c1.161,0.267,2.403,0.365,3.583,0.146c-0.1,0.772-0.197,1.51-0.231,2.156c-0.003,0.062,0.022,0.107,0.043,0.156
		c-1.196-0.056-2.399-0.068-3.583-0.074c-0.103,0-0.101,0.151,0,0.158c1.411,0.098,2.85,0.196,4.276,0.212
		c0.034,0.055,0.076,0.102,0.138,0.13c0.324,0.146,0.685,0.154,1.046,0.125C19.394,31.207,19.31,31.552,19.24,31.901z
		 M29.663,33.847c-0.303,0.15-1.517-0.078-1.803-0.094c-2.089-0.115-4.179-0.239-6.27-0.301c0.041-0.429-0.003-0.867-0.003-1.301
		c-0.001-0.494,0.018-0.986,0.035-1.479c0.331-0.075,0.583-0.25,0.851-0.538c0.107-0.025,0.205-0.086,0.24-0.217
		c0.228-0.851,0.121-1.787,0.139-2.665c0.02-1.002,0.046-2.002,0.039-3.004c-0.002-0.26-0.205-0.423-0.448-0.448
		c-0.451-0.046-0.871-0.041-1.297,0.004c0.004-0.014,0.017-0.019,0.02-0.034c0.122-0.654-0.066-1.333-0.138-1.989
		c-0.042-0.376-0.052-0.803-0.144-1.192c2.664-0.125,5.355,0.148,8.022,0.262c-0.102,0.382-0.178,0.763-0.264,1.143
		c-2.186-0.617-4.533-0.741-6.787-0.617c-0.093,0.005-0.094,0.15,0,0.146c2.309-0.101,4.494,0.2,6.751,0.627
		c-0.055,0.25-0.124,0.501-0.173,0.752c-0.008-0.013-0.005-0.034-0.024-0.038c-1.806-0.338-3.665-0.428-5.5-0.441
		c-0.101-0.001-0.1,0.154,0,0.156c1.841,0.043,3.651,0.244,5.48,0.428c0.017,0.002,0.019-0.018,0.03-0.027
		c-0.113,0.582-0.213,1.165-0.29,1.756c-1.247-0.035-2.497,0.003-3.745,0.015c-0.095,0.001-0.095,0.147,0,0.148
		c1.241,0.012,2.485,0.05,3.725,0.015c-0.046,0.369-0.088,0.74-0.121,1.115c-0.016,0.184-0.043,0.393-0.073,0.614
		c-0.946-0.2-1.917-0.305-2.873-0.447c-0.107-0.016-0.154,0.147-0.045,0.165c0.961,0.158,1.926,0.355,2.895,0.455
		c-0.091,0.66-0.196,1.419-0.128,2.083c-1.192-0.149-2.397-0.244-3.593-0.337c-0.102-0.008-0.098,0.145,0,0.156
		c1.198,0.141,2.405,0.284,3.61,0.368c0.053,0.334,0.157,0.635,0.34,0.875c0.043,0.056,0.096,0.098,0.153,0.131
		c-0.024,0.138-0.005,0.287,0.101,0.41c0.349,0.403,0.951,0.4,1.47,0.243c-0.026,0.209-0.032,0.419-0.046,0.628
		c-1.779-0.219-3.642-0.312-5.411-0.311c-0.045,0-0.058,0.074-0.011,0.081c1.754,0.251,3.613,0.426,5.405,0.461
		c-0.019,0.45-0.014,0.9,0.05,1.354c-0.004,0.217,0.032,0.427,0.11,0.629C30.126,33.893,30.033,33.98,29.663,33.847z"/>
	<path style="fill:#1D1D1B;" d="M28.63,16.006c-0.01-0.237-0.192-0.436-0.438-0.437c-0.802-0.003-1.603-0.007-2.405-0.01
		c-0.541-0.002-1.325-0.144-1.841,0.072c-0.945,0.396-0.36,2.105-0.234,2.823c0.002,0.013,0.01,0.021,0.013,0.032
		c-0.058,0.191,0.049,0.441,0.313,0.466c0.79,0.076,1.582,0.148,2.376,0.173c0.519,0.017,1.294,0.155,1.79-0.067
		C29.122,18.649,28.662,16.756,28.63,16.006z M27.264,18.195c-0.907,0.032-1.816,0.051-2.724,0.061
		c-0.039-0.349-0.089-0.695-0.139-1.042c-0.027-0.185-0.111-0.434-0.025-0.613c0.135-0.282,0.372-0.177,0.724-0.175
		c0.883,0.005,1.766,0.01,2.649,0.016c-0.005,0.264-0.009,0.528-0.01,0.792c-0.912-0.164-1.843-0.129-2.755,0.083
		c-0.09,0.021-0.052,0.157,0.038,0.138c0.922-0.19,1.811-0.181,2.715-0.029C27.745,18.123,27.949,18.171,27.264,18.195z"/>
	<path style="fill:#1D1D1B;" d="M47.661,23.585c-1.778-3.392-5.916-3.292-9.171-2.513c0.061-0.335,0.037-0.705,0.062-1.025
		c0.015-0.194,0.052-0.398,0.083-0.603c2.558,0.541,5.634,0.291,8.219,0.1c0.258,0.18,0.681,0.119,0.79-0.257
		c0.442-1.524,0.377-3.531-0.054-5.053c-0.036-0.129-0.125-0.183-0.221-0.207c-0.083-0.066-0.187-0.112-0.327-0.105
		c-4.294,0.198-8.599,0.314-12.897,0.332c-0.222,0.001-0.447,0.16-0.501,0.381c-0.718,2.958-1.492,5.919-2.009,8.92
		c-0.039,0.227,0.124,0.373,0.295,0.387c0.065,0.099,0.16,0.183,0.308,0.222c1.63,0.427,3.421,0.99,5.122,0.949
		c0.183-0.004,0.316-0.166,0.348-0.336c0.293-0.048,0.586-0.095,0.878-0.143c0.172,0.126,0.343,0.253,0.515,0.379
		c0.231,0.209,0.452,0.46,0.62,0.723c0.379,0.594,0.616,1.321,0.52,2.029c-0.166,1.219-1.387,2.315-2.649,2.046
		c-0.351-0.568-0.643-2.176-0.892-2.555c-0.417-0.635-1.039-1.14-1.751-1.41c-0.859-0.325-1.97-0.261-2.631,0.34
		c-0.156-0.054-0.354,0-0.438,0.207c-3.244,7.929,9.259,10.713,14.051,6.588C48.493,30.776,49.247,26.611,47.661,23.585z
		 M46.879,30.434c-1.835,0.205-3.561,0.311-5.403,0.036c-0.086-0.013-0.124,0.118-0.036,0.132c1.748,0.292,3.584,0.38,5.333,0.033
		c-0.287,0.539-0.65,1.037-1.103,1.462c-3.297-0.006-6.605,0.172-9.899,0.301c-0.07,0.003-0.071,0.111,0,0.11
		c3.223-0.043,6.463-0.043,9.683-0.21c-0.022,0.018-0.04,0.04-0.063,0.058c-4.383,3.565-13.763,1.38-12.967-5.19
		c0.519-0.909,1.745-0.792,2.531-0.314c0.872,0.53,1.226,1.349,1.338,2.314c0.1,0.868,0.544,2,1.634,1.573
		c0.151-0.059,0.22-0.198,0.235-0.337c1.957,0.205,3.537-1.702,3.067-3.758c-0.27-1.181-1.157-2.382-2.273-2.887
		c-0.754-0.341-1.621-0.206-1.937,0.489c-1.438-0.524-3.012-0.786-4.482-1.171c-0.035-0.009-0.064-0.002-0.097-0.005
		c0.441-1.419,0.825-2.852,1.205-4.29c0.554-2.101,0.485-3.228,2.845-3.475c3.411-0.357,6.983-0.127,10.423-0.303
		c-0.014,0.336-0.026,0.671-0.037,1.007c-1.165-0.104-2.354-0.103-3.516-0.157c-0.119-0.005-0.117,0.176,0,0.184
		c1.159,0.076,2.338,0.209,3.506,0.236c-0.006,0.157-0.009,0.314-0.017,0.47c-0.007,0.136-0.025,0.272-0.037,0.408
		c-0.019-0.02-0.045-0.035-0.08-0.035c-2.951-0.017-5.903,0.009-8.855,0.021c-0.128,0.001-0.128,0.198,0,0.198
		c2.951,0.012,5.903,0.038,8.855,0.021c0.029,0,0.047-0.014,0.065-0.028c-0.047,0.479-0.104,0.959-0.131,1.438
		c-2.558-0.321-5.546-0.698-8.08-0.285c-0.066-0.077-0.182-0.112-0.273-0.051c-0.047,0.031-0.079,0.077-0.12,0.115
		c-0.029,0.006-0.06,0.008-0.089,0.014c-0.228,0.048-0.301,0.263-0.263,0.457c-0.124,0.256-0.207,0.539-0.284,0.799
		c-0.155,0.528-0.366,1.256-0.028,1.74c0.053,0.076,0.117,0.13,0.186,0.165c0.049,0.119,0.154,0.209,0.316,0.196
		c2.167-0.178,5.304-0.854,7.17,0.624c0.074,0.059,0.139,0.126,0.209,0.188c-1.79-0.327-3.604-0.388-5.42-0.184
		c-0.063,0.007-0.092,0.108-0.016,0.122c0.209,0.036,0.416,0.08,0.621,0.133c0.057,0.013,0.081-0.073,0.024-0.087
		c-0.794-0.198,0.492-0.12,0.684-0.126c0.439-0.013,0.878-0.011,1.316,0.006c1.022,0.039,2.033,0.179,3.039,0.358
		c0.484,0.483,0.867,1.043,1.159,1.648c-1.538-0.362-3.155-0.487-4.723-0.505c-0.129-0.002-0.129,0.198,0,0.2
		c1.639,0.031,3.217,0.278,4.822,0.551c0.267,0.617,0.461,1.266,0.537,1.934c-1.265-0.281-2.611-0.308-3.889-0.193
		c-0.08,0.007-0.082,0.131,0,0.127c1.338-0.07,2.6,0.067,3.912,0.261C47.579,28.164,47.392,29.375,46.879,30.434z"/>
	<path style="fill:#1D1D1B;" d="M8.783,32.339c-2.038-0.016-4.076,0.001-6.114,0.014c-0.08,0.001-0.08,0.124,0,0.125
		c2.038,0.013,4.076,0.03,6.114,0.014C8.881,32.49,8.881,32.339,8.783,32.339z"/>
	<path style="fill:#1D1D1B;" d="M9.416,24.734c-0.91-0.045-1.83-0.003-2.741,0.003c-0.113,0.001-0.113,0.174,0,0.175
		c0.911,0.006,1.831,0.048,2.741,0.003C9.532,24.91,9.532,24.74,9.416,24.734z"/>
	<path style="fill:#1D1D1B;" d="M8.595,17.154c-1.144-0.378-2.478-0.335-3.647-0.099c-0.091,0.018-0.072,0.176,0.022,0.164
		c1.238-0.162,2.343-0.043,3.571,0.131C8.667,17.367,8.722,17.196,8.595,17.154z"/>
	<path style="fill:#1D1D1B;" d="M29.446,32.937c-2.458-0.206-4.925-0.333-7.387-0.489c-0.072-0.005-0.071,0.106,0,0.112
		c2.461,0.192,4.922,0.416,7.387,0.559C29.563,33.126,29.561,32.947,29.446,32.937z"/>
	<path style="fill:#1D1D1B;" d="M47.155,28.761c-1.203-0.036-2.368-0.036-3.564-0.22c-0.086-0.013-0.124,0.118-0.036,0.132
		c1.175,0.198,2.41,0.349,3.6,0.236C47.248,28.9,47.251,28.764,47.155,28.761z"/>
</g>
<g>
</g>
<g>
</g>
<g>
</g>
<g>
</g>
<g>
</g>
<g>
</g>
<g>
</g>
<g>
</g>
<g>
</g>
<g>
</g>
<g>
</g>
<g>
</g>
<g>
</g>
<g>
</g>
<g>
</g>
</svg>
