<?xml version="1.0" encoding="iso-8859-1"?>
<!-- Generator: Adobe Illustrator 18.0.0, SVG Export Plug-In . SVG Version: 6.00 Build 0)  -->
<!DOCTYPE svg PUBLIC "-//W3C//DTD SVG 1.1//EN" "http://www.w3.org/Graphics/SVG/1.1/DTD/svg11.dtd">
<svg version="1.1" id="Capa_1" xmlns="http://www.w3.org/2000/svg" xmlns:xlink="http://www.w3.org/1999/xlink" x="0px" y="0px"
	 viewBox="0 0 49.387 49.387" style="enable-background:new 0 0 49.387 49.387;" xml:space="preserve">
<g>
	<path style="fill:#1D1D1B;" d="M44.162,36.223c0.313-5.037,0.059-10.005-0.875-15.015c-0.004-0.024-0.026-0.031-0.036-0.051
		c0.072-0.074,0.111-0.178,0.07-0.306c-2.903-9.011-15.172-9.047-21.285-3.489c0.981-4.813,0.811-11.154-2.462-14.582
		C16.021-0.94,10.464-0.795,6.697,2.43c-0.066,0-0.134,0.001-0.187,0.037C5.533,3.126,5.668,3.668,5.472,4.778
		c-0.689,3.913-0.314,8.361-0.351,12.339c-0.075,8.201-0.12,16.5,0.561,24.677c0.002,0.017,0.01,0.029,0.013,0.046
		c-0.155,9.055,15.149,8.799,15.603-0.143c0.717-2.162,0.826-4.275,0.785-6.556c-0.043-2.413-0.903-7.785,1.862-9.147
		c4.138,0.917,3.411,5.369,3.436,8.698c0.018,2.407-0.125,4.85,0.243,7.232c0.031,0.199,0.221,0.299,0.408,0.298
		c0.527,5.776,7.231,9.412,12.349,5.594c2.622-1.956,3.13-4.976,3.479-8.032c0.095-0.059,0.107-0.186,0.025-0.251
		c0.109-0.985,0.189-1.965,0.255-2.943c0.022-0.004,0.044-0.005,0.065-0.009C44.404,36.547,44.361,36.204,44.162,36.223z
		 M34.34,31.959c3.008-0.127,6.056-0.127,9.053-0.42c0.007,0.827,0.014,1.654-0.008,2.477c-2.72,0.025-5.444,0.195-8.166,0.221
		c-0.17,0.002-0.17,0.26,0,0.264c2.698,0.058,5.461,0.103,8.159-0.133c-0.021,0.653-0.052,1.306-0.095,1.955
		c-2.861,0.344-5.694,0.545-8.588,0.505c-0.184-0.003-0.182,0.277,0,0.285c2.854,0.124,5.733,0.003,8.564-0.402
		c-0.007,0.095-0.01,0.191-0.018,0.285c-0.066,0.825-0.14,1.662-0.247,2.49c-1.653-0.009-3.358,0.084-4.981,0.265
		c-0.119,0.013-0.125,0.184,0,0.19c1.615,0.073,3.299,0.04,4.933-0.075c-0.229,1.6-0.608,3.153-1.362,4.501
		c-2.056-0.116-4.131,0.003-6.193-0.151c-0.177-0.013-0.174,0.258,0,0.274c1.945,0.176,4.024,0.373,5.995,0.179
		c-0.354,0.572-0.764,1.113-1.285,1.59c-2.657,0.111-5.172,0.159-7.835-0.222c-0.177-0.025-0.259,0.24-0.076,0.275
		c2.408,0.452,4.99,0.655,7.446,0.34c-0.149,0.115-0.299,0.23-0.462,0.337c-4.946,3.256-10.178-1.13-10.355-6.495
		c-0.006-0.195-0.111-0.311-0.242-0.355c0.063-1.415,0.008-2.835-0.001-4.259c-0.015-2.273,0.253-4.805-0.144-7.045
		c-0.393-2.216-1.524-3.357-3.39-3.654c-0.063-0.166-0.205-0.311-0.398-0.332c-1.797-0.194-2.72,1.009-3.202,2.478
		c-1.35-0.042-2.723,0.04-4.065,0.058c-0.201,0.003-0.202,0.31,0,0.313c1.3,0.017,2.629,0.096,3.938,0.063
		c-0.089,0.336-0.16,0.679-0.214,1.018c-0.03,0.191-0.043,0.384-0.069,0.575c-1.454,0.049-2.891,0.175-4.354,0.125
		c-0.189-0.007-0.186,0.279,0,0.292c1.408,0.101,2.895,0.156,4.309-0.037c-0.092,0.812-0.157,1.626-0.184,2.442
		c-1.373,0.043-2.745,0.117-4.118,0.168c-0.699,0.026-1.399,0.05-2.098,0.071c-0.35,0.011-0.7,0.02-1.049,0.029
		c-0.363-0.144-0.622-0.094-0.786,0.128c-0.013-0.039-0.041-0.073-0.097-0.073c-0.172-0.001-0.344-0.002-0.516-0.003
		c-0.174-0.001-0.174,0.267,0,0.27c2.876,0.058,5.783-0.001,8.657-0.177c-0.023,0.961-0.023,1.924-0.02,2.887
		c-2.184,0.107-4.354,0.197-6.546,0.155c-0.15-0.003-0.149,0.225,0,0.232c2.171,0.106,4.372,0.133,6.547-0.012
		c0.001,0.797-0.003,1.594-0.029,2.39c-2.058,0.069-4.087,0.27-6.166,0.149c-0.172-0.01-0.17,0.254,0,0.267
		c1.984,0.153,4.143,0.292,6.151-0.008c-0.028,0.658-0.068,1.315-0.142,1.971c-0.062,0.05-0.115,0.116-0.144,0.209
		c-0.031,0.101-0.072,0.197-0.104,0.297c-3.265,0.132-6.515,0.297-9.787,0.295c-0.143,0-0.142,0.218,0,0.222
		c3.204,0.084,6.445,0.101,9.648-0.119c-0.237,0.674-0.499,1.333-0.821,1.943c-1.902,0.036-3.762,0.231-5.681,0.077
		c-0.155-0.012-0.15,0.222,0,0.239c1.741,0.198,3.673,0.363,5.442,0.076c-0.369,0.631-0.78,1.223-1.278,1.72
		c-2.082-0.017-4.179,0.161-6.258,0.258c-0.126,0.006-0.127,0.2,0,0.197c1.974-0.045,3.969-0.023,5.941-0.157
		c-1.027,0.899-2.332,1.477-4.023,1.535c-3.549,0.121-5.643-2.216-6.829-5.147c0.13-0.097,0.222-0.25,0.22-0.473
		c-0.072-6.328-0.42-12.649-0.45-18.98C6.457,20.941,5.708,6.974,6.727,3.72c0.185,0.043,0.388,0.019,0.571-0.134
		C10.8,0.66,14.889,0.962,17.649,3.251c-2.124-0.134-4.292-0.057-6.393,0.022c-0.171,0.007-0.173,0.268,0,0.267
		c2.316-0.008,4.63,0.152,6.942,0.203c0.616,0.612,1.149,1.332,1.569,2.147c-1.902,0.033-3.804,0.166-5.712,0.142
		c-0.205-0.003-0.202,0.304,0,0.316c1.93,0.12,3.977,0.186,5.923-0.044c0.33,0.731,0.581,1.524,0.721,2.379
		c-3.152,0.117-6.28,0.385-9.443,0.355c-0.172-0.002-0.172,0.261,0,0.267c3.132,0.107,6.364,0.158,9.484-0.255
		c0.034,0.269,0.077,0.533,0.091,0.812c0.028,0.568,0.01,1.147-0.019,1.73c-3.095-0.132-6.361,0.046-9.407,0.474
		c-0.119,0.017-0.088,0.208,0.028,0.207c3.101-0.031,6.256-0.107,9.359-0.27c-0.053,0.832-0.13,1.671-0.179,2.506
		c-2.355,0.025-4.734,0.239-7.08,0.403c-0.107,0.007-0.11,0.171,0,0.169c2.344-0.052,4.724-0.057,7.065-0.246
		c-0.036,0.755-0.043,1.506,0.031,2.24c-1.731,0.067-3.436,0.231-5.174,0.182c-0.173-0.005-0.171,0.259,0,0.267
		c1.714,0.082,3.501,0.133,5.202-0.135c0.052,0.396,0.124,0.788,0.233,1.172c-0.049,0.059-0.102,0.115-0.15,0.175
		c-0.235,0.296,0.059,0.831,0.427,0.612c0.032,0.077,0.06,0.156,0.095,0.232c0.047,0.1,0.193,0.063,0.222-0.029
		c0.052-0.167,0.098-0.345,0.147-0.519c0.142-0.098,0.285-0.196,0.428-0.291c-0.001,0.018-0.004,0.037-0.005,0.055
		c-0.004,0.071,0.109,0.087,0.124,0.017c0.012-0.056,0.018-0.113,0.029-0.169c5.519-3.641,11.622-5.204,16.531-1.824
		c-2.795-0.173-5.625-0.113-8.418-0.061c-0.14,0.002-0.141,0.217,0,0.218c3.002,0.012,5.998,0.203,8.996,0.249
		c0.734,0.576,1.44,1.266,2.108,2.089c-4.821-0.335-9.782-0.002-14.603,0.219c-0.175,0.008-0.177,0.278,0,0.274
		c4.941-0.094,9.938,0.138,14.867-0.137c0.007,0,0.01-0.007,0.017-0.008c0.343,0.447,0.676,0.929,0.998,1.448
		c0.027,0.043,0.061,0.075,0.098,0.1c-0.006,0.023-0.025,0.038-0.023,0.065c0.317,3.278,0.569,6.623,0.613,9.954
		c-3.012,0.003-6.046,0.305-9.054,0.475C34.178,31.715,34.176,31.966,34.34,31.959z"/>
	<path style="fill:#1D1D1B;" d="M42.231,41.526c-2.808-0.142-5.708,0.103-8.516,0.245c-0.107,0.005-0.174,0.168-0.06,0.221
		c0.406,0.187,0.241,0.16,0.686,0.132c0.103-0.006,0.105-0.164,0-0.162c2.57-0.061,5.289,0.105,7.89-0.166
		C42.401,41.779,42.408,41.535,42.231,41.526z"/>
	<path style="fill:#1D1D1B;" d="M42.921,27.976c-3.392,0.19-6.751,0.438-10.151,0.523c-0.114,0.003-0.112,0.168,0,0.176
		c3.334,0.233,6.893,0.161,10.191-0.409C43.124,28.238,43.086,27.967,42.921,27.976z"/>
	<path style="fill:#1D1D1B;" d="M42.387,25.299c-4.429,0.036-8.872,0.32-13.287,0.659c-0.087,0.007-0.089,0.14,0,0.137
		c4.427-0.139,8.862-0.204,13.287-0.385C42.65,25.699,42.653,25.296,42.387,25.299z"/>
	<path style="fill:#1D1D1B;" d="M42.151,22.218c-2.119-0.504-4.323-0.091-6.471,0.093c-2.657,0.227-5.313,0.463-7.97,0.697
		c-0.192,0.017-0.195,0.317,0,0.302c4.536-0.338,9.848-1.51,14.345-0.746C42.279,22.602,42.379,22.272,42.151,22.218z"/>
</g>
<g>
</g>
<g>
</g>
<g>
</g>
<g>
</g>
<g>
</g>
<g>
</g>
<g>
</g>
<g>
</g>
<g>
</g>
<g>
</g>
<g>
</g>
<g>
</g>
<g>
</g>
<g>
</g>
<g>
</g>
</svg>
