<?xml version="1.0" encoding="iso-8859-1"?>
<!-- Generator: Adobe Illustrator 18.0.0, SVG Export Plug-In . SVG Version: 6.00 Build 0)  -->
<!DOCTYPE svg PUBLIC "-//W3C//DTD SVG 1.1//EN" "http://www.w3.org/Graphics/SVG/1.1/DTD/svg11.dtd">
<svg version="1.1" id="Capa_1" xmlns="http://www.w3.org/2000/svg" xmlns:xlink="http://www.w3.org/1999/xlink" x="0px" y="0px"
	 viewBox="0 0 48.985 48.985" style="enable-background:new 0 0 48.985 48.985;" xml:space="preserve">
<g>
	<path style="fill:#1D1D1B;" d="M5.743,17.144c-0.053-0.95-0.159-1.891-0.232-2.839c-0.026-0.337-0.249-0.558-0.586-0.586
		c-1.311-0.109-2.642-0.011-3.945,0.149c-0.368,0.045-0.639,0.266-0.659,0.658c-0.061,1.254-0.123,2.508-0.184,3.762
		c-0.019,0.39,0.263,0.584,0.563,0.591c0.064,0.088,0.148,0.161,0.267,0.172c0.874,0.083,1.756,0.088,2.633,0.111
		c0.567,0.015,1.385,0.164,1.848-0.266C5.929,18.449,5.776,17.733,5.743,17.144z M3.599,18.003
		c-0.329,0.033-0.658,0.068-0.987,0.103c-0.414,0.044-0.827,0.092-1.239,0.149c0.074-1.045,0.148-2.089,0.222-3.134
		c0.916-0.104,1.832-0.157,2.752-0.2c0.002,0.204,0.01,0.409,0.013,0.613c-0.683-0.076-1.37-0.115-2.056-0.161
		c-0.169-0.011-0.164,0.243,0,0.26c0.687,0.07,1.373,0.148,2.062,0.187c0.004,0.163,0.002,0.326,0.01,0.489
		c0.005,0.096,0.011,0.191,0.016,0.287c-0.778-0.273-1.7-0.174-2.472,0.037C1.788,16.67,1.845,16.87,1.979,16.84
		c0.85-0.188,1.596-0.064,2.429,0.01c0.009,0.154,0.017,0.308,0.026,0.461c0.002,0.033-0.028,0.596,0.076,0.64
		C4.292,18.011,3.703,17.993,3.599,18.003z"/>
	<path style="fill:#1D1D1B;" d="M5.283,19.894c-0.037-0.196-0.291-0.209-0.404-0.078c-0.014-0.011-0.02-0.028-0.036-0.037
		c-0.615-0.332-1.356-0.21-2.036-0.193c-0.624,0.016-1.465-0.104-1.985,0.279c-0.192,0.142-0.192,0.378,0,0.519
		c0.519,0.383,1.365,0.263,1.985,0.279c0.635,0.016,1.319,0.11,1.909-0.147c-0.072,0.385-0.116,0.775-0.16,1.164
		c-0.746-0.073-1.505-0.026-2.253-0.012c-0.192,0.004-0.193,0.295,0,0.299c0.735,0.014,1.481,0.059,2.215-0.009
		c-0.052,0.527-0.087,1.056-0.11,1.586c-0.583,0.061-1.159,0.098-1.753,0.041c-0.182-0.018-0.176,0.259,0,0.281
		c0.578,0.072,1.166,0.093,1.739,0.001c-0.018,0.492-0.031,0.983-0.04,1.474c-0.785-0.079-1.621,0.005-2.4,0.017
		c-0.17,0.002-0.17,0.261,0,0.264c0.778,0.011,1.611,0.095,2.394,0.017c-0.004,0.208-0.008,0.416-0.013,0.624
		c-0.009,0.389-0.025,0.785-0.039,1.178c-0.623-0.049-1.246,0.039-1.851,0.201c-0.151,0.04-0.087,0.268,0.065,0.234
		c0.596-0.133,1.178-0.152,1.778-0.153c-0.015,0.427-0.027,0.85-0.042,1.278c-0.645-0.035-1.32,0.006-1.941,0.066
		c-0.124,0.012-0.124,0.181,0,0.193c0.619,0.061,1.291,0.102,1.933,0.067c-0.013,0.423-0.03,0.846-0.033,1.269
		c-0.973-0.055-1.941-0.015-2.918-0.151c-0.069-0.01-0.119,0.037-0.135,0.09c0.103-3.25,0.11-6.536-0.137-9.743
		c-0.032-0.417-0.602-0.411-0.643,0c-0.427,4.274-0.412,8.705-0.307,12.998c0.01,0.422,0.435,0.548,0.716,0.395
		c0.485,0.312,1.152,0.29,1.716,0.322c0.712,0.041,1.557,0.157,2.2-0.185c0.129-0.069,0.176-0.174,0.193-0.284
		c0.131-0.023,0.243-0.114,0.274-0.301c0.375-2.281,0.267-4.639,0.32-6.947C5.533,24.496,5.71,22.159,5.283,19.894z M2.494,33.448
		c-0.47,0.006-1-0.077-1.46,0.047c0.045-0.976,0.084-1.959,0.115-2.945c-0.01,0.05,0.009,0.102,0.076,0.114
		c0.951,0.164,2,0.32,2.981,0.227c0,0.406,0.003,0.811,0.019,1.215c-0.754-0.038-1.551,0.038-2.272,0.08
		c-0.165,0.01-0.165,0.247,0,0.257c0.73,0.042,1.536,0.118,2.298,0.077c0.019,0.312,0.025,0.627,0.059,0.937
		C3.737,33.33,3.065,33.441,2.494,33.448z"/>
	<path style="fill:#1D1D1B;" d="M27.316,3.785c-6.607-0.01-13.358,0.235-19.89,1.302c-3.37,0.55-6.919,1.759-6.571,5.784
		c0.015,0.173,0.108,0.288,0.226,0.359c-0.026,0.005-0.056,0.01-0.082,0.016c-0.568,0.112-0.436,1.022,0.136,1.005
		c0.688-0.02,1.376-0.059,2.065-0.051c0.637,0.007,1.288,0.09,1.91-0.064c0.314-0.078,0.406-0.352,0.341-0.597
		c5.115-3.236,12.556-2.899,18.393-2.714c2.891,0.092,5.781,0.299,8.661,0.557c3.448,0.309,8.958-0.056,11.655,2.449
		c-0.195,0.224-0.136,0.655,0.198,0.723c1.089,0.222,2.336,0.306,3.436,0.122c0.018-0.003,0.03-0.014,0.046-0.018
		c0.3,0.197,0.763,0.146,0.862-0.302C50.947,2.206,32.783,3.793,27.316,3.785z M47.664,11.563c-0.837-0.123-1.744-0.099-2.605,0.02
		c-0.017-0.037-0.031-0.075-0.06-0.11c-1.766-2.125-4.123-2.167-6.733-2.476c-4.477-0.53-8.952-1.072-13.461-1.243
		C18.806,7.526,9.799,6.825,4.946,11.109c-0.954-0.301-2.195-0.177-3.254,0.007c0.042-0.066,0.072-0.144,0.069-0.246
		c-0.188-6.606,19.28-5.996,23.574-6.04c2.938-0.03,12.52-0.426,18.136,1.68c-1.437-0.121-2.88-0.149-4.323-0.09
		c-0.967,0.04-3.225-0.168-3.944,0.596c-0.045,0.047-0.035,0.12,0.02,0.155c0.031,0.02,0.062,0.04,0.094,0.06
		c0.043,0.028,0.1,0.007,0.126-0.033c0.015-0.022,0.029-0.045,0.044-0.068c0.039-0.06-0.018-0.128-0.077-0.132
		c0.31-0.128,1.902-0.076,2.277-0.102c0.852-0.057,1.704-0.086,2.557-0.084c1.524,0.003,3.032,0.13,4.547,0.279
		c0.761,0.397,1.405,0.86,1.889,1.402c-2.152-0.033-4.291-0.078-6.439-0.305c-0.105-0.011-0.131,0.171-0.025,0.186
		c2.237,0.335,4.509,0.559,6.775,0.503c0.203,0.286,0.369,0.589,0.485,0.916c-0.83-0.027-1.672-0.005-2.498,0.055
		c-0.099,0.007-0.1,0.148,0,0.155c0.853,0.062,1.722,0.085,2.579,0.054C47.684,10.519,47.729,11.017,47.664,11.563z"/>
	<path style="fill:#1D1D1B;" d="M48.833,14.293c-0.005-0.354-0.311-0.503-0.58-0.459c-0.063-0.111-0.161-0.198-0.303-0.221
		c-0.63-0.102-1.258-0.024-1.892,0.021c-0.614,0.043-1.233,0.06-1.841,0.163c-0.038,0.007-0.057,0.037-0.086,0.055
		c-0.107,0.003-0.207,0.051-0.231,0.198c-1.055,6.375-0.393,13.322-0.127,19.75c0.021,0.511,0.57,0.664,0.905,0.473
		c1.124,0.355,2.978,0.548,3.781-0.218c0.009-0.009,0.009-0.02,0.017-0.029c0.177-0.033,0.334-0.161,0.34-0.398
		C48.969,27.181,48.918,20.738,48.833,14.293z M44.512,14.489c0.513,0.065,1.03,0.093,1.546,0.129
		c0.601,0.042,1.195,0.11,1.792,0.03c-0.002,0.26,0,0.52,0,0.78c-0.537-0.113-1.119-0.097-1.647-0.05
		c-0.135,0.012-0.14,0.219,0,0.215c0.567-0.019,1.101,0.073,1.647,0.157c0.001,0.438,0,0.876,0,1.314
		c-0.828-0.116-1.687-0.109-2.517-0.149c-0.185-0.009-0.179,0.268,0,0.285c0.829,0.079,1.68,0.212,2.517,0.211
		c0.002,0.656-0.002,1.313,0,1.97c-0.728-0.087-1.511,0.02-2.213,0.162c-0.151,0.03-0.084,0.25,0.063,0.227
		c0.732-0.115,1.428-0.072,2.151-0.066c0.002,0.661-0.002,1.323,0,1.984c-0.665-0.005-1.332,0.015-1.996,0.025
		c-0.136,0.002-0.136,0.209,0,0.211c0.663,0.011,1.331,0.031,1.996,0.025c0.003,0.72-0.005,1.44,0,2.159
		c-0.721-0.023-1.46,0.035-2.171,0.043c-0.149,0.002-0.15,0.23,0,0.232c0.711,0.008,1.451,0.066,2.173,0.043
		c0.004,0.538,0.004,1.077,0.009,1.616c-0.991-0.063-2.008-0.033-2.999,0.013C44.89,22.176,44.916,18.286,44.512,14.489z
		 M46.418,33.392c-0.504,0.042-1,0.012-1.498-0.014c-0.088-2.33-0.075-4.688-0.059-7.05c0.993,0.046,2.012,0.076,3.004,0.013
		c0.008,0.76,0.007,1.519,0.018,2.279c-0.752,0.075-1.505,0.244-2.245,0.371c-0.162,0.028-0.091,0.267,0.067,0.244
		c0.72-0.104,1.464-0.174,2.181-0.326c0.012,0.801,0.01,1.602,0.027,2.403c-0.858-0.036-1.725,0.012-2.583,0.025
		c-0.131,0.002-0.131,0.202,0,0.204c0.86,0.013,1.729,0.061,2.588,0.025c0.012,0.551,0.019,1.101,0.034,1.652
		C47.448,33.173,46.925,33.35,46.418,33.392z"/>
	<path style="fill:#1D1D1B;" d="M48.754,36.388c0.039-0.349-0.159-0.735-0.612-0.747c-1.366-0.035-2.715,0.111-4.052,0.372
		c-0.315-0.222-0.837-0.172-0.979,0.311c-0.374,1.266-3.869,2.202-5.09,2.578c-2.001,0.617-4.243,0.843-6.323,1.017
		c-2.885,0.241-5.769,0.034-8.648-0.18c-5.405-0.401-14.414,1.229-17.662-3.982c-0.089-0.143-0.237-0.187-0.374-0.164
		c-0.593-0.316-1.357-0.19-2.016-0.187c-0.812,0.004-1.624-0.003-2.428,0.118c-0.262,0.039-0.345,0.211-0.322,0.395
		c-0.106,0.049-0.182,0.151-0.174,0.305c0.647,11.729,14.16,8.764,22.584,8.64c6.042-0.089,12.738,0.192,18.68-1.042
		c3.958-0.822,7.12-2.787,7.646-7.022C49.006,36.605,48.901,36.466,48.754,36.388z M47.099,38.99
		c-1.525,0.053-3.103,0.458-4.599,0.717c-0.118,0.02-0.092,0.224,0.028,0.211c1.393-0.156,2.883-0.22,4.268-0.522
		c-0.318,0.424-0.669,0.822-1.081,1.172c-6.924,1.056-13.862,1.655-20.85,2.078c-0.141,0.009-0.144,0.222,0,0.222
		c6.725-0.039,13.408-0.69,20.052-1.693c-5.566,3.704-16.932,2.622-22.261,2.712c-3.754,0.064-7.51,0.056-11.263-0.062
		c-2.611-0.082-3.913-0.238-6.367-1.546c-3.088-1.646-3.209-2.932-4.165-5.859c0.709,0.081,1.422,0.09,2.136,0.094
		c0.602,0.003,1.289,0.103,1.857-0.116c2.196,6.243,13.235,4.243,18.196,4.607c4.843,0.356,9.622,0.35,14.385-0.698
		c2.264-0.499,5.813-0.884,6.764-3.339c1.249-0.059,2.496-0.058,3.746-0.029C47.773,37.702,47.484,38.382,47.099,38.99z"/>
	<path style="fill:#1D1D1B;" d="M13.795,15.78c-0.187-0.071-0.353,0-0.47,0.126c-1.454-0.615-1.387,4.136-1.382,4.551
		c0.034,2.962,0.281,5.925,0.445,8.882c0.073,1.319-0.26,3.204,1.025,3.996c0.159,0.098,0.424,0.117,0.58,0
		c0.109-0.081,0.218-0.163,0.326-0.244c0.009-0.007,0.01-0.017,0.018-0.024c2.22-0.393,1.345-6.248,1.345-7.483
		C15.685,22.897,17.074,17.021,13.795,15.78z M13.966,32.175c-0.858-1.355-1.375-13.854-0.388-15.377
		c1.738,1.062,1.019,5.995,1.024,7.571C14.604,25.066,14.628,31.117,13.966,32.175z"/>
	<path style="fill:#1D1D1B;" d="M20.307,34.821c-0.028-0.106-0.083-0.178-0.147-0.236c-0.011-0.123-0.075-0.247-0.175-0.298
		c-0.313-0.158-0.606-0.056-0.943-0.1c-0.228-0.03-0.439-0.105-0.64-0.204c1.135-0.328,1.36-1.054,1.612-2.235
		c0.778-3.658,0.552-8.753,0.126-12.446c-0.553-4.798-4.17-7.288-9.064-6.146c-5.433,1.268-4.019,9.958-4.08,14.053
		c-0.069,4.639,2.366,9.363,7.917,7.989c0.19-0.047,0.301-0.181,0.353-0.336c0.276,2.082,3.225,3.28,5.001,2.27
		c0.283-0.161,0.291-0.531,0.099-0.745C20.446,35.867,20.442,35.333,20.307,34.821z M17.726,36.127
		c-0.863-0.192-1.593-0.742-1.847-1.608c-0.09-0.307-0.509-0.282-0.604-0.016c-0.025-0.082-0.06-0.163-0.119-0.231
		c-0.016-0.018-0.073-0.123-0.133-0.131c-2.653-0.325-2.685,0.014-4.852-1.898c-2.174-1.918-2.043-3.061-1.97-5.774
		c0.096-3.542-1.039-11.548,4.131-12.511c1.911-0.356,3.943,0.318,5.306,1.706c-0.853-0.03-1.735,0.028-2.568,0.069
		c-0.179,0.009-0.179,0.269,0,0.278c0.951,0.046,1.963,0.11,2.926,0.045c0.396,0.488,0.724,1.038,0.936,1.661
		c-0.822,0.062-1.623,0.202-2.462,0.168c-0.105-0.004-0.102,0.153,0,0.162c0.801,0.069,1.726,0.117,2.534-0.077
		c0.166,0.583,0.249,1.211,0.279,1.855c-0.41,0.005-0.821,0.087-1.231,0.111c-0.47,0.028-0.937,0.017-1.406-0.017
		c-0.178-0.013-0.173,0.256,0,0.274c0.814,0.086,1.831,0.17,2.645-0.093c0.015,0.524,0.014,1.051,0.008,1.562
		c-0.591-0.044-1.188-0.019-1.78-0.012c-0.219,0.002-0.22,0.339,0,0.341c0.591,0.006,1.188,0.032,1.778-0.012
		c-0.001,0.153-0.004,0.314-0.003,0.462c0.002,0.22,0.015,0.556,0.031,0.952c-0.942-0.064-1.924,0.002-2.855,0.032
		c-0.185,0.006-0.186,0.282,0,0.288c0.935,0.03,1.923,0.097,2.869,0.031c0.018,0.433,0.038,0.92,0.053,1.456
		c-0.792-0.007-1.607,0.136-2.395,0.213c-0.146,0.014-0.151,0.242,0,0.232c0.791-0.051,1.618-0.045,2.401-0.176
		c0.014,0.575,0.023,1.182,0.017,1.799c-0.908-0.082-1.816-0.015-2.732-0.165c-0.191-0.031-0.276,0.258-0.081,0.295
		c0.872,0.163,1.908,0.331,2.807,0.172c-0.011,0.623-0.035,1.247-0.086,1.838c-0.008-0.004-0.012-0.013-0.022-0.014
		c-0.868-0.125-1.782-0.044-2.657-0.036c-0.204,0.002-0.204,0.315,0,0.316c0.875,0.008,1.789,0.089,2.657-0.036
		c0.001,0,0.001-0.001,0.002-0.001c-0.067,0.684-0.166,1.32-0.314,1.852c-0.829-0.064-1.653-0.061-2.484-0.177
		c-0.166-0.023-0.243,0.224-0.071,0.258c0.78,0.153,1.652,0.264,2.464,0.189c-0.239,0.707-0.573,1.197-1.055,1.286
		c-0.096,0.018-0.172,0.054-0.229,0.104c-0.84-0.091-1.718-0.072-2.541-0.113c-0.157-0.008-0.154,0.231,0,0.243
		c0.78,0.059,1.602,0.176,2.406,0.2c-0.002,0.097,0.012,0.196,0.057,0.287c-0.111,0.093-0.163,0.24-0.049,0.391
		c0.357,0.475,1.162,1.021,1.85,1.006c0.019,0.069,0.03,0.137,0.047,0.206c-0.674-0.098-1.347-0.188-2.019-0.335
		c-0.162-0.036-0.224,0.193-0.068,0.248c0.668,0.236,1.433,0.423,2.172,0.46c0.031,0.141,0.072,0.282,0.097,0.423
		C18.961,36.136,18.337,36.264,17.726,36.127z"/>
	<path style="fill:#1D1D1B;" d="M27.381,14.634c0.001-0.234-0.244-0.339-0.431-0.288c-0.025-0.17-0.133-0.315-0.346-0.344
		c-1.264-0.17-2.502-0.103-3.751,0.157c-0.095,0.02-0.161,0.071-0.212,0.133c-0.109,0.063-0.191,0.169-0.187,0.333
		c0.143,6.274-0.451,12.549-0.465,18.825c-0.001,0.467,0.654,0.439,0.707,0c0.736-6.156,0.515-12.274,0.578-18.45
		c1.067-0.04,2.131-0.038,3.199-0.035c0.084,0,0.156-0.027,0.22-0.065c-0.055,0.316-0.101,0.636-0.15,0.954
		c-0.712-0.188-1.476-0.183-2.201-0.106c-0.161,0.017-0.168,0.266,0,0.257c0.738-0.042,1.427,0.065,2.149,0.181
		c-0.274,1.848-0.454,3.722-0.563,5.608c-0.529,0.082-1.034,0.141-1.584,0.079c-0.115-0.013-0.143,0.186-0.028,0.204
		c0.519,0.081,1.072,0.113,1.597,0.018c-0.024,0.437-0.051,0.873-0.067,1.311c-0.501-0.007-1.006,0.012-1.504,0.02
		c-0.183,0.003-0.184,0.282,0,0.285c0.495,0.008,0.996,0.027,1.494,0.021c-0.019,0.553-0.042,1.105-0.051,1.659
		c-0.656-0.031-1.312-0.005-1.969,0.013c-0.115,0.003-0.116,0.176,0,0.179c0.656,0.018,1.311,0.043,1.967,0.013
		c-0.01,0.79-0.023,1.581-0.014,2.37c-0.592-0.021-1.187-0.009-1.778,0.005c-0.188,0.005-0.188,0.287,0,0.292
		c0.593,0.015,1.187,0.026,1.78,0.005c0.009,0.684,0.024,1.366,0.046,2.047c-0.728,0.083-1.431,0.164-2.174,0.099
		c-0.182-0.016-0.177,0.262,0,0.281c0.716,0.079,1.476,0.087,2.185-0.086c0.016,0.466,0.03,0.933,0.051,1.398
		c-0.802-0.032-1.612,0.002-2.412,0.017c-0.149,0.003-0.15,0.229,0,0.232c0.805,0.014,1.618,0.049,2.425,0.016
		c0.019,0.397,0.034,0.796,0.056,1.19c-1.123-0.034-2.266,0.1-3.374,0.253c-0.242,0.033-0.242,0.455,0,0.488
		c1.162,0.161,2.363,0.306,3.539,0.252c0.298,0.37,1.022,0.274,1.008-0.325C26.974,27.609,27.345,21.146,27.381,14.634z"/>
	<path style="fill:#1D1D1B;" d="M41.456,14.396c-0.381-0.282-0.886-0.265-1.364-0.308c-0.646-0.059-1.295-0.094-1.942-0.137
		c-0.01-0.001-0.018,0.004-0.028,0.004c-0.213-0.156-0.533-0.161-0.691,0.132c-0.885,1.64-1.499,3.474-2.13,5.257
		c-0.751-1.666-1.523-3.32-2.341-4.957c-0.064-0.128-0.186-0.176-0.308-0.168c-0.043-0.087-0.113-0.161-0.238-0.193
		c-0.536-0.134-1.102,0.005-1.645,0.068c-0.598,0.069-1.196,0.139-1.794,0.208c-0.329,0.038-0.382,0.437-0.153,0.572
		c0.004,0.018,0.001,0.033,0.008,0.052c0.945,2.641,1.858,5.297,2.867,7.915c0.342,0.886,0.656,2.426,1.469,3.136
		c-0.03,0.046-0.068,0.088-0.074,0.147c-0.234,2.427-0.062,4.899,0,7.331c0.012,0.468,0.473,0.645,0.813,0.53
		c1.126,0.361,3.289,0.621,3.774-0.354c0.355-0.713,0.053-2.153,0.041-2.937c-0.019-1.201-0.072-2.402-0.133-3.602
		c0.204-0.045,0.395-0.167,0.492-0.405c1.554-3.81,3.053-7.779,3.764-11.844C41.896,14.548,41.674,14.376,41.456,14.396z
		 M37.776,17.919c0.635,0.163,1.342,0.286,2.012,0.232c-0.271,0.737-0.538,1.476-0.802,2.217c-0.242,0.016-0.484,0.042-0.728,0.053
		c-0.382,0.018-0.764-0.01-1.146,0.006c-0.165,0.007-0.212,0.256-0.04,0.297c0.52,0.125,1.174,0.17,1.759,0.078
		c-0.191,0.537-0.384,1.074-0.575,1.611c-0.583,0.003-1.171,0.071-1.752,0.091c-0.727,0.024-1.468-0.035-2.191,0.038
		c-0.137,0.014-0.192,0.224-0.035,0.259c1.12,0.25,2.598,0.271,3.821,0.052c-0.185,0.519-0.369,1.039-0.558,1.556
		c-0.627-0.027-1.269,0.018-1.89,0.034c-0.396,0.01-0.985-0.103-1.295,0.197c-0.035,0.034-0.047,0.099-0.018,0.141
		c0.06,0.088,0.075,0.096,0.175,0.138c0.026,0.011,0.062-0.002,0.08-0.021c0.015-0.015,0.03-0.031,0.045-0.046
		c0.05-0.051,0.014-0.11-0.038-0.125c0.157-0.018,0.514,0.05,0.638,0.054c0.32,0.01,0.64,0.016,0.961,0.022
		c0.393,0.007,0.792,0.02,1.19,0.017c-0.155,0.422-0.305,0.845-0.465,1.265c-0.132,0.06-0.237,0.182-0.243,0.377
		c-0.002,0.053-0.001,0.107-0.003,0.16c-0.495,0.058-0.981,0.121-1.491,0.119c-0.154-0.001-0.192,0.237-0.037,0.273
		c0.478,0.109,1.024,0.131,1.521,0.018c-0.006,0.364-0.013,0.728-0.019,1.092c-0.43-0.021-0.859-0.02-1.292-0.014
		c-0.235,0.003-0.236,0.362,0,0.366c0.431,0.007,0.857,0.007,1.286-0.013c-0.007,0.495-0.024,0.99-0.026,1.485
		c-0.477,0.048-0.953,0.085-1.44,0.059c-0.093-0.005-0.117,0.153-0.022,0.166c0.484,0.067,0.975,0.1,1.462,0.065
		c-0.001,0.483-0.007,0.967-0.002,1.45c-0.711-0.05-1.42-0.029-2.132-0.016c-0.154,0.003-0.154,0.236,0,0.239
		c0.714,0.013,1.425,0.034,2.137-0.016c0.017,0.285,0.118,0.856,0.009,1.065c0.09,0.354-0.026,0.397-0.35,0.131l-0.529-0.003
		c-0.5-0.034-1.01-0.031-1.501,0.058c-0.079-2.303-0.097-4.637-0.443-6.917c0.117-0.099,0.143-0.323-0.011-0.427
		c-0.478-0.322-0.732-2.258-0.927-2.82c-0.289-0.837-0.598-1.669-0.908-2.499c-0.691-1.853-1.406-3.698-2.111-5.546l0.915-0.004
		c0.53-0.002,1.104,0.07,1.607-0.108c0.785,2.107,1.625,4.188,2.508,6.256c0.208,0.488,0.857,0.251,1.007-0.131
		c0.78-1.991,1.746-4.018,2.31-6.091c0.58,0.116,1.159,0.236,1.742,0.337c0.306,0.053,0.619,0.132,0.923,0.14
		c-0.072,0.18-0.138,0.362-0.209,0.543c-0.654-0.048-1.32-0.024-1.973,0.001c-0.222,0.009-0.222,0.336,0,0.345
		c0.607,0.023,1.226,0.041,1.837,0.007c-0.205,0.527-0.413,1.052-0.609,1.583c-0.702-0.013-1.366,0.015-2.072-0.124
		C37.689,17.655,37.623,17.879,37.776,17.919z"/>
	<path style="fill:#1D1D1B;" d="M25.951,19.243c-0.525-0.079-1.08-0.034-1.609-0.003c-0.167,0.01-0.168,0.25,0,0.26
		c0.53,0.031,1.083,0.076,1.609-0.003C26.076,19.479,26.077,19.262,25.951,19.243z"/>
	<path style="fill:#1D1D1B;" d="M26.129,17.477c-0.692-0.14-1.493,0.041-2.169,0.207c-0.155,0.038-0.088,0.266,0.065,0.237
		c0.693-0.129,1.375-0.07,2.065-0.158C26.238,17.745,26.306,17.513,26.129,17.477z"/>
	<path style="fill:#1D1D1B;" d="M47.473,37.579c-0.885-0.193-1.845-0.048-2.72,0.138c-0.242,0.052-0.139,0.415,0.102,0.37
		c0.865-0.163,1.704-0.124,2.574-0.18C47.607,37.896,47.667,37.621,47.473,37.579z"/>
</g>
<g>
</g>
<g>
</g>
<g>
</g>
<g>
</g>
<g>
</g>
<g>
</g>
<g>
</g>
<g>
</g>
<g>
</g>
<g>
</g>
<g>
</g>
<g>
</g>
<g>
</g>
<g>
</g>
<g>
</g>
</svg>
