<?xml version="1.0" encoding="iso-8859-1"?>
<!-- Generator: Adobe Illustrator 18.0.0, SVG Export Plug-In . SVG Version: 6.00 Build 0)  -->
<!DOCTYPE svg PUBLIC "-//W3C//DTD SVG 1.1//EN" "http://www.w3.org/Graphics/SVG/1.1/DTD/svg11.dtd">
<svg version="1.1" id="Capa_1" xmlns="http://www.w3.org/2000/svg" xmlns:xlink="http://www.w3.org/1999/xlink" x="0px" y="0px"
	 viewBox="0 0 49.125 49.125" style="enable-background:new 0 0 49.125 49.125;" xml:space="preserve">
<g>
	<path style="fill:#1D1D1B;" d="M23.568,17.846c-0.465-0.212-0.917-0.26-1.433-0.003c-0.539,0.269-0.893,0.774-0.998,1.362
		c-0.213,1.194,0.632,2.221,1.814,2.338c1.028,0.102,2.065-0.599,2.111-1.682C25.098,19.008,24.458,17.983,23.568,17.846z
		 M23.119,20.357c-0.482-0.025-0.866-0.334-0.838-0.849c0.027-0.49,0.439-0.86,0.902-0.991c0.022,0.014,0.031,0.038,0.056,0.048
		c0.476,0.187,0.821,0.578,0.747,1.126C23.924,20.146,23.56,20.38,23.119,20.357z"/>
	<path style="fill:#1D1D1B;" d="M22.677,14.525c-0.006-0.001-0.009,0.002-0.015,0.002c-5.393-1.1-7.314,10.627-0.195,10.734
		c2.732,0.041,4.955-2.354,5.254-4.974C28.089,17.056,25.745,14.809,22.677,14.525z M26.556,20.686
		c-0.474,1.854-2.096,3.446-4.089,3.386c-2.162-0.065-3.608-1.772-3.508-3.886c0.112-2.359,1.434-4.312,3.7-4.898
		c0.007,0.001,0.011,0.005,0.018,0.006C25.442,15.63,27.278,17.861,26.556,20.686z"/>
	<path style="fill:#1D1D1B;" d="M43.969,39.16c0.166-0.001,0.333-0.067,0.45-0.248c6.717-10.373,6.879-25.195-3.672-33.42
		C30.065-2.834,13.715-1.632,5.353,9.117c-7.567,9.726-7.27,24.516,1.905,33.104c4.334,4.057,10.15,6.536,16.079,6.832
		c5.289,0.263,12.449-0.846,15.944-5.25c1.98,0.935,4.155,1.579,6.222,2.271c0.672,0.225,1.146-0.566,0.863-1.123
		C45.411,43.075,44.668,41.14,43.969,39.16z M44.787,35.84c-1.792-0.047-3.606,0.113-5.397,0.186c-0.205,0.008-0.207,0.325,0,0.32
		c1.736-0.041,3.498-0.007,5.23-0.152c-0.339,0.695-0.699,1.378-1.082,2.044c-0.016-0.053-0.052-0.1-0.125-0.104
		c-2.314-0.143-4.687,0.06-6.996,0.234c-0.13,0.01-0.132,0.211,0,0.204c2.332-0.124,4.666-0.048,6.996-0.146
		c0.018-0.001,0.026-0.013,0.041-0.018c-0.017,0.042-0.034,0.083-0.043,0.124c-0.462-0.117-1.02,0.218-0.859,0.826
		c0.097,0.366,0.206,0.729,0.319,1.091c-3.578-0.34-7.171-0.573-10.771-0.744c1.103-0.309,2.163-0.856,3.132-1.731
		c1.445-1.304,2.261-3.067,2.684-5.04c0.02,0.014,0.04,0.029,0.072,0.027c2.676-0.124,5.339-0.055,8.011-0.085
		C45.639,33.881,45.243,34.875,44.787,35.84z M32.742,23.741c0.157-0.009,0.216-0.24,0.041-0.288c-0.03-0.008-0.06-0.012-0.089-0.02
		c-0.067-0.503-0.136-1.005-0.238-1.503c-0.009-0.042-0.04-0.058-0.06-0.089c-0.014-0.09-0.049-0.179-0.104-0.24
		c-0.324-0.362-0.849-0.31-1.301-0.33c-0.364-0.016-0.737-0.018-1.103-0.045c-0.017-0.021-0.029-0.043-0.053-0.059
		c0-0.406,0.01-0.811,0.078-1.214c0.082-0.492,0.254-0.955,0.194-1.448c1.956-0.064,3.91-0.048,5.864-0.163
		c-0.024,0.061-0.036,0.128-0.028,0.206c0.507,4.65,1.747,10.154,0.443,14.784c-2.067,7.334-9.29,5.934-14.448,3.073
		c-0.529-0.605-0.732-1.593-0.31-2.299c0.248-0.415,0.706-0.672,1.169-0.77c0.235-0.05,1.594-0.113,1.586,0.326
		c-0.007,0.363,0.407,0.52,0.671,0.382c1.791,1.816,4.779,2.734,6.566,0.365c0.977-1.296,1.091-3.092,1.204-4.648
		C32.967,27.756,32.98,25.735,32.742,23.741z M39.524,42.99c-0.17-0.203-0.525-0.288-0.764-0.088
		c-0.25,0.209-0.519,0.386-0.778,0.58c0.06-0.119,0.009-0.301-0.168-0.316c-8.785-0.733-17.613-1.111-26.417-1.546
		c-0.121-0.006-0.118,0.177,0,0.186c8.794,0.672,17.604,1.404,26.417,1.778c0.028,0.001,0.04-0.017,0.062-0.023
		c-1.98,1.47-4.192,2.553-6.538,3.235c-0.029-0.065-0.077-0.12-0.169-0.121c-3.148-0.028-6.297-0.073-9.445-0.059
		c-0.123,0.001-0.122,0.185,0,0.19c2.846,0.116,5.694,0.184,8.542,0.26c-8.204,1.953-17.636-0.584-23.324-6.69
		C-1.47,31.347-0.604,17.092,7.677,8.304c7.892-8.375,21.607-9.137,31.058-2.786C32.898,5.089,27.051,4.841,21.2,4.752
		c-0.197-0.003-0.197,0.301,0,0.306c6.129,0.155,12.237,0.515,18.345,1.026c0.146,0.107,0.3,0.199,0.444,0.31
		c0.686,0.53,1.313,1.091,1.897,1.672C35.597,7.726,29.24,7.895,22.95,7.97c-0.174,0.002-0.175,0.27,0,0.271
		c6.43,0.022,12.881,0.304,19.309,0.206c0.557,0.585,1.073,1.188,1.539,1.814c-8.523,0.043-17.049,0.138-25.57,0.329
		c-0.144,0.003-0.145,0.224,0,0.225c8.63,0.048,17.265-0.002,25.895-0.106c0.743,1.061,1.368,2.172,1.873,3.326
		c-6.745-0.088-13.504-0.009-20.249,0.094c-0.149,0.002-0.15,0.23,0,0.232c6.799,0.098,13.612,0.173,20.412,0.076
		c0.355,0.862,0.657,1.741,0.892,2.639c-2.697-0.11-5.497,0.065-8.186,0.249c-0.155,0.01-0.158,0.238,0,0.243
		c2.728,0.076,5.571,0.139,8.294-0.091c0.178,0.74,0.329,1.487,0.43,2.244c-2.008-0.145-4.117,0.128-6.097,0.39
		c-0.22,0.029-0.226,0.378,0,0.352c2.049-0.238,4.097-0.204,6.143-0.357c0.059,0.505,0.107,1.012,0.133,1.522
		c-3.126-0.14-6.307,0.028-9.427,0.084c-0.167,0.003-0.168,0.257,0,0.26c3.125,0.056,6.311,0.225,9.442,0.084
		c0.025,0.717,0.024,1.437-0.012,2.158c-2.556,0.018-5.139,0.234-7.684,0.385c-0.172,0.01-0.176,0.274,0,0.271
		c2.537-0.052,5.116-0.044,7.654-0.228c-0.049,0.749-0.121,1.498-0.231,2.246c-2.014,0.1-3.981,0.307-6.018,0.179
		c-0.209-0.013-0.205,0.306,0,0.323c1.926,0.162,4.014,0.28,5.954-0.045c-0.285,1.744-0.728,3.476-1.311,5.162
		c-2.697-0.164-5.458-0.003-8.145,0.192c-0.008,0.001-0.011,0.008-0.019,0.01c0.92-4.661-0.331-10.45-1.014-14.299
		c-0.023-0.13-0.095-0.219-0.187-0.279c0.095-0.168,0.073-0.396-0.168-0.451c-2.31-0.528-4.552-0.371-6.855,0.117
		c-0.194,0.041-0.271,0.213-0.255,0.379c-0.03,0.017-0.065,0.024-0.089,0.049c-0.825,0.816-0.642,2.726-0.333,3.738
		c0.091,0.297,0.445,0.342,0.638,0.181c0.379,0.103,0.816,0.11,1.189,0.158c0.328,0.042,0.634,0.098,0.926,0.05
		c-0.003,0.296,0.001,0.593,0.002,0.89c-1.022-0.181-2.057-0.22-3.103-0.147c-0.188,0.013-0.191,0.306,0,0.295
		c1.049-0.058,2.078,0.019,3.103,0.191c0.001,0.533,0,1.066,0.003,1.599c-1.205-0.046-2.426,0.019-3.631,0.035
		c-0.16,0.002-0.161,0.247,0,0.25c1.204,0.017,2.424,0.081,3.629,0.035c0.002,0.689,0.005,1.379-0.014,2.068
		c-0.016-0.053-0.054-0.101-0.118-0.1c-1.047,0.024-2.076,0.022-3.114-0.135c-0.19-0.029-0.273,0.26-0.08,0.292
		c1.072,0.174,2.149,0.248,3.229,0.102c0.047-0.006,0.069-0.037,0.082-0.073c-0.019,0.649-0.05,1.297-0.107,1.945
		c-1.224,0.142-2.434,0.233-3.68,0.159c-0.148-0.009-0.145,0.217,0,0.229c1.215,0.1,2.451,0.097,3.658-0.095
		c-0.046,0.504-0.09,1.075-0.189,1.65c-1.445,0.355-2.849,0.657-4.345,0.683c-0.142,0.003-0.143,0.222,0,0.222
		c1.45-0.001,2.94-0.167,4.304-0.684c-0.276,1.392-0.915,2.702-2.732,2.798c-1.358,0.072-2.572-1.104-3.698-1.681
		c-0.025-0.013-0.053-0.017-0.079-0.024c-0.348-0.309-0.902-0.471-1.349-0.523c-0.863-0.1-1.78,0.142-2.42,0.747
		c-0.883,0.836-0.98,2.406-0.189,3.243c-0.006,0.067,0.01,0.134,0.079,0.188c1.589,1.255,3.524,2.358,5.546,2.978
		c-4.84-0.152-9.684-0.222-14.508-0.293c-0.163-0.002-0.163,0.249,0,0.253c10.276,0.261,20.524,1.008,30.794,1.363
		c0.038,0.001,0.059-0.018,0.084-0.032c0.374,1.141,0.82,2.26,1.314,3.355C42.721,43.678,41.123,43.236,39.524,42.99z"/>
	<path style="fill:#1D1D1B;" d="M34.133,45.302c-6.912-0.702-14.036-1.053-20.983-1.087c-0.127-0.001-0.121,0.181,0,0.193
		c6.912,0.723,14.034,1.155,20.983,1.21C34.341,45.62,34.332,45.322,34.133,45.302z"/>
	<path style="fill:#1D1D1B;" d="M46.39,29.594c-1.815,0.03-3.605,0.198-5.425,0.13c-0.197-0.007-0.196,0.296,0,0.306
		c1.797,0.091,3.685,0.166,5.466-0.135C46.603,29.866,46.56,29.592,46.39,29.594z"/>
</g>
<g>
</g>
<g>
</g>
<g>
</g>
<g>
</g>
<g>
</g>
<g>
</g>
<g>
</g>
<g>
</g>
<g>
</g>
<g>
</g>
<g>
</g>
<g>
</g>
<g>
</g>
<g>
</g>
<g>
</g>
</svg>
