<?xml version="1.0" encoding="iso-8859-1"?>
<!-- Generator: Adobe Illustrator 18.0.0, SVG Export Plug-In . SVG Version: 6.00 Build 0)  -->
<!DOCTYPE svg PUBLIC "-//W3C//DTD SVG 1.1//EN" "http://www.w3.org/Graphics/SVG/1.1/DTD/svg11.dtd">
<svg version="1.1" id="Capa_1" xmlns="http://www.w3.org/2000/svg" xmlns:xlink="http://www.w3.org/1999/xlink" x="0px" y="0px"
	 viewBox="0 0 48.455 48.455" style="enable-background:new 0 0 48.455 48.455;" xml:space="preserve">
<g>
	<path style="fill:#1D1D1B;" d="M25.328,0.052C12.591-0.808,1.678,9.133,0.694,21.727c-1.015,12.98,8.738,25.081,21.597,26.47
		c0.061,0.037,0.132,0.065,0.215,0.075c12.973,1.632,24.131-7.837,25.241-20.839C48.88,14.154,38.891,0.968,25.328,0.052z
		 M46.236,26.236c-1.227-0.128-2.5-0.08-3.729-0.113c-0.18-0.005-0.177,0.267,0,0.278c1.219,0.073,2.476,0.23,3.701,0.211
		c-0.061,0.892-0.16,1.774-0.322,2.636c-1.409-0.094-2.847-0.011-4.254,0.007c-0.206,0.003-0.206,0.317,0,0.32
		c1.383,0.018,2.795,0.097,4.181,0.012c-0.178,0.877-0.395,1.74-0.67,2.578c-1.683-0.199-3.395-0.241-5.084-0.342
		c-0.254-0.015-0.251,0.376,0,0.394c1.645,0.116,3.305,0.293,4.958,0.318c-0.314,0.907-0.677,1.792-1.096,2.644
		c-1.74-0.189-3.516-0.184-5.262-0.139c-0.183,0.005-0.184,0.282,0,0.285c1.696,0.024,3.385,0.14,5.078,0.207
		c-0.37,0.72-0.766,1.424-1.207,2.096c-2.222,0.039-4.448,0.2-6.671,0.246c-0.215,0.004-0.215,0.332,0,0.334
		c2.113,0.015,4.274,0.024,6.391-0.16c-0.474,0.69-0.972,1.362-1.517,1.992c-2.388,0.205-4.741,0.444-7.147,0.428
		c-0.188-0.001-0.188,0.288,0,0.292c2.248,0.048,4.55,0.01,6.787-0.312c-0.441,0.484-0.899,0.951-1.379,1.393
		c-4.494,0.218-8.963,0.156-13.459,0.012c-0.089-0.003-0.087,0.13,0,0.137c4.335,0.37,8.699,0.374,13.046,0.213
		c-4.244,3.711-9.896,5.758-16.076,5.07c-0.175-0.02-0.297,0.043-0.376,0.142C10.921,44.91,1.542,35.173,1.843,23.224
		c0.311-12.362,10.23-22.42,22.759-21.823c1.038,0.049,2.042,0.195,3.029,0.383c-1.887-0.002-3.784,0.223-5.627,0.559
		c-0.201,0.036-0.115,0.339,0.084,0.305c2.518-0.434,4.957-0.461,7.495-0.401c1.099,0.317,2.168,0.695,3.185,1.169
		c-2.385-0.075-4.84,0.111-7.17,0.294c-0.14,0.011-0.207,0.196-0.074,0.274c0.293,0.174,0.198,0.142,0.539,0.161
		c0.103,0.006,0.13-0.167,0.025-0.183c1.297,0.198,2.806-0.06,4.115-0.071c1.184-0.01,2.379,0.049,3.566,0.029
		c1.276,0.676,2.485,1.46,3.599,2.362c-1.994-0.075-4.014,0.024-6.004,0.043c-0.847,0.008-2.461-0.418-3.042,0.357
		c-0.037,0.049-0.014,0.119,0.021,0.16c0.029,0.035,0.059,0.069,0.088,0.103c0.09,0.106,0.261-0.031,0.191-0.147
		c0.062,0.101,4.602-0.108,4.936-0.105c1.432,0.015,2.881,0.077,4.313,0.008c0.904,0.776,1.75,1.619,2.526,2.527
		c-2.436-0.077-4.924,0.118-7.335,0.291c-0.172,0.012-0.176,0.276,0,0.271c2.566-0.084,5.153,0.006,7.718-0.093
		c0.691,0.852,1.332,1.747,1.903,2.69c-1.688,0.002-3.385,0.11-5.073,0.118c-0.133,0.001-0.13,0.194,0,0.204
		c1.723,0.127,3.544,0.211,5.275,0.036c0.453,0.777,0.872,1.576,1.238,2.404c-0.997-0.082-2.042-0.025-3.015-0.053
		c-0.173-0.005-0.17,0.257,0,0.267c1.037,0.065,2.147,0.229,3.207,0.214c0.259,0.616,0.5,1.24,0.709,1.878
		c-1.186,0.012-2.373,0.147-3.566,0.128c-0.122-0.002-0.117,0.175,0,0.186c1.179,0.117,2.486,0.213,3.673,0.022
		c0.27,0.868,0.51,1.748,0.683,2.65c-1.147-0.102-2.331-0.039-3.479-0.115c-0.173-0.011-0.169,0.251,0,0.267
		c1.146,0.111,2.387,0.285,3.549,0.199c0.156,0.882,0.282,1.773,0.34,2.68c-1.16-0.115-2.379-0.003-3.542,0.012
		c-0.201,0.003-0.202,0.31,0,0.313c1.168,0.015,2.393,0.129,3.558,0.011c0.035,0.686,0.046,1.376,0.022,2.071
		C46.258,26,46.242,26.117,46.236,26.236z"/>
	<path style="fill:#1D1D1B;" d="M15.1,15.855c-3.069,0.023-5.068,3.224-4.854,6.045c0.045,0.597,0.843,0.719,1.042,0.141
		c0.048-0.14,0.097-0.281,0.145-0.421c0.002-0.007-0.003-0.014-0.003-0.021c0.578-1.809,1.298-4.022,3.521-4.177
		c2.91-0.202,3.636,2.573,4.518,4.684c0.262,0.626,1.331,0.638,1.295-0.175C20.633,18.989,18.233,15.832,15.1,15.855z"/>
	<path style="fill:#1D1D1B;" d="M33.789,15.636c-3.01-0.359-6.106,2.509-6.613,5.393c-0.058,0.331,0.05,0.565,0.31,0.763
		c0.06,0.046,0.12,0.091,0.181,0.137c0.062,0.047,0.15,0.03,0.213,0c0.609-0.29,0.661-0.787,0.995-1.344
		c0.635-1.059,1.762-2.47,2.884-2.981c1.422-0.647,3.056-0.342,4.016,0.936c0.613,0.816,0.591,1.784,0.996,2.679
		c0.184,0.406,0.823,0.364,1.02,0C39.136,18.729,36.107,15.913,33.789,15.636z"/>
	<path style="fill:#1D1D1B;" d="M33.76,44.662c-6.238-0.772-12.959-0.286-19.09-1.66c-0.152-0.034-0.216,0.194-0.064,0.234
		c2.73,0.728,5.778,0.653,8.588,0.894c3.517,0.301,7.04,0.689,10.567,0.827C33.955,44.965,33.943,44.685,33.76,44.662z"/>
	<path style="fill:#1D1D1B;" d="M31.491,45.949c-3.264-0.092-6.527,0.07-9.796-0.073c-0.155-0.007-0.152,0.228,0,0.239
		c3.228,0.227,6.567,0.465,9.796,0.157C31.695,46.253,31.702,45.955,31.491,45.949z"/>
</g>
<g>
</g>
<g>
</g>
<g>
</g>
<g>
</g>
<g>
</g>
<g>
</g>
<g>
</g>
<g>
</g>
<g>
</g>
<g>
</g>
<g>
</g>
<g>
</g>
<g>
</g>
<g>
</g>
<g>
</g>
</svg>
