<?xml version="1.0" encoding="iso-8859-1"?>
<!-- Generator: Adobe Illustrator 18.0.0, SVG Export Plug-In . SVG Version: 6.00 Build 0)  -->
<!DOCTYPE svg PUBLIC "-//W3C//DTD SVG 1.1//EN" "http://www.w3.org/Graphics/SVG/1.1/DTD/svg11.dtd">
<svg version="1.1" id="Capa_1" xmlns="http://www.w3.org/2000/svg" xmlns:xlink="http://www.w3.org/1999/xlink" x="0px" y="0px"
	 viewBox="0 0 47.396 47.396" style="enable-background:new 0 0 47.396 47.396;" xml:space="preserve">
<g>
	<path style="fill:#1D1D1B;" d="M28.074,27.897c0.221-0.182,0.269-0.586-0.033-0.767c-1.914-1.151-4.017-2.004-5.991-3.054
		c-1.848-0.983-3.733-2.463-5.768-2.989c-0.015-0.071-0.043-0.129-0.084-0.173c0.058-0.065,0.079-0.154,0.015-0.239
		c-0.022-0.03-0.045-0.059-0.067-0.089c-0.065-0.086-0.185-0.169-0.3-0.122c-0.042,0.017-0.084,0.034-0.126,0.051
		c-0.191,0.077-0.305,0.275-0.192,0.472c0.019,0.033,0.05,0.063,0.071,0.096c-0.006,0.023-0.017,0.042-0.019,0.068
		c-0.382,4.357-0.356,8.793-0.375,13.166c-0.001,0.308,0.224,0.463,0.46,0.474c-0.102,0.24,0.213,0.556,0.482,0.402
		c3.945-2.276,7.896-4.506,12.097-6.282C28.716,28.711,28.496,27.98,28.074,27.897z M17.343,27.55
		c3.221,0.227,6.44,0.48,9.658,0.735c-0.864,0.372-1.725,0.747-2.57,1.152c0.017-0.047,0.036-0.093,0.044-0.153
		c0.018-0.139-0.208-0.196-0.265-0.072c-0.249,0.533-2.781,0.171-3.294,0.155c-0.959-0.031-1.919-0.061-2.878-0.089
		c-0.159-0.005-0.158,0.239,0,0.246c1.679,0.081,3.358,0.154,5.036,0.236c0.2,0.01,0.43,0.04,0.645,0.042
		c-0.75,0.372-1.502,0.741-2.234,1.145c-1.389-0.052-2.76-0.038-4.146-0.219c-0.117-0.015-0.145,0.188-0.028,0.207
		c1.188,0.194,2.424,0.35,3.639,0.314c-1.645,0.934-3.239,1.956-4.763,3.106c0.001-0.014,0.008-0.023,0.009-0.038
		c0.13-4.117,0.292-8.289,0.124-12.41c1.227,1.098,3.208,1.92,4.428,2.618c0.841,0.482,1.698,0.969,2.565,1.441
		c-1.643-0.41-3.441-0.422-5.1-0.301c-0.15,0.011-0.153,0.242,0,0.236c1.908-0.084,3.691,0.225,5.571,0.479
		c0.072,0.01,0.121-0.028,0.152-0.075c1.134,0.595,2.293,1.141,3.485,1.558c-3.36-0.168-6.719-0.339-10.077-0.536
		C17.2,27.32,17.202,27.54,17.343,27.55z"/>
	<path style="fill:#1D1D1B;" d="M42.095,27.349c-0.618-3.682-4.415-5.633-7.439-7.227c-4.055-2.136-8.061-4.064-11.921-6.519
		c2.992-1.081,6.414-2.585,8.324-5.208c1.012-1.391,1.708-4.015,0.261-5.211c0.029-0.078,0.037-0.167-0.004-0.27
		c-1.587-4.015-5.81-3.2-9.057-1.583C18.536,3.182,14.933,5.378,11.4,7.566C9.568,8.701,7.747,9.51,7.071,11.414
		C6.996,11.41,6.921,11.443,6.9,11.54c-1.482,6.795-1.279,14.106-1.358,21.033c-0.049,4.301-1.298,10.686,2.299,13.937
		c0.223,0.201,0.485,0.184,0.685,0.063c4.193,2.932,11.504-2.755,15.12-4.687c4.334-2.316,8.615-4.773,12.652-7.581
		c2.492-1.734,4.871-3.358,5.785-6.352c0.032-0.105,0.015-0.201-0.023-0.286C42.095,27.574,42.115,27.471,42.095,27.349z
		 M28.068,38.142c-2.802-0.335-5.636-0.472-8.457-0.416c-0.136,0.003-0.136,0.207,0,0.211c2.62,0.075,5.212,0.273,7.811,0.566
		c-0.102,0.057-0.209,0.116-0.308,0.173c-0.659,0.375-1.514,0.906-2.496,1.513c-0.034-0.027-0.065-0.058-0.117-0.064
		c-3.491-0.388-6.993-0.676-10.498-0.908c0.007-0.017,0.019-0.029,0.024-0.047c2.912-1.098,5.668-2.722,8.382-4.312
		c3.232,0.372,6.468,0.722,9.705,1.044C30.717,36.705,29.329,37.446,28.068,38.142z M13.593,17.517
		c2.826,0.328,6.856,3.586,9.079,4.876c2.955,1.715,5.785,3.577,8.555,5.575c-0.696,1.521-4.237,2.881-5.646,3.667
		c-1.634,0.913-3.271,1.821-4.903,2.738c-2.243,1.26-4.558,2.474-6.635,4.005C13.871,31.444,14.056,24.428,13.593,17.517z
		 M40.749,28.527c-2.756-0.337-5.598-0.341-8.368-0.466c-0.189-0.008-0.185,0.277,0,0.292c2.682,0.215,5.418,0.55,8.116,0.579
		c-1.147,1.797-2.88,3.348-4.825,4.719c-2.597-0.567-5.369-0.699-8.013-0.7c-0.146,0-0.144,0.217,0,0.225
		c2.549,0.141,5.048,0.5,7.575,0.785c-0.914,0.623-1.864,1.211-2.817,1.766c0.007-0.115-0.059-0.243-0.207-0.257
		c-3.139-0.302-6.282-0.576-9.425-0.832c0.731-0.428,1.46-0.853,2.188-1.26c2.045-1.146,7.133-2.585,7.187-5.35
		c0.001-0.045-0.01-0.081-0.018-0.119c0.204-0.243,0.266-0.605-0.022-0.835c-3.487-2.773-7.339-4.976-11.244-7.101
		c-2.001-1.089-4.98-3.635-7.458-3.055c-0.175-0.121-0.441-0.112-0.478,0.149c-0.001,0.006-0.001,0.011-0.002,0.017
		c-0.134,0.086-0.156,0.279-0.042,0.364c-0.931,7.049-0.574,14.487,0.011,21.544c0.005,0.059,0.024,0.108,0.041,0.157
		c-0.986-0.062-1.971-0.123-2.957-0.177c-0.134-0.007-0.132,0.197,0,0.207c1.08,0.086,2.157,0.196,3.235,0.292
		c0.14,0.07,0.302,0.082,0.447,0.04c3.457,0.314,6.911,0.661,10.363,1.035c-0.889,0.547-1.86,1.138-2.884,1.727
		c-4.252-0.483-8.641-0.514-12.911-0.455c-0.1,0.001-0.099,0.15,0,0.155c4.085,0.207,8.194,0.534,12.284,0.656
		c-1.097,0.617-2.233,1.22-3.373,1.746c-3.026-0.202-6.057-0.352-9.088-0.478c-0.121-0.005-0.118,0.177,0,0.186
		c2.786,0.232,5.577,0.439,8.368,0.609c-0.575,0.249-1.144,0.467-1.706,0.664c-1.579-0.06-3.153-0.082-4.734-0.272
		c-0.099-0.012-0.124,0.161-0.024,0.176c1.225,0.182,2.493,0.346,3.757,0.415c-1.919,0.553-3.686,0.695-5.036,0.073
		c-0.015-0.017-0.02-0.036-0.037-0.053c-3.65-3.524-1.96-13.373-1.843-17.897c0.129-4.973,0.682-10.016,0.501-14.994
		c0.137,0.028,0.274-0.111,0.237-0.252c-0.013-0.052-0.027-0.104-0.04-0.156c-0.022-0.084-0.134-0.113-0.194-0.051
		C10.46,9.102,25.917-2.283,30.232,2.902c-0.063,0.065-0.095,0.149-0.107,0.236c-1.553-0.29-3.194-0.306-4.741-0.252
		c-0.194,0.007-0.195,0.303,0,0.302c1.651-0.005,3.243,0.231,4.86,0.435c0.221,0.63,0.391,1.208,0.386,1.811
		c-2.52-0.421-5.151-0.478-7.691-0.549c-0.188-0.005-0.187,0.282,0,0.292c2.562,0.13,5.106,0.49,7.66,0.66
		c-0.035,0.242-0.094,0.49-0.198,0.751c-0.461,1.162-1.452,2.011-2.427,2.743c-0.21,0.157-0.434,0.299-0.65,0.45
		c-2.954-0.304-5.97-0.325-8.935-0.44c-0.182-0.007-0.179,0.269,0,0.281c2.792,0.192,5.621,0.467,8.426,0.511
		c-0.661,0.439-1.335,0.863-2.027,1.263c-3.299-0.043-6.6,0.019-9.899,0.041c-0.215,0.001-0.215,0.333,0,0.334
		c3.054,0.02,6.111,0.067,9.165,0.041c-0.679,0.38-1.361,0.753-2.037,1.117c-0.069,0.037-0.114,0.09-0.149,0.148
		c-0.287-0.056-0.526,0.346-0.296,0.588c0.177,0.185,0.378,0.354,0.568,0.529c-2.066-0.075-4.144-0.138-6.203-0.088
		c-0.171,0.004-0.168,0.251,0,0.264c2.202,0.166,4.432,0.205,6.645,0.236c1.119,0.942,2.425,1.749,3.818,2.495
		c-2.428-0.256-4.887-0.381-7.316-0.539c-0.157-0.01-0.153,0.227,0,0.243c2.704,0.279,5.439,0.608,8.159,0.739
		c1.142,0.58,2.325,1.132,3.504,1.689c-2.655-0.153-5.344-0.099-7.99-0.077c-0.174,0.001-0.174,0.269,0,0.271
		c2.984,0.037,5.976,0.248,8.96,0.27c3.24,1.558,6.328,3.247,8.191,5.866c-2.414-0.315-4.937-0.301-7.357-0.292
		c-0.177,0.001-0.176,0.267,0,0.274c2.544,0.108,5.105,0.401,7.648,0.444c0.328,0.515,0.626,1.053,0.854,1.644
		c0.022,0.057,0.055,0.099,0.086,0.143C41.025,28.032,40.89,28.281,40.749,28.527z"/>
	<path style="fill:#1D1D1B;" d="M38.325,30.889c-2.641-0.316-5.395-0.172-8.047-0.044c-0.144,0.007-0.146,0.227,0,0.225
		c2.685-0.044,5.367,0.163,8.047,0.135C38.534,31.203,38.522,30.912,38.325,30.889z"/>
	<path style="fill:#1D1D1B;" d="M36.754,22.614c-3.106-0.382-6.32-0.337-9.448-0.44c-0.173-0.006-0.17,0.256,0,0.267
		c3.122,0.208,6.319,0.573,9.448,0.499C36.97,22.936,36.957,22.639,36.754,22.614z"/>
	<path style="fill:#1D1D1B;" d="M29.225,7.467c-4.036-0.533-8.172-0.651-12.235-0.902c-0.144-0.009-0.14,0.208,0,0.221
		c4.055,0.4,8.162,0.944,12.235,1.06C29.477,7.854,29.46,7.498,29.225,7.467z"/>
</g>
<g>
</g>
<g>
</g>
<g>
</g>
<g>
</g>
<g>
</g>
<g>
</g>
<g>
</g>
<g>
</g>
<g>
</g>
<g>
</g>
<g>
</g>
<g>
</g>
<g>
</g>
<g>
</g>
<g>
</g>
</svg>
