<?xml version="1.0" encoding="iso-8859-1"?>
<!-- Generator: Adobe Illustrator 18.0.0, SVG Export Plug-In . SVG Version: 6.00 Build 0)  -->
<!DOCTYPE svg PUBLIC "-//W3C//DTD SVG 1.1//EN" "http://www.w3.org/Graphics/SVG/1.1/DTD/svg11.dtd">
<svg version="1.1" id="Capa_1" xmlns="http://www.w3.org/2000/svg" xmlns:xlink="http://www.w3.org/1999/xlink" x="0px" y="0px"
	 viewBox="0 0 48.829 48.829" style="enable-background:new 0 0 48.829 48.829;" xml:space="preserve">
<g>
	<path style="fill:#1D1D1B;" d="M45.413,23.585c-1.473-1.142-3.219-1.842-4.968-2.437c-0.949-0.323-2.636-0.527-3.41-1.219
		c-1.065-3.304-0.406-4.877,1.979-4.717c1.659,0.064,2.771,0.907,3.334,2.527c0.032,0.091,0.095,0.156,0.169,0.204
		c-0.05,0.26,0.093,0.549,0.431,0.533c0.896-0.044,1.788-0.189,2.671-0.342c0.892-0.153,1.823-0.241,2.626-0.679
		c0.222-0.121,0.311-0.332,0.305-0.543c0.232-0.174,0.372-0.483,0.207-0.818c-3.491-7.091-14.482-7.444-18.743-0.686
		c-1.507,2.389-1.427,5.587,0.113,7.954c2.403,3.69,9.866,2.648,11.467,6.484c-1.552,1.892-3.395,2.711-5.53,2.452
		c-1.809,0.132-3.266-0.513-4.371-1.937c-2.142-1.757-2.701-3.375-3.569-5.909c-0.915-2.672-1.986-5.273-3.69-7.555
		c-2.563-3.432-6.137-5.81-10.315-5.946c-0.06-0.068-0.138-0.126-0.258-0.155C3.769,8.395-1.181,19.759,0.239,28.059
		c1.702,9.946,13.72,13.054,21.214,6.982c0.271,0.013,0.553-0.274,0.474-0.569c-0.2-0.752-0.633-1.46-0.931-2.181
		c-0.303-0.735-0.577-1.483-0.839-2.233c-0.004-0.011-0.011-0.017-0.016-0.028c0.003-0.01,0.007-0.018,0.01-0.028
		c0.045-0.169-0.166-0.303-0.296-0.186c-0.164-0.007-0.329,0.108-0.357,0.299c-1.473,1.2-4.705,2.168-6.419,2.093
		c-3.875-0.169-4.594-2.832-5.255-5.665c-0.972-4.164,0.046-10.137,5.027-11.23c7.739,0.156,7.013,10.775,9.829,15.884
		c2.181,3.958,5.749,6.347,10.192,6.994c5.609,0.817,16.743-1.247,15.665-8.55C49.349,27.494,46.9,24.738,45.413,23.585z
		 M47.481,30.951c-1.237-0.132-2.577,0.01-3.809,0.043c-0.14,0.004-0.141,0.214,0,0.218c1.207,0.032,2.515,0.166,3.729,0.049
		c-0.447,1.903-1.674,3.295-3.337,4.247c-0.015-0.006-0.023-0.019-0.042-0.02c-4.292-0.323-8.64-0.235-12.943-0.287
		c-0.098-0.001-0.097,0.147,0,0.151c4.156,0.174,8.346,0.473,12.508,0.41c-3.512,1.764-8.587,1.814-12.109,0.901
		c-6.577-1.704-8.466-7.357-9.954-13.18c-1.105-4.326-3.412-9.457-8.432-8.875c-2.832-0.509-4.543,1.877-5.685,4.215
		c-1.624,3.326-1.11,6.644-0.033,10.079c0.907,2.891,2.576,4.517,5.706,4.492c0.84-0.007,1.89-0.119,2.926-0.368
		c0.009,0.003,0.014,0.01,0.025,0.009c1.275-0.062,2.627-0.006,3.884-0.227c0.128-0.023,0.09-0.212-0.03-0.218
		c-0.981-0.047-1.999,0.078-2.996,0.183c1.113-0.37,2.134-0.924,2.749-1.743c0.245,1.243,0.653,2.584,1.361,3.589
		c-6.863,2.286-15.742,4.283-18.944-4.525c-2.944-8.099,1.349-19.494,11.266-18.339c6.961,0.875,11.165,5.886,13.469,12.342
		c0.961,2.692,1.615,5.739,3.95,7.633c2.815,2.285,12.605,3.744,11.99-1.917c-0.002-0.015-0.009-0.026-0.012-0.041
		c-0.283-3.603-4.896-3.903-7.962-4.856c-6.334-1.968-5.768-9.055-0.34-11.748c4.111-2.04,8.855-1.599,11.825,1.602
		c-3.652-0.753-7.425-1.258-11.132-1.508c-0.103-0.007-0.129,0.168-0.025,0.183c3.858,0.568,7.701,1.183,11.551,1.797
		c0.27,0.333,0.529,0.683,0.761,1.068c-0.084,0.012-0.166,0.04-0.249,0.056c-0.001-0.066-0.03-0.133-0.102-0.153
		c-0.964-0.266-2.031-0.297-3.024-0.292c-0.177,0.001-0.177,0.271,0,0.274c0.9,0.018,1.767,0.159,2.651,0.277
		c-0.407,0.107-0.811,0.228-1.213,0.34c-0.775,0.216-1.556,0.419-2.323,0.666c-0.496-3.325-5.215-4.188-7.446-2.046
		c-0.952-0.101-1.911-0.176-2.861-0.239c-0.181-0.012-0.173,0.257,0,0.278c0.852,0.104,1.713,0.201,2.574,0.28
		c-0.226,0.275-0.427,0.579-0.571,0.934c-0.081,0.2-0.136,0.395-0.175,0.586c-0.787-0.002-1.582,0.043-2.355,0.062
		c-0.161,0.004-0.161,0.246,0,0.25c0.756,0.019,1.534,0.062,2.304,0.062c-0.081,1.042,0.411,1.945,1.167,2.654
		c-0.865-0.065-1.737-0.061-2.598-0.013c-0.15,0.008-0.152,0.241,0,0.236c1.014-0.035,2.006,0.03,3.005,0.125
		c0.336,0.257,0.7,0.486,1.083,0.672c1.301,0.629,2.697,0.954,4.048,1.444c-1.644-0.25-3.336-0.311-4.986-0.329
		c-0.132-0.002-0.131,0.199,0,0.204c1.945,0.066,3.844,0.342,5.775,0.54c0.051,0.005,0.084-0.022,0.108-0.057
		c0.243,0.108,0.484,0.225,0.721,0.355c0.976,0.535,1.898,1.167,2.675,1.972c0.515,0.491,0.947,1.051,1.296,1.682
		c0.128,0.228,0.24,0.462,0.341,0.699c-0.012-0.006-0.016-0.017-0.032-0.02c-1.358-0.256-2.857-0.149-4.237-0.194
		c-0.18-0.006-0.177,0.266,0,0.278c1.364,0.087,2.835,0.34,4.196,0.217c0.069-0.006,0.115-0.059,0.135-0.118
		c0.081,0.2,0.159,0.401,0.227,0.606C47.637,29.455,47.611,30.237,47.481,30.951z"/>
	<path style="fill:#1D1D1B;" d="M20.225,33.877c-3.553,0.271-7.099,0.531-10.66,0.692c-0.094,0.004-0.096,0.147,0,0.148
		c3.559,0.014,7.128-0.161,10.66-0.608C20.369,34.09,20.377,33.865,20.225,33.877z"/>
	<path style="fill:#1D1D1B;" d="M45.769,33.593c-2.49-0.091-5.018,0.201-7.52,0.17c-0.164-0.002-0.162,0.245,0,0.253
		c2.449,0.125,5.135,0.29,7.553-0.178C45.945,33.81,45.905,33.598,45.769,33.593z"/>
	<path style="fill:#1D1D1B;" d="M45.11,25.19c-1.479-0.216-3.087-0.254-4.58-0.225c-0.085,0.002-0.112,0.142-0.021,0.155
		c1.475,0.217,3.072,0.39,4.561,0.363C45.231,25.481,45.283,25.215,45.11,25.19z"/>
</g>
<g>
</g>
<g>
</g>
<g>
</g>
<g>
</g>
<g>
</g>
<g>
</g>
<g>
</g>
<g>
</g>
<g>
</g>
<g>
</g>
<g>
</g>
<g>
</g>
<g>
</g>
<g>
</g>
<g>
</g>
</svg>
