<?xml version="1.0" encoding="iso-8859-1"?>
<!-- Generator: Adobe Illustrator 18.0.0, SVG Export Plug-In . SVG Version: 6.00 Build 0)  -->
<!DOCTYPE svg PUBLIC "-//W3C//DTD SVG 1.1//EN" "http://www.w3.org/Graphics/SVG/1.1/DTD/svg11.dtd">
<svg version="1.1" id="Capa_1" xmlns="http://www.w3.org/2000/svg" xmlns:xlink="http://www.w3.org/1999/xlink" x="0px" y="0px"
	 viewBox="0 0 49.356 49.356" style="enable-background:new 0 0 49.356 49.356;" xml:space="preserve">
<g>
	<path style="fill:#1D1D1B;" d="M20.381,43.501c-0.039-0.01-0.079-0.02-0.118-0.029c-0.111-0.78-0.27-1.55-0.437-2.229
		c-0.082-0.333-0.527-0.225-0.559,0.076c0,0.004-0.001,0.008-0.001,0.012c-0.051-0.064-0.119-0.117-0.22-0.136
		c-1.291-0.242-2.656-0.103-3.969-0.11c-1.301-0.007-2.609-0.067-3.91-0.022c0.026-0.074,0.048-0.152,0.046-0.245
		c-0.003-0.185,0-0.371-0.003-0.557c0.222-0.028,0.447-0.046,0.668-0.08c0.148-0.024,0.114-0.271-0.036-0.263
		c-0.212,0.012-0.422,0.025-0.633,0.038c-0.15-12.516,0.934-25.169,0.341-37.642c-0.012-0.264-0.324-0.397-0.524-0.307
		c-0.053-0.262-0.245-0.492-0.593-0.494C7.297,1.49,4.15,1.396,1.02,1.605C0.732,1.624,0.56,1.824,0.523,2.045
		c-0.082,0.053-0.145,0.14-0.15,0.271c-0.604,14.568-0.434,29.6,0.222,44.167c0.018,0.408,0.359,0.586,0.667,0.547
		c0.049,0.027,0.105,0.047,0.169,0.055c6.034,0.736,12.26,0.909,18.334,0.742c0.68-0.019,0.678-1.026,0-1.055
		c-5.982-0.256-12.017-0.498-18.007-0.497C2.103,31.883,1.96,17.053,1.078,2.681C2.302,3.026,3.861,2.813,5.1,2.816
		c1.778,0.004,3.556-0.017,5.333-0.028c0.159-0.001,0.278-0.059,0.376-0.136c-0.096,0.687-0.18,1.377-0.256,2.069
		C7.771,4.133,4.676,4.13,1.901,4.606C1.782,4.627,1.81,4.822,1.93,4.817c2.933-0.124,5.68,0.146,8.578,0.347
		c-0.055,0.523-0.11,1.047-0.159,1.572c-1.78-0.18-3.551-0.167-5.332,0.058c-0.214,0.027-0.22,0.365,0,0.341
		c1.771-0.19,3.53-0.174,5.293,0.043c-0.057,0.631-0.118,1.26-0.167,1.892C9.06,8.983,7.955,9.019,6.871,9.005
		C6.263,8.996,5.187,8.735,4.656,9.089C4.611,9.119,4.57,9.172,4.575,9.23l0.012,0.131C4.593,9.429,4.631,9.492,4.701,9.51
		C4.736,9.52,4.771,9.529,4.807,9.538c0.189,0.049,0.25-0.215,0.079-0.285c0.728,0.298,1.901,0.141,2.688,0.171
		c0.841,0.031,1.694,0.094,2.538,0.075c-0.052,0.706-0.118,1.408-0.16,2.116c-2.713-0.259-5.53-0.066-8.254-0.07
		c-0.159,0-0.158,0.242,0,0.246c2.715,0.076,5.519,0.349,8.232,0.172c-0.057,1.016-0.105,2.035-0.144,3.055
		c-1.97-0.21-4.009-0.116-5.989-0.151c-0.186-0.003-0.185,0.281,0,0.288c1.974,0.078,4.002,0.289,5.977,0.192
		c-0.023,0.65-0.053,1.299-0.07,1.951c-1.442-0.031-2.891,0.028-4.334,0.047c-0.17,0.002-0.17,0.261,0,0.264
		c1.44,0.02,2.886,0.078,4.326,0.047c-0.022,0.896-0.049,1.791-0.06,2.688c-1.489-0.042-2.928-0.064-4.424-0.282
		c-0.167-0.024-0.246,0.219-0.072,0.261c1.424,0.344,3.01,0.533,4.493,0.402c-0.007,0.71-0.013,1.42-0.015,2.13
		c-2.274-0.116-4.612-0.174-6.872-0.048c-0.128,0.007-0.125,0.184,0,0.197c2.254,0.231,4.594,0.281,6.873,0.27
		c-0.001,0.813,0,1.627,0.005,2.44c-1.39-0.218-2.861-0.191-4.258-0.27c-0.162-0.009-0.158,0.236,0,0.25
		c1.396,0.12,2.853,0.361,4.26,0.337c0.005,0.711,0.009,1.422,0.017,2.133c-1.226-0.088-2.472-0.021-3.699-0.002
		c-0.608,0.01-1.251-0.041-1.854,0.03c-0.222,0.026-1.087,0.371-0.611,0.015c0.071-0.053,0.006-0.173-0.071-0.122
		c-0.134,0.052-0.268,0.103-0.402,0.155c-0.11,0.017-0.075,0.179,0.025,0.185c2.152,0.14,4.457,0.233,6.617,0.052
		c0.012,0.996,0.025,1.991,0.04,2.984c-1.378-0.095-2.823,0.041-4.173,0.254c-0.12,0.019-0.093,0.225,0.029,0.214
		c1.394-0.128,2.759-0.112,4.149-0.12c0.009,0.536,0.016,1.074,0.025,1.609c-2.082-0.002-4.201,0.135-6.273,0.205
		c-0.155,0.005-0.152,0.227,0,0.239c2.022,0.158,4.222,0.195,6.279-0.054c0.02,1.186,0.04,2.37,0.058,3.548
		c-1.239,0.08-2.461,0.166-3.712,0.108c-0.148-0.007-0.146,0.218,0,0.229c1.223,0.083,2.487,0.118,3.717-0.014
		c0.012,0.786,0.025,1.576,0.034,2.357c-1.365,0.079-2.726,0.143-4.104,0.128c-0.157-0.002-0.155,0.235,0,0.243
		c1.354,0.068,2.739,0.077,4.108-0.012c0.001,0.141,0.004,0.283,0.006,0.424c0.003,0.331,0.198,0.538,0.44,0.623
		c0.001,0.131,0.061,0.26,0.227,0.306c2.493,0.695,6.057,1.061,8.547,0.282c0.074-0.023,0.124-0.077,0.173-0.131
		c-0.045,0.519-0.069,1.065-0.075,1.614c-1.888-0.473-4.738,0.012-6.485-0.042c-2.553-0.08-5.102-0.23-7.646-0.453
		c-0.1-0.009-0.098,0.145,0,0.155c4.698,0.491,9.405,0.784,14.128,0.766c0.012,0.817,0.084,1.625,0.274,2.344
		c0.149,0.562,0.88,0.378,0.943-0.128c0.084-0.683,0.05-1.447-0.037-2.213h0.002C20.569,43.936,20.631,43.563,20.381,43.501z"/>
	<path style="fill:#1D1D1B;" d="M49.103,23.162c-0.028-6.732,0.849-14.114-0.505-20.716c-0.025-0.12-0.211-0.119-0.242-0.004
		c-0.076-0.047-0.161-0.086-0.263-0.098c-1.325-0.166-2.747,0.055-4.085,0.081c-1.363,0.026-2.722,0.035-4.083,0.098
		c-0.02,0.001-0.03,0.018-0.049,0.021c-0.162-0.082-0.37-0.062-0.401,0.162c-0.651,4.716,0.06,9.434-0.077,14.178
		c-1.564-4.56-3.181-9.101-4.918-13.598c0.212-0.378,0.03-0.967-0.547-1.014c-2.041-0.167-4.106-0.169-6.153-0.197
		c-1.497-0.02-2.974-0.137-4.373,0.394c-0.021-0.049-0.035-0.098-0.057-0.147c-0.043-0.094-0.17-0.036-0.177,0.048
		c-0.005,0.065-0.007,0.131-0.012,0.196c-0.102,0.057-0.104,0.218-0.018,0.292c-1.085,14.458-0.423,29.277-0.354,43.79
		c0.001,0.138,0.043,0.246,0.1,0.34c0.03,0.185,0.17,0.36,0.388,0.364c2.825,0.043,5.667,0.011,8.491-0.068
		c0.678-0.019,0.753-0.893,0.24-1.132c0.242-6.283,0.421-12.952-0.129-19.297c2.15,5.341,6.191,18.752,6.729,20.365
		c0.174,0.521,0.772,0.542,1.081,0.265c2.336,0.195,4.669,0.216,7.016,0.161c1.288-0.03,2.501-0.183,2.541-1.678
		c0.002-0.078-0.015-0.146-0.041-0.207C49.535,38.259,49.135,30.674,49.103,23.162z M24.14,46.431
		c0.026-5.959,0.013-11.919-0.001-17.878c0.021,0.046,0.056,0.084,0.121,0.085c2.104,0.034,4.186,0.259,6.28,0.38
		c-0.032,0.694-0.068,1.386-0.086,2.084c-1.302-0.037-2.62,0.033-3.92,0.057c-0.174,0.003-0.174,0.267,0,0.271
		c1.297,0.024,2.612,0.094,3.912,0.057c-0.014,0.633-0.024,1.268-0.028,1.904c-1.131-0.097-2.287,0.004-3.404,0.167
		c-0.161,0.024-0.125,0.306,0.039,0.287c1.13-0.134,2.238-0.116,3.367-0.096c-0.002,0.756-0.003,1.513,0.007,2.27
		c-1.415,0.075-2.831,0.251-4.243,0.373c-0.178,0.015-0.181,0.295,0,0.281c1.414-0.105,2.84-0.155,4.25-0.307
		c0.015,0.992,0.033,1.984,0.063,2.973c-1.902-0.1-3.824,0.016-5.715,0.192c-0.158,0.015-0.162,0.261,0,0.25
		c1.913-0.133,3.813-0.104,5.726-0.095c0.018,0.544,0.028,1.091,0.049,1.632c-1.446-0.035-2.936,0.146-4.371,0.221
		c-0.144,0.007-0.146,0.229,0,0.225c1.44-0.038,2.942,0.021,4.385-0.126c0.026,0.631,0.052,1.261,0.082,1.887
		c-1.362-0.08-2.763,0.022-4.118,0.039c-0.19,0.002-0.19,0.293,0,0.295c1.361,0.017,2.769,0.12,4.137,0.038
		c0.035,0.725,0.07,1.45,0.108,2.166C28.563,45.998,26.333,46.12,24.14,46.431z M43.452,46.439
		c-1.227,0.044-2.433,0.158-3.646,0.303c-2.082-6.738-4.28-13.495-6.813-20.077c-0.21-0.546-0.709-2.15-1.428-2.578
		c-0.099-0.331-0.497-0.346-0.624-0.044c-0.138,0.061-0.281,0.165-0.43,0.335c-0.114,0.129-0.005,0.333,0.169,0.291
		c0.042-0.01,0.096,0.028,0.155,0.087c-0.04,0.391-0.069,0.787-0.101,1.182c-1.327-0.156-2.713-0.103-4.026-0.031
		c-0.184,0.01-0.187,0.291,0,0.288c1.341-0.022,2.659,0.117,3.987,0.194c-0.054,0.73-0.101,1.463-0.139,2.199
		c-2.075-0.268-4.219-0.266-6.297-0.249c-0.066,0-0.101,0.039-0.122,0.085c-0.006-2.457-0.012-4.913-0.015-7.37
		c-0.004-3.938,0.01-7.876-0.012-11.813c-0.012-2.161,0.19-4.183-0.471-6.169c1.321,0.464,2.73,0.391,4.142,0.425
		c2.015,0.047,4.041,0.145,6.056,0.105c0.116,0.478,0.253,0.951,0.381,1.426c-1.891-0.512-4.006-0.589-5.935-0.649
		c-0.166-0.005-0.164,0.247,0,0.257c2.037,0.116,4.016,0.546,6.032,0.756c0.073,0.264,0.136,0.53,0.212,0.794
		c-2.347-0.301-4.736-0.373-7.094-0.22c-0.185,0.012-0.184,0.304,0,0.288c0.151,0.035,0.301,0.07,0.452,0.106
		c0.087,0.054,0.151-0.055,0.101-0.125c0.173,0.086,0.372,0.1,0.602,0.024c0.647,0.097,1.365,0.02,2.022,0.051
		c1.36,0.064,2.708,0.207,4.06,0.353c0.227,0.769,0.461,1.536,0.708,2.3c-2.168-0.255-4.399-0.261-6.571-0.382
		c-0.195-0.011-0.192,0.287,0,0.302c2.215,0.172,4.478,0.479,6.706,0.498c0.26,0.793,0.527,1.585,0.803,2.373
		c-2.807-0.428-5.73-0.632-8.558-0.66c-0.125-0.001-0.118,0.176,0,0.19c2.885,0.338,5.807,0.665,8.705,0.885
		c0.173,0.491,0.344,0.984,0.521,1.474c-2.111-0.212-4.327-0.174-6.427-0.161c-0.188,0.001-0.183,0.273,0,0.288
		c2.148,0.174,4.419,0.389,6.59,0.319c0.29,0.797,0.58,1.595,0.874,2.389c-2.145-0.44-4.418-0.505-6.589-0.335
		c-0.158,0.012-0.162,0.255,0,0.25c2.296-0.074,4.468,0.147,6.735,0.483c0.342,0.924,0.683,1.848,1.019,2.77
		c0.004,0.012,0.014,0.019,0.018,0.03c-0.015,0.125-0.018,0.251-0.035,0.376c-0.086,0.651,0.866,0.669,1.067,0.144
		c1.99-5.202,0.372-11.467-0.123-16.884c1.511,0.349,3.273,0.61,4.969,0.596c-0.653,0.029-1.303,0.065-1.934,0.076
		c-0.258,0.004-0.258,0.397,0,0.401c1.559,0.026,3.236,0.226,4.781,0.012c0.05-0.007,0.086-0.035,0.112-0.071
		c-0.132,0.862-0.241,1.733-0.315,2.615c-1.394-0.142-2.863,0.011-4.231,0.18c-0.229,0.028-0.237,0.388,0,0.366
		c1.404-0.134,2.802-0.066,4.201-0.118c-0.067,0.903-0.116,1.812-0.14,2.728c-0.939,0.174-1.851,0.367-2.833,0.374
		c-0.229,0.002-0.229,0.35,0,0.355c0.894,0.02,1.903-0.011,2.814-0.234c-0.016,0.812-0.018,1.627-0.01,2.443
		c-0.964-0.007-1.943,0.145-2.86,0.387c-0.196,0.052-0.113,0.341,0.083,0.302c0.943-0.189,1.852-0.24,2.783-0.248
		c0.011,0.863,0.029,1.727,0.053,2.587c-0.992,0.044-1.992,0.212-2.935,0.428c-0.177,0.041-0.101,0.306,0.075,0.271
		c0.971-0.192,1.916-0.245,2.872-0.277c0.03,1.026,0.063,2.049,0.091,3.062c-0.735,0.077-1.473,0.194-2.196,0.276
		c-0.458,0.052-0.995-0.001-1.175,0.501c-0.017,0.048,0.001,0.117,0.04,0.151c0.028,0.024,0.056,0.048,0.083,0.072
		c0.146,0.126,0.354-0.076,0.214-0.214c0.007,0.007,1.005-0.169,1.181-0.184c0.401-0.033,0.801-0.067,1.202-0.1
		c0.221-0.018,0.442-0.034,0.664-0.051c0.025,0.951,0.045,1.895,0.05,2.823c-1.238-0.006-2.501,0.144-3.731,0.219
		c-0.206,0.013-0.209,0.331,0,0.323c1.232-0.044,2.502-0.019,3.736-0.141c0.001,0.858-0.006,1.721-0.009,2.582
		c-0.296-0.006-0.594,0.005-0.886-0.003c-0.596-0.015-1.192-0.046-1.787-0.087c-0.166-0.011-0.162,0.241,0,0.257
		c0.834,0.082,1.79,0.237,2.671,0.201c-0.004,1.098-0.006,2.194-0.011,3.293c-0.946,0.058-1.879,0.132-2.837,0.072
		c-0.22-0.014-0.217,0.324,0,0.341c0.929,0.073,1.9,0.104,2.836-0.027c-0.004,0.921-0.007,1.837-0.009,2.759
		c-1.641,0.04-3.293,0.21-4.925,0.313c-0.184,0.012-0.187,0.296,0,0.288c1.632-0.068,3.29-0.071,4.925-0.202
		c-0.002,1.088-0.012,2.175-0.004,3.263c-2.165,0.094-4.34,0.343-6.493,0.528c-0.171,0.015-0.175,0.281,0,0.271
		c2.156-0.13,4.343-0.199,6.497-0.42c0.007,0.86,0.011,1.72,0.029,2.579c-1.551,0.17-3.097,0.459-4.638,0.695
		c-0.139,0.021-0.108,0.267,0.034,0.249c1.534-0.203,3.086-0.362,4.611-0.629c0.015,0.701,0.02,1.403,0.045,2.102
		c-1.333,0.311-2.582,0.587-3.958,0.672c-0.146,0.009-0.148,0.222,0,0.229c1.303,0.061,2.75-0.115,3.971-0.604
		c0.029,0.757,0.06,1.514,0.102,2.27c-2.261,0.154-4.531,0.583-6.747,1.021c-0.127,0.025-0.072,0.215,0.053,0.193
		c2.229-0.383,4.474-0.602,6.711-0.917c0.025,0.434,0.044,0.869,0.074,1.302c0.003,0.042,0.02,0.073,0.029,0.11
		C47.092,46.764,44.5,46.401,43.452,46.439z M48.073,4.13c-0.017-0.077-0.058-0.146-0.142-0.158
		c-0.743-0.103-1.516-0.108-2.292-0.085c0.887-0.041,1.748-0.157,2.531-0.395C48.132,3.703,48.107,3.918,48.073,4.13z"/>
	<path style="fill:#1D1D1B;" d="M18.665,44.937c-5.065-0.145-10.153,0.018-15.222-0.036c-0.188-0.002-0.188,0.286,0,0.292
		c5.048,0.155,10.179,0.332,15.222,0.011C18.836,45.194,18.839,44.942,18.665,44.937z"/>
	<path style="fill:#1D1D1B;" d="M38.471,18.546c-1.902-0.307-3.896-0.359-5.818-0.473c-0.168-0.01-0.16,0.238,0,0.257
		c1.9,0.22,3.861,0.518,5.774,0.545C38.61,18.877,38.661,18.577,38.471,18.546z"/>
</g>
<g>
</g>
<g>
</g>
<g>
</g>
<g>
</g>
<g>
</g>
<g>
</g>
<g>
</g>
<g>
</g>
<g>
</g>
<g>
</g>
<g>
</g>
<g>
</g>
<g>
</g>
<g>
</g>
<g>
</g>
</svg>
