<?xml version="1.0" encoding="iso-8859-1"?>
<!-- Generator: Adobe Illustrator 18.0.0, SVG Export Plug-In . SVG Version: 6.00 Build 0)  -->
<!DOCTYPE svg PUBLIC "-//W3C//DTD SVG 1.1//EN" "http://www.w3.org/Graphics/SVG/1.1/DTD/svg11.dtd">
<svg version="1.1" id="Capa_1" xmlns="http://www.w3.org/2000/svg" xmlns:xlink="http://www.w3.org/1999/xlink" x="0px" y="0px"
	 viewBox="0 0 50.04 50.04" style="enable-background:new 0 0 50.04 50.04;" xml:space="preserve">
<g>
	<path style="fill:#1D1D1B;" d="M22.536,10.497c-0.951-2.084-3.363-3.456-5.611-3.164c-0.095-0.076-0.213-0.123-0.363-0.107
		c-3.339,0.365-5.386,3.579-4.738,6.819c0.795,3.977,4.189,5.606,7.868,3.952C22.434,16.765,23.793,13.252,22.536,10.497z
		 M17.183,12.532c1.484-0.184,2.913-0.153,4.378,0.024c0.005,0.469-0.059,0.941-0.196,1.394c-1.39-0.027-2.782,0.005-4.172,0.017
		c-0.079,0.001-0.079,0.122,0,0.122c1.375,0.011,2.753,0.043,4.128,0.017c-0.175,0.513-0.433,1-0.779,1.421
		c-1.395,0.099-2.786,0.165-4.192,0.131c-0.069-0.002-0.069,0.105,0,0.108c1.344,0.053,2.695,0.053,4.038-0.05
		c-0.032,0.035-0.056,0.075-0.089,0.109c-0.096,0.098-0.216,0.173-0.324,0.26c-1.628-0.047-3.263-0.003-4.891,0.012
		c-0.05,0.001-0.05,0.078,0,0.078c1.585,0.015,3.175,0.054,4.761,0.014c-0.773,0.572-1.764,0.899-2.703,0.928
		c-1.812,0.056-2.929-0.741-3.606-2.332c-1.159-2.724,0.146-5.574,2.987-6.313c1.352-0.045,2.667,0.234,3.709,1.153
		c-1.434-0.11-2.869-0.208-4.303-0.307c-0.063-0.004-0.062,0.092,0,0.097c1.487,0.125,2.974,0.253,4.462,0.365
		c0.071,0.069,0.145,0.132,0.214,0.209c0.211,0.235,0.372,0.495,0.512,0.765c-1.38-0.214-2.774-0.201-4.16-0.003
		c-0.065,0.009-0.05,0.125,0.016,0.116c1.43-0.183,2.816-0.133,4.232,0.065c0.21,0.464,0.334,0.96,0.357,1.467
		c-1.457-0.202-2.937-0.177-4.39,0.052C17.126,12.458,17.136,12.538,17.183,12.532z"/>
	<path style="fill:#1D1D1B;" d="M41.979,16.003c-0.239-1.672-1.194-3.361-2.483-4.442c-1.697-1.424-3.162-1.287-5.201-1.139
		c-0.123,0.009-0.225,0.064-0.307,0.139c-6.575,1.905-4.162,12.733,2.961,11.647C39.908,21.756,42.422,19.105,41.979,16.003z
		 M35.745,16.825c1.559,0.077,3.121,0.198,4.681,0.236c-0.074,0.596-0.268,1.164-0.575,1.668c-1.862,0.031-3.726,0.156-5.585,0.246
		c-0.063,0.003-0.064,0.101,0,0.099c1.829-0.058,3.666-0.084,5.493-0.196c-0.315,0.473-0.715,0.892-1.205,1.213
		c-1.505-0.114-3.009-0.039-4.507,0.136c-0.034,0.004-0.036,0.058,0,0.055c1.435-0.115,2.865-0.104,4.301-0.064
		c-0.569,0.33-1.23,0.547-1.963,0.601c-2.42,0.178-4.478-1.557-4.921-3.899c-0.493-2.607,1.36-4.423,3.541-5.403
		c0.674,0.04,1.339,0.039,2.016,0.286c0.77,0.28,1.411,0.744,1.948,1.318c-1.343-0.222-2.705-0.276-4.068-0.19
		c-0.066,0.004-0.067,0.107,0,0.103c1.433-0.074,2.827,0.044,4.232,0.28c0.346,0.405,0.656,0.847,0.894,1.346
		c0.039,0.082,0.065,0.165,0.098,0.247c-1.04-0.172-2.103-0.126-3.138,0.088c-0.061,0.013-0.035,0.105,0.026,0.094
		c1.082-0.203,2.116-0.175,3.178-0.015c0.226,0.623,0.305,1.249,0.251,1.849c-1.562-0.108-3.134-0.134-4.699-0.203
		C35.677,16.717,35.678,16.822,35.745,16.825z"/>
	<path style="fill:#1D1D1B;" d="M49.333,30.623c-1.046-1.587-3.544-3.124-5.303-2.033c-0.157-0.112-0.363-0.147-0.558-0.022
		c-6.484,4.157-13.385,6.516-21.127,4.654C15.854,31.662,11.56,27.657,7.291,22.86c-0.009-0.058-0.025-0.115-0.058-0.169
		c-1.257-2.044-4.816-1.397-6.175,0.161c-1.651,1.892-1.25,4.453,0.38,6.11c9.436,15.76,32.419,17.987,46.357,7.132
		c0.949-0.133,1.696-1.081,2.017-1.94C50.258,32.96,50.026,31.674,49.333,30.623z M48.662,33.405
		c-0.102,0.432-0.312,0.724-0.572,0.972c-1.929-0.185-3.875-0.268-5.808-0.395c-0.082-0.005-0.081,0.12,0,0.127
		c1.865,0.147,3.735,0.342,5.605,0.441c-0.241,0.193-0.504,0.371-0.776,0.576c-0.227,0.171-0.279,0.412-0.207,0.615
		c-0.274,0.179-0.557,0.342-0.836,0.513c-2.312-0.113-4.636-0.107-6.949-0.152c-0.069-0.001-0.069,0.105,0,0.108
		c2.213,0.078,4.434,0.204,6.65,0.228c-0.772,0.464-1.554,0.911-2.352,1.322c-0.001-0.037-0.025-0.073-0.075-0.072
		c-3.259,0.044-6.455,0.017-9.697-0.377c-0.071-0.009-0.089,0.117-0.017,0.126c3.171,0.43,6.414,0.661,9.611,0.413
		c-6.783,3.448-14.476,4.838-22.056,3.125C13.03,39.132,7.018,34.15,1.74,27.977c-0.281-0.472-0.529-0.955-0.612-1.538
		c-0.138-0.963,0.13-1.996,0.788-2.731c0.594-0.664,1.441-1.037,2.332-1.048c0.933-0.011,1.539,0.459,2.368,0.735
		c7.876,12.309,25.851,16.005,37.277,6.21c1.273-0.812,2.962,0.071,3.905,1.121c-1.27-0.156-2.55-0.251-3.822-0.37
		c-0.075-0.007-0.073,0.108,0,0.116c1.321,0.149,2.646,0.328,3.973,0.432c0.037,0.047,0.083,0.092,0.118,0.139
		c0.345,0.473,0.585,1.028,0.638,1.605c-1.563-0.266-3.159-0.394-4.731-0.58c-0.089-0.011-0.087,0.128,0,0.139
		c1.577,0.208,3.162,0.48,4.748,0.606C48.723,33.01,48.709,33.207,48.662,33.405z"/>
	<path style="fill:#1D1D1B;" d="M34.482,40.708c-5.287-0.549-10.578-1.125-15.876-1.552c-0.069-0.006-0.066,0.097,0,0.105
		c5.28,0.636,10.583,1.125,15.876,1.641C34.606,40.914,34.605,40.721,34.482,40.708z"/>
	<path style="fill:#1D1D1B;" d="M39.54,39.268c-4.733-0.099-9.42-0.285-14.124-0.842c-0.062-0.007-0.061,0.089,0,0.097
		c4.676,0.611,9.406,1.003,14.124,0.895C39.637,39.416,39.637,39.27,39.54,39.268z"/>
</g>
<g>
</g>
<g>
</g>
<g>
</g>
<g>
</g>
<g>
</g>
<g>
</g>
<g>
</g>
<g>
</g>
<g>
</g>
<g>
</g>
<g>
</g>
<g>
</g>
<g>
</g>
<g>
</g>
<g>
</g>
</svg>
