<?xml version="1.0" encoding="iso-8859-1"?>
<!-- Generator: Adobe Illustrator 18.0.0, SVG Export Plug-In . SVG Version: 6.00 Build 0)  -->
<!DOCTYPE svg PUBLIC "-//W3C//DTD SVG 1.1//EN" "http://www.w3.org/Graphics/SVG/1.1/DTD/svg11.dtd">
<svg version="1.1" id="Capa_1" xmlns="http://www.w3.org/2000/svg" xmlns:xlink="http://www.w3.org/1999/xlink" x="0px" y="0px"
	 viewBox="0 0 48.794 48.794" style="enable-background:new 0 0 48.794 48.794;" xml:space="preserve">
<g>
	<path style="fill:#1D1D1B;" d="M23.282,35.829c-0.666-2.495-2.637-4.044-5.045-4.945c-1.944-0.727-4.027-0.966-5.984-1.647
		c-3.155-1.098-4.688-3.219-5.017-6.108c0.028-0.049,0.024-0.103-0.017-0.145c-0.039-0.399-0.06-0.81-0.056-1.237
		c5.081,0.539,10.32,0.413,15.398-0.017c0.217-0.018,0.367-0.13,0.464-0.275c0.308,0.038,0.647-0.137,0.655-0.542
		c0.101-5.418-0.752-12.687-6.715-14.716C11.523,4.345,5.306,7.204,2.295,11.865c-3.416,5.288-2.899,12.392,0.756,17.406
		c1.839,2.522,4.336,4.441,7.167,5.726c4.704,2.135,10.508,2.222,12.5,7.976c0.118,0.342,0.576,0.197,0.529-0.146
		c-0.009-0.066-0.029-0.123-0.04-0.188c0.22,0.015,0.468-0.132,0.472-0.394c0.017-1.005-0.003-2.007,0.048-3.012
		c0.05-0.999,0.239-2.002,0.232-2.999C23.956,35.846,23.562,35.696,23.282,35.829z M22.685,40.821
		c-0.915-2.135-2.732-3.569-5.019-4.628c-5.353-2.477-10.936-3.286-14.248-8.85c-3.698-6.212-2.455-14.802,4.006-18.688
		c2.999-1.804,7.041-2.436,10.122-0.881c-2.412-0.261-4.851-0.342-7.267-0.23c-0.162,0.008-0.164,0.252,0,0.253
		c2.75,0.023,5.448,0.204,8.168,0.522c0.618,0.434,1.189,0.963,1.678,1.621c-1.474-0.437-3.144-0.401-4.643-0.182
		c-0.153,0.023-0.119,0.287,0.037,0.273c1.617-0.149,3.084,0.058,4.68,0.28c0.067,0.009,0.116-0.018,0.154-0.055
		c0.041,0.061,0.088,0.114,0.128,0.177c0.345,0.547,0.621,1.135,0.857,1.745c-0.947-0.084-1.997,0.081-2.88,0.204
		c-0.14,0.02-0.108,0.262,0.034,0.249c0.583-0.055,1.165-0.089,1.751-0.091c0.41-0.002,0.834,0.043,1.25,0.045
		c0.23,0.662,0.411,1.349,0.548,2.052c-0.767-0.032-1.573,0.055-2.315,0.075c-0.179,0.005-0.179,0.273,0,0.278
		c0.766,0.021,1.598,0.109,2.387,0.068c0.127,0.744,0.218,1.499,0.277,2.252c-4.436-0.036-8.91,0.335-13.329,0.67
		c-0.111,0.008-0.114,0.18,0,0.176c4.448-0.177,8.918-0.173,13.36-0.435c0.03,0.449,0.053,0.897,0.068,1.338
		c-6.524,0.408-13.013,0.549-19.547,0.29c-0.146-0.006-0.143,0.215,0,0.225c6.514,0.472,13.052,0.486,19.561-0.09
		c0.009,0.345,0.017,0.69,0.022,1.025c-5.121,0.441-10.259,0.084-15.373,0.464c-0.091-0.547-0.979-0.497-1.038,0.123
		c-0.053,0.558-0.076,1.092-0.08,1.612c-0.791-0.12-1.592-0.153-2.399-0.118c-0.169,0.007-0.171,0.267,0,0.264
		c0.808-0.014,1.603,0.058,2.396,0.172c0.01,0.702,0.07,1.371,0.206,2.002c-0.808-0.052-1.621-0.072-2.427-0.118
		c-0.118-0.007-0.117,0.175,0,0.183c0.825,0.057,1.654,0.143,2.482,0.191c0.183,0.727,0.467,1.404,0.888,2.028
		c-0.716-0.063-1.434-0.106-2.145-0.167c-0.157-0.013-0.152,0.225,0,0.243c0.803,0.09,1.612,0.205,2.422,0.286
		c0.376,0.476,0.821,0.927,1.39,1.337c-0.689-0.038-1.378-0.069-2.064-0.11c-0.173-0.01-0.17,0.253,0,0.267
		c0.882,0.072,1.767,0.163,2.654,0.233c0.027,0.017,0.051,0.034,0.079,0.051c1.544,0.918,3.376,1.377,5.195,1.837
		c-1.072-0.066-2.142-0.128-3.216-0.22c-0.13-0.011-0.153,0.193-0.03,0.224c1.277,0.328,2.759,0.46,4.065,0.3
		c0.05-0.006,0.079-0.035,0.099-0.068c1.209,0.317,2.389,0.668,3.449,1.194c-1.122-0.032-2.255,0.028-3.373,0.045
		c-0.131,0.002-0.131,0.202,0,0.204c1.288,0.02,2.596,0.097,3.885,0.022c0.706,0.407,1.348,0.906,1.893,1.548
		c-1,0.114-1.93,0.176-2.947-0.039c-0.147-0.031-0.211,0.191-0.063,0.227c1.027,0.249,2.162,0.342,3.196,0.064
		c0.329,0.426,0.627,0.898,0.869,1.452c-0.869,0.142-1.718,0.237-2.635,0.199c-0.101-0.004-0.128,0.165-0.024,0.18
		c0.899,0.123,1.897,0.139,2.824-0.04c0.043,0.083,0.099,0.145,0.167,0.18C22.577,38.034,22.562,39.472,22.685,40.821z"/>
	<path style="fill:#1D1D1B;" d="M19.786,16.261c-2.084-7.02-12.884-7.734-14.018,0.223c-0.022,0.157,0.027,0.287,0.109,0.387
		c0.003,0.112,0.075,0.223,0.214,0.227c4.158,0.12,8.501,0.059,12.665-0.071C19.243,17.295,19.989,16.946,19.786,16.261z
		 M6.742,16.479c1.603-6.007,8.914-5.567,11.348-0.59C14.462,15.42,10.278,15.603,6.742,16.479z"/>
	<path style="fill:#1D1D1B;" d="M46.91,12.226c-2.72-4.708-7.998-7.304-13.361-5.885c-6.476,1.713-8.979,8.263-8.316,14.404
		c-0.091,0.306,0.085,0.71,0.506,0.761c5.521,0.668,11.463,0.922,17.013,0.205c-1.835,5.617-6.489,7.731-11.479,10.073
		c-1.299,0.61-4.993,1.951-5.698,3.792c-0.237,0.033-0.459,0.212-0.466,0.5c-0.044,1.92,0.313,3.873,0.413,5.802
		c-0.015,0.022-0.034,0.041-0.049,0.063c-0.42,0.619,0.551,1.143,0.983,0.575c4.832-6.355,13.635-7.247,18.68-13.365
		C49.098,24.346,50.074,17.704,46.91,12.226z M26.361,40.781c0.043-0.775,0.068-1.561,0.048-2.341
		c0.809-0.043,1.619-0.055,2.43-0.041C27.947,39.109,27.109,39.886,26.361,40.781z M43.479,24.741
		c0.91,0.126,1.918,0.238,2.853,0.141c-0.162,0.357-0.338,0.708-0.533,1.051c-0.227,0.4-0.47,0.779-0.725,1.143
		c-1.089-0.06-2.217,0.114-3.312,0.083c-0.123-0.004-0.12,0.18,0,0.19c0.971,0.077,2.081,0.189,3.077,0.033
		c-0.682,0.917-1.443,1.733-2.274,2.46c-1.084,0.001-2.163,0.096-3.252,0.038c-0.22-0.012-0.218,0.326,0,0.341
		c0.895,0.062,1.842,0.12,2.757,0.036c-0.657,0.537-1.343,1.035-2.056,1.5c-1.75,0.016-3.505,0.149-5.251,0.233
		c-0.191,0.009-0.193,0.305,0,0.299c1.545-0.049,3.101-0.057,4.647-0.142c-0.919,0.57-1.868,1.102-2.829,1.62
		c-1.589-0.096-3.202,0.006-4.797-0.085c-0.165-0.01-0.159,0.236,0,0.253c1.33,0.147,2.77,0.281,4.141,0.184
		c-2.351,1.251-4.73,2.47-6.813,4.072c-0.906-0.074-1.811-0.054-2.715,0.023c-0.021-0.537-0.059-1.072-0.144-1.592
		c0.032-0.055,0.057-0.116,0.061-0.188c0.083-1.432,5.086-3.256,6.139-3.746c2.171-1.011,4.373-1.939,6.329-3.345
		c2.567-1.845,4.679-4.317,4.839-7.579c0.004-0.075-0.013-0.137-0.039-0.192c0.299-0.141,0.166-0.635-0.177-0.666
		c-5.728-0.512-11.641-0.464-17.398-0.504c0.391-7.822,5.067-15.796,14.153-12.535c0.404,0.145,0.785,0.315,1.154,0.499
		c-1.705-0.205-3.453-0.198-5.153-0.117c-0.142,0.007-0.143,0.223,0,0.221c2.045-0.029,4.028,0.198,6.053,0.399
		c0.565,0.354,1.087,0.752,1.562,1.19c-1.14-0.187-2.339-0.12-3.463,0.064c-0.176,0.029-0.137,0.335,0.042,0.314
		c1.307-0.153,2.546-0.058,3.844,0.033c0.56,0.578,1.054,1.21,1.474,1.889c-1-0.082-2.001-0.098-3.005-0.252
		c-0.19-0.029-0.277,0.252-0.081,0.295c1.049,0.23,2.239,0.426,3.338,0.355c0.414,0.736,0.75,1.517,1.006,2.329
		c-0.891-0.083-1.783-0.097-2.675-0.246c-0.198-0.033-0.286,0.267-0.084,0.305c0.92,0.175,1.931,0.357,2.882,0.31
		c0.155,0.55,0.284,1.109,0.367,1.679c-3.868-0.219-7.858,0.341-11.635,1.125c-0.148,0.031-0.083,0.249,0.062,0.224
		c3.892-0.666,7.698-0.803,11.618-0.985c0.174,1.472,0.11,2.985-0.194,4.46c-0.728-0.062-1.462-0.087-2.189-0.123
		c-0.248-0.012-0.244,0.365,0,0.383c0.693,0.052,1.393,0.116,2.091,0.147c-0.177,0.746-0.409,1.481-0.71,2.193
		c-0.972-0.081-1.978-0.021-2.953-0.066C43.372,24.482,43.335,24.721,43.479,24.741z"/>
	<path style="fill:#1D1D1B;" d="M43.62,16.092c-0.447-3.746-3.595-6.592-7.454-6.241c-2.886,0.262-6.953,3.378-5.852,6.675
		c-0.029-0.008-0.054-0.027-0.091-0.03c-0.33-0.03-0.5,0.435-0.269,0.649c1.057,0.978,3.988,0.367,5.317,0.336
		c2.581-0.061,5.234-0.013,7.786-0.4c0.316-0.048,0.431-0.29,0.409-0.538C43.578,16.433,43.643,16.281,43.62,16.092z M36.226,16.125
		c-0.955,0.04-1.908,0.085-2.863,0.137c-0.637,0.027-1.273,0.064-1.909,0.111c-0.134-0.041-0.253-0.066-0.361-0.08
		c1.148-2.313,1.569-4.544,4.779-5.043c3.283-0.51,5.678,1.634,6.357,4.674C40.238,15.859,38.212,16.041,36.226,16.125z"/>
	<path style="fill:#1D1D1B;" d="M47.009,19.222c-6.521-0.25-13.062-0.15-19.588-0.34c-0.164-0.005-0.162,0.245,0,0.253
		c6.504,0.329,13.076,0.698,19.588,0.466C47.253,19.593,47.254,19.232,47.009,19.222z"/>
	<path style="fill:#1D1D1B;" d="M32.638,35.39c-1.641,0.298-3.205,0.354-4.843,0.001c-0.121-0.026-0.173,0.157-0.051,0.186
		c1.634,0.402,3.324,0.48,4.963,0.063C32.872,35.599,32.801,35.361,32.638,35.39z"/>
</g>
<g>
</g>
<g>
</g>
<g>
</g>
<g>
</g>
<g>
</g>
<g>
</g>
<g>
</g>
<g>
</g>
<g>
</g>
<g>
</g>
<g>
</g>
<g>
</g>
<g>
</g>
<g>
</g>
<g>
</g>
</svg>
