<?xml version="1.0" encoding="iso-8859-1"?>
<!-- Generator: Adobe Illustrator 18.0.0, SVG Export Plug-In . SVG Version: 6.00 Build 0)  -->
<!DOCTYPE svg PUBLIC "-//W3C//DTD SVG 1.1//EN" "http://www.w3.org/Graphics/SVG/1.1/DTD/svg11.dtd">
<svg version="1.1" id="Capa_1" xmlns="http://www.w3.org/2000/svg" xmlns:xlink="http://www.w3.org/1999/xlink" x="0px" y="0px"
	 viewBox="0 0 48.687 48.687" style="enable-background:new 0 0 48.687 48.687;" xml:space="preserve">
<g>
	<path style="fill:#1D1D1B;" d="M13.651,10.794c-0.028-0.133-0.134-0.253-0.315-0.276c-2.805-0.359-5.512,2.113-5.865,4.835
		c-0.388,2.995,2.092,5.93,5.099,6.106c2.902,0.171,5.631-2.34,5.725-5.246C18.383,13.557,16.224,11.148,13.651,10.794z
		 M16.58,17.388c-1.835-0.011-3.792,0.321-5.605,0.6c-0.162,0.025-0.124,0.295,0.039,0.287c1.761-0.091,3.657-0.172,5.397-0.518
		c-0.819,1.57-2.65,2.628-4.437,2.16c-2.046-0.537-3.524-2.796-2.957-4.874c0.462-1.694,1.786-2.658,3.254-3.358
		c0.09,0.099,0.218,0.172,0.389,0.192c1.612,0.184,3.131,1.109,3.805,2.509c-2.166-0.099-4.355-0.042-6.518-0.048
		c-0.134,0-0.133,0.201,0,0.207c2.217,0.1,4.458,0.269,6.681,0.265c0.107,0.318,0.188,0.649,0.203,1.005
		c-1.953-0.24-4.044-0.036-6.009-0.026c-0.181,0.001-0.181,0.278,0,0.281c1.966,0.035,4.056,0.267,6.013,0.052
		c-0.003,0.088,0.012,0.169,0.003,0.258C16.801,16.729,16.709,17.066,16.58,17.388z"/>
	<path style="fill:#1D1D1B;" d="M48.599,27.817c-0.074-0.185-0.193-0.272-0.387-0.295c-0.033-0.004-0.057,0.005-0.086,0.008
		c0.037-0.186-0.012-0.389-0.2-0.498c-7.598-4.402-18.976-5.349-27.569-4.433C13.618,23.317,6.335,25.767,1.99,31.22
		c-0.734,0.713-1.465,1.391-1.796,2.472c-0.364,1.188-0.247,2.55,0.617,3.502c1.591,1.753,4.988,1.128,5.655-1.138
		c6.091-3.818,11.355-7.84,18.837-8.518c6.97-0.632,13.758,0.64,20.588,1.819c0.107,0.018,0.196-0.004,0.273-0.044
		c0.434,0.425,0.983,0.632,1.62,0.368C48.469,29.398,48.877,28.51,48.599,27.817z M47.707,28.519
		c-0.215,0.469-0.885,0.674-1.319,0.404c-0.009-0.142-0.097-0.278-0.284-0.338c-6.009-1.927-12.783-2.808-19.314-2.185
		c-2.699-0.677-5.49-0.888-8.275-0.771c-0.178,0.007-0.18,0.278,0,0.278c2.306-0.009,4.546,0.248,6.777,0.664
		c-1.229,0.163-2.448,0.374-3.647,0.651c0.002-0.07-0.028-0.139-0.111-0.151c-2.153-0.303-4.346-0.376-6.514-0.525
		c-0.182-0.012-0.178,0.264,0,0.281c1.998,0.197,4.008,0.458,6.016,0.541c-1.421,0.354-2.817,0.781-4.17,1.309
		c-0.025-0.024-0.055-0.045-0.098-0.048c-1.974-0.148-3.968-0.113-5.947-0.155c-0.175-0.004-0.174,0.264,0,0.271
		c1.808,0.068,3.625,0.194,5.436,0.191c-1.066,0.442-2.113,0.927-3.122,1.486c-1.35-0.103-2.711-0.106-4.064-0.141
		c-0.123-0.003-0.121,0.183,0,0.19c1.217,0.067,2.44,0.152,3.661,0.175c-0.872,0.502-1.729,1.033-2.547,1.63
		c-1.304,0.073-2.601,0.123-3.911,0.092c-0.115-0.003-0.111,0.166,0,0.176c1.157,0.104,2.326,0.12,3.484,0.027
		c-0.671,0.509-1.321,1.051-1.949,1.627c-0.978,0.031-1.954,0.064-2.934,0.081c-0.108,0.002-0.142,0.18-0.027,0.197
		c0.823,0.121,1.71,0.145,2.572,0.079c-0.307,0.294-0.609,0.594-0.905,0.905c-0.109-0.206-0.443-0.269-0.615-0.097
		C5.143,36.126,4.674,37,3.482,37.105c-1.706,0.151-2.647-1.39-2.306-2.919c0.258-1.156,1.159-1.928,1.782-2.875
		c6.322-4.869,12.784-7.591,20.995-7.743c7.852-0.145,16.34,1.328,23.611,4.321c0.094,0.038,0.177,0.033,0.253,0.011
		C47.77,28.123,47.768,28.386,47.707,28.519z"/>
	<path style="fill:#1D1D1B;" d="M47.421,28.113c-7.359-2.379-14.878-3.512-22.607-3.434c-0.109,0.001-0.109,0.165,0,0.169
		c7.677,0.266,15.138,1.473,22.511,3.615C47.55,28.527,47.642,28.184,47.421,28.113z"/>
</g>
<g>
</g>
<g>
</g>
<g>
</g>
<g>
</g>
<g>
</g>
<g>
</g>
<g>
</g>
<g>
</g>
<g>
</g>
<g>
</g>
<g>
</g>
<g>
</g>
<g>
</g>
<g>
</g>
<g>
</g>
</svg>
