<?xml version="1.0" encoding="iso-8859-1"?>
<!-- Generator: Adobe Illustrator 18.0.0, SVG Export Plug-In . SVG Version: 6.00 Build 0)  -->
<!DOCTYPE svg PUBLIC "-//W3C//DTD SVG 1.1//EN" "http://www.w3.org/Graphics/SVG/1.1/DTD/svg11.dtd">
<svg version="1.1" id="Capa_1" xmlns="http://www.w3.org/2000/svg" xmlns:xlink="http://www.w3.org/1999/xlink" x="0px" y="0px"
	 viewBox="0 0 50.434 50.434" style="enable-background:new 0 0 50.434 50.434;" xml:space="preserve">
<g>
	<path style="fill:#1D1D1B;" d="M21.08,34.294c-2.178,0.372-4.576,0.048-6.665,0.908c-0.282,0.116-0.796,0.369-1.2,0.687
		c-1.365,0.828-1.316,2.854-0.629,4.136c0.933,1.743,3.007,3.275,4.996,3.821c-6.315,1.773-11.994-3.733-10.133-10.252
		c2.117-7.415,10.951-4.997,13.589,0.448c0.116,0.239,0.471,0.067,0.414-0.175c-1.672-7.073-11.804-8.319-14.676-1.359
		c-3.087,7.482,4.079,15.128,11.591,11.943c0.215-0.091,0.237-0.322,0.151-0.505c0.041-0.059,0.04-0.144-0.038-0.204
		c-2.048-1.56-6.364-3.544-5.299-6.452c0.05-0.042,0.076-0.108,0.073-0.173c0.083-0.192,0.192-0.388,0.325-0.588
		c0.602-0.462,1.853-0.814,2.145-0.883c0.904-0.212,1.837-0.225,2.76-0.221c1.043,0.004,2.063,0.068,2.872-0.658
		C21.588,34.563,21.335,34.251,21.08,34.294z"/>
	<path style="fill:#1D1D1B;" d="M44.583,10.863c0.063-0.071,0.104-0.159,0.073-0.274c-0.043-0.155-0.116-0.291-0.172-0.439
		c-0.009-0.058-0.015-0.118-0.025-0.176c-0.008-0.051-0.041-0.074-0.078-0.086c-2.212-5.005-11.942-5.087-15.07-0.847
		c-0.635,0.432-0.841,1.121-0.795,1.923c-0.696-0.039-1.411,0.012-2.106,0.025c-0.133,0.003-0.134,0.205,0,0.207
		c0.703,0.013,1.426,0.067,2.13,0.025c0.055,0.463,0.18,0.956,0.356,1.458c-0.762-0.086-1.556-0.078-2.31-0.123
		c-0.12-0.007-0.118,0.177,0,0.186c0.785,0.064,1.607,0.193,2.403,0.204c0.191,0.501,0.422,1.005,0.667,1.488
		c-0.731-0.021-1.49,0.051-2.197,0.059c-0.124,0.001-0.125,0.192,0,0.193c0.758,0.008,1.575,0.088,2.353,0.05
		c0.526,0.997,1.081,1.879,1.403,2.418c0.147,0.246,0.306,0.513,0.473,0.791c-0.776-0.044-1.587,0.073-2.33,0.224
		c-0.111,0.023-0.063,0.189,0.047,0.17c0.828-0.146,1.619-0.13,2.44-0.138c0.432,0.708,0.921,1.472,1.475,2.194
		c-0.768-0.167-1.588-0.222-2.361-0.325c-0.115-0.015-0.143,0.185-0.028,0.204c0.854,0.141,1.742,0.36,2.608,0.396
		c1.439,1.786,3.258,3.174,5.425,2.369c0.099-0.037,0.145-0.137,0.15-0.234C43.723,20.646,45.133,15.623,44.583,10.863z
		 M43.242,16.843c-0.768,2.65-2.504,4.108-4.803,5.555c-0.078,0.049-0.122,0.123-0.139,0.204c-2.713-0.146-4.856-3.452-6.148-5.493
		c-0.942-1.488-3.851-5.975-2.321-7.697c0.059-0.067,0.081-0.142,0.079-0.215c3.729-3.535,11.544-2.76,14.157,1.641
		c0.019,0.032,0.051,0.037,0.075,0.059C44.037,12.878,43.784,14.974,43.242,16.843z"/>
	<path style="fill:#1D1D1B;" d="M39.066,13.485c-0.227-1.484-1.475-3.46-3.228-2.991c-0.078,0.021-0.124,0.07-0.164,0.12
		c-1.509-0.051-2.248,1.885-1.914,3.194c0.33,1.295,1.718,3.737,3.349,3.016C38.738,17.091,39.261,14.758,39.066,13.485z
		 M36.77,16.174c-0.125-0.016-0.189,0.05-0.224,0.134c-0.873-0.331-1.582-1.626-1.825-2.377c-0.395-1.221,0.002-2.303,1.274-2.729
		c0.009-0.003,0.013-0.012,0.021-0.016c1.427,0.077,2.317,0.79,2.458,2.299C38.584,14.649,38.313,16.377,36.77,16.174z"/>
	<path style="fill:#1D1D1B;" d="M38.667,37.299c-0.046-1.127-0.289-2.563-1.201-3.335c-0.673-0.571-1.573-0.645-2.25-0.105
		c-0.068-0.017-0.142-0.014-0.213,0.05c-1.867,1.688-1.037,4.583,0.962,5.633c0.265,0.577,0.984,0.752,1.589,0.493
		C38.579,39.597,38.706,38.258,38.667,37.299z M37.94,38.42c-0.113,0.505-0.493,0.993-0.932,1.062
		c-0.013-0.07-0.049-0.135-0.129-0.178c-1.983-1.076-2.37-3.003-1.561-4.95c0.039-0.008,0.079-0.007,0.116-0.038
		c1.551-1.312,2.39,1.488,2.517,2.46C38.021,37.313,38.06,37.886,37.94,38.42z"/>
	<path style="fill:#1D1D1B;" d="M42.5,26.098c7.925-4.257,9.968-15.353,3.517-21.935C39.8-2.18,29.354,0.039,25.651,7.8
		C21.973-1.311,9.573-2.567,3.276,4.701c-5.203,6.005-3.232,19.936,5.545,21.152C0.737,29.287-1.341,40.231,4.854,46.574
		c6.048,6.192,18.445,4.996,21.032-4.041c3.58,7.967,14.852,10.592,20.849,3.576C52.495,39.371,50.376,29.574,42.5,26.098z
		 M48.064,42.591c-1.06-0.241-2.217-0.202-3.289-0.109c-0.131,0.011-0.135,0.213,0,0.207c1.072-0.046,2.099,0.085,3.159,0.17
		c-0.244,0.448-0.514,0.889-0.829,1.315c-0.009-0.001-0.014-0.009-0.025-0.008c-1.55,0.157-3.001,0.465-4.577,0.389
		c-0.128-0.006-0.125,0.187,0,0.197c1.405,0.114,3.04,0.14,4.41-0.313c-0.387,0.492-0.807,0.972-1.297,1.425
		c-0.021-0.066-0.081-0.116-0.174-0.092c-0.545,0.141-1.066,0.295-1.631,0.348c-0.496,0.046-0.986-0.005-1.482,0.018
		c-0.106,0.005-0.129,0.154-0.025,0.187c0.896,0.277,2.058,0.146,2.967-0.175c-0.684,0.592-1.39,1.106-2.119,1.51
		c0.006-0.069-0.034-0.142-0.125-0.145c-2.622-0.076-5.248-0.028-7.871,0.019c-0.147,0.003-0.147,0.226,0,0.229
		c2.58,0.047,5.164,0.091,7.743,0.021c-5.96,3.119-13.045,0.266-16.548-5.72c1.885,0.065,3.771,0.12,5.656,0.141
		c0.032,0,0.051-0.016,0.072-0.029c0.667,1.05,1.452,2.09,2.358,2.927c-1.208-0.24-2.421-0.437-3.652-0.526
		c-0.08-0.006-0.1,0.13-0.019,0.142c1.409,0.204,2.805,0.452,4.181,0.823c1.008,0.795,2.157,1.317,3.477,1.291
		c0.139-0.003,0.225-0.099,0.273-0.211c2.748-0.906,4.318-3.711,5.026-6.424c1.702,0.291,3.508,0.4,5.205,0.043
		C48.735,41.039,48.453,41.828,48.064,42.591z M29.925,32.783c2.555-4.913,8.98-2.581,12.849-0.224
		c1.031,1.977,0.583,5.485,0.096,7.341c-0.743,2.83-2.305,4.733-4.852,6.16c-2.577-0.674-4.25-2.85-5.624-5.047
		C31.124,38.98,28.793,35.279,29.925,32.783z M43.767,40.034c0.025-0.1,0.058-0.202,0.08-0.302c0.575-2.545,1.041-6.287-1.268-8.103
		c-0.109-0.086-0.229-0.035-0.282,0.054c-3.307-2.106-8.256-3.584-11.227-1.376c-1.213,0.021-2.392,0.114-3.618-0.039
		c-0.117-0.015-0.145,0.188-0.028,0.207c1.025,0.171,2.146,0.307,3.213,0.213c-0.512,0.481-0.959,1.079-1.299,1.845
		c-0.211,0.182-0.366,0.397-0.477,0.635c-0.901-0.181-1.829-0.292-2.767-0.36c0.046-0.039,0.083-0.089,0.082-0.168
		c-0.02-1.845,1.888-3.294,3.252-4.285c1.076-0.783,2.458-1.219,3.441-2.087c0.236-0.209,0.052-0.646-0.261-0.63
		c-0.192,0.01-0.386,0.043-0.58,0.085c-0.769-1.003-1.811-1.835-2.669-2.76c-1.02-1.099-2.546-2.416-2.852-3.914
		c-0.074-0.364-0.629-0.296-0.666,0.048c-0.096-0.043-0.209-0.028-0.276,0.101c-0.059,0.114-0.126,0.219-0.187,0.33
		c-0.473-0.002-0.947,0.017-1.419,0.029c-0.138,0.003-0.138,0.211,0,0.215c0.421,0.011,0.843,0.026,1.265,0.029
		c-0.282,0.49-0.577,0.967-0.895,1.421c-0.666-0.031-1.368,0.061-1.984,0.206c-0.117,0.028-0.095,0.228,0.029,0.214
		c0.574-0.066,1.134-0.074,1.697-0.076c-0.193,0.259-0.372,0.532-0.581,0.773c-2.504-0.197-5.066-0.101-7.578-0.114
		c-0.096,0-0.095,0.143,0,0.148c2.423,0.109,4.888,0.316,7.317,0.267c-0.556,0.597-1.173,1.128-1.865,1.571
		c-0.011-0.003-0.015-0.013-0.028-0.013c-2.563-0.135-5.129-0.213-7.694-0.296c-0.08-0.003-0.078,0.118,0,0.123
		c2.424,0.166,4.849,0.335,7.276,0.458c-0.623,0.348-1.297,0.635-2.048,0.834c-0.093,0.025-0.145,0.08-0.172,0.145
		c-0.074-0.002-0.149-0.018-0.222-0.013c-0.204,0.015-0.302,0.242-0.164,0.396c0.493,0.552,1.221,0.806,1.847,1.195
		c0.816,0.509,1.572,1.102,2.255,1.78c1.185,1.178,1.783,2.658,2.767,3.922c-1.235-0.06-2.474-0.069-3.671-0.092
		c-0.148-0.003-0.146,0.222,0,0.229c2.412,0.115,4.834,0.497,7.243,0.585c-0.212,0.71-0.104,1.586,0.168,2.49
		c-2.061-0.209-4.3-0.073-6.362,0.06c-0.12,0.008-0.12,0.179,0,0.186c2.093,0.135,4.373,0.277,6.459,0.054
		c0.315,0.936,0.776,1.882,1.202,2.68c-2.886-0.175-5.817,0.019-8.713-0.079c-0.135-0.005-0.132,0.198,0,0.208
		c2.861,0.205,5.891,0.47,8.748,0.13c0.036-0.004,0.061-0.021,0.081-0.041c0.242,0.446,0.466,0.84,0.635,1.145
		c0.281,0.509,0.591,1.054,0.931,1.604c-4.158-0.213-8.326-0.293-12.489-0.357c-0.152-0.002-0.151,0.228,0,0.236
		c2.024,0.096,4.05,0.187,6.077,0.262c-0.485,0.693-1.015,1.353-1.576,1.981c-1.32-0.143-2.698,0.004-4.005,0.199
		c-0.107,0.016-0.083,0.203,0.026,0.19c1.257-0.149,2.486-0.121,3.741-0.117c-0.8,0.865-1.663,1.659-2.582,2.346
		c-2.071-0.161-4.157-0.207-6.23-0.302c-0.116-0.005-0.114,0.172,0,0.179c1.952,0.127,3.91,0.299,5.867,0.377
		c-0.883,0.627-1.805,1.17-2.76,1.586c-2.135-0.176-4.297-0.164-6.432-0.185c-0.193-0.002-0.192,0.291,0,0.299
		c1.888,0.081,3.796,0.2,5.694,0.183c-3.821,1.399-8.027,0.897-11.707-2.873c-6.564-6.723-2.922-16.039,4.595-19.882
		c0.046-0.024,0.078-0.056,0.104-0.092c0.122-0.002,0.24,0.005,0.364-0.001c0.292-0.015,0.393-0.479,0.073-0.539
		C1.314,23.639-1.675,10.784,4.965,4.403c4.923-4.73,11.108-4.085,15.846-0.727c-2.545-0.266-5.141-0.236-7.696-0.349
		c-0.109-0.005-0.108,0.163,0,0.169c2.612,0.141,5.253,0.44,7.869,0.409c0.041,0,0.066-0.019,0.082-0.043
		c0.839,0.619,1.636,1.313,2.363,2.089c-3.356-0.364-6.766-0.388-10.138-0.438c-0.154-0.002-0.153,0.234,0,0.239
		c2.236,0.073,4.472,0.217,6.708,0.33c-0.581,0.577-1.122,1.225-1.646,1.883c-1.332-0.052-2.687,0.029-4.013,0.042
		c-0.145,0.002-0.145,0.224,0,0.225c1.24,0.013,2.506,0.087,3.755,0.054c-0.224,0.282-0.447,0.562-0.671,0.833
		c-0.261,0.316-0.523,0.717-0.801,1.12c-0.321,0.069-0.641,0.138-0.973,0.166c-0.444,0.037-0.88-0.001-1.324-0.006
		c-0.101-0.001-0.122,0.15-0.024,0.176c0.621,0.162,1.373,0.17,2.058,0.034c-0.586,0.797-1.271,1.503-2.227,1.444
		c-0.024-0.002-0.039,0.013-0.059,0.02c-0.368-0.876-0.989-1.632-1.534-2.407c-0.622-0.883-1.226-1.782-1.875-2.646
		C10.051,6.204,9.3,5.383,8.299,5.457c0.105-0.163-0.008-0.446-0.227-0.43C5.125,5.244,5.213,9.27,5.027,11.478
		c-0.184,2.187-1.036,7.607,0.964,9.534c-0.025,0.013-0.049,0.024-0.074,0.037c-0.237,0.121-0.215,0.474,0,0.601
		c0.919,0.541,1.927-0.386,2.372-1.163c0.303-0.529,0.426-1.1,0.5-1.699c0.051-0.414,0.026-1.569,0.266-2.233
		c0.13,0.029,0.27,0.004,0.367-0.105c0.72-0.807,1.407,0.464,1.95,1.877c-0.468-0.001-0.937,0.007-1.405,0.014
		c-0.127,0.002-0.127,0.195,0,0.197c0.496,0.007,0.992,0.016,1.488,0.013c0.149,0.402,0.287,0.808,0.41,1.173
		c-0.389-0.067-0.782-0.124-1.165-0.189c-0.145-0.025-0.209,0.196-0.062,0.224c0.437,0.083,0.88,0.177,1.324,0.253
		c0.17,0.503,0.309,0.898,0.404,1.028c0.631,0.862,1.771,1.285,2.579,0.437c0.062-0.064,0.073-0.167,0.045-0.251
		c0.662-0.399,1.122-1.084,1.451-1.795c0.275-0.594,0.467-1.227,0.771-1.808c0.399-0.764,0.885-1.107,1.583-1.319
		c0.477,0.415,0.656,1.021,0.755,1.678c-0.507-0.04-1.034-0.009-1.538,0.01c-0.127,0.005-0.127,0.192,0,0.197
		c0.513,0.02,1.05,0.053,1.566,0.009c0.043,0.339,0.072,0.687,0.114,1.027c-0.502,0.001-1.005,0.015-1.505,0.022
		c-0.086,0.001-0.086,0.132,0,0.134c0.508,0.008,1.018,0.022,1.528,0.022c0.132,0.938,0.409,1.784,1.454,2.142
		c0.161,0.055,0.315-0.007,0.423-0.118c0.952-0.075,1.385-0.562,1.663-1.598c0.749-2.792,0.188-6.549-0.126-9.383
		c-0.185-1.666-1.217-4.692-2.677-4.29c0.004-0.008,0.01-0.016,0.014-0.024c0.005-0.009,0-0.017,0.003-0.026
		c1.045,0.05,2.09,0.093,3.135,0.113c0.022,0,0.034-0.012,0.05-0.019c0.619,0.686,1.192,1.421,1.702,2.201
		c-0.135,0.339,0.433,0.574,0.598,0.248c3.367-6.627,11.124-8.99,17.071-5.282c-3.083-0.058-6.192,0.158-9.272,0.26
		c-0.149,0.005-0.15,0.234,0,0.232c3.196-0.035,6.43,0.059,9.619-0.164c0.038-0.003,0.061-0.023,0.085-0.041
		c0.762,0.521,1.495,1.131,2.176,1.864c0.045,0.049,0.085,0.098,0.129,0.147c-2.137-0.013-4.277,0.016-6.412,0.063
		c-0.152,0.003-0.152,0.232,0,0.236c2.214,0.048,4.432,0.08,6.646,0.063c0.026,0,0.039-0.018,0.059-0.026
		c0.567,0.673,1.04,1.365,1.422,2.072c-1.02,0.017-2.014,0.064-3.05-0.072c-0.094-0.012-0.116,0.148-0.022,0.166
		c1.019,0.194,2.157,0.33,3.215,0.209c0.37,0.737,0.665,1.484,0.855,2.24c-0.012-0.004-0.017-0.014-0.031-0.015
		c-1.077-0.137-2.238-0.001-3.323,0.023c-0.154,0.003-0.154,0.236,0,0.239c1.085,0.024,2.247,0.16,3.323,0.023
		c0.038-0.005,0.064-0.023,0.087-0.043c0.172,0.752,0.269,1.509,0.277,2.265c-1.058,0.031-2.095,0.162-3.161,0.111
		c-0.171-0.008-0.166,0.248,0,0.264c1.023,0.095,2.139,0.167,3.163-0.024c-0.042,2.049-0.653,4.075-1.699,5.93
		c-1.16,0.27-2.17,0.429-3.365,0.188c-0.145-0.029-0.207,0.182-0.062,0.224c1.009,0.288,2.181,0.322,3.196-0.026
		c-0.474,0.785-1.017,1.541-1.636,2.247c-1.207-0.004-2.407,0.138-3.621,0.104c-0.191-0.005-0.183,0.273,0,0.292
		c1.047,0.107,2.211,0.169,3.277,0.001c-0.638,0.683-1.338,1.32-2.093,1.898c-1.498,0.015-3.026,0.213-4.509,0.324
		c-0.125,0.009-0.128,0.201,0,0.197c1.298-0.044,2.638-0.021,3.951-0.111c-0.337,0.237-0.68,0.465-1.034,0.678
		c-0.31,0.187-0.351,0.484-0.244,0.725c-2.099-0.155-4.25-0.161-6.345-0.121c-0.114,0.002-0.111,0.167,0,0.176
		c2.191,0.176,4.448,0.311,6.651,0.267c0.138,0.067,0.301,0.089,0.477,0.03c1.048,0.481,1.989,1.094,2.838,1.791
		c-2.775-0.288-5.601-0.283-8.389-0.402c-0.132-0.006-0.13,0.195,0,0.204c2.786,0.183,5.598,0.494,8.39,0.507
		c0.124,0,0.16-0.105,0.132-0.194c2.084,1.759,3.531,4.081,4.143,6.581c-0.02-0.017-0.042-0.033-0.076-0.038
		c-1.413-0.184-2.947-0.007-4.373,0.023c-0.133,0.003-0.134,0.205,0,0.207c1.425,0.03,2.96,0.206,4.373,0.023
		c0.064-0.008,0.096-0.048,0.109-0.092c0.195,0.835,0.298,1.688,0.303,2.543c-1.011,0.014-2.016,0.131-3.034,0.089
		c-0.151-0.006-0.147,0.22,0,0.232c0.982,0.081,2.049,0.157,3.04,0.006c-0.016,0.681-0.094,1.362-0.24,2.035
		C47.216,40.118,45.526,40.225,43.767,40.034z M25.624,31.288c-0.578-1.215-1.603-2.357-2.48-3.197
		c-0.841-0.806-2.109-1.943-3.38-2.422c2.83-0.769,5.524-2.917,6.149-5.883c0.236,1.179,0.983,2.115,1.77,3.059
		c0.913,1.096,1.936,2.417,3.123,3.32c-1.137,0.556-2.224,1.444-3.053,2.169C26.844,29.128,25.891,30.124,25.624,31.288z
		 M19.444,15.61c-1.17-0.524-2.311,0.472-2.883,1.443c-0.353,0.599-0.545,1.27-0.812,1.907c-0.203,0.484-0.446,0.975-0.825,1.349
		c-0.179,0.185-0.385,0.329-0.618,0.432c-0.062,0.023-0.106,0.04-0.146,0.056c-0.058-0.028-0.125-0.037-0.204,0.009
		c-0.017,0.01-0.034,0.02-0.051,0.03c-0.026,0.015-0.03,0.043-0.048,0.064c-0.684-0.407-0.95-1.393-1.145-2.181
		c-0.223-0.899-0.552-1.741-1.121-2.481c-0.655-0.851-2.042-1.498-2.7-0.456c-0.49,0.109-0.772,0.854-0.872,1.377
		c-0.143,0.74-0.116,1.513-0.325,2.24c-0.223,0.777-0.624,1.068-1.176,1.351c-1.245-1.707-0.701-5.561-0.648-7.441
		c0.063-2.227-0.213-6.142,1.899-7.524l0.001,0c1.538-0.161,2.677,2.415,3.435,3.511c0.753,1.089,1.433,2.406,2.446,3.265
		c0.155,0.132,0.421,0.075,0.503-0.088c1.261,0.562,2.187-0.398,2.939-1.366c0.558-0.718,1.075-1.456,1.562-2.223
		c0.141-0.222,0.292-0.441,0.445-0.66c0.053-0.021,0.082-0.065,0.078-0.114c0.163-0.231,0.327-0.461,0.489-0.693
		c2.534-1.658,2.735,5.752,2.769,6.59c0.037,0.876,0.581,6.494-1.136,6.4c-0.021-0.001-0.036,0.008-0.056,0.009
		c-0.97-1.242-0.591-3.267-1.838-4.278C19.613,16.059,19.665,15.709,19.444,15.61z"/>
	<path style="fill:#1D1D1B;" d="M47.923,32.822c-1.098-0.061-2.223,0.034-3.323,0.056c-0.102,0.002-0.102,0.156,0,0.158
		c1.1,0.022,2.226,0.117,3.323,0.056C48.097,33.083,48.097,32.831,47.923,32.822z"/>
	<path style="fill:#1D1D1B;" d="M45.999,30.396c-0.987-0.046-1.985,0.015-2.973,0.033c-0.102,0.002-0.102,0.156,0,0.158
		c0.988,0.018,1.986,0.079,2.973,0.033C46.143,30.614,46.144,30.403,45.999,30.396z"/>
	<path style="fill:#1D1D1B;" d="M48.105,16.269c-1.02-0.037-2.183,0.109-3.187,0.3c-0.133,0.025-0.096,0.224,0.031,0.228
		c1.024,0.033,2.194-0.008,3.2-0.203C48.338,16.557,48.284,16.276,48.105,16.269z"/>
	<path style="fill:#1D1D1B;" d="M30.48,16.421c-0.736-0.327-1.601-0.249-2.348,0.005c-0.094,0.032-0.055,0.179,0.041,0.149
		c0.781-0.243,1.461-0.164,2.248-0.016C30.499,16.574,30.564,16.458,30.48,16.421z"/>
</g>
<g>
</g>
<g>
</g>
<g>
</g>
<g>
</g>
<g>
</g>
<g>
</g>
<g>
</g>
<g>
</g>
<g>
</g>
<g>
</g>
<g>
</g>
<g>
</g>
<g>
</g>
<g>
</g>
<g>
</g>
</svg>
