<?xml version="1.0" encoding="iso-8859-1"?>
<!-- Generator: Adobe Illustrator 18.0.0, SVG Export Plug-In . SVG Version: 6.00 Build 0)  -->
<!DOCTYPE svg PUBLIC "-//W3C//DTD SVG 1.1//EN" "http://www.w3.org/Graphics/SVG/1.1/DTD/svg11.dtd">
<svg version="1.1" id="Capa_1" xmlns="http://www.w3.org/2000/svg" xmlns:xlink="http://www.w3.org/1999/xlink" x="0px" y="0px"
	 viewBox="0 0 50.079 50.079" style="enable-background:new 0 0 50.079 50.079;" xml:space="preserve">
<g>
	<path style="fill:#1D1D1B;" d="M49.316,31.533c-0.765-0.886-1.996-1.166-3.091-0.799c-0.287,0.096-0.402,0.319-0.396,0.541
		c-0.993,1.045-1.693,2.431-3.067,2.589c-1.842-1.188-2.523-2.648-2.038-4.381l0.427-2.384c0.19-1.06,0.382-2.119,0.569-3.179
		c0.412-2.331,1.088-4.83,0.93-7.214c-0.091-1.367-0.465-2.938-1.62-3.492c-0.033-0.105-0.101-0.204-0.218-0.277
		c-4.989-3.113-10.08,2.037-13.046,6.722c0.704-2.601,0.918-5.458-0.036-7.723c0.002-0.043,0.001-0.088-0.013-0.138
		c-1.563-5.68-8.7-4.991-12.464-2.027c-4.543,3.577-8.127,10.572-9.119,16.403c-0.459-1.259-1.329-2.404-2.624-2.794
		c-1.231-0.37-3.484,0.07-3.508,1.683c-0.002,0.148,0.06,0.247,0.143,0.324c-0.185,0.801,0.041,1.564,0.381,2.562
		c0.557,1.637,1.272,2.781,1.316,4.605c0.039,1.608-0.416,3.139-0.716,4.697c-0.41,2.133-0.024,5.7,3.037,4.773
		c0.117-0.035,0.196-0.1,0.251-0.175c2.809,0.129,4.032-3.295,5.1-5.806c2.932-6.89,5.501-12.594,10.137-18.193
		c-2.932,7.634-5.754,26.9,1.545,23.066c0.008-0.004,0.012-0.011,0.02-0.016c2.261-0.333,3.934-3.143,5.172-4.972
		c2.573-3.803,4.721-7.751,7.374-11.444c-2.11,5.428-2.207,12.704,2.375,16.366c5.42,4.332,12.723-0.271,13.582-6.397
		C50.461,33.702,49.922,32.235,49.316,31.533z M45.387,39.442c-0.018-0.027-0.044-0.049-0.086-0.051
		c-2.387-0.126-4.794-0.055-7.174,0.145c-0.079,0.007-0.081,0.128,0,0.125c2.354-0.104,4.694-0.096,7.048-0.044
		c-0.667,0.507-1.428,0.916-2.334,1.163c-3.979,1.088-7.331-1.526-8.397-5.197c-1.409-4.854,0.197-9.783,1.828-14.344
		c0.102-0.287-0.149-0.461-0.389-0.441c-0.199-0.166-0.497-0.211-0.762,0.024c-0.14,0.124-0.269,0.258-0.405,0.386
		c-1.039-0.061-2.08-0.1-3.118-0.148c-0.07-0.003-0.069,0.103,0,0.108c0.98,0.069,1.962,0.147,2.944,0.207
		c-0.413,0.401-0.812,0.813-1.189,1.243c-1.01-0.194-2.053-0.169-3.059,0.059c-0.104,0.024-0.059,0.177,0.044,0.159
		c0.975-0.171,1.901-0.161,2.852-0.026c-0.389,0.454-0.766,0.918-1.126,1.396c-1.081-0.076-2.166,0.001-3.24,0.157
		c-0.083,0.012-0.064,0.158,0.02,0.147c1.031-0.131,2.054-0.147,3.085-0.131c-0.369,0.497-0.727,1.003-1.072,1.519
		c-1.229-0.027-2.46-0.001-3.689,0.006c-0.111,0.001-0.111,0.172,0,0.173c1.186,0.007,2.373,0.029,3.558,0.007
		c-0.423,0.639-0.83,1.29-1.231,1.946c-0.005-0.001-0.003-0.008-0.008-0.008c-0.982-0.04-1.969-0.001-2.952,0.007
		c-0.09,0.001-0.09,0.138,0,0.139c0.955,0.008,1.916,0.042,2.871,0.008c-0.173,0.284-0.345,0.567-0.516,0.852
		c-0.147,0.246-0.311,0.536-0.482,0.843c-1.115,0.071-2.225,0.108-3.347,0.042c-0.079-0.005-0.078,0.116,0,0.122
		c1.08,0.083,2.166,0.108,3.245,0.02c-0.306,0.555-0.642,1.179-1.011,1.851c-1.308,0.141-2.603,0.207-3.921,0.119
		c-0.076-0.005-0.075,0.112,0,0.118c1.277,0.106,2.557,0.099,3.827-0.067c-0.368,0.666-0.763,1.365-1.183,2.062
		c-1.022-0.119-2.091-0.011-3.09,0.186c-0.067,0.013-0.038,0.112,0.028,0.102c1.006-0.161,1.97-0.153,2.97-0.14
		c-0.356,0.585-0.727,1.166-1.115,1.721c-1.181,0.227-2.321,0.361-3.543,0.255c-0.049-0.004-0.047,0.07,0,0.076
		c1.116,0.139,2.298,0.118,3.408-0.143c-0.42,0.588-0.852,1.153-1.303,1.646c-1.474,0.174-2.934,0.162-4.417-0.071
		c-0.067-0.011-0.097,0.092-0.029,0.104c1.427,0.24,2.847,0.285,4.271,0.143c-1.023,1.073-2.117,1.831-3.256,1.946
		c-4.594-0.996,0.419-21.996,1.678-24.43c0.157-0.304-0.189-0.622-0.46-0.446c-0.204-0.14-0.483-0.168-0.723,0.056
		c-0.289,0.268-0.563,0.552-0.841,0.831c-1.411-0.019-2.825,0.013-4.235,0.021c-0.11,0.001-0.11,0.17,0,0.171
		c1.338,0.007,2.68,0.034,4.019,0.022c-0.561,0.572-1.11,1.156-1.635,1.763c-1.215,0.098-2.421,0.188-3.649,0.151
		c-0.113-0.003-0.113,0.171,0,0.175c1.142,0.041,2.306,0.04,3.448-0.091c-0.542,0.636-1.07,1.284-1.572,1.953
		c-1.128,0.137-2.253,0.296-3.378,0.458c-0.079,0.011-0.061,0.151,0.019,0.141c1.08-0.134,2.16-0.271,3.236-0.427
		c-0.39,0.526-0.773,1.057-1.139,1.6c-0.002,0-0.002-0.002-0.003-0.002c-1.336,0.281-2.613,0.503-3.985,0.429
		c-0.089-0.005-0.087,0.131,0,0.137c1.283,0.094,2.639,0.023,3.868-0.395c-0.64,0.96-1.25,1.941-1.809,2.947
		c-1.024,0.229-2.047,0.332-3.112,0.261c-0.085-0.006-0.082,0.122,0,0.131c1.005,0.108,2.012,0.058,2.99-0.169
		c-0.134,0.245-0.274,0.487-0.403,0.735c-0.22,0.42-0.44,0.934-0.662,1.506c-0.011-0.006-0.015-0.022-0.03-0.02
		c-1.051,0.172-2.096,0.228-3.157,0.129c-0.073-0.007-0.072,0.106,0,0.114c1.059,0.113,2.103,0.083,3.147-0.124
		c-0.232,0.602-0.467,1.27-0.71,1.978C9.459,29.74,8.1,29.784,6.703,29.636c-0.08-0.008-0.078,0.114,0,0.125
		c1.361,0.18,2.735,0.177,4.089-0.038c-0.218,0.635-0.441,1.296-0.676,1.972c-1.556,0.066-3.111,0.191-4.665,0.291
		c-0.079,0.005-0.08,0.129,0,0.125c1.537-0.086,3.078-0.149,4.614-0.267c-0.613,1.759-1.297,3.583-2.11,5.14
		c-0.973,0.116-1.945,0.24-2.917,0.368c-0.073,0.01-0.074,0.125,0,0.116c0.954-0.119,1.907-0.241,2.86-0.371
		c-0.288,0.542-0.591,1.052-0.914,1.512c-0.698,0.238-1.409,0.388-2.161,0.423c-0.041,0.002-0.041,0.065,0,0.063
		c0.707-0.023,1.399-0.136,2.065-0.351c-0.895,1.233-1.93,2.095-3.163,2.282c-2.704-0.759-0.507-6.973-0.643-9.01
		c-0.154-2.314-1.943-4.554-1.999-6.842c0.278-0.264,0.519-0.534,0.935-0.659c0.544-0.164,1.188-0.092,1.689,0.17
		c1.187,0.621,1.639,1.907,2.167,3.037c0.131,0.28,0.639,0.152,0.599-0.162c-0.008-0.06-0.023-0.121-0.033-0.182
		c0.009-0.012,0.025-0.014,0.031-0.029c1.581-3.628,2.823-7.331,4.848-10.76c3.205-5.427,10.325-11.73,15.499-4.734
		c1.119,3.872-1.165,7.898-1.568,11.729c-0.05,0.476,0.675,0.644,0.89,0.247c0.163,0.054,0.352,0.015,0.478-0.191
		c3.065-4.994,6.986-11.346,13.733-9.778c0.197,0.335,0.348,0.69,0.477,1.054c-1.107-0.155-2.218-0.286-3.325-0.424
		c-0.107-0.014-0.134,0.175-0.026,0.191c1.144,0.161,2.29,0.333,3.438,0.475c0.157,0.504,0.262,1.031,0.319,1.575
		c-1.155-0.233-2.367-0.271-3.528-0.224c-0.12,0.005-0.121,0.191,0,0.188c1.21-0.032,2.368,0.114,3.549,0.286
		c0.138,1.733-0.149,3.619-0.519,5.445c-0.009-0.03-0.03-0.057-0.073-0.058c-1.289-0.025-2.591,0.194-3.844,0.481
		c-0.105,0.024-0.06,0.184,0.044,0.161c1.261-0.281,2.515-0.382,3.799-0.473c0.024-0.002,0.042-0.013,0.055-0.027
		c-0.193,0.948-0.405,1.878-0.586,2.759c-1.159,0.033-2.322,0.138-3.477,0.211c-0.094,0.006-0.095,0.153,0,0.148
		c1.143-0.059,2.299-0.088,3.442-0.184c-0.09,0.447-0.174,0.883-0.239,1.298c-0.043,0.274-0.098,0.567-0.156,0.873
		c-1.16,0.099-2.314,0.252-3.47,0.391c-0.087,0.01-0.09,0.148,0,0.139c1.147-0.118,2.297-0.223,3.44-0.379
		c-0.163,0.837-0.355,1.759-0.47,2.684c-1.049,0.155-2.094,0.199-3.175,0.072c-0.1-0.012-0.098,0.144,0,0.156
		c1.05,0.133,2.111,0.132,3.151-0.028c-0.111,1.001-0.121,1.992,0.125,2.853c-1.094-0.01-2.188,0.001-3.28,0.02
		c-0.075,0.001-0.075,0.115,0,0.116c1.108,0.019,2.221,0.03,3.331,0.019c0.045,0.137,0.076,0.282,0.136,0.411
		c0.311,0.674,0.755,1.185,1.255,1.527c-0.45,0.024-0.9,0.048-1.348,0.068c-0.07,0.003-0.071,0.111,0,0.11
		c0.532-0.008,1.067-0.011,1.601-0.015c0.714,0.385,1.52,0.406,2.259-0.021c1.529-0.019,3.059-0.059,4.572-0.185
		c0.11-0.009,0.113-0.17,0-0.173c-1.388-0.033-2.785,0.006-4.181,0.069c0.095-0.08,0.195-0.143,0.286-0.241
		c0.75-0.242,1.457-0.726,2.028-1.334c0.68-0.006,1.352,0.073,2.052,0.221c0.095,0.02,0.134-0.116,0.04-0.146
		c-0.628-0.204-1.284-0.271-1.941-0.254c0.481-0.558,0.854-1.2,1.037-1.855c0.459,0.076,0.898,0.306,1.164,0.685
		c0.377,0.537,0.159,1.139,0.352,1.682C47.945,36.204,46.972,38.135,45.387,39.442z"/>
	<path style="fill:#1D1D1B;" d="M8.406,34.155c-1.302,0.139-2.571,0.428-3.817,0.826c-0.067,0.021-0.039,0.127,0.029,0.106
		c1.247-0.383,2.512-0.638,3.804-0.814C8.488,34.264,8.473,34.148,8.406,34.155z"/>
	<path style="fill:#1D1D1B;" d="M46.145,37.297c-2.374-0.142-4.79-0.006-7.168,0.024c-0.07,0.001-0.071,0.109,0,0.11
		c2.378,0.03,4.795,0.166,7.168,0.024C46.246,37.449,46.246,37.303,46.145,37.297z"/>
	<path style="fill:#1D1D1B;" d="M41.091,19.219c-1.36,0.035-2.747,0.332-4.07,0.624c-0.111,0.024-0.063,0.191,0.046,0.169
		c1.343-0.272,2.699-0.388,4.049-0.602C41.225,19.392,41.199,19.216,41.091,19.219z"/>
</g>
<g>
</g>
<g>
</g>
<g>
</g>
<g>
</g>
<g>
</g>
<g>
</g>
<g>
</g>
<g>
</g>
<g>
</g>
<g>
</g>
<g>
</g>
<g>
</g>
<g>
</g>
<g>
</g>
<g>
</g>
</svg>
