<?xml version="1.0" encoding="iso-8859-1"?>
<!-- Generator: Adobe Illustrator 18.0.0, SVG Export Plug-In . SVG Version: 6.00 Build 0)  -->
<!DOCTYPE svg PUBLIC "-//W3C//DTD SVG 1.1//EN" "http://www.w3.org/Graphics/SVG/1.1/DTD/svg11.dtd">
<svg version="1.1" id="Capa_1" xmlns="http://www.w3.org/2000/svg" xmlns:xlink="http://www.w3.org/1999/xlink" x="0px" y="0px"
	 viewBox="0 0 48.877 48.877" style="enable-background:new 0 0 48.877 48.877;" xml:space="preserve">
<g>
	<path style="fill:#1D1D1B;" d="M13.238,7.485c-0.452-2.34-2.834-3.97-5.19-3.307C5.988,4.757,4.836,7.05,5.266,9.089
		c0.466,2.209,2.993,4.016,5.189,3.145c0.115-0.046,0.177-0.162,0.174-0.271C12.725,11.968,13.588,9.296,13.238,7.485z
		 M10.381,10.89c-0.387-0.026-0.578,0.39-0.5,0.707c-1.039-0.278-2.085-0.639-2.813-1.467c-1.035-1.177-1.03-3.11,0.084-4.237
		c1.028-1.04,2.711-0.987,3.832-0.155C10.149,5.709,9.316,5.803,8.5,5.984C8.432,5.999,8.461,6.101,8.528,6.088
		c0.897-0.176,1.777-0.212,2.682-0.18c0.147,0.133,0.284,0.278,0.401,0.441c0.145,0.201,0.263,0.471,0.362,0.765
		c-0.868,0.119-1.729,0.183-2.614,0.136c-0.07-0.004-0.068,0.102,0,0.108c0.89,0.069,1.786,0.049,2.667-0.094
		C12.142,7.658,12.214,8.1,12.22,8.54c-1.27,0.194-2.418,0.27-3.689-0.024C8.459,8.499,8.428,8.61,8.501,8.628
		c1.201,0.302,2.515,0.394,3.721,0.059C12.2,9.876,11.699,10.979,10.381,10.89z"/>
	<path style="fill:#1D1D1B;" d="M25.041,6.718c-0.924-2.814-4.324-4.402-7.076-3.368c-2.697,1.013-4.221,4.298-3.256,7.006
		c0.94,2.639,4.081,4.2,6.693,3.119c0.075,0.028,0.16,0.042,0.257,0.022C24.423,12.928,25.857,9.206,25.041,6.718z M23.925,9.913
		c-1.057,0.012-2.155,0.094-3.186,0.252c-0.066,0.01-0.046,0.11,0.015,0.112c0.997,0.03,2.045-0.021,3.054-0.127
		c-0.527,1.013-1.464,1.852-2.487,2.547c-0.047,0.032-0.083,0.069-0.114,0.109c-2.085,0.112-4.268-0.612-5.207-2.651
		c-0.993-2.155,0.239-5.002,2.492-5.781c1.223-0.423,2.638-0.164,3.751,0.544c-1.208,0.026-2.406,0.004-3.615-0.143
		c-0.061-0.007-0.076,0.099-0.015,0.108c1.274,0.185,2.562,0.273,3.847,0.2c0.562,0.404,1.04,0.915,1.344,1.525
		c-1.018-0.037-2.042,0.002-3.061,0.011c-0.073,0.001-0.073,0.113,0,0.114c1.04,0.01,2.087,0.052,3.127,0.011
		c0.04,0.089,0.095,0.169,0.128,0.262c0.122,0.345,0.182,0.671,0.216,0.99c-0.876,0.055-1.734,0.135-2.625,0.066
		c-0.089-0.007-0.087,0.128,0,0.137c0.851,0.086,1.771,0.136,2.638,0.007C24.259,8.82,24.156,9.391,23.925,9.913z"/>
	<path style="fill:#1D1D1B;" d="M41.29,6.684c-0.698-3.976-4.393-7.238-8.541-6.605c-10.082,1.538-5.131,18.723,3.228,14.934
		c0.038,0.023,0.083,0.04,0.137,0.048C40.451,15.649,41.877,10.026,41.29,6.684z M40.107,10.845
		c-1.321,0.272-2.628,0.369-3.974,0.194c-0.084-0.011-0.105,0.137-0.02,0.149c1.325,0.197,2.651,0.168,3.949-0.148
		c-0.483,1.799-1.714,3.141-3.84,3.222c-0.106,0.004-0.195,0.051-0.262,0.12c-3.38,0.141-6.194-1.102-7.22-4.651
		c-0.867-2.997-0.509-6.424,2.609-7.949c2.398-1.173,4.421-0.753,5.935,0.468c-1.302-0.18-2.612-0.126-3.911,0.132
		c-0.101,0.02-0.058,0.173,0.043,0.155c1.393-0.255,2.757-0.239,4.144-0.051c0.537,0.488,1.004,1.077,1.391,1.732
		c-1.275-0.225-2.581-0.243-3.869-0.132c-0.093,0.008-0.096,0.154,0,0.148c1.344-0.083,2.649,0.01,3.982,0.177
		c0.323,0.579,0.588,1.202,0.787,1.845c-1.1,0.098-2.176,0.183-3.293,0.101c-0.116-0.009-0.114,0.169,0,0.179
		c1.103,0.099,2.254,0.118,3.357-0.068C40.336,7.948,40.42,9.51,40.107,10.845z"/>
	<path style="fill:#1D1D1B;" d="M46.487,38.99c-0.077,0.009-0.154,0.018-0.231,0.027c-0.034-3.112-0.098-6.223-0.26-9.326
		c-0.178-3.425-0.935-6.618-3.274-9.265c-3.632-4.109-10.658-5.176-14.285-0.643c-1.031-2.785-4.14-4.691-6.985-5.046
		c-2.073-0.259-5.639,0.164-6.755,2.277c-1.123-2.283-3.039-3.61-5.653-3.588c-1.497,0.013-2.97,0.354-4.095,1.209
		c-0.089-0.138-0.284-0.214-0.424-0.068c-1.612,1.676-1.373,4.163-1.496,6.347c-0.081,1.441-0.413,3.536-0.398,5.411
		c-0.058,0.068-0.109,0.144-0.145,0.229c-0.326,0.758-0.142,1.881,0.227,2.621c-0.044,0.291,0.12,0.619,0.501,0.622
		c0.347,0.002,0.68-0.103,0.983-0.269c1.18,0.327,2.549,0.055,3.761,0.034c1.205-0.021,2.425,0.092,3.622-0.035
		c-0.384,2.63-0.594,5.83,0.249,8.355c-0.158,0.16-0.077,0.501,0.217,0.537c3.905,0.484,7.748,0.424,11.631-0.249
		c0.015-0.002,0.023-0.012,0.037-0.015c-0.278,3.176-0.062,6.446,0.269,9.606c0.041,0.395,0.397,0.566,0.693,0.51
		c1.244,1.108,5.963,0.363,7.341,0.368c4.398,0.017,8.801,0.006,13.196-0.175c0.166-0.007,0.272-0.095,0.328-0.207
		c0.352,0.089,0.784-0.093,0.779-0.563c-0.028-2.834-0.034-5.675-0.064-8.515c0.083-0.016,0.167-0.024,0.25-0.041
		C46.589,39.121,46.572,38.98,46.487,38.99z M30.447,37.024c5.016-0.129,10.061-0.309,15.057-0.807
		c-0.016,0.964-0.049,1.932-0.09,2.898c-3.021,0.355-6.012,0.676-9.068,0.712c-0.084,0.001-0.084,0.131,0,0.131
		c3.015,0.009,6.075-0.139,9.059-0.64c-0.037,0.849-0.077,1.697-0.119,2.538c-5.146-0.175-10.366,0.257-15.481,0.774
		c-0.06,0.006-0.062,0.1,0,0.095c5.159-0.404,10.31-0.465,15.473-0.703c-0.035,0.711-0.068,1.418-0.096,2.118
		c-4.414-0.16-8.855,0.028-13.263,0.256c-0.051,0.003-0.052,0.082,0,0.08c4.421-0.17,8.837-0.134,13.257-0.206
		c-0.015,0.378-0.033,0.76-0.044,1.133c-6.311-0.594-12.602-0.275-18.913,0.183c-0.071,0.005-0.072,0.116,0,0.112
		c6.311-0.326,12.6-0.641,18.91-0.158c-0.02,0.723-0.033,1.438-0.031,2.137c-2.308-0.105-19.682-1.071-19.908,0.221
		c0.021-0.12-0.034-0.229-0.112-0.31c-0.016-3.289-0.106-6.672-0.677-9.914c-0.036-0.203-0.195-0.266-0.348-0.235
		c-0.065-0.238-0.243-0.436-0.528-0.399c-3.57,0.468-7.152,0.736-10.752,0.747c0.065-1.379-0.2-2.807-0.294-4.184
		c-0.098-1.434-0.13-2.871-0.192-4.307c0.135-0.24,0.017-0.627-0.276-0.717c-1.375-0.426-2.926-0.346-4.354-0.305
		c-0.901,0.026-1.917-0.003-2.82,0.235c-0.079-0.045-0.172-0.066-0.275-0.01c-0.319,0.174-0.608,0.216-0.924,0.226
		c0.002-0.072,0.004-0.143,0.007-0.215c0.655-1.249,0.303-4.759,0.325-5.926c0.042-2.229-0.317-4.74,0.563-6.84
		c1.281-1.172,3.126-1.551,4.842-1.45c2.586,0.153,3.455,1.811,4.876,3.592c0.123,0.154,0.272,0.168,0.399,0.107
		c0.096,0.016,0.199-0.005,0.267-0.106c1.41-2.101,5.242-2.372,7.43-1.793c2.633,0.697,3.943,2.504,5.5,4.548
		c0.219,0.288,0.664,0.216,0.756-0.083c4.086-3.072,8.519-2.801,11.775-0.345c-2.455-0.286-4.936-0.388-7.406-0.321
		c-0.088,0.002-0.089,0.137,0,0.137c2.597,0.009,5.162,0.166,7.744,0.438c0.466,0.383,0.906,0.812,1.314,1.284
		c-3.711-0.237-7.45-0.223-11.166-0.182c-0.091,0.001-0.091,0.141,0,0.141c3.792,0.002,7.574,0.174,11.363,0.267
		c0.522,0.638,0.994,1.341,1.393,2.117c-0.105-0.002-0.211-0.005-0.316-0.007c-0.118-0.003-0.112,0.167,0,0.179
		c-3.385-0.369-7.089,0.09-10.542,0.049c-0.073-0.001-0.073,0.112,0,0.114c3.662,0.118,7.323,0.071,10.983-0.096
		c0.467,0.956,0.844,1.995,1.091,3.126c0.381,1.744,0.555,3.59,0.628,5.478c-3.267,0.151-6.48,0.258-9.749,0.01
		c-0.086-0.006-0.084,0.125,0,0.133c3.23,0.29,6.528,0.394,9.756,0.015c0.034,0.973,0.05,1.953,0.036,2.943
		c-5.022,0.266-10.034,0.65-15.059,0.872C30.373,36.911,30.372,37.026,30.447,37.024z"/>
	<path style="fill:#1D1D1B;" d="M11.657,9.972c-1.252,0.437-2.466,0.577-3.764,0.248c-0.086-0.022-0.122,0.108-0.036,0.132
		c1.28,0.355,2.644,0.328,3.863-0.232C11.803,10.083,11.744,9.942,11.657,9.972z"/>
	<path style="fill:#1D1D1B;" d="M22.426,11.416c-1.167-0.061-2.545-0.117-3.703,0.055c-0.282,0.042-0.612,0.154-0.532,0.488
		c0.009,0.036,0.063,0.021,0.055-0.015c-0.106-0.505,1.912-0.343,2.164-0.342c0.671,0.003,1.346,0.031,2.015-0.015
		C22.536,11.579,22.537,11.422,22.426,11.416z"/>
	<path style="fill:#1D1D1B;" d="M39.284,12.434c-2.405,0.322-4.735,0.555-7.164,0.424c-0.075-0.004-0.074,0.111,0,0.116
		c2.385,0.157,4.839,0.117,7.184-0.393C39.385,12.563,39.369,12.422,39.284,12.434z"/>
	<path style="fill:#1D1D1B;" d="M40.141,8.505c-0.972-0.093-1.975-0.024-2.952-0.019c-0.113,0.001-0.113,0.175,0,0.175
		c0.976,0.005,1.979,0.074,2.952-0.019C40.229,8.633,40.229,8.513,40.141,8.505z"/>
	<path style="fill:#1D1D1B;" d="M44.989,30.183c-5.268-0.033-10.545,0.161-15.812,0.272c-0.084,0.002-0.084,0.132,0,0.131
		c5.267-0.059,10.548-0.034,15.812-0.236C45.096,30.345,45.097,30.183,44.989,30.183z"/>
	<path style="fill:#1D1D1B;" d="M44.571,27.086c-2.959,0.08-5.894,0.248-8.857,0.165c-0.091-0.003-0.091,0.138,0,0.141
		c2.937,0.12,5.931,0.182,8.857-0.146C44.671,27.235,44.677,27.083,44.571,27.086z"/>
</g>
<g>
</g>
<g>
</g>
<g>
</g>
<g>
</g>
<g>
</g>
<g>
</g>
<g>
</g>
<g>
</g>
<g>
</g>
<g>
</g>
<g>
</g>
<g>
</g>
<g>
</g>
<g>
</g>
<g>
</g>
</svg>
