<?xml version="1.0" encoding="iso-8859-1"?>
<!-- Generator: Adobe Illustrator 18.0.0, SVG Export Plug-In . SVG Version: 6.00 Build 0)  -->
<!DOCTYPE svg PUBLIC "-//W3C//DTD SVG 1.1//EN" "http://www.w3.org/Graphics/SVG/1.1/DTD/svg11.dtd">
<svg version="1.1" id="Capa_1" xmlns="http://www.w3.org/2000/svg" xmlns:xlink="http://www.w3.org/1999/xlink" x="0px" y="0px"
	 viewBox="0 0 48.147 48.147" style="enable-background:new 0 0 48.147 48.147;" xml:space="preserve">
<g>
	<path style="fill:#1D1D1B;" d="M22.17,18.072c-3.574-4.102-9.12-1.934-12.869,0.76c-0.571-2.427-4.055-2.973-6.142-2.798
		c-1.069,0.09-2.335,0.002-2.795,1.134c-0.502,1.237-0.408,2.941-0.178,4.222c0.05,0.278,0.291,0.363,0.512,0.312
		c0.034,0.139,0.11,0.264,0.266,0.291c2.048,0.354-0.197,17.168-0.32,19.268c-0.013,0.219,0.1,0.379,0.257,0.484
		c-0.048,0.178,0.014,0.383,0.234,0.419c1.978,0.327,5.974,1.326,6.821-1.145c0.623-1.819,0.358-4.628,0.468-6.551
		c0.154-2.706,0.129-5.428,0.385-8.124c0.646-0.406,1.291-0.808,1.966-1.167c1.733-0.921,2.774-1.833,4.448-0.666
		c1.44,1.004,1.154,1.089,1.034,2.62c-0.093,1.184-0.205,2.366-0.3,3.55c-0.26,3.248-1.314,7.437-0.653,10.607
		c0.052,0.251,0.28,0.446,0.516,0.517c1.664,0.494,3.747,0.337,5.516,0.356c0.224,0.106,0.482,0.103,0.676-0.041
		c0.418-0.144,0.538-0.638,0.37-1.014c0.943-4.319,1.473-8.698,1.545-13.125C23.979,24.876,24.389,20.619,22.17,18.072z
		 M7.29,32.393c-0.023-0.01-0.047-0.021-0.077-0.015c-1.037,0.199-2.057,0.339-3.113,0.38c-0.127,0.005-0.127,0.19,0,0.197
		c1.058,0.055,2.141-0.038,3.165-0.315c-0.1,1.002-0.195,2.004-0.267,3.003c-0.678,0.052-1.354,0.127-2.03,0.201
		c-0.117,0.013-0.121,0.196,0,0.186c0.674-0.051,1.348-0.102,2.02-0.174c-0.022,0.497-0.005,1.245-0.022,2.043
		c-0.716,0.062-1.398,0.063-2.124-0.123c-0.156-0.04-0.221,0.197-0.066,0.241c0.698,0.198,1.455,0.29,2.182,0.191
		c-0.019,0.545-0.059,1.094-0.146,1.574c-1.144,0.194-2.236,0.376-3.411,0.311c-0.139-0.008-0.136,0.203,0,0.214
		c1.092,0.088,2.279,0.064,3.353-0.239c-0.106,0.443-0.262,0.806-0.492,1.016c-0.625,0.571-3.047,0.459-4.408,0.406
		c0.006-0.022,0.02-0.037,0.023-0.062c0.513-3.42,0.816-6.905,0.979-10.396c0.008,0.001,0.01,0.007,0.019,0.007
		c1.514-0.049,3.061-0.024,4.57-0.19C7.394,31.364,7.342,31.879,7.29,32.393z M22.478,26.16c-1.278-0.155-2.577-0.152-3.859-0.076
		c-0.168,0.01-0.171,0.27,0,0.264c1.297-0.045,2.57,0.043,3.856,0.149c0,0.507-0.004,1.013-0.016,1.517
		c-0.813-0.017-1.628,0.002-2.441,0.013c-0.138,0.002-0.138,0.213,0,0.215c0.812,0.011,1.626,0.03,2.438,0.013
		c-0.022,0.789-0.058,1.577-0.109,2.362c-1.067-0.025-2.137,0.004-3.203,0.016c-0.161,0.002-0.161,0.248,0,0.25
		c1.06,0.012,2.123,0.041,3.183,0.016c-0.071,1.022-0.158,2.043-0.272,3.06c-1.204-0.006-2.407,0.008-3.611,0.02
		c-0.131,0.001-0.131,0.203,0,0.204c1.196,0.012,2.391,0.025,3.587,0.02c-0.101,0.876-0.215,1.751-0.343,2.624
		c-1.08,0.091-2.154,0.15-3.243,0.091c-0.159-0.009-0.157,0.234,0,0.246c1.065,0.079,2.134,0.085,3.195-0.025
		c-0.095,0.638-0.184,1.277-0.292,1.914c-0.968-0.02-1.937,0.009-2.904,0.023c-0.1,0.001-0.1,0.153,0,0.155
		c0.956,0.014,1.913,0.041,2.869,0.023c-0.081,0.472-0.163,0.943-0.25,1.415c-1.642,0.047-3.655,0.327-4.287-1.466
		c-0.469-1.329,0.33-4.253,0.44-5.68c0.211-2.718,1.342-6.786,0.386-9.426c-1.542-4.255-6.708-0.382-9.022,1.373
		c-0.31-0.135-0.779,0.005-0.79,0.454c-0.02,0.794-0.065,1.59-0.123,2.385c-0.893-0.047-1.798-0.001-2.691,0.015
		c-0.206,0.004-0.206,0.316,0,0.32c0.882,0.015,1.777,0.059,2.66,0.015c-0.049,0.628-0.102,1.257-0.162,1.885
		c-1.527-0.039-3.076,0.122-4.599,0.203c-0.003,0-0.004,0.003-0.007,0.003c0.136-3.063,0.166-6.13,0.121-9.161
		c-0.007-0.444-0.399-0.684-0.805-0.613c-0.365,0.064-0.73,0.127-1.094,0.191c0.022-0.789-0.039-1.7,0.207-2.445
		c0.405-1.228,1.262-1.347,2.458-1.379c2.159-0.058,3.296,0.663,4.528,2.302c-0.207,0.348,0.258,0.854,0.656,0.615
		c2.35-1.41,5.102-3.23,7.974-3.015c2.041,0.153,3.317,0.82,4.132,1.772c-2.333-0.307-4.906,0.014-7.187,0.369
		c-0.134,0.021-0.104,0.25,0.032,0.238c2.478-0.21,4.972-0.06,7.438-0.238c0.398,0.579,0.667,1.237,0.833,1.949
		c-4.503-0.059-9.035,0.286-13.514,0.719c-0.124,0.012-0.128,0.204,0,0.197c4.531-0.249,9.067-0.318,13.598-0.531
		c0.14,0.753,0.193,1.548,0.214,2.345c-0.876-0.154-1.787-0.113-2.661,0.02c-0.142,0.021-0.11,0.268,0.034,0.252
		c0.899-0.102,1.754-0.034,2.633,0.07c0.009,0.592,0.008,1.181,0.014,1.749C22.478,26.156,22.478,26.158,22.478,26.16z"/>
	<path style="fill:#1D1D1B;" d="M47.407,16.819c-1.991,0.002-3.98,0.014-5.97,0.061c-1.067,0.025-1.61-0.048-2.334,0.71
		c-1.055,1.105-1.848,3.107-2.602,4.438c-0.853,1.507-1.715,3.016-2.535,4.543c0.615-4.566,0.866-9.221,1.149-13.815
		c0.128-2.08,0.358-4.074-0.841-5.612c0.123-0.223,0.099-0.508-0.202-0.68c-1.146-0.657-2.513-0.872-3.822-0.931
		c-1.044-0.048-2.701-0.102-3.655,0.423c-0.784,0.432-0.825,1.327-0.935,2.136c-0.134,0.99-0.406,2.439,0.086,3.372
		c0.043,0.082,0.117,0.133,0.199,0.166c-0.261,0.061-0.188,0.454,0.069,0.462c3.376,0.115-0.304,26.587-0.466,29.356
		c-0.03,0.508,0.684,0.669,0.939,0.311c1.45,0.444,3.62,0.865,4.995,0.57c0.696-0.149,0.719-0.191,1.036-0.797
		c0.644-1.229,0.566-3.95,0.746-5.301c0.231-1.729,0.45-3.459,0.645-5.192c1.267,3.334,2.744,6.911,4.611,9.89
		c1.499,2.392,5.474,1.397,7.887,1.386c0.396-0.002,0.616-0.264,0.68-0.564c0.174-0.089,0.29-0.299,0.178-0.535
		c-1.907-4.021-4.101-7.912-6.296-11.783c0.049-0.103,0.031-0.243-0.103-0.261c-0.016-0.002-0.032-0.003-0.047-0.005
		c-0.071-0.125-0.141-0.25-0.212-0.374c2.733-3.224,5.071-6.842,7.36-10.379c0.104-0.16,0.12-0.313,0.095-0.452
		C48.284,17.504,48.074,16.818,47.407,16.819z M45.354,19.793c-1.16,0.083-2.302,0.177-3.473,0.121c-0.208-0.01-0.203,0.303,0,0.32
		c1.044,0.088,2.116,0.122,3.165,0.008c-0.388,0.568-0.782,1.128-1.166,1.701c-1.3-0.11-2.621-0.088-3.923-0.114
		c-0.191-0.004-0.188,0.284,0,0.295c1.221,0.071,2.454,0.183,3.679,0.191c-0.423,0.637-0.85,1.271-1.258,1.918
		c-1.211,0.254-2.373,0.356-3.615,0.112c-0.178-0.035-0.256,0.232-0.076,0.275c1.118,0.262,2.288,0.315,3.407,0.064
		c-0.408,0.658-0.808,1.32-1.192,1.989c-1.715,0.204-3.412,0.416-5.145,0.458c-0.172,0.004-0.172,0.266,0,0.267
		c1.64,0.009,3.302-0.06,4.925-0.332c-0.252,0.449-0.517,0.892-0.755,1.347c-0.284,0.056-0.537,0.3-0.551,0.604
		c-3.341-0.346-6.749-0.394-10.09-0.353c-0.172,0.002-0.172,0.262,0,0.267c3.42,0.103,6.825,0.375,10.238,0.546
		c0.538,0.978,1.095,1.947,1.645,2.92c-0.81-0.059-1.626-0.079-2.433-0.124c-0.202-0.011-0.199,0.297,0,0.313
		c0.884,0.072,1.777,0.181,2.667,0.227c0.335,0.59,0.66,1.184,0.998,1.772c-1-0.05-2.032,0.068-3.006,0.238
		c-0.137,0.024-0.107,0.264,0.033,0.245c1.073-0.142,2.113-0.125,3.183-0.119c0.33,0.574,0.656,1.15,0.991,1.721
		c-1.097-0.021-2.212,0.04-3.298,0.073c-0.174,0.005-0.174,0.265,0,0.271c1.165,0.036,2.362,0.101,3.536,0.063
		c0.359,0.608,0.704,1.224,1.071,1.827c-1.476,0.028-2.95,0.137-4.431,0.117c-0.148-0.002-0.145,0.218,0,0.229
		c1.527,0.109,3.128,0.19,4.664,0.031c0.322,0.524,0.639,1.052,0.969,1.57c-1.306,0.006-2.612,0.009-3.918,0.023
		c-2.28,0.026-2.736-1.131-3.683-2.985c-1.362-2.665-2.721-5.344-4.332-7.869c-0.067-0.105-0.182-0.146-0.292-0.139
		c-0.291-0.382-1.083-0.379-1.174,0.198c-0.074,0.468-0.134,0.938-0.204,1.406c-0.955-0.036-1.921,0.024-2.875,0.039
		c-0.138,0.002-0.138,0.212,0,0.214c0.939,0.015,1.892,0.071,2.832,0.039c-0.124,0.85-0.254,1.699-0.369,2.551
		c-0.006-0.002-0.009-0.008-0.016-0.008c-1.061-0.106-2.129-0.021-3.177,0.161c-0.113,0.019-0.063,0.185,0.047,0.169
		c1.042-0.147,2.067-0.144,3.114-0.085c-0.103,0.766-0.207,1.531-0.307,2.297c-0.827,0.038-1.655,0.097-2.479,0.173
		c-0.157,0.014-0.163,0.255,0,0.25c0.814-0.029,1.629-0.076,2.442-0.142c-0.034,0.265-0.071,0.53-0.105,0.794
		c-0.076,0.584-0.079,1.167-0.172,1.672c-0.011-0.008-0.018-0.02-0.033-0.023c-1.027-0.186-2.127-0.342-3.171-0.303
		c-0.118,0.004-0.158,0.198-0.029,0.218c1.042,0.162,2.118,0.224,3.168,0.327c0.01,0.001,0.016-0.007,0.025-0.009
		c-0.147,0.575-0.465,1.015-1.257,1.165c-1.15,0.218-2.32-0.028-3.491,0.1c1.527-7.425,1.856-15.315,1.974-22.868
		c0.033-2.114,0.846-6.887-2.261-6.639c0.028-0.021,0.055-0.04,0.08-0.062c0.001-0.001,0.002-0.001,0.003-0.003
		c0.008-0.007,0.018-0.013,0.026-0.02c0.035-0.029,0.039-0.07,0.028-0.109c0.003-0.009,0.005-0.012,0.008-0.022
		c0.06-0.182,0.023-0.424,0.044-0.612c0.097-0.846-0.002-2.698,0.552-3.41c0.5-0.643,2.107-0.504,2.857-0.48
		c1.173,0.038,2.257,0.344,3.392,0.542c0.308,0.53,0.493,1.145,0.603,1.804c-2.228-0.191-4.545,0.003-6.777,0.028
		c-0.235,0.003-0.236,0.363,0,0.366c2.25,0.026,4.586,0.224,6.83,0.025c0.192,1.696-0.077,3.641-0.3,5.313
		c-1.128,0.011-2.247,0.118-3.381,0.062c-0.223-0.011-0.219,0.329,0,0.345c1.088,0.08,2.241,0.138,3.332-0.032
		c-0.066,0.509-0.124,0.99-0.154,1.42c-0.08,1.113-0.165,2.23-0.248,3.347c-0.795,0.164-1.578,0.276-2.406,0.236
		c-0.157-0.007-0.154,0.231,0,0.243c0.791,0.06,1.609,0.028,2.384-0.162c-0.055,0.753-0.111,1.506-0.157,2.26
		c-0.975,0.167-1.913,0.3-2.927,0.261c-0.184-0.007-0.177,0.263,0,0.281c0.929,0.094,1.961,0.069,2.901-0.156
		c-0.042,0.718-0.077,1.435-0.101,2.153c-0.001,0-0.002-0.001-0.003-0.001c-0.99,0.115-1.974,0.207-2.972,0.192
		c-0.163-0.003-0.162,0.247,0,0.253c0.996,0.039,1.988,0.004,2.969-0.176c-0.017,0.537-0.039,1.074-0.041,1.611
		c-0.002,0.344,0.361,0.531,0.646,0.476c0.082,0.304,0.527,0.454,0.758,0.114c1.583-2.328,3.071-4.736,4.554-7.13
		c1.672-2.7,4.622-2.318,7.478-2.194C46.013,18.818,45.687,19.31,45.354,19.793z"/>
	<path style="fill:#1D1D1B;" d="M33.31,17.146c-1.022-0.001-2.019,0.106-3.019,0.315c-0.179,0.037-0.101,0.301,0.075,0.271
		c0.974-0.164,1.958-0.258,2.944-0.294C33.497,17.431,33.499,17.147,33.31,17.146z"/>
	<path style="fill:#1D1D1B;" d="M33.837,12.072c-1.352,0.13-2.662,0.35-4.026,0.349c-0.188,0-0.188,0.286,0,0.292
		c1.34,0.039,2.766,0.028,4.068-0.327C34.048,12.34,34.022,12.054,33.837,12.072z"/>
</g>
<g>
</g>
<g>
</g>
<g>
</g>
<g>
</g>
<g>
</g>
<g>
</g>
<g>
</g>
<g>
</g>
<g>
</g>
<g>
</g>
<g>
</g>
<g>
</g>
<g>
</g>
<g>
</g>
<g>
</g>
</svg>
