<?xml version="1.0" encoding="iso-8859-1"?>
<!-- Generator: Adobe Illustrator 18.0.0, SVG Export Plug-In . SVG Version: 6.00 Build 0)  -->
<!DOCTYPE svg PUBLIC "-//W3C//DTD SVG 1.1//EN" "http://www.w3.org/Graphics/SVG/1.1/DTD/svg11.dtd">
<svg version="1.1" id="Capa_1" xmlns="http://www.w3.org/2000/svg" xmlns:xlink="http://www.w3.org/1999/xlink" x="0px" y="0px"
	 viewBox="0 0 47.997 47.997" style="enable-background:new 0 0 47.997 47.997;" xml:space="preserve">
<g>
	<path style="fill:#1D1D1B;" d="M47.471,20.882C46.635,6.759,32.565-1.114,19.694,0.128C6.604,1.39-0.774,14.485,0.679,26.83
		c1.348,11.451,12.269,22.589,24.329,21.018c6.56,0.538,12.649-2.782,16.363-8.158c0.93-1.346,1.829-2.911,2.643-4.591
		c0.003-0.01,0.012-0.012,0.011-0.022C46.193,30.594,47.73,25.268,47.471,20.882z M45.933,25.451
		c-1.985-0.147-3.992-0.131-5.98-0.183c-0.101-0.003-0.1,0.152,0,0.156c1.978,0.073,3.97,0.215,5.951,0.196
		c-0.157,0.831-0.353,1.666-0.588,2.497c-1.998,0.382-3.951,0.474-5.973,0.134c-0.11-0.019-0.158,0.149-0.047,0.169
		c1.992,0.356,4,0.346,5.968-0.11c-0.307,1.059-0.668,2.109-1.067,3.127c-0.012-0.009-0.01-0.03-0.03-0.029
		c-1.981,0.027-3.932,0.023-5.907-0.16c-0.102-0.01-0.099,0.147,0,0.158c1.946,0.225,3.931,0.326,5.885,0.159
		c-0.471,1.19-0.989,2.338-1.527,3.408c-2.152-0.041-4.313,0.025-6.462,0.035c-0.096,0-0.097,0.149,0,0.15
		c2.112,0.01,4.236,0.075,6.352,0.038c-0.343,0.672-0.692,1.313-1.039,1.912c-1.07,1.848-2.319,3.403-3.723,4.701
		c-0.008-0.044-0.017-0.087-0.025-0.131c-0.006-0.031-0.034-0.054-0.063-0.063c-0.072-0.023-0.144-0.046-0.215-0.069
		c-0.08-0.026-0.135,0.1-0.058,0.137c-0.599-0.283-2.642,0.229-3.475,0.245c-1.46,0.029-2.92,0.039-4.38,0.034
		c-2.712-0.01-5.421-0.082-8.131-0.187c-0.065-0.003-0.065,0.098,0,0.101c5.362,0.29,10.731,0.349,16.097,0.159
		c-0.832,0.742-1.715,1.4-2.651,1.972c-6.394,0.172-12.755,0.1-19.145-0.244c-0.056-0.003-0.055,0.082,0,0.087
		c6.255,0.497,12.542,0.614,18.812,0.356c-2.334,1.361-4.967,2.229-7.854,2.676c-0.02-0.004-0.031-0.022-0.054-0.023
		C15.198,46.483,4.555,40.875,2.185,28.748C-0.238,16.345,6.829,2.157,20.426,1.251c4.646-0.31,9.223,0.533,13.214,2.407
		c-1.655-0.343-3.327-0.587-5.013-0.725c-2.399-0.196-4.9,0.09-7.243-0.511c-0.062-0.016-0.088,0.079-0.026,0.096
		C23.131,3.012,24.912,2.91,26.738,3c2.595,0.128,5.14,0.534,7.682,1.047c1.553,0.798,3.012,1.753,4.337,2.867
		c-4.769-0.65-9.602-0.793-14.405-0.521c-0.057,0.003-0.057,0.091,0,0.089c4.937-0.183,9.779,0.082,14.679,0.671
		c0.9,0.783,1.744,1.63,2.506,2.556c-4.874-0.405-9.772-0.625-14.652-0.925c-0.113-0.007-0.112,0.167,0,0.175
		c4.945,0.342,9.898,0.77,14.851,1c0.909,1.141,1.721,2.373,2.389,3.719c-3.361-0.019-6.72,0.011-10.081-0.046
		c-0.106-0.002-0.105,0.16,0,0.165c3.387,0.144,6.8,0.216,10.191,0.089c0.635,1.316,1.153,2.721,1.522,4.223
		c-2.611-0.39-5.279-0.448-7.914-0.402c-0.11,0.002-0.11,0.171,0,0.171c2.671-0.014,5.301,0.209,7.959,0.422
		c0.092,0.39,0.201,0.77,0.274,1.172C46.413,21.327,46.31,23.373,45.933,25.451z"/>
	<path style="fill:#1D1D1B;" d="M36.742,20.798c-1.184-7.881-8.417-10.736-15.714-9.824c-6.993,0.874-10.262,8.65-9.04,15.031
		c1.234,6.445,7.002,11.001,13.339,11.003c0.123,0.085,0.277,0.133,0.456,0.107c0.293-0.042,0.572-0.112,0.855-0.173
		c0.241-0.024,0.481-0.038,0.723-0.076c0.087-0.013,0.122-0.071,0.136-0.136C34.122,34.797,37.772,27.655,36.742,20.798z
		 M25.461,35.946c-0.197,0.032-0.32,0.131-0.385,0.258c-5.197-0.867-9.918-3.749-11.606-9.125
		c-2.112-6.727,1.277-14.826,9.004-15.124c6.892-0.267,12.676,3.073,13.205,10.455C36.154,29.046,32.113,34.844,25.461,35.946z"/>
	<path style="fill:#1D1D1B;" d="M39.32,39.334c-7.518-0.036-15.045,0.132-22.561,0.266c-0.08,0.001-0.08,0.125,0,0.124
		c7.517-0.022,15.046-0.011,22.561-0.203C39.441,39.518,39.441,39.334,39.32,39.334z"/>
	<path style="fill:#1D1D1B;" d="M41.005,36.848c-3.865,0.074-7.731,0.156-11.596,0.265c-0.07,0.002-0.071,0.11,0,0.11
		c3.865-0.039,7.731-0.105,11.596-0.179C41.131,37.041,41.131,36.845,41.005,36.848z"/>
	<path style="fill:#1D1D1B;" d="M45.855,21.512c-2.103-0.082-4.221-0.009-6.325,0.016c-0.08,0.001-0.08,0.124,0,0.125
		c2.104,0.025,4.222,0.097,6.325,0.016C45.955,21.664,45.955,21.516,45.855,21.512z"/>
</g>
<g>
</g>
<g>
</g>
<g>
</g>
<g>
</g>
<g>
</g>
<g>
</g>
<g>
</g>
<g>
</g>
<g>
</g>
<g>
</g>
<g>
</g>
<g>
</g>
<g>
</g>
<g>
</g>
<g>
</g>
</svg>
