<?xml version="1.0" encoding="iso-8859-1"?>
<!-- Generator: Adobe Illustrator 18.0.0, SVG Export Plug-In . SVG Version: 6.00 Build 0)  -->
<!DOCTYPE svg PUBLIC "-//W3C//DTD SVG 1.1//EN" "http://www.w3.org/Graphics/SVG/1.1/DTD/svg11.dtd">
<svg version="1.1" id="Capa_1" xmlns="http://www.w3.org/2000/svg" xmlns:xlink="http://www.w3.org/1999/xlink" x="0px" y="0px"
	 viewBox="0 0 49.526 49.526" style="enable-background:new 0 0 49.526 49.526;" xml:space="preserve">
<g>
	<path style="fill:#1D1D1B;" d="M35.128,5.315c-0.022-0.107-0.093-0.154-0.174-0.177c-0.042-0.304-0.25-0.579-0.645-0.575
		C28.515,4.627,22.722,4.735,16.928,4.83C11.787,4.915,6.502,4.337,1.414,5.116C1.396,5.118,1.389,5.134,1.375,5.141
		c-0.107,0.004-0.209,0.053-0.24,0.194c-1.289,5.885-1.039,12.272-1.109,18.272C-0.053,30.311,0.036,37.038,0.5,43.729
		c0.012,0.169,0.084,0.295,0.183,0.387c0.007,0.146,0.09,0.283,0.272,0.328c1.089,0.266,2.279,0.152,3.398,0.185
		c1.123,0.033,2.308,0.231,3.41,0.004C7.92,44.6,7.994,44.5,8.035,44.385c0.172-0.085,0.3-0.245,0.287-0.497
		C7.796,33.368,9.129,22.871,8.73,12.405c6,0.68,12.751,0.651,18.747,0.109c0.025-0.002,0.042-0.012,0.064-0.017
		c-0.102,1.43-0.187,2.859-0.217,4.293c-0.022,1.051-0.122,2.163,0.038,3.211c-2.264-0.462-4.993-0.108-7.314,0.102
		c-0.137-1.581-0.148-3.144-0.083-4.731c0.012-0.308-0.427-0.343-0.518-0.07c-0.529,1.589-0.668,3.256-0.468,4.92
		c0.013,0.111,0.06,0.198,0.117,0.273c-0.033,0.212,0.089,0.448,0.381,0.471c2.571,0.203,5.781,0.719,8.298,0.072
		c0.097-0.025,0.161-0.086,0.218-0.151c0.1-0.039,0.19-0.105,0.227-0.227c0.37-1.21,0.228-2.608,0.217-3.869
		c-0.013-1.468-0.077-2.931-0.162-4.397c-0.015-0.254-0.217-0.365-0.405-0.344c-0.019-0.18-0.146-0.349-0.394-0.369
		c-6.109-0.489-12.894-0.559-18.998,0.014c-0.357,0.034-0.409,0.411-0.194,0.589C8.28,12.296,8.267,12.3,8.263,12.315
		c-0.111,0.507-0.204,1.02-0.296,1.533c-1.393-0.341-2.918-0.355-4.314-0.245c-0.167,0.013-0.171,0.271,0,0.264
		c1.46-0.063,2.824,0.157,4.236,0.388c-0.118,0.687-0.225,1.377-0.322,2.071c-1.351-0.253-2.788-0.211-4.13,0.022
		c-0.131,0.023-0.103,0.248,0.032,0.235c1.384-0.133,2.688-0.052,4.053,0.103c-0.103,0.762-0.211,1.522-0.289,2.292
		c-0.611-0.002-1.227,0.041-1.831,0.055c-0.149,0.003-0.15,0.229,0,0.232c0.591,0.014,1.194,0.055,1.792,0.054
		c-0.078,0.81-0.144,1.624-0.199,2.441c-0.533-0.015-1.088,0.038-1.594,0.062c-0.161,0.008-0.161,0.242,0,0.25
		c0.5,0.024,1.047,0.076,1.575,0.063c-0.053,0.861-0.102,1.724-0.133,2.59c-1.236-0.022-2.485,0.047-3.716,0.066
		c-0.167,0.003-0.168,0.258,0,0.26c1.227,0.019,2.471,0.088,3.703,0.066c-0.031,0.983-0.054,1.968-0.061,2.955
		c-1.265-0.068-2.56,0.019-3.817,0.031c-0.181,0.002-0.181,0.279,0,0.281c1.255,0.013,2.549,0.099,3.813,0.031
		c-0.005,0.973-0.003,1.946,0.009,2.918c-1.368-0.254-2.86-0.112-4.206,0.121c-0.188,0.032-0.106,0.313,0.079,0.285
		c1.411-0.216,2.738-0.115,4.133-0.067c0.009,0.618,0.017,1.237,0.031,1.854c-0.658,0.036-1.335,0.201-1.97,0.346
		c-0.12,0.027-0.096,0.228,0.029,0.218c0.636-0.054,1.321-0.102,1.947-0.26c0.028,1.184,0.062,2.365,0.102,3.54
		c-0.506-0.001-1.021,0.044-1.518,0.058c-0.111,0.003-0.111,0.169,0,0.172c0.5,0.014,1.018,0.06,1.528,0.058
		c0.025,0.729,0.049,1.46,0.075,2.183c-1.119-0.103-2.279,0.009-3.381,0.168c-0.099,0.014-0.077,0.188,0.024,0.176
		c1.132-0.137,2.237-0.108,3.366-0.1c0.026,0.731,0.052,1.461,0.076,2.185c-1.581-0.201-3.243-0.102-4.833-0.13
		c-0.075-0.001-0.074,0.112,0,0.116c1.591,0.098,3.248,0.335,4.841,0.254c0.012,0.371,0.025,0.743,0.036,1.112
		c-0.901-0.179-1.88-0.14-2.78-0.149c-0.876-0.01-1.816-0.058-2.699,0.08c-0.227-6.331-0.465-12.65-0.408-18.986
		C1.301,18.299,2.158,11.85,1.714,5.608C6.71,6.29,11.893,5.715,16.928,5.769c5.794,0.062,11.587,0.136,17.382,0.166
		c0.093,0,0.17-0.022,0.243-0.049c-0.024,0.509-0.058,1.023-0.086,1.533c-3.277-0.196-6.571,0.022-9.827,0.398
		c-0.166,0.019-0.17,0.28,0,0.264c3.274-0.315,6.525-0.312,9.805-0.274c-0.05,0.898-0.096,1.793-0.151,2.695
		c-1.631-0.139-3.42,0.164-4.964,0.482c-0.158,0.032-0.088,0.26,0.065,0.237c1.637-0.244,3.248-0.195,4.871-0.28
		c-0.04,0.638-0.078,1.275-0.118,1.913c-1.362-0.106-2.801,0.113-4.126,0.38c-0.194,0.039-0.111,0.33,0.081,0.295
		c1.353-0.247,2.67-0.261,4.024-0.336c-0.072,1.169-0.148,2.337-0.207,3.508c-0.867-0.02-1.723-0.027-2.594-0.153
		c-0.182-0.026-0.264,0.25-0.077,0.281c0.862,0.146,1.769,0.267,2.657,0.242c-0.05,1.037-0.097,2.074-0.124,3.109
		c-1.171-0.059-2.386,0.048-3.545,0.068c-0.158,0.003-0.159,0.243,0,0.246c1.155,0.02,2.367,0.127,3.536,0.069
		c-0.017,0.714-0.047,1.429-0.048,2.14c-4.138,0.093-8.281,0.417-12.412,0.649c-0.105,0.006-0.107,0.169,0,0.165
		c4.135-0.127,8.289-0.164,12.418-0.431c0.003,0.673,0.009,1.345,0.03,2.016c-6.256,0.082-12.501-0.105-18.754-0.26
		c-0.152-0.004-0.151,0.228,0,0.236c6.251,0.33,12.51,0.559,18.769,0.353c0.023,0.629,0.043,1.257,0.085,1.883
		c0.001,0.014,0.008,0.024,0.01,0.037c-0.03-0.007-0.056-0.019-0.09-0.02c-2.471-0.067-17.599,1.169-21.136-0.771
		c0.263-1.634,0.212-3.327,0.263-4.977c0.058-1.885,0.175-3.782,0.04-5.664c1.959,0.215,4.323,0.305,6.14-0.334
		c0.5-0.176,0.414-0.89-0.125-0.922c-1.058-0.064-2.181,0.157-3.237,0.255c-0.981,0.091-1.963,0.141-2.945,0.21
		c-0.212-0.2-0.602-0.209-0.663,0.156c-0.301,1.791-0.323,3.603-0.388,5.415c-0.058,1.632-0.228,3.315-0.163,4.959
		c-0.052,0.039-0.094,0.091-0.101,0.162c-0.279,2.723,2.423,2.434,4.463,2.455c5.941,0.061,11.912,0.103,17.851-0.046
		c0.284-0.007,0.427-0.221,0.431-0.438c0.329,0.128,0.764-0.027,0.735-0.476C34.474,20.019,36.591,12.512,35.128,5.315z"/>
	<path style="fill:#1D1D1B;" d="M48.919,5.779c0.171-0.295,0.107-0.749-0.293-0.803c-3.429-0.462-7.164-0.602-10.575,0.063
		c-0.211,0.041-0.264,0.222-0.22,0.387c-0.021,0.023-0.044,0.045-0.055,0.073c-0.419,1.066-0.226,2.349-0.202,3.479
		c0.024,1.151-0.116,2.424,0.285,3.514c0.086,0.234,0.351,0.31,0.533,0.202c0.391,0.232,0.937,0.205,1.392,0.235
		c0.697,0.047,1.463,0.117,2.126-0.126c-0.901,10.383-0.433,21.007-0.544,31.425c-0.006,0.611,0.761,0.714,1.047,0.325
		c0.957-0.004,1.901-0.013,2.856,0.093c0.859,0.095,1.75,0.43,2.605,0.281c0.235-0.041,0.303-0.376,0.139-0.529
		c-1.225-1.141-3.849-0.991-5.481-0.613c0.104-10.355,0.758-20.898,0.038-31.225c-0.016-0.226-0.191-0.317-0.356-0.297
		c-0.05-0.141-0.146-0.271-0.287-0.316c-0.66-0.212-1.457-0.066-2.144-0.059c-0.358,0.004-0.766-0.051-1.125,0.018
		c0.157-1.037,0.003-2.163-0.043-3.191c-0.045-1.001,0.008-2.063-0.339-3.007c3.396,0.178,6.805,0.139,10.206,0.326
		c0.053,0.003,0.098-0.011,0.144-0.023c-0.305,1.494-0.478,3.03-0.574,4.588c-1.442-0.159-2.903-0.197-4.347-0.142
		c-0.151,0.006-0.152,0.234,0,0.236c1.458,0.015,2.892,0.136,4.331,0.295c-0.041,0.78-0.047,1.568-0.056,2.355
		c-0.887-0.167-1.83-0.173-2.702-0.125c-0.164,0.009-0.166,0.259,0,0.257c0.927-0.015,1.801,0.117,2.692,0.269
		c-0.005,0.899,0.005,1.801,0.022,2.702c-0.906-0.161-1.876-0.095-2.758,0.065c-0.142,0.026-0.111,0.275,0.035,0.255
		c0.946-0.124,1.818-0.049,2.733,0.051c0.022,1.063,0.052,2.121,0.077,3.173c-1.485-0.227-3.069-0.169-4.547-0.048
		c-0.113,0.009-0.117,0.18,0,0.179c1.527-0.006,3.036,0.151,4.556,0.204c0.016,0.703,0.015,1.39,0.022,2.083
		c-0.933-0.131-1.898-0.114-2.828-0.034c-0.133,0.011-0.137,0.216,0,0.211c0.96-0.037,1.888,0.054,2.832,0.155
		c0.002,0.397,0.016,0.803,0.013,1.196c-0.002,0.214-0.005,0.428-0.007,0.642c-0.821-0.047-1.682,0.025-2.488,0.054
		c-0.147,0.005-0.147,0.223,0,0.229c0.804,0.029,1.665,0.101,2.484,0.054c-0.006,0.645-0.015,1.289-0.022,1.934
		c-1.524-0.071-3.042-0.039-4.572-0.22c-0.121-0.014-0.15,0.193-0.029,0.214c1.468,0.255,3.078,0.465,4.597,0.354
		c-0.008,0.708-0.017,1.416-0.025,2.124c-0.759,0.008-1.504,0.026-2.27-0.074c-0.129-0.017-0.16,0.206-0.031,0.228
		c0.744,0.126,1.531,0.219,2.297,0.17c-0.012,1.008-0.02,2.017-0.031,3.025c-0.913-0.146-1.833-0.255-2.748-0.373
		c-0.156-0.02-0.194,0.253-0.037,0.276c0.925,0.137,1.852,0.285,2.782,0.393c-0.009,0.818-0.013,1.637-0.02,2.455
		c-1.267,0.028-2.515,0.039-3.781-0.094c-0.177-0.019-0.171,0.251,0,0.274c1.246,0.167,2.521,0.253,3.778,0.151
		c-0.007,0.842-0.01,1.683-0.014,2.525c-0.961,0.021-1.925,0.12-2.882,0.188c-0.154,0.011-0.157,0.25,0,0.243
		c0.958-0.048,1.926-0.068,2.881-0.163c-0.003,0.661,0.004,1.322,0.003,1.983c-1.426-0.02-2.859,0.051-4.285,0.072
		c-0.084,0.001-0.084,0.129,0,0.13c1.426,0.021,2.859,0.092,4.285,0.072c0,1.087-0.007,2.174,0.006,3.261
		c0.008,0.666,1.016,0.665,1.034,0c0.173-6.704,0.123-13.419,0.166-20.125C49.234,18.023,50.073,11.597,48.919,5.779z"/>
	<path style="fill:#1D1D1B;" d="M47.932,8.041c-2.509-0.511-5.179-0.433-7.725-0.344c-0.104,0.004-0.104,0.163,0,0.162
		c2.588-0.044,5.118,0.297,7.692,0.427C48.038,8.293,48.071,8.069,47.932,8.041z"/>
</g>
<g>
</g>
<g>
</g>
<g>
</g>
<g>
</g>
<g>
</g>
<g>
</g>
<g>
</g>
<g>
</g>
<g>
</g>
<g>
</g>
<g>
</g>
<g>
</g>
<g>
</g>
<g>
</g>
<g>
</g>
</svg>
