<?xml version="1.0" encoding="iso-8859-1"?>
<!-- Generator: Adobe Illustrator 18.0.0, SVG Export Plug-In . SVG Version: 6.00 Build 0)  -->
<!DOCTYPE svg PUBLIC "-//W3C//DTD SVG 1.1//EN" "http://www.w3.org/Graphics/SVG/1.1/DTD/svg11.dtd">
<svg version="1.1" id="Capa_1" xmlns="http://www.w3.org/2000/svg" xmlns:xlink="http://www.w3.org/1999/xlink" x="0px" y="0px"
	 viewBox="0 0 50.347 50.347" style="enable-background:new 0 0 50.347 50.347;" xml:space="preserve">
<g>
	<path style="fill:#1D1D1B;" d="M33.626,1.396C24.615-1.716,13.371,0.381,6.854,7.631C0.97,14.177,0.167,24.456,6.261,31.087
		c0.083,0.091,0.186,0.128,0.291,0.134c0.066,0.05,0.147,0.081,0.247,0.06c1.053-0.219,1.991-1.195,2.814-1.862
		c0.91-0.737,2.101-1.501,2.684-2.532c0.148-0.262,0.049-0.499-0.141-0.627c0.01-0.105-0.019-0.218-0.107-0.323
		c-7.929-9.532,6.991-18.944,15.503-16.95c3.828,0.897,7.341,3.411,9.353,6.809c1.966,3.321,3.232,8.961-1.523,11.331
		c-2.942,1.467-6.059,1.226-9.154,0.528c-0.018-0.004-0.032,0.001-0.049-0.001c-0.027-0.165-0.034-0.348-0.055-0.519
		c0.056-0.024,0.117-0.037,0.173-0.063c0.12-0.055,0.032-0.233-0.087-0.206c-0.038,0.009-0.074,0.018-0.111,0.026
		c-0.059-0.571-0.085-1.167-0.101-1.768c0.026-0.039,0.02-0.092-0.002-0.136c-0.028-1.268,0.001-2.549-0.025-3.648
		c-0.057-2.345-0.007-4.694,0.03-7.04c0.004-0.24-0.206-0.384-0.414-0.399c-0.059-0.182-0.19-0.334-0.396-0.367
		c-2.602-0.423-5.602,0.066-8.132,0.736c-0.423,0.112-0.423,0.717-0.087,0.879C16.866,18,17.376,37.495,16.498,39.516
		c-0.564,0.292-1.073,0.616-1.792,0.633c-0.458,0.011-0.893-0.072-1.31-0.262c-0.367-0.168-0.544-0.359-0.96-0.25
		c-0.156,0.041-0.238,0.18-0.252,0.331c-0.097,1.082,1.861,1.452,2.642,1.443c0.771-0.009,1.776-0.263,2.377-0.844
		c0.129-0.058,0.234-0.175,0.294-0.322c0.016-0.04,0.024-0.08,0.039-0.12c0.056-0.106,0.107-0.216,0.138-0.337
		c0.007-0.026-0.004-0.052-0.002-0.078c0.789-2.299,0.758-4.724,0.614-7.154c6.603,0.41,13.273,0.749,19.892,0.57
		c-3.597,1.5-7.915,1.929-12.137,1.762c-0.053-0.007-0.105-0.009-0.158-0.004c-0.003,0-0.005,0-0.008,0
		c-0.428-0.018-0.637,0.301-0.638,0.632c-1.586-0.021-3.187,0.069-4.764,0.079c-0.179,0.001-0.179,0.277,0,0.278
		c1.62,0.01,3.265,0.103,4.894,0.074c0.006,0.009,0.01,0.02,0.017,0.028c0.017,0.498,0.031,1,0.044,1.502
		c-1.646,0.038-3.309,0.14-4.954,0.214c-0.181,0.008-0.176,0.261,0,0.278c1.606,0.151,3.353,0.138,4.965-0.101
		c0.015,0.75,0.016,1.5-0.019,2.24c-1.987-0.152-4.022,0.006-5.996,0.186c-0.2,0.018-0.205,0.331,0,0.316
		c1.996-0.145,3.988-0.097,5.983-0.162c-0.039,0.601-0.098,1.195-0.206,1.774c-2.341,0.097-4.645,0.378-7.001,0.365
		c-0.178-0.001-0.175,0.263,0,0.274c2.245,0.146,4.705,0.184,6.929-0.283c-0.139,0.633-0.326,1.249-0.592,1.837
		c-3.759,0.228-7.453,0.529-11.241,0.408c-0.123-0.004-0.12,0.181,0,0.19c3.614,0.28,7.408,0.374,11.027-0.15
		c-0.451,0.851-1.071,1.64-1.923,2.339c-3.258,2.671-7.117,1.993-10.461,0.021c0.07-1.226,0.052-2.463,0.052-3.69
		c0-0.408,0.19-3.143-0.231-3.291c0.228,0.08,0.491-0.229,0.333-0.434c-0.487-0.634-1.049-0.258-1.236,0.399
		c-0.263,0.927-0.115,2.08-0.12,3.035c-0.006,1.347-0.028,2.708,0.05,4.053c0.023,0.394,0.334,0.571,0.628,0.546
		c2.853,3.032,7.692,3.255,11.121,0.967c4.409-2.941,4.352-7.831,4.097-12.565c9.839,0.329,19.678-2.178,21.456-13.516
		C49.62,12.969,42.461,4.447,33.626,1.396z M46.638,21.575c-1.426-0.079-2.879,0.008-4.302,0.036c-0.167,0.003-0.168,0.257,0,0.26
		c1.41,0.027,2.85,0.113,4.263,0.038c-0.11,0.889-0.279,1.719-0.501,2.496c-0.039-0.016-0.083-0.02-0.132,0.012
		c-0.7,0.455-1.879,0.279-2.681,0.293c-0.841,0.015-1.681,0.031-2.522,0.049c-0.206,0.005-0.206,0.319,0,0.32
		c1.164,0.007,2.328,0.008,3.492,0.01c0.58,0.001,1.237,0.102,1.71-0.238c-0.267,0.834-0.592,1.611-0.977,2.323
		c-0.011-0.003-0.018-0.013-0.031-0.013c-2.125-0.049-4.355,0.358-6.469,0.59c-0.147,0.016-0.154,0.245,0,0.236
		c2.076-0.128,4.286-0.121,6.336-0.5c-0.562,0.972-1.231,1.83-1.989,2.583c-0.04-0.034-0.083-0.066-0.149-0.069
		c-7.574-0.273-15.168-0.087-22.738,0.243c-0.137,0.006-0.139,0.217,0,0.214c7.473-0.163,14.931-0.044,22.402,0.055
		c-0.977,0.874-2.067,1.613-3.268,2.198c-0.024-0.01-0.039-0.031-0.071-0.032c-6.909-0.235-13.831-0.184-20.743-0.379
		c-0.073-1.178-0.165-2.357-0.2-3.522c-0.137-4.545-0.068-9.092,0.086-13.636c2.32-0.115,4.7-0.116,6.976-0.432
		c-0.08,0.599-0.141,1.198-0.197,1.798c-1.411-0.048-2.845,0.154-4.189,0.584c-0.19,0.061-0.112,0.34,0.082,0.298
		c1.352-0.29,2.689-0.443,4.068-0.493c-0.057,0.673-0.101,1.346-0.132,2.02c-1.257,0.115-2.489,0.355-3.767,0.367
		c-0.219,0.002-0.22,0.341,0,0.341c1.2,0.001,2.552-0.018,3.75-0.326c-0.031,0.809-0.05,1.618-0.042,2.428
		c-1.073,0.266-2.124,0.571-3.227,0.731c-0.178,0.026-0.138,0.34,0.043,0.318c1.075-0.136,2.173-0.326,3.194-0.707
		c0.01,0.66,0.027,1.32,0.062,1.981C24.79,24.262,24.785,24.6,24.783,25c-0.973,0.076-1.945,0.179-2.912,0.283
		c-0.148,0.016-0.153,0.246,0,0.236c0.968-0.066,1.942-0.135,2.912-0.229c0.002,0.59,0.019,1.272,0.105,1.887
		c-0.872,0.202-1.736,0.379-2.665,0.419c-0.137,0.006-0.139,0.217,0,0.214c0.887-0.017,1.823-0.098,2.717-0.302
		c0.086,0.44,0.214,0.827,0.414,1.081c0.054,0.215,0.2,0.403,0.488,0.47c5.322,1.24,12.714,0.747,14.209-5.728
		c1.497-6.482-4.371-12.818-9.954-14.999c-3.294-1.287-6.899-1.382-10.225-0.441c-2.357-0.022-4.747,0.225-7.096,0.354
		c-0.209,0.012-0.212,0.334,0,0.327c1.825-0.061,3.681-0.05,5.519-0.147c-1.064,0.42-2.09,0.945-3.052,1.581
		c-1.289,0.127-2.553,0.252-3.864,0.182c-0.22-0.012-0.217,0.326,0,0.341c1.04,0.073,2.113,0.088,3.163-0.033
		c-0.523,0.388-1.03,0.801-1.506,1.255c-0.149,0.142-0.289,0.296-0.432,0.445c-1.341,0.07-2.677,0.171-4.025,0.162
		c-0.186-0.001-0.185,0.282,0,0.288c1.199,0.038,2.422,0.055,3.629-0.031c-0.7,0.791-1.322,1.663-1.839,2.583
		c-1.122,0.125-2.227,0.286-3.364,0.301c-0.154,0.002-0.154,0.237,0,0.239c1.046,0.012,2.136-0.014,3.179-0.202
		c-0.852,1.625-1.371,3.382-1.364,5.108c-0.85,0.136-1.697,0.313-2.542,0.472c-0.132,0.025-0.075,0.221,0.055,0.2
		C7.164,21.18,8.002,21.058,8.83,20.9c0.023,0.671,0.118,1.336,0.309,1.984c-1.018,0.132-2.03,0.311-3.043,0.477
		c-0.161,0.026-0.092,0.268,0.067,0.244c1.015-0.152,2.033-0.29,3.043-0.477c0.294,0.884,0.76,1.734,1.425,2.521
		c-1.389,0.14-2.728,0.289-4.147,0.167c-0.118-0.01-0.115,0.17,0,0.183c1.418,0.164,2.954,0.213,4.365-0.117
		c0.153,0.168,0.298,0.339,0.47,0.501c-0.896,0.501-1.674,1.375-2.427,2.037c-0.625,0.549-1.472,1.118-2.034,1.807
		C2.076,23.705,2.39,14.715,7.847,8.624c5.735-6.401,15.017-8.387,23.191-6.59c1.596,0.351,3.142,0.906,4.61,1.618
		c-2.539-0.017-5.086,0.1-7.622,0.158c-1.589,0.037-4.567-0.502-5.931,0.365c-0.062,0.04-0.054,0.116,0,0.157l0.107,0.081
		c0.04,0.03,0.094,0.003,0.119-0.031c0.019-0.026,0.038-0.052,0.056-0.077c0.056-0.077-0.072-0.176-0.132-0.102
		c0.454-0.551,6.674-0.005,7.453-0.013c2.259-0.022,4.529,0.005,6.786-0.112c1.5,0.812,2.904,1.794,4.158,2.93
		c-1.933-0.076-3.904,0.05-5.827,0.08c-0.174,0.003-0.174,0.268,0,0.271c2.069,0.032,4.195,0.179,6.268,0.059
		c0.827,0.794,1.592,1.648,2.264,2.566c-2.82-0.358-5.922-0.354-8.707-0.067c-0.138,0.014-0.142,0.208,0,0.218
		c2.926,0.207,6.03,0.33,8.972,0.228c0.525,0.756,1,1.544,1.403,2.369c-2.085-0.211-4.257-0.139-6.35-0.119
		c-0.16,0.002-0.157,0.237,0,0.246c2.129,0.123,4.338,0.309,6.468,0.184c0.01-0.001,0.014-0.009,0.023-0.01
		c0.333,0.717,0.624,1.454,0.855,2.214c-2.186-0.378-4.534-0.312-6.742-0.413c-0.212-0.01-0.268,0.344-0.051,0.377
		c0.443,0.068,0.584,0.087,1.028,0.133c0.037,0.004,0.067-0.008,0.088-0.028c1.916,0.184,3.889,0.424,5.781,0.312
		c0.24,0.865,0.42,1.751,0.514,2.661c-0.017-0.012-0.027-0.029-0.052-0.033c-1.571-0.22-3.182-0.274-4.764-0.365
		c-0.205-0.012-0.2,0.297,0,0.316c1.564,0.149,3.151,0.342,4.722,0.363c0.046,0.001,0.082-0.02,0.109-0.05
		C46.732,19.519,46.745,20.535,46.638,21.575z"/>
	<path style="fill:#1D1D1B;" d="M22.569,46.348c-3.134,0.061-6.312,0.186-9.437,0.438c-0.158,0.013-0.163,0.247,0,0.25
		c3.126,0.058,6.322-0.083,9.437-0.347C22.785,46.671,22.792,46.344,22.569,46.348z"/>
	<path style="fill:#1D1D1B;" d="M10.158,26.796c-0.644,0.133-1.262,0.4-1.892,0.59c-0.552,0.166-1.131,0.265-1.659,0.496
		c-0.048,0.021-0.021,0.095,0.026,0.095c0.62,0,1.24-0.196,1.834-0.358c0.601-0.164,1.226-0.325,1.772-0.63
		C10.347,26.928,10.272,26.773,10.158,26.796z"/>
	<path style="fill:#1D1D1B;" d="M9.069,17.241c-0.506,0.139-1.036,0.218-1.552,0.314c-0.288,0.054-0.806,0.044-1.045,0.239
		c-0.066,0.054-0.042,0.17,0.027,0.209c0.049,0.027,0.102,0.022,0.156,0.018c0.039-0.003,0.068-0.02,0.088-0.042
		c0.091-0.012,0.211-0.02,0.269-0.029c0.264-0.041,0.528-0.08,0.791-0.123c0.454-0.073,0.955-0.125,1.366-0.345
		C9.304,17.411,9.213,17.202,9.069,17.241z"/>
</g>
<g>
</g>
<g>
</g>
<g>
</g>
<g>
</g>
<g>
</g>
<g>
</g>
<g>
</g>
<g>
</g>
<g>
</g>
<g>
</g>
<g>
</g>
<g>
</g>
<g>
</g>
<g>
</g>
<g>
</g>
</svg>
