<?xml version="1.0" encoding="iso-8859-1"?>
<!-- Generator: Adobe Illustrator 18.0.0, SVG Export Plug-In . SVG Version: 6.00 Build 0)  -->
<!DOCTYPE svg PUBLIC "-//W3C//DTD SVG 1.1//EN" "http://www.w3.org/Graphics/SVG/1.1/DTD/svg11.dtd">
<svg version="1.1" id="Capa_1" xmlns="http://www.w3.org/2000/svg" xmlns:xlink="http://www.w3.org/1999/xlink" x="0px" y="0px"
	 viewBox="0 0 48.622 48.622" style="enable-background:new 0 0 48.622 48.622;" xml:space="preserve">
<g>
	<path style="fill:#1D1D1B;" d="M21.403,9.733c-0.85-2.577-2.393-4.787-5.1-5.585c-5.185-1.529-9.687,3.022-8.661,8.132
		c-4.636-0.251-9.726,4.283-6.761,9.07c1.36,2.194,4.047,2.866,6.462,2.912c5.276,0.101,10.297-1.885,15.647-1.391
		c0.222,0.021,0.366-0.079,0.45-0.219c0.184,0.027,0.397-0.114,0.364-0.361C23.246,18.19,22.705,13.678,21.403,9.733z M22.99,21.754
		c-4.555-0.42-8.74,0.772-13.262,1.057c-2.222,0.14-4.442,0.219-6.249-1.284c-1.579-0.508-2.013-1.581-1.302-3.219
		c-0.513-1.802,0.126-2.963,1.917-3.481c1.781-1.219,2.385-1.386,4.363-1.777c0.116-0.023,0.178-0.11,0.214-0.209
		c0.145-0.099,0.245-0.253,0.217-0.471c-0.832-6.583,5.936-8.785,9.629-5.128c-1.301-0.307-2.632-0.486-3.965-0.561
		c-0.127-0.007-0.125,0.186,0,0.196c1.462,0.12,2.88,0.371,4.299,0.701c0.268,0.308,0.52,0.642,0.743,1.02
		c-1.52-0.187-3.094-0.162-4.62-0.229c-0.127-0.005-0.126,0.189,0,0.196c1.564,0.086,3.172,0.281,4.739,0.228
		c0.21,0.383,0.396,0.801,0.552,1.253c0.22,0.637,0.41,1.285,0.589,1.937c-1.531-0.073-3.084,0.001-4.616,0.009
		c-0.103,0.001-0.103,0.16,0,0.16c1.549,0.008,3.12,0.085,4.669,0.007c0.19,0.707,0.361,1.421,0.522,2.139
		c-1.869-0.027-3.744-0.009-5.612,0.039c-0.069,0.002-0.069,0.106,0,0.108c1.882,0.048,3.772,0.067,5.655,0.039
		c0.142,0.639,0.278,1.28,0.409,1.922c-2.243,0.035-4.463,0.046-6.702-0.12c-0.091-0.007-0.09,0.133,0,0.141
		c2.232,0.202,4.495,0.297,6.733,0.131c0.132,0.653,0.263,1.306,0.397,1.958c-3.861,0.075-7.704-0.018-11.554-0.363
		c-0.068-0.006-0.067,0.099,0,0.105c3.855,0.381,7.719,0.546,11.591,0.441c0.119,0.573,0.24,1.146,0.37,1.714
		c-5.267-0.12-10.532,0.192-15.76,0.825c-0.073,0.009-0.075,0.124,0,0.116c5.266-0.547,10.516-0.751,15.804-0.759
		c0.091,0.391,0.182,0.782,0.282,1.17C23.021,21.766,23.008,21.756,22.99,21.754z"/>
	<path style="fill:#1D1D1B;" d="M35.664,7.439c2.125-4.785-3.529-8.71-7.916-6.554c-7.088,3.484-4.063,15.469-2.863,21.385
		c0.049,0.24,0.289,0.319,0.494,0.271c0.066,0.252,0.263,0.45,0.61,0.416c5.908-0.582,17.599-0.9,18.721-8.636
		C45.386,9.66,39.98,4.521,35.664,7.439z M25.989,21.617c-0.139,0.015-0.248,0.072-0.342,0.142c-0.046-0.537-0.094-1.073-0.142-1.61
		c3.336,0.051,6.707,0.175,10.043,0.043C32.372,21.037,28.875,21.308,25.989,21.617z M41.827,16.888
		c-0.015-0.03-0.038-0.055-0.081-0.057c-3.439-0.175-6.9-0.03-10.332,0.211c-0.087,0.006-0.088,0.142,0,0.137
		c3.434-0.2,6.851-0.175,10.288-0.146c-0.313,0.345-0.665,0.663-1.06,0.94c-1.309,0.919-2.872,1.56-4.532,2.045
		c-0.015-0.013-0.032-0.025-0.057-0.026c-3.504-0.168-7.051-0.024-10.56,0.029c-0.252-2.83-0.515-5.661-0.654-8.498
		c-0.094-1.919-0.087-3.476,0.432-5.342c0.176-1.707,1.053-3.01,2.63-3.908c1.648-0.715,2.979-0.839,4.018-0.414
		c-0.74-0.006-1.478,0.077-2.206,0.255c-0.118,0.029-0.068,0.207,0.05,0.181c0.888-0.2,1.755-0.25,2.637-0.187
		c0.542,0.351,0.994,0.873,1.334,1.602c-1.053,0.101-2.103,0.213-3.163,0.26c-0.119,0.005-0.12,0.188,0,0.186
		c1.084-0.024,2.185-0.069,3.267-0.208c0.206,0.494,0.373,1.061,0.495,1.711c-1.257,0.067-2.515,0.234-3.767,0.358
		c-0.112,0.011-0.114,0.187,0,0.177c1.263-0.113,2.54-0.184,3.797-0.355c0.076,0.442,0.139,0.909,0.178,1.421
		c-0.055,0.367,0.256,0.692,0.567,0.715c-0.001,0.061,0.018,0.122,0.045,0.178c-0.895,0.012-1.79,0.025-2.683,0.033
		c-0.118,0.001-0.118,0.182,0,0.184c2.243,0.02,4.492,0.065,6.736,0.027c0.772,0.164,1.518,0.482,2.233,1.079
		c0.265,0.221,0.495,0.456,0.698,0.701c-2.374-0.114-4.762-0.101-7.137-0.111c-0.107,0-0.107,0.163,0,0.167
		c2.421,0.077,4.855,0.18,7.278,0.145c0.485,0.647,0.79,1.354,0.906,2.085c-1.12,0.434-3.139-0.039-4.148-0.088
		c-1.411-0.069-2.823-0.137-4.234-0.206c-0.09-0.004-0.089,0.133,0,0.139c2,0.13,3.999,0.265,5.999,0.392
		c0.744,0.047,1.699,0.299,2.421,0.026C43.37,14.186,42.849,15.694,41.827,16.888z"/>
	<path style="fill:#1D1D1B;" d="M23.929,25.038c-0.054-0.24-0.234-0.335-0.421-0.331c-0.051-0.215-0.211-0.393-0.476-0.358
		c-6.525,0.869-16.98,2.257-18.595,10.18c-0.52,2.55,0.178,5.321,2.317,6.939c1.669,1.262,4.217,1.81,5.968,0.562
		c-1.16,5.664,5.815,7.949,9.974,5.062C30.094,41.958,25.445,31.773,23.929,25.038z M18.328,39.544
		c2.27,0.311,4.594,0.472,6.888,0.347c-0.108,0.764-0.263,1.519-0.525,2.234c-2.263,0.447-4.429,0.617-6.75,0.24
		c-0.086-0.014-0.124,0.117-0.036,0.132c2.21,0.386,4.529,0.412,6.711-0.155c-0.103,0.259-0.217,0.512-0.346,0.759
		c-2.523,4.836-10.155,5.504-10.714-1.248c-0.02-0.244-0.236-0.39-0.439-0.389c-0.041-0.05-0.095-0.09-0.164-0.096
		c-2.926-0.273-5.93-0.172-7.07-3.584c-1.035-3.098,0.829-6.168,3.209-7.984c4.018-3.066,9.228-3.228,13.957-4.406
		c0.133,0.611,0.28,1.222,0.433,1.833c-1.137-0.272-2.322-0.271-3.475-0.066c-0.107,0.019-0.061,0.18,0.045,0.163
		c1.192-0.193,2.325-0.108,3.486,0.122c0.118,0.469,0.238,0.937,0.361,1.406c-1.29-0.119-2.614,0.012-3.886,0.227
		c-0.082,0.014-0.046,0.136,0.034,0.124c1.309-0.194,2.583-0.187,3.898-0.169c0.149,0.574,0.301,1.148,0.443,1.725
		c-1.098-0.042-2.205-0.004-3.303,0.007c-0.094,0.001-0.094,0.145,0,0.146c1.111,0.011,2.232,0.051,3.343,0.007
		c0.173,0.709,0.338,1.42,0.477,2.134c-1.478-0.102-2.999,0.037-4.454,0.231c-0.088,0.012-0.091,0.152,0,0.141
		c1.506-0.183,2.986-0.17,4.488-0.184c0.131,0.692,0.244,1.386,0.319,2.086c-1.674,0.06-3.334,0.124-5.015,0.065
		c-0.083-0.003-0.082,0.124,0,0.129c1.661,0.103,3.364,0.129,5.03-0.022c0.03,0.308,0.065,0.616,0.081,0.926
		c0.019,0.364,0.013,0.739,0.012,1.112c-3.046,0.113-6.076,0.248-9.13,0.203c-0.06-0.001-0.059,0.09,0,0.093
		c3.03,0.127,6.104,0.145,9.131-0.119c-0.008,0.674-0.04,1.353-0.128,2.028c-2.312,0.011-4.589-0.031-6.897-0.299
		C18.284,39.434,18.269,39.536,18.328,39.544z"/>
	<path style="fill:#1D1D1B;" d="M47.503,25.467c-1.501-2.293-3.981-3.234-6.644-3.367c-4.67-0.232-9.896,0.844-14.48,1.729
		c-0.103,0.02-0.173,0.074-0.226,0.141c-0.255-0.06-0.574,0.199-0.514,0.511c0.861,4.421,2.336,9.051,4.051,13.219
		c0.972,2.362,2.445,4.516,5.099,5.014c4.553,0.853,8.603-2.71,7.277-6.964C47.176,35.659,50.461,29.986,47.503,25.467z
		 M34.368,32.128c2.538,0.112,5.079,0.148,7.619,0.162c1.147,0.006,2.742,0.269,4.045,0.096c-1.053,1.24-2.695,2.046-4.518,2.069
		c-0.01-0.017-0.015-0.034-0.025-0.05c-0.297-0.517-1.012-0.152-0.916,0.386c0.01,0.054,0.021,0.106,0.031,0.16
		c-1.726-0.032-3.46,0.023-5.183,0.038c-0.086,0.001-0.086,0.132,0,0.133c1.736,0.014,3.483,0.071,5.222,0.036
		c0.155,0.802,0.324,1.585,0.246,2.379c-2.445-0.189-4.93-0.067-7.372,0.125c-0.064,0.005-0.066,0.105,0,0.101
		c2.455-0.14,4.894-0.09,7.35-0.091c-0.034,0.257-0.09,0.514-0.187,0.775c-0.094,0.252-0.21,0.483-0.341,0.699
		c-0.018-0.041-0.049-0.061-0.095-0.054c-0.042,0.007-0.084,0.014-0.126,0.02c-0.077,0.012-0.057,0.135,0.018,0.135
		c-2.379,0.013-4.656,0.082-7.047-0.203c-0.08-0.009-0.099,0.129-0.019,0.141c1.5,0.227,3.014,0.354,4.531,0.39
		c0.643,0.015,1.737,0.236,2.436-0.011c-0.91,1.136-2.369,1.679-3.986,1.715c-3.929,0.087-4.989-3.52-5.95-6.54
		c-1.071-3.367-2.061-6.791-3.494-10.026c4.108-0.197,8.16-0.924,12.258-1.194c2.212-0.146,4.624,0.194,6.312,1.575
		c-0.016-0.014-0.034-0.028-0.061-0.029c-2.803-0.18-5.638-0.058-8.438,0.12c-0.089,0.006-0.09,0.143,0,0.139
		c2.817-0.117,5.622-0.053,8.438-0.056c0.094,0,0.117-0.1,0.076-0.159c0.505,0.416,0.952,0.916,1.299,1.537
		c-0.018-0.02-0.027-0.03-0.049-0.054c-0.063-0.07-0.181,0.021-0.131,0.101c0.306,0.489-1.753,0.433-1.993,0.433
		c-0.867-0.001-1.734,0.007-2.601,0.019c-1.61,0.022-3.219,0.067-4.828,0.126c-0.093,0.003-0.094,0.148,0,0.146
		c3.22-0.082,6.437-0.077,9.658-0.036c0.068,0.001,0.11-0.055,0.117-0.117c0.016-0.145,0.023-0.223,0.022-0.287
		c0.01,0.021,0.025,0.037,0.035,0.058c0.875,1.91,0.54,3.754-0.498,5.126c-0.756,0.036-1.788-0.118-2.334-0.114
		c-1.111,0.009-2.223,0.013-3.334,0.012c-2.064-0.001-4.127-0.033-6.19-0.039C34.297,32.018,34.298,32.125,34.368,32.128z"/>
	<path style="fill:#1D1D1B;" d="M22.773,44.124c-1.888,0.463-3.745,0.78-5.694,0.791c-0.052,0-0.052,0.08,0,0.08
		c1.924,0.005,3.879-0.198,5.723-0.767C22.868,44.207,22.84,44.107,22.773,44.124z"/>
	<path style="fill:#1D1D1B;" d="M20.243,10.249c-1.473-0.098-2.952-0.136-4.427-0.199c-0.113-0.005-0.112,0.169,0,0.175
		c1.475,0.081,2.951,0.187,4.427,0.232C20.378,10.462,20.376,10.258,20.243,10.249z"/>
	<path style="fill:#1D1D1B;" d="M39.216,18.519c-4.281-0.105-8.579-0.015-12.861,0.037c-0.069,0.001-0.069,0.107,0,0.108
		c4.281,0.052,8.58,0.142,12.861,0.037C39.333,18.697,39.333,18.522,39.216,18.519z"/>
	<path style="fill:#1D1D1B;" d="M42.806,14.619c-3.237,0.032-6.465,0.149-9.703,0.109c-0.086-0.001-0.085,0.13,0,0.133
		c3.222,0.121,6.484,0.191,9.703-0.029C42.941,14.823,42.944,14.618,42.806,14.619z"/>
	<path style="fill:#1D1D1B;" d="M47.008,29.877c-2.656-0.227-5.338-0.294-8.002-0.395c-0.098-0.004-0.097,0.146,0,0.152
		c2.661,0.166,5.336,0.37,8.002,0.41C47.117,30.046,47.114,29.886,47.008,29.877z"/>
</g>
<g>
</g>
<g>
</g>
<g>
</g>
<g>
</g>
<g>
</g>
<g>
</g>
<g>
</g>
<g>
</g>
<g>
</g>
<g>
</g>
<g>
</g>
<g>
</g>
<g>
</g>
<g>
</g>
<g>
</g>
</svg>
