<?xml version="1.0" encoding="iso-8859-1"?>
<!-- Generator: Adobe Illustrator 18.0.0, SVG Export Plug-In . SVG Version: 6.00 Build 0)  -->
<!DOCTYPE svg PUBLIC "-//W3C//DTD SVG 1.1//EN" "http://www.w3.org/Graphics/SVG/1.1/DTD/svg11.dtd">
<svg version="1.1" id="Capa_1" xmlns="http://www.w3.org/2000/svg" xmlns:xlink="http://www.w3.org/1999/xlink" x="0px" y="0px"
	 viewBox="0 0 48.562 48.562" style="enable-background:new 0 0 48.562 48.562;" xml:space="preserve">
<g>
	<path style="fill:#1D1D1B;" d="M42.769,17.345c-0.048-1.141-0.215-2.264-0.477-3.358c0.006-0.02,0-0.025-0.01-0.044
		c-0.878-3.631-2.881-6.917-5.573-9.394c0.085,0.01,0.169,0.02,0.254,0.031c0.102,0.013,0.126-0.162,0.024-0.18
		c-0.173-0.03-0.347-0.048-0.52-0.076c-3.816-3.388-8.966-5.153-14.344-3.937c-0.061,0.014-0.109,0.039-0.149,0.071
		C14.856,0.911,7.595,7.235,6.266,14.162c-0.987,5.141-0.189,10.881-0.117,16.083c0.075,5.437-0.775,11.793,0.482,17.097
		c0.035,0.149,0.166,0.309,0.319,0.376c-0.026,0.359,0.188,0.745,0.653,0.758c3.616,0.109,7.397,0.257,10.942-0.587
		c0.271-0.065,0.3-0.318,0.197-0.509c0.183-1.449,0.298-2.91,0.375-4.378c0.125-0.018,0.25-0.024,0.374-0.047
		c0.079-0.014,0.062-0.149-0.019-0.141c-0.117,0.012-0.232,0.018-0.348,0.028c0.085-1.697,0.112-3.402,0.125-5.107
		c0.075-0.007,0.15-0.006,0.224-0.014c0.101-0.011,0.104-0.167,0-0.16c-0.075,0.005-0.148,0.004-0.222,0.009
		c0.015-2.161,0.005-4.32,0.038-6.458c0.016-1.075-0.095-2.821-0.147-4.807c0.045-0.009,0.092-0.01,0.137-0.02
		c0.065-0.014,0.052-0.126-0.016-0.118c-0.042,0.005-0.083,0.006-0.125,0.011c-0.134-5.359,0.189-12.395,4.591-12.861
		c2.412,0.537,4.561,1.825,4.461,4.68c-0.102,2.915-3.15,4.316-5.703,3.759c-0.625-0.136-0.972,0.548-0.736,0.972
		c-0.753,4.111-0.396,8.667-0.312,12.809c0.008,0.387,0.278,0.589,0.573,0.626c0.104,0.097,0.233,0.173,0.407,0.189
		C33.607,37.402,43.25,28.724,42.769,17.345z M41.518,19.927c-3.067-0.097-6.129-0.159-9.194-0.328
		c-0.095-0.005-0.094,0.141,0,0.148c3.047,0.224,6.113,0.4,9.169,0.388c-0.133,1.133-0.367,2.222-0.708,3.255
		c-3.159-0.172-6.352-0.184-9.515-0.18c-0.078,0-0.077,0.117,0,0.12c3.141,0.142,6.311,0.269,9.456,0.236
		c-0.695,2.025-1.76,3.846-3.124,5.405c-2.044,0.059-4.073,0.147-6.12,0.074c-0.107-0.004-0.107,0.162,0,0.167
		c1.977,0.087,3.98,0.122,5.956-0.055c-0.551,0.611-1.13,1.195-1.765,1.721c-2.383,0.048-4.757,0.124-7.143,0.078
		c-0.093-0.002-0.092,0.14,0,0.143c2.287,0.093,4.597,0.126,6.884-0.017c-0.709,0.564-1.459,1.081-2.253,1.532
		c-2.666,0.306-5.313,0.516-8.005,0.486c-0.067-0.001-0.066,0.102,0,0.103c2.519,0.067,5.051-0.025,7.552-0.354
		c-2.947,1.569-6.38,2.366-9.932,2.163c0.096-3.879,0.374-8.08-0.265-11.919c3.068,0.58,6.424-1.26,6.938-4.51
		c0.577-3.645-2.043-5.807-5.228-6.133c-0.052-0.023-0.111-0.038-0.178-0.041c-0.076-0.003-0.142,0.006-0.216,0.006
		c-0.243-0.013-0.489-0.018-0.736-0.009c-0.084,0.003-0.152,0.037-0.211,0.083c-1.78,0.285-2.874,1.398-3.552,2.86
		c-1.09-0.049-2.179,0.048-3.256,0.237c-0.077,0.014-0.043,0.128,0.032,0.116c1.053-0.162,2.098-0.2,3.155-0.191
		c-0.318,0.729-0.547,1.531-0.695,2.368c-0.615-0.002-1.231,0.015-1.841,0.021c-0.094,0.001-0.094,0.145,0,0.146
		c0.6,0.006,1.206,0.022,1.811,0.021c-0.135,0.82-0.207,1.661-0.241,2.473c-0.003,0.062-0.005,0.127-0.008,0.189
		c-0.936-0.117-1.894-0.13-2.828-0.085c-0.085,0.004-0.086,0.134,0,0.133c0.953-0.013,1.883,0.065,2.819,0.162
		c-0.027,0.656-0.053,1.32-0.079,1.979c-0.981,0.097-1.941,0.064-2.932-0.166c-0.087-0.02-0.124,0.113-0.037,0.134
		c0.973,0.241,1.972,0.329,2.961,0.218c-0.043,1.056-0.086,2.104-0.127,3.168c-1.294,0.073-2.549-0.014-3.853-0.35
		c-0.066-0.017-0.093,0.082-0.028,0.102c1.252,0.369,2.572,0.538,3.874,0.437c-0.039,0.998-0.078,1.996-0.113,2.999
		c-1.951-0.149-3.905-0.259-5.858-0.366c-0.061-0.003-0.06,0.09,0,0.095c1.949,0.156,3.9,0.31,5.852,0.424
		c-0.026,0.735-0.057,1.467-0.079,2.203c-1.503-0.019-3.006,0.007-4.509,0.018c-0.071,0-0.071,0.109,0,0.11
		c1.501,0.011,3.003,0.036,4.505,0.018c-0.025,0.842-0.064,1.68-0.08,2.522c-1.474,0.079-2.92,0.059-4.399-0.167
		c-0.091-0.014-0.132,0.124-0.039,0.14c1.464,0.254,2.955,0.347,4.435,0.219c-0.019,0.985-0.04,1.971-0.043,2.954
		c-2.244,0.055-4.45-0.062-6.695-0.465c-0.071-0.013-0.103,0.096-0.03,0.11c2.219,0.428,4.471,0.636,6.725,0.556
		c-0.001,0.995-0.014,1.993,0.007,2.983c-1.39,0.069-2.777,0.108-4.174,0.041c-0.102-0.005-0.101,0.153,0,0.158
		c1.391,0.076,2.788,0.09,4.179,0.001c0.014,0.638,0.027,1.277,0.052,1.912c-1.048,0.036-2.088-0.002-3.153-0.179
		c-0.086-0.014-0.124,0.117-0.036,0.132c1.056,0.189,2.129,0.274,3.198,0.238c0.027,0.642,0.049,1.286,0.089,1.924
		c-1.809,0.229-3.549,0.324-5.394,0.13c-0.073-0.008-0.09,0.118-0.017,0.128c1.781,0.245,3.642,0.255,5.424-0.071
		c0.041,0.637,0.074,1.277,0.13,1.909c-3.373-0.245-6.795,0.027-10.178-0.032c-0.898-1.954-0.242-6.253-0.276-8.277
		c-0.032-1.908-0.078-3.815-0.12-5.723c-0.091-4.133-0.154-8.266-0.208-12.4c-0.067-5.15,0.439-9.205,4.02-13.132
		c3.274-3.591,7.316-5.696,12.171-6.161c0.147-0.014,0.258-0.077,0.336-0.162c3.253,0.288,6.379,1.173,9.093,2.622
		c-1.936-0.174-3.881-0.266-5.818-0.302c-0.058-0.001-0.058,0.089,0,0.091c2.142,0.075,4.26,0.269,6.379,0.502
		c1.763,1.015,3.332,2.282,4.608,3.814c-3.019-0.42-6.062-0.719-9.085-1.081c-0.102-0.012-0.101,0.147,0,0.16
		c3.092,0.393,6.188,0.856,9.291,1.184c0.69,0.866,1.296,1.806,1.79,2.832c-1.795-0.087-3.597-0.114-5.392-0.168
		c-0.126-0.004-0.126,0.192,0,0.196c1.826,0.067,3.657,0.161,5.485,0.191c0.363,0.786,0.671,1.613,0.904,2.491
		c-2.894-0.252-5.809-0.366-8.707-0.536c-0.083-0.005-0.082,0.123,0,0.129c2.914,0.213,5.839,0.485,8.761,0.613
		c0.271,1.083,0.442,2.232,0.493,3.454c-1.877-0.171-3.786-0.152-5.67-0.213c-0.113-0.004-0.112,0.17,0,0.175
		c1.886,0.08,3.792,0.242,5.68,0.21c0.005,0.168,0.027,0.326,0.028,0.497C41.622,18.733,41.58,19.334,41.518,19.927z"/>
	<path style="fill:#1D1D1B;" d="M39.494,25.918c-2.727-0.127-5.493-0.05-8.223,0.003c-0.084,0.002-0.084,0.129,0,0.131
		c2.729,0.053,5.496,0.13,8.223,0.003C39.582,26.051,39.582,25.922,39.494,25.918z"/>
</g>
<g>
</g>
<g>
</g>
<g>
</g>
<g>
</g>
<g>
</g>
<g>
</g>
<g>
</g>
<g>
</g>
<g>
</g>
<g>
</g>
<g>
</g>
<g>
</g>
<g>
</g>
<g>
</g>
<g>
</g>
</svg>
