<?xml version="1.0" encoding="iso-8859-1"?>
<!-- Generator: Adobe Illustrator 18.0.0, SVG Export Plug-In . SVG Version: 6.00 Build 0)  -->
<!DOCTYPE svg PUBLIC "-//W3C//DTD SVG 1.1//EN" "http://www.w3.org/Graphics/SVG/1.1/DTD/svg11.dtd">
<svg version="1.1" id="Capa_1" xmlns="http://www.w3.org/2000/svg" xmlns:xlink="http://www.w3.org/1999/xlink" x="0px" y="0px"
	 viewBox="0 0 49.936 49.936" style="enable-background:new 0 0 49.936 49.936;" xml:space="preserve">
<g>
	<path style="fill:#1D1D1B;" d="M37.412,2.171c-4.214-2.345-8.926-2.275-13.62-2.088c-6.236,0.249-12.51,0.508-18.734,0.942
		c-0.037-0.063-0.07-0.131-0.112-0.189c-0.145-0.203-0.532-0.22-0.589,0.077C4.345,0.979,4.333,1.044,4.32,1.11
		C4.299,1.22,4.35,1.372,4.48,1.392c0.047,0.007,0.095,0.014,0.142,0.021C4.634,1.415,4.645,1.41,4.658,1.409
		c0.019,0.097,0.07,0.187,0.196,0.224C4.87,1.638,4.887,1.64,4.903,1.645C4.985,2.962,4.373,6.22,4.364,7.302
		C4.35,9.235,4.34,11.168,4.332,13.1c-0.016,3.865-0.016,7.73-0.045,11.595c-0.058,7.73-0.086,15.462-0.165,23.191
		C4.12,48.148,4.25,48.32,4.424,48.422c-0.267,0.087-0.198,0.492,0.042,0.576c4.241,1.479,9.967,0.846,14.361,0.523
		c0.37-0.027,0.52-0.375,0.451-0.65c0.299,0.084,0.674-0.074,0.69-0.483c0.202-5.183,0.26-10.424,0.018-15.609
		c0.125-0.06,0.12-0.228-0.01-0.286c-0.001-0.033-0.002-0.066-0.003-0.099c8.47,2.015,21.324-1.367,24.621-10.05
		c0.045-0.119,0.034-0.225-0.011-0.312C47.888,14.797,44.215,5.956,37.412,2.171z M43.783,21.723
		c-6.086-0.153-12.199,0.133-18.286,0.247c0.847-0.223,1.666-0.532,2.422-0.971c0.563-0.326,1.011-0.707,1.372-1.13
		c0.01,0.051,0.044,0.098,0.115,0.1c4.867,0.176,9.75,0.284,14.621,0.297C43.955,20.749,43.875,21.234,43.783,21.723z
		 M20.296,11.028c3.826-1.362,9.198,0.308,9.211,4.928c0.007,2.677-1.445,3.851-3.874,4.574c-1.797,0.535-3.646,0.654-5.496,0.464
		C20.499,17.768,20.561,14.25,20.296,11.028z M44.089,19.859c-2.364-0.062-4.729-0.076-7.093-0.101
		c-2.028-0.022-4.948-0.522-6.906,0.025c0.066-0.019,0.056-0.13-0.017-0.124c-0.222,0.017-0.444,0.035-0.665,0.052
		c0.922-1.182,1.184-2.683,1.091-4.374c-0.269-4.895-6.26-6.873-10.327-5.115c-0.154-0.188-0.49-0.222-0.539,0.081
		c-0.01,0.064-0.016,0.134-0.026,0.198c-0.047,0.026-0.098,0.045-0.145,0.072c-0.302,0.175-0.19,0.522,0.053,0.629
		c-0.448,3.17-0.607,6.624-0.451,9.814c-0.487,0.264-0.592,1.079,0.075,1.178c0.03,0.004,0.062,0.007,0.092,0.011
		c0.145,0.152,0.374,0.17,0.557,0.068c1.788,0.209,3.694,0.187,5.475-0.242c-0.027,0.061-0.004,0.146,0.083,0.145
		c6.12-0.028,12.271,0.123,18.385-0.167c-0.005,0.024-0.009,0.048-0.013,0.072c-1.292,2.072-2.833,3.667-4.546,4.921
		c0.031-0.121-0.024-0.269-0.187-0.278C30.136,26.216,21.259,26,12.4,25.73c-0.143-0.004-0.142,0.214,0,0.221
		c8.849,0.462,17.712,0.977,26.57,1.201c-1.206,0.856-2.492,1.551-3.846,2.105c-7.69,0.022-15.384,0.106-23.073,0.235
		c-0.136,0.002-0.136,0.208,0,0.211c7.309,0.134,14.631,0.13,21.941-0.017c-4.507,1.568-9.623,1.836-14.622,2.019
		c-0.285,0.01-0.353,0.408-0.087,0.505c-0.001,0.005-0.003,0.008-0.004,0.013c-0.005,0.07-0.007,0.141-0.012,0.211
		c-2.426-0.151-4.952,0.031-7.352,0.263c-0.151,0.015-0.152,0.253,0,0.237c0.162-0.017,0.323-0.034,0.485-0.05
		c0.04-0.004,0.054-0.035,0.061-0.064c0.141,0.202,0.365,0.234,0.685,0.072c0.205-0.008,0.41-0.016,0.615-0.025
		c0.718-0.024,1.437-0.043,2.155-0.051c1.108-0.014,2.221,0.021,3.329-0.001c-0.031,0.505-0.06,1.01-0.087,1.516
		c-2.374,0.174-4.721,0.429-7.108,0.458c-0.145,0.002-0.145,0.224,0,0.225c2.349,0.02,4.754,0.003,7.087-0.323
		c-0.074,1.465-0.133,2.932-0.17,4.402c-1.908,0.14-3.77,0.443-5.693,0.46c-0.145,0.001-0.145,0.222,0,0.225
		c1.859,0.038,3.858,0.054,5.686-0.352c-0.019,0.807-0.048,1.613-0.057,2.42c-3.441,0.451-6.88,0.734-10.35,0.849
		c-0.131,0.004-0.132,0.204,0,0.204c3.459,0.007,6.913-0.213,10.344-0.647c-0.012,1.314-0.014,2.628-0.004,3.939
		c-0.007,0-0.01-0.007-0.017-0.007c-3.964,0.061-7.94,0.278-11.897,0.514c-0.143,0.009-0.146,0.227,0,0.225
		c3.962-0.046,7.941-0.114,11.897-0.335c0.009,0,0.012-0.009,0.021-0.01c0.006,0.603,0.006,1.208,0.016,1.809
		c0.001,0.065,0.019,0.119,0.037,0.172c-0.04-0.008-0.076-0.022-0.123-0.02c-2.623,0.086-5.233,0.171-7.857,0.044
		c-1.882-0.091-3.804-0.385-5.689-0.265c0.1-0.105,0.171-0.244,0.17-0.432c-0.041-8.695-0.046-17.395-0.032-26.09
		c0.007-4.187,0.017-8.374,0.016-12.562c0-1.781,0.586-5.363-0.063-7.482c3.159,0.757,6.463,0.053,9.674-0.203
		c4.126-0.329,8.295-0.56,12.434-0.476c4.895,0.099,9.4,1.292,12.839,4.823c-5.128-0.171-10.335,0.153-15.454,0.467
		c-0.181,0.011-0.214,0.253-0.042,0.313c0.216,0.075,0.431,0.15,0.647,0.225c0.12,0.042,0.2-0.148,0.087-0.206
		c0.572,0.29,2.154-0.102,2.889-0.125c1.393-0.044,2.785-0.085,4.178-0.117c2.586-0.059,5.181-0.025,7.763-0.165
		c0.1-0.005,0.15-0.072,0.17-0.145c0.048,0.052,0.098,0.099,0.146,0.152c0.737,0.814,1.341,1.653,1.832,2.513
		c-4.457-0.129-8.954-0.04-13.41,0.067c-0.097-0.003-0.143,0.072-0.141,0.148c-0.002,0.075,0.044,0.151,0.141,0.148
		c4.527,0.109,9.098,0.202,13.625,0.063c0.387,0.74,0.711,1.492,0.947,2.262c-3.345-0.279-6.774-0.123-10.132-0.14
		c-0.181-0.001-0.181,0.276,0,0.281c3.36,0.102,6.787,0.38,10.145,0.218c0.033-0.002,0.05-0.02,0.073-0.033
		c0.274,0.978,0.448,1.977,0.524,2.997c-4.088-0.221-8.222-0.095-12.316-0.093c-0.145,0-0.145,0.221,0,0.225
		c4.101,0.109,8.24,0.343,12.342,0.227C44.415,16.699,44.312,18.262,44.089,19.859z"/>
	<path style="fill:#1D1D1B;" d="M18.34,43.995c-2.416,0.274-4.728,0.588-7.168,0.518c-0.134-0.004-0.132,0.198,0,0.208
		c2.359,0.169,4.902,0.151,7.205-0.453C18.523,44.229,18.499,43.977,18.34,43.995z"/>
	<path style="fill:#1D1D1B;" d="M18.698,36.842c-2.943-0.193-6.036,0.139-8.944,0.603c-0.093,0.015-0.072,0.174,0.023,0.166
		c2.98-0.267,5.939-0.289,8.921-0.441C18.909,37.158,18.908,36.856,18.698,36.842z"/>
	<path style="fill:#1D1D1B;" d="M41.074,24.518c-8.708-0.781-17.48-1.071-26.221-1.076c-0.118,0-0.117,0.179,0,0.183
		c8.756,0.278,17.48,0.798,26.221,1.35C41.369,24.994,41.363,24.544,41.074,24.518z"/>
	<path style="fill:#1D1D1B;" d="M43.888,16.959c-2.732-0.024-5.489,0.268-8.222,0.355c-0.21,0.007-0.211,0.332,0,0.327
		c2.721-0.06,5.521-0.015,8.222-0.369C44.081,17.246,44.096,16.961,43.888,16.959z"/>
	<path style="fill:#1D1D1B;" d="M36.363,3.183C29.844,3.107,23.289,3.535,16.772,3.74c-0.165,0.005-0.166,0.26,0,0.257
		c6.517-0.114,13.085-0.008,19.591-0.403C36.625,3.578,36.63,3.186,36.363,3.183z"/>
</g>
<g>
</g>
<g>
</g>
<g>
</g>
<g>
</g>
<g>
</g>
<g>
</g>
<g>
</g>
<g>
</g>
<g>
</g>
<g>
</g>
<g>
</g>
<g>
</g>
<g>
</g>
<g>
</g>
<g>
</g>
</svg>
