<?xml version="1.0" encoding="iso-8859-1"?>
<!-- Generator: Adobe Illustrator 18.0.0, SVG Export Plug-In . SVG Version: 6.00 Build 0)  -->
<!DOCTYPE svg PUBLIC "-//W3C//DTD SVG 1.1//EN" "http://www.w3.org/Graphics/SVG/1.1/DTD/svg11.dtd">
<svg version="1.1" id="Capa_1" xmlns="http://www.w3.org/2000/svg" xmlns:xlink="http://www.w3.org/1999/xlink" x="0px" y="0px"
	 viewBox="0 0 49.039 49.039" style="enable-background:new 0 0 49.039 49.039;" xml:space="preserve">
<g>
	<path style="fill:#1D1D1B;" d="M29.176,0.387c-6.485-1.558-14.779,1.692-17.532,7.958c-2.687,6.114-0.665,14.58,4.774,18.479
		c-2.412,6.835-3.656,14.25-4.839,21.378c-0.122,0.736,0.783,1.172,1.222,0.515c4.046-6.057,7.798-12.323,10.913-18.914
		C39.117,29.974,45.101,4.213,29.176,0.387z M13.502,45.168c0.331-1.674,0.688-3.343,1.054-5.009
		c0.676-0.002,1.352-0.01,2.025-0.045C15.583,41.813,14.565,43.502,13.502,45.168z M36.691,17.004
		c-0.014,0.077-0.031,0.154-0.046,0.231c-0.723-0.001-2.222-0.186-2.708-0.155c-1.107,0.069-2.213,0.137-3.32,0.206
		c-2.056,0.128-4.112,0.254-6.166,0.413c-0.169,0.013-0.174,0.272,0,0.267c2.531-0.068,5.06-0.184,7.589-0.291
		c1.285-0.054,3.188,0.218,4.549-0.157c-0.119,0.551-0.257,1.093-0.437,1.612c-0.199,0.575-0.44,1.112-0.699,1.63
		c-4.245-0.238-8.586,0.169-12.775,0.839c-0.095,0.015-0.074,0.179,0.023,0.169c4.184-0.44,8.314-0.504,12.509-0.555
		c-0.548,0.997-1.19,1.9-1.932,2.691c-3.174,0.038-6.352,0.158-9.522,0.294c-0.173,0.007-0.175,0.27,0,0.271
		c3.018,0.008,6.043-0.002,9.061-0.079c-0.882,0.849-1.872,1.571-2.947,2.17c-3.719-0.198-7.468-0.165-11.187-0.203
		c-0.148-0.002-0.146,0.222,0,0.229c3.428,0.159,6.88,0.379,10.319,0.424c-1.663,0.796-3.493,1.333-5.412,1.62
		c-0.275-0.176-0.645-0.164-0.846,0.202c-1.459-0.121-2.95-0.109-4.409-0.129c-0.192-0.003-0.188,0.283,0,0.295
		c1.386,0.092,2.8,0.216,4.196,0.226c-0.364,0.701-0.739,1.395-1.108,2.091c-0.969-0.034-1.955-0.006-2.914,0.048
		c-0.192,0.011-0.192,0.288,0,0.299c0.889,0.05,1.801,0.074,2.703,0.052c-0.401,0.752-0.79,1.514-1.198,2.261
		c-1.093-0.006-2.17,0.043-3.263-0.057c-0.135-0.012-0.168,0.219-0.032,0.238c1.026,0.146,2.09,0.238,3.126,0.126
		c-0.492,0.897-0.981,1.796-1.482,2.687c-0.936,0.166-1.856,0.267-2.824,0.176c-0.157-0.015-0.151,0.223,0,0.243
		c0.861,0.111,1.751,0.125,2.607-0.034c-0.472,0.835-0.93,1.679-1.414,2.507c-0.706-0.004-1.415,0.031-2.122,0.069
		c0.958-4.359,1.973-8.704,2.764-13.095c0.073-0.407-0.297-0.63-0.59-0.531c-3.952-4.123-6.203-10.296-4.543-15.977
		c1.91-6.538,10.142-10.207,16.557-8.554c0.896,0.231,1.71,0.582,2.453,1.019c-2.016-0.268-4.08-0.254-6.091-0.043
		c-0.143,0.015-0.149,0.237,0,0.229c2.371-0.13,4.636,0.064,6.969,0.394c1.008,0.753,1.855,1.689,2.543,2.747
		c-3.946-0.92-8.13-0.932-12.135-0.56c-0.144,0.013-0.148,0.237,0,0.228c4.255-0.252,8.286,0.247,12.478,0.88
		c0.508,0.88,0.923,1.825,1.227,2.818c-3.257-0.108-6.642,0.396-9.855,0.792c-0.151,0.019-0.158,0.256,0,0.243
		c3.307-0.287,6.678-0.252,9.973-0.605c0.299,1.089,0.487,2.218,0.551,3.352c-4.464-0.261-9.054,0.159-13.502,0.473
		c-0.152,0.011-0.155,0.245,0,0.239c4.496-0.184,9.031-0.014,13.518-0.271c0.032,1.097-0.037,2.191-0.222,3.243
		C36.698,16.967,36.689,16.984,36.691,17.004z"/>
	<path style="fill:#1D1D1B;" d="M19.092,19.24c-0.025-0.089-0.052-0.177-0.078-0.267c-0.041-0.216-0.092-0.429-0.162-0.628
		c-0.011-0.031-0.031-0.054-0.047-0.081c-1.178-3.891-2.615-7.508-0.291-11.399c0.082-0.138,0.071-0.28,0.015-0.402
		c0.081-0.047,0.153-0.104,0.236-0.149c0.183-0.098,0.107-0.42-0.109-0.403c-2.927,0.232-5.368,4.458-5.684,7.108
		c-0.305,2.562,0.71,6.733,3.054,8.375c0.43,0.6,1.337,0.758,2.008,0.37c0.846-0.489,1.101-1.413,1.04-2.319
		C19.102,19.385,19.114,19.317,19.092,19.24z M17.735,20.523c-0.143,0.244-0.39,0.419-0.641,0.469
		c-3.694-3.242-3.669-9.514-0.385-13.061c-1.536,3.217-0.305,7.16,1.214,10.376c-0.015,0.051-0.026,0.105-0.023,0.169
		C17.93,19.118,18.076,19.943,17.735,20.523z"/>
</g>
<g>
</g>
<g>
</g>
<g>
</g>
<g>
</g>
<g>
</g>
<g>
</g>
<g>
</g>
<g>
</g>
<g>
</g>
<g>
</g>
<g>
</g>
<g>
</g>
<g>
</g>
<g>
</g>
<g>
</g>
</svg>
