<?xml version="1.0" encoding="iso-8859-1"?>
<!-- Generator: Adobe Illustrator 18.0.0, SVG Export Plug-In . SVG Version: 6.00 Build 0)  -->
<!DOCTYPE svg PUBLIC "-//W3C//DTD SVG 1.1//EN" "http://www.w3.org/Graphics/SVG/1.1/DTD/svg11.dtd">
<svg version="1.1" id="Capa_1" xmlns="http://www.w3.org/2000/svg" xmlns:xlink="http://www.w3.org/1999/xlink" x="0px" y="0px"
	 viewBox="0 0 49.325 49.325" style="enable-background:new 0 0 49.325 49.325;" xml:space="preserve">
<g>
	<path style="fill:#1D1D1B;" d="M44.998,18.68c0.028-8.677-7.474-16.274-15.774-17.701C22.849-0.117,15.22-0.229,8.783,0.327
		C6.08,0.561,3.936,1.17,4.252,4.031c-0.527,6.646-0.039,13.505-0.004,20.154c0.038,7.161-0.022,14.344,0.235,21.501
		c0.003,0.095,0.031,0.173,0.07,0.241c0.076,1.442,0.663,2.543,2.189,2.92c2.698,0.666,6.135,0.436,9.017,0.276
		c0.04,0.137,0.158,0.247,0.323,0.185c0.242-0.09,0.431-0.166,0.594-0.242c0.116-0.016,0.204-0.067,0.262-0.14
		c0.386-0.243,0.547-0.553,0.847-1.299c1.284-3.191,0.196-8.583,0.202-11.951c0.014-8.61,0.484-17.419-0.165-26.009
		c2.556-3.507,8.354-0.649,10.506,1.495c2.034,2.026,3.028,4.707,2.998,7.555c-0.058,5.482-3.81,9.056-8.453,11.177
		c-0.239,0.109-0.326,0.326-0.306,0.542c-1.573,0.843-2.679,2.401-1.525,4.234c1.266,2.01,4.317,2.171,6.312,1.185
		c4.486-0.273,9.12-1.193,12.725-4.025c4.05-3.183,4.926-7.726,5.235-12.633C45.332,18.922,45.188,18.753,44.998,18.68z
		 M44.095,19.868c-2.457-0.165-4.995-0.002-7.467-0.084c-0.155-0.005-0.196,0.253-0.037,0.276c2.349,0.346,5.102,0.586,7.463,0.174
		c-0.103,1.017-0.236,2.003-0.433,2.943c-2.149-0.038-4.317,0.11-6.47,0.121c-0.18,0.001-0.177,0.267,0,0.278
		c2.091,0.128,4.285,0.235,6.374,0.024c-0.402,1.735-1.018,3.328-2.01,4.741c-2.623,0.034-5.233,0.244-7.862,0.204
		c-0.188-0.003-0.187,0.284,0,0.292c2.492,0.106,5.067,0.194,7.558-0.083c-0.573,0.74-1.253,1.43-2.075,2.061
		c-0.021-0.009-0.034-0.026-0.062-0.027c-2.8-0.094-5.595,0.014-8.397-0.143c-0.222-0.013-0.219,0.328,0,0.344
		c2.637,0.198,5.344,0.382,7.99,0.176c-0.244,0.17-0.497,0.337-0.764,0.498c-0.657,0.397-1.341,0.729-2.038,1.027
		c-3.45-0.249-6.986-0.127-10.434-0.131c-0.191,0-0.19,0.289,0,0.295c3.063,0.11,6.194,0.322,9.281,0.286
		c-2.248,0.8-4.632,1.242-6.983,1.687c-0.09-0.084-0.209-0.138-0.357-0.132c-1.572,0.058-3.245,0.96-4.671-0.171
		c-1.458-1.156-0.59-2.521,0.508-3.479c0.047-0.003,0.093,0.001,0.143-0.015c7.353-2.368,11.491-10.722,7.864-17.836
		c-1.852-3.633-9.944-8.888-13.308-5.106C14.685,8.174,11.505,8.23,8.28,8.014c-0.195-0.013-0.187,0.277,0,0.299
		c3.024,0.354,6.118,0.545,9.169,0.398c-0.022,0.036-0.046,0.066-0.067,0.103c-0.179,0.008-0.352,0.13-0.371,0.373
		c-0.013,0.17-0.02,0.34-0.031,0.51c-0.03,0.081-0.064,0.155-0.091,0.24c-0.036,0.111-0.003,0.206,0.06,0.277
		c-0.012,0.192-0.019,0.385-0.03,0.577c-2.419-0.377-4.971-0.455-7.409-0.258c-0.247,0.02-0.254,0.385,0,0.39
		c2.47,0.05,4.887,0.208,7.346,0.436c0.014,0.001,0.021-0.012,0.035-0.012c-0.124,2.467-0.15,4.948-0.133,7.431
		c-1.589-0.055-3.203,0.083-4.793,0.051c-0.304-0.006-0.302,0.458,0,0.471c1.567,0.066,3.22,0.172,4.795-0.004
		c0.009,0.978,0.022,1.956,0.037,2.934c-0.021-0.018-0.036-0.039-0.07-0.046c-1.587-0.3-3.338-0.202-4.942-0.098
		c-0.241,0.016-0.247,0.38,0,0.38c1.622,0,3.275,0.168,4.892,0.091c0.051-0.002,0.093-0.024,0.125-0.057
		c0.012,0.747,0.024,1.494,0.035,2.24c-0.034-0.046-0.08-0.082-0.148-0.081c-1.697,0.03-3.37,0.222-5.073,0.174
		c-0.239-0.007-0.236,0.356,0,0.369c1.684,0.095,3.463,0.175,5.127-0.146c0.047-0.009,0.074-0.037,0.098-0.067
		c0.01,0.677,0.023,1.355,0.029,2.029c-3.069-0.441-6.201-0.409-9.275-0.045c-0.211,0.025-0.22,0.354,0,0.338
		c3.127-0.24,6.169-0.108,9.279,0.216c0.003,0.427,0.008,0.854,0.009,1.279c0.002,1.253,0.009,2.505,0.014,3.758
		c-1.403-0.371-2.992-0.272-4.415-0.089c-0.21,0.027-0.219,0.359,0,0.338c1.496-0.148,2.891,0.036,4.377,0.134
		c0.017,0.001,0.025-0.011,0.04-0.014c0.003,0.804,0.005,1.608,0.009,2.412c-0.016-0.005-0.024-0.019-0.043-0.02
		c-1.381-0.112-2.813,0.022-4.198,0.051c-0.185,0.004-0.186,0.285,0,0.288c1.385,0.029,2.817,0.163,4.198,0.051
		c0.02-0.002,0.028-0.016,0.045-0.021c0.003,0.647,0.004,1.295,0.007,1.942c0,0.033,0.002,0.078,0.003,0.114
		c-2.377-0.167-4.881-0.077-7.229,0.211c-0.15,0.019-0.161,0.241,0,0.243c2.405,0.021,4.837,0.039,7.244-0.008
		c0.022,0.467,0.062,1.046,0.104,1.701c-1.268-0.162-2.627,0.03-3.883,0.22c-0.157,0.024-0.122,0.298,0.038,0.28
		c1.287-0.147,2.562-0.072,3.846-0.155c0.008-0.001,0.013-0.008,0.02-0.01c0.041,0.646,0.08,1.348,0.104,2.064
		c-2.593-0.096-5.236-0.054-7.82,0.077c-0.183,0.009-0.183,0.275,0,0.285c2.587,0.132,5.234,0.173,7.83,0.077
		c0.012,0.544,0.017,1.091,0.001,1.623c-0.021-0.024-0.045-0.048-0.088-0.056c-1.633-0.289-3.437-0.194-5.093-0.21
		c-0.219-0.022-0.222,0.328,0,0.344c1.636,0.122,3.411,0.37,5.045,0.221c0.056-0.005,0.096-0.038,0.128-0.079
		c-0.028,0.716-0.088,1.401-0.2,2.006c-1.68,0.033-3.385,0.579-5.04,0.416c0.122,0.012,0.149-0.189,0.029-0.214
		c-0.226-0.048-0.307,0.082-0.332,0.294c-0.006,0.054,0.034,0.099,0.073,0.128c0.566,0.42,1.888,0.035,2.529-0.01
		c0.871-0.062,1.772-0.071,2.646-0.191c-0.119,0.49-0.274,0.921-0.485,1.245c-3.414-0.122-8.87,0.741-11.027-2.211
		c0.089-0.082,0.15-0.2,0.152-0.359c0.126-7.16-0.064-14.34-0.157-21.501c-0.088-6.766,0.288-13.766-0.407-20.51
		c2.572-4.644,23.045-1.906,26.345-0.897c1.706,0.521,3.206,1.263,4.538,2.167c-8.276-0.911-16.647-1.095-24.917-0.031
		c-0.135,0.017-0.144,0.225,0,0.218c8.683-0.452,17.207-0.475,25.855,0.497c0.63,0.498,1.202,1.05,1.745,1.627
		c-4.171-0.909-9.062-0.403-13.253-0.456c-0.161-0.002-0.16,0.242,0,0.25c4.554,0.216,9.24,0.1,13.753,0.775
		c0.238,0.277,0.449,0.576,0.668,0.867c-2.924-0.142-5.902,0.033-8.822,0.065c-0.231,0.003-0.231,0.356,0,0.359
		c3.042,0.033,6.147,0.228,9.187,0.05c0.371,0.529,0.719,1.075,1.039,1.642c-1.765-0.118-3.584,0.001-5.335,0.18
		c-0.187,0.019-0.196,0.307,0,0.299c1.866-0.074,3.719-0.002,5.582-0.012c0.402,0.756,0.774,1.532,1.092,2.343
		c-1.777-0.284-3.657-0.209-5.443-0.122c-0.216,0.011-0.219,0.342,0,0.338c1.875-0.041,3.727,0.163,5.596,0.186
		c0.245,0.66,0.468,1.332,0.661,2.019c-3.334-0.339-6.752-0.217-10.102-0.304c-0.166-0.004-0.164,0.249,0,0.257
		c3.36,0.158,6.775,0.533,10.137,0.434c0.032-0.001,0.047-0.02,0.07-0.03c0.283,1.06,0.507,2.148,0.674,3.254
		c0.013,0.085,0.045,0.149,0.086,0.203C44.097,19.855,44.096,19.861,44.095,19.868z"/>
	<path style="fill:#1D1D1B;" d="M16.685,29.396c-1.852-0.133-3.741,0.033-5.597,0.051c-0.163,0.002-0.163,0.252,0,0.253
		c1.856,0.017,3.745,0.184,5.597,0.051C16.913,29.734,16.914,29.412,16.685,29.396z"/>
	<path style="fill:#1D1D1B;" d="M16.517,15.666c-1.757-0.199-3.648,0.085-5.428,0.037c-0.272-0.007-0.27,0.409,0,0.422
		c1.739,0.081,3.774,0.313,5.478-0.087C16.791,15.986,16.715,15.688,16.517,15.666z"/>
	<path style="fill:#1D1D1B;" d="M16.392,12.684c-1.712-0.276-3.57-0.125-5.303-0.155c-0.279-0.005-0.277,0.42,0,0.432
		c1.71,0.074,3.54,0.339,5.243,0.167C16.563,13.106,16.666,12.728,16.392,12.684z"/>
	<path style="fill:#1D1D1B;" d="M42.4,25.453c-3.358-0.172-6.779,0.136-10.147,0.112c-0.186-0.001-0.185,0.282,0,0.288
		c3.333,0.118,6.831,0.373,10.147-0.034C42.629,25.79,42.641,25.465,42.4,25.453z"/>
</g>
<g>
</g>
<g>
</g>
<g>
</g>
<g>
</g>
<g>
</g>
<g>
</g>
<g>
</g>
<g>
</g>
<g>
</g>
<g>
</g>
<g>
</g>
<g>
</g>
<g>
</g>
<g>
</g>
<g>
</g>
</svg>
