<?xml version="1.0" encoding="iso-8859-1"?>
<!-- Generator: Adobe Illustrator 18.0.0, SVG Export Plug-In . SVG Version: 6.00 Build 0)  -->
<!DOCTYPE svg PUBLIC "-//W3C//DTD SVG 1.1//EN" "http://www.w3.org/Graphics/SVG/1.1/DTD/svg11.dtd">
<svg version="1.1" id="Capa_1" xmlns="http://www.w3.org/2000/svg" xmlns:xlink="http://www.w3.org/1999/xlink" x="0px" y="0px"
	 viewBox="0 0 49.785 49.785" style="enable-background:new 0 0 49.785 49.785;" xml:space="preserve">
<g>
	<path style="fill:#1D1D1B;" d="M26.856,22.44c-0.821-3.585-4.379-6.068-7.838-5.4c-0.027-0.09-0.084-0.167-0.22-0.189
		c-9.097-1.433-8.787,16.706,1.858,14.868C24.925,30.983,27.833,26.707,26.856,22.44z M21.127,30.424
		c-7.959,2.174-10.634-9.877-4.042-12.48c0.025,0.128,0.139,0.243,0.296,0.209c3.673-0.792,7.443,0.598,8.338,4.6
		C26.472,26.119,24.453,29.516,21.127,30.424z"/>
	<path style="fill:#1D1D1B;" d="M30.426,12.313c0.031-0.069,0.002-0.17-0.099-0.179c-0.029-0.003-0.059-0.005-0.088-0.007
		c-3.012-3.031-7.081-4.87-11.864-4.515c-0.004,0-0.006,0.004-0.01,0.005c-9.147-0.294-17.902,7.42-18.35,16.678
		c-0.426,8.811,8.076,17.099,16.557,17.847c9.843,0.868,19.467-5.769,19.334-16.067C35.84,20.941,33.837,15.852,30.426,12.313z
		 M28.075,26.575c2.255,0.205,4.589,0.189,6.851-0.027c-0.036,1.103-0.194,2.154-0.46,3.151c-2.783-0.11-5.621-0.044-8.392,0.065
		c-0.064,0.003-0.064,0.097,0,0.099c2.752,0.108,5.571,0.173,8.336,0.067c-0.607,2.125-1.704,3.992-3.15,5.551
		c-6.988-0.156-13.957-0.287-20.935-0.741c-0.071-0.004-0.07,0.105,0,0.11c6.906,0.516,13.851,0.894,20.779,0.801
		c-0.824,0.86-1.752,1.625-2.762,2.283c-6.207,0.14-12.359-0.136-18.536-0.774c-0.084-0.009-0.082,0.121,0,0.131
		c5.691,0.714,12.571,1.841,18.256,0.746c-0.051,0.01-0.062,0.063-0.047,0.104c-3.488,2.155-7.87,3.089-12.128,2.466
		c-7.547-1.104-14.76-8.437-14.528-16.312c0.276-9.405,8.949-14.848,17.357-15.813c0.149-0.017,0.255-0.09,0.325-0.184
		c3.463,0.404,6.56,1.703,9.088,3.658c-4.845-0.391-9.702-0.687-14.551-1.007c-0.099-0.007-0.098,0.146,0,0.154
		c4.967,0.401,9.937,0.829,14.911,1.153c1.239,1.013,2.346,2.174,3.261,3.49c-2.303-0.253-4.604-0.438-6.902-0.76
		c-0.113-0.016-0.164,0.156-0.048,0.175c2.345,0.383,4.744,0.733,7.121,0.823c0.659,0.983,1.222,2.04,1.676,3.16
		c-2.091-0.064-4.175-0.07-6.267-0.2c-0.084-0.005-0.081,0.12,0,0.129c2.092,0.223,4.244,0.376,6.349,0.272
		c0.389,0.997,0.703,2.038,0.913,3.126c-2.321-0.261-4.686-0.273-7.018-0.245c-0.103,0.001-0.103,0.16,0,0.16
		c2.363-0.005,4.703,0.163,7.06,0.276c0.2,1.099,0.306,2.239,0.308,3.413c0,0.092-0.007,0.18-0.009,0.271
		c-2.291,0.108-4.561,0.158-6.858,0.147C28.021,26.492,28.023,26.57,28.075,26.575z"/>
	<path style="fill:#1D1D1B;" d="M49.605,10.212c0.019-0.404,0.042-0.81,0.059-1.213c0.002-0.042-0.011-0.073-0.017-0.109
		c0.317-0.295,0.049-0.949-0.434-1.014c-2.924-0.391-6.242-0.006-9.165,0.346c-0.26,0.031-0.364,0.237-0.337,0.425
		c-0.101,0.037-0.182,0.134-0.158,0.279c0.634,3.77,1.443,7.483,1.79,11.298c0.286,3.149,0.243,6.296,0.948,9.392
		c0.031,0.138,0.119,0.204,0.218,0.223c0.002,0.163,0.09,0.325,0.27,0.356c0.613,0.107,1.236,0.13,1.853,0.206
		c0.61,0.075,1.287,0.331,1.879,0.116c0.061-0.022,0.098-0.065,0.144-0.101c0.212,0.038,0.451-0.049,0.505-0.295
		c1.4-6.415,2.111-13.111,2.434-19.684C49.717,10.418,49.716,10.256,49.605,10.212z M44,13.301c0.07-0.015,0.039-0.117-0.029-0.106
		c0.13-0.219,0.328-0.286,0.592-0.201c0.137-0.005,0.274-0.01,0.41-0.014c0.479-0.018,0.958-0.038,1.436-0.058
		c0.61-0.025,1.222-0.047,1.833-0.078c-0.067,0.586-0.13,1.171-0.196,1.757c-1.41,0.227-2.786,0.512-4.225,0.581
		c-0.123,0.006-0.124,0.197,0,0.192c1.385-0.052,2.861-0.175,4.203-0.582c-0.109,0.96-0.212,1.921-0.322,2.881
		c-1.305,0.145-2.609,0.343-3.905,0.532c-0.083,0.012-0.064,0.157,0.02,0.147c1.285-0.149,2.58-0.292,3.862-0.483
		c-0.099,0.86-0.197,1.721-0.296,2.581c-1.345,0.24-2.667,0.364-4.06,0.246c-0.131-0.011-0.128,0.189,0,0.202
		c1.332,0.14,2.71,0.107,4.029-0.178c-0.106,0.919-0.212,1.838-0.316,2.757c-1.18,0.017-2.347,0.201-3.487,0.504
		c-0.108,0.029-0.062,0.194,0.046,0.167c1.128-0.285,2.262-0.418,3.419-0.471c-0.086,0.764-0.178,1.528-0.261,2.292
		c-1.131,0.255-2.235,0.388-3.428,0.246c-0.103-0.012-0.1,0.147,0,0.16c1.122,0.15,2.298,0.127,3.4-0.164
		c-0.056,0.517-0.121,1.034-0.175,1.551c-1.081,0.153-2.153,0.384-3.226,0.587c-0.068,0.013-0.039,0.115,0.029,0.104
		c1.062-0.181,2.132-0.337,3.184-0.564c-0.056,0.528-0.117,1.057-0.17,1.585c-0.491-0.195-1.076-0.142-1.601-0.141
		c-0.62,0.001-1.243,0.013-1.854,0.116c0-0.001,0-0.002,0-0.003c-1.007-6.951-0.366-13.775-2.833-20.482
		c2.743,0.252,5.803,0.494,8.581,0.155c-0.036,0.34-0.076,0.68-0.114,1.021c-1.504-0.055-3.026,0.06-4.503,0.304
		c-0.117,0.019-0.091,0.223,0.028,0.209c1.49-0.17,2.956-0.221,4.442-0.216c-0.08,0.715-0.159,1.431-0.24,2.146
		c-0.826,0.037-1.653,0.095-2.478,0.146c-0.421,0.026-1.575-0.117-1.88,0.149C43.738,13.031,43.644,13.378,44,13.301z"/>
	<path style="fill:#1D1D1B;" d="M48.797,35.234c-0.796-2.081-3.027-2.979-5.023-2.353c-0.023-0.003-0.037-0.021-0.063-0.02
		c-2.338,0.112-3.372,3.497-3.06,5.426c0.422,2.615,3.282,3.72,5.603,2.822C48.565,40.214,49.678,37.536,48.797,35.234z
		 M47.682,37.949c-1.71,0.355-3.346,0.418-5.079,0.004c-0.095-0.023-0.136,0.123-0.041,0.146c1.648,0.411,3.367,0.483,5.016,0.082
		c-0.329,0.751-0.928,1.382-1.758,1.678c-1.683,0.6-3.645-0.137-3.944-2.031c-0.282-1.787,0.565-3.316,2.026-4.259
		c0.012-0.008,0.014-0.023,0.025-0.032c0.855-0.03,1.74,0.198,2.454,0.666c-0.78,0.024-1.557,0.108-2.334,0.261
		c-0.086,0.017-0.049,0.146,0.036,0.13c0.837-0.152,1.674-0.22,2.516-0.229c0.347,0.266,0.648,0.587,0.867,0.977
		c0.159,0.284,0.251,0.584,0.314,0.888c-1.651-0.029-3.308,0.01-4.958,0.019c-0.083,0-0.083,0.128,0,0.129
		c1.66,0.01,3.327,0.049,4.988,0.019C47.891,36.922,47.853,37.456,47.682,37.949z"/>
	<path style="fill:#1D1D1B;" d="M32.572,32.25c-4.323-0.224-8.685-0.08-13.003,0.187c-0.075,0.005-0.076,0.121,0,0.118
		c4.34-0.184,8.662-0.146,13.003-0.132C32.684,32.424,32.683,32.256,32.572,32.25z"/>
</g>
<g>
</g>
<g>
</g>
<g>
</g>
<g>
</g>
<g>
</g>
<g>
</g>
<g>
</g>
<g>
</g>
<g>
</g>
<g>
</g>
<g>
</g>
<g>
</g>
<g>
</g>
<g>
</g>
<g>
</g>
</svg>
