<?xml version="1.0" encoding="iso-8859-1"?>
<!-- Generator: Adobe Illustrator 18.0.0, SVG Export Plug-In . SVG Version: 6.00 Build 0)  -->
<!DOCTYPE svg PUBLIC "-//W3C//DTD SVG 1.1//EN" "http://www.w3.org/Graphics/SVG/1.1/DTD/svg11.dtd">
<svg version="1.1" id="Capa_1" xmlns="http://www.w3.org/2000/svg" xmlns:xlink="http://www.w3.org/1999/xlink" x="0px" y="0px"
	 viewBox="0 0 48.582 48.582" style="enable-background:new 0 0 48.582 48.582;" xml:space="preserve">
<g>
	<path style="fill:#1D1D1B;" d="M48.231,17.963c-5.211-1.281-10.967-2.322-16.374-2.497c-2.046-3.424-3.304-7.084-5.055-10.651
		c-0.489-0.996-1.416-3.245-2.699-3.711c0.074-0.228-0.173-0.525-0.455-0.482c-2.211,0.336-3.047,3.184-3.873,4.927
		c-1.487,3.137-3.025,6.488-3.552,9.94c-3.83,0.451-7.667,0.823-11.497,1.294c-1.204,0.148-4.019-0.013-4.618,1.49
		c-0.716,1.795,2.296,3.781,3.305,4.783c2.448,2.433,5.034,5.248,8.056,6.985c-0.035,0.032-0.075,0.059-0.092,0.11
		C9.64,35.424,8.555,41.499,8.391,47.06c-0.016,0.541,0.761,0.694,0.985,0.257c1.213,0.739,3.279-0.977,4.168-1.581
		c1.606-1.092,3.118-2.299,4.775-3.317c1.851-1.138,3.915-1.924,5.723-3.107c0.056-0.037,0.1-0.079,0.135-0.125
		c0.247,0.392,0.684,0.663,1.152,1.036c2.301,1.835,4.878,3.377,7.343,4.979c1.594,1.035,5.11,4.429,6.628,1.762
		c0.204,0.011,0.404-0.113,0.398-0.387c-0.106-4.183-0.593-8.298-1.67-12.347c0.55-0.285,1.076-0.602,1.554-0.985
		c0.224-0.179-0.061-0.502-0.294-0.381c-1.95,1.012-22.414,1.664-24.897,0.982c3.472-4.403,8.723-6.973,12.858-10.71
		c0.081-0.073,0.103-0.159,0.092-0.24c0.156-0.29,0.001-0.752-0.435-0.809c-2.184-0.287-4.384-0.441-6.574-0.686
		c-1.687-0.189-5.953-0.077-7.56-1.408c7.122-1.141,15.106-0.98,22.033,0.888c-2.093,2.002-4.067,3.991-6.56,5.583
		c-1.872,1.195-4.614,1.953-5.759,3.964c-0.017,0.03-0.011,0.057-0.017,0.085c-0.177,0.019-0.354,0.036-0.529,0.064
		c-0.128,0.021-0.15,0.225-0.037,0.28c1.901,0.912,4.216,0.861,6.287,1.014c2.738,0.202,5.481,0.426,8.223,0.546
		c0.129,0.006,0.229-0.029,0.316-0.079c0.31,0.147,0.728,0.022,0.706-0.426c-0.033-0.669-0.058-1.338-0.078-2.007
		c2.196-1.693,4.294-3.499,6.289-5.427c1.694-1.637,3.642-3.342,4.589-5.543C48.673,18.848,48.724,18.084,48.231,17.963z
		 M43.403,23.232c0.038-0.078,0.008-0.184-0.109-0.19c-2.612-0.151-5.252-0.053-7.87-0.148c-0.14-0.005-0.135,0.201,0,0.214
		c2.575,0.26,5.289,0.476,7.87,0.205c0.022-0.002,0.034-0.016,0.05-0.025c-0.356,0.334-0.708,0.665-1.048,0.99
		c-0.325,0.311-0.666,0.602-0.996,0.906c-0.007-0.034-0.025-0.064-0.071-0.072c-2.369-0.439-5.016-0.111-7.384,0.2
		c-0.133,0.017-0.14,0.226,0,0.215c2.431-0.208,4.873-0.015,7.292-0.194c-1.51,1.384-3.059,2.724-4.647,4.02
		c-0.096,0.078-0.131,0.177-0.138,0.279c-2.64-0.303-5.372-0.539-8.019-0.431c-0.094,0.004-0.113,0.136-0.022,0.164
		c0.153,0.048,0.306,0.095,0.458,0.142c0.042,0.013,0.069-0.05,0.03-0.071c0.33,0.175,1.087,0.067,1.495,0.095
		c0.762,0.052,1.524,0.108,2.285,0.17c1.306,0.107,2.607,0.25,3.911,0.374c-0.078,0.367-0.108,0.739-0.11,1.114
		c-2.554-0.208-5.119-0.316-7.678-0.455c-1.64-0.089-3.363-0.328-5.038-0.301c1.825-0.851,3.688-1.827,5.462-2.948
		c2.904,0.218,5.837,0.452,8.744,0.462c0.262,0.001,0.253-0.379,0-0.401c-2.763-0.241-5.568-0.282-8.349-0.325
		c2.49-1.619,4.777-3.537,6.493-5.844c2.964,0.187,5.953,0.362,8.923,0.365C44.431,22.252,43.916,22.75,43.403,23.232z
		 M45.304,21.375c-3.011-0.223-6.057-0.258-9.079-0.279c0.055-0.077,0.116-0.151,0.169-0.229c0.246-0.358-0.03-0.717-0.372-0.795
		c-0.065-0.068-0.145-0.127-0.258-0.159c-4.708-1.324-9.437-1.696-14.32-1.552c-2.879,0.084-7.686-0.651-9.847,1.571
		c-0.092,0.095-0.005,0.225,0.112,0.218c0.008,0.045,0.018,0.091,0.042,0.136c0.905,1.661,4.127,1.714,5.696,1.926
		c2.844,0.385,5.719,0.757,8.591,0.877c-2.994,1.622-5.729,3.733-8.432,5.794c-1.728,1.318-3.818,2.684-4.425,4.877
		c-0.089,0.323,0.094,0.536,0.333,0.601c0.611,1.507,6.7,1.124,7.076,1.138c4.815,0.177,11.695,1.144,16.571-0.868
		c0.13,0.777,0.257,1.555,0.383,2.333c-0.009-0.002-0.013-0.01-0.023-0.012c-2.26-0.255-4.74-0.422-7.014-0.381
		c-0.065,0.001-0.08,0.097-0.015,0.114c2.159,0.58,4.811,0.779,7.03,0.611c0.032-0.002,0.049-0.02,0.072-0.033
		c0.03,0.185,0.061,0.37,0.091,0.556c-7.45-0.28-14.919-0.295-22.373-0.349c-0.152-0.001-0.151,0.231,0,0.236
		c7.467,0.197,14.948,0.434,22.418,0.403c0.19,1.193,0.368,2.388,0.538,3.584c-2.143-0.201-4.373-0.122-6.516-0.124
		c-0.162,0-0.16,0.241,0,0.25c2.159,0.119,4.402,0.327,6.571,0.238c0.082,0.587,0.145,1.176,0.22,1.764
		c-1.04-0.025-2.072-0.01-3.119-0.128c-0.142-0.016-0.177,0.228-0.034,0.252c1.023,0.174,2.137,0.312,3.201,0.257
		c0.082,0.66,0.176,1.319,0.247,1.981c-1.544,1.524-6.565-2.903-7.937-3.8c-0.987-0.645-1.981-1.29-2.982-1.915
		c-0.672-0.419-3.164-1.351-3.372-2.109c-0.088-0.321-0.579-0.256-0.58,0.079c0,0.017,0.004,0.031,0.004,0.047
		c-0.085-0.035-0.181-0.053-0.292-0.03c-2.616,0.537-5.115,2.14-7.296,3.636c-1.175,0.806-5.311,4.876-6.838,4.52
		c1.136-5.32,1.969-10.975,2.433-16.379c0.002-0.027-0.016-0.039-0.02-0.062c0.067-0.068,0.09-0.181,0.014-0.274
		c-1.438-1.772-3.301-3.195-4.967-4.752c-1.469-1.374-5.032-3.84-5.027-5.894c-0.507-1.225,0.018-1.647,1.576-1.266
		c0.586-0.067,1.171-0.133,1.757-0.2c1.171-0.134,2.343-0.27,3.514-0.408c2.542-0.299,5.072-0.682,7.614-0.983
		c0.43-0.051,0.545-0.563,0.343-0.805c1.144-2.416,2.03-4.953,3.11-7.399c0.845-1.913,1.61-5.123,3.405-6.507
		C23.908,1.797,24.633,3,25.189,4.1c-0.918-0.035-1.847,0.046-2.747,0.192c-0.126,0.02-0.098,0.235,0.03,0.224
		c0.969-0.084,1.926-0.081,2.89-0.066c0.293,0.606,0.522,1.138,0.63,1.373c0.134,0.29,0.249,0.588,0.376,0.881
		c-0.014-0.004-0.021-0.017-0.039-0.017c-1.698-0.076-3.375-0.077-5.068-0.278c-0.129-0.015-0.16,0.209-0.031,0.228
		c1.67,0.251,3.409,0.469,5.099,0.373c0.069-0.004,0.107-0.044,0.13-0.091c0.181,0.426,0.371,0.848,0.545,1.277
		c-1.828,0.192-3.548,0.446-5.397,0.333c-0.149-0.009-0.144,0.214,0,0.228c1.77,0.186,3.742,0.24,5.471-0.25
		c0.018-0.005,0.026-0.021,0.04-0.032c0.261,0.647,0.519,1.295,0.789,1.939c0.3,0.717,0.61,1.431,0.944,2.132
		c-1.689-0.191-3.453-0.107-5.147-0.144c-0.141-0.003-0.139,0.211,0,0.218c1.741,0.09,3.553,0.327,5.297,0.236
		c0.353,0.717,0.736,1.417,1.177,2.08c-1.507-0.043-3.042,0.111-4.55,0.078c-0.136-0.003-0.135,0.204,0,0.211
		c1.545,0.077,3.218,0.214,4.768-0.003c0.254,0.361,0.51,0.72,0.804,1.055c0.237,0.27,0.601,0.147,0.764-0.101
		c1.822,0.474,3.704,0.861,5.598,1.215c-3.246-0.132-6.622-0.139-9.837,0.095c-0.062,0.004-0.06,0.088,0,0.095
		c3.456,0.396,7.204,0.402,10.672,0.139c0.094-0.007,0.141-0.077,0.143-0.148c2.961,0.524,5.953,0.942,8.864,1.287
		C46.806,19.746,46.076,20.577,45.304,21.375z"/>
	<path style="fill:#1D1D1B;" d="M37.876,39.945c-3.623-0.424-7.381-0.331-11.023-0.237c-0.109,0.003-0.109,0.166,0,0.169
		c3.666,0.083,7.359,0.371,11.023,0.329C38.048,40.203,38.038,39.964,37.876,39.945z"/>
	<path style="fill:#1D1D1B;" d="M38.578,45.347c-0.874,0.004-1.765,0.152-2.635,0.238c-0.12,0.012-0.124,0.197,0,0.19
		c0.883-0.05,1.794-0.043,2.669-0.176C38.757,45.577,38.719,45.346,38.578,45.347z"/>
	<path style="fill:#1D1D1B;" d="M46.621,18.773c-4.317-0.042-8.632,0.078-12.95,0.006c-0.159-0.003-0.158,0.239,0,0.246
		c4.303,0.201,8.649,0.33,12.95,0.033C46.802,19.045,46.806,18.775,46.621,18.773z"/>
	<path style="fill:#1D1D1B;" d="M27.771,10.742c-2.247-0.333-4.594-0.354-6.862-0.472c-0.137-0.007-0.133,0.198,0,0.211
		c2.249,0.22,4.563,0.551,6.822,0.555C27.894,11.036,27.942,10.768,27.771,10.742z"/>
</g>
<g>
</g>
<g>
</g>
<g>
</g>
<g>
</g>
<g>
</g>
<g>
</g>
<g>
</g>
<g>
</g>
<g>
</g>
<g>
</g>
<g>
</g>
<g>
</g>
<g>
</g>
<g>
</g>
<g>
</g>
</svg>
