<?xml version="1.0" encoding="iso-8859-1"?>
<!-- Generator: Adobe Illustrator 18.0.0, SVG Export Plug-In . SVG Version: 6.00 Build 0)  -->
<!DOCTYPE svg PUBLIC "-//W3C//DTD SVG 1.1//EN" "http://www.w3.org/Graphics/SVG/1.1/DTD/svg11.dtd">
<svg version="1.1" id="Capa_1" xmlns="http://www.w3.org/2000/svg" xmlns:xlink="http://www.w3.org/1999/xlink" x="0px" y="0px"
	 viewBox="0 0 48.915 48.915" style="enable-background:new 0 0 48.915 48.915;" xml:space="preserve">
<g>
	<path style="fill:#1D1D1B;" d="M41.647,6.626c0.017-0.181-0.036-0.372-0.194-0.543c-3.324-3.58-7.304-7.202-12.569-5.758
		c-4.139,1.135-8.562,4.867-11.147,8.569c0.114-1.16,0.198-2.322,0.223-3.492c0.017-0.786,0.465-2.986-0.211-3.6
		c-0.726-0.66-2.586-0.291-3.474-0.337c-2.001-0.101-3.994-0.264-5.978-0.542c-0.319-0.045-0.558,0.13-0.683,0.358
		c-0.17,0.015-0.333,0.151-0.3,0.377c1.13,7.736-0.3,15.744-0.405,23.531c-0.103,7.577,0.218,15.146,0.815,22.698
		c0.009,0.115,0.047,0.209,0.098,0.292c-0.021,0.17,0.072,0.356,0.3,0.378c2.862,0.273,6.137,0.667,8.959-0.038
		c0.261-0.065,0.356-0.261,0.338-0.457c0.158-0.006,0.308-0.11,0.31-0.323c0.009-0.764,0.004-1.533-0.007-2.304
		c0.003-0.021,0.005-0.039-0.001-0.061c-0.087-5.826-0.626-11.807-0.03-17.604c0.066-0.055,0.074-0.153,0.023-0.224
		c0.138-1.28,0.314-2.553,0.585-3.81c0.732-3.396,1.944-7.365,4.04-10.195c4.467-6.03,10.08-2.386,14.456,0.76
		c0.523,0.376,1.016-0.171,0.95-0.681c0.791-0.834,1.528-1.77,2.206-2.68c0.778-1.045,1.796-2.279,2.06-3.568
		C42.083,7.019,41.904,6.744,41.647,6.626z M39.7,8.313c-5.526-0.274-11.166-0.496-16.688-0.245c-0.105,0.005-0.103,0.153,0,0.162
		c5.432,0.477,10.997,0.502,16.458,0.465c-0.247,0.43-0.481,0.865-0.712,1.262c-0.118,0.203-0.238,0.408-0.357,0.611
		c-0.995,0.069-1.967,0.158-2.971,0.116c-0.166-0.007-0.158,0.236,0,0.253c0.897,0.097,1.839,0.132,2.744,0.018
		c-0.373,0.638-0.744,1.278-1.096,1.926c-4.687-3.37-9.264-4.76-12.97-2.532c-1.329-0.355-2.916-0.186-4.25-0.021
		c-0.138,0.017-0.144,0.234,0,0.221c1.287-0.108,2.544,0.057,3.813,0.073c-0.827,0.573-1.61,1.329-2.334,2.305
		c-1.308-0.141-2.668,0.006-3.962,0.202c-0.153,0.023-0.119,0.291,0.037,0.273c1.235-0.145,2.447-0.118,3.68-0.12
		c-0.43,0.619-0.846,1.292-1.233,2.072c-2.025-0.154-4.087-0.103-6.118-0.126c-0.161-0.002-0.16,0.242,0,0.25
		c1.973,0.09,3.972,0.247,5.947,0.221c-0.408,0.861-0.769,1.733-1.087,2.617c-1.771-0.238-3.609-0.196-5.386-0.108
		c-0.193,0.01-0.196,0.308,0,0.302c1.768-0.055,3.503,0.086,5.261,0.172c-0.296,0.856-0.56,1.72-0.788,2.592
		c-1.764-0.114-3.574-0.042-5.345-0.092c-0.116-0.003-0.148,0.189-0.028,0.207c1.69,0.251,3.567,0.43,5.277,0.241
		c-0.237,0.944-0.449,1.894-0.614,2.855c-1.887-0.011-3.805,0.25-5.688,0.382c-0.163,0.011-0.166,0.266,0,0.257
		c1.868-0.107,3.784-0.097,5.641-0.336c-0.142,0.866-0.263,1.736-0.355,2.612c-1.989-0.135-3.998-0.145-5.987-0.219
		c-0.157-0.006-0.155,0.233,0,0.243c1.974,0.118,3.962,0.302,5.943,0.362c-0.057,0.592-0.105,1.186-0.143,1.781
		c-1.337-0.08-2.715,0.032-4.05,0.055c-0.124,0.002-0.125,0.191,0,0.193c1.327,0.023,2.697,0.133,4.027,0.056
		c-0.044,0.753-0.075,1.508-0.091,2.264c-0.917-0.028-1.863,0.108-2.746,0.258c-0.164,0.028-0.092,0.27,0.068,0.247
		c0.898-0.125,1.78-0.115,2.671-0.133c-0.012,0.761-0.015,1.523-0.004,2.286c-1.949-0.011-3.901,0.034-5.85,0.054
		c-0.152,0.002-0.152,0.234,0,0.236c1.95,0.02,3.905,0.064,5.856,0.054c0.016,0.873,0.043,1.746,0.082,2.618
		c-1.097-0.055-2.244,0.055-3.314,0.066c-0.151,0.001-0.152,0.234,0,0.236c1.076,0.011,2.23,0.121,3.332,0.064
		c0.041,0.872,0.09,1.743,0.147,2.612c-2.091-0.197-4.392-0.063-6.452,0.102c-0.099,0.008-0.1,0.147,0,0.155
		c2.066,0.166,4.378,0.301,6.476,0.101c0.051,0.751,0.104,1.501,0.161,2.247c-1.319-0.084-2.699,0.065-4.013,0.104
		c-0.153,0.005-0.155,0.24,0,0.239c1.321-0.005,2.714,0.098,4.037-0.034c0.042,0.538,0.084,1.075,0.127,1.609
		c-1.209,0.002-2.431,0.097-3.639,0.088c-0.135-0.001-0.132,0.199,0,0.207c1.188,0.076,2.456,0.155,3.667,0.057
		c0.054,0.668,0.107,1.333,0.16,1.995c-0.03-0.009-0.057-0.023-0.09-0.027c-2.575-0.292-5.341,0.104-7.966,0.276
		c-0.731-8.168-1.042-16.356-0.892-24.557C8.217,16.531,9.916,8.774,8.102,2.141c1.142,0.159,2.285,0.299,3.435,0.393
		c1.355,0.11,2.771-0.048,4.109,0.115c1.045,0.127,1.079,0.194,1.311,1.275c0.146,0.678,0.007,1.533,0.004,2.218
		c-0.005,1.325-0.02,2.649-0.01,3.973c-0.033,0.056-0.071,0.113-0.103,0.169c-0.167,0.291,0.064,0.537,0.317,0.549
		c0.158,0.059,0.347,0.022,0.377-0.18c0.002-0.014,0.003-0.028,0.005-0.042c2.183-3.054,5.822-6.253,9.156-7.96
		c3.509-1.796,6.509-1.169,9.197,0.528c-2.063-0.439-4.35-0.424-6.418-0.364c-0.174,0.005-0.174,0.266,0,0.271
		c2.35,0.063,4.66,0.455,6.997,0.561c0.033,0.001,0.055-0.015,0.078-0.029c1.141,0.807,2.228,1.789,3.273,2.851
		c-4.462-0.692-8.999-0.994-13.498-1.331c-0.15-0.011-0.146,0.217,0,0.232c4.543,0.472,9.087,1.101,13.644,1.418
		c0.049,0.003,0.083-0.022,0.108-0.056c0.118,0.122,0.237,0.242,0.354,0.366c0.027,0.029,0.057,0.037,0.086,0.06
		C40.217,7.502,39.95,7.902,39.7,8.313z"/>
</g>
<g>
</g>
<g>
</g>
<g>
</g>
<g>
</g>
<g>
</g>
<g>
</g>
<g>
</g>
<g>
</g>
<g>
</g>
<g>
</g>
<g>
</g>
<g>
</g>
<g>
</g>
<g>
</g>
<g>
</g>
</svg>
