<?xml version="1.0" encoding="iso-8859-1"?>
<!-- Generator: Adobe Illustrator 18.0.0, SVG Export Plug-In . SVG Version: 6.00 Build 0)  -->
<!DOCTYPE svg PUBLIC "-//W3C//DTD SVG 1.1//EN" "http://www.w3.org/Graphics/SVG/1.1/DTD/svg11.dtd">
<svg version="1.1" id="Capa_1" xmlns="http://www.w3.org/2000/svg" xmlns:xlink="http://www.w3.org/1999/xlink" x="0px" y="0px"
	 viewBox="0 0 49.211 49.211" style="enable-background:new 0 0 49.211 49.211;" xml:space="preserve">
<g>
	<path style="fill:#1D1D1B;" d="M36.017,0.949c-0.014-0.132-0.102-0.211-0.201-0.25c-0.025-0.208-0.148-0.402-0.389-0.469
		c-4.912-1.347-11.231,3.449-13.34,8.117c0.303-2.39,0.113-5.022,0.205-7.312c0.018-0.455-0.417-0.663-0.801-0.61
		c-2.235,0.31-4.479,0.316-6.717,0.541c-0.286,0.029-0.458,0.196-0.523,0.394c-0.004-0.001-0.008-0.001-0.013-0.002
		c-0.268-0.049-0.48,0.073-0.577,0.328c-0.989,2.601-0.302,6.666-0.301,9.39c0.001,4.173,0.016,8.346,0.024,12.518
		c0.017,8.344,0.034,16.687,0.05,25.031c-0.029,0.133,0.011,0.271,0.122,0.355c0.213,0.28,0.663,0.309,0.915,0.075
		c2.2,0.024,4.39-0.023,6.59-0.119c0.314-0.014,0.621-0.266,0.604-0.605c-0.309-6.245-0.189-12.457,0.26-18.692
		c0.455-6.317,0.642-25.95,12.481-20.171c0.295,0.144,0.567,0.021,0.715-0.184c0.107-0.039,0.199-0.11,0.248-0.227
		c0.481-1.139,0.455-2.36,0.537-3.586C36.008,3.969,36.18,2.45,36.017,0.949z M22.117,17.199c-1.884-0.281-3.951-0.184-5.847-0.161
		c-0.176,0.002-0.172,0.257,0,0.271c1.867,0.147,3.898,0.382,5.772,0.235c-0.059,0.281-0.114,0.56-0.158,0.835
		c-0.101,0.629-0.185,1.262-0.266,1.897c-1.483-0.024-2.988,0.133-4.473,0.093c-0.177-0.005-0.175,0.264,0,0.274
		c1.424,0.08,2.971,0.198,4.419,0.033c-0.089,0.737-0.168,1.476-0.238,2.218c-1.549-0.06-3.156,0.078-4.706,0.109
		c-0.169,0.003-0.161,0.24,0,0.257c1.488,0.157,3.176,0.239,4.675-0.012c-0.101,1.125-0.187,2.253-0.255,3.384
		c-1.753-0.082-3.547,0.025-5.295,0.074c-0.145,0.004-0.145,0.221,0,0.225c1.741,0.049,3.528,0.155,5.275,0.075
		c-0.041,0.704-0.081,1.408-0.114,2.111c-1.195-0.134-2.44,0.013-3.622,0.197c-0.138,0.021-0.107,0.262,0.033,0.245
		c1.198-0.146,2.375-0.11,3.575-0.136c-0.031,0.664-0.063,1.329-0.091,1.992c-0.939,0.055-1.888,0.161-2.813,0.304
		c-0.095,0.015-0.071,0.167,0.022,0.166c0.921-0.015,1.859-0.071,2.778-0.174c-0.038,0.93-0.076,1.858-0.115,2.78
		c-0.94,0.023-1.884,0.116-2.829,0.071c-0.143-0.007-0.141,0.211,0,0.222c0.895,0.066,1.882,0.151,2.814,0.064
		c-0.006,0.132-0.011,0.265-0.017,0.396c-0.021,0.46-0.028,0.927-0.036,1.394c-1.788-0.069-3.602,0.032-5.386,0.051
		c-0.129,0.001-0.129,0.199,0,0.2c1.781,0.02,3.592,0.12,5.378,0.052c-0.01,0.714-0.012,1.432-0.013,2.153
		c-1.492-0.056-3,0.016-4.49,0.028c-0.149,0.001-0.149,0.231,0,0.232c1.49,0.012,2.998,0.084,4.489,0.028
		c-0.002,1.129-0.008,2.259-0.063,3.373c-1.347-0.079-2.739,0.012-4.077,0.033c-0.158,0.002-0.159,0.244,0,0.246
		c1.33,0.021,2.714,0.11,4.055,0.034c-0.029,0.51-0.052,1.023-0.108,1.524c-0.037,0.328-0.092,0.614-0.156,0.882
		c-1.56,0.208-3.079,0.323-4.671,0.173c-0.145-0.014-0.142,0.209,0,0.225c1.52,0.169,3.082,0.175,4.595-0.091
		c-0.733,2.443-2.746,2.234-5.512,2.453L14.594,25.52c-0.009-3.852-0.016-7.704-0.027-11.556c-0.004-1.605-0.009-3.21-0.017-4.815
		c-0.007-1.371-0.664-5.696,0.019-7.092c0.062,0.027,0.127,0.05,0.205,0.059c2.061,0.22,4.178-0.026,6.233-0.345
		c-0.022,0.703-0.059,1.43-0.095,2.165c-1.117-0.189-2.265-0.229-3.391-0.165C17.384,3.78,17.334,4,17.487,4.028
		c0.23,0.042,0.452,0.091,0.678,0.151c0.088,0.023,0.124-0.084,0.068-0.135c0.896,0.023,1.778,0.106,2.664,0.232
		c-0.018,0.391-0.039,0.781-0.052,1.173c-1.289-0.034-2.601,0.06-3.877,0.081c-0.161,0.003-0.161,0.247,0,0.25
		c1.272,0.021,2.58,0.114,3.864,0.082c-0.014,0.607-0.019,1.213,0.006,1.808c-0.008-0.002-0.012-0.009-0.021-0.01
		c-1.021-0.049-2.168,0.026-3.175,0.201c-0.12,0.021-0.083,0.197,0.028,0.204c1.022,0.057,2.168-0.006,3.178-0.173
		c0.044,0.819,0.134,1.62,0.313,2.377c0.067,0.28,0.473,0.262,0.549,0c0.021-0.071,0.032-0.147,0.051-0.219
		c0.14,0.074,0.318,0.065,0.4-0.112c0.24-0.521,0.525-1.029,0.838-1.527c0.021,0.022,0.05,0.038,0.091,0.037
		c1.604-0.018,3.194-0.099,4.779-0.206C24.963,9.902,22.942,13.658,22.117,17.199z M34.315,8.166
		c-0.347-0.168-0.686-0.297-1.021-0.41c0.344-0.038,0.688-0.077,1.032-0.117C34.318,7.814,34.309,7.99,34.315,8.166z M34.622,5.295
		c-0.003,0.021-0.007,0.042-0.01,0.063c-2.66,0.032-5.394,0.44-8.023,0.725c-0.143,0.016-0.149,0.237,0,0.229
		c2.617-0.145,5.355-0.193,7.966-0.581c-0.083,0.535-0.17,1.071-0.214,1.609c-0.621,0.068-1.242,0.14-1.865,0.199
		c-1.367-0.298-2.63-0.165-3.774,0.301c-1.855,0.129-3.712,0.236-5.562,0.337c2.613-3.997,7.407-7.062,12.136-6.838
		c0.017,0.001,0.028-0.006,0.044-0.007c-0.173,0.617-0.295,1.247-0.398,1.881c-1.497,0.065-3.012,0.297-4.494,0.44
		c-0.211,0.02-0.216,0.349,0,0.334c1.457-0.102,2.96-0.128,4.421-0.3C34.771,4.224,34.699,4.761,34.622,5.295z"/>
	<path style="fill:#1D1D1B;" d="M22.604,14.623c-1.717-0.504-3.804-0.439-5.58-0.424c-0.126,0.001-0.155,0.158-0.061,0.224
		c0.16,0.125,0.321,0.25,0.481,0.375c0.066,0.057,0.161-0.035,0.097-0.097c-0.503-0.491,0.43-0.2,0.765-0.175
		c0.427,0.032,0.854,0.067,1.28,0.107c0.988,0.093,1.986,0.316,2.976,0.296C22.738,14.927,22.775,14.673,22.604,14.623z"/>
	<path style="fill:#1D1D1B;" d="M23.789,11.804c-2.611-0.343-5.41-0.17-8.045-0.161c-0.164,0-0.162,0.244,0,0.253
		c2.63,0.141,5.42,0.458,8.045,0.245C24.01,12.123,24.002,11.832,23.789,11.804z"/>
</g>
<g>
</g>
<g>
</g>
<g>
</g>
<g>
</g>
<g>
</g>
<g>
</g>
<g>
</g>
<g>
</g>
<g>
</g>
<g>
</g>
<g>
</g>
<g>
</g>
<g>
</g>
<g>
</g>
<g>
</g>
</svg>
