<?xml version="1.0" encoding="iso-8859-1"?>
<!-- Generator: Adobe Illustrator 18.0.0, SVG Export Plug-In . SVG Version: 6.00 Build 0)  -->
<!DOCTYPE svg PUBLIC "-//W3C//DTD SVG 1.1//EN" "http://www.w3.org/Graphics/SVG/1.1/DTD/svg11.dtd">
<svg version="1.1" id="Capa_1" xmlns="http://www.w3.org/2000/svg" xmlns:xlink="http://www.w3.org/1999/xlink" x="0px" y="0px"
	 viewBox="0 0 48.301 48.301" style="enable-background:new 0 0 48.301 48.301;" xml:space="preserve">
<g>
	<path style="fill:#1D1D1B;" d="M19.22,0.55c-0.063-0.643-0.95-0.731-1.118-0.216C1.976,3.279-3.605,23.247,3.547,36.336
		c0.278,0.509,0.934,0.282,1.07-0.15C17.557,29.704,20.504,13.736,19.22,0.55z M10.727,9.708c2.393,0.11,4.829,0.145,7.227,0.007
		c-0.066,0.779-0.14,1.555-0.239,2.324c-2.328-0.026-4.659,0.059-6.988,0.038c-0.114-0.001-0.114,0.173,0,0.177
		c2.306,0.079,4.654,0.14,6.962-0.023c-0.234,1.772-0.551,3.517-0.983,5.215c-1.17,0.134-2.333,0.289-3.513,0.337
		c-0.695,0.028-3.388,0.354-3.895-0.119c0.059,0.056,0.139-0.027,0.088-0.088c-0.02-0.024-0.041-0.049-0.061-0.073
		c-0.026-0.031-0.069-0.021-0.096,0c-0.034,0.027-0.068,0.053-0.102,0.08c-0.035,0.027-0.023,0.079,0,0.107
		c0.461,0.581,2.272,0.323,2.915,0.328c1.538,0.011,3.099-0.083,4.615-0.367c-0.246,0.947-0.514,1.885-0.831,2.802
		c-0.01-0.005-0.01-0.022-0.023-0.021c-2.685,0.31-5.326,0.496-8.03,0.386c-0.064-0.003-0.063,0.095,0,0.099
		c2.669,0.167,5.371,0.11,8.012-0.335c-0.352,1.007-0.735,1.999-1.18,2.963c-2.417,0.055-4.833,0.147-7.248,0.238
		c-0.093,0.003-0.094,0.148,0,0.146c2.396-0.073,4.791-0.144,7.185-0.252c-0.388,0.831-0.806,1.648-1.269,2.442
		c-0.002,0-0.004-0.002-0.006-0.001c-1.682,0.418-3.333,0.642-5.067,0.522c-0.093-0.006-0.091,0.136,0,0.143
		c1.671,0.135,3.36,0.015,4.965-0.484c-0.468,0.789-0.963,1.565-1.511,2.313c-1.845,0.439-3.655,0.675-5.563,0.557
		c-0.101-0.006-0.099,0.148,0,0.156c1.799,0.148,3.632,0.018,5.376-0.465c-1.856,2.477-4.165,4.713-7.029,6.625
		c-3.738-6.977-4.21-15.386-0.476-22.509c3.116-5.943,8.271-9.097,14.142-11.73c0.087,1.958,0.092,3.909,0.015,5.84
		c-1.763-0.404-3.571-0.359-5.338-0.009c-0.101,0.02-0.057,0.169,0.042,0.153c1.772-0.304,3.475-0.236,5.243,0.06
		c0.019,0.003,0.032-0.006,0.047-0.01c-0.032,0.743-0.075,1.483-0.134,2.218c-2.415,0.003-4.833,0.06-7.249,0.064
		C10.632,9.561,10.632,9.704,10.727,9.708z"/>
	<path style="fill:#1D1D1B;" d="M45.871,14.553C43.223,7.643,37.419,2.31,30.325,0.311C29.979,0.214,29.8,0.528,29.873,0.79
		c-0.087,0.006-0.172,0.046-0.2,0.145c-3.24,11.459-0.017,31.716,13.821,34.892c0.261,0.06,0.493-0.107,0.598-0.32
		c0.124,0.008,0.255-0.029,0.374-0.136C49.412,30.917,47.988,20.078,45.871,14.553z M46.597,28.09
		c-2.136,0.252-4.201,0.385-6.349,0.205c-0.092-0.008-0.091,0.134,0,0.143c2.1,0.218,4.26,0.212,6.337-0.203
		c-0.126,0.947-0.321,1.864-0.615,2.724c-1.134,0.246-2.24,0.477-3.408,0.544c-0.09,0.005-0.091,0.145,0,0.141
		c1.112-0.045,2.265-0.168,3.341-0.48c-0.481,1.324-1.175,2.519-2.154,3.492c-0.042,0.042-0.065,0.087-0.089,0.132
		C30.148,28.872,29.338,13.999,30.105,1.056c0.005,0.002,0.007,0.006,0.012,0.008c2.803,1.12,5.385,2.626,7.634,4.503
		c-1.832-0.261-3.678-0.464-5.515-0.672c-0.091-0.01-0.114,0.148-0.022,0.162c1.961,0.286,3.928,0.586,5.898,0.804
		c0.782,0.678,1.521,1.402,2.211,2.174c-2.191-0.295-4.415-0.447-6.608-0.669c-0.139-0.014-0.137,0.202,0,0.217
		c2.287,0.257,4.59,0.598,6.89,0.765c0.891,1.034,1.699,2.146,2.404,3.347c-3.322-0.207-6.621-0.495-9.932-0.877
		c-0.095-0.011-0.118,0.152-0.023,0.168c3.328,0.546,6.72,0.862,10.095,0.977c0.333,0.584,0.657,1.175,0.942,1.799
		c0.121,0.265,0.239,0.544,0.356,0.83c-2.419,0.017-4.756-0.096-7.137-0.572c-0.12-0.024-0.172,0.159-0.051,0.185
		c2.357,0.509,4.79,0.787,7.201,0.604c0.027-0.002,0.045-0.016,0.061-0.03c0.361,0.908,0.699,1.906,1,2.957
		c-2.67-0.093-5.345-0.084-8.017-0.178c-0.079-0.003-0.078,0.118,0,0.122c2.678,0.162,5.386,0.312,8.07,0.241
		c0.236,0.844,0.455,1.711,0.629,2.609c-2.187-0.126-4.377-0.178-6.567-0.173c-1.363,0.003-3.326-0.341-4.576,0.262
		c-0.023,0.011-0.039,0.047-0.029,0.072l0.063,0.159c0.013,0.033,0.039,0.048,0.074,0.042c0.045-0.008,0.09-0.015,0.135-0.023
		c0.064-0.011,0.049-0.123-0.015-0.114c3.586-0.476,7.351-0.145,10.962,0.019c0.279,1.513,0.455,3.075,0.476,4.608
		c-3.462,0.37-6.796,0.364-10.245-0.26c-0.107-0.019-0.154,0.144-0.045,0.165c3.4,0.658,6.865,0.826,10.294,0.295
		c0.004,0.851-0.023,1.696-0.124,2.513C46.6,28.096,46.601,28.089,46.597,28.09z"/>
	<path style="fill:#1D1D1B;" d="M35.471,43.795c0.089-0.313-0.029-0.697-0.427-0.851c-5.333-2.063-8.546-5.518-11.069-10.563
		c-0.136-0.272-0.423-0.264-0.616-0.119c-0.222-0.229-0.656-0.26-0.867,0.074c-1.742,2.759-3.467,5.513-5.779,7.859
		c-1.152,1.169-2.501,1.824-3.911,2.596c-0.562,0.308-1.285,0.492-1.462,1.154c-0.069,0.259,0.161,0.429,0.395,0.395
		c0.025-0.004,0.05-0.007,0.075-0.011c0.039-0.006,0.073-0.04,0.105-0.071c3.301,3.514,8.332,4.278,12.987,3.987
		c3.532-0.22,8.886-0.334,10.588-4.02C35.556,44.082,35.535,43.928,35.471,43.795z M23.351,46.983
		c-3.94-0.007-7.217-0.99-10.465-3.061c0.109-0.041,0.217-0.094,0.325-0.164c0.241-0.092,0.481-0.189,0.719-0.29
		c0.563-0.24,1.123-0.489,1.655-0.792c1.169-0.667,2.092-1.571,2.978-2.574c1.777-2.013,3.82-4.311,4.745-6.887
		c0.505,1.923,1.498,3.737,2.8,5.334c-1.464-0.158-2.949-0.166-4.415-0.081c-0.094,0.006-0.095,0.152,0,0.148
		c1.544-0.07,3.059,0.008,4.589,0.138c0.644,0.764,1.352,1.482,2.122,2.127c-2.08-0.262-4.213-0.255-6.293-0.144
		c-0.074,0.004-0.075,0.119,0,0.116c2.228-0.086,4.401,0.085,6.606,0.268c0.72,0.576,1.475,1.106,2.266,1.556
		c-3.305-0.079-6.619-0.007-9.923,0.017c-0.072,0-0.072,0.111,0,0.112c3.39,0.025,6.789,0.102,10.179,0.013
		c1,0.547,2.039,0.991,3.094,1.298C31.747,46.785,26.833,46.989,23.351,46.983z"/>
	<path style="fill:#1D1D1B;" d="M9.455,30.704c-1.748,0.537-3.439,1.023-5.265,1.228c-0.077,0.009-0.078,0.131,0,0.122
		c1.803-0.189,3.632-0.537,5.301-1.266C9.54,30.767,9.505,30.688,9.455,30.704z"/>
	<path style="fill:#1D1D1B;" d="M17.052,15.249c-1.474-0.047-2.953-0.009-4.428,0.005c-0.113,0.001-0.113,0.174,0,0.175
		c1.475,0.014,2.953,0.052,4.428,0.005C17.171,15.431,17.171,15.253,17.052,15.249z"/>
	<path style="fill:#1D1D1B;" d="M33.714,44.416c-4.723,0.333-9.405,0.483-14.138,0.257c-0.08-0.004-0.079,0.12,0,0.124
		c4.707,0.292,9.443,0.292,14.138-0.191C33.834,44.594,33.838,44.407,33.714,44.416z"/>
	<path style="fill:#1D1D1B;" d="M46.357,22.866c-1.752-0.071-3.507-0.067-5.261-0.127c-0.894-0.03-4.874,0.271-5.446-0.364
		c0.052,0.057,0.131-0.026,0.083-0.083c-0.025-0.031-0.05-0.062-0.076-0.092c-0.015-0.019-0.055-0.025-0.075-0.01
		c-0.043,0.033-0.086,0.066-0.129,0.099c-0.038,0.029-0.045,0.071-0.014,0.109c0.59,0.711,2.819,0.411,3.635,0.457
		c2.42,0.139,4.858,0.258,7.282,0.17C46.459,23.021,46.459,22.87,46.357,22.866z"/>
</g>
<g>
</g>
<g>
</g>
<g>
</g>
<g>
</g>
<g>
</g>
<g>
</g>
<g>
</g>
<g>
</g>
<g>
</g>
<g>
</g>
<g>
</g>
<g>
</g>
<g>
</g>
<g>
</g>
<g>
</g>
</svg>
