<?xml version="1.0" encoding="iso-8859-1"?>
<!-- Generator: Adobe Illustrator 18.0.0, SVG Export Plug-In . SVG Version: 6.00 Build 0)  -->
<!DOCTYPE svg PUBLIC "-//W3C//DTD SVG 1.1//EN" "http://www.w3.org/Graphics/SVG/1.1/DTD/svg11.dtd">
<svg version="1.1" id="Capa_1" xmlns="http://www.w3.org/2000/svg" xmlns:xlink="http://www.w3.org/1999/xlink" x="0px" y="0px"
	 viewBox="0 0 47.071 47.071" style="enable-background:new 0 0 47.071 47.071;" xml:space="preserve">
<g>
	<path style="fill:#1D1D1B;" d="M46.678,17.371c-2.914-0.524-5.94-0.407-8.895-0.476c-2.751-0.064-5.646-0.363-8.357,0.192
		c-1.661-5.539-3.397-11.066-5.262-16.539c-0.164-0.481-0.854-0.51-1.006,0c-1.744,5.844-4.283,11.474-6.425,17.18
		c-0.004,0.01-0.001,0.019-0.004,0.028c-5.288-0.512-10.719-0.339-16.031-0.602c-0.682-0.034-0.654,0.973,0,1.044
		c5.312,0.575,11.009,1.127,16.33,0.448c0.367-0.047,0.489-0.39,0.364-0.631c0.002-0.003,0.004-0.004,0.006-0.007
		c1.659-3.202,2.974-6.498,4.189-9.841c1.295-0.101,2.555-0.03,3.835,0.145c0.212,0.683,0.422,1.368,0.637,2.05
		c-1.497-0.096-3.002-0.129-4.499-0.188c-0.106-0.004-0.105,0.159,0,0.165c1.517,0.076,3.04,0.182,4.56,0.218
		c0.305,0.97,0.606,1.941,0.915,2.909c-1.737-0.204-3.484-0.345-5.224-0.513c-0.094-0.009-0.092,0.136,0,0.146
		c1.759,0.187,3.519,0.402,5.282,0.55c0.29,0.907,0.572,1.817,0.866,2.722c-1.881-0.163-3.767-0.286-5.65-0.425
		c-0.109-0.008-0.108,0.16,0,0.169c1.903,0.155,3.808,0.326,5.713,0.455c0.163,0.502,0.318,1.007,0.483,1.507
		c0.217,0.66,1.177,0.448,1.142-0.167c2.42,0.507,5,0.353,7.461,0.417c2.207,0.057,4.458,0.245,6.684,0.239
		c-1.021,0.593-2.016,1.244-2.982,1.941c-0.003-0.001-0.004-0.004-0.008-0.004c-4.238-0.423-8.501-0.665-12.75-0.972
		c-0.101-0.007-0.099,0.148,0,0.156c4.159,0.354,8.322,0.772,12.49,1.02c-0.907,0.666-1.79,1.369-2.64,2.11
		c0.004-0.053-0.027-0.111-0.096-0.115c-5.158-0.338-10.335-0.491-15.5-0.709c-0.084-0.003-0.084,0.126,0,0.131
		c5.161,0.28,10.329,0.623,15.495,0.782c-1.083,0.951-2.118,1.956-3.095,3.002c-4.193-0.314-8.399-0.534-12.598-0.74
		c-0.086-0.004-0.086,0.11-0.019,0.138c0.234,0.098,0.469,0.197,0.703,0.295c0.048,0.02,0.083-0.062,0.036-0.085
		c0.31,0.153,1.829-0.027,2.383,0.009c1.207,0.08,2.414,0.157,3.62,0.236c1.895,0.123,3.791,0.252,5.688,0.352
		c-0.733,0.794-1.44,1.606-2.102,2.438c-0.145,0.049-0.273,0.142-0.374,0.259c-3.987-0.429-7.979-0.832-11.971-1.203
		c-0.061-0.006-0.06,0.088,0,0.095c3.946,0.467,7.897,0.903,11.85,1.313c-0.05,0.124-0.079,0.26-0.048,0.421
		c0.139,0.735,0.297,1.463,0.471,2.185c-4.901-0.66-9.875-1.096-14.802-1.492c-0.069-0.006-0.066,0.097,0,0.105
		c4.925,0.625,9.902,1.226,14.854,1.584c0.469,1.909,1.061,3.776,1.835,5.601c0.076,0.179,0.158,0.355,0.237,0.532
		c-2.701-0.552-5.424-1.022-8.135-1.514c-0.089-0.016-0.127,0.118-0.037,0.136c2.754,0.548,5.51,1.131,8.278,1.614
		c0.458,0.993,0.964,1.961,1.444,2.937c-1.703-0.214-3.349-0.543-4.997-1.082c-2.288-1.641-4.597-3.247-6.986-4.703
		c-0.248-0.166-0.586-0.214-0.879,0.016c-0.463,0.363-0.941,0.705-1.408,1.062c-2.329-0.065-4.617-0.242-6.928-0.66
		c-0.116-0.021-0.167,0.155-0.049,0.179c2.186,0.443,4.417,0.708,6.65,0.727c-0.948,0.721-1.89,1.45-2.851,2.152
		c-1.753,0.121-3.499,0.195-5.266,0.172c-0.089-0.001-0.087,0.132,0,0.137c1.622,0.102,3.261,0.088,4.886-0.038
		c-0.928,0.673-1.853,1.347-2.798,1.997c-0.027,0.018-0.057,0.041-0.084,0.06c-1.34,0.054-2.682,0.125-4.01,0.259
		c-0.066,0.007-0.069,0.106,0,0.105c1.224-0.002,2.455-0.06,3.684-0.133c-1.702,1.22-3.843,2.994-5.895,3.784
		c1.926-5.39,4.045-10.823,5.407-16.367c0.028-0.116-0.001-0.221-0.059-0.307c0.03-0.134,0.005-0.275-0.124-0.381
		c-4.236-3.478-8.755-7.452-13.725-9.812c-0.447-0.213-0.838,0.423-0.394,0.674c4.789,2.706,8.924,6.641,13.454,9.769
		c-2.612,5.506-4.425,11.503-6.334,17.278c-0.176,0.532,0.367,0.958,0.854,0.854c2.84-0.607,5.558-3.003,7.911-4.611
		c2.696-1.843,5.315-3.79,7.89-5.798c4.346,3.869,9.407,7.089,14.215,10.324c0.539,0.363,1.053-0.235,0.979-0.752
		c-0.386-2.666-1.625-4.79-2.773-7.185c-1.489-3.103-2.462-6.301-3.046-9.682c0.565,0.057,1.129,0.121,1.694,0.177
		c0.136,0.013,0.133-0.196,0-0.211c-0.579-0.065-1.159-0.122-1.737-0.185c3.921-3.974,8.179-7.175,12.871-10.198
		c0.129-0.083,0.202-0.189,0.249-0.3c0.038-0.004,0.075-0.005,0.113-0.009C47.09,18.38,47.332,17.488,46.678,17.371z M21.654,7.978
		c0.672-1.856,1.315-3.726,1.969-5.603c0.557,1.909,1.14,3.812,1.729,5.712C24.128,7.9,22.888,7.876,21.654,7.978z M37.49,44.685
		c-2.029-1.418-4.034-2.89-6.051-4.342c1.518,0.514,3.099,0.872,4.697,1.013C36.662,42.438,37.148,43.532,37.49,44.685z"/>
	<path style="fill:#1D1D1B;" d="M32.576,34.504c-5.534-1.031-11.146-1.567-16.77-1.75c-0.101-0.003-0.1,0.152,0,0.156
		c5.621,0.254,11.16,0.9,16.714,1.798C32.652,34.729,32.711,34.529,32.576,34.504z"/>
</g>
<g>
</g>
<g>
</g>
<g>
</g>
<g>
</g>
<g>
</g>
<g>
</g>
<g>
</g>
<g>
</g>
<g>
</g>
<g>
</g>
<g>
</g>
<g>
</g>
<g>
</g>
<g>
</g>
<g>
</g>
</svg>
