<?xml version="1.0" encoding="iso-8859-1"?>
<!-- Generator: Adobe Illustrator 18.0.0, SVG Export Plug-In . SVG Version: 6.00 Build 0)  -->
<!DOCTYPE svg PUBLIC "-//W3C//DTD SVG 1.1//EN" "http://www.w3.org/Graphics/SVG/1.1/DTD/svg11.dtd">
<svg version="1.1" id="Capa_1" xmlns="http://www.w3.org/2000/svg" xmlns:xlink="http://www.w3.org/1999/xlink" x="0px" y="0px"
	 viewBox="0 0 49.505 49.505" style="enable-background:new 0 0 49.505 49.505;" xml:space="preserve">
<g>
	<path style="fill:#1D1D1B;" d="M45.291,0.617c-0.084-0.357-0.344-0.663-0.762-0.611C37.341,0.903,29.807,3.17,25.315,9.064
		c0.027-0.7,0.014-1.406,0.039-2.083c0.055-1.498,0.26-3.071-0.035-4.546c-0.055-0.276-0.262-0.403-0.486-0.417
		c-0.118-0.133-0.282-0.232-0.501-0.252C18.369,1.233,11.087,0.22,5.261,1.892C5.238,1.899,5.227,1.919,5.208,1.931
		c-0.034,0.012-0.06,0.033-0.083,0.062C5.123,1.995,5.122,1.997,5.12,1.999C5.109,2.015,5.092,2.026,5.086,2.046
		C3.059,8.724,4.053,17.197,4.009,24.136c-0.052,7.989,0.066,15.976,0.317,23.961c0.004,0.138,0.047,0.25,0.104,0.347
		c-0.006,0.208,0.129,0.419,0.41,0.437c7.316,0.464,14.668,0.342,21.994,0.623c0.385,0.015,0.582-0.258,0.606-0.554
		c0.215,0.047,0.478-0.086,0.475-0.355c-0.069-6.658-1.575-15.445,1.845-21.538c3.903-3.316,9.674-3.01,14.566-2.405
		c0.371,0.046,0.598-0.25,0.641-0.573c0.172-0.077,0.31-0.234,0.325-0.482c0.426-7.413,0.36-14.907,0.411-22.333
		C45.704,0.932,45.524,0.722,45.291,0.617z M32.071,6.709c4.04-0.344,8.021-0.288,12.059-0.158
		c-0.013,1.095-0.029,2.188-0.039,3.284c-4.284-0.229-8.606-0.127-12.896-0.153c-0.202-0.001-0.201,0.308,0,0.313
		c4.288,0.107,8.604,0.343,12.893,0.246c-0.007,0.789-0.018,1.577-0.022,2.366c-0.006-0.05-0.038-0.097-0.104-0.097
		C35.977,12.467,27.984,12.516,20,12.72c-0.147,0.004-0.148,0.227,0,0.228c7.986,0.064,15.979-0.028,23.962-0.213
		c0.066-0.002,0.097-0.049,0.104-0.099c-0.009,1.981-0.01,3.962,0.016,5.941c-0.025-0.037-0.061-0.066-0.119-0.067
		c-8.672-0.25-17.386,0.03-26.062,0.053c-0.147,0-0.147,0.227,0,0.229c8.671,0.079,17.395,0.351,26.062,0.031
		c0.062-0.002,0.098-0.035,0.122-0.076c0.011,0.823,0.015,1.648,0.035,2.47c-10.126-0.476-20.281-0.431-30.405,0.069
		c-0.079,0.004-0.08,0.124,0,0.123c10.143-0.183,20.269-0.127,30.412,0.104c0.016,0.593,0.018,1.187,0.04,1.778
		c-3.806-0.649-9.858-0.98-13.462,1.441c-4.311-0.219-8.662-0.102-12.977-0.126c-0.131-0.001-0.131,0.201,0,0.204
		c4.154,0.11,8.338,0.345,12.497,0.291c-0.61,0.487-1.143,1.056-1.549,1.746c-0.19,0.252-0.352,0.521-0.5,0.798
		c-0.025-0.039-0.062-0.07-0.119-0.075c-4.576-0.432-9.24-0.302-13.826-0.097c-0.124,0.005-0.125,0.197,0,0.193
		c4.625-0.136,9.207,0.101,13.826,0.22c0,0,0.001,0,0.001,0c-0.423,0.872-0.682,1.838-0.853,2.833
		c-4.434-0.074-8.893,0.108-13.324,0.226c-0.16,0.004-0.161,0.25,0,0.25c4.413,0,8.856,0.061,13.267-0.127
		c-0.168,1.093-0.256,2.204-0.374,3.236c-0.013-0.06-0.056-0.115-0.128-0.113c-3.038,0.083-6.043,0.434-9.093,0.405
		c-0.138-0.001-0.138,0.211,0,0.215c3.001,0.087,6.163,0.177,9.129-0.35c0.044-0.008,0.069-0.036,0.083-0.069
		c-0.105,0.918-0.186,1.843-0.252,2.771c-4.83-0.192-9.725,0.125-14.557,0.238c-0.149,0.003-0.15,0.233,0,0.232
		c4.825-0.018,9.72,0.163,14.535-0.159c-0.108,1.64-0.155,3.289-0.094,4.932c-4.696-0.078-9.396,0.05-14.094-0.043
		c-0.127-0.003-0.126,0.192,0,0.197c4.689,0.185,9.425,0.377,14.116,0.15c0.034,0.766,0.08,1.531,0.161,2.292
		c-6.405,0.261-12.775,0.151-19.175-0.198c-0.101-0.006-0.097,0.145,0,0.155c6.263,0.616,12.841,1.035,19.034,0.11
		c-0.149,0.022-0.107,0.253,0.034,0.256c0.05,0.001,0.099,0.002,0.149,0.003c0.116,0.997,0.268,1.988,0.479,2.969
		c-0.076-0.037-0.164-0.061-0.266-0.066c-6.994-0.316-14.059-0.684-21.057-0.254c-0.251-7.944-0.371-15.89-0.323-23.838
		c0.042-6.903,1.416-14.9,0.072-21.687c5.924,1.025,12.415,0.319,18.453,0.782c-0.173,0.873-0.21,1.79-0.227,2.69
		c-0.022-0.017-0.046-0.033-0.079-0.033c-2.218-0.007-4.422,0.226-6.648,0.163c-0.168-0.005-0.167,0.252,0,0.26
		c2.19,0.106,4.517,0.233,6.687-0.133c0.016-0.003,0.022-0.016,0.034-0.022c-0.004,0.278-0.008,0.554-0.013,0.826
		c-0.012,0.56-0.043,1.14-0.047,1.721c-1.702,0.275-3.345,0.358-5.084,0.154c-0.123-0.014-0.152,0.197-0.029,0.217
		c1.681,0.286,3.433,0.292,5.116-0.022c0.011,0.838,0.095,1.669,0.395,2.434c0.147,0.375,0.74,0.393,0.812-0.006
		c0.046-0.118,0.08-0.24,0.117-0.361c5.081-5.966,11.671-8.266,19.172-9.419c-0.019,1.468-0.035,2.941-0.052,4.412
		c-4.006-0.35-8.078-0.15-12.064,0.299C31.884,6.431,31.878,6.726,32.071,6.709z"/>
	<path style="fill:#1D1D1B;" d="M25.947,39.971c-3.138-0.143-6.302,0.05-9.448-0.048c-0.123-0.004-0.122,0.183,0,0.19
		c3.112,0.169,6.339,0.418,9.448,0.125C26.116,40.222,26.121,39.979,25.947,39.971z"/>
	<path style="fill:#1D1D1B;" d="M43.612,15.726c-9.512,0.118-18.997,0.247-28.509-0.002c-0.129-0.003-0.129,0.195,0,0.2
		c9.487,0.37,19.018,0.58,28.509,0.244C43.896,16.159,43.898,15.722,43.612,15.726z"/>
	<path style="fill:#1D1D1B;" d="M43.788,3.744c-1.496-0.127-3.047-0.049-4.548-0.009c-0.231,0.006-0.231,0.353,0,0.359
		c1.5,0.04,3.051,0.118,4.548-0.009C44.007,4.067,44.007,3.763,43.788,3.744z"/>
</g>
<g>
</g>
<g>
</g>
<g>
</g>
<g>
</g>
<g>
</g>
<g>
</g>
<g>
</g>
<g>
</g>
<g>
</g>
<g>
</g>
<g>
</g>
<g>
</g>
<g>
</g>
<g>
</g>
<g>
</g>
</svg>
