<?xml version="1.0" encoding="iso-8859-1"?>
<!-- Generator: Adobe Illustrator 18.0.0, SVG Export Plug-In . SVG Version: 6.00 Build 0)  -->
<!DOCTYPE svg PUBLIC "-//W3C//DTD SVG 1.1//EN" "http://www.w3.org/Graphics/SVG/1.1/DTD/svg11.dtd">
<svg version="1.1" id="Capa_1" xmlns="http://www.w3.org/2000/svg" xmlns:xlink="http://www.w3.org/1999/xlink" x="0px" y="0px"
	 viewBox="0 0 50.44 50.44" style="enable-background:new 0 0 50.44 50.44;" xml:space="preserve">
<g>
	<path style="fill:#1D1D1B;" d="M49.738,48.583c0.001-0.018,0.01-0.031,0.011-0.05c0.038-15.757,0.885-31.582,0.651-47.326
		c-0.007-0.435-0.425-0.571-0.723-0.429c-0.067-0.043-0.145-0.077-0.243-0.083c-15.952-0.963-32.258-0.3-48.115,0.66
		C1.185,1.363,1.106,1.428,1.053,1.51c-0.138,0.046-0.254,0.164-0.27,0.353c-1.26,15.412-0.668,31.22-0.479,46.673
		c0.009,0.739,1.163,0.741,1.15,0C1.18,33.055,1.969,17.522,1.567,2.061c3.45,0.349,6.896-0.229,10.374,0.026
		c4.059,0.298,8.117-0.272,12.176-0.44c8.421-0.349,16.825,0.111,25.242,0.019c-0.072,1.058-0.131,2.118-0.19,3.178
		c-6.279,0.132-12.53,0.737-18.746,1.613c-0.057,0.008-0.044,0.109,0.014,0.102C36.66,5.74,42.89,5.33,49.155,5.086
		c-0.092,1.686-0.174,3.373-0.241,5.064c-2.364,0.257-4.717,0.552-7.09,0.728c-0.075,0.005-0.076,0.122,0,0.118
		c2.362-0.126,4.743-0.304,7.082-0.675c-0.14,3.598-0.231,7.204-0.283,10.815c-1.704,0.104-3.411,0.341-5.108,0.517
		c-0.123,0.013-0.125,0.207,0,0.194c1.697-0.171,3.415-0.286,5.106-0.528c-0.028,2.024-0.048,4.049-0.061,6.074
		c-1.535,0.312-3.058,0.465-4.626,0.361c-0.09-0.006-0.089,0.132,0,0.139c1.558,0.127,3.108,0.039,4.625-0.334
		c-0.006,0.977-0.017,1.954-0.02,2.931c-1.6,0.315-3.185,0.486-4.817,0.44c-0.086-0.003-0.085,0.129,0,0.133
		c1.622,0.07,3.234-0.041,4.816-0.407c-0.004,1.209-0.007,2.418-0.008,3.626c-1.674,0.135-3.339,0.241-5.019,0.233
		c-0.091,0-0.091,0.14,0,0.141c1.674,0.018,3.355-0.03,5.019-0.226c-0.001,0.832-0.002,1.664-0.003,2.496
		c-2.022,0.321-4.017,0.549-6.07,0.55c-0.068,0-0.068,0.104,0,0.105c2.029,0.031,4.075-0.094,6.07-0.487
		c-0.001,1.242-0.001,2.484-0.003,3.725c-2.165,0.086-4.328,0.284-6.488,0.443c-0.086,0.006-0.087,0.14,0,0.135
		c2.162-0.128,4.332-0.219,6.488-0.42c-0.002,1.464-0.004,2.928-0.009,4.389c-6.658,0.621-13.29,1.278-19.972,1.618
		c-0.063,0.003-0.064,0.101,0,0.099c6.664-0.228,13.361-0.628,19.971-1.537c-0.004,0.987-0.005,1.975-0.012,2.96
		c-15.711-0.374-31.675-0.515-47.343,0.663c-0.662,0.05-0.68,1.042,0,1.044c16.104,0.055,32.215-0.482,48.326-0.441
		C50.193,49.773,50.275,48.824,49.738,48.583z"/>
	<path style="fill:#1D1D1B;" d="M30.837,37.538c0.002-0.224-0.218-0.324-0.399-0.286c-0.028-0.041-0.057-0.083-0.098-0.113
		c-0.526-0.391-1.2-0.344-1.706-0.849c-0.281-0.28-0.476-0.645-0.595-1.034c0.064-0.055,0.111-0.128,0.117-0.222
		c0.247-4.018,0.188-8.29-0.011-12.333c0.765,0.109,1.812,0.082,2.493-0.359c0.278,0.045,0.57-0.102,0.552-0.476
		c-0.074-1.551-0.149-3.253-0.576-4.753c-0.001-0.004-0.005-0.005-0.006-0.009c-0.011-0.167-0.107-0.319-0.328-0.37
		c-0.452-0.104-0.903-0.022-1.362-0.009c-0.368,0.01-0.736-0.006-1.104-0.018c0.07-2.496,0.088-5.021-0.089-7.51
		c-0.013-0.177-0.166-0.299-0.323-0.326c-0.054-0.123-0.148-0.227-0.288-0.264c-1.854-0.495-4.232-0.279-6.129-0.133
		c-0.117,0.009-0.195,0.088-0.25,0.18c-0.124,0.067-0.219,0.189-0.222,0.381c-0.045,2.658,0.033,5.358,0.353,7.998
		c0.003,0.024,0.022,0.033,0.027,0.054c-1.426-0.323-2.947-0.273-4.402-0.297c-1.54-0.026-3.081-0.051-4.593,0.27
		c-0.182,0.039-0.253,0.231-0.227,0.401c-0.085,0.045-0.157,0.116-0.168,0.243c-0.7,7.995-0.094,16.162,0.408,24.158
		c0.035,0.559,0.793,0.636,0.973,0.227c1.423,0.08,2.846,0.135,4.272,0.15c0.292,0.003,0.454-0.191,0.499-0.414
		c0.192,0.096,0.481-0.004,0.514-0.291c0.704-6.283,0.891-12.774,0.656-19.099c0.504,0.076,1.052,0.167,1.543,0.097
		c-0.658,4.837-1.183,11.315,0.361,15.891c1.361,4.034,5.636,4.195,9.255,3.825c0.235-0.024,0.384-0.174,0.45-0.351
		c0.019,0.024,0.028,0.055,0.049,0.077c0.192,0.207,0.519,0.088,0.599-0.158c0.208-0.64-0.073-1.368-0.135-2.027
		C30.877,39.041,30.829,38.289,30.837,37.538z M29.984,41.225c-2.821,0.209-6.85,0.683-8.217-3.089
		c-0.574-1.585-0.438-3.735-0.517-5.411c-0.167-3.564-0.024-7.123-0.091-10.688c-0.004-0.217-0.204-0.347-0.392-0.354
		c-0.048-0.04-0.085-0.089-0.153-0.108c-0.617-0.177-1.38,0.007-2.022,0.09c-0.256-0.137-0.641-0.018-0.663,0.367
		c-0.362,6.377-0.547,12.858-0.448,19.248c-0.083-0.069-0.187-0.12-0.326-0.118c-1.423,0.016-2.842,0.07-4.262,0.15
		c-0.48-7.856-0.303-15.722-0.777-23.57c1.338,0.167,2.68,0.129,4.029,0.146c1.601,0.021,3.259,0.253,4.844,0.064
		c0.327-0.039,0.505-0.408,0.369-0.647c0.094-0.047,0.174-0.125,0.183-0.273c0.165-2.598,0.09-5.24-0.1-7.837
		c1.78,0.298,3.84,0.611,5.574,0.338c-0.315,2.479-0.332,5.012-0.148,7.5c0.023,0.309,0.268,0.458,0.502,0.449
		c0.001,0,0.002,0.001,0.003,0.001c0.7,0.207,1.748,0.397,2.541,0.236c-0.071,1.271,0.068,2.599,0.219,3.857
		c-0.166-0.001-0.336,0.007-0.525,0.022c-0.527,0.042-1.062,0.044-1.584,0.124c-0.084,0.013-0.147,0.053-0.201,0.103
		c-0.213-0.043-0.464,0.082-0.5,0.372c-0.468,3.851-0.476,8.208,0.076,12.109c-0.265,0.833-0.162,1.708,0.401,2.442
		c0.475,0.618,1.51,1.363,2.339,1.101c-0.133,0.69-0.214,1.382-0.176,2.09c0.022,0.413,0.047,0.88,0.16,1.303
		C30.077,41.234,30.037,41.221,29.984,41.225z"/>
	<path style="fill:#1D1D1B;" d="M18.42,9.123c0.164-0.301,0.026-0.75-0.431-0.778c-2.072-0.123-4.192-0.052-6.247,0.232
		c-0.123,0.017-0.183,0.123-0.2,0.237C11.51,8.851,11.47,8.88,11.454,8.93c-0.522,1.568-0.118,3.7,0.315,5.303
		c-0.201,0.061-0.254,0.365-0.014,0.425c1.715,0.431,4.117,0.835,5.839,0.348c0.086-0.024,0.15-0.077,0.196-0.141
		c0.246,0.06,0.509-0.032,0.565-0.357C18.65,12.801,18.656,10.86,18.42,9.123z M14.869,14.164c-0.785-0.013-1.567-0.006-2.35,0.023
		c-0.078-0.893-0.15-1.786-0.182-2.682c-0.027-0.761,0.033-1.537-0.079-2.29c1.787,0.215,3.612,0.275,5.408,0.186
		c-0.321,1.554-0.459,3.272-0.342,4.821C16.522,14.092,15.68,14.178,14.869,14.164z"/>
	<path style="fill:#1D1D1B;" d="M39.874,36.203c-0.002-0.281-0.297-0.412-0.513-0.335c-0.061-0.029-0.127-0.051-0.205-0.058
		c-1.986-0.186-4.017-0.109-5.999,0.076c-0.215,0.02-0.322,0.296-0.202,0.437c0,0-0.001,0.001-0.001,0.001
		c-0.238,1.636-0.788,3.878-0.247,5.472c0.077,0.227,0.294,0.285,0.472,0.214c0.979,0.086,1.956,0.161,2.938,0.195
		c0.875,0.031,1.806,0.156,2.648-0.107c0.129-0.04,0.199-0.131,0.243-0.234c0.323,0.181,0.875-0.045,0.896-0.497
		C39.985,39.653,39.886,37.919,39.874,36.203z M36.117,41.197c-0.869,0.031-1.735,0.095-2.6,0.169
		c0.361-1.506-0.032-3.464-0.212-4.931c1.872,0.295,3.79,0.494,5.686,0.46c-0.282,1.453-0.4,2.942-0.222,4.413
		c-0.002,0-0.002-0.002-0.004-0.003C37.929,41.044,36.985,41.167,36.117,41.197z"/>
	<path style="fill:#1D1D1B;" d="M39.347,9.202c-0.031-0.383-0.582-0.39-0.601,0c-0.001,0.026-0.002,0.053-0.003,0.079
		c-1.514-0.534-3.34-0.447-4.967-0.293c-0.002-0.012-0.002-0.023-0.005-0.035c-0.056-0.305-0.501-0.266-0.58,0
		c-0.009,0.031-0.014,0.064-0.021,0.095c-0.061,0.006-0.124,0.012-0.184,0.019c-0.48,0.049-0.496,0.731,0,0.759h0
		c-0.003,0.031-0.01,0.062-0.013,0.093c-0.3,1.518-0.333,3.152-0.252,4.655c0.024,0.441-0.025,1.193,0.187,1.706
		c-0.398,5.47-0.32,11.301,0.562,16.666c0.021,0.126,0.113,0.172,0.212,0.181c0.037,0.072,0.101,0.132,0.208,0.156
		c0.739,0.168,1.504,0.205,2.26,0.242c0.744,0.036,1.578,0.173,2.289-0.08c0.113-0.04,0.188-0.122,0.242-0.217
		c0.343,0.124,0.816-0.049,0.823-0.525C39.622,24.887,39.97,17.004,39.347,9.202z M36.317,32.587
		c-0.768,0.018-1.539-0.028-2.305,0.022c0.156-5.224-0.101-10.61-0.447-15.855c0.024-0.037,0.023-0.082-0.008-0.12
		c-0.027-0.407-0.051-0.817-0.079-1.222c0.102-1.076,0.362-2.533,0.384-2.88c0.055-0.878,0.095-1.753,0.028-2.625
		c1.59,0.18,3.274,0.522,4.81,0.369c-0.319,7.424-0.103,14.87-0.365,22.298C37.682,32.44,36.985,32.571,36.317,32.587z"/>
	<path style="fill:#1D1D1B;" d="M48.361,44.708c-9.646-0.238-19.298,0.35-28.878,1.458c-0.058,0.007-0.06,0.099,0,0.093
		c9.621-0.993,19.211-1.353,28.878-1.388C48.466,44.87,48.465,44.711,48.361,44.708z"/>
	<path style="fill:#1D1D1B;" d="M48.362,42.953c-4.567-0.055-9.156,0.223-13.708,0.587c-0.074,0.006-0.075,0.121,0,0.116
		c4.569-0.284,9.134-0.378,13.708-0.528C48.475,43.124,48.475,42.954,48.362,42.953z"/>
	<path style="fill:#1D1D1B;" d="M48.141,24.004c-1.539,0.277-3.063,0.455-4.629,0.441c-0.077-0.001-0.077,0.119,0,0.12
		c1.566,0.026,3.133-0.089,4.662-0.442C48.253,24.106,48.219,23.99,48.141,24.004z"/>
	<path style="fill:#1D1D1B;" d="M48.145,18.425c-1.765,0.188-3.527,0.425-5.286,0.662c-0.068,0.009-0.052,0.128,0.016,0.12
		c1.765-0.191,3.533-0.383,5.292-0.622C48.257,18.572,48.237,18.415,48.145,18.425z"/>
	<path style="fill:#1D1D1B;" d="M48.154,15.763c-1.852,0.101-3.698,0.373-5.525,0.684c-0.074,0.013-0.042,0.123,0.031,0.112
		c1.827-0.277,3.657-0.444,5.494-0.632C48.257,15.917,48.261,15.757,48.154,15.763z"/>
	<path style="fill:#1D1D1B;" d="M48.352,12.192c-2.303,0.596-4.566,1.079-6.946,1.255c-0.098,0.007-0.099,0.161,0,0.154
		c2.357-0.164,4.737-0.522,6.986-1.265C48.483,12.306,48.447,12.167,48.352,12.192z"/>
	<path style="fill:#1D1D1B;" d="M48.791,7.213c-2.88,0.032-5.778,0.313-8.652,0.5c-0.089,0.006-0.09,0.144,0,0.139
		c2.877-0.14,5.787-0.191,8.652-0.485C48.887,7.357,48.892,7.212,48.791,7.213z"/>
	<path style="fill:#1D1D1B;" d="M47.94,2.626c-5.692-0.088-11.403,0.252-17.078,0.668c-0.095,0.007-0.097,0.156,0,0.15
		C36.556,3.072,42.24,2.99,47.94,2.846C48.081,2.842,48.082,2.628,47.94,2.626z"/>
</g>
<g>
</g>
<g>
</g>
<g>
</g>
<g>
</g>
<g>
</g>
<g>
</g>
<g>
</g>
<g>
</g>
<g>
</g>
<g>
</g>
<g>
</g>
<g>
</g>
<g>
</g>
<g>
</g>
<g>
</g>
</svg>
