<?xml version="1.0" encoding="iso-8859-1"?>
<!-- Generator: Adobe Illustrator 18.0.0, SVG Export Plug-In . SVG Version: 6.00 Build 0)  -->
<!DOCTYPE svg PUBLIC "-//W3C//DTD SVG 1.1//EN" "http://www.w3.org/Graphics/SVG/1.1/DTD/svg11.dtd">
<svg version="1.1" id="Capa_1" xmlns="http://www.w3.org/2000/svg" xmlns:xlink="http://www.w3.org/1999/xlink" x="0px" y="0px"
	 viewBox="0 0 48.624 48.624" style="enable-background:new 0 0 48.624 48.624;" xml:space="preserve">
<g>
	<path style="fill:#1D1D1B;" d="M36.572,36.242c-3.295,0.054-4.581,4.171-3.719,6.96c0.996,3.224,4.358,5.195,7.637,4.268
		C47.678,45.44,43.19,33.54,36.572,36.242z M35.823,43.61c2.309,0.027,4.701,0.226,7,0c0.061-0.006,0.09-0.046,0.101-0.089
		c-0.343,1.318-1.219,2.429-2.736,2.856c-5.927,1.667-9.344-7.812-3.044-9.441c0.14-0.036,0.197-0.13,0.222-0.232
		c1.425-0.031,2.847,0.332,3.912,1.229c-1.788-0.01-3.55-0.033-5.338-0.236c-0.121-0.014-0.15,0.196-0.029,0.214
		c1.882,0.287,3.834,0.479,5.743,0.388c0.233,0.248,0.451,0.517,0.632,0.831c0.096,0.167,0.181,0.341,0.26,0.518
		c-0.921,0.353-2.173,0.123-3.138,0.097c-1.069-0.029-2.141-0.068-3.21-0.06c-0.074,0.001-0.071,0.106,0,0.113
		c1.313,0.125,2.634,0.186,3.951,0.262c0.822,0.048,1.76,0.281,2.514-0.119c0.2,0.521,0.337,1.069,0.393,1.622
		c-1.718-0.127-3.51,0.044-5.232,0.108c-0.119,0.005-0.12,0.184,0,0.186c1.728,0.029,3.53,0.163,5.251-0.002
		c0.004,0,0.005-0.004,0.009-0.005c0.03,0.559-0.018,1.116-0.151,1.64c-0.001-0.052-0.037-0.104-0.109-0.111
		c-2.299-0.226-4.691-0.027-7,0C35.676,43.383,35.676,43.608,35.823,43.61z"/>
	<path style="fill:#1D1D1B;" d="M37.824,32.434c-0.059-0.006-0.119-0.007-0.178-0.013c-0.159-3.542-2.265-6.601-5.079-8.867
		c-4.123-3.32-16.114-5.074-16.18-11.297c0.103,0.006,0.206,0.013,0.31,0.018c0.157,0.007,0.198-0.253,0.038-0.28
		c-0.087-0.014-0.175-0.021-0.262-0.034c0.133-0.569,0.336-1.037,0.594-1.423c0.002,0,0.004,0,0.005,0
		c0.116,0.004,0.154-0.089,0.135-0.174c1.838-2.385,6.043-1.122,8.597-0.221c-0.025,3.132,2.048,6.474,5.41,6.693
		c2.984,0.194,6.746-2.086,6.343-5.391c-0.002-0.016-0.011-0.027-0.014-0.042c-0.024-0.668-0.124-1.295-0.257-1.904
		c0.119-0.079,0.133-0.298-0.038-0.323c-0.012-0.002-0.025-0.002-0.038-0.004C33.936-3.733,6.778-3.003,5.847,11.252
		c-2.054,6.761,4.173,13.362,10.555,15.683c3.182,1.758,7.026,3.122,9.323,5.905c2.88,3.49-0.848,6.493-4.301,6.759
		c-2.149,0.165-4.038-0.515-5.92-1.448c2.966-5.746-6.989-9.502-9.861-5.066c0.009-0.067,0.01-0.13,0.02-0.197
		c0.036-0.254-0.291-0.35-0.386-0.107c-5.33,13.595,16.993,19.588,25.78,13.413c0.009,0.002,0.016,0.007,0.026,0.009
		c0.27,0.068,0.52-0.292,0.287-0.494c-1.898-1.646-0.759-4.799,0.347-6.592c1.299-2.105,3.193-3.388,5.47-4.25
		c0.293-0.111,0.389-0.383,0.341-0.618c0.024-0.049,0.044-0.101,0.051-0.163c0.058-0.451,0.076-0.893,0.072-1.33
		c0.057-0.002,0.115,0,0.172-0.002C38.033,32.745,38.026,32.454,37.824,32.434z M32.853,36.085
		c-1.328-0.168-2.698-0.164-4.029-0.234c-0.191-0.01-0.188,0.282,0,0.295c1.215,0.087,2.456,0.241,3.681,0.264
		c-0.463,0.45-0.891,0.936-1.269,1.46c-0.014-0.005-0.021-0.016-0.037-0.017c-1.137-0.064-2.291,0.068-3.415,0.235
		c-0.153,0.023-0.119,0.291,0.037,0.273c1.073-0.124,2.143-0.15,3.219-0.211c-0.41,0.609-0.764,1.253-1.039,1.928
		c-0.014,0.034-0.027,0.074-0.041,0.109c-1.213,0.01-2.413,0.042-3.634-0.082c-0.159-0.016-0.154,0.227,0,0.246
		c1.145,0.141,2.34,0.249,3.508,0.181c-0.142,0.42-0.273,0.903-0.37,1.408c-0.019-0.057-0.059-0.107-0.14-0.108
		c-1.914-0.028-3.837,0.096-5.75,0.165c-0.16,0.006-0.161,0.251,0,0.25c1.913-0.014,3.84,0.027,5.75-0.084
		c0.05-0.003,0.086-0.025,0.113-0.053c-0.085,0.495-0.143,1.002-0.123,1.49c-3.904-0.157-7.83-0.017-11.739-0.094
		c-0.131-0.003-0.131,0.2,0,0.204c3.901,0.126,7.849,0.362,11.75,0.192c0.006,0,0.008-0.006,0.014-0.007
		c0.035,0.348,0.1,0.684,0.223,0.983c-5.701-0.168-11.413-0.131-17.117-0.278c-0.155-0.004-0.153,0.23,0,0.239
		c5.736,0.328,11.54,0.589,17.285,0.377c0.194,0.323,0.462,0.591,0.824,0.78c-0.712,0.117-1.409,0.242-2.096,0.368
		c0.011-0.079-0.029-0.159-0.135-0.153c-2.711,0.153-5.41,0.421-8.125,0.538c-0.063,0.003-0.064,0.098,0,0.098
		c2.205,0.027,4.452,0.003,6.662-0.193c-3.622,0.645-7.061,1.098-11.003,0.046C9.808,45.084,5.776,41.435,5.522,35.632
		c0.258-1.228,0.667-2.251,1.805-2.874c1.229-0.673,2.699-0.9,4.087-0.58c2.645,0.609,4.299,3.146,3.141,5.727
		c-0.125,0.279,0.008,0.538,0.211,0.657c3.117,3.032,10.971,3.385,12.955-1.322c1.796-4.262-4.642-7.9-9.186-9.99
		c0.053-0.138,0.026-0.305-0.134-0.404c-2.419-1.487-5.059-2.352-7.297-3.943c-0.005-0.013-0.01-0.027-0.023-0.037
		c-0.168-0.13-0.289-0.275-0.484-0.361c-0.005-0.002-0.009,0-0.014-0.001c-0.644-0.51-1.257-1.079-1.804-1.774
		c-1.984-2.519-2.695-5.75-2.291-8.865C8.224,1.813,20.67-1.029,29.127,2.868c-2.641-0.182-5.286-0.322-7.929-0.47
		c-0.123-0.007-0.12,0.179,0,0.19c2.944,0.256,5.89,0.531,8.838,0.735c1.664,0.897,3.144,2.069,4.304,3.523
		C28.01,6.459,21.664,6.174,15.325,5.983c-0.139-0.004-0.136,0.205,0,0.214c6.446,0.473,12.908,0.854,19.366,1.122
		c0.384,0.531,0.727,1.096,1.027,1.693c-2.53-0.235-5.141-0.175-7.644-0.014c-0.181,0.012-0.185,0.287,0,0.285
		c2.633-0.029,5.243,0.13,7.865,0.214c0.223,0.499,0.425,1.013,0.581,1.558c-0.057,0.062-0.09,0.147-0.107,0.244
		c-1.894-0.177-3.817-0.166-5.715-0.329c-0.198-0.017-0.191,0.283,0,0.306c1.857,0.224,3.817,0.474,5.697,0.392
		c0.003,0.479-0.109,0.925-0.295,1.337c0.005-0.081-0.043-0.165-0.152-0.172c-1.612-0.109-3.26-0.006-4.875,0.01
		c-0.194,0.002-0.195,0.3,0,0.302c1.615,0.017,3.263,0.12,4.875,0.01c0.052-0.004,0.091-0.025,0.117-0.054
		c-0.933,1.916-3.654,3.002-5.644,2.454c-2.766-0.761-3.401-3.408-3.999-5.871c-0.003-0.012-0.014-0.014-0.018-0.026
		c0.004-0.154-0.059-0.304-0.229-0.382c-2.192-1.001-4.839-2-7.246-1.163c-0.136,0.048-0.26,0.115-0.391,0.173
		c-1.737-0.482-3.539-0.669-5.34-0.667c-0.152,0-0.151,0.232,0,0.236c1.655,0.042,3.253,0.3,4.855,0.667
		c-0.689,0.398-1.262,0.942-1.639,1.606c-0.031,0.003-0.06,0.016-0.09,0.026c-1.453-0.143-2.921-0.198-4.375-0.301
		c-0.163-0.012-0.161,0.239,0,0.253c1.383,0.121,2.773,0.287,4.162,0.378c-0.177,0.469-0.301,0.932-0.355,1.383
		c-1.304-0.141-2.629-0.155-3.933-0.149c-0.188,0.001-0.188,0.29,0,0.292c1.308,0.013,2.605,0.123,3.907,0.207
		c-0.04,0.725,0.062,1.423,0.284,2.084c-1.388-0.161-2.798-0.208-4.188-0.306c-0.13-0.009-0.127,0.188,0,0.2
		c1.422,0.136,2.856,0.332,4.285,0.395c0.295,0.751,0.737,1.453,1.29,2.09c-1.57-0.045-3.13-0.111-4.7-0.297
		c-0.122-0.014-0.119,0.174,0,0.19c1.649,0.214,3.326,0.392,4.996,0.433c0.707,0.738,1.554,1.384,2.473,1.907
		c1.516,0.863,3.11,1.567,4.687,2.242c-2.463-0.161-4.946-0.169-7.407-0.184c-0.147-0.001-0.147,0.227,0,0.229
		c2.792,0.035,5.571,0.239,8.357,0.363c1.645,0.702,3.251,1.397,4.7,2.233c-3.426-0.263-6.877-0.308-10.308-0.277
		c-0.104,0.001-0.104,0.16,0,0.162c3.679,0.07,7.336,0.32,11.006,0.543c0.915,0.581,1.767,1.22,2.5,1.985
		c-3.353-0.453-6.762-0.672-10.128-0.965c-0.137-0.012-0.132,0.195,0,0.211c3.479,0.416,6.988,0.928,10.487,1.156
		c0.862,0.998,1.56,2.171,2.012,3.62c-2.733-0.239-5.51-0.218-8.251-0.254c-0.165-0.002-0.165,0.251,0,0.257
		c2.787,0.091,5.581,0.324,8.369,0.356c0.151,0.549,0.278,1.125,0.361,1.752c-2.478-0.166-5.014-0.134-7.479-0.126
		c-0.155,0-0.153,0.23,0,0.239c2.478,0.154,5.028,0.338,7.529,0.315c0.039,0.379,0.07,0.766,0.083,1.174
		C35.263,34.347,33.96,35.101,32.853,36.085z"/>
	<path style="fill:#1D1D1B;" d="M35.698,33.504c-2.073-0.139-4.173-0.024-6.25,0.002c-0.147,0.002-0.147,0.227,0,0.229
		c2.076,0.025,4.177,0.141,6.25,0.002C35.847,33.726,35.848,33.514,35.698,33.504z"/>
	<path style="fill:#1D1D1B;" d="M35.17,28.337c-0.015-0.019-0.03-0.038-0.046-0.058c-0.041-0.052-0.125-0.051-0.178-0.023
		c-0.017,0.01-0.035,0.019-0.052,0.028c-0.116,0.063-0.062,0.247,0.067,0.246c-0.691,0.005-1.588-0.319-2.341-0.366
		c-0.88-0.055-1.76-0.111-2.64-0.166c-1.634-0.103-3.268-0.205-4.902-0.308c-0.168-0.011-0.166,0.247,0,0.26
		c2.011,0.157,4.023,0.314,6.034,0.47c1.042,0.081,3.086,0.663,4.025,0.181C35.242,28.546,35.232,28.416,35.17,28.337z"/>
	<path style="fill:#1D1D1B;" d="M20.072,19.253c-2.112-0.249-4.252-0.333-6.373-0.495c-0.129-0.01-0.127,0.189,0,0.2
		c2.12,0.189,4.247,0.458,6.373,0.558C20.245,19.525,20.236,19.272,20.072,19.253z"/>
	<path style="fill:#1D1D1B;" d="M34.943,13.956c-1.393,0.149-2.735,0.258-4.132,0.082c-0.177-0.022-0.221,0.288-0.042,0.314
		c1.399,0.207,2.837,0.252,4.212-0.12C35.129,14.192,35.105,13.939,34.943,13.956z"/>
	<path style="fill:#1D1D1B;" d="M31.975,4.739c-1.472-0.677-4.088-0.184-5.702-0.203c-2.859-0.035-5.718-0.076-8.576-0.073
		c-0.145,0-0.145,0.22,0,0.225c4.455,0.16,9.615,0.938,14.012,0.181c-0.196,0.034-0.121,0.298,0.043,0.318
		c0.033,0.004,0.065,0.008,0.098,0.012c0.082,0.01,0.143-0.063,0.17-0.129c0.015-0.037,0.03-0.074,0.046-0.111
		C32.094,4.886,32.046,4.772,31.975,4.739z"/>
	<path style="fill:#1D1D1B;" d="M41.698,44.64c-1.959-0.035-3.913,0.085-5.874,0.011c-0.102-0.004-0.101,0.152,0,0.158
		c1.937,0.13,3.94,0.262,5.874,0.052C41.837,44.846,41.844,44.643,41.698,44.64z"/>
</g>
<g>
</g>
<g>
</g>
<g>
</g>
<g>
</g>
<g>
</g>
<g>
</g>
<g>
</g>
<g>
</g>
<g>
</g>
<g>
</g>
<g>
</g>
<g>
</g>
<g>
</g>
<g>
</g>
<g>
</g>
</svg>
