<?xml version="1.0" encoding="iso-8859-1"?>
<!-- Generator: Adobe Illustrator 18.0.0, SVG Export Plug-In . SVG Version: 6.00 Build 0)  -->
<!DOCTYPE svg PUBLIC "-//W3C//DTD SVG 1.1//EN" "http://www.w3.org/Graphics/SVG/1.1/DTD/svg11.dtd">
<svg version="1.1" id="Capa_1" xmlns="http://www.w3.org/2000/svg" xmlns:xlink="http://www.w3.org/1999/xlink" x="0px" y="0px"
	 viewBox="0 0 50.008 50.008" style="enable-background:new 0 0 50.008 50.008;" xml:space="preserve">
<g>
	<path style="fill:#1D1D1B;" d="M24.483,29.209c-0.927-1.713-2.436-2.895-4.17-3.731c-1.776-0.857-5.96-1.283-8.428-2.554
		c0.033,0,0.066,0,0.099,0c0.104-0.002,0.105-0.161,0-0.163c-0.136-0.002-0.272,0-0.407-0.001c-0.154-0.089-0.3-0.182-0.436-0.279
		c-0.557-0.679-0.967-1.399-1.006-2.182c0.066-0.01,0.133-0.015,0.199-0.026c0.101-0.017,0.079-0.19-0.024-0.18
		c-0.056,0.005-0.112,0.009-0.169,0.014c0.011-0.392,0.107-0.798,0.338-1.224c0.844-1.559,2.669-1.621,4.247-1.24
		c1.848,0.447,3.288,1.51,4.106,3.203c-0.001,0.251,0.171,0.512,0.506,0.556c0.833,0.111,1.664,0.164,2.504,0.189
		c0.719,0.021,1.499,0.134,2.12-0.274c0.128-0.084,0.2-0.221,0.238-0.365c0.21-0.094,0.364-0.287,0.339-0.564
		c-0.79-8.69-13.692-10.31-19.444-5.544c-3,2.485-2.828,6.702-0.71,9.717c1.331,1.895,3.307,3.175,5.346,4.186
		c2.549,1.265,7.306,1.892,8.676,4.631c0.119,4.252-9.027,3.452-9.409-1.109c-0.024-0.29-0.307-0.407-0.515-0.308
		c-0.105-0.149-0.265-0.268-0.474-0.296c-0.937-0.124-1.976,0.077-2.917,0.158c-0.973,0.083-1.949,0.142-2.92,0.245
		c-0.043,0.005-0.072,0.034-0.106,0.053c-0.303-0.166-0.752-0.032-0.773,0.429C0.839,42.622,16.227,45.205,22.56,39.728
		C25.52,37.169,26.355,32.669,24.483,29.209z M12.563,13.649c2.955-0.245,5.719,0.389,7.735,1.997
		c-4.239-0.407-8.509-0.596-12.758-0.857C9.124,14.08,11.009,13.778,12.563,13.649z M14.446,40.933
		c-2.44,0.191-4.923-0.14-7.003-1.087c4.353-0.157,8.708-0.231,13.06-0.381C18.66,40.414,16.436,40.777,14.446,40.933z
		 M24.243,34.501c-0.006,0-0.01-0.004-0.016-0.003c-1.558,0.315-3.073,0.661-4.662,0.807c-0.075,0.007-0.076,0.124,0,0.118
		c1.549-0.11,3.157-0.288,4.649-0.739c-0.12,0.625-0.328,1.244-0.638,1.84c-0.147,0.283-0.315,0.544-0.494,0.791
		c-2.45,0.16-4.89,0.375-7.346,0.445c-1.169,0.033-3.31-0.442-4.31,0.216c-0.018,0.012-0.032,0.036-0.024,0.058
		c0.017,0.046,0.035,0.092,0.052,0.138c0.006,0.015,0.017,0.032,0.035,0.035c0.055,0.009,0.11,0.018,0.165,0.027
		c0.025,0.004,0.054-0.006,0.061-0.034c0.007-0.032,0.015-0.064,0.023-0.096c0.014-0.061-0.078-0.087-0.094-0.026
		c0.106-0.422,5.078-0.18,5.485-0.193c1.939-0.062,3.883-0.164,5.811-0.389c-0.572,0.733-1.276,1.317-2.07,1.774
		c-4.552-0.034-9.122,0.182-13.665,0.458c-2.605-1.267-4.531-3.534-4.847-7.018c1.78,0.326,4.025,0.644,5.753,0.184
		c-0.546,3.348,3.872,4.632,6.602,4.618c1.618-0.008,3.394-0.314,4.406-1.709c0.691-0.954,0.794-2.063,0.135-2.984
		c-0.184-1.104-0.933-1.824-2.028-2.512c-3.248-2.042-7.281-2.205-10.28-4.875c-2.546-2.267-4.321-6.389-1.373-9.352
		c0.475-0.478,1.062-0.856,1.7-1.169c0.014,0.026,0.035,0.047,0.072,0.05c4.411,0.334,8.836,0.759,13.258,0.933
		c0.443,0.39,0.83,0.849,1.186,1.344c-1.419-0.224-2.891-0.327-4.318-0.418c-0.097-0.006-0.122,0.158-0.023,0.172
		c1.482,0.212,3.016,0.427,4.514,0.487c0.513,0.772,0.927,1.652,1.194,2.672c-0.427-0.026-0.863,0.034-1.313,0.063
		c-0.719,0.047-1.439,0.077-2.158,0.117c-0.792-3.126-5.201-4.99-8.137-3.959c-0.531,0.187-0.98,0.492-1.357,0.863
		c-1.234-0.042-2.473,0.029-3.698,0.155c-0.103,0.011-0.105,0.172,0,0.162c1.165-0.104,2.32-0.119,3.482-0.102
		c-0.663,0.764-1.024,1.768-1.018,2.747c-0.815,0.046-1.628,0.058-2.451-0.002c-0.126-0.009-0.125,0.186,0,0.196
		c0.821,0.066,1.644,0.08,2.464,0.03c0.056,0.887,0.411,1.735,1.124,2.337c-0.916,0.005-1.831,0.015-2.746,0.022
		c-0.082,0.001-0.082,0.126,0,0.127c0.988,0.007,1.975,0.018,2.963,0.021c0.123,0.087,0.248,0.172,0.388,0.244
		c0.805,0.871,2.108,1.442,3.544,1.895c-1.175,0.009-2.349,0.028-3.522,0.038c-0.073,0.001-0.073,0.113,0,0.114
		c1.38,0.012,2.763,0.031,4.145,0.035c2.313,0.666,4.829,1.101,6.139,2.004c0.006,0.004,0.01,0.008,0.016,0.012
		c-1.806-0.178-3.646-0.173-5.45-0.054c-0.093,0.006-0.094,0.149,0,0.146c1.927-0.062,3.823,0.02,5.741,0.132
		c0.735,0.564,1.356,1.241,1.837,1.997c-1.402-0.011-2.804,0.004-4.206,0.011c-0.113,0-0.113,0.174,0,0.175
		c1.443,0.007,2.887,0.024,4.33,0.011c0.534,0.899,0.88,1.894,1,2.918c-1.216,0.024-2.438,0.121-3.649,0.189
		c-0.083,0.005-0.085,0.134,0,0.131c1.216-0.041,2.444-0.055,3.661-0.141C24.336,33.354,24.336,33.929,24.243,34.501z"/>
	<path style="fill:#1D1D1B;" d="M48.439,18.778c-5.98-0.887-12.458-0.943-18.517-0.719c-1.816-5.912-3.831-11.769-5.757-17.646
		c-0.178-0.542-0.946-0.559-1.118,0c-0.996,3.248-2.064,6.511-2.766,9.837c-0.008,0.039-0.005,0.073-0.004,0.108
		c-0.132,0.16-0.142,0.419,0.088,0.594c3.94,2.986,6.262,6.903,5.96,11.948c-0.019,0.315,0.165,0.489,0.391,0.543
		c0.044,0.042,0.1,0.077,0.182,0.09c1.603,0.243,3.232,0.342,4.852,0.389c0.982,0.029,2.046,0.132,3.072,0.078
		c-2.024,1.551-4.09,3.048-6.103,4.613c-0.086,0.066-0.122,0.144-0.134,0.221c-0.213,0.118-0.362,0.338-0.257,0.6
		c0.981,2.443,1.866,4.912,2.632,7.427c-0.944-0.523-1.846-1.1-2.714-1.756c0.001-0.018,0.007-0.035,0.007-0.053
		c0.014-0.306-0.334-0.489-0.594-0.384c-0.337-0.219-0.708,0.17-0.457,0.504c-0.274,0.447-0.454,0.957-0.648,1.443
		c-0.305,0.764-0.589,1.537-0.855,2.315c-0.092,0.268,0.078,0.496,0.301,0.592c-0.01,0.095,0.014,0.192,0.097,0.271
		c3.94,3.741,8.438,7.081,12.942,10.109c0.407,0.273,0.779-0.016,0.864-0.385c0.11-0.061,0.187-0.169,0.166-0.324
		c-0.863-6.497-2.722-12.658-5.158-18.731c-0.01-0.026-0.029-0.042-0.042-0.065c4.576-3.381,9.04-6.907,13.611-10.3
		c0.271-0.201,0.294-0.517,0.184-0.759C48.784,19.12,48.744,18.823,48.439,18.778z M24.927,6.48
		c-0.83-0.072-1.667-0.114-2.496-0.162c0.161-0.491,0.308-0.987,0.463-1.48c0.509-0.105,1.015-0.088,1.512,0.047
		C24.58,5.416,24.753,5.948,24.927,6.48z M23.625,2.498c0.233,0.717,0.468,1.433,0.703,2.15c-0.449-0.104-0.913-0.126-1.367-0.027
		C23.183,3.913,23.411,3.207,23.625,2.498z M25.257,14.137c-1.089-1.602-2.53-2.94-4.287-3.777c0.518-1.28,0.981-2.584,1.415-3.9
		c0.863,0.072,1.733,0.157,2.601,0.203c0.262,0.801,0.523,1.602,0.785,2.403c-0.66-0.001-1.321,0-1.982,0.004
		c-0.09,0.001-0.09,0.139,0,0.139c0.677,0.004,1.353,0.006,2.03,0.004c0.215,0.655,0.427,1.311,0.642,1.965
		c-0.539,0.006-1.066-0.032-1.611-0.169c-0.095-0.024-0.135,0.121-0.04,0.147c0.556,0.151,1.139,0.24,1.717,0.221
		c0.301,0.912,0.598,1.825,0.902,2.735c-0.722-0.009-1.445,0.003-2.164,0.016C25.26,14.127,25.263,14.135,25.257,14.137z
		 M25.35,14.272c0.71,0.013,1.425,0.024,2.138,0.013c0.242,0.722,0.475,1.447,0.72,2.167c-0.562-0.006-1.124,0.001-1.686,0.008
		C26.203,15.692,25.805,14.961,25.35,14.272z M36.325,38.263c-1.161,0.104-2.3,0.174-3.467,0.089c-0.092-0.007-0.091,0.136,0,0.143
		c1.167,0.101,2.354,0.108,3.513-0.086c0.27,0.904,0.533,1.81,0.787,2.719c-1.43-0.166-2.87-0.263-4.303-0.389
		c-0.045-0.004-0.044,0.065,0,0.07c1.443,0.149,2.888,0.328,4.334,0.436c0.234,0.836,0.467,1.672,0.69,2.511
		c-1.527-0.147-3.075-0.144-4.602-0.084c-0.062,0.002-0.063,0.099,0,0.097c1.56-0.04,3.099,0.05,4.647,0.152
		c0.395,1.493,0.776,2.991,1.147,4.492c-1.325-0.975-2.646-1.959-3.967-2.943c1.07,0.287,2.139,0.579,3.213,0.851
		c0.066,0.017,0.094-0.084,0.028-0.102c-1.14-0.309-2.286-0.597-3.43-0.89c-2.74-2.041-5.484-4.08-8.282-6.028
		c0.35-0.736,0.68-1.482,0.996-2.233c0.134-0.32,0.28-0.643,0.398-0.974c1.07,1.101,2.314,1.974,3.77,2.565
		c0.439,0.178,0.865-0.339,0.746-0.746c-0.202-0.692-0.415-1.379-0.636-2.064c1.226,0.034,2.456,0.095,3.682,0.085
		C35.837,36.709,36.091,37.483,36.325,38.263z M34.204,29.771c-0.111,0.104-0.137,0.237-0.116,0.365
		c-0.231,0.096-0.392,0.316-0.274,0.627c0.11,0.293,0.207,0.589,0.313,0.883c-1.007-0.222-2.061-0.051-3.004,0.337
		c-0.078,0.032-0.045,0.159,0.035,0.128c0.976-0.376,1.93-0.418,2.96-0.313c0.028,0.003,0.036-0.023,0.048-0.042
		c0.235,0.653,0.473,1.304,0.694,1.96c-0.877-0.029-1.758,0.002-2.635,0.01c-0.102,0.001-0.102,0.157,0,0.158
		c0.897,0.009,1.798,0.042,2.694,0.01c0.215,0.642,0.43,1.283,0.637,1.927c-1.218-0.044-2.442-0.02-3.661-0.023
		c-0.726-2.252-1.55-4.467-2.498-6.639c1.933-0.939,3.695-2.148,5.334-3.518c1.422,0.074,2.852,0.09,4.271-0.02
		C37.364,26.955,35.756,28.324,34.204,29.771z M39.259,25.412c-1.453,0.07-2.899,0.12-4.353,0.091
		c0.577-0.489,1.138-0.997,1.684-1.522c0.135-0.13,0.178-0.272,0.164-0.405c0.298-0.225,0.286-0.701-0.124-0.832
		c-1.41-0.449-3.042-0.213-4.514-0.186c-1.532,0.027-3.072,0.067-4.6,0.193c0.191-2.057-0.152-4.21-0.949-6.174
		c0.562,0.007,1.124,0.014,1.686,0.007c0.229,0.671,0.455,1.344,0.689,2.013c0.139,0.398,0.569,0.453,0.844,0.288
		c5.631,0.631,11.648,1.053,17.335,0.746C44.402,21.439,41.787,23.369,39.259,25.412z"/>
	<path style="fill:#1D1D1B;" d="M36.019,27.886c-1.602,0.483-3.173,0.723-4.847,0.572c-0.077-0.007-0.076,0.112,0,0.12
		c1.648,0.18,3.33,0.049,4.89-0.538C36.156,28.005,36.12,27.856,36.019,27.886z"/>
	<path style="fill:#1D1D1B;" d="M42.544,22.386c-1.862,0.328-3.565,0.48-5.438,0.124c-0.142-0.027-0.203,0.189-0.06,0.218
		c1.816,0.36,3.77,0.42,5.552-0.146C42.724,22.542,42.671,22.364,42.544,22.386z"/>
	<path style="fill:#1D1D1B;" d="M44.453,20.198c-2.328,0.159-4.623,0.288-6.958,0.223c-0.117-0.003-0.116,0.175,0,0.181
		c2.308,0.128,4.661,0.128,6.958-0.164C44.602,20.42,44.61,20.187,44.453,20.198z"/>
</g>
<g>
</g>
<g>
</g>
<g>
</g>
<g>
</g>
<g>
</g>
<g>
</g>
<g>
</g>
<g>
</g>
<g>
</g>
<g>
</g>
<g>
</g>
<g>
</g>
<g>
</g>
<g>
</g>
<g>
</g>
</svg>
