<?xml version="1.0" encoding="iso-8859-1"?>
<!-- Generator: Adobe Illustrator 18.0.0, SVG Export Plug-In . SVG Version: 6.00 Build 0)  -->
<!DOCTYPE svg PUBLIC "-//W3C//DTD SVG 1.1//EN" "http://www.w3.org/Graphics/SVG/1.1/DTD/svg11.dtd">
<svg version="1.1" id="Capa_1" xmlns="http://www.w3.org/2000/svg" xmlns:xlink="http://www.w3.org/1999/xlink" x="0px" y="0px"
	 viewBox="0 0 50.892 50.892" style="enable-background:new 0 0 50.892 50.892;" xml:space="preserve">
<g>
	<path style="fill:#1D1D1B;" d="M24.136,18.292c-1.251-3.08-4.778-3.952-7.692-2.993c-0.043-0.201-0.235-0.379-0.454-0.294
		c-3.112,1.21-3.991,5.16-2.758,8.029c1.39,3.234,5.205,4.722,8.486,3.196C24.566,24.905,25.233,20.991,24.136,18.292z
		 M23.558,21.62c-1.257-0.008-2.513-0.007-3.769-0.006c-0.072,0-0.072,0.112,0,0.112c1.252,0.002,2.504,0.002,3.755-0.006
		c-0.072,0.559-0.217,1.101-0.454,1.591c-1.171-0.002-2.342-0.001-3.512,0c-0.058,0-0.059,0.091,0,0.091
		c1.158,0.001,2.316,0.002,3.474,0c-0.257,0.504-0.604,0.951-1.043,1.303c-1.511-0.14-3.025-0.257-4.538-0.358
		c-0.059-0.004-0.057,0.085,0,0.091c1.471,0.138,2.945,0.261,4.42,0.363c-0.464,0.34-1.019,0.583-1.677,0.68
		c-2.814,0.419-5.39-0.777-6.221-3.617c-0.656-2.242,0.201-4.055,1.663-5.577c0.024,0.001,0.046,0.005,0.071,0.001
		c2.496-0.42,5.635-0.71,7.128,1.84c-1.923-0.289-3.863-0.452-5.806-0.531c-0.06-0.003-0.059,0.09,0,0.093
		c1.979,0.098,3.937,0.322,5.897,0.589C23.482,19.281,23.685,20.483,23.558,21.62z"/>
	<path style="fill:#1D1D1B;" d="M37.78,19.408c-0.496-2.798-2.963-4.484-5.626-4.262c-0.083-0.045-0.181-0.072-0.295-0.057
		c-3.206,0.432-5.619,3.528-5.284,6.763c0.379,3.664,3.687,5.497,7.062,4.564C37.206,25.429,38.425,23.047,37.78,19.408z
		 M36.897,22.023c-0.994-0.017-1.989,0.003-2.982,0.009c-0.076,0-0.076,0.118,0,0.118c0.987,0.007,1.977,0.026,2.965,0.009
		c-0.007,0.041-0.007,0.084-0.016,0.124c-0.114,0.547-0.318,0.986-0.583,1.358c-0.006-0.017-0.012-0.036-0.036-0.034
		c-2.125,0.179-4.204,0.19-6.322-0.099c-0.056-0.008-0.08,0.077-0.024,0.085c2.102,0.308,4.222,0.39,6.333,0.116
		c-0.584,0.777-1.473,1.217-2.556,1.516c-2.986,0.824-6.011-0.52-6.032-4.007c-0.016-2.607,1.996-4.525,4.335-5.247
		c1.854,0.136,3.629,0.772,4.459,2.554c-1.529-0.282-3.074-0.365-4.631-0.28c-0.073,0.004-0.074,0.117,0,0.114
		c1.586-0.071,3.138,0.054,4.699,0.309c0.024,0.057,0.057,0.105,0.079,0.165c0.152,0.408,0.25,0.852,0.313,1.304
		c-1.204-0.03-2.411-0.01-3.615-0.005c-0.077,0-0.078,0.12,0,0.12c1.21,0.006,2.423,0.026,3.633-0.005
		C36.987,20.843,36.988,21.449,36.897,22.023z"/>
	<path style="fill:#1D1D1B;" d="M49.066,22.729c-0.558-0.046-1.098,0.142-1.536,0.48c-0.044,0.034-0.071,0.069-0.11,0.104
		c0.401-5.742,0.506-12.039-0.183-17.711c-0.28-2.303-0.909-4.186-3.136-4.576c-0.038-0.215-0.19-0.416-0.465-0.443
		c-9.095-0.897-18.193-0.595-27.309-0.193C13.54,0.515,6.321-0.621,4.556,2.511c-0.209-0.05-0.453,0.028-0.503,0.278
		c-1.32,6.482-1.586,13.774-0.621,20.36c-0.744-0.521-1.732-0.753-2.479-0.066c-1.046,0.963-0.361,2.332,0.37,3.198
		c2.365,2.802,5.651,5.467,9.335,6.132c-3.108,9.411,2.62,18.179,12.803,18.468c11.671,0.331,18.591-6.994,16.379-18.433
		c-0.013-0.068-0.04-0.125-0.075-0.172c2.493-0.541,4.869-1.766,6.93-3.246c1.338-0.961,3.158-2.207,3.289-3.97
		c0.068-0.028,0.14-0.054,0.181-0.106C50.913,23.992,50.217,22.825,49.066,22.729z M49.231,24.612
		c-0.193,0.345-0.416,0.665-0.65,0.974c-1.093-0.012-2.188,0.004-3.281,0.016c-0.095,0.001-0.095,0.147,0,0.148
		c1.049,0.011,2.099,0.026,3.148,0.017c-0.256,0.323-0.53,0.631-0.822,0.921c-1.265,0.119-2.526,0.213-3.803,0.198
		c-0.131-0.002-0.13,0.2,0,0.202c1.166,0.024,2.339,0.001,3.501-0.116c-0.616,0.569-1.289,1.086-2.008,1.55
		c-1.849-0.03-3.703,0.095-5.531,0.369c-0.093,0.014-0.072,0.177,0.022,0.166c1.717-0.198,3.427-0.28,5.147-0.309
		c-1.28,0.788-2.66,1.456-4.007,2.08c-3.26-0.068-6.519-0.115-9.779-0.259c-0.069-0.003-0.069,0.104,0,0.108
		c3.102,0.178,6.215,0.33,9.326,0.363c-0.383,0.177-0.766,0.352-1.137,0.527c-0.251,0.118-0.244,0.375-0.114,0.553
		c-0.213,0.048-0.395,0.204-0.368,0.458c0.433,4.099,0.654,8.039-1.679,11.346c-3.272,0.019-6.547,0.134-9.818,0.208
		c-0.088,0.002-0.089,0.139,0,0.137c3.234-0.058,6.473-0.076,9.706-0.187c-0.335,0.456-0.718,0.901-1.16,1.332
		c-0.321,0.312-0.665,0.597-1.021,0.868c-4.337,0.092-8.673,0.207-13.009,0.333c-0.042,0.001-0.042,0.066,0,0.065
		c4.244-0.052,8.489-0.115,12.733-0.199c-0.733,0.528-1.52,0.988-2.352,1.373c-3.74,0.269-7.469,0.39-11.222,0.306
		c-0.072-0.002-0.072,0.109,0,0.112c3.604,0.135,7.212,0.068,10.807-0.216c-2.627,1.125-5.618,1.577-8.401,1.504
		c-4.148-0.11-8.589-1.944-10.882-5.555c-2.24-3.527-1.628-7.634-1.216-11.536c0.419-0.187,0.458-1.01-0.09-1.091
		c-2.685-0.396-4.817-1.803-6.787-3.607c-0.579-0.53-2.411-1.84-2.569-2.614c0.223-0.416,0.446-0.831,0.67-1.247
		c0.327,0.083,0.658,0.149,0.992,0.196c0.075,0.012,0.102,0.008,0.111,0.004c-0.001,0.001-0.002,0.001-0.003,0.004
		c-0.003,0.092,0.122,0.117,0.167,0.045c0.063-0.1,0.081-0.129,0.104-0.188c0.074-0.049,0.134-0.116,0.136-0.218
		C4.2,16.983,4.387,10.35,4.83,3.598c1.838-2.149,8.621-2.223,10.557-2.39c3.127-0.269,6.279-0.394,9.417-0.387
		c6.231,0.014,12.463,0.417,18.682,0.757c0.009,0.005,0.012,0.016,0.022,0.02c0.385,0.154,0.715,0.399,1.006,0.703
		c-5.255-1.184-11.432-0.714-16.721-0.955c-0.064-0.003-0.063,0.095,0,0.099c5.474,0.332,11.584-0.018,16.983,1.159
		c0.071,0.093,0.134,0.2,0.2,0.302c-3.546-0.063-7.092-0.105-10.639-0.123c-0.08,0-0.08,0.122,0,0.125
		c3.591,0.092,7.184,0.162,10.776,0.207c0.325,0.564,0.574,1.236,0.763,1.973c-0.491,0.006-0.981,0.093-1.45,0.242
		c-0.12,0.038-0.07,0.225,0.052,0.189c0.489-0.143,0.964-0.193,1.452-0.197c0.189,0.807,0.32,1.674,0.401,2.558
		c-0.625-0.01-1.251,0.003-1.875,0.009c-0.1,0.001-0.101,0.155,0,0.156c0.629,0.005,1.261,0.019,1.891,0.008
		c0.079,0.931,0.113,1.869,0.127,2.745c-0.526,0.051-1.049,0.072-1.594,0.008c-0.12-0.014-0.118,0.173,0,0.188
		c0.523,0.068,1.065,0.084,1.597,0.028c0.014,1.016,0.007,1.944,0.021,2.665c-0.673,0.119-1.324,0.176-2.016,0.082
		c-0.109-0.015-0.156,0.152-0.046,0.167c0.687,0.093,1.392,0.082,2.065-0.093c0.001,0.051,0.001,0.111,0.003,0.159
		c0.031,0.971,0.031,1.944,0.02,2.917c-0.608,0.1-1.216,0.117-1.837,0.033c-0.08-0.011-0.114,0.111-0.034,0.122
		c0.632,0.087,1.252,0.079,1.87-0.028c-0.013,0.978-0.038,1.957-0.06,2.937c-0.727,0.05-1.454,0.106-2.181,0.161
		c-0.094-1.663-0.193-3.325-0.179-4.986c0.022-2.627,0.344-5.133-0.012-7.738c0.579-1.764-1.097-3.765-2.853-4.039
		c-0.078-0.046-0.169-0.079-0.287-0.076c-5.222,0.125-10.435,0.433-15.659,0.507c-5.043,0.072-10.187-0.373-15.21,0.08
		C9.098,3.554,7.95,4.179,7.298,4.973c-0.85,1.035-1.013,2.496-0.778,3.822c-0.548,5.47-0.459,11.627,0.502,16.926
		c-0.006,0.034,0.005,0.063,0.015,0.097c0.001,0.007,0.002,0.014,0.003,0.02c0.006,0.03,0.028,0.039,0.04,0.062
		c0.011,0.013,0.007,0.028,0.021,0.04c0.003,0.002,0.006,0.005,0.01,0.007c0.024,0.026,0.045,0.048,0.077,0.059
		c2.107,1.671,4.431,2.985,7.137,3.356c3.293,0.451,8.277-1.21,10.665,1.657c0.137,0.165,0.366,0.102,0.494-0.039
		c0.089,0.206,0.393,0.283,0.577,0.045c2.281-2.959,7.566-1.258,10.805-1.671c2.56-0.327,4.848-1.759,6.908-3.248
		c0.272,0.022,0.559-0.119,0.6-0.509c0.021-0.196-0.004-0.373-0.04-0.547c0.062-0.075,0.107-0.169,0.109-0.295
		c0.007-0.649-0.013-1.297-0.034-1.945c0.673,0.056,1.355,0.039,2.017-0.094c0,0.459-0.007,0.918,0.004,1.376
		c0.007,0.276,0.191,0.417,0.394,0.442c-0.02,0.216,0.253,0.321,0.382,0.133c0.317-0.463,1.362-1.059,1.923-0.774
		c0.381,0.194,0.1,0.371,0.096,0.669C49.224,24.582,49.23,24.595,49.231,24.612z M46.461,20.092
		c-0.018,0.823-0.034,1.646-0.035,2.469c-0.676,0.088-1.34,0.132-2.019,0.09c-0.029-0.803-0.073-1.605-0.118-2.407
		C45.012,20.195,45.737,20.146,46.461,20.092z M43.287,25.747c-2.035,1.31-3.952,2.459-6.485,2.642
		c-2.001,0.144-4.036-0.085-6.041-0.075c-2.214,0.011-4.17,0.173-5.226,2.317c-0.765-1.958-2.686-2.18-4.66-2.238
		c-1.967-0.058-3.933,0.146-5.899-0.027c-2.922-0.257-4.944-1.441-7.401-2.801C7.906,19.997,7.738,14.014,7.374,8.4
		c0.011-0.72,0.048-1.438,0.357-2.1c0.541-1.161,1.41-1.327,2.562-1.378c0.14-0.006,0.268-0.091,0.353-0.205
		c9.726,1.289,20.529,0.432,30.241-0.302c0.637,0.225,1.203,0.627,1.583,1.192c0.455,0.678,0.511,1.326,0.58,2.111
		c0.013,0.146,0.095,0.247,0.195,0.322c-0.159,2.399,0.204,4.678,0.277,7.115c0.095,3.197-0.181,6.397-0.05,9.602
		c0.004,0.094,0.033,0.169,0.072,0.234c-0.095,0.137-0.184,0.282-0.248,0.462C43.257,25.564,43.264,25.659,43.287,25.747z"/>
	<path style="fill:#1D1D1B;" d="M38.14,41.033c-2.608,0.35-5.178,0.516-7.808,0.358c-0.098-0.006-0.097,0.145,0,0.152
		c2.616,0.177,5.244,0.11,7.832-0.336C38.261,41.19,38.239,41.019,38.14,41.033z"/>
	<path style="fill:#1D1D1B;" d="M38.344,38.129c-5.134-0.028-10.257,0.041-15.391-0.116c-0.068-0.002-0.068,0.102,0,0.105
		c5.114,0.234,10.274,0.394,15.391,0.158C38.439,38.272,38.44,38.129,38.344,38.129z"/>
	<path style="fill:#1D1D1B;" d="M38.342,35.716c-3.509-0.177-7.032-0.195-10.545-0.282c-0.087-0.002-0.087,0.132,0,0.135
		c3.512,0.119,7.031,0.308,10.545,0.336C38.464,35.907,38.463,35.722,38.342,35.716z"/>
	<path style="fill:#1D1D1B;" d="M38.763,32.964c-3.576-0.321-7.176-0.239-10.753,0.01c-0.077,0.005-0.078,0.125,0,0.12
		c3.596-0.221,7.159-0.117,10.753,0.076C38.897,33.178,38.893,32.975,38.763,32.964z"/>
	<path style="fill:#1D1D1B;" d="M23.372,19.955c-1.546-0.137-3.097-0.232-4.645-0.343c-0.066-0.005-0.066,0.099,0,0.103
		c1.548,0.109,3.095,0.235,4.645,0.318C23.423,20.036,23.422,19.959,23.372,19.955z"/>
</g>
<g>
</g>
<g>
</g>
<g>
</g>
<g>
</g>
<g>
</g>
<g>
</g>
<g>
</g>
<g>
</g>
<g>
</g>
<g>
</g>
<g>
</g>
<g>
</g>
<g>
</g>
<g>
</g>
<g>
</g>
</svg>
