<?xml version="1.0" encoding="iso-8859-1"?>
<!-- Generator: Adobe Illustrator 18.0.0, SVG Export Plug-In . SVG Version: 6.00 Build 0)  -->
<!DOCTYPE svg PUBLIC "-//W3C//DTD SVG 1.1//EN" "http://www.w3.org/Graphics/SVG/1.1/DTD/svg11.dtd">
<svg version="1.1" id="Capa_1" xmlns="http://www.w3.org/2000/svg" xmlns:xlink="http://www.w3.org/1999/xlink" x="0px" y="0px"
	 viewBox="0 0 48.273 48.273" style="enable-background:new 0 0 48.273 48.273;" xml:space="preserve">
<g>
	<path style="fill:#1D1D1B;" d="M18.734,32.385c-0.005-0.001-0.01,0-0.014-0.001c0.11-0.146,0.157-0.343,0.06-0.553
		c-1.083-2.351-1.923-4.7-2.44-7.241c-0.07-0.345-0.457-0.412-0.726-0.295c-1.124,0.486-2.241,0.988-3.306,1.595
		c-0.097,0.055-0.124,0.143-0.125,0.232c-0.075,0.09-0.114,0.213-0.082,0.317c0.764,2.532,1.776,5.079,2.712,7.555
		c0.15,0.396,0.646,0.373,0.807,0.092c0.089,0.052,0.195,0.077,0.307,0.055c0.552-0.104,1.088-0.282,1.627-0.438
		c0.474-0.137,1.043-0.195,1.373-0.588C19.129,32.877,19.076,32.47,18.734,32.385z M17.177,32.733
		c-0.532,0.195-1.072,0.374-1.583,0.619c-0.022,0.01-0.033,0.025-0.051,0.037c-0.347-1.256-0.794-2.492-1.259-3.706
		c-0.327-0.854-0.792-2.781-1.622-3.15c0.165,0.073,0.328-0.086,0.258-0.238c0.874-0.261,1.731-0.572,2.58-0.906
		c0.065,0.337,0.147,0.671,0.226,1.006c-0.644-0.099-1.29-0.184-1.936-0.271c-0.138-0.019-0.201,0.191-0.059,0.213
		c0.684,0.11,1.368,0.224,2.054,0.32c0.143,0.584,0.3,1.165,0.481,1.739c-0.587-0.136-1.181-0.252-1.77-0.369
		c-0.149-0.03-0.215,0.194-0.064,0.231c0.639,0.153,1.283,0.312,1.93,0.439c0.192,0.586,0.398,1.167,0.635,1.736
		c-0.712-0.177-1.447-0.293-2.163-0.429c-0.143-0.027-0.205,0.188-0.061,0.22c0.779,0.175,1.568,0.394,2.361,0.51
		c0.194,0.448,0.393,0.894,0.616,1.329c-0.683-0.024-1.35-0.019-2.035-0.159c-0.178-0.036-0.255,0.234-0.076,0.275
		c0.717,0.164,1.502,0.275,2.24,0.154c0.004,0.007,0.006,0.014,0.01,0.021c0.019,0.036,0.045,0.056,0.068,0.084
		C17.692,32.517,17.433,32.639,17.177,32.733z"/>
	<path style="fill:#1D1D1B;" d="M24.818,29.872c-0.766-2.252-1.653-4.477-2.657-6.634c0.035-0.325-0.306-0.703-0.693-0.644
		c-1.171,0.179-2.454,0.741-3.524,1.243c-0.226,0.106-0.2,0.442-0.028,0.579c0.004,0.014,0.001,0.028,0.006,0.043
		c0.831,2.265,1.648,4.776,2.883,6.857c0.213,0.359,0.676,0.342,0.935,0.115c0.264,0.186,0.419,0.251,0.797,0.224
		c0.358-0.026,0.716-0.105,1.058-0.21c0.64-0.196,1.393-0.411,1.49-1.148C25.109,30.114,24.972,29.958,24.818,29.872z
		 M23.097,30.332c-0.263,0.087-0.533,0.148-0.803,0.208c-0.228,0.051-0.333,0.11-0.446,0.197c-0.726-2.19-1.953-4.328-3.057-6.356
		c0.915-0.136,1.863-0.331,2.715-0.65c0.15,0.543,0.313,1.083,0.482,1.62c-0.411-0.06-0.829-0.075-1.237-0.065
		c-0.113,0.003-0.113,0.174,0,0.176c0.457,0.007,0.891,0.074,1.324,0.159c0.158,0.493,0.32,0.986,0.488,1.476
		c-0.658-0.114-1.33-0.184-1.987-0.27c-0.13-0.017-0.162,0.21-0.031,0.231c0.7,0.112,1.41,0.252,2.119,0.325
		c0.207,0.595,0.409,1.191,0.63,1.78c-0.566-0.096-1.113-0.25-1.68-0.479c-0.082-0.033-0.128,0.094-0.058,0.138
		c0.55,0.346,1.193,0.552,1.846,0.638c0.078,0.205,0.145,0.415,0.225,0.619C23.449,30.176,23.271,30.274,23.097,30.332z"/>
	<path style="fill:#1D1D1B;" d="M32.125,25.035c-0.18-0.241-0.451-0.286-0.684-0.22c-0.098-0.168-0.293-0.296-0.476-0.318
		c-0.724-0.088-1.412,0.437-2.053,0.735c-0.679,0.315-1.365,0.613-2.046,0.922c-0.347-0.047-0.759,0.233-0.664,0.688
		c0.421,2.027,1.685,3.898,1.713,5.989c0.035,2.577-1.715,6.173-4.202,7.282c-6.191,2.762-9.525-3.807-12.383-7.966
		c-0.054-0.079-0.143-0.097-0.225-0.086c-0.1-0.145-0.256-0.247-0.458-0.236C9.151,31.91,7.3,32.702,6.184,33.697
		c-0.221,0.197-0.193,0.492-0.044,0.699c0,0.001-0.001,0.002-0.001,0.003c1.974,9.149,11.237,16.795,20.714,12.777
		C35.776,43.393,37.668,32.461,32.125,25.035z M29.844,35.611c1.382-0.115,2.701,0.027,4.066,0.227
		c-0.175,1.448-0.579,2.855-1.219,4.153c-1.449-0.187-2.921-0.25-4.371-0.459c-0.177-0.025-0.259,0.239-0.076,0.275
		c1.357,0.266,2.843,0.532,4.256,0.552c-0.41,0.764-0.892,1.492-1.467,2.16c-0.002-0.055-0.025-0.108-0.1-0.13
		c-1.356-0.409-2.826-0.515-4.234-0.568c-0.211-0.008-0.209,0.315,0,0.327c1.403,0.081,2.764,0.345,4.152,0.535
		c0.018,0.002,0.029-0.008,0.045-0.01c-0.55,0.617-1.168,1.188-1.862,1.694c-2.206-0.432-4.482-0.641-6.707-0.931
		c-0.134-0.018-0.167,0.217-0.032,0.238c2.1,0.336,4.222,0.751,6.344,0.977c-0.516,0.346-1.056,0.67-1.645,0.946
		c-3.67-0.36-7.303-0.534-10.956-1.151c-0.15-0.025-0.216,0.201-0.064,0.231c3.344,0.641,6.855,1.224,10.285,1.23
		c-0.386,0.153-0.77,0.31-1.185,0.432c-8.813,2.596-15.03-4.634-18.223-11.778c0.689-0.235,1.34-0.579,2.02-0.84
		c0.688-0.264,1.412-0.471,2.07-0.805c0.062-0.032,0.113-0.073,0.153-0.119c1.743,4.886,6.192,10.899,12.125,8.87
		c2.496-0.854,4.509-3.272,5.379-5.7c1.266-3.535-0.409-5.804-1.237-9.09c0.721-0.192,1.435-0.406,2.146-0.634
		c0.577-0.185,1.133-0.303,1.579-0.648c0.008,0.012,0.008,0.024,0.017,0.036c0.658,0.869,1.189,1.795,1.62,2.748
		c-1.062-0.187-2.197-0.165-3.235-0.054c-0.134,0.014-0.141,0.219,0,0.215c1.177-0.035,2.283,0.125,3.424,0.294
		c0.258,0.628,0.486,1.264,0.651,1.911c-1.203-0.363-2.682-0.406-3.892-0.458c-0.186-0.008-0.178,0.266,0,0.285
		c0.795,0.085,1.589,0.166,2.38,0.288c0.532,0.082,1.066,0.216,1.604,0.254c0.135,0.595,0.234,1.195,0.29,1.795
		c-0.012-0.006-0.015-0.018-0.029-0.021c-1.202-0.282-2.499-0.326-3.725-0.468c-0.166-0.019-0.206,0.268-0.04,0.293
		c1.221,0.183,2.484,0.481,3.717,0.523c0.04,0.001,0.069-0.017,0.096-0.036c0.057,0.784,0.056,1.566-0.02,2.338
		c-1.336-0.337-2.743-0.335-4.104-0.177C29.688,35.379,29.682,35.624,29.844,35.611z"/>
	<path style="fill:#1D1D1B;" d="M41.466,0.354c-0.113-0.133-0.275-0.229-0.493-0.243c-5.953-0.4-12.952,0.026-16.368,5.73
		c-3.132,5.229-2.14,12.467,1.163,17.35c0.064,0.094,0.159,0.143,0.261,0.161c0.097,0.074,0.222,0.111,0.375,0.069
		c0.747-0.205,1.471-0.512,2.199-0.778c0.62-0.227,1.296-0.343,1.673-0.908c0.183-0.051,0.342-0.139,0.466-0.272
		c0.194,0.033,0.425-0.128,0.35-0.358c-0.053-0.162-0.102-0.331-0.154-0.496c0.094-0.042,0.108-0.195-0.011-0.224
		c-0.02-0.005-0.043-0.008-0.063-0.013c-0.911-2.973-1.522-6.316-0.185-9.227c1.674-3.646,4.948-4.208,8.621-4.05
		c0.467,0.02,0.689-0.333,0.677-0.692c0.966-1.638,2.129-3.722,2.271-5.58C42.282,0.369,41.808,0.205,41.466,0.354z M40.127,3.262
		c-1.543-0.239-3.126-0.316-4.679-0.452c-0.181-0.016-0.173,0.256,0,0.278c1.506,0.193,3.029,0.446,4.547,0.544
		c-0.173,0.479-0.346,0.958-0.519,1.437c-3.012-0.565-6.232-0.503-9.281-0.381c-0.173,0.007-0.175,0.271,0,0.271
		c3.07-0.003,6.085,0.356,9.14,0.499c-0.026,0.074-0.053,0.147-0.08,0.221c-2.233-0.151-4.344,0.018-6.132,0.865
		c-1.715-0.213-3.486-0.225-5.196-0.267c-0.157-0.004-0.155,0.233,0,0.242c1.493,0.091,2.994,0.28,4.492,0.389
		c-0.658,0.403-1.264,0.914-1.802,1.562c-1.395-0.26-2.88-0.26-4.268-0.214c-0.185,0.006-0.186,0.29,0,0.288
		c1.352-0.016,2.664,0.153,3.992,0.289c-0.21,0.285-0.413,0.585-0.6,0.918c-0.168,0.299-0.31,0.601-0.438,0.905
		c-1.142-0.183-2.331-0.215-3.477-0.314c-0.195-0.017-0.191,0.282,0,0.302c1.102,0.118,2.233,0.307,3.348,0.353
		c-0.251,0.673-0.424,1.354-0.513,2.041c-1.272-0.246-2.607-0.276-3.885-0.238c-0.192,0.006-0.193,0.302,0,0.299
		c1.302-0.02,2.562,0.136,3.842,0.282c-0.073,0.78-0.053,1.565,0.045,2.346c-1.096-0.254-2.234-0.395-3.335-0.596
		c-0.137-0.025-0.196,0.182-0.058,0.21c1.134,0.232,2.279,0.536,3.428,0.709c0.109,0.709,0.28,1.414,0.501,2.11
		c-0.942-0.137-1.909-0.19-2.848-0.29c-0.185-0.02-0.182,0.267,0,0.288c0.978,0.115,1.976,0.285,2.965,0.352
		c0.195,0.568,0.419,1.128,0.672,1.677c-1.079-0.199-2.248-0.32-3.275-0.287c-0.125,0.004-0.155,0.187-0.03,0.221
		c1.044,0.283,2.276,0.435,3.416,0.483c-0.159,0.068-0.305,0.165-0.465,0.245c-0.553,0.026-1.005,0.344-1.527,0.621
		c-0.598,0.318-1.212,0.623-1.794,0.972c-1.821-4.838-3.403-10.413-0.861-15.327c2.931-5.668,9.677-6.04,15.29-5.608
		C40.509,2.082,40.331,2.686,40.127,3.262z"/>
	<path style="fill:#1D1D1B;" d="M33.215,37.982c-1.318-0.343-2.711-0.412-4.067-0.363c-0.223,0.008-0.225,0.355,0,0.348
		c1.352-0.04,2.646,0.124,3.979,0.337C33.334,38.337,33.428,38.037,33.215,37.982z"/>
</g>
<g>
</g>
<g>
</g>
<g>
</g>
<g>
</g>
<g>
</g>
<g>
</g>
<g>
</g>
<g>
</g>
<g>
</g>
<g>
</g>
<g>
</g>
<g>
</g>
<g>
</g>
<g>
</g>
<g>
</g>
</svg>
