<?xml version="1.0" encoding="iso-8859-1"?>
<!-- Generator: Adobe Illustrator 18.0.0, SVG Export Plug-In . SVG Version: 6.00 Build 0)  -->
<!DOCTYPE svg PUBLIC "-//W3C//DTD SVG 1.1//EN" "http://www.w3.org/Graphics/SVG/1.1/DTD/svg11.dtd">
<svg version="1.1" id="Capa_1" xmlns="http://www.w3.org/2000/svg" xmlns:xlink="http://www.w3.org/1999/xlink" x="0px" y="0px"
	 viewBox="0 0 49.289 49.289" style="enable-background:new 0 0 49.289 49.289;" xml:space="preserve">
<g>
	<path style="fill:#1D1D1B;" d="M16.235,23.312c-1.194-4.513-3.158-8.985-4.823-13.347c-0.173-0.453-0.887-0.279-0.743,0.205
		c1.341,4.487,2.671,9.278,4.708,13.504C15.612,24.162,16.368,23.815,16.235,23.312z"/>
	<path style="fill:#1D1D1B;" d="M23.085,20.252c-1.357-3.608-2.683-7.232-4.037-10.842c0.096,0.008,0.191,0.013,0.287,0.021
		c0.096,0.008,0.12-0.156,0.023-0.17c-0.127-0.018-0.254-0.027-0.381-0.042c-0.236-0.628-0.466-1.258-0.704-1.884
		c-0.086-0.225-0.316-0.234-0.455-0.122c-0.068-0.152-0.198-0.277-0.422-0.286c-1.056-0.04-2.145,0.501-3.129,0.85
		c-1.018,0.361-2.025,0.736-3.021,1.157c-0.465,0.197-0.119,0.877,0.329,0.781c1.087-0.233,2.159-0.52,3.23-0.819
		c0.94-0.263,2.057-0.44,2.843-1.035c0.054-0.041,0.077-0.099,0.112-0.151c0.097,0.472,0.206,0.943,0.321,1.414
		c-1.195-0.096-2.399-0.104-3.596-0.075c-0.095,0.002-0.095,0.149,0,0.148c1.223-0.014,2.435,0.06,3.648,0.149
		c0.125,0.5,0.256,1.001,0.394,1.5c-1.516-0.402-3.114-0.54-4.675-0.519c-0.085,0.001-0.086,0.132,0,0.133
		c1.613,0.017,3.158,0.26,4.728,0.577c0.128,0.459,0.249,0.918,0.389,1.375c-1.279-0.114-2.571-0.138-3.853-0.199
		c-0.102-0.005-0.101,0.152,0,0.158c1.298,0.075,2.602,0.19,3.902,0.208c0.18,0.581,0.368,1.161,0.566,1.737
		c-1.149-0.08-2.301,0.008-3.435,0.204c-0.08,0.014-0.046,0.135,0.034,0.122c1.157-0.186,2.295-0.212,3.458-0.171
		c0.227,0.656,0.462,1.311,0.71,1.959c-0.76-0.006-1.523,0.012-2.282,0.02c-0.072,0.001-0.072,0.111,0,0.112
		c0.779,0.008,1.561,0.028,2.342,0.02c0.248,0.644,0.495,1.289,0.761,1.921c-1.46-0.039-2.92,0.054-4.37,0.235
		c-0.086,0.011-0.088,0.147,0,0.137c1.483-0.171,2.958-0.216,4.442-0.201c0.186,0.44,0.361,0.888,0.556,1.321
		c-1.802-0.054-3.616,0.009-5.417,0.017c-0.101,0-0.101,0.156,0,0.156c1.828,0.008,3.671,0.074,5.501,0.015
		c0.073,0.161,0.143,0.325,0.217,0.485c0.014,0.031,0.038,0.048,0.056,0.073c-0.858,0.268-1.705,0.597-2.544,0.933
		c-1.205-0.012-2.404-0.108-3.641-0.354c-0.07-0.014-0.1,0.091-0.03,0.108c1.016,0.239,2.062,0.402,3.113,0.468
		c-0.073,0.03-0.148,0.058-0.221,0.088c-0.804,0.327-2.004,0.578-2.39,1.415c-0.031,0.068-0.024,0.165,0.053,0.202
		c0.809,0.388,1.733-0.103,2.541-0.353c1.196-0.37,2.411-0.756,3.567-1.235c0.538-0.223,0.56-0.88,0.244-1.18
		C23.046,20.714,23.18,20.503,23.085,20.252z"/>
	<path style="fill:#1D1D1B;" d="M33.184,17.27c-0.186-0.595-0.375-1.192-0.569-1.791c0.045-0.028,0.092-0.054,0.129-0.092
		c0.033-0.034,0.037-0.081,0.016-0.122c-0.063-0.122-0.067-0.126-0.207-0.146c-0.018-0.003-0.032,0.015-0.051,0.021
		c-1.359-4.147-2.964-8.337-5.208-12.041c-0.03-0.049-0.076-0.074-0.122-0.091c-0.155-0.129-0.354-0.196-0.581-0.113
		c-2.028,0.741-4.081,1.737-5.86,2.965c-0.142,0.098-0.183,0.264-0.154,0.411c-0.212-0.018-0.45,0.155-0.353,0.393
		c1.659,4.091,3.287,8.172,4.769,12.331c0.128,0.361,0.496,0.437,0.772,0.328c-0.129,0.232-0.002,0.568,0.333,0.59
		c1.959,0.125,4.731-0.437,6.179-1.865c0.056-0.055,0.09-0.114,0.115-0.173C32.769,18.071,33.346,17.79,33.184,17.27z M27.126,4.167
		c0.014-0.006,0.02-0.017,0.033-0.023c0.15,0.425,0.311,0.845,0.468,1.267c-1.009-0.087-2.021-0.144-3.035-0.189
		C25.444,4.879,26.292,4.527,27.126,4.167z M20.885,6.563c0.042,0.001,0.086-0.002,0.134-0.018c1.054-0.349,2.108-0.74,3.152-1.152
		c1.176,0.091,2.355,0.184,3.533,0.227c0.185,0.498,0.366,0.998,0.552,1.495c-1.416-0.197-2.855-0.286-4.277-0.421
		c-0.095-0.009-0.093,0.137,0,0.148c1.445,0.159,2.897,0.374,4.348,0.465c0.187,0.498,0.363,0.999,0.552,1.496
		c-1.203-0.176-2.414-0.232-3.639-0.176c-0.099,0.004-0.099,0.157,0,0.154c1.256-0.041,2.491,0.045,3.722,0.24
		c0.269,0.71,0.538,1.419,0.808,2.129c-1.227-0.034-2.46-0.006-3.687,0c-0.107,0.001-0.107,0.166,0,0.167
		c1.248,0.007,2.501,0.036,3.75-0.001c0.24,0.632,0.483,1.262,0.719,1.896c-1.206-0.035-2.43,0.035-3.626,0.041
		c-0.114,0.001-0.114,0.177,0,0.177c1.227,0.006,2.483,0.078,3.719,0.036c0.242,0.652,0.486,1.303,0.72,1.958
		c-0.698-0.017-1.461-0.073-1.593-0.073c-1.019,0.003-2.038,0.006-3.057,0.009c-0.111,0-0.111,0.172,0,0.173
		c1.332,0.008,2.665,0.016,3.997,0.024c0.194,0.001,0.451,0.035,0.721,0.059c0.139,0.392,0.286,0.78,0.42,1.173
		c-2.129,0.218-4.226,0.354-6.38,0.27C24.186,13.463,22.683,9.928,20.885,6.563z M31.794,17.22
		c-0.987,0.166-1.923,0.699-2.878,1.007c-0.964,0.31-1.934,0.572-2.893,0.9c0.07-0.111,0.094-0.256,0.036-0.425
		c-0.172-0.51-0.363-1.015-0.544-1.523c2.124,0.148,4.291,0.113,6.404-0.201c0.029,0.085,0.062,0.17,0.09,0.255
		C31.941,17.216,31.869,17.208,31.794,17.22z"/>
	<path style="fill:#1D1D1B;" d="M44.495,5.534c-0.107-0.16-0.253-0.234-0.404-0.25c-0.193-0.228-0.508-0.358-0.849-0.187
		c-2.908,1.452-5.922,2.425-8.969,3.519c-0.332,0.119-0.42,0.407-0.339,0.646c-0.292,0.051-0.531,0.287-0.388,0.639
		c3.336,8.246,7.033,25.374-7.469,24.657c-9.84-0.487-12.347-8.242-15.95-15.725c0.567-0.303,0.383-1.343-0.345-1.306
		c-1.659,0.083-3.259,0.873-4.763,1.528C3.27,19.814,1.53,20.69,0.094,21.957c-0.174,0.153-0.083,0.414,0.092,0.507
		c-0.084,0.067-0.137,0.178-0.106,0.327c3.179,15.399,17.7,28.474,34.058,21.897c6.048-2.432,12.295-9.406,14.241-15.615
		C50.603,21.981,48.537,11.607,44.495,5.534z M48.156,23.807c-2.015-0.041-4.035,0.008-6.05,0.029c-0.061,0.001-0.061,0.094,0,0.095
		c2.012,0.021,4.03,0.069,6.043,0.029c-0.028,0.632-0.072,1.255-0.148,1.859c-2.74,0.128-5.468,0.315-8.214,0.325
		c-0.083,0-0.083,0.128,0,0.129c2.728,0.02,5.483-0.006,8.198-0.304c-0.062,0.467-0.136,0.926-0.23,1.372
		c-0.034,0.163-0.092,0.329-0.134,0.493c-2.053,0.142-4.087,0.262-6.148,0.187c-0.092-0.003-0.092,0.14,0,0.143
		c2.039,0.085,4.094,0.061,6.118-0.221c-0.204,0.784-0.465,1.573-0.808,2.363c-2.812-0.129-5.671,0.033-8.472,0.273
		c-0.079,0.007-0.081,0.128,0,0.125c2.791-0.124,5.577-0.114,8.368-0.178c-0.369,0.821-0.795,1.64-1.289,2.445
		c-2.167,0.098-4.265,0.046-6.425-0.316c-0.098-0.016-0.141,0.131-0.042,0.151c2.077,0.409,4.214,0.569,6.327,0.384
		c-0.315,0.5-0.646,0.996-1.001,1.483c-3.592-0.093-7.196-0.004-10.788,0.009c-0.099,0-0.099,0.153,0,0.154
		c3.536,0.028,7.083,0.128,10.619,0.057c-0.522,0.701-1.076,1.386-1.666,2.044c-0.524,0.029-1.28-0.049-1.621-0.029
		c-0.757,0.043-1.513,0.086-2.27,0.131c-1.405,0.083-2.811,0.167-4.216,0.254c-0.091,0.006-0.093,0.147,0,0.143
		c1.946-0.082,3.892-0.168,5.837-0.259c0.442-0.021,1.332,0.092,2.041,0.023c-0.413,0.449-0.837,0.888-1.274,1.309
		c-3.608-0.066-7.236,0.146-10.822,0.519c-0.078,0.008-0.081,0.13,0,0.124c3.521-0.25,7.027-0.336,10.552-0.383
		c-0.849,0.797-1.734,1.537-2.638,2.197c-4.461-0.076-8.939,0.049-13.398,0.128c-0.085,0.001-0.086,0.133,0,0.133
		c4.364,0.015,8.746,0.072,13.111-0.056c-1.283,0.909-2.595,1.667-3.883,2.2c-4.822-0.455-9.659-0.585-14.497-0.327
		c-0.078,0.004-0.079,0.124,0,0.122c4.662-0.107,9.293,0.027,13.935,0.424c-6.851,2.566-15.623,1.428-21.362-2.995
		C5.944,35.997,3.472,29.342,0.71,22.617c-0.036-0.088-0.095-0.146-0.162-0.182c3.077-1.012,5.91-2.66,9.072-3.44
		c1.814,9.259,8.987,18.717,19.635,16.658c12.36-2.39,8.533-18.337,5.348-26.04c3.181-0.466,6.25-1.744,9.095-3.213
		c0.579,0.933,1.102,1.972,1.58,3.067c-1.816-0.252-3.675-0.25-5.501-0.138c-0.104,0.006-0.105,0.168,0,0.162
		c1.881-0.093,3.72,0.027,5.592,0.184c0.261,0.611,0.513,1.234,0.742,1.879c-2.098-0.162-4.242-0.036-6.329,0.174
		c-0.123,0.012-0.125,0.205,0,0.194c2.146-0.184,4.264-0.159,6.412-0.149c0.26,0.746,0.502,1.507,0.715,2.284
		c-2.513-0.105-5.027-0.051-7.542-0.201c-0.1-0.006-0.1,0.149,0,0.156c2.508,0.168,5.075,0.362,7.587,0.211
		c0.581,2.16,0.979,4.406,1.13,6.599c-1.794,0.049-3.564,0.041-5.356-0.085c-0.104-0.007-0.101,0.15,0,0.16
		c1.777,0.181,3.588,0.234,5.371,0.111C48.16,21.955,48.19,22.895,48.156,23.807z"/>
	<path style="fill:#1D1D1B;" d="M47.798,18.938c-1.755-0.042-3.515,0.003-5.271,0.013c-0.107,0.001-0.107,0.166,0,0.167
		c1.756,0.01,3.515,0.055,5.271,0.013C47.922,19.127,47.922,18.941,47.798,18.938z"/>
	<path style="fill:#1D1D1B;" d="M47.166,16.62c-1.432-0.033-2.865-0.011-4.297-0.008c-1.075,0.002-2.902,0.368-3.837-0.071
		c0.059,0.028,0.112-0.059,0.052-0.089c-0.033-0.017-0.066-0.034-0.098-0.05c-0.027-0.014-0.057-0.006-0.073,0.019
		c-0.026,0.04-0.053,0.08-0.079,0.121c-0.014,0.021-0.007,0.05,0.009,0.068c0.487,0.533,2.161,0.199,2.8,0.204
		c1.841,0.015,3.684,0.048,5.524-0.01C47.284,16.8,47.284,16.623,47.166,16.62z"/>
</g>
<g>
</g>
<g>
</g>
<g>
</g>
<g>
</g>
<g>
</g>
<g>
</g>
<g>
</g>
<g>
</g>
<g>
</g>
<g>
</g>
<g>
</g>
<g>
</g>
<g>
</g>
<g>
</g>
<g>
</g>
</svg>
