<?xml version="1.0" encoding="iso-8859-1"?>
<!-- Generator: Adobe Illustrator 18.0.0, SVG Export Plug-In . SVG Version: 6.00 Build 0)  -->
<!DOCTYPE svg PUBLIC "-//W3C//DTD SVG 1.1//EN" "http://www.w3.org/Graphics/SVG/1.1/DTD/svg11.dtd">
<svg version="1.1" id="Capa_1" xmlns="http://www.w3.org/2000/svg" xmlns:xlink="http://www.w3.org/1999/xlink" x="0px" y="0px"
	 viewBox="0 0 49.722 49.722" style="enable-background:new 0 0 49.722 49.722;" xml:space="preserve">
<g>
	<path style="fill:#1D1D1B;" d="M45.679,3.963c-0.098,0.01-0.197,0.016-0.295,0.026C45.36,3.013,45.34,2.038,45.3,1.063
		c-0.008-0.191-0.184-0.297-0.349-0.298c-0.054-0.202-0.212-0.371-0.484-0.369C31.739,0.469,18.379-0.757,5.722,0.773
		C5.593,0.37,4.93,0.422,4.895,0.913C3.808,16.006,3.378,32.172,4.896,47.238c0.017,0.166,0.106,0.276,0.217,0.342
		c-0.065,0.142-0.042,0.315,0.139,0.403c5.014,2.434,11.689,1.576,17.11,1.655c7.6,0.11,15.178-0.07,22.773-0.313
		c0.805-0.026,0.818-1.253,0.062-1.278c-0.254-4.299-0.308-8.598-0.272-12.896c0.185-0.009,0.371-0.011,0.556-0.021
		c0.121-0.006,0.123-0.191,0-0.19c-0.185,0.002-0.37,0.005-0.554,0.007c0.092-10.236,0.697-20.466,0.467-30.685
		c0.096-0.01,0.192-0.014,0.287-0.024C45.853,4.22,45.855,3.945,45.679,3.963z M38.099,14.01c1.773-0.109,3.553-0.213,5.325-0.368
		c-0.029,0.652-0.065,1.303-0.086,1.957c-4.212,0.159-8.404,0.274-12.622,0.134c-0.109-0.004-0.108,0.164,0,0.169
		c4.199,0.18,8.421,0.21,12.616-0.091c-0.032,1.054-0.066,2.108-0.077,3.165c-1.718-0.007-3.446,0.113-5.162,0.174
		c-0.099,0.004-0.099,0.156,0,0.154c1.715-0.038,3.445-0.017,5.158-0.123c-0.009,0.915-0.012,1.831-0.007,2.748
		c-1.857,0.057-3.716,0.174-5.569,0.284c-0.123,0.007-0.124,0.197,0,0.192c1.855-0.079,3.717-0.151,5.571-0.284
		c0.005,0.79,0.011,1.58,0.024,2.371c-4.159,0.261-8.328,0.659-12.493,0.624c-0.097-0.001-0.095,0.143,0,0.15
		c4.095,0.28,8.37-0.207,12.496-0.536c0.02,1.1,0.047,2.199,0.08,3.299c-1.824,0.065-3.638,0.13-5.467,0.064
		c-0.124-0.004-0.123,0.186,0,0.192c1.819,0.087,3.655,0.116,5.474-0.022c0.024,0.765,0.045,1.531,0.074,2.296
		c-2.553,0.042-5.115,0.282-7.663,0.438c-0.087,0.005-0.089,0.141,0,0.137c2.551-0.115,5.125-0.148,7.669-0.377
		c0.054,1.404,0.115,2.806,0.181,4.206c-5.005,0.066-10.004,0.174-15.013,0.112c-0.087-0.001-0.087,0.133,0,0.135
		c5,0.123,10.022,0.181,15.024-0.013c0.098,2.066,0.204,4.127,0.309,6.177c-2.931-0.113-5.879,0.007-8.8,0.242
		c-0.074,0.006-0.075,0.12,0,0.116c2.943-0.175,5.869-0.172,8.811-0.133c0.063,1.235,0.126,2.468,0.186,3.695
		c-2.616,0.084-26.933,1.04-26.913,0.414c0.001-0.041-0.065-0.051-0.073-0.01l-0.09,0.469c-0.007,0.039,0.01,0.082,0.052,0.092
		c3.59,0.846,8.264-0.088,11.952-0.204c5.028-0.158,10.056-0.321,15.083-0.504c0.041,0.845,0.081,1.688,0.118,2.528
		c-6.344,0.359-12.71,0.465-19.063,0.413c-6.362-0.052-13.242,0.247-19.493-1.09c0.019-0.049,0.034-0.102,0.036-0.165
		c0.234-7.696-0.322-15.456-0.317-23.163C5.438,16.529,5.744,8.984,5.745,1.438c5.759,0.92,11.908,0.299,17.711,0.257
		c7.005-0.051,14.007-0.197,21.01-0.245c0.055,0,0.099-0.017,0.145-0.03c-0.143,0.886-0.267,1.777-0.383,2.669
		c-4.639,0.42-9.271,0.603-13.934,0.488c-0.098-0.002-0.098,0.148,0,0.152c4.64,0.166,9.273,0.045,13.895-0.365
		c-0.379,2.989-0.614,6.009-0.755,9.045c-1.78,0.091-3.56,0.235-5.335,0.371C37.953,13.792,37.95,14.019,38.099,14.01z"/>
	<path style="fill:#1D1D1B;" d="M36.576,38.383c-0.081-1.076-1.226-1.494-1.97-0.887c-3.523,0.149-7.46-0.754-10.972-0.85
		c-2.597-0.071-7.137-0.924-9.406,0.527c-0.702,0.449-0.861,1.671,0,2.08c0.171,0.081,0.338,0.171,0.535,0.166
		c3.212-0.08,6.409-0.172,9.626-0.071c3.481,0.109,7.521,1.105,10.947,0.646c0.637-0.085,1.323-0.512,1.266-1.266
		C36.593,38.614,36.585,38.499,36.576,38.383z"/>
	<path style="fill:#1D1D1B;" d="M35.683,27.128c-3.543-1.2-7.728-1.006-11.436-1.024c-2.921-0.014-6.665-0.448-9.379,0.785
		c-1.308,0.595-0.274,2.27,0.891,2.113c6.528-0.88,13.212,0.834,19.655,0.115C36.525,28.993,36.818,27.513,35.683,27.128z"/>
	<path style="fill:#1D1D1B;" d="M36.17,18.132c-3.028-0.945-7.036-0.382-10.202-0.457c-3.514-0.084-7.68-0.846-10.992,0.454
		c-0.44,0.173-0.695,0.9-0.15,1.147c3.735,1.69,8.644,1.004,12.689,1.109c2.353,0.061,4.716,0.208,7.064,0.245
		c0.544,0.009,1.389,0.334,1.911-0.05C37.404,19.908,37.339,18.497,36.17,18.132z"/>
	<path style="fill:#1D1D1B;" d="M34.507,8.94c-4.171,0.491-8.067-0.05-12.217-0.367c-2.715-0.207-5.803-0.524-8.023,1.274
		c-0.347,0.281-0.13,0.854,0.253,0.961c3.03,0.844,6.663,0.295,9.821,0.642c3.529,0.389,7.007,0.791,10.503-0.016
		C36.207,11.118,35.947,8.77,34.507,8.94z"/>
	<path style="fill:#1D1D1B;" d="M43.156,43.359c-6.044,0.009-12.09,0.193-18.13,0.417c-0.072,0.003-0.072,0.114,0,0.112
		c6.043-0.182,12.085-0.243,18.13-0.316C43.293,43.57,43.294,43.358,43.156,43.359z"/>
	<path style="fill:#1D1D1B;" d="M43.375,38.295c-1.906,0.155-3.783,0.362-5.7,0.366c-0.117,0-0.117,0.181,0,0.181
		c1.9,0.013,3.85-0.03,5.723-0.375C43.495,38.449,43.474,38.287,43.375,38.295z"/>
	<path style="fill:#1D1D1B;" d="M42.952,33.099c-2.675,0.042-5.341,0.122-8.017,0.085c-0.089-0.001-0.088,0.134,0,0.137
		c2.664,0.1,5.355,0.143,8.017-0.028C43.076,33.285,43.078,33.097,42.952,33.099z"/>
	<path style="fill:#1D1D1B;" d="M43.157,11.022c-2.037-0.042-4.077,0.006-6.114,0.02c-0.117,0.001-0.117,0.181,0,0.181
		c2.037,0.014,4.077,0.063,6.114,0.02C43.3,11.24,43.3,11.025,43.157,11.022z"/>
	<path style="fill:#1D1D1B;" d="M43.788,7.028c-2.536,0.174-5.041,0.457-7.588,0.486c-0.114,0.001-0.114,0.177,0,0.177
		c2.525-0.007,5.119-0.056,7.611-0.496C43.905,7.18,43.884,7.022,43.788,7.028z"/>
</g>
<g>
</g>
<g>
</g>
<g>
</g>
<g>
</g>
<g>
</g>
<g>
</g>
<g>
</g>
<g>
</g>
<g>
</g>
<g>
</g>
<g>
</g>
<g>
</g>
<g>
</g>
<g>
</g>
<g>
</g>
</svg>
