<?xml version="1.0" encoding="iso-8859-1"?>
<!-- Generator: Adobe Illustrator 18.0.0, SVG Export Plug-In . SVG Version: 6.00 Build 0)  -->
<!DOCTYPE svg PUBLIC "-//W3C//DTD SVG 1.1//EN" "http://www.w3.org/Graphics/SVG/1.1/DTD/svg11.dtd">
<svg version="1.1" id="Capa_1" xmlns="http://www.w3.org/2000/svg" xmlns:xlink="http://www.w3.org/1999/xlink" x="0px" y="0px"
	 viewBox="0 0 48.77 48.77" style="enable-background:new 0 0 48.77 48.77;" xml:space="preserve">
<g>
	<path style="fill:#1D1D1B;" d="M32.697,12.704c-11.894-9.769-28.492,5.94-19.74,18.366c-1.317,1.683-2.176,3.654-2.811,5.688
		c-0.173,0.554,0.368,0.958,0.868,0.868c1.986-0.358,4.006-0.643,5.973-1.099c0.032,0.035,0.067,0.069,0.107,0.097
		c0.27,0.192,0.56,0.286,0.855,0.3c0.004,0.002,0.006,0.004,0.01,0.006c6.616,2.029,14.056,0.619,18.038-5.488
		C39.902,25.455,38.156,17.188,32.697,12.704z M34.12,31.884c-3.978,4.587-10.286,5.263-15.869,3.989
		c-0.144-0.033-0.265-0.007-0.368,0.044c-0.106-0.082-0.21-0.164-0.329-0.211c-0.011-0.004-0.023-0.003-0.034-0.006
		c-0.067-0.256-0.26-0.466-0.577-0.432c-1.698,0.185-3.39,0.496-5.078,0.788c0.566-1.637,1.242-3.225,1.854-4.849
		c0.02-0.053,0.02-0.104,0.011-0.153c0.014-0.078,0.01-0.164-0.034-0.257c-2.657-5.53-2.823-11.939,1.968-16.432
		c4.502-4.222,11.399-4.4,16.137-0.505C37.141,18.251,38.872,26.405,34.12,31.884z"/>
	<path style="fill:#1D1D1B;" d="M26.221,17.003c-0.025-0.05-0.06-0.094-0.114-0.119c-7.941-3.58-12.344,12.712-2.863,13.916
		c3.896,0.495,7.536-1.981,8.075-5.928C31.809,21.287,29.857,17.36,26.221,17.003z M25.232,23.798
		c1.559-0.179,3.092-0.182,4.648-0.169c0.001,0.342-0.019,0.688-0.069,1.037c-0.026,0.177-0.078,0.34-0.118,0.508
		c-1.622-0.065-3.26-0.006-4.88,0.013c-0.077,0.001-0.078,0.119,0,0.12c1.61,0.019,3.236,0.077,4.846,0.014
		c-0.108,0.399-0.24,0.782-0.419,1.133c-1.82-0.086-3.66-0.006-5.481,0.004c-0.071,0-0.071,0.109,0,0.11
		c1.798,0.009,3.615,0.087,5.412,0.006c-0.22,0.404-0.476,0.781-0.783,1.108c-2.394,0.066-4.775,0.058-7.166-0.085
		c-0.087-0.005-0.086,0.129,0,0.135c2.325,0.16,4.658,0.213,6.986,0.108c-1.22,1.19-2.977,1.791-4.866,1.558
		c-3.461-0.427-4.8-3.929-3.957-7.041c0.732-2.704,2.684-3.992,5.09-4.597c0.065,0.169,0.22,0.304,0.476,0.316
		c1.375,0.062,2.481,0.587,3.299,1.393c-1.918-0.025-3.839,0.016-5.756,0.028c-0.076,0-0.076,0.118,0,0.118
		c1.973,0.013,3.951,0.059,5.925,0.028c0.454,0.494,0.812,1.077,1.056,1.724c-1.694-0.014-3.39,0.018-5.083,0.03
		c-0.073,0-0.073,0.113,0,0.114c1.715,0.012,3.433,0.045,5.148,0.03c0.208,0.606,0.328,1.257,0.344,1.932
		c-1.548-0.082-3.122,0.043-4.651,0.242C25.18,23.72,25.178,23.804,25.232,23.798z"/>
	<path style="fill:#1D1D1B;" d="M25.509,0.071C11.16-0.972-0.214,9.636,0.206,23.998C0.593,37.284,10.981,49.271,24.74,48.753
		c13.383-0.045,24.007-10.726,23.833-24.201C48.408,11.702,38.367,1.005,25.509,0.071z M41.258,25.95
		c2.061,0.011,4.126,0.044,6.188,0.017c-0.04,0.643-0.099,1.28-0.191,1.906c-1.992-0.139-4.001-0.142-5.996-0.201
		c-0.105-0.003-0.104,0.159,0,0.162c1.988,0.074,3.986,0.204,5.977,0.2c-0.188,1.219-0.472,2.404-0.848,3.544
		c-0.011-0.028-0.031-0.053-0.07-0.054c-1.686-0.06-3.375-0.08-5.062-0.091c-0.101-0.001-0.1,0.153,0,0.156
		c1.687,0.053,3.375,0.098,5.062,0.102c0.016,0,0.025-0.009,0.036-0.015c-0.356,1.061-0.782,2.09-1.286,3.072
		c-2.044,0.097-4.086,0.233-6.128,0.354c-0.102,0.006-0.103,0.166,0,0.16c2.009-0.107,4.021-0.2,6.029-0.328
		c-0.39,0.742-0.808,1.467-1.275,2.157c-2.287,0.17-4.566,0.313-6.864,0.312c-0.096,0-0.096,0.149,0,0.15
		c2.247,0.019,4.503-0.044,6.741-0.275c-0.459,0.663-0.941,1.31-1.467,1.92c-2.458-0.027-4.929,0.123-7.385,0.194
		c-0.085,0.003-0.086,0.135,0,0.133c2.412-0.051,4.843-0.029,7.253-0.17c-0.509,0.578-1.045,1.131-1.61,1.655
		c-3.012,0.301-5.983,0.467-9.019,0.274c-0.094-0.006-0.093,0.139,0,0.146c2.939,0.199,5.908,0.166,8.829-0.248
		c-0.592,0.537-1.209,1.048-1.856,1.522c-4.626,0.579-9.259,0.858-13.924,0.84c-0.072,0-0.072,0.111,0,0.112
		c4.556,0.069,9.085-0.185,13.605-0.723c-1.015,0.719-2.083,1.369-3.209,1.921c-0.016-0.011-0.032-0.022-0.057-0.02
		c-4.289,0.366-8.568,0.472-12.868,0.596c-0.071,0.002-0.071,0.108,0,0.11c4.151,0.124,8.324-0.115,12.462-0.459
		c-3.01,1.395-6.364,2.173-9.871,2.182c-0.329,0.001-0.537,0.179-0.641,0.408C11.644,46.503,2.272,37.267,1.552,24.79
		C0.748,10.869,11.55,0.404,25.509,1.535c2.705,0.219,5.322,0.947,7.755,2.068C28.9,3.729,24.536,3.88,20.173,4.021
		c-0.108,0.004-0.109,0.171,0,0.169c4.531-0.114,9.062-0.218,13.593-0.351c1.433,0.7,2.8,1.534,4.074,2.494
		c-4.624,0.021-9.253,0.197-13.873,0.309c-0.097,0.002-0.098,0.153,0,0.152c4.712-0.069,9.435-0.07,14.146-0.239
		c1.024,0.794,1.998,1.653,2.887,2.593c-3.567,0-7.141,0.144-10.704,0.218c-0.103,0.002-0.103,0.162,0,0.16
		c3.632-0.05,7.277-0.027,10.909-0.158c0.725,0.784,1.405,1.608,2.022,2.477c-0.679-0.113-1.753,0.021-2.114,0.016
		c-2.667-0.038-5.353-0.135-7.995,0.28c-0.053,0.008-0.04,0.095,0.013,0.093c0.18-0.006,0.359-0.013,0.538-0.019
		c0.05-0.002,0.05-0.078,0-0.078c2.246-0.01,4.486-0.108,6.739-0.069c0.8,0.014,2.232,0.327,3.018,0.061
		c1.111,1.613,2.038,3.349,2.714,5.189c-2.32-0.187-4.666-0.19-6.989-0.152c-0.083,0.001-0.083,0.129,0,0.129
		c2.36-0.006,4.708,0.12,7.063,0.209c0.232,0.648,0.441,1.304,0.611,1.973c-2.495,0.002-4.974,0.047-7.469-0.102
		c-0.069-0.004-0.069,0.103,0,0.108c2.484,0.169,5.007,0.285,7.496,0.124c0.312,1.256,0.526,2.543,0.605,3.858
		c-2.205-0.043-4.415,0.007-6.62,0.018c-0.1,0.001-0.101,0.156,0,0.156c2.207,0.011,4.419,0.061,6.626,0.018
		c0.015,0.298,0.028,0.596,0.031,0.896c0.003,0.419-0.02,0.83-0.042,1.241c-2.064-0.027-4.131,0.006-6.193,0.017
		C41.168,25.811,41.168,25.949,41.258,25.95z"/>
	<path style="fill:#1D1D1B;" d="M44.209,14.421c-2.803-0.207-5.626-0.281-8.435-0.373c-0.076-0.003-0.075,0.114,0,0.118
		c2.806,0.167,5.624,0.353,8.435,0.405C44.307,14.572,44.305,14.428,44.209,14.421z"/>
</g>
<g>
</g>
<g>
</g>
<g>
</g>
<g>
</g>
<g>
</g>
<g>
</g>
<g>
</g>
<g>
</g>
<g>
</g>
<g>
</g>
<g>
</g>
<g>
</g>
<g>
</g>
<g>
</g>
<g>
</g>
</svg>
