<?xml version="1.0" encoding="iso-8859-1"?>
<!-- Generator: Adobe Illustrator 18.0.0, SVG Export Plug-In . SVG Version: 6.00 Build 0)  -->
<!DOCTYPE svg PUBLIC "-//W3C//DTD SVG 1.1//EN" "http://www.w3.org/Graphics/SVG/1.1/DTD/svg11.dtd">
<svg version="1.1" id="Capa_1" xmlns="http://www.w3.org/2000/svg" xmlns:xlink="http://www.w3.org/1999/xlink" x="0px" y="0px"
	 viewBox="0 0 49.302 49.302" style="enable-background:new 0 0 49.302 49.302;" xml:space="preserve">
<g>
	<path style="fill:#1D1D1B;" d="M46.834,22.817c-2.618-1.425-5.184-2.782-7.705-4.373c1.905-2.641,3.313-5.65,4.602-8.629
		C43.869,9.496,43.796,9,43.37,8.928c-1.667-0.284-3.22,0.107-4.864,0.414c-2.094,0.391-4.198,0.77-6.274,1.251
		c-0.436-1.317-0.975-2.604-1.524-3.875c-0.569-1.317-1.069-2.946-2.006-4.05c-0.151-0.178-0.414-0.212-0.627-0.166
		c-1.33,0.286-2.057,1.552-2.787,2.592C24,6.929,22.54,8.546,20.924,10.078c-1.753-0.597-3.608-0.961-5.417-1.335
		c-0.953-0.197-3.103-1.067-4.014-0.396c-0.833,0.614-0.382,2.186-0.336,3.002c0.101,1.804-0.034,3.797,0.468,5.54
		c-0.323,0.065-0.638,0.14-0.933,0.243c-0.009,0.003-0.014,0.009-0.023,0.013c-2.609,0.553-5.086,1.409-7.601,2.301
		c-0.936,0.332-2.912,0.696-3.062,1.983c-0.147,1.258,1.772,2.22,2.629,2.805c1.443,0.985,2.989,1.822,4.602,2.499
		c-0.853,0.728-1.42,1.985-1.936,2.868c-1.418,2.426-2.622,4.961-3.699,7.554C1.39,37.666,1.98,38.016,2.4,37.952
		c3.528-0.537,7.231-0.889,10.686-1.822c0.148,2.358,0.469,4.71,0.918,7.028c0.186,0.961,0.194,3.456,1.584,3.65
		c1.321,0.185,2.787-2.244,3.5-3.006c1.93-2.061,3.979-4.064,5.745-6.268c0.09-0.112,0.125-0.23,0.136-0.347
		c2.101,1.465,4.307,2.725,6.646,3.801c1.132,0.521,4.201,2.512,5.384,1.696c1.184-0.816,0.379-4.102,0.338-5.274
		c-0.084-2.399,0.241-5.274-0.768-7.518c2.756-0.434,5.453-1.347,8.083-2.248c0.986-0.338,4.302-0.819,4.622-2.192
		C49.555,24.247,47.628,23.249,46.834,22.817z M37.149,10.927c1.625-0.329,3.465-0.954,5.17-0.902
		c-0.24,0.54-0.502,1.067-0.756,1.599c-1.415-0.102-2.888,0.038-4.302,0.065c-0.118,0.002-0.118,0.181,0,0.183
		c1.364,0.026,2.782,0.154,4.151,0.072c-0.166,0.345-0.322,0.696-0.492,1.04c-1.836-0.169-3.928-0.041-5.756,0.199
		c-0.117,0.015-0.123,0.177,0,0.186c1.791,0.135,3.823,0.14,5.618-0.108c-0.251,0.506-0.5,1.013-0.753,1.517
		c-1.091-0.045-2.215,0.041-3.293,0.063c-0.113,0.002-0.113,0.174,0,0.176c1.026,0.02,2.095,0.103,3.137,0.072
		c-0.243,0.485-0.487,0.969-0.728,1.455c-1.103-0.002-2.187,0.06-3.293-0.046c-0.084-0.008-0.105,0.137-0.02,0.149
		c1.036,0.146,2.13,0.258,3.183,0.162c-0.217,0.44-0.437,0.879-0.649,1.323c-0.908-0.55-2.04-0.782-3.026-1.147
		c-1.503-0.556-1.929-0.583-2.399-2.795c-0.162-0.762-0.082-1.654-0.129-2.433C34.264,11.512,35.708,11.219,37.149,10.927z
		 M33.97,17.876c0.694,0.33,1.492,0.463,2.17,0.819c0.916,0.48,1.056,0.161,0.428,1.166c-0.693,1.109-1.805,1.829-2.586,2.881
		c-1.078-0.537-2.552-1.121-2.886-2.153c-0.369-1.14,0.547-3.008,1.126-4.261C32.577,16.943,33.121,17.471,33.97,17.876z
		 M27.867,25.712c-0.052,0.267-0.091,0.536-0.139,0.803c-2.117-0.106-4.266,0.018-6.384,0.042c-0.115,0.001-0.116,0.178,0,0.179
		c2.102,0.024,4.236,0.145,6.338,0.043c-0.066,0.382-0.139,0.763-0.198,1.146c-0.62-0.102-1.327,0-1.942,0.015
		c-0.136,0.003-0.136,0.208,0,0.211c0.604,0.015,1.295,0.112,1.906,0.02c-0.103,0.677-0.199,1.354-0.29,2.033
		c-1.148-0.55-2.276-1.129-3.381-1.77c-0.265-0.154-0.619-0.062-0.775,0.203c-0.559,0.952-1.387,2.713-2.369,3.241
		c-1.165,0.627-1.621-2.003-1.936-2.933c-0.068-0.201-0.244-0.269-0.404-0.245c-0.004-0.001-0.007-0.004-0.011-0.005
		c-0.833-0.163-2.961-0.138-3.353-0.728c-0.423-0.637,0.581-2.118,0.901-2.912c0.078-0.194-0.055-0.419-0.212-0.522
		c-0.586-0.384-1.141-0.807-1.724-1.194c-0.372-0.247-0.574-0.358-0.662-0.427c0.003-0.01,0.009-0.02,0.012-0.03
		c0.011-0.037,0.01-0.074,0.018-0.111c0.117-0.059,0.344-0.15,0.642-0.387c0.802-0.638,2.108-0.622,2.851-1.396
		c0.873-0.909,0.73-2.555,0.641-3.888c0.092-0.044,0.178-0.093,0.261-0.144c1.178,0.384,2.356,0.77,3.539,1.137
		c0.351,0.109,0.582-0.148,0.616-0.43c0.066-0.011,0.132-0.041,0.191-0.111c0.842-0.993,1.633-2.018,2.485-2.999
		c0.33,1.214,0.771,2.802,1.657,3.117c0.45,0.16,1.103-0.154,1.498-0.265c1.095-0.308,2.185-0.635,3.275-0.961
		c-0.203,0.602-0.419,1.201-0.632,1.8c-2.611-0.131-5.279,0.016-7.891,0.077c-0.133,0.003-0.134,0.204,0,0.207
		c2.569,0.06,5.193,0.2,7.763,0.08c-0.069,0.195-0.135,0.39-0.205,0.585c-0.023,0.064-0.052,0.135-0.083,0.211
		c-1.637-0.093-3.461,0.081-5.056,0.301c-0.131,0.018-0.09,0.215,0.03,0.221c1.539,0.079,3.281,0.089,4.853-0.114
		c-0.186,0.447-0.365,0.96-0.254,1.351c-3.047-0.028-6.101,0.126-9.15,0.088c-0.103-0.001-0.101,0.152,0,0.158
		c3.085,0.184,6.244,0.354,9.336,0.125c0.388,0.556,1.215,1.039,2.064,1.453c-4.028-0.083-8.068,0.031-12.096,0.061
		c-0.127,0.001-0.127,0.196,0,0.197c4.15,0.031,8.315,0.154,12.464,0.056c-1.241,0.29-2.48,0.583-3.725,0.858
		c-0.239,0.053-0.36,0.21-0.404,0.391c-2.606,0.006-5.206,0.057-7.814-0.034c-0.143-0.005-0.142,0.214,0,0.222
		c2.596,0.142,5.215,0.247,7.817,0.141c0.083,0.287,0.348,0.53,0.721,0.44c1.51-0.363,3.025-0.705,4.54-1.047
		c-0.003,0.036-0.017,0.064-0.014,0.104c0.124,1.718,0.565,3.274,1.342,4.762c-2.033,0.467-4.42,0.815-6.263,1.652
		c0.215-1.646,0.455-3.289,0.674-4.934C29.014,25.254,27.983,25.114,27.867,25.712z M13.956,29.485
		c1.25,0.408,3.284,0.056,4.119-0.021c0.25,1.044,0.53,2.274,1.074,3.24c-1.691-0.082-2.435,1.74-3.864,1.849
		C13.337,34.702,14.298,31.153,13.956,29.485z M31.71,14.887c-1.224,0.348-2.717,1.08-3.964,1.16
		c-1.426,0.091-1.753-1.049-2.166-2.236c0.098,0.003,0.198,0.019,0.295,0.013c1.788-0.099,3.882-0.922,5.63-1.764
		C31.539,13.06,31.545,14.021,31.71,14.887z M26.589,5.507c0.428-0.609,0.881-1.526,1.769-0.926
		c0.201,0.136,0.491,0.811,0.731,1.416c-0.73-0.02-1.481,0.098-2.179,0.241c-0.134,0.027-0.076,0.226,0.056,0.203
		c0.766-0.131,1.499-0.119,2.254-0.111c0.105,0.272,0.194,0.504,0.246,0.614c0.152,0.326,0.312,0.65,0.465,0.976
		c-1.285-0.112-2.574-0.193-3.861-0.279c-0.112-0.008-0.109,0.161,0,0.172c1.329,0.134,2.66,0.276,3.992,0.382
		c0.243,0.513,0.481,1.027,0.732,1.536c-1.601-0.291-3.284-0.377-4.897-0.513c-0.08-0.007-0.1,0.13-0.019,0.142
		c1.649,0.229,3.357,0.53,5.025,0.588c0.161,0.322,0.314,0.649,0.483,0.966c-0.024,0.031-0.056,0.058-0.073,0.092
		c-0.244,0.058-0.485,0.129-0.726,0.197c-0.016-0.064-0.059-0.119-0.147-0.12c-1.676-0.001-3.405-0.167-5.072-0.085
		c-0.091,0.004-0.115,0.138-0.022,0.162c1.344,0.356,2.92,0.377,4.359,0.301c-0.938,0.292-1.871,0.599-2.838,0.779
		c-1.898,0.354-3.274-0.629-4.803-1.387C23.779,9.239,25.227,7.442,26.589,5.507z M20.919,11.637
		c0.854,0.68,1.887,1.384,2.972,1.806c-0.938,1.139-1.808,2.315-2.443,3.66c-1.007-0.325-2.019-0.633-3.03-0.944
		c0.343-0.551,0.578-1.216,0.834-1.736c0.473-0.961,0.929-1.922,1.343-2.905C20.693,11.581,20.8,11.627,20.919,11.637z M12.925,9.71
		c1.333-0.069,3.073,0.588,4.412,0.797c0.83,0.129,1.659,0.263,2.492,0.357c-0.198,0.31-0.372,0.634-0.559,0.95
		c-1.95-0.514-4.358-0.583-6.348-0.301c-0.119,0.017-0.081,0.194,0.027,0.2c2.041,0.126,4.102,0.303,6.142,0.405
		c-0.196,0.337-0.406,0.666-0.594,1.009c-0.046,0.083-0.092,0.179-0.137,0.27c-1.171-0.017-2.321,0-3.489-0.153
		c-0.136-0.018-0.17,0.22-0.033,0.242c1.11,0.176,2.258,0.289,3.383,0.187c-0.231,0.48-0.478,1.011-0.79,1.45
		c-1.553-0.03-3.107,0.056-4.664-0.04c-0.121-0.007-0.118,0.175,0,0.186c1.429,0.136,2.938,0.274,4.394,0.188
		c-0.088,0.094-0.181,0.181-0.28,0.255c-0.187-0.009-0.361,0.089-0.449,0.25c-1.12,0.516-2.525,0.596-3.852,0.771
		c0.18-1.172,0.046-2.354-0.008-3.542c-0.034-0.736-0.07-1.473-0.101-2.21c-0.018-0.368-0.032-0.736-0.042-1.105
		C12.303,9.403,12.468,9.348,12.925,9.71z M14.402,17.841c0.554-0.121,1.296-0.22,1.992-0.394c0.027,1.445-0.073,2.798-1.606,3.512
		c-0.441,0.205-1.079,0.372-1.642,0.622c-0.028-0.083-0.055-0.167-0.086-0.25c-0.38-1.004-0.856-1.994-1.302-2.987
		C12.648,18.254,13.525,18.033,14.402,17.841z M5.23,24.469c-0.584-0.337-1.154-0.699-1.708-1.083
		c-0.512-0.353-1.01-0.726-1.493-1.119c-0.602-0.595-0.558-0.924,0.134-0.988c0.489-0.471,1.806-0.635,2.454-0.86
		c0.778-0.27,1.558-0.537,2.331-0.82c1.176-0.43,2.299-0.939,3.415-1.485c0.092,0.136,0.234,0.24,0.44,0.26
		c0.275,0.969,0.748,1.978,0.898,2.925c-1.801-0.41-3.763-0.402-5.579-0.251c-0.145,0.012-0.149,0.235,0,0.228
		c1.912-0.079,3.728,0.151,5.612,0.343c0.015,0.198,0.019,0.394-0.006,0.585c-0.014,0.107-0.05,0.21-0.08,0.314
		c-1.248-0.018-2.534,0.13-3.771,0.217c-0.121,0.009-0.124,0.192,0,0.19c1.206-0.021,2.462,0.006,3.674-0.108
		c-0.199,0.477-0.534,0.93-0.936,1.367c-1.021,0.038-2.017,0.098-3.067-0.051c-0.134-0.019-0.194,0.184-0.057,0.207
		c0.868,0.146,1.829,0.26,2.757,0.225c-0.529,0.527-1.11,1.038-1.601,1.551C7.484,25.614,6.331,25.104,5.23,24.469z M3.282,36.509
		c0.698-1.644,1.442-3.266,2.275-4.848c0.692-1.316,1.391-3.053,2.443-4.231c0.075,0.143,0.2,0.26,0.353,0.309
		c0.028,0.023,0.052,0.048,0.089,0.065c1.607,0.715,3.16,1.101,3.935,2.556c-1.322-0.057-2.67-0.05-3.978,0.006
		c-0.102,0.004-0.101,0.15,0,0.158c1.358,0.103,2.762,0.159,4.135,0.139c0.093,0.227,0.174,0.472,0.232,0.75
		c0.025,0.12,0.039,0.242,0.056,0.363c-2.123,0.014-4.214,0.207-6.348,0.073c-0.114-0.007-0.112,0.167,0,0.176
		c2.074,0.172,4.308,0.318,6.38-0.027c0.058,0.569,0.047,1.152,0.051,1.733c-1.262-0.009-2.546,0.12-3.803,0.202
		c-0.116,0.007-0.119,0.186,0,0.183c1.259-0.035,2.549-0.025,3.805-0.15c0.006,0.369,0.021,0.736,0.072,1.098
		C9.744,35.334,6.504,36.006,3.282,36.509z M12.945,28.266c-0.988-0.565-2.462-0.851-3.527-1.111
		c0.765-0.669,1.441-1.43,2.144-2.175c0.38-0.403,0.892-0.833,1.265-1.323c0.776,0.499,1.697,0.887,1.66,1.804
		C14.451,26.388,12.989,27.274,12.945,28.266z M24.065,36.644c-2.119-0.301-4.263-0.472-6.391-0.695
		c-0.163-0.017-0.158,0.233,0,0.253c2.013,0.258,4.029,0.559,6.051,0.754c-0.431,0.412-0.854,0.832-1.268,1.263
		c-0.021-0.01-0.035-0.028-0.062-0.029c-2.037-0.088-4.083-0.117-6.122-0.131c-0.17-0.001-0.169,0.255,0,0.264
		c1.953,0.098,3.913,0.18,5.869,0.212c-0.583,0.616-1.153,1.244-1.726,1.869c-1.255-0.097-2.547-0.043-3.792-0.066
		c-0.127-0.002-0.126,0.192,0,0.197c1.153,0.048,2.343,0.173,3.512,0.173c-0.086,0.093-0.171,0.187-0.257,0.28l-1.349,1.453
		c-0.802-0.005-1.597-0.014-2.408-0.128c-0.127-0.018-0.184,0.176-0.054,0.197c0.715,0.113,1.46,0.199,2.2,0.213l-0.124,0.134
		c-0.456,0.491-1.398,1.98-2.024,2.18c-0.155,0.358-0.262,0.436-0.322,0.236c-0.126-0.545-0.248-1.092-0.366-1.639
		c-0.181-0.819-0.356-1.64-0.532-2.46c-0.354-1.659-0.703-3.321-1.078-4.975c1.121,0.166,1.9-0.397,2.852-1.079
		c2.44-1.748,4.79,0.061,7.194,1.196c0.021,0.07,0.06,0.139,0.134,0.193c0.043,0.032,0.088,0.06,0.132,0.092
		C24.109,36.614,24.087,36.631,24.065,36.644z M20.849,33.173c1.147-0.798,2.119-2.297,2.844-3.486
		c1.13,0.656,2.278,1.267,3.461,1.824c-0.992,0.99-1.536,2.7-2.093,3.94C23.689,34.907,22.264,33.818,20.849,33.173z M35.353,41.23
		c-1.688-0.102-3.998-1.705-5.507-2.455c-1.409-0.7-2.805-1.432-4.197-2.169c0.111-0.152,0.16-0.358,0.124-0.552
		c1.081-1.791,1.719-3.716,3.848-4.264c2.005-0.517,4.01-1.033,6.015-1.55c0.213,0.74,0.308,1.526,0.357,2.325
		c-1.434-0.186-2.883-0.184-4.327-0.091c-0.166,0.011-0.168,0.267,0,0.26c1.457-0.055,2.895,0.034,4.344,0.14
		c0.019,0.431,0.03,0.863,0.031,1.295c-2.219-0.128-4.624-0.143-6.825,0.097c-0.101,0.011-0.102,0.147,0,0.158
		c2.2,0.24,4.605,0.226,6.824,0.097c-0.001,0.616-0.007,1.226,0.009,1.813c-0.005-0.001-0.006-0.005-0.012-0.005
		c-1.734-0.116-3.509,0.02-5.247,0.039c-0.097,0.001-0.097,0.15,0,0.151c1.738,0.019,3.514,0.155,5.247,0.039
		c0.007,0,0.01-0.006,0.017-0.008c0.021,0.662,0.045,1.324,0.07,1.986c-0.935-0.103-1.977,0.023-2.886,0.034
		c-0.19,0.002-0.19,0.293,0,0.295c0.914,0.011,1.961,0.138,2.898,0.032c0.01,0.289,0.025,0.579,0.031,0.868l0.034,0.941
		C36.44,41.66,36.158,41.835,35.353,41.23z M47.027,25.276c-0.014-0.043-0.04-0.081-0.095-0.091
		c-2.371-0.443-4.989-0.624-7.396-0.57c-0.096,0.002-0.128,0.162-0.024,0.176c2.364,0.324,4.842,0.581,7.228,0.686
		c-0.213,0.125-0.475,0.25-0.776,0.37c-0.014-0.058-0.053-0.108-0.135-0.107c-3.036,0.043-6.055,0.228-9.095,0.169
		c-0.159-0.003-0.158,0.239,0,0.246c2.837,0.123,5.731,0.199,8.567-0.065c-1.427,0.485-3.21,0.893-3.824,1.106
		c-1.815,0.63-3.656,1.215-5.4,2.022c-0.938-1.557-1.433-3.032-1.567-4.84c-0.012-0.165-0.081-0.288-0.17-0.389
		c0.176-0.088,0.268-0.266,0.293-0.453c1.339-1.175,3.314-2.487,4.054-4.05c0.883,0.781,1.839,1.447,2.84,2.057
		c-1.176-0.179-2.396-0.169-3.565-0.084c-0.157,0.011-0.159,0.255,0,0.246c1.475-0.086,2.872,0.083,4.319,0.28
		c0.178,0.102,0.354,0.207,0.535,0.306c0.476,0.261,1.931,0.905,3.045,1.531c-3.184-0.718-6.586-0.877-9.824-0.916
		c-0.145-0.002-0.144,0.219,0,0.225c3.488,0.151,6.883,0.709,10.341,1.102c0.045,0.005,0.077-0.012,0.101-0.039
		c0.517,0.337,0.845,0.644,0.749,0.849C47.191,25.12,47.118,25.198,47.027,25.276z"/>
</g>
<g>
</g>
<g>
</g>
<g>
</g>
<g>
</g>
<g>
</g>
<g>
</g>
<g>
</g>
<g>
</g>
<g>
</g>
<g>
</g>
<g>
</g>
<g>
</g>
<g>
</g>
<g>
</g>
<g>
</g>
</svg>
