<?xml version="1.0" encoding="iso-8859-1"?>
<!-- Generator: Adobe Illustrator 18.0.0, SVG Export Plug-In . SVG Version: 6.00 Build 0)  -->
<!DOCTYPE svg PUBLIC "-//W3C//DTD SVG 1.1//EN" "http://www.w3.org/Graphics/SVG/1.1/DTD/svg11.dtd">
<svg version="1.1" id="Capa_1" xmlns="http://www.w3.org/2000/svg" xmlns:xlink="http://www.w3.org/1999/xlink" x="0px" y="0px"
	 viewBox="0 0 49.298 49.298" style="enable-background:new 0 0 49.298 49.298;" xml:space="preserve">
<g>
	<path style="fill:#1D1D1B;" d="M24.316,5.654c-3.973-0.445-7.355,2.273-9.13,5.835c-3.457,6.936,0.637,15.586-2.889,22.141
		c-3.262,1.289-2.822-6.318-3.106-8.248c-0.039-0.263-0.259-0.354-0.472-0.318c-0.087-0.113-0.21-0.2-0.364-0.213
		c-2.351-0.205-4.937,0.02-7.273,0.339c-0.479,0.066-0.318,0.766,0.108,0.798c2.297,0.17,4.813,0.201,7.106-0.122
		C8.283,26.583,8.3,27.302,8.33,28.022c-1.258-0.02-2.516-0.025-3.774-0.03c-0.091,0-0.091,0.139,0,0.141
		c1.261,0.029,2.522,0.057,3.784,0.071c0.026,0.578,0.058,1.156,0.096,1.732c-0.871-0.014-1.744,0.007-2.616,0.015
		c-0.079,0.001-0.079,0.122,0,0.122c0.874,0.009,1.75,0.029,2.625,0.015c0.009,0.141,0.015,0.283,0.025,0.423
		c0.025,0.369,0.058,0.746,0.111,1.121c-0.708-0.02-1.421,0.008-2.128,0.016c-0.064,0.001-0.064,0.098,0,0.099
		c0.713,0.008,1.433,0.037,2.146,0.016c0.119,0.766,0.341,1.512,0.825,2.13c0.891,1.14,3.173,1.749,3.928,0.168
		c0.041-0.086,0.05-0.174,0.043-0.258c2.054-3.346,1.289-7.401,1.205-11.229c-0.162-7.404,1.708-15.562,10.57-16.029
		c2.404,0.365,4.665,0.716,6.327,2.669c-1.53-0.073-3.089-0.004-4.602,0.132c-0.106,0.01-0.11,0.172,0,0.169
		c1.601-0.054,3.198-0.038,4.798-0.05c0.101,0.131,0.208,0.244,0.305,0.389c0.868,1.305,1.444,2.76,1.819,4.271
		c-0.978-0.096-2.004,0.126-2.921,0.446c-0.066,0.023-0.039,0.127,0.029,0.106c0.971-0.309,1.921-0.37,2.929-0.412
		c0.168,0.7,0.305,1.407,0.384,2.124c-1.198,0.235-2.318,0.315-3.526,0.087c-0.096-0.018-0.138,0.127-0.041,0.148
		c1.178,0.255,2.421,0.288,3.588-0.046c0.076,0.763,0.106,1.53,0.092,2.291c-1.01,0.625-1.722,1.533-2.954,1.796
		c-1.401,0.299-2.813-0.356-3.707-1.428c0.448-1.449,0.346-3.308-0.438-4.624c-0.472-0.792-1.56-1.787-2.53-1.315
		c-0.036,0.017-0.059,0.056-0.073,0.097c-1.584,0.342-2.46,1.452-2.963,2.834c-0.791-0.009-1.582,0.005-2.373,0.02
		c-0.075,0.001-0.075,0.115,0,0.116c0.769,0.015,1.54,0.028,2.31,0.021c-0.293,0.867-0.446,1.832-0.533,2.781
		c-0.52-0.026-1.051,0-1.566,0.005c-0.113,0.001-0.113,0.174,0,0.175c0.51,0.005,1.035,0.03,1.55,0.005
		c-0.056,0.673-0.083,1.334-0.104,1.941c-0.007,0.189-0.005,0.395-0.01,0.589c-0.702-0.055-1.422,0.048-2.096,0.227
		c-0.101,0.027-0.058,0.182,0.043,0.157c0.692-0.17,1.359-0.195,2.049-0.184c-0.02,1.029-0.019,2.1-0.012,3.21
		c-0.614-0.004-1.229,0.007-1.842,0.017c-0.083,0.001-0.083,0.127,0,0.129c0.614,0.01,1.229,0.02,1.843,0.017
		c0.005,0.82,0.01,1.649,0.001,2.486c-0.76,0.112-1.518,0.248-2.274,0.38c-0.085,0.015-0.048,0.14,0.035,0.128
		c0.746-0.105,1.494-0.207,2.238-0.33c-0.013,1.054-0.042,2.109-0.124,3.149c-0.783,0.059-1.566,0.131-2.348,0.203
		c-0.079,0.007-0.08,0.13,0,0.124c0.778-0.055,1.557-0.109,2.334-0.177c-0.079,0.942-0.189,1.871-0.365,2.766
		c-1.28,0.277-2.555,0.511-3.87,0.621c-0.068,0.006-0.07,0.112,0,0.108c1.289-0.078,2.582-0.245,3.838-0.556
		c-0.211,1.021-0.496,2-0.89,2.911c-1.444,0.43-2.901,0.56-4.417,0.332c-0.087-0.013-0.126,0.118-0.037,0.134
		c1.473,0.274,2.938,0.186,4.353-0.235c-0.356,0.777-0.783,1.507-1.318,2.163c-0.017-0.021-0.041-0.038-0.075-0.032
		c-1.685,0.295-3.323,0.507-5.038,0.447c-0.074-0.003-0.073,0.11,0,0.114c1.667,0.098,3.379,0.025,5.003-0.394
		c-0.945,1.114-2.182,2.025-3.81,2.647c-0.073-0.093-0.185-0.153-0.351-0.134c-4.107,0.47-8.293-0.227-10.699-4.006
		C0.724,34.52,1.719,30.34,1.179,26.197c-0.037-0.283-0.437-0.386-0.528-0.072c-1.238,4.257-0.795,10.079,2.07,13.65
		c2.49,3.103,7.16,4.869,11,3.533c3.651-0.646,6.181-3.075,7.466-6.707c0.965-2.726,1.088-5.655,1.016-8.518
		c-0.075-3.007-1.716-13.26,2.887-14.046c0.455,0.451,0.965,0.825,1.262,1.473c0.552,1.206,0.263,2.554,0.461,3.82
		c0.028,0.18,0.152,0.255,0.29,0.285c1.106,3.127,6.405,3.274,7.679,0.201c0.239,0.004,0.491-0.147,0.516-0.455
		C35.863,12.242,32.388,4.495,24.316,5.654z"/>
	<path style="fill:#1D1D1B;" d="M48.339,25.52c-0.052-0.05-0.112-0.093-0.191-0.111c-2.368-0.547-5.195-0.14-7.568,0.252
		c-0.135,0.022-0.216,0.1-0.26,0.196c-0.169,0.021-0.337,0.145-0.35,0.339c-0.091,1.349-0.091,2.702-0.159,4.053
		c-0.036,0.713,0.111,3.736-0.876,4.246c-0.077,0.023-0.154,0.046-0.233,0.068c-0.062,0.007-0.125,0.013-0.195,0.002
		c-0.107-0.017-0.198,0.038-0.27,0.11c-0.751,0.154-1.515,0.146-2.134-0.458c-0.778-0.76-0.8-2.083-0.768-3.076
		c0.058-1.813,0.305-3.622,0.18-5.437c-0.003-0.047-0.03-0.079-0.052-0.114c-0.054-0.237-0.297-0.415-0.543-0.264
		c-0.987,0.603-1.734,1.216-2.976,1.231c-0.935,0.011-3.621-0.405-4.009-1.474c-0.192-0.527-0.959-0.324-0.844,0.233
		c0.004,0.022,0.018,0.04,0.024,0.062c-0.166-0.01-0.333,0.09-0.345,0.319c-0.415,7.639,0.454,17.393,10.043,17.875
		c3.575,0.18,7.756-1.127,9.892-4.165c2.506-3.563,2.314-9.47,2.594-13.57C49.331,25.327,48.579,25.155,48.339,25.52z
		 M48.068,27.364c-0.011-0.012-0.02-0.026-0.04-0.032c-1.574-0.483-3.263-0.522-4.887-0.326c-0.103,0.012-0.106,0.175,0,0.165
		c1.654-0.167,3.214,0.018,4.836,0.345c0.03,0.006,0.055,0,0.074-0.013c-0.074,0.688-0.141,1.378-0.205,2.07
		c-1.152,0.137-2.279,0.198-3.442,0.127c-0.108-0.007-0.105,0.156,0,0.167c1.134,0.118,2.291,0.104,3.42-0.069
		c-0.091,0.974-0.185,1.948-0.319,2.911c-1.036,0.149-2.051,0.243-3.103,0.185c-0.087-0.005-0.086,0.129,0,0.135
		c1.027,0.074,2.068,0.045,3.081-0.153c-0.11,0.764-0.244,1.52-0.422,2.263c-0.011,0.046-0.028,0.087-0.04,0.133
		c-1.423,0.316-2.841,0.533-4.306,0.554c-0.114,0.002-0.114,0.178,0,0.177c1.429-0.005,2.856-0.156,4.24-0.513
		c-0.408,1.485-1.072,2.744-1.954,3.757c-3.64,0.369-7.273,0.7-10.931,0.833c-0.058,0.002-0.059,0.092,0,0.091
		c3.607-0.078,7.208-0.284,10.786-0.756c-1.8,1.962-4.423,2.973-7.479,2.951c-9.292-0.07-9.176-9.295-9.892-16.242
		c0.834,1.087,2.697,1.513,3.892,1.653c1.064,0.124,2.473-0.053,3.343-0.779c-0.194,1.206-0.296,2.436-0.387,3.644
		c-0.085,1.136-0.126,2.387,0.383,3.442c0.814,1.688,3.209,2.536,4.671,1.187c2.152-0.522,1.591-6.833,1.329-8.788
		c2.392,0.048,5.078,0.293,7.43-0.156c0.016-0.003,0.027-0.012,0.042-0.017C48.143,26.658,48.107,27.012,48.068,27.364z"/>
	<path style="fill:#1D1D1B;" d="M33.863,18.58c-1.611-0.017-3.241,0.134-4.848,0.239c-0.083,0.005-0.085,0.133,0,0.131
		c1.61-0.045,3.246-0.048,4.848-0.214C33.961,18.726,33.966,18.581,33.863,18.58z"/>
	<path style="fill:#1D1D1B;" d="M32.617,11.378c-0.701-0.118-1.419-0.157-2.125-0.226c-0.086-0.008-0.083,0.123,0,0.133
		c0.699,0.083,1.403,0.198,2.107,0.232C32.676,11.52,32.696,11.391,32.617,11.378z"/>
	<path style="fill:#1D1D1B;" d="M45.875,37.688c-2.879,0.099-5.755,0.337-8.635,0.451c-0.063,0.002-0.064,0.1,0,0.099
		c2.874-0.057,5.775-0.108,8.635-0.412C45.961,37.816,45.965,37.685,45.875,37.688z"/>
</g>
<g>
</g>
<g>
</g>
<g>
</g>
<g>
</g>
<g>
</g>
<g>
</g>
<g>
</g>
<g>
</g>
<g>
</g>
<g>
</g>
<g>
</g>
<g>
</g>
<g>
</g>
<g>
</g>
<g>
</g>
</svg>
