<?xml version="1.0" encoding="iso-8859-1"?>
<!-- Generator: Adobe Illustrator 18.0.0, SVG Export Plug-In . SVG Version: 6.00 Build 0)  -->
<!DOCTYPE svg PUBLIC "-//W3C//DTD SVG 1.1//EN" "http://www.w3.org/Graphics/SVG/1.1/DTD/svg11.dtd">
<svg version="1.1" id="Capa_1" xmlns="http://www.w3.org/2000/svg" xmlns:xlink="http://www.w3.org/1999/xlink" x="0px" y="0px"
	 viewBox="0 0 47.63 47.63" style="enable-background:new 0 0 47.63 47.63;" xml:space="preserve">
<g>
	<path style="fill:#1D1D1B;" d="M22.747,0.706c-9.245,1.271-5.502,16.217,1.236,14.215c0.051,0.019,0.107,0.033,0.17,0.033
		C33.167,14.979,32.011-0.568,22.747,0.706z M22.228,11.57c-0.105,0.014-0.112,0.164,0,0.169c1.978,0.082,4.168-0.125,6.153-0.585
		c-0.96,1.401-2.521,2.351-4.36,2.826c-0.063,0.016-0.115,0.044-0.161,0.076c-2.84-0.422-4.88-1.897-5.596-4.97
		c-0.791-3.396,1.062-6.876,4.701-7.295c1.768-0.204,3.404,0.46,4.589,1.61c-1.246-0.103-2.511-0.128-3.751-0.174
		c-0.186-0.007-0.179,0.267,0,0.285c1.38,0.137,2.788,0.299,4.182,0.349c0.327,0.392,0.617,0.819,0.838,1.287
		c-1.693-0.233-3.491-0.119-5.197-0.153c-0.213-0.004-0.212,0.321,0,0.33c1.72,0.077,3.531,0.323,5.247,0.185
		c0.033-0.003,0.058-0.023,0.083-0.041c0.254,0.63,0.411,1.309,0.436,2.019c0.044,1.239-0.229,2.311-0.734,3.219
		C26.515,10.984,24.371,11.289,22.228,11.57z"/>
	<path style="fill:#1D1D1B;" d="M47.537,14.436c-0.206-1.268-0.768-2.553-1.796-3.832c-2.199-2.736-5.252-3.115-8.271-1.687
		c-4.901,2.318-9.687,6.188-13.591,9.908c-0.005,0.005-0.006,0.01-0.01,0.014C18.864,14.863,7.446,4.436,1.622,11.996
		c-5.805,7.535,5.396,13.739,11.171,16.267c-0.562,5.834-0.966,12.332-0.276,18.159c0.044,0.373,0.345,0.522,0.607,0.464
		c0.103,0.109,0.26,0.161,0.408,0.056c2.647-1.883,7.151-6.567,10.4-5.189c3.133,1.329,5.642,3.926,8.902,5.129
		c0.476,0.176,0.655-0.495,0.317-0.752c-3.211-2.442-6.971-4.237-10.336-6.488c-0.16-0.107-0.405-0.101-0.566,0
		c-3.061,1.911-5.997,3.963-8.686,6.364c0.654-5.683,0.45-11.877,0.189-17.584c0.053-0.086,0.038-0.195-0.036-0.292
		c-0.061-0.215-0.234-0.328-0.421-0.331c-2.104-1.511-4.356-2.76-6.501-4.207c-1.557-1.051-3.868-2.516-4.604-4.329
		c-1.588-3.913,0.128-7.641,4.383-8.226c5.797-0.798,12.482,5.512,16.93,8.902c0.272,0.207,0.59,0.035,0.743-0.221
		c0.131,0.009,0.269-0.026,0.395-0.13c3.024-2.483,13.82-13.13,18.504-9.7c1.074,0.786,1.855,1.577,2.403,2.369
		c-2.212-0.125-4.459,0.024-6.67,0.125c-1.31,0.06-3.359-0.213-4.537,0.4c-0.076,0.04-0.099,0.146-0.057,0.217
		c0.018,0.031,0.036,0.062,0.054,0.093c0.032,0.054,0.112,0.096,0.176,0.071c0.026-0.01,0.053-0.02,0.079-0.031
		c0.18-0.069,0.11-0.356-0.081-0.295c0.611-0.194,1.933,0.081,2.67,0.055c0.989-0.035,1.979-0.068,2.968-0.091
		c1.836-0.041,3.685,0.019,5.516-0.102c0.057-0.004,0.094-0.031,0.128-0.06c0.361,0.605,0.592,1.209,0.704,1.809
		c-3.195,0.169-6.392,0.428-9.578,0.699c-0.169,0.014-0.174,0.274,0,0.267c3.217-0.132,6.443-0.276,9.656-0.513
		c0.049,0.536,0.011,1.069-0.106,1.598c-0.003,0-0.006,0-0.008-0.001c-0.124-0.008-0.246,0.116-0.239,0.239
		c0.001,0.022,0.003,0.043,0.004,0.065c0.004,0.078,0.055,0.134,0.115,0.173c-1.531,0.177-8.858,0.257-9.448,0.297
		c-3.136,0.211-6.273,0.424-9.407,0.658c-0.167,0.012-0.171,0.271,0,0.264c3.86-0.176,7.719-0.383,11.578-0.59
		c1.818-0.097,5.383,0.379,7.209-0.41c-0.407,1.172-1.159,2.315-2.122,3.408c-4.762-0.462-9.629-0.37-14.401-0.161
		c-0.157,0.007-0.159,0.248,0,0.246c4.699-0.068,9.364,0.172,14.054,0.297c-0.52,0.557-1.083,1.101-1.681,1.627
		c-6.19-0.383-12.487-0.118-18.667,0.337c-0.121,0.009-0.123,0.195,0,0.19c6.088-0.232,12.147-0.141,18.232-0.152
		c-1.06,0.899-2.192,1.745-3.288,2.523c-5.637-0.632-11.386-0.686-17.046-0.491c-0.119,0.004-0.12,0.186,0,0.186
		c5.511,0.029,10.966,0.374,16.455,0.72c-1.268,0.884-2.461,1.672-3.401,2.335c-3.285-0.19-6.623-0.042-9.906,0.047
		c-0.149,0.004-0.15,0.233,0,0.232c3.149-0.017,6.307,0.139,9.455,0.119l0,0c-0.016,0.028-0.028,0.057-0.037,0.089
		c-0.017,0.054-0.025,0.106-0.024,0.16v0v0.001c0.001,0.033-0.002,0.066,0.005,0.097c0.045,0.673,0.075,1.343,0.098,2.012
		c-1.517-0.681-3.182-0.346-4.872-0.238c-2.942,0.188-5.885,0.186-8.829,0.045c-0.148-0.007-0.146,0.218,0,0.229
		c2.249,0.158,4.497,0.244,6.752,0.204c2.187-0.039,4.873-0.617,6.965,0.29c0.017,0.614,0.03,1.227,0.036,1.839
		c-2.44-0.249-5.007-0.004-7.447,0.166c-0.179,0.012-0.182,0.29,0,0.281c2.478-0.125,4.977,0.026,7.447-0.123
		c0.004,0.776,0.013,1.553-0.003,2.327c-3.849-0.44-7.786-0.483-11.644-0.542c-0.17-0.003-0.169,0.258,0,0.264
		c3.883,0.134,7.754,0.521,11.631,0.701c-0.015,0.596-0.031,1.191-0.057,1.786c-3.025-0.236-6.115-0.062-9.104-0.336
		c0.106,0.01,0.125-0.157,0.025-0.183c-0.051-0.013-0.102-0.027-0.152-0.04c-0.042-0.011-0.1,0.007-0.12,0.049
		c-0.028,0.059-0.057,0.118-0.085,0.177c-0.022,0.046-0.024,0.11,0.019,0.146c0.706,0.609,2.356,0.301,3.183,0.335
		c2.067,0.083,4.152,0.243,6.221,0.215c-0.065,1.383-0.149,2.765-0.267,4.151c-1.024-0.005-2.049,0.009-3.072,0.03
		c-0.177,0.004-0.177,0.271,0,0.274c1.013,0.021,2.028,0.035,3.042,0.03c-0.097,1.104-0.206,2.21-0.332,3.321
		c-0.056,0.495,0.742,0.587,0.86,0.116c1.423-5.672,1.575-11.526,0.814-17.309c5.196-2.337,13.299-8.156,12.576-14.462
		C47.66,14.656,47.64,14.506,47.537,14.436z"/>
	<path style="fill:#1D1D1B;" d="M33.595,40.478c-1.865-0.07-3.734,0.044-5.602-0.046c-0.177-0.008-0.174,0.261,0,0.274
		c1.84,0.137,3.764,0.292,5.602,0.085C33.791,40.769,33.801,40.486,33.595,40.478z"/>
	<path style="fill:#1D1D1B;" d="M28.875,8.645c-2.802,0.279-5.586,0.458-8.398,0.591c-0.138,0.007-0.138,0.209,0,0.214
		c2.788,0.102,5.632-0.058,8.398-0.423C29.114,8.996,29.124,8.62,28.875,8.645z"/>
	<path style="fill:#1D1D1B;" d="M28.876,6.836c-2.844-0.111-5.725,0.07-8.573,0.074c-0.193,0-0.192,0.293,0,0.299
		c2.832,0.08,5.748,0.24,8.573,0.014C29.122,7.203,29.128,6.846,28.876,6.836z"/>
</g>
<g>
</g>
<g>
</g>
<g>
</g>
<g>
</g>
<g>
</g>
<g>
</g>
<g>
</g>
<g>
</g>
<g>
</g>
<g>
</g>
<g>
</g>
<g>
</g>
<g>
</g>
<g>
</g>
<g>
</g>
</svg>
