<?xml version="1.0" encoding="iso-8859-1"?>
<!-- Generator: Adobe Illustrator 18.0.0, SVG Export Plug-In . SVG Version: 6.00 Build 0)  -->
<!DOCTYPE svg PUBLIC "-//W3C//DTD SVG 1.1//EN" "http://www.w3.org/Graphics/SVG/1.1/DTD/svg11.dtd">
<svg version="1.1" id="Capa_1" xmlns="http://www.w3.org/2000/svg" xmlns:xlink="http://www.w3.org/1999/xlink" x="0px" y="0px"
	 viewBox="0 0 47.902 47.902" style="enable-background:new 0 0 47.902 47.902;" xml:space="preserve">
<g>
	<path style="fill:#1D1D1B;" d="M24.202,6.882c-1.398-0.632-3.093,0.295-3.543,1.832c-0.561,1.917,0.758,3.831,2.668,4.197
		c1.811,0.347,3.777-0.779,4.008-2.693C27.534,8.567,26.013,6.499,24.202,6.882z M26.19,10.064c-0.021,0.106-0.06,0.201-0.095,0.299
		c-1.012-0.246-2.116-0.21-3.144-0.115c-0.16,0.015-0.164,0.265,0,0.253c1.032-0.074,2.017,0.039,3.038,0.113
		c-0.475,0.922-1.574,1.369-2.616,1.072c-1.125-0.321-1.818-1.492-1.466-2.627c0.324-1.047,1.544-1.498,2.571-1.427
		c0.739,0.29,1.395,0.68,1.647,1.346c-0.856-0.212-1.8-0.271-2.65-0.318c-0.155-0.009-0.151,0.226,0,0.239
		c0.932,0.083,1.827,0.302,2.74,0.451C26.242,9.564,26.244,9.796,26.19,10.064z"/>
	<path style="fill:#1D1D1B;" d="M42.423,7.308c-0.197-0.427-0.688-0.732-1.031-1.039c-0.513-0.459-1.026-0.918-1.539-1.378
		c-0.14-0.125-0.296-0.13-0.419-0.069c-0.195-0.118-0.451-0.141-0.669,0.048c-3.244,2.808-6.503,5.602-9.841,8.298
		c-2.326,1.879-3.709,3.822-7.141,2.737c-2.264-0.716-4.512-3.399-6.253-5.028c-0.257-0.24-0.6,0.118-0.38,0.38
		c1.996,2.385,5.956,7.359,9.659,6.282c1.99-0.579,4.068-3.014,5.54-4.243c3.052-2.549,6.122-5.077,9.176-7.623
		c0.377,0.445,0.753,0.889,1.13,1.334c0.228,0.269,0.445,0.612,0.718,0.854c-0.583,0.486-1.176,0.963-1.764,1.446
		c-0.016-0.005-0.024-0.017-0.044-0.017c-1.047-0.003-2.104,0.137-3.147,0.222c-0.187,0.015-0.192,0.304,0,0.295
		c0.917-0.042,1.848-0.058,2.764-0.15c-0.701,0.574-1.395,1.154-2.101,1.723c-0.013-0.06-0.053-0.116-0.138-0.125
		c-0.792-0.088-1.654-0.022-2.449,0.025c-0.167,0.01-0.168,0.25,0,0.26c0.761,0.045,1.584,0.104,2.348,0.031
		c-0.744,0.598-1.486,1.2-2.239,1.786c-0.774-0.098-1.606-0.01-2.382,0.001c-0.194,0.003-0.195,0.3,0,0.302
		c0.627,0.009,1.291,0.069,1.931,0.04c-0.615,0.474-1.23,0.948-1.853,1.411c-0.839-0.007-1.657-0.016-2.489-0.164
		c-0.181-0.032-0.26,0.242-0.077,0.278c0.695,0.138,1.412,0.228,2.123,0.205c-0.816,0.601-1.633,1.2-2.465,1.777
		c-0.919-0.035-1.855,0.032-2.767,0.048c-0.129,0.002-0.129,0.198,0,0.2c0.766,0.014,1.549,0.065,2.324,0.061
		c-0.33,0.226-0.651,0.466-0.984,0.688c-5.711,3.79-10.988-0.721-15.431-4.348c0.108-0.054,0.181-0.141,0.213-0.254
		c0.389-0.234,0.761-0.504,1.117-0.776c0.451-0.344,1.056-0.701,1.18-1.292c0.113-0.536-0.31-0.89-0.817-0.817
		c-0.54,0.077-0.956,0.63-1.35,0.973c-0.417,0.363-0.876,0.678-1.286,1.046c-0.22,0.198-0.255,0.576-0.106,0.824
		c0.02,0.033,0.039,0.065,0.059,0.098c0.009,0.016,0.026,0.028,0.037,0.043c0.012,0.033,0.009,0.065,0.036,0.097
		c2.84,3.28,8.518,8.651,13.326,7.273c3.152-0.903,6.234-4.029,8.802-5.914c3.059-2.246,5.996-4.616,8.875-7.089
		C42.932,7.798,42.73,7.418,42.423,7.308z"/>
	<path style="fill:#1D1D1B;" d="M36.04,34.879c-3.216-2.958-7.908-9.307-13.1-8.204c-2.622,0.557-4.741,2.822-6.665,4.495
		C13,34.02,9.586,36.778,6.538,39.874c-0.388-0.07-0.825,0.255-0.649,0.647c-0.209,0.247,0.073,0.668,0.365,0.506
		c0.522,0.68,1.08,1.357,1.689,1.943c0.406,0.39,0.91,0.16,1.081-0.226c0.093,0.047,0.202,0.055,0.306-0.019
		c5.005-3.592,9.539-8.858,15.445-10.833c3.312,1.248,5.27,3.943,8.184,5.881c0.173,0.115,0.33,0.085,0.442-0.011
		c0.181,0.295,0.656,0.358,0.906,0.004c0.281-0.397,0.5-0.827,0.81-1.207c0.261-0.321,0.559-0.545,0.68-0.904
		C36.121,35.573,36.357,35.171,36.04,34.879z M34.584,35.043c-0.002-0.001-0.002-0.004-0.004-0.005
		c-0.815-0.375-1.684-0.446-2.565-0.293C31.859,34.773,31.929,35,32.08,34.98c0.797-0.107,1.557,0.022,2.307,0.289
		c-0.15,0.205-0.277,0.437-0.394,0.636c-0.211,0.358-0.423,0.753-0.561,1.157c-2.096-2.692-5.759-6.097-9.373-6.027
		c-0.112,0.002-0.18,0.067-0.227,0.145c-0.841,0.158-1.62,0.477-2.36,0.884c-1.064-0.087-2.216,0.014-3.245,0.071
		c-0.113,0.006-0.113,0.17,0,0.176c0.838,0.046,1.758,0.122,2.645,0.105c-0.851,0.535-1.654,1.173-2.442,1.813
		c-0.71,0.036-1.42,0.126-2.127,0.196c-0.095,0.009-0.098,0.159,0,0.151c0.628-0.048,1.26-0.086,1.888-0.153
		c-1.476,1.202-2.954,2.405-4.421,3.621c-0.683-0.037-1.378,0.047-2.045,0.166c-0.092,0.017-0.052,0.153,0.038,0.139
		c0.59-0.088,1.168-0.098,1.752-0.095c-1.531,1.271-3.05,2.556-4.543,3.87c-0.023-0.039-0.035-0.078-0.067-0.115
		c-0.511-0.592-1.111-1.149-1.714-1.67c3.713-2.793,7.059-6.057,10.619-9.04c3.178-2.663,6.392-4.162,9.883-2.212
		c-0.825-0.146-1.679-0.133-2.503,0.027c-0.112,0.022-0.063,0.186,0.047,0.169c1.119-0.173,2.155-0.025,3.206,0.274
		c0.104,0.072,0.208,0.135,0.312,0.214c0.436,0.328,0.86,0.674,1.283,1.023c-2.908-0.452-5.91-0.5-8.837-0.414
		c-0.115,0.003-0.116,0.178,0,0.179c3.105,0.022,6.156,0.337,9.244,0.57c0.519,0.439,1.024,0.897,1.531,1.352
		c-0.73-0.108-1.473-0.165-2.201-0.251c-0.162-0.019-0.201,0.263-0.039,0.287c0.892,0.129,1.796,0.303,2.698,0.369
		c0.755,0.685,1.506,1.375,2.259,2.054C34.652,34.969,34.619,35.009,34.584,35.043z"/>
	<path style="fill:#1D1D1B;" d="M19.191,23.03c-0.049-0.085-0.122-0.122-0.199-0.137c-0.798-2.317-3.167-3.787-5.063-5.314
		c-3.386-2.726-6.519-5.871-10.055-8.392C3.58,8.977,3.265,9.233,3.219,9.526c-0.052-0.018-0.1-0.045-0.16-0.044
		C2.42,9.49,2.05,9.883,1.606,10.297c-0.419,0.391-0.829,0.772-1.163,1.24c-0.056,0.078-0.07,0.162-0.056,0.239
		c-0.358,0.173-0.566,0.637-0.178,0.954c4.633,3.779,9.311,7.39,13.26,11.876c0.017,0.404-0.046,0.803-0.282,1.228
		c-0.483,0.869-1.431,1.481-2.186,2.071c-1.173,0.916-2.281,1.9-3.222,3.057c-0.013,0.017-0.02,0.035-0.029,0.054
		c-0.195,0.179-0.282,0.474-0.035,0.75c0.394,0.44,0.816,0.844,1.244,1.25c0.395,0.376,0.753,0.891,1.357,0.719
		c-0.123,0.124-0.248,0.248-0.364,0.373c-0.096,0.104-0.003,0.311,0.149,0.256c2.724-0.991,5.057-3.35,6.941-5.48
		C18.388,27.361,20.396,25.129,19.191,23.03z M18.152,25.245c-0.733,0.017-1.436,0.024-2.171-0.114
		c-0.165-0.031-0.237,0.216-0.07,0.254c0.688,0.157,1.417,0.245,2.127,0.186c-0.265,0.625-0.61,1.213-1.017,1.772
		c-0.948-0.021-1.874,0.024-2.827-0.071c-0.129-0.013-0.159,0.203-0.031,0.228c0.822,0.161,1.747,0.259,2.605,0.171
		c-0.445,0.567-0.942,1.108-1.476,1.627c-0.013-0.006-0.024-0.017-0.04-0.018c-0.981-0.042-1.994,0.124-2.972,0.205
		c-0.142,0.012-0.146,0.232,0,0.225c0.906-0.044,1.847-0.032,2.749-0.159c-1.437,1.353-3.064,2.582-4.395,3.867
		c0.023-0.06,0.056-0.114,0.064-0.182c0.077-0.596-0.579-0.919-0.977-1.245c-0.323-0.265-0.65-0.52-0.979-0.774
		C8.729,31.189,8.7,31.174,8.67,31.159c-0.013-0.01-0.025-0.021-0.038-0.03c1.79-1.162,4.011-2.569,5.25-4.219
		c0.809-1.077,1.344-3.118-0.125-3.893c-0.116-0.061-0.23-0.043-0.32,0.011c-1.009-1.524-2.338-2.813-3.741-4.039
		c-2.78-2.43-5.697-4.717-8.542-7.072c0.378-0.247,0.742-0.513,1.138-0.731c0.481-0.264,0.939-0.403,1.226-0.903
		c0.033-0.057,0.036-0.118,0.045-0.178c0.72,0.699,1.475,1.366,2.245,2.018c-0.465-0.021-0.931-0.009-1.4,0.034
		c-0.167,0.015-0.171,0.275,0,0.264c0.617-0.039,1.225-0.005,1.832,0.058c0.568,0.473,1.137,0.944,1.714,1.408
		c-0.6,0.005-1.201,0.026-1.798,0.038c-0.138,0.003-0.138,0.212,0,0.214c0.715,0.014,1.437,0.045,2.155,0.036
		c0.826,0.663,1.653,1.325,2.463,1.998c-0.664-0.021-1.331,0.001-1.995,0.009c-0.158,0.002-0.159,0.244,0,0.246
		c0.757,0.01,1.518,0.046,2.274,0.005c0.011-0.001,0.015-0.009,0.024-0.011c0.123,0.103,0.251,0.203,0.373,0.307
		c0.561,0.479,1.225,0.989,1.914,1.523c-0.553,0.017-1.106,0.102-1.638,0.228c-0.128,0.03-0.074,0.223,0.054,0.197
		c0.652-0.136,1.279-0.16,1.926-0.157c0.747,0.582,1.516,1.194,2.228,1.842c-0.708-0.049-1.427,0.03-2.114,0.195
		c-0.116,0.028-0.065,0.196,0.049,0.176c0.795-0.14,1.553-0.137,2.351-0.095c0.767,0.726,1.459,1.491,1.95,2.304
		c-0.836-0.241-1.776-0.148-2.598,0.079c-0.137,0.038-0.08,0.247,0.059,0.214c0.937-0.224,1.773-0.121,2.706-0.005
		c0.075,0.139,0.148,0.279,0.211,0.421C18.486,24.213,18.339,24.738,18.152,25.245z"/>
	<path style="fill:#1D1D1B;" d="M42.615,30.683c-1.721-1.317-6.333-3.74-7.503-6.358c0.013,0.002,0.025,0.003,0.038,0.006
		c0.175,0.03,0.253-0.223,0.075-0.271c-0.073-0.02-0.148-0.026-0.221-0.042c-0.091-0.269-0.157-0.538-0.165-0.809
		c0.496-1.142,1.458-1.966,2.372-2.797c1.098-0.999,2.224-1.97,3.276-3.017c0.367-0.065,0.585-0.49,0.39-0.823
		c-0.407-0.692-1.481-1.011-2.179-1.354c-0.26-0.128-1.316-0.785-1.476-0.155c-0.006,0.023-0.001,0.044-0.004,0.067
		c-1.879,1.611-3.836,3.037-5.858,4.464c-1.044,0.737-1.875,1.576-2.174,2.723c-1.395,2.654,1.61,4.852,3.484,6.481
		c3.86,3.355,7.607,7.108,11.881,9.932c0.139,0.092,0.269,0.026,0.336-0.085c0.001-0.001,0.003-0.001,0.004-0.002
		c0.493-0.362,0.948-0.787,1.403-1.196c0.444-0.398,1.12-0.766,1.273-1.361c0.006-0.025,0.005-0.049,0.008-0.074
		c0.073,0.02,0.141,0.049,0.217,0.064c0.067,0.014,0.138-0.058,0.095-0.124C46.538,33.891,44.556,32.169,42.615,30.683z
		 M46.126,35.848c-0.9-0.07-1.815-0.068-2.71-0.108c-0.152-0.007-0.15,0.225,0,0.236c0.815,0.056,1.644,0.15,2.468,0.191
		c-0.12,0.171-0.236,0.347-0.361,0.507c-0.331,0.425-0.672,0.855-0.973,1.305c-2.236-2.452-4.87-4.566-7.369-6.74
		c-2.101-1.827-7.754-5.348-7.227-8.59c0.753-1.649,2.653-2.5,4.101-3.511c1.347-0.94,2.639-1.976,3.842-3.097
		c0.158,0.1,0.313,0.189,0.43,0.269c0.297,0.204,0.622,0.474,0.966,0.697c-0.224,0.187-0.438,0.391-0.66,0.583
		c-0.607-0.135-1.216-0.258-1.828-0.368c-0.153-0.028-0.222,0.199-0.065,0.237c0.541,0.132,1.083,0.253,1.628,0.366
		c-0.427,0.374-0.859,0.739-1.275,1.126c-0.807-0.016-1.62,0.042-2.422,0.068c-0.111,0.004-0.111,0.169,0,0.172
		c0.697,0.023,1.403,0.067,2.105,0.069c-0.364,0.348-0.737,0.691-1.079,1.051c-0.329,0.348-0.596,0.716-0.834,1.098
		c-0.764-0.006-1.53,0.013-2.291,0.024c-0.156,0.002-0.156,0.24,0,0.243c0.707,0.01,1.417,0.027,2.126,0.026
		c-0.071,0.13-0.158,0.252-0.219,0.387c-0.112,0.013-0.223,0.064-0.303,0.171c-0.403,0.535-0.541,1.077-0.498,1.611
		c-0.559,0.003-1.119,0.071-1.662,0.191c-0.145,0.032-0.083,0.248,0.061,0.22c0.564-0.107,1.109-0.132,1.654-0.109
		c0.155,0.753,0.639,1.486,1.255,2.153c-0.573,0.013-1.147,0.039-1.715,0.045c-0.104,0.001-0.104,0.161,0,0.162
		c0.647,0.007,1.302,0.038,1.955,0.048c0.543,0.548,1.15,1.048,1.692,1.47c-0.82,0.008-1.648,0.114-2.444,0.247
		c-0.079,0.013-0.061,0.152,0.019,0.142c0.931-0.125,1.842-0.125,2.767-0.124c0.155,0.119,0.304,0.232,0.437,0.335
		c0.511,0.394,1.037,0.768,1.562,1.143c-0.481-0.014-0.964,0.009-1.44,0.058c-0.146,0.015-0.15,0.245,0,0.232
		c0.628-0.056,1.239-0.038,1.854,0.013c0.677,0.479,1.357,0.954,2.027,1.442c-0.351-0.024-0.701-0.051-1.056-0.116
		c-0.132-0.024-0.19,0.177-0.056,0.204c0.493,0.098,1.001,0.171,1.509,0.202c0.63,0.469,1.251,0.951,1.842,1.472
		c0.125,0.111,0.247,0.229,0.37,0.345c-0.824,0.004-1.652,0.04-2.469,0.05c-0.133,0.002-0.134,0.206,0,0.208
		c0.925,0.011,1.865,0.059,2.797,0.051c0.583,0.564,1.16,1.139,1.827,1.561C46.337,35.606,46.229,35.724,46.126,35.848z"/>
	<path style="fill:#1D1D1B;" d="M13.154,30.695c-0.928,0.027-1.876,0.108-2.797,0.228c-0.117,0.015-0.126,0.191,0,0.19
		c0.927-0.012,1.875-0.067,2.797-0.172C13.307,30.924,13.316,30.691,13.154,30.695z"/>
	<path style="fill:#1D1D1B;" d="M26.622,18.618c-2.151-0.154-4.321-0.102-6.477-0.236c-0.116-0.007-0.113,0.169,0,0.179
		c2.132,0.204,4.334,0.452,6.477,0.345C26.808,18.897,26.807,18.631,26.622,18.618z"/>
	<path style="fill:#1D1D1B;" d="M41.027,7.653c-1.039-0.219-2.16-0.161-3.209-0.058c-0.197,0.019-0.204,0.324,0,0.313
		c1.068-0.058,2.095,0.068,3.156,0.132C41.194,8.053,41.244,7.699,41.027,7.653z"/>
	<path style="fill:#1D1D1B;" d="M15.775,36.148c-0.589,0.053-1.176,0.15-1.762,0.229c-0.074,0.01-0.057,0.14,0.018,0.131
		c0.588-0.066,1.18-0.116,1.765-0.208C15.881,36.286,15.862,36.14,15.775,36.148z"/>
	<path style="fill:#1D1D1B;" d="M12.1,39.313c-0.416,0.018-0.829,0.114-1.238,0.183c-0.081,0.014-0.046,0.133,0.034,0.122
		c0.405-0.058,0.824-0.093,1.219-0.202C12.171,39.401,12.161,39.311,12.1,39.313z"/>
</g>
<g>
</g>
<g>
</g>
<g>
</g>
<g>
</g>
<g>
</g>
<g>
</g>
<g>
</g>
<g>
</g>
<g>
</g>
<g>
</g>
<g>
</g>
<g>
</g>
<g>
</g>
<g>
</g>
<g>
</g>
</svg>
