<?xml version="1.0" encoding="iso-8859-1"?>
<!-- Generator: Adobe Illustrator 18.0.0, SVG Export Plug-In . SVG Version: 6.00 Build 0)  -->
<!DOCTYPE svg PUBLIC "-//W3C//DTD SVG 1.1//EN" "http://www.w3.org/Graphics/SVG/1.1/DTD/svg11.dtd">
<svg version="1.1" id="Capa_1" xmlns="http://www.w3.org/2000/svg" xmlns:xlink="http://www.w3.org/1999/xlink" x="0px" y="0px"
	 viewBox="0 0 49.102 49.102" style="enable-background:new 0 0 49.102 49.102;" xml:space="preserve">
<g>
	<path style="fill:#1D1D1B;" d="M38.16,42.016c-0.037-0.736-0.167-1.504-0.413-2.161c-0.048-0.129-0.142-0.195-0.244-0.234
		c-0.036-0.177-0.167-0.318-0.403-0.291c-2.064,0.236-4.355,0.678-6.248-0.492c-2.676-1.653-2.302-4.643-2.357-7.224
		c-0.073-3.42-0.091-6.856,0.08-10.274c2.092,0.353,4.633,0.79,6.761,0.449c0.521,0.04,1.048,0.075,1.57,0.046
		c0.122-0.006,0.215-0.049,0.295-0.105c0.278-0.035,0.528-0.236,0.529-0.611c0.012-2.539,0.091-5.139-0.113-7.67
		c-0.032-0.394-0.547-0.596-0.804-0.38c-1.275-0.422-2.742-0.323-4.072-0.365c-1.351-0.043-2.789-0.255-4.113,0.052
		c0.01-0.043,0.026-0.082,0.026-0.132c-0.016-3.717,0.23-7.496,0.036-11.209c0.104-0.207,0.073-0.483-0.103-0.654
		c-0.005-0.005-0.007-0.01-0.012-0.015c-0.054-0.049-0.117-0.09-0.198-0.114c-2.616-0.788-5.742-0.765-8.418-0.335
		c-0.223,0.036-0.305,0.212-0.286,0.389c-0.04,0.068-0.068,0.147-0.08,0.237c-0.718,5.489-2.722,10.592-8.338,12.589
		c-0.152,0.054-0.224,0.165-0.233,0.281c-0.022,0.014-0.044,0.027-0.06,0.052c-0.661,1.002-0.609,2.386-0.635,3.556
		c-0.027,1.204-0.021,2.485,0.271,3.668c-0.087,0.207-0.02,0.379,0.133,0.512c0.092,0.234,0.316,0.308,0.508,0.252
		c0.031,0.009,0.06,0.019,0.092,0.026c0.714,0.164,1.474,0.181,2.201,0.231c0.756,0.051,1.534,0.142,2.296,0.114
		c-1.297,6.636-1.364,17.189,2.888,22.706c4.741,6.152,13.115,4.329,19.344,2.08c0.063-0.023,0.111-0.058,0.156-0.095
		c0.266,0.043,0.58-0.125,0.571-0.452C38.748,45.085,38.61,43.456,38.16,42.016z M17.805,40.578
		c-1.851-6.01-1.306-12.345-1.282-18.522c0.3-0.25,0.34-0.785-0.148-0.886c-0.864-0.179-1.757-0.16-2.636-0.189
		c-0.37-0.012-1.513-0.18-2.184-0.097c0.01-1.155-0.147-2.326-0.149-3.482c-0.002-1.065,0.218-2.216-0.045-3.249
		c0.024,0,0.045,0.005,0.07,0.001c6.17-0.955,8.791-7.461,9.289-13.016c2.404,0.151,4.815,0.416,7.212,0.523
		c-0.018,0.106-0.031,0.214-0.047,0.32c-1.484-0.014-2.961-0.065-4.44-0.217c-0.103-0.011-0.101,0.149,0,0.16
		c1.466,0.166,2.938,0.251,4.413,0.236c-0.093,0.616-0.17,1.238-0.228,1.864c-2.231-0.14-4.48-0.094-6.715-0.189
		c-0.126-0.005-0.126,0.189,0,0.196c2.219,0.12,4.478,0.292,6.7,0.187c-0.155,1.776-0.188,3.579-0.147,5.362
		c-1.356-0.098-2.705-0.026-4.054,0.164c-0.085,0.012-0.066,0.162,0.02,0.151c1.345-0.167,2.687-0.193,4.038-0.151
		c0.02,0.8,0.052,1.597,0.09,2.383c-1.302-0.025-2.609-0.007-3.91,0.018c-0.06,0.001-0.06,0.092,0,0.093
		c1.304,0.025,2.612,0.043,3.916,0.018c0.006,0.122,0.011,0.245,0.017,0.366c0.024,0.454,0.487,0.602,0.795,0.45
		c0.026,0.063,0.067,0.12,0.136,0.147c1.307,0.514,2.833,0.464,4.222,0.596c1.258,0.119,2.599,0.371,3.858,0.175
		c-0.069,0.553-0.112,1.111-0.148,1.671c-2.982-0.375-6.001-0.444-9.002-0.378c-0.087,0.002-0.087,0.136,0,0.135
		c3.011-0.027,5.99,0.174,8.987,0.416c-0.039,0.665-0.059,1.332-0.063,1.999c-2.878-0.467-5.815-0.499-8.718-0.297
		c-0.078,0.005-0.079,0.127,0,0.122c2.935-0.172,5.805,0.014,8.718,0.319c-0.003,0.924,0.015,1.847,0.057,2.758
		c-0.022,0-0.043,0-0.065,0c-0.046-0.042-0.087-0.089-0.159-0.106c-1.207-0.292-2.515-0.147-3.755-0.161
		c-1.406-0.015-2.811-0.042-4.217-0.068c-0.196-0.004-0.329,0.126-0.391,0.285c-0.056,0.065-0.099,0.144-0.107,0.251
		c-0.085,1.289-0.167,2.575-0.239,3.861c-1.711,0.213-3.373,0.23-5.084-0.059c-0.091-0.015-0.131,0.124-0.039,0.14
		c1.696,0.304,3.409,0.361,5.113,0.094c-0.108,1.972-0.186,3.945-0.173,5.927c0.005,0.81-0.024,1.732,0,2.669
		c-1.008,0.08-2.008,0.114-3.028,0.041c-0.087-0.006-0.086,0.128,0,0.135c1.009,0.082,2.029,0.095,3.037-0.006
		c0.027,0.827,0.095,1.661,0.281,2.434c-1.171,0.154-2.338,0.235-3.531,0.189c-0.094-0.004-0.093,0.141,0,0.146
		c1.199,0.058,2.397,0.019,3.578-0.164c0.115,0.434,0.258,0.852,0.461,1.231c0.273,0.509,0.607,0.943,0.981,1.32
		c-1.678,0.028-3.346-0.018-5.018-0.207c-0.073-0.008-0.071,0.105,0,0.114c1.718,0.22,3.443,0.319,5.172,0.253
		c1.931,1.803,4.928,2.035,7.474,1.291c-0.002,0.554,0.09,1.102,0.203,1.647c-3.222-0.263-6.459-0.392-9.687-0.575
		c-0.073-0.004-0.073,0.109,0,0.114c3.231,0.224,6.464,0.503,9.7,0.646c0.011,0,0.016-0.007,0.024-0.009
		c0.074,0.344,0.151,0.687,0.219,1.029c0.048,0.243,0.099,0.486,0.147,0.73c-4.14,0.042-8.273,0.013-12.411-0.173
		c-0.078-0.003-0.077,0.116,0,0.12c4.146,0.23,8.3,0.341,12.452,0.257c0.124,0.622,0.247,1.245,0.377,1.866
		C30.575,48.578,20.634,49.763,17.805,40.578z"/>
	<path style="fill:#1D1D1B;" d="M37.147,45.81c-3.866,0.103-7.732,0.059-11.595-0.137c-0.045-0.002-0.044,0.066,0,0.07
		c3.864,0.279,7.721,0.369,11.595,0.264C37.273,46.003,37.273,45.807,37.147,45.81z"/>
	<path style="fill:#1D1D1B;" d="M27.238,30.878c-1.263-0.047-2.531-0.01-3.795-0.003c-0.106,0.001-0.106,0.164,0,0.164
		c1.264,0.007,2.532,0.044,3.795-0.003C27.34,31.033,27.34,30.882,27.238,30.878z"/>
	<path style="fill:#1D1D1B;" d="M27.027,27.491c-2.305-0.102-4.652-0.07-6.958,0.016c-0.099,0.004-0.099,0.15,0,0.154
		c2.305,0.086,4.653,0.118,6.958,0.016C27.147,27.672,27.147,27.497,27.027,27.491z"/>
	<path style="fill:#1D1D1B;" d="M27.027,22.222c-1.615-0.023-3.235,0-4.849,0.033c-0.076,0.002-0.076,0.117,0,0.118
		c1.615,0.033,3.235,0.055,4.849,0.033C27.145,22.403,27.146,22.223,27.027,22.222z"/>
	<path style="fill:#1D1D1B;" d="M36.295,19.845c-4.338-1.035-8.827-1.311-13.273-1.159c-0.069,0.002-0.069,0.109,0,0.108
		c4.485-0.083,8.817,0.431,13.229,1.214C36.356,20.026,36.402,19.87,36.295,19.845z"/>
	<path style="fill:#1D1D1B;" d="M27.027,6.625c-1.294-0.148-2.581,0.032-3.822,0.41c-0.123,0.037-0.071,0.23,0.053,0.193
		c1.24-0.366,2.482-0.464,3.769-0.426C27.144,6.806,27.138,6.638,27.027,6.625z"/>
</g>
<g>
</g>
<g>
</g>
<g>
</g>
<g>
</g>
<g>
</g>
<g>
</g>
<g>
</g>
<g>
</g>
<g>
</g>
<g>
</g>
<g>
</g>
<g>
</g>
<g>
</g>
<g>
</g>
<g>
</g>
</svg>
