<?xml version="1.0" encoding="iso-8859-1"?>
<!-- Generator: Adobe Illustrator 18.0.0, SVG Export Plug-In . SVG Version: 6.00 Build 0)  -->
<!DOCTYPE svg PUBLIC "-//W3C//DTD SVG 1.1//EN" "http://www.w3.org/Graphics/SVG/1.1/DTD/svg11.dtd">
<svg version="1.1" id="Capa_1" xmlns="http://www.w3.org/2000/svg" xmlns:xlink="http://www.w3.org/1999/xlink" x="0px" y="0px"
	 viewBox="0 0 49.689 49.689" style="enable-background:new 0 0 49.689 49.689;" xml:space="preserve">
<g>
	<path style="fill:#1D1D1B;" d="M42.942,23.771c-0.225-0.573-0.659-1.083-1.026-1.562c-0.419-0.547-0.882-1.04-1.372-1.517
		c0.639-0.584,0.859-1.744,0.876-2.531c0.025-1.174-0.4-2.368-1.246-3.193c-1.518-1.48-3.923-1.475-5.519-0.21
		c-3.2-1.607-7.101-2.595-10.722-2.169c0.337-2.517-2.024-4.939-4.538-4.881c-2.381,0.055-4.389,2.276-4.202,4.604
		c-0.928,0.177-1.854,0.804-2.649,1.215c-1.096,0.568-2.164,1.21-3.185,1.91c-1.298-1.567-2.969-2.729-5.096-2.086
		c-1.686,0.51-3.487,1.715-4.062,3.457c-0.564,1.708,0.1,4.334,1.438,5.551c1.593,1.45,3.836,1.19,5.721,0.553
		c1.142,3.078,3.843,6.059,6.294,8.066c-1.601,4.24-0.389,9.279,4.482,10.64c4.779,1.335,10.669-1.048,11.564-6.257
		c3.413-1.15,6.757-2.663,10.093-4.029c1.45,4.309,7.636,3.596,9.401-0.111C51.107,27.202,47.144,22.554,42.942,23.771z
		 M47.774,31.301c-1.455,0.055-2.839,0.202-4.3,0.029c-0.154-0.018-0.191,0.248-0.037,0.273c1.295,0.205,2.708,0.328,4.021,0.101
		c-0.755,0.834-1.859,1.356-2.993,1.352c-1.784-0.007-2.861-1.14-3.929-2.398c-0.018-0.021-0.04-0.032-0.06-0.049
		c0.007-0.096-0.004-0.192-0.03-0.282c2.486,0.391,5.17,0.754,7.641,0.444C47.998,30.956,47.891,31.132,47.774,31.301z
		 M38.923,29.167c3.154,0.019,6.294,0.159,9.444,0.272c0.032,0.001,0.047-0.018,0.071-0.027c-0.02,0.284-0.06,0.569-0.146,0.852
		c-0.023,0.077-0.061,0.148-0.09,0.223c-0.004-0.001-0.005-0.004-0.009-0.004c-2.6-0.282-5.253-0.189-7.875-0.406
		c-0.117-0.142-0.293-0.226-0.516-0.188c-0.01-0.09-0.068-0.177-0.185-0.182c-1.413-0.053-2.827-0.091-4.241-0.137
		c1.505-0.302,2.987-0.693,4.265-1.325c0.188-0.093,0.268-0.27,0.267-0.451c0.2-0.013,0.397-0.127,0.446-0.339
		c0.113-0.492,0.143-0.926,0.609-1.285c0.316-0.243,0.429-0.656,0.125-0.973c-1.036-1.081-1.882-2.265-2.788-3.449
		c-0.003-0.005-0.009-0.007-0.012-0.011c-0.051-0.1-0.131-0.188-0.274-0.23c-0.901-0.262-1.756-0.23-2.437-0.992
		c-0.836-0.935-0.431-1.63-0.531-2.686c-0.116-1.221-1.671-1.082-2.675-0.84c-0.019-0.029-0.035-0.061-0.055-0.09
		c-0.287-0.428-0.898-0.104-0.764,0.344c-0.535-0.112-1.121-0.086-1.6,0.065c-0.154,0.049-0.088,0.261,0.065,0.237
		c0.422-0.065,0.833-0.099,1.257-0.02c0.159,0.03,0.31,0.08,0.46,0.133c0.005,0.008,0.007,0.018,0.012,0.026
		c0.214,0.444,0.387,0.901,0.546,1.361c-0.233,0.031-0.466,0.076-0.703,0.094c-0.354,0.026-0.706,0.01-1.06-0.01
		c-0.111-0.006-0.139,0.178-0.027,0.197c0.571,0.096,1.3,0.166,1.897,0.009c0.168,0.523,0.304,1.053,0.404,1.59
		c-0.521-0.055-1.067-0.042-1.574-0.074c-0.154-0.01-0.147,0.219,0,0.236c0.527,0.06,1.095,0.178,1.642,0.207
		c0.083,0.55,0.139,1.104,0.137,1.665c-0.012-0.003-0.018-0.014-0.032-0.014c-0.696-0.03-1.402,0.017-2.099,0.032
		c-0.152,0.003-0.152,0.232,0,0.236c0.697,0.015,1.403,0.062,2.099,0.032c0.01,0,0.014-0.009,0.023-0.011
		c-0.014,0.442-0.046,0.885-0.118,1.332c-0.038,0.232-0.107,0.436-0.16,0.654c-0.778-0.068-1.588,0.006-2.368,0.018
		c-0.167,0.003-0.168,0.257,0,0.26c0.755,0.012,1.539,0.08,2.295,0.023c-0.403,1.426-1.096,2.604-1.808,3.903
		c-1.25-0.036-2.5-0.074-3.75-0.109c2.221-0.863,3.338-3.791,3.322-6.027c-0.02-2.73-1.751-5.398-4.466-6.115
		c-1.427-0.377-2.788-0.029-3.925,0.726c-0.708-0.071-1.454,0.002-2.163,0.013c-0.143,0.002-0.143,0.219,0,0.222
		c0.59,0.01,1.206,0.061,1.804,0.038c-0.537,0.416-1.022,0.912-1.422,1.472c-0.376,0.024-0.749,0.094-1.112,0.193
		c-0.142,0.039-0.082,0.254,0.061,0.22c0.287-0.068,0.57-0.105,0.855-0.127c-0.188,0.291-0.356,0.594-0.5,0.904
		c-0.113,0.243-0.261,0.651-0.402,1.132c-0.374,0.062-0.739,0.178-1.085,0.341c-0.124,0.058-0.016,0.236,0.106,0.182
		c0.301-0.132,0.599-0.211,0.904-0.261c-0.156,0.582-0.292,1.248-0.342,1.879c-0.439,0.039-0.877,0.09-1.314,0.136
		c-0.128,0.014-0.132,0.215,0,0.204c0.433-0.038,0.868-0.072,1.302-0.117c-0.041,0.938,0.13,1.763,0.751,2.052
		c0.035,0.105,0.117,0.201,0.246,0.215c1.331,0.143,2.601,0.35,3.821,0.93c0.955,0.454,1.674,1.143,2.498,1.757
		c-1.766-0.049-3.531-0.098-5.297-0.15c-0.123-0.004-0.121,0.183,0,0.19c3.298,0.181,6.598,0.348,9.899,0.488
		c-0.044,0.083-0.089,0.164-0.133,0.249c-0.138,0.266,0.162,0.651,0.447,0.447c0.096-0.068,0.178-0.147,0.27-0.218
		c0.039,0.003,0.078,0.008,0.123,0c0.679-0.128,1.392-0.245,2.118-0.368c1.92,0.071,3.84,0.132,5.761,0.176
		c-1.633,0.623-3.256,1.275-4.867,1.951c-0.097,0.041-0.194,0.083-0.29,0.124c-0.006-0.091-0.046-0.177-0.15-0.191
		c-4.901-0.679-9.806-0.864-14.749-0.723c-0.162,0.005-0.163,0.256,0,0.253c4.821-0.08,9.606,0.271,14.384,0.881
		c-0.499,0.212-0.999,0.423-1.497,0.637c-0.493,0.212-0.985,0.425-1.476,0.639c-0.542,0.039-0.799,0.25-0.781,0.628
		c-0.045-0.019-0.095-0.029-0.15-0.021c-0.073,0.009-0.147,0.019-0.22,0.028c-0.157,0.017-0.263,0.083-0.347,0.165
		c-3.694-0.625-7.578-0.735-11.314-0.614c-0.16,0.005-0.161,0.246,0,0.25c3.618,0.077,7.174,0.395,10.772,0.682
		c-0.035,0.053-0.068,0.109-0.092,0.178C28.249,35.5,28.016,36,27.75,36.468c-0.005-0.001-0.007-0.006-0.012-0.007
		c-3.709-0.463-7.467-0.64-11.201-0.738c-0.129-0.003-0.128,0.193,0,0.2c3.677,0.2,7.328,0.57,10.992,0.912
		c-1.728,2.714-4.749,4.085-8.212,3.477c-4.903-0.86-5.473-5.195-4.86-9.289c0.268-0.191,0.392-0.56,0.074-0.86
		c-1.309-1.235-2.599-2.464-3.745-3.857c-1.129-1.372-2.019-2.934-3.174-4.276c-0.188-0.219-0.555,0.014-0.476,0.277
		c0.003,0.01,0.008,0.02,0.011,0.03c-1.278,0.003-2.68,0.097-3.829-0.488c-1.452-0.738-2.128-2.818-1.778-4.344
		c0.334-1.46,1.667-2.44,3.082-2.86c1.836-0.545,2.986,0.787,4.116,1.981c0.42,0.444,0.959,0.083,1.018-0.384
		c1.144-0.537,2.276-1.1,3.417-1.644c0.263-0.125,0.543-0.239,0.825-0.354c0.016,0.016,0.028,0.035,0.057,0.041
		c0.774,0.165,1.505,0.423,2.239,0.695c-0.382,0.101-0.754,0.245-1.123,0.403c-0.938-0.132-1.888-0.209-2.828-0.304
		c-0.139-0.014-0.134,0.197,0,0.215c0.78,0.102,1.563,0.213,2.347,0.301c-0.555,0.266-1.098,0.564-1.633,0.847
		c-0.877-0.073-1.767-0.08-2.642-0.122c-0.155-0.007-0.152,0.228,0,0.239c0.69,0.051,1.388,0.124,2.084,0.171
		c-0.548,0.274-1.119,0.55-1.625,0.902c-0.733-0.069-1.476-0.083-2.207-0.125c-0.184-0.011-0.181,0.271,0,0.285
		c0.604,0.045,1.214,0.107,1.823,0.143c-0.159,0.141-0.317,0.282-0.445,0.452c-0.027,0.035-0.031,0.074-0.025,0.113
		c-0.181,0.051-0.323,0.253-0.198,0.451c0.399,0.632,0.832,1.241,1.276,1.841c-0.624-0.099-1.25-0.19-1.873-0.288
		c-0.125-0.02-0.181,0.17-0.053,0.193c0.713,0.132,1.426,0.273,2.142,0.398c0.503,0.664,1.028,1.311,1.571,1.944
		c-0.699-0.128-1.404-0.222-2.119-0.248c-0.142-0.005-0.138,0.207,0,0.218c0.808,0.065,1.602,0.195,2.392,0.355
		c0.415,0.475,0.839,0.943,1.271,1.404c-0.868-0.154-1.78-0.198-2.613-0.212c-0.12-0.002-0.119,0.18,0,0.186
		c1.038,0.052,2.02,0.268,3.021,0.451c0.322,0.337,0.64,0.679,0.967,1.009c0.35,0.354,1.104,0.113,1.052-0.436
		c-0.229-2.45,0.082-4.879,1.281-7.075c1.199-2.197,2.898-2.977,5.143-3.791c0.157-0.057,0.185-0.259,0.085-0.354
		c0.209-0.14,0.034-0.438-0.197-0.404c-1.053,0.157-2.078,0.343-3.124,0.532c-0.43,0.077-0.876,0.153-1.315,0.122
		c-0.547-0.038-0.963-0.322-1.478-0.455c-0.333-0.086-0.554,0.237-0.456,0.529c-0.757-0.378-1.577-0.617-2.405-0.788
		c0.704-0.296,1.386-0.637,1.833-1.224c0.159-0.209,0.014-0.438-0.182-0.54c0.29-1.69,1.491-3.333,3.358-3.364
		c0.877-0.014,1.575,0.321,2.11,0.842c-0.863-0.279-1.849-0.337-2.698-0.311c-0.183,0.005-0.184,0.287,0,0.285
		c0.633-0.008,1.255,0.039,1.876,0.174c0.438,0.095,0.851,0.252,1.274,0.383c0.208,0.301,0.38,0.633,0.51,0.985
		c-1.211-0.353-2.611-0.398-3.835-0.392c-0.131,0.001-0.131,0.201,0,0.204c1.351,0.026,2.615,0.321,3.932,0.512
		c0.1,0.335,0.178,0.677,0.211,1.018c0.006,0.056,0.025,0.105,0.045,0.154c-0.145,0.159-0.11,0.478,0.135,0.52
		c3.907,0.671,7.52,1.198,11.279,2.533h0c0.117,0.059,0.262,0.058,0.4-0.025c0.014-0.007,0.028-0.014,0.042-0.023
		c0.005-0.004,0.011-0.004,0.016-0.009c1.289-1.034,3.468-1.059,4.612,0.231c0.039,0.044,0.069,0.095,0.105,0.141
		c-1.014-0.226-2.156-0.163-3.137-0.005c-0.107,0.017-0.083,0.2,0.026,0.19c1.185-0.111,2.243,0.082,3.388,0.244
		c0.186,0.353,0.312,0.74,0.364,1.137c-1.238-0.144-2.523-0.098-3.75-0.01c-0.159,0.011-0.162,0.257,0,0.25
		c1.276-0.056,2.521,0.049,3.784,0.125c0,0.017,0.004,0.033,0.005,0.05c0.002,0.271-0.056,0.51-0.131,0.739
		c-1.26-0.109-2.573,0.005-3.834,0.02c-0.194,0.002-0.195,0.3,0,0.302c1.218,0.015,2.487,0.119,3.708,0.028
		c-0.154,0.369-0.33,0.725-0.398,1.141c-0.009,0.057-0.004,0.107,0.003,0.156c-0.407,0.043-0.813,0.1-1.218,0.153
		c-0.103,0.013-0.108,0.175,0,0.165c0.426-0.038,0.854-0.07,1.28-0.119c0.001,0.001,0.001,0.003,0.001,0.004
		c0.014,0.067,0.039,0.135,0.09,0.199c0.316,0.406,0.599,0.84,0.891,1.267c-0.465-0.009-0.939,0.021-1.383,0.057
		c-0.156,0.013-0.156,0.23,0,0.243c0.522,0.042,1.088,0.08,1.63,0.051c0.077,0.116,0.165,0.225,0.24,0.342
		c0.372,0.579,0.649,1.376,1.191,1.803c0.196,0.155,0.518,0.17,0.727,0.041c1.195,0.146,2.302,0.07,3.422,0.732
		c0.684,0.404,1.233,0.989,1.606,1.665c-1.745-0.189-3.574-0.061-5.317,0.014c-0.18,0.008-0.182,0.284,0,0.281
		c1.831-0.025,3.681,0.148,5.507,0.08c0.209,0.486,0.33,1.009,0.341,1.543c-0.025-0.014-0.043-0.036-0.077-0.038
		c-3.135-0.226-6.304-0.216-9.444-0.118C38.76,28.919,38.759,29.166,38.923,29.167z M34.528,20.992
		c0.652,0.92,2.051,1.77,3.226,1.487c0.526,1.16,1.272,2.219,2.105,3.182c-0.313,0.47-0.485,0.978-0.446,1.559
		c-0.018-0.001-0.033-0.008-0.052-0.007c-2.255,0.116-4.663,1.009-6.882,1.805c2.409-3.104,2.18-7.865,0.35-11.258
		c0.252-0.006,0.504,0.013,0.757,0.061c0.353,0.008,0.448,0.163,0.284,0.462c0.026,0.26-0.048,0.545-0.028,0.814
		C33.893,19.778,34.134,20.437,34.528,20.992z M26.683,28.397c-1.413-1.874-4.329-2.776-6.603-2.407
		c-0.011-0.009-0.013-0.024-0.025-0.032c-0.665-0.419,0.041-2.896,0.198-3.38c0.295-0.91,0.78-1.818,1.421-2.529
		c1.525-1.694,3.692-2.145,5.559-0.645c1.542,1.239,2.117,3.222,1.769,5.131C28.697,26.198,27.673,27.162,26.683,28.397z
		 M16.726,15.139c0.04,0.015,0.08,0.028,0.119,0.043c0.039,0.015,0.073,0.005,0.1-0.015c0.467,0.685,1.289,0.872,2.209,0.8
		c-2.295,1.868-3.432,5.214-3.557,8.22c-1.736-1.842-3.434-3.722-5.208-5.525c1.033-0.068,2.063-0.703,2.972-1.142
		c1.135-0.547,2.351-1.051,3.344-1.834C16.902,15.531,16.862,15.298,16.726,15.139z"/>
	<path style="fill:#1D1D1B;" d="M25.11,38.257c-2.253-0.274-4.562-0.287-6.828-0.413c-0.204-0.011-0.202,0.304,0,0.316
		c2.265,0.144,4.559,0.405,6.828,0.398C25.31,38.558,25.298,38.279,25.11,38.257z"/>
	<path style="fill:#1D1D1B;" d="M25.63,38.444c-0.054,0-0.054,0.084,0,0.084C25.684,38.528,25.684,38.444,25.63,38.444z"/>
	<path style="fill:#1D1D1B;" d="M46.843,25.89c-1.012-0.312-2.147-0.349-3.197-0.306c-0.173,0.007-0.175,0.272,0,0.271
		c1.067-0.008,2.062,0.184,3.105,0.371C46.968,26.264,47.06,25.957,46.843,25.89z"/>
	<path style="fill:#1D1D1B;" d="M31.457,27.724c-0.704-0.393-1.559-0.263-2.215,0.164c-0.115,0.075-0.013,0.253,0.108,0.185
		c0.659-0.368,1.312-0.338,2.016-0.134C31.494,27.976,31.575,27.789,31.457,27.724z"/>
	<path style="fill:#1D1D1B;" d="M22.514,12.823c-1.139-0.294-2.361-0.332-3.531-0.326c-0.131,0.001-0.131,0.202,0,0.204
		c1.184,0.019,2.33,0.202,3.503,0.329C22.606,13.043,22.627,12.852,22.514,12.823z"/>
</g>
<g>
</g>
<g>
</g>
<g>
</g>
<g>
</g>
<g>
</g>
<g>
</g>
<g>
</g>
<g>
</g>
<g>
</g>
<g>
</g>
<g>
</g>
<g>
</g>
<g>
</g>
<g>
</g>
<g>
</g>
</svg>
