<?xml version="1.0" encoding="iso-8859-1"?>
<!-- Generator: Adobe Illustrator 18.0.0, SVG Export Plug-In . SVG Version: 6.00 Build 0)  -->
<!DOCTYPE svg PUBLIC "-//W3C//DTD SVG 1.1//EN" "http://www.w3.org/Graphics/SVG/1.1/DTD/svg11.dtd">
<svg version="1.1" id="Capa_1" xmlns="http://www.w3.org/2000/svg" xmlns:xlink="http://www.w3.org/1999/xlink" x="0px" y="0px"
	 viewBox="0 0 52.651 52.651" style="enable-background:new 0 0 52.651 52.651;" xml:space="preserve">
<g>
	<path style="fill:#1D1D1B;" d="M51.888,15.339c-0.021-0.037-0.059-0.05-0.089-0.074c-0.552-3.569-2.096-6.474-5.793-7.871
		C39.717,5.019,31.611,5.569,25.009,5.59C15.774,5.619,2.12,4.606,1.162,15.738c-0.08,0.026-0.149,0.078-0.167,0.193
		c-1.062,6.68-1.408,14.85-0.37,21.538c0.749,4.828,3.614,7.818,8.478,8.491c0.064,0.009,0.123,0.004,0.177-0.01
		c5.183,1.168,10.851,1.102,16.073,1.162c6.037,0.07,12.18-0.038,18.145-1.035c0.039-0.007,0.068-0.025,0.1-0.039
		c3.294-0.213,6.091-2.364,7.387-5.535c1.107-2.711,1.026-5.983,1.197-8.843c0.223-3.736,0.365-7.471,0.174-11.204
		C52.834,18.778,52.766,16.873,51.888,15.339z M49.831,38.853c-2.04,0.061-4.099,0.309-6.129,0.49c-0.113,0.01-0.116,0.186,0,0.179
		c2.001-0.111,4.038-0.165,6.034-0.388c-0.258,0.717-0.564,1.392-0.945,2.015c-3.483,0.248-6.948,0.706-10.393,1.274
		c-0.077,0.013-0.043,0.127,0.032,0.116c3.388-0.486,6.783-0.814,10.191-1.094c-0.498,0.752-1.103,1.429-1.845,2.029
		c-5.741,0.057-11.486,0.372-17.211,0.776c-0.091,0.006-0.093,0.148,0,0.143c5.617-0.26,11.236-0.419,16.854-0.635
		c-0.79,0.578-1.718,1.078-2.819,1.494c-0.063-0.039-0.135-0.068-0.223-0.065c-6.019,0.229-11.991,0.797-18.024,0.749
		c-5.402-0.043-10.887-0.888-16.283-0.842c-10.788-1.929-7.271-18.903-7.415-27.689c0.983-5.67,3.805-9.276,9.918-10.041
		c4.407-0.551,9.002-0.544,13.436-0.533c4.624,0.011,9.258,0.202,13.864,0.605c2.628,0.23,4.919,0.59,6.821,1.399
		c-2.767-0.174-5.552-0.163-8.318-0.054c-0.094,0.004-0.095,0.149,0,0.148c3.022-0.037,6.021,0.098,9.035,0.26
		c0.855,0.443,1.632,0.983,2.302,1.683c-5.808-0.347-11.634-0.511-17.449-0.692c-0.098-0.003-0.097,0.146,0,0.152
		c5.903,0.332,11.817,0.684,17.728,0.841c0.49,0.565,0.926,1.212,1.301,1.967c-2.067-0.316-4.315-0.367-6.382-0.129
		c-0.08,0.009-0.085,0.126,0,0.129c2.181,0.057,4.337,0.144,6.515,0.265c0.323,0.698,0.603,1.474,0.83,2.352
		c0.071,1.003,0.151,1.987,0.189,2.976c-1.949,0.144-3.845,0.306-5.8,0.231c-0.361-2.369-1.34-4.281-3.292-5.165
		c0.09-0.173,0.045-0.434-0.184-0.479c-9.717-1.913-20.776-2.172-30.569-0.192c-6.294,0.396-5.308,12.963-4.28,19.776
		c-0.081,2.434,0.601,4.851,2.699,6.363c1.289,0.929,2.778,1.163,4.328,1.289c2.655,0.216,5.354,0.441,8.008,0.158
		c0.001,0.002,0.002,0.004,0.003,0.006c1.268,1.453,2.591,2.951,3.552,4.63c0.239,0.417,0.767,0.343,1.02,0
		c1.009-1.363,2.125-2.784,2.773-4.361c0.022-0.053,0.028-0.105,0.029-0.156c4.974,1.004,12.5,0.441,15.599-3.947
		c0.139-0.196,0.136-0.383,0.063-0.54c0.027-0.081,0.044-0.162,0.069-0.243c1.689-0.077,3.408-0.128,5.079-0.346
		C50.375,36.865,50.149,37.901,49.831,38.853z M44.748,26.182c0.067,3.29,0.338,6.677-0.355,9.913
		c-0.058,0.04-0.115,0.083-0.162,0.147c-3.096,4.166-10.205,3.99-14.898,4.111c-0.18-0.057-0.379-0.035-0.51,0.124
		c-0.912,1.106-1.647,2.375-2.444,3.581c-1.089-1.367-2.146-2.708-3.453-3.904c-0.122-0.112-0.256-0.128-0.374-0.094
		c-0.03-0.015-0.04-0.043-0.079-0.051c-2.696-0.52-5.396-0.372-8.125-0.527c-3.506-0.199-5.366-2.021-6.133-4.742
		C7.69,28.827,6.23,15.984,11.664,13.859c9.751-0.663,18.986-0.849,28.716-0.045c0.028,0.026,0.046,0.061,0.085,0.076
		C45.444,15.761,44.666,22.118,44.748,26.182z M50.988,30.444c-1.234-0.118-2.516,0.022-3.727,0.232
		c-0.089,0.015-0.05,0.146,0.037,0.134c1.24-0.175,2.44-0.149,3.677-0.133c-0.032,0.648-0.062,1.296-0.104,1.944
		c-0.008,0.127-0.021,0.244-0.031,0.369c-1.253-0.151-2.555-0.003-3.79,0.225c-0.096,0.018-0.054,0.159,0.04,0.144
		c1.257-0.196,2.469-0.175,3.732-0.157c-0.063,0.787-0.14,1.547-0.243,2.272c-1.676,0.026-3.377,0.227-5.051,0.401
		c0.659-2.335,0.415-4.718,0.361-7.175c-0.007-0.304-0.008-0.61-0.009-0.916c1.737,0.039,3.522,0.003,5.233-0.263
		C51.075,28.496,51.035,29.47,50.988,30.444z M51.389,22.222c-1.434-0.046-2.881,0.022-4.315,0.038c-0.1,0.001-0.1,0.155,0,0.156
		c1.428,0.016,2.87,0.083,4.298,0.038c-0.058,0.877-0.108,1.754-0.149,2.631c-1.375,0.002-2.783,0.187-4.151,0.315
		c-0.086,0.008-0.089,0.141,0,0.137c1.369-0.061,2.783-0.075,4.143-0.258c-0.03,0.66-0.062,1.319-0.089,1.979
		c-1.751,0.099-3.491,0.263-5.246,0.322c-0.002-2.747,0.159-5.552-0.176-8.262c-0.008-0.062-0.021-0.12-0.029-0.181
		c1.908,0.153,3.899,0.174,5.778-0.182c0.019,0.624,0.024,1.251-0.016,1.891c-0.005,0.073,0.012,0.131,0.037,0.183
		C51.44,21.427,51.416,21.825,51.389,22.222z"/>
	<path style="fill:#1D1D1B;" d="M50.869,15.913c-1.676-0.092-3.381,0.014-5.06,0.033c-0.087,0.001-0.087,0.134,0,0.135
		c1.679,0.018,3.384,0.125,5.06,0.033C50.998,16.106,50.998,15.92,50.869,15.913z"/>
</g>
<g>
</g>
<g>
</g>
<g>
</g>
<g>
</g>
<g>
</g>
<g>
</g>
<g>
</g>
<g>
</g>
<g>
</g>
<g>
</g>
<g>
</g>
<g>
</g>
<g>
</g>
<g>
</g>
<g>
</g>
</svg>
