<?xml version="1.0" encoding="iso-8859-1"?>
<!-- Generator: Adobe Illustrator 18.0.0, SVG Export Plug-In . SVG Version: 6.00 Build 0)  -->
<!DOCTYPE svg PUBLIC "-//W3C//DTD SVG 1.1//EN" "http://www.w3.org/Graphics/SVG/1.1/DTD/svg11.dtd">
<svg version="1.1" id="Capa_1" xmlns="http://www.w3.org/2000/svg" xmlns:xlink="http://www.w3.org/1999/xlink" x="0px" y="0px"
	 viewBox="0 0 49.751 49.751" style="enable-background:new 0 0 49.751 49.751;" xml:space="preserve">
<g>
	<path style="fill:#1D1D1B;" d="M49.666,15.049c-0.177-0.025-0.357-0.038-0.535-0.062c-0.031-0.753-0.052-1.509-0.09-2.259
		c-0.018-0.347-0.313-0.495-0.574-0.455c-0.007-0.277-0.188-0.552-0.547-0.564c-10.806-0.338-21.824-0.995-32.631-0.465
		c0.058-0.843,0.267-2.144-0.233-2.729c-0.542-0.634-1.982-0.374-2.666-0.376c-1.474-0.003-3.434-0.269-4.853,0.164
		c-0.138,0.042-0.255,0.088-0.36,0.14C7.059,8.29,6.817,8.262,6.648,8.341c-0.617,0.288-0.766,1.165-0.8,1.783
		c-0.025,0.465,0.063,0.919,0.211,1.354c-1.395-0.172-5.456-0.62-5.539,0.825c-0.066,0.058-0.113,0.144-0.119,0.26
		c-0.327,5.596-0.119,11.258-0.076,16.863c0.023,2.973-1.087,8.141,0.671,10.731c-0.156,0.065-0.244,0.286-0.049,0.372
		c2.87,1.255,5.43,0.735,8.51,0.517c4.165-0.295,8.338-0.225,12.507-0.043c8.655,0.376,17.332,1.226,25.974,0.216
		c0.285-0.033,0.465-0.221,0.542-0.44c0.146-0.052,0.267-0.179,0.283-0.38c0.16-1.955,0.279-3.923,0.372-5.896
		c0.088-0.007,0.086-0.122,0.007-0.141C49.44,28,49.399,21.578,49.141,15.24c0.165,0.016,0.328,0.027,0.493,0.043
		C49.767,15.297,49.799,15.068,49.666,15.049z M47.961,20.539c-3.43-0.03-6.867,0.024-10.296,0.054
		c-0.102,0.001-0.102,0.162,0,0.159c0.239-0.007,0.479-0.013,0.718-0.02c0.071-0.002,0.071-0.107,0-0.11
		c3.077,0.126,6.378,0.219,9.575,0.142c-0.009,0.816-0.026,1.629-0.034,2.445c-0.011-0.005-0.018-0.013-0.033-0.013
		c-2.926,0.08-5.828,0.174-8.756,0.132c-0.096-0.001-0.094,0.142,0,0.148c2.896,0.186,5.869,0.197,8.756-0.113
		c0.014-0.002,0.021-0.01,0.031-0.016c-0.007,0.752-0.026,1.5-0.032,2.252c-2.847,0.231-5.635,0.404-8.502,0.195
		c-0.1-0.007-0.099,0.148,0,0.156c2.813,0.23,5.701,0.262,8.5-0.174c-0.008,1.017-0.023,2.034-0.027,3.051
		c-2.485-0.159-5.009,0.009-7.479,0.265c-0.107,0.011-0.109,0.179,0,0.169c2.499-0.241,4.976-0.238,7.478-0.256
		c-0.003,0.86-0.018,1.72-0.017,2.58c-2.67-0.004-5.311-0.094-7.969-0.431c-0.11-0.014-0.109,0.159,0,0.173
		c2.638,0.347,5.307,0.534,7.97,0.443c0.001,0.854-0.003,1.708,0.003,2.561c-3.403-0.051-6.812,0.017-10.214,0.04
		c-0.071,0-0.071,0.109,0,0.11c3.402,0.023,6.813,0.092,10.216,0.041c0.013,1.826,0.028,3.652,0.065,5.473
		c-7.717,0.772-15.327,0.417-23.057,0.04c-3.849-0.188-7.705-0.354-11.559-0.243c-3.837,0.11-7.774,0.94-11.596,0.415
		c0.002-0.039-0.004-0.082-0.022-0.13C0.269,36.285,1.307,30.51,1.303,26.45c-0.004-4.622,0.113-9.275-0.185-13.887
		c-0.001-0.012-0.006-0.02-0.008-0.031c0.542-0.31,2.349-0.094,2.619-0.093c0.917,0.004,1.779-0.062,2.689-0.167
		c0.001,0,0.001-0.001,0.001-0.001c0.211,0.224,0.634,0.003,0.553-0.325c-0.157-0.63-0.152-1.255-0.014-1.889
		c0.056-0.256,0.15-0.496,0.219-0.738c0.079-0.027,0.149-0.075,0.175-0.174c0.009-0.031,4.393,0.164,4.735,0.166
		c0.322,0.002,1.938-0.229,2.128-0.043c0.216,0.212,0.016,1.977,0.017,2.294c0,0.002,0.001,0.004,0.001,0.006
		c-0.036,0.188,0.064,0.397,0.299,0.449c0.098,0.041,0.204,0.051,0.31,0.035c10.923,0.98,22.115,0.727,33.078,0.797
		c0.057,0,0.101-0.017,0.149-0.029c-0.014,0.679-0.018,1.361-0.029,2.041c-4.357-0.516-8.797-0.679-13.164-0.415
		c-0.075,0.005-0.077,0.118,0,0.118c4.423-0.01,8.772,0.183,13.16,0.578C48.009,16.94,47.981,18.738,47.961,20.539z"/>
	<path style="fill:#1D1D1B;" d="M24.179,13.474c-0.065-0.149-0.201-0.263-0.421-0.26c-6.923,0.099-12.503,6.026-11.84,13.008
		c0.664,6.987,6.784,11.946,13.689,11.812C42.429,37.706,37.6,11.388,24.179,13.474z M24.925,36.915
		C10.56,36.562,8.767,15.422,23.532,14.209c6.488,0.819,11.578,4.78,11.989,11.821C35.897,32.455,31.382,37.073,24.925,36.915z"/>
	<path style="fill:#1D1D1B;" d="M31.372,24.447c-0.727-4.223-3.585-6.251-7.384-5.884c-0.066-0.028-0.142-0.044-0.233-0.042
		c-8.914,0.227-7.681,15.274,1.204,14.138C28.778,32.171,32.022,28.226,31.372,24.447z M26.031,31.047
		c-7.511,2.948-10.613-10.575-2.276-11.471c0.133-0.014,0.234-0.073,0.316-0.148c2.667,0.118,4.848,1.048,5.819,3.98
		C30.979,26.699,29.254,29.782,26.031,31.047z"/>
	<path style="fill:#1D1D1B;" d="M47.629,38.568c-7.605,0.281-15.138,0.371-22.743,0.01c-0.057-0.003-0.056,0.084,0,0.088
		c7.549,0.563,15.195,0.654,22.743,0.017C47.703,38.678,47.705,38.565,47.629,38.568z"/>
	<path style="fill:#1D1D1B;" d="M46.629,36.33c-4.399-0.27-8.84-0.182-13.246-0.235c-0.072-0.001-0.072,0.11,0,0.112
		c4.405,0.097,8.841,0.335,13.246,0.213C46.688,36.419,46.688,36.333,46.629,36.33z"/>
	<path style="fill:#1D1D1B;" d="M47.824,17.116c-1.002,1.007-4.592,0.45-5.858,0.453c-1.861,0.005-3.722,0.004-5.583,0.018
		c-0.114,0.001-0.114,0.176,0,0.177c2.577,0.022,5.154,0.022,7.731,0.031c1.142,0.004,3.034,0.472,3.849-0.542
		C48.04,17.158,47.916,17.024,47.824,17.116z"/>
</g>
<g>
</g>
<g>
</g>
<g>
</g>
<g>
</g>
<g>
</g>
<g>
</g>
<g>
</g>
<g>
</g>
<g>
</g>
<g>
</g>
<g>
</g>
<g>
</g>
<g>
</g>
<g>
</g>
<g>
</g>
</svg>
