<?xml version="1.0" encoding="iso-8859-1"?>
<!-- Generator: Adobe Illustrator 18.0.0, SVG Export Plug-In . SVG Version: 6.00 Build 0)  -->
<!DOCTYPE svg PUBLIC "-//W3C//DTD SVG 1.1//EN" "http://www.w3.org/Graphics/SVG/1.1/DTD/svg11.dtd">
<svg version="1.1" id="Capa_1" xmlns="http://www.w3.org/2000/svg" xmlns:xlink="http://www.w3.org/1999/xlink" x="0px" y="0px"
	 viewBox="0 0 49.259 49.259" style="enable-background:new 0 0 49.259 49.259;" xml:space="preserve">
<g>
	<path style="fill:#1D1D1B;" d="M38.34,36.656c-0.021-0.135-0.109-0.262-0.288-0.276c-4.489-0.354-9.011-0.676-13.522-0.457
		c-0.029-0.023-0.052-0.051-0.099-0.058c-3.844-0.635-4.721-3.908-4.79-7.287c0.006,0.001,0.012,0.002,0.018,0.003
		c0.08,0.015,0.116-0.105,0.034-0.124c-0.018-0.004-0.035-0.006-0.053-0.01c-0.011-0.8,0.021-1.601,0.068-2.375
		c0.05,0.011,0.099,0.015,0.149,0.027c0.099,0.023,0.14-0.125,0.042-0.152c-0.06-0.017-0.12-0.023-0.18-0.037
		c0.038-0.596,0.082-1.178,0.123-1.72c5.048,0.766,25.894,2.93,22.229-7.259c-0.031-0.087-0.086-0.149-0.15-0.196
		c-0.475-2.154-1.908-3.857-4.287-4.527c-2.47-0.695-5.504-0.405-8.02-0.518c-3.412-0.153-6.824-0.306-10.236-0.459
		c0.836-2.689,0.734-5.955-0.755-8.372c-1.045-1.697-3.206-3.32-5.278-2.737C9.552-0.394,7.523,3.613,7.03,7.067
		c-0.519,3.638-0.133,7.63-0.15,11.305c-0.021,4.386-0.264,8.867,0.175,13.233c-0.3,5.523,2.476,10.715,7.066,13.967
		c6.307,4.468,15.798,3.879,23.084,3.275c0.212-0.017,0.337-0.155,0.381-0.313c2.751,0.031,4.317-3.521,4.321-5.906
		C41.911,40.195,40.678,37.477,38.34,36.656z M39.72,46.17c-0.511,0.55-2.086,1.661-2.932,1.534
		c-0.237-0.035-0.398,0.126-0.431,0.304c-5.854-0.007-12.329,0.593-17.849-1.446c-7.025-2.596-9.974-8.67-10.646-15.665
		c0.401-4.459,0.175-9.02,0.177-13.489c0.002-5.531-1.482-14.535,5.577-16.375c1.818,0.298,3.17,0.96,4.036,2.323
		c-1.083-0.014-2.166-0.001-3.249,0.005c-0.102,0.001-0.102,0.158,0,0.158c1.12,0.007,2.24,0.022,3.36,0.004
		c0.277,0.478,0.5,1.034,0.665,1.69c0.067,0.265,0.115,0.531,0.154,0.797c-1.393-0.042-2.764-0.12-4.154-0.352
		c-0.073-0.012-0.105,0.099-0.031,0.112c1.38,0.247,2.796,0.418,4.204,0.419c0.083,0.675,0.096,1.352,0.079,2.03
		c-1.562-0.168-3.133-0.275-4.698-0.406c-0.076-0.006-0.075,0.111,0,0.118c1.562,0.143,3.127,0.31,4.694,0.416
		c-0.028,0.954-0.094,1.91-0.055,2.866c-0.703,0.064-0.676,1.192,0.089,1.23c3.938,0.196,7.877,0.391,11.815,0.587
		c3.902,0.194,7.302,0.121,9.384,2.733c-5.901-0.137-11.803-0.244-17.704-0.341c-0.072-0.001-0.072,0.11,0,0.112
		c5.964,0.182,11.929,0.352,17.895,0.492c0.375,0.524,0.709,1.133,0.984,1.873c-3.466-0.167-6.976-0.027-10.445,0.016
		c-0.092,0.001-0.092,0.142,0,0.143c3.492,0.043,7.026,0.186,10.514,0.014c0.003,0.009,0.007,0.016,0.01,0.024
		c-0.111,0.642-0.327,1.209-0.62,1.718c-3.8,0.066-7.576,0.069-11.377-0.031c-0.077-0.002-0.075,0.112,0,0.118
		c3.717,0.318,7.504,0.376,11.231,0.155c-3.37,5.158-15.797,3.417-20.678,3.235c-0.284-0.01-0.44,0.261-0.424,0.503
		c-0.122,0.034-0.224,0.117-0.248,0.268c-0.085,0.537-0.161,1.111-0.231,1.69c-0.775-0.077-1.555-0.023-2.325,0.166
		c-0.093,0.023-0.053,0.163,0.039,0.142c0.764-0.173,1.51-0.205,2.261-0.132c-0.089,0.768-0.158,1.555-0.18,2.35
		c-0.694-0.075-1.393-0.081-2.098-0.015c-0.079,0.007-0.08,0.131,0,0.125c0.706-0.055,1.401-0.033,2.095,0.042
		c-0.017,0.866,0.019,1.732,0.138,2.569c-0.815,0.002-1.63,0.005-2.445,0.012c-0.06,0-0.06,0.092,0,0.093
		c0.819,0.007,1.638,0.011,2.457,0.012c0.118,0.777,0.309,1.527,0.596,2.226c-0.603,0.028-1.194-0.028-1.78-0.207
		c-0.063-0.019-0.089,0.078-0.027,0.098c0.608,0.191,1.217,0.262,1.841,0.203c0.022,0.051,0.035,0.106,0.057,0.156
		c0.676,1.5,2.022,2.81,3.613,2.951c0.057,0.105,0.16,0.191,0.317,0.209c4.37,0.501,8.782,0.445,13.169,0.308
		c0.049,0.071,0.115,0.132,0.208,0.168c2.44,0.941,3.898,2.193,3.979,4.985C40.769,43.573,40.713,45.102,39.72,46.17z"/>
	<path style="fill:#1D1D1B;" d="M39.071,46.541c-2.905-0.102-5.814-0.13-8.721-0.171c-1.342-0.019-2.683-0.036-4.025-0.052
		c-0.765-0.009-4.02-0.521-4.524-0.053c0.027-0.025-0.007-0.067-0.038-0.05c-0.054,0.031-0.107,0.061-0.161,0.092
		c-0.047,0.027-0.024,0.096,0.027,0.098c5.801,0.235,11.636,0.308,17.442,0.276C39.162,46.682,39.162,46.544,39.071,46.541z"/>
	<path style="fill:#1D1D1B;" d="M39.913,45.161c-3.781-0.233-7.597-0.168-11.385-0.222c-0.075-0.001-0.075,0.114,0,0.116
		c3.786,0.093,7.598,0.306,11.385,0.22C39.987,45.274,39.986,45.166,39.913,45.161z"/>
	<path style="fill:#1D1D1B;" d="M40.546,43.165c-5.06-0.021-10.121,0.031-15.18,0.07c-0.068,0-0.068,0.105,0,0.105
		c5.059,0.039,10.12,0.09,15.18,0.07C40.704,43.409,40.704,43.166,40.546,43.165z"/>
	<path style="fill:#1D1D1B;" d="M40.335,41.082c-2.734-0.098-5.486,0.017-8.222,0.041c-0.072,0.001-0.072,0.111,0,0.112
		c2.736,0.025,5.488,0.139,8.222,0.041C40.46,41.272,40.46,41.087,40.335,41.082z"/>
	<path style="fill:#1D1D1B;" d="M38.651,39.132c-2.936-0.299-5.897-0.406-8.847-0.419c-1.546-0.007-4.461-0.514-5.818,0.277
		c-0.03,0.018-0.035,0.06-0.011,0.085c0.028,0.028,0.055,0.055,0.083,0.083c0.02,0.02,0.052,0.019,0.073,0
		c0.021-0.02,0.043-0.039,0.064-0.059c0.048-0.044-0.022-0.111-0.07-0.07c0.508-0.428,2.696-0.094,3.464-0.097
		c1.292-0.005,2.584,0.012,3.876,0.047c2.401,0.065,4.79,0.244,7.186,0.389C38.804,39.378,38.799,39.147,38.651,39.132z"/>
	<path style="fill:#1D1D1B;" d="M37.383,21.884c-2.768-0.161-5.542-0.227-8.313-0.322c-1.279-0.044-2.558-0.089-3.837-0.131
		c-0.71-0.023-3.444-0.574-3.889-0.312c0.051-0.03,0.006-0.103-0.046-0.078c-0.192,0.093-0.385,0.186-0.578,0.278
		c-0.069,0.033-0.029,0.13,0.036,0.134c5.529,0.322,11.088,0.58,16.625,0.673C37.54,22.13,37.538,21.893,37.383,21.884z"/>
	<path style="fill:#1D1D1B;" d="M17.99,10.064c-1.329-0.117-2.673-0.157-4.007-0.198c-0.087-0.003-0.086,0.129,0,0.135
		c1.331,0.087,2.673,0.176,4.007,0.188C18.071,10.19,18.069,10.071,17.99,10.064z"/>
</g>
<g>
</g>
<g>
</g>
<g>
</g>
<g>
</g>
<g>
</g>
<g>
</g>
<g>
</g>
<g>
</g>
<g>
</g>
<g>
</g>
<g>
</g>
<g>
</g>
<g>
</g>
<g>
</g>
<g>
</g>
</svg>
