<?xml version="1.0" encoding="iso-8859-1"?>
<!-- Generator: Adobe Illustrator 18.0.0, SVG Export Plug-In . SVG Version: 6.00 Build 0)  -->
<!DOCTYPE svg PUBLIC "-//W3C//DTD SVG 1.1//EN" "http://www.w3.org/Graphics/SVG/1.1/DTD/svg11.dtd">
<svg version="1.1" id="Capa_1" xmlns="http://www.w3.org/2000/svg" xmlns:xlink="http://www.w3.org/1999/xlink" x="0px" y="0px"
	 viewBox="0 0 49.897 49.897" style="enable-background:new 0 0 49.897 49.897;" xml:space="preserve">
<g>
	<path style="fill:#1D1D1B;" d="M49.869,23.381c-0.803-14.492-17.75-13.217-24.264-3.458c-4.482-4.62-10.37-9.251-17.256-7.801
		c-5.908,1.244-9.152,7.143-8.179,12.907c0.86,5.092,4.835,10.91,10.228,11.749c5.645,0.878,11.772-2.299,15.324-6.605
		c0.018,0.036,0.034,0.072,0.064,0.108c3.845,4.496,9.757,8.984,16.064,7.462C47.892,36.285,50.177,28.925,49.869,23.381z
		 M38.947,36.758c-2.483-0.095-4.615-1.043-6.582-2.33c3.586,0.796,7.287,1.339,10.968,1.315
		C42.091,36.441,40.632,36.823,38.947,36.758z M48.8,24.494c-1.056-0.005-2.1-0.004-3.151-0.124c-0.119-0.014-0.117,0.171,0,0.186
		c1.041,0.129,2.099,0.201,3.145,0.096c-0.019,0.898-0.103,1.81-0.271,2.717c-1.25-0.119-2.512-0.015-3.745,0.2
		c-0.104,0.018-0.06,0.176,0.044,0.159c1.227-0.202,2.431-0.226,3.669-0.191c-0.133,0.676-0.293,1.349-0.509,2.001
		c-1.484,0.133-2.947,0.2-4.443,0.153c-0.083-0.003-0.08,0.119,0,0.127c1.449,0.137,2.931,0.111,4.377-0.083
		c-0.258,0.744-0.565,1.466-0.936,2.142c-0.001-0.035-0.023-0.07-0.069-0.072c-1.964-0.059-3.938,0.004-5.903,0.02
		c-0.069,0.001-0.069,0.107,0,0.108c1.965,0.016,3.939,0.079,5.903,0.02c0.043-0.001,0.06-0.034,0.064-0.067
		c-0.844,1.535-1.979,2.849-3.425,3.723c-3.834-0.227-7.59-0.546-11.368-1.322c-0.01-0.002-0.011,0.009-0.019,0.012
		c-2.04-1.367-3.905-3.088-5.801-4.591c-0.063-0.05-0.127-0.074-0.191-0.089c0.005-0.006,0.01-0.012,0.015-0.019
		c0.336-0.446-0.375-0.949-0.754-0.581c-0.38,0.368-0.769,0.718-1.16,1.065c-1.166-0.08-2.34-0.106-3.505-0.157
		c-0.073-0.003-0.073,0.11,0,0.114c1.112,0.062,2.231,0.147,3.347,0.188c-0.538,0.472-1.085,0.928-1.647,1.358
		c-1.551-0.001-3.102,0.019-4.652,0.028c-0.068,0-0.068,0.105,0,0.105c1.479,0.008,2.959,0.026,4.439,0.028
		c-0.599,0.449-1.208,0.88-1.843,1.267c-1.846-0.069-3.701-0.028-5.547-0.028c-0.056,0-0.056,0.086,0,0.087
		c1.785,0.026,3.577,0.087,5.362,0.054c-0.789,0.469-1.605,0.89-2.463,1.237c-2.508-0.127-5.03-0.118-7.539-0.166
		c-0.054-0.001-0.054,0.082,0,0.084c2.362,0.082,4.733,0.214,7.099,0.237c-0.819,0.305-1.664,0.563-2.558,0.735
		c-6.398,1.232-11.416-3.085-13.128-9.03c-1.944-6.752,2.319-13.54,9.816-13.197c5.472,0.25,9.79,4.14,13.493,7.745
		c0.242,0.236,0.543,0.175,0.73-0.005c0.13,0.044,0.278,0.026,0.392-0.098c2.885-3.147,6.023-5.982,10.292-7
		c3.792-0.904,7.06,0.224,9.297,2.504c-1.762-0.031-3.531,0.082-5.282,0.251c-0.097,0.009-0.099,0.162,0,0.154
		c1.824-0.149,3.643-0.179,5.469-0.213c1.311,1.411,2.245,3.23,2.684,5.273c-1.027-0.11-2.062-0.156-3.092-0.225
		c-0.13-0.009-0.129,0.193,0,0.203c1.041,0.076,2.085,0.178,3.128,0.21c0.151,0.758,0.239,1.544,0.249,2.352
		C48.814,24.281,48.801,24.389,48.8,24.494z"/>
	<path style="fill:#1D1D1B;" d="M44.538,24.505c-0.285-2.778-2.286-5.683-5.189-6.001c-3.872-0.425-7.491,3.054-10.229,5.299
		c-0.279,0.228-0.238,0.577-0.052,0.823c-0.102,0.104-0.136,0.262,0.004,0.389c2.81,2.552,6.587,5.554,10.649,5.03
		C42.485,29.687,44.837,27.417,44.538,24.505z M34.736,27.557c-1.671-0.804-3.195-1.877-4.831-2.748
		c3.465-2.317,10.189-8.823,12.748-1.737C44.777,28.954,38.256,29.251,34.736,27.557z"/>
	<path style="fill:#1D1D1B;" d="M20.479,24.599c-1.648,1.774-3.43,3.841-5.809,4.608c-3.414,1.101-6.348-1.051-6.491-4.584
		c-0.15-3.692,3.128-5.697,6.498-4.745c2.487,0.703,4.266,2.709,6.081,4.416c0.305,0.287,0.861-0.091,0.605-0.467
		c-1.965-2.883-4.986-5.513-8.687-5.362c-3.261,0.133-5.592,2.549-5.637,5.799c-0.043,3.082,1.64,6.027,4.869,6.475
		c4.033,0.56,7.045-2.48,9.445-5.268C21.864,24.876,21.025,24.011,20.479,24.599z"/>
	<path style="fill:#1D1D1B;" d="M45.223,33.507c-3.321-0.075-6.594-0.207-9.892-0.654c-0.062-0.008-0.09,0.086-0.026,0.096
		c3.276,0.48,6.604,0.798,9.918,0.701C45.315,33.647,45.315,33.509,45.223,33.507z"/>
	<path style="fill:#1D1D1B;" d="M47.335,18.793c-1.2,0.001-2.389-0.002-3.584-0.13c-0.137-0.015-0.135,0.198,0,0.213
		c1.19,0.136,2.39,0.203,3.584,0.083C47.44,18.949,47.445,18.793,47.335,18.793z"/>
	<path style="fill:#1D1D1B;" d="M43.747,14.708c-2.107-0.038-4.218,0.014-6.325,0.028c-0.083,0-0.083,0.128,0,0.129
		c2.107,0.014,4.218,0.066,6.325,0.027C43.865,14.889,43.865,14.71,43.747,14.708z"/>
</g>
<g>
</g>
<g>
</g>
<g>
</g>
<g>
</g>
<g>
</g>
<g>
</g>
<g>
</g>
<g>
</g>
<g>
</g>
<g>
</g>
<g>
</g>
<g>
</g>
<g>
</g>
<g>
</g>
<g>
</g>
</svg>
