<?xml version="1.0" encoding="iso-8859-1"?>
<!-- Generator: Adobe Illustrator 18.0.0, SVG Export Plug-In . SVG Version: 6.00 Build 0)  -->
<!DOCTYPE svg PUBLIC "-//W3C//DTD SVG 1.1//EN" "http://www.w3.org/Graphics/SVG/1.1/DTD/svg11.dtd">
<svg version="1.1" id="Capa_1" xmlns="http://www.w3.org/2000/svg" xmlns:xlink="http://www.w3.org/1999/xlink" x="0px" y="0px"
	 viewBox="0 0 49.677 49.677" style="enable-background:new 0 0 49.677 49.677;" xml:space="preserve">
<g>
	<path style="fill:#1D1D1B;" d="M14.89,1.102c0.016-0.581-0.594-0.731-0.97-0.485C9.742-0.389,4.969,0.461,0.766,0.897
		C0.454,0.929,0.323,1.381,0.612,1.509C0.211,3.483,0.464,5.601,0.499,7.604c0.037,2.097-0.145,4.077-0.349,6.159
		c-0.02,0.206,0.124,0.353,0.301,0.414c0.019,0.082,0.06,0.157,0.149,0.203c3.938,2.018,9.455,0.904,13.709,0.736
		c0.404-0.016,0.583-0.416,0.47-0.719C14.923,9.969,14.77,5.533,14.89,1.102z M7.871,13.969c-2.302,0.16-4.502-0.146-6.781-0.214
		c0.688-1.653,0.643-3.469,0.595-5.248c-0.061-2.229,0.1-4.699-0.45-6.885c4.029,0.572,8.291,0.003,12.363,0.048
		c-0.028,0.408-0.036,0.818-0.053,1.228C11.278,2.445,8.93,2.373,6.632,2.496c-0.137,0.007-0.139,0.218,0,0.214
		c2.338-0.065,4.595,0.183,6.898,0.516c-0.015,0.379-0.04,0.756-0.049,1.135C11.004,3.939,8.433,3.94,5.932,4.074
		c-0.135,0.007-0.137,0.213,0,0.211c2.535-0.045,5.002,0.206,7.518,0.445c0.01,0.001,0.014-0.008,0.023-0.008
		c-0.009,0.455-0.022,0.909-0.024,1.364C10.867,5.672,8.185,5.71,5.583,5.835c-0.13,0.006-0.132,0.209,0,0.204
		c2.651-0.096,5.232,0.157,7.866,0.358c0,0.428-0.013,0.855-0.004,1.283C11.954,7.549,10.4,7.675,8.906,7.69
		c-0.204,0.002-0.204,0.314,0,0.316c1.498,0.016,3.057,0.143,4.552,0.01c0.014,0.525,0.03,1.051,0.058,1.575
		c-3.157-0.211-6.348-0.191-9.508-0.083c-0.115,0.004-0.116,0.179,0,0.179C7.192,9.7,10.36,9.846,13.539,9.97
		c0.023,0.36,0.035,0.721,0.066,1.08c-1.967-0.112-3.956-0.06-5.925-0.082c-0.12-0.001-0.12,0.182,0,0.186
		c1.978,0.076,3.972,0.228,5.952,0.212c0.034,0.364,0.052,0.729,0.094,1.091c-3.349-0.157-6.719-0.056-10.068,0.044
		c-0.108,0.003-0.109,0.169,0,0.169c3.372-0.014,6.743,0.116,10.114,0.122c0.05,0.392,0.1,0.784,0.161,1.173
		C11.944,13.517,9.901,13.827,7.871,13.969z"/>
	<path style="fill:#1D1D1B;" d="M32.441,0.956c0.011-0.246-0.167-0.365-0.356-0.366c-0.057-0.168-0.206-0.31-0.45-0.337
		c-4.448-0.484-9.393-0.296-13.757,0.743c-0.053,0.013-0.074,0.051-0.111,0.077c-0.208-0.041-0.445,0.077-0.468,0.363
		c-0.345,4.177-0.516,8.651-0.226,12.833c0.019,0.275,0.173,0.447,0.362,0.523c0.031,0.172,0.16,0.333,0.365,0.334
		c4.402,0.015,9.148,0.484,13.506-0.088c0.248-0.033,0.424-0.228,0.476-0.438c0.163-0.012,0.316-0.12,0.308-0.322
		C31.921,9.769,32.238,5.449,32.441,0.956z M18.249,14.289c0.001-0.007,0.004-0.011,0.005-0.018
		c0.299-4.085,0.158-8.447-0.156-12.545c4.405,0.238,9.078-0.004,13.463-0.474c-0.144,0.428-0.264,0.866-0.372,1.309
		c-1.931-0.43-3.965-0.407-5.904-0.08c-0.149,0.025-0.116,0.285,0.036,0.266c1.981-0.255,3.84-0.116,5.78,0.212
		c-0.085,0.386-0.166,0.773-0.23,1.165c-0.026-0.016-0.051-0.034-0.087-0.031C28.66,4.25,26.609,4.43,24.474,4.362
		c-0.179-0.006-0.172,0.257,0,0.274c2.069,0.204,4.3,0.224,6.346-0.186c-0.079,0.548-0.146,1.099-0.185,1.655
		c-3.385-0.139-6.799,0.048-10.186,0.062c-0.138,0.001-0.138,0.214,0,0.214c3.377,0.014,6.781,0.199,10.156,0.063
		c-0.039,0.69-0.054,1.382-0.033,2.074c-1.677-0.133-3.377-0.11-5.056-0.219c-0.175-0.011-0.171,0.255,0,0.271
		c1.669,0.154,3.391,0.358,5.074,0.323c0.03,0.641,0.076,1.28,0.154,1.912c-2.549-0.139-5.123-0.026-7.677-0.176
		c-0.105-0.006-0.103,0.153,0,0.162c2.525,0.215,5.174,0.489,7.719,0.312c0.051,0.377,0.104,0.754,0.171,1.125
		c-3.152-0.043-6.308,0.014-9.46,0.045c-0.158,0.001-0.159,0.244,0,0.246c3.172,0.031,6.346,0.089,9.518,0.045
		c0.097,0.498,0.206,0.991,0.331,1.473C27.232,13.045,22.426,13.575,18.249,14.289z"/>
	<path style="fill:#1D1D1B;" d="M48.404,0.692C44.047-0.43,39.607,0.968,35.2,0.575c-0.293-0.026-0.468,0.147-0.533,0.367
		c-0.13,0.059-0.233,0.177-0.238,0.341c-0.119,4.358,0.078,8.797,0.216,13.156c0.015,0.471,0.434,0.653,0.778,0.562
		c1.48,0.58,3.47,0.382,4.947,0.342c2.609-0.069,5.155-0.714,7.764-0.546c0.034,0.002,0.06-0.008,0.091-0.011
		c0.253,0.209,0.721,0.087,0.768-0.346c0.474-4.465,0.566-9.015,0.53-13.503C49.516,0.264,48.652,0.193,48.404,0.692z M48.108,5.243
		c-0.009-0.001-0.013-0.009-0.023-0.009c-3.605,0-7.246,0.361-10.843,0.603c-0.136,0.009-0.139,0.219,0,0.214
		c3.601-0.119,7.258-0.124,10.843-0.483c0.005,0,0.007-0.005,0.012-0.006c-0.028,0.686-0.057,1.371-0.075,2.057
		c-0.028-0.023-0.06-0.044-0.108-0.042c-2.853,0.111-5.733,0.209-8.576,0.472c-0.137,0.013-0.143,0.218,0,0.218
		c2.853-0.002,5.727-0.173,8.576-0.328c0.045-0.002,0.074-0.026,0.102-0.049c-0.044,1.934-0.043,3.868,0.028,5.793
		c-2.032-0.559-4.158,0.073-6.226,0.231c-1.92,0.146-3.986,0.336-5.94,0.288c0.179-4.054,0.071-8.306-0.573-12.328
		c1.433,0.587,3.862,0.041,5.244-0.05c2.623-0.171,5.129-0.207,7.739-0.013C48.216,2.951,48.157,4.097,48.108,5.243z"/>
	<path style="fill:#1D1D1B;" d="M31.803,18.093c-0.118-0.407-0.803-0.349-0.767,0.104c0.002,0.025,0.002,0.05,0.004,0.075
		c-4.116-0.668-8.6-0.571-12.765-0.442c-0.29-0.158-0.781,0.017-0.763,0.422c0.198,4.378-0.792,9.051,0.377,13.33
		c0.024,0.088,0.075,0.149,0.139,0.185c0.038,0.072,0.094,0.133,0.186,0.152c4.029,0.844,8.831,0.537,12.92,0.286
		c0.386-0.024,0.58-0.312,0.58-0.601c0.075-0.082,0.136-0.182,0.152-0.315C32.387,26.907,33.058,22.415,31.803,18.093z
		 M22.199,25.126c2.98,0.007,6.038-0.041,8.998-0.471c-0.015,0.67-0.037,1.34-0.07,2.011c-1.867,0.03-3.729,0.29-5.605,0.283
		c-0.181-0.001-0.181,0.276,0,0.281c1.819,0.054,3.781,0.128,5.585-0.213c-0.027,0.51-0.052,1.019-0.089,1.53
		c-3.231,0.046-6.462,0.134-9.693,0.228c-0.147,0.004-0.148,0.229,0,0.228c3.219-0.001,6.439-0.009,9.658-0.058
		c-0.054,0.679-0.104,1.357-0.176,2.039c-3.916-0.24-8.426-0.494-12.281,0.252c0.038-4.153,0.546-8.456,0.012-12.586
		c4.087,0.443,8.476,0.877,12.55,0.514c0.031,0.482,0.037,0.961,0.055,1.441c-2.479-0.389-5.056-0.403-7.545-0.261
		c-0.137,0.008-0.139,0.217,0,0.214c2.558-0.051,5.033,0.195,7.56,0.458c0.01,0.336,0.033,0.674,0.038,1.01
		c-2.945,0.187-5.886,0.458-8.827,0.695c-0.127,0.01-0.13,0.207,0,0.2c2.942-0.153,5.889-0.273,8.828-0.477
		c0.006,0.612,0.013,1.224,0.003,1.835c-3.005,0.217-5.981,0.539-9.002,0.598C22.038,24.879,22.038,25.125,22.199,25.126z"/>
	<path style="fill:#1D1D1B;" d="M31.859,35.494c-0.018-0.049-0.047-0.089-0.082-0.122c0.116-0.21,0.065-0.528-0.211-0.567
		c-4.471-0.633-9.419,0.093-13.931,0.208c-0.236,0.006-0.365,0.162-0.398,0.337c-0.769,0.865-0.488,2.756-0.536,3.733
		c-0.152,3.092-0.33,6.249-0.175,9.341c0.001,0.027,0.013,0.045,0.016,0.07c0,0.001-0.001,0.001-0.001,0.002
		c-0.128,0.244-0.041,0.477,0.167,0.636c1.318,1.014,3.928,0.314,5.455,0.238c2.99-0.15,5.984-0.33,8.967-0.582
		c0.015-0.001,0.025-0.009,0.04-0.011c0.155,0.306,0.648,0.23,0.655-0.146C31.904,44.383,33.329,39.588,31.859,35.494z
		 M31.111,39.612c-2.738,0.127-5.487,0.526-8.214,0.8c-0.169,0.017-0.172,0.282,0,0.267c2.72-0.241,5.482-0.369,8.186-0.751
		c-0.064,0.691-0.133,1.384-0.199,2.075c-3.063,0.075-6.165,0.278-9.21,0.57c-0.128,0.012-0.134,0.206,0,0.204
		c3.046-0.041,6.138-0.185,9.179-0.443c-0.043,0.474-0.083,0.948-0.109,1.42c-2.142-0.048-4.306,0.118-6.447,0.203
		c-0.149,0.006-0.15,0.234,0,0.232c2.137-0.032,4.301,0.015,6.433-0.148c-0.017,0.351-0.029,0.701-0.03,1.05
		c-2.773,0.128-5.621,0.78-8.349,1.198c-0.134,0.02-0.104,0.254,0.032,0.238c2.726-0.321,5.627-0.45,8.322-1.056
		c0.013,0.698,0.052,1.392,0.167,2.074c-2.344,0.09-4.687,0.233-7.028,0.379c-0.843,0.053-4.666,0.767-6.174,0.518
		c0.001-0.007,0.005-0.012,0.005-0.019c0.202-2.235,0.164-4.503,0.187-6.746c0.011-1.072-0.503-4.478-0.098-5.804
		c4.296,0.177,9.197,0.657,13.434-0.256c0.053,0.644,0.06,1.295,0.041,1.95c-2.405-0.04-4.916,0.172-7.291,0.422
		c-0.145,0.015-0.153,0.23,0,0.232c2.378,0.036,4.888,0.019,7.272-0.235C31.195,38.527,31.158,39.069,31.111,39.612z"/>
	<path style="fill:#1D1D1B;" d="M47.733,11.297c-2.977,0.065-6.217,0.319-9.11,1.064c-0.107,0.028-0.088,0.204,0.027,0.197
		c3.021-0.185,6.065-0.607,9.083-0.885C47.97,11.651,47.979,11.292,47.733,11.297z"/>
	<path style="fill:#1D1D1B;" d="M47.739,9.507c-2.488-0.029-5.046,0.418-7.522,0.664c-0.195,0.019-0.2,0.326,0,0.309
		c2.493-0.207,5.102-0.231,7.558-0.711C47.926,9.74,47.886,9.509,47.739,9.507z"/>
	<path style="fill:#1D1D1B;" d="M47.782,3.476c-1.575-0.372-3.398-0.27-4.986-0.031c-0.133,0.02-0.102,0.242,0.032,0.235
		c1.666-0.089,3.253,0.074,4.909,0.138C47.931,3.826,47.974,3.522,47.782,3.476z"/>
</g>
<g>
</g>
<g>
</g>
<g>
</g>
<g>
</g>
<g>
</g>
<g>
</g>
<g>
</g>
<g>
</g>
<g>
</g>
<g>
</g>
<g>
</g>
<g>
</g>
<g>
</g>
<g>
</g>
<g>
</g>
</svg>
