<?xml version="1.0" encoding="iso-8859-1"?>
<!-- Generator: Adobe Illustrator 18.0.0, SVG Export Plug-In . SVG Version: 6.00 Build 0)  -->
<!DOCTYPE svg PUBLIC "-//W3C//DTD SVG 1.1//EN" "http://www.w3.org/Graphics/SVG/1.1/DTD/svg11.dtd">
<svg version="1.1" id="Capa_1" xmlns="http://www.w3.org/2000/svg" xmlns:xlink="http://www.w3.org/1999/xlink" x="0px" y="0px"
	 viewBox="0 0 49.202 49.202" style="enable-background:new 0 0 49.202 49.202;" xml:space="preserve">
<g>
	<path style="fill:#1D1D1B;" d="M9.151,7.779C8.845,5.819,6.833,4.18,4.923,4.517c-2.374-0.81-4.506,1.257-4.865,3.617
		c-0.443,2.911,1.718,4.736,4.52,4.658C7.198,12.719,9.58,10.525,9.151,7.779z M3.019,8.689C4.57,8.731,6.182,8.884,7.752,8.846
		c-0.075,0.449-0.246,0.857-0.505,1.205c-1.345-0.054-2.71,0.021-4.054,0.047c-0.177,0.003-0.177,0.271,0,0.274
		c1.232,0.024,2.48,0.088,3.716,0.057c-0.657,0.629-1.598,0.997-2.564,0.987C0.46,11.374,0.82,7.033,3.4,5.62
		c0.018,0.312,0.255,0.592,0.65,0.464c1.355-0.437,2.782-0.185,3.413,0.978C6.509,7,5.547,6.984,4.593,6.947
		c-0.143-0.005-0.141,0.212,0,0.221c1.006,0.07,2.02,0.168,3.03,0.203c0.075,0.206,0.129,0.434,0.158,0.686
		C7.798,8.2,7.793,8.335,7.789,8.47C6.211,8.38,4.583,8.482,3.019,8.475C2.881,8.474,2.881,8.686,3.019,8.689z"/>
	<path style="fill:#1D1D1B;" d="M45.726,15.026c-2.663-0.663-5.968-0.155-8.697-0.167c-2.805-0.012-5.591-0.029-8.388,0.163
		c0.655-2.932,1.292-7.415-0.847-9.798c0.024-0.179-0.036-0.377-0.195-0.477c-6.122-3.867-6.341,6.376-5.896,10.402
		c-3.483-0.529-8.857-1.367-11.224,1.675c-1.325,1.702-0.804,4.435,0.983,5.332c0.04,0.123,0.129,0.224,0.289,0.249
		c3.06,0.472,6.635,0.664,9.711-0.062c-1.554,5.845,2.361,16.903-7.461,16.813c-2.151-0.02-5.414-2.259-6.031-4.338
		c-0.39-1.315-0.183-2.92-0.129-4.291c0.125-3.157,0.362-6.281,0.327-9.435c0.738-2.178-0.531-5.228-2.75-5.929
		c-1.066-0.337-2.183-0.064-2.978,0.724c-0.651,0.646-0.874,1.364-0.969,2.146c-0.014,0.024-0.039,0.036-0.044,0.069
		c-0.957,6.391-1.934,14.339-0.802,20.732c0.64,3.616,3.396,5.091,6.802,5.847c0.024,0.005,0.043,0,0.065,0.003
		c5.579,1.539,12.791,0.204,17.117-3.58c5.332-4.664,2.929-12.69,4.663-18.774c0.014-0.051,0.011-0.096,0.011-0.141
		c5.287,0.199,10.968,0.494,16.19-0.178c1.693-0.218,3.291-0.945,3.462-2.458c0.073-0.051,0.131-0.123,0.154-0.217
		C49.668,16.952,47.927,15.574,45.726,15.026z M47.281,19.501c-8.236,0.627-16.405,1.037-24.674,1.096
		c-0.156,0.001-0.156,0.237,0,0.243c8.017,0.293,16.155,0.024,24.137-0.899c-2.165,1.398-6.818,0.801-8.687,0.86
		c-3.128,0.098-6.247,0.249-9.365,0.524c-0.372,0.033-0.487,0.416-0.34,0.654c-0.015,0.03-0.035,0.052-0.045,0.087
		c-0.348,1.196-0.506,2.442-0.593,3.706c-1.054,0.001-2.142,0.112-3.183,0.219c-0.207,0.021-0.217,0.333,0,0.33
		c1.037-0.01,2.114-0.035,3.154-0.148c-0.033,0.6-0.057,1.203-0.069,1.808c-0.984-0.151-2.119-0.122-3.084-0.061
		c-0.169,0.01-0.16,0.235,0,0.257c0.959,0.128,2.09,0.242,3.077,0.158c-0.011,0.612-0.018,1.225-0.033,1.836
		c-1.128-0.124-2.322,0.039-3.435,0.214c-0.17,0.027-0.132,0.326,0.041,0.304c1.132-0.142,2.252-0.104,3.384-0.162
		c-0.017,0.571-0.039,1.141-0.081,1.705c-0.006-0.056-0.032-0.107-0.112-0.118c-0.845-0.122-1.728-0.051-2.58-0.03
		c-0.461,0.011-1.287-0.152-1.636,0.214c-0.048,0.05-0.056,0.122-0.024,0.183c0.058,0.111,0.087,0.129,0.208,0.159
		c0.06,0.015,0.117-0.011,0.15-0.061c0.012-0.018,0.023-0.036,0.035-0.054c0.027-0.042,0.017-0.083-0.004-0.119
		c0.222,0.026,0.56,0.054,0.637,0.054c0.37,0.003,0.74,0.008,1.109,0.012c0.682,0.007,1.383,0.062,2.06-0.026
		c0.075-0.01,0.129-0.074,0.152-0.142c-0.046,0.588-0.106,1.173-0.2,1.747c-0.903-0.088-1.848-0.01-2.75,0.012
		c-0.174,0.004-0.174,0.266,0,0.271c0.885,0.022,1.812,0.097,2.7,0.016c-0.114,0.62-0.263,1.229-0.464,1.825
		c-0.915-0.185-2.01-0.009-2.935,0.012c-0.142,0.003-0.143,0.218,0,0.221c0.895,0.02,1.945,0.178,2.84,0.023
		c-0.207,0.567-0.455,1.123-0.769,1.66c-0.208,0.356-0.437,0.684-0.676,1.001c-1.558-0.068-3.163,0.169-4.718,0.28
		c-0.107,0.008-0.11,0.173,0,0.169c1.495-0.055,3.046-0.01,4.532-0.21c-1.182,1.473-2.688,2.516-4.38,3.241
		c-2.555,0.199-5.117,0.593-7.672,0.844c-0.11,0.011-0.115,0.174,0,0.176c1.85,0.036,3.836-0.043,5.73-0.338
		c-3.539,0.988-7.575,0.924-11.036,0.647c-0.013-0.006-0.02-0.015-0.034-0.021c-6.32-2.443-6.151-6.801-6.072-12.502
		c0.059-4.31,0.345-8.613,0.364-12.922c0.641-1.408,1.689-2.887,3.377-2.311C6.321,16.487,6.95,17.32,7.23,18.3
		c-0.994-0.258-2.161-0.179-3.162-0.114c-0.121,0.008-0.123,0.191,0,0.19c1.085-0.01,2.158,0.213,3.232,0.22
		c0.008,0.038,0.02,0.075,0.027,0.113c0.103,0.563,0.061,1.125,0.049,1.686c-1.014-0.208-2.12-0.24-3.123-0.359
		c-0.113-0.014-0.141,0.181-0.027,0.2c1.013,0.168,2.1,0.451,3.146,0.529c0.005,0.218,0.019,0.436,0.058,0.653
		c0,0,0.001,0,0.001,0.001c-0.062,0.423-0.122,0.851-0.181,1.28c-0.012-0.004-0.018-0.014-0.032-0.015
		c-1.028-0.105-2.115,0.013-3.148,0.033c-0.142,0.003-0.143,0.219,0,0.221c1.031,0.021,2.116,0.137,3.142,0.034
		c-0.218,1.619-0.399,3.274-0.502,4.922c-1.342-0.052-2.703,0.028-4.039,0.05c-0.168,0.003-0.168,0.257,0,0.26
		c1.328,0.022,2.682,0.102,4.016,0.051c-0.028,0.506-0.047,1.01-0.058,1.513c-0.674-0.059-1.363-0.052-2.032-0.082
		c-0.135-0.006-0.131,0.196,0,0.208c0.669,0.06,1.353,0.16,2.031,0.19c-0.008,0.631,0,1.258,0.024,1.879
		C5.847,31.95,5.042,31.97,4.242,31.98c-0.151,0.002-0.152,0.234,0,0.236c0.805,0.01,1.615,0.031,2.422,0.017
		c0.029,0.599,0.07,1.193,0.137,1.776c0.04,0.345,0.105,0.672,0.173,0.996c-1.134-0.136-2.3-0.155-3.43-0.233
		c-0.13-0.009-0.126,0.188,0,0.2c1.151,0.118,2.329,0.303,3.494,0.355c0.152,0.623,0.369,1.193,0.635,1.719
		c-0.91-0.057-1.827-0.041-2.732,0.01c-0.148,0.008-0.15,0.236,0,0.232c0.982-0.022,1.951,0.039,2.923,0.11
		c0.951,1.626,2.518,2.688,4.836,2.88c3.031,0.25,6.632-0.919,8.354-3.529c2.762-4.186,0.212-9.652,1.501-14.215
		c0.079-0.281-0.056-0.491-0.254-0.6c0.01-0.156-0.084-0.321-0.279-0.334c-3.284-0.228-6.661,0.006-9.966-0.064
		c-0.918-0.728-1.582-1.725-1.235-3.078c0.52-2.024,2.946-2.504,4.639-2.59c2.237-0.114,4.505,0.203,6.737,0.318
		c0.513,0.026,0.652-0.798,0.173-0.925c0.14-2.081,0.285-4.18,0.603-6.238c0.202-1.308,0.327-3.5,2.164-3.762
		c0.566-0.081,1.24,0.131,1.854,0.254c0.167,0.383,0.298,0.773,0.408,1.168c-0.882-0.206-1.794-0.347-2.695-0.4
		c-0.111-0.006-0.139,0.181-0.027,0.197c0.937,0.132,1.859,0.298,2.786,0.48c0.084,0.339,0.162,0.68,0.215,1.026
		c-0.86-0.068-1.783,0.008-2.625,0.053c-0.124,0.007-0.124,0.187,0,0.193c0.857,0.046,1.798,0.124,2.669,0.05
		c0.058,0.448,0.1,0.899,0.114,1.354c-1.292-0.129-2.752,0.075-4.013,0.188c-0.159,0.014-0.166,0.253,0,0.253
		c1.265,0.002,2.743,0.079,4.018-0.163c0.009,0.648-0.016,1.3-0.07,1.952c-0.952-0.124-1.98-0.054-2.893,0.017
		c-0.138,0.011-0.142,0.224,0,0.218c0.966-0.041,1.907,0.081,2.856,0.145c-0.059,0.609-0.132,1.216-0.218,1.816
		c-1.222,0.005-2.419,0.043-3.652-0.123c-0.149-0.02-0.217,0.207-0.064,0.231c1.186,0.182,2.454,0.31,3.671,0.194
		c-0.038,0.261-0.076,0.524-0.116,0.782c-0.03,0.195,0.023,0.362,0.12,0.491c0.045,0.162,0.177,0.301,0.406,0.32
		c2.959,0.237,12.216-0.899,17.18,0.619c-5.738,0.143-11.484,0.31-17.213,0.644c-0.123,0.007-0.125,0.194,0,0.193
		c6.096-0.012,12.199-0.213,18.291-0.432c0.678,0.314,1.228,0.702,1.599,1.185c-8.377,0.284-16.771,0.683-25.133,1.263
		c-0.116,0.008-0.119,0.186,0,0.183c8.396-0.199,16.806-0.582,25.189-1.079l0.001-0.001C47.701,18.908,47.529,19.233,47.281,19.501z
		"/>
	<path style="fill:#1D1D1B;" d="M40.645,4.074c-0.137,0.008-0.229,0.079-0.292,0.168c-1.681-0.376-3.552,1.18-3.938,2.775
		c-0.503,2.08,0.915,4.357,3.008,4.782c2.121,0.431,4.331-0.935,4.727-3.092C44.528,6.644,42.97,3.941,40.645,4.074z M42.822,7.953
		c-1.136-0.097-2.284-0.112-3.422-0.16c-0.179-0.008-0.177,0.266,0,0.278c1.131,0.071,2.268,0.176,3.402,0.199
		c-0.064,0.473-0.252,0.898-0.531,1.249c-0.007-0.031-0.017-0.064-0.051-0.069c-1.086-0.157-2.253-0.028-3.347,0.002
		c-0.106,0.003-0.106,0.162,0,0.165c1.079,0.029,2.228,0.154,3.301,0.006c-0.553,0.622-1.395,0.977-2.312,0.854
		c-1.512-0.204-2.48-1.807-2.106-3.265c0.37-1.442,1.639-1.863,2.895-2.194c0.697,0.667,1.561,1.038,1.958,1.872
		c-1.224-0.198-2.504-0.217-3.734-0.314c-0.18-0.014-0.175,0.259,0,0.278c1.271,0.139,2.581,0.377,3.862,0.392
		c0.049,0.181,0.084,0.378,0.09,0.604C42.829,7.886,42.822,7.918,42.822,7.953z"/>
	<path style="fill:#1D1D1B;" d="M47.079,40.293c0.064-0.132,0.037-0.302-0.147-0.358c-2.669-0.805-5.241-0.254-7.021-3.019
		c-1.448-2.25-1.34-4.891-1.4-7.433c-0.054-2.283-0.684-4.445-3.153-4.949c-0.057-0.012-0.108-0.005-0.159-0.001
		c-0.001,0-0.002-0.001-0.003-0.001c-0.004,0-0.007,0.001-0.011,0.001c-0.022,0.003-0.046,0.001-0.066,0.006
		c-5.422,0.035-4.008,8.878-3.373,12.358c0.432,2.366,1.332,5.201,3.468,6.597c2.438,1.594,6.181,1.509,8.979,1.73
		c0.242,0.019,0.395-0.098,0.475-0.259c1.566,0.155,3.525-0.109,3.86-1.82C48.754,41.992,48.054,40.906,47.079,40.293z
		 M38.349,42.899c3.079,0.08,6.191,0.162,9.27,0.003c-0.008,0.038-0.004,0.069-0.015,0.109c-0.272,1.022-1.843,1.202-3.001,1.306
		c-0.09-0.118-0.226-0.205-0.41-0.221c-5.034-0.436-9.596-0.553-11.071-6.217c-0.772-2.965-1.756-10.573,1.653-12.563
		c0.058,0.101,0.156,0.183,0.309,0.215c1.466,0.312,2.065,1.287,2.306,2.47c-1.301-0.142-2.639-0.139-3.941-0.205
		c-0.18-0.009-0.177,0.265,0,0.278c1.322,0.097,2.674,0.273,4.004,0.285c0.052,0.361,0.082,0.734,0.091,1.112
		c-1.055-0.051-2.185-0.072-3.218,0.062c-0.151,0.02-0.151,0.216,0,0.236c1.035,0.134,2.166,0.113,3.223,0.062
		c0.001,0.338-0.005,0.675-0.011,1.004c-1.255-0.022-2.43,0.077-3.694-0.122c-0.164-0.026-0.239,0.22-0.07,0.254
		c1.176,0.235,2.566,0.403,3.759,0.138c-0.009,0.528-0.009,1.027,0.039,1.459c0.006,0.049,0.016,0.097,0.022,0.146
		c-1.435-0.018-2.889,0.092-4.317,0.171c-0.161,0.009-0.164,0.256,0,0.253c1.444-0.023,2.916-0.017,4.36-0.141
		c0.08,0.545,0.186,1.085,0.332,1.613c-0.748-0.007-1.499,0.016-2.245,0.024c-0.12,0.001-0.12,0.185,0,0.186
		c0.77,0.008,1.545,0.033,2.316,0.024c0.186,0.627,0.411,1.241,0.684,1.837c-1.346-0.048-2.709,0.021-4.049,0.029
		c-0.149,0.001-0.15,0.231,0,0.232c1.387,0.008,2.801,0.081,4.193,0.022c0.144,0.297,0.285,0.594,0.448,0.881
		c0.148,0.259,0.31,0.486,0.478,0.7c-1.285-0.123-2.619-0.086-3.894-0.116c-0.169-0.004-0.166,0.249,0,0.26
		c1.386,0.091,2.837,0.277,4.232,0.228c0.516,0.536,1.096,0.922,1.738,1.172c-1.472,0.014-2.945,0.081-4.396,0.152
		c-0.13,0.006-0.132,0.205,0,0.204c2.758-0.026,5.513,0.139,8.268,0.154c0.363,0.177,0.747,0.365,1.077,0.593
		c-1.984-0.083-4.058,0.125-6.021,0.259c-0.172,0.012-0.176,0.27,0,0.271c2.113,0.015,4.358,0.112,6.462-0.149
		c0.257,0.284,0.42,0.626,0.395,1.068c-3.091-0.162-6.215-0.079-9.306,0.001C38.179,42.64,38.179,42.895,38.349,42.899z"/>
	<path style="fill:#1D1D1B;" d="M6.69,25.661c-0.827-0.039-1.597,0.052-2.427-0.106c-0.123-0.023-0.177,0.16-0.052,0.19
		c0.774,0.188,1.728,0.367,2.514,0.172C6.871,25.88,6.833,25.668,6.69,25.661z"/>
	<path style="fill:#1D1D1B;" d="M22.432,41.142c-5.365,0.089-10.729,0.129-16.09,0.349c-0.135,0.005-0.136,0.21,0,0.211
		c5.365,0.05,10.727-0.081,16.09-0.162C22.687,41.535,22.688,41.137,22.432,41.142z"/>
	<path style="fill:#1D1D1B;" d="M27.723,23.896c-1.117-0.352-2.382-0.386-3.542-0.339c-0.18,0.007-0.182,0.283,0,0.281
		c1.185-0.014,2.287,0.206,3.445,0.41C27.855,24.288,27.951,23.967,27.723,23.896z"/>
</g>
<g>
</g>
<g>
</g>
<g>
</g>
<g>
</g>
<g>
</g>
<g>
</g>
<g>
</g>
<g>
</g>
<g>
</g>
<g>
</g>
<g>
</g>
<g>
</g>
<g>
</g>
<g>
</g>
<g>
</g>
</svg>
