<?xml version="1.0" encoding="iso-8859-1"?>
<!-- Generator: Adobe Illustrator 18.0.0, SVG Export Plug-In . SVG Version: 6.00 Build 0)  -->
<!DOCTYPE svg PUBLIC "-//W3C//DTD SVG 1.1//EN" "http://www.w3.org/Graphics/SVG/1.1/DTD/svg11.dtd">
<svg version="1.1" id="Capa_1" xmlns="http://www.w3.org/2000/svg" xmlns:xlink="http://www.w3.org/1999/xlink" x="0px" y="0px"
	 viewBox="0 0 50.224 50.224" style="enable-background:new 0 0 50.224 50.224;" xml:space="preserve">
<g>
	<path style="fill:#1D1D1B;" d="M22.053,25.901c-5.8-7.162-10.217-15.092-17.123-21.341C4.869,4.45,4.818,4.333,4.755,4.225
		C4.589,3.937,4.092,4.127,4.206,4.456C5.974,9.586,6.682,15.387,9.208,20.21c0.002,0.097,0.042,0.193,0.144,0.249
		c0.002,0.001,0.004,0.002,0.006,0.003c0.086,0.099,0.194,0.151,0.312,0.163c1.861,1.002,3.747,1.944,5.67,2.822
		c1.848,0.844,3.788,1.489,5.381,2.777c0.129,0.104,0.293,0.122,0.444,0.089c0.082,0.077,0.155,0.162,0.238,0.237
		C21.848,26.956,22.419,26.353,22.053,25.901z M10.292,20.156c0.005-0.062,0-0.127-0.022-0.195C8.847,15.535,7.827,10.69,5.865,6.41
		c2.597,3.28,5.421,6.378,7.868,9.783c1.744,2.427,3.244,5.085,5.07,7.464c-0.678-0.315-1.38-0.588-2.039-0.881
		C14.634,21.827,12.48,20.957,10.292,20.156z"/>
	<path style="fill:#1D1D1B;" d="M48.843,1.204c-0.001-0.06-0.02-0.107-0.034-0.158C49.046,0.624,48.87-0.015,48.242,0
		c-7.666,0.19-15.325,0.53-22.994,0.618c-7.614,0.088-15.417-0.597-23,0.042C2.09,0.674,1.984,0.801,1.937,0.94
		C1.813,0.956,1.695,1.038,1.681,1.207C0.35,16.758,1.317,32.779,1.543,48.374c0.006,0.387,0.288,0.588,0.588,0.619
		c-0.048,0.183,0.037,0.4,0.29,0.419c14.763,1.105,29.853,0.768,44.651,0.753c0.313,0,0.512-0.166,0.617-0.38
		c0.228,0.024,0.482-0.115,0.513-0.418C49.812,33.55,49.125,17.088,48.843,1.204z M47.362,18.645
		c-1.946,0.022-3.91,0.192-5.848,0.338c0.182-0.96,0.386-1.913,0.595-2.865c0.009,0.002,0.013,0.01,0.022,0.011
		c1.716,0.083,3.55,0.209,5.27-0.019C47.389,16.956,47.373,17.798,47.362,18.645z M43.259,7.425
		c-1.267,3.545-2.206,7.19-2.939,10.891c-0.089,0.012-0.181,0.045-0.275,0.104c-3.394,2.163-6.89,4.21-10.235,6.459
		C34.264,19.029,38.726,13.212,43.259,7.425z M47.406,15.759c-1.735-0.063-3.498,0.102-5.237,0.067
		c0.197-0.887,0.404-1.772,0.62-2.654c1.528,0.005,3.144,0.016,4.66-0.217C47.436,13.891,47.419,14.823,47.406,15.759z
		 M47.538,7.157c-0.946-0.048-1.937,0.087-2.84,0.213c-0.208,0.029-0.161,0.395,0.05,0.37c0.932-0.111,1.857-0.076,2.783-0.091
		c-0.011,0.794-0.025,1.585-0.036,2.379c-0.847-0.06-1.719,0.002-2.565,0.012c-0.235,0.003-0.236,0.363,0,0.366
		c0.844,0.01,1.714,0.071,2.559,0.012c-0.01,0.727-0.023,1.452-0.033,2.179c-1.516-0.016-3.069,0.157-4.584,0.255
		c0.627-2.535,1.321-5.052,2.052-7.566c0.035-0.045,0.07-0.09,0.105-0.135c0.135-0.171,0.142-0.362,0.08-0.522
		c0.022-0.085,0.012-0.155-0.011-0.216c0.828-0.027,1.656-0.062,2.484-0.097C47.567,5.263,47.552,6.208,47.538,7.157z M47.607,2.65
		c-1.642-0.099-3.337,0.055-4.953,0.23c-0.203,0.022-0.21,0.34,0,0.323c1.654-0.135,3.297-0.088,4.946-0.12
		c-0.004,0.266-0.008,0.53-0.012,0.796c-3.909-0.069-7.877,0.245-11.751,0.654c-0.154,0.016-0.16,0.256,0,0.246
		c2.837-0.179,5.674-0.254,8.51-0.344c-0.006,0.006-0.013,0.007-0.019,0.013c-0.73,0.719-1.45,1.466-2.165,2.225
		c-1.669-0.098-3.347,0.001-4.984,0.346c-0.16,0.034-0.127,0.312,0.039,0.29c1.523-0.202,3.019-0.272,4.539-0.203
		c-1.131,1.218-2.244,2.476-3.328,3.774c-0.022-0.064-0.069-0.122-0.146-0.124c-1.164-0.029-2.337,0.098-3.497,0.184
		c-0.225,0.017-0.23,0.364,0,0.355c1.156-0.044,2.325-0.055,3.472-0.207c-0.584,0.703-1.163,1.414-1.732,2.135
		c-1.279-0.037-2.562-0.012-3.841,0.003c-0.186,0.002-0.186,0.286,0,0.288c1.202,0.014,2.407,0.033,3.61,0.007
		c-0.477,0.609-0.958,1.214-1.422,1.833c-2.824-0.009-5.669,0.171-8.487,0.295c-0.115,0.005-0.116,0.18,0,0.179
		c2.736-0.024,5.501,0.003,8.238-0.139c-0.438,0.591-0.889,1.173-1.312,1.771c-1.13-0.038-2.307,0.129-3.424,0.199
		c-0.141,0.009-0.143,0.227,0,0.221c1.048-0.041,2.157-0.003,3.215-0.12c-0.422,0.6-0.839,1.203-1.245,1.81
		c-0.015-0.007-0.027-0.019-0.047-0.018c-1.055,0.061-2.132,0.215-3.177,0.373c-0.125,0.019-0.096,0.231,0.03,0.221
		c1.004-0.076,2.033-0.168,3.029-0.329c-0.496,0.747-0.983,1.497-1.453,2.25c-0.979,0.181-1.92,0.282-2.95,0.131
		c-0.141-0.021-0.204,0.193-0.06,0.217c0.899,0.15,1.869,0.189,2.784,0.012c-0.777,1.257-1.529,2.518-2.222,3.782
		c-0.255,0.465,0.388,0.805,0.692,0.404c0.017-0.023,0.035-0.045,0.052-0.068c4.234-1.919,8.219-4.446,12.145-6.92
		c0.305,0.103,0.649,0.007,0.759-0.358c1.963-0.046,3.956-0.068,5.916-0.238c-0.014,1.072-0.037,2.138-0.049,3.21
		c-2.113-0.104-4.291,0.129-6.402,0.211c-0.205,0.008-0.207,0.325,0,0.32c2.11-0.051,4.296,0.042,6.398-0.194
		c-0.009,0.794-0.023,1.587-0.031,2.381c-4.078-0.158-8.259,0.01-12.311,0.432c-0.106,0.011-0.111,0.171,0,0.169
		c4.103-0.092,8.204-0.137,12.306-0.213c-0.007,0.717-0.02,1.433-0.026,2.15c-5.827-0.549-11.957-0.375-17.712,0.564
		c-0.059,0.01-0.045,0.107,0.014,0.104c2.979-0.173,5.921-0.283,8.863-0.333c-4.544,2.295-9.413,4.922-14.535,5.289
		c-5.644,0.404-10.248-2.582-14.818-5.428c-0.245-0.152-0.516,0.193-0.317,0.397c-0.011,0.039-0.027,0.076-0.016,0.123
		c1.781,7.261,6.289,18.221,14.851,19.157c-3.376-0.022-6.751-0.031-10.126,0c-0.113,0.001-0.113,0.171,0,0.176
		c11.261,0.506,22.574,0.415,33.844,0.36c0.006,0.281,0.009,0.564,0.015,0.845c-0.072-0.024-0.144-0.049-0.232-0.05
		c-14.695-0.183-29.651-0.783-44.332,0.034c0.066-0.096,0.114-0.21,0.11-0.359C2.491,32.76,3.303,16.932,2.269,1.358
		C9.469,2.407,17.03,2.012,24.29,2.01c7.778-0.002,15.57-0.091,23.335-0.575C47.618,1.839,47.613,2.245,47.607,2.65z M37.781,37.966
		c3.028,0.034,6.144-0.004,9.129-0.54c0.176-0.032,0.137-0.327-0.042-0.314c-3,0.221-5.961,0.563-8.973,0.618
		c0.736-1.556,1.301-3.194,1.713-4.83c2.551-0.167,5.052-0.094,7.584,0.163c-0.002,0.717-0.01,1.435-0.01,2.152
		c-2.139-0.089-4.321,0.032-6.451,0.078c-0.149,0.003-0.15,0.229,0,0.232c2.13,0.046,4.313,0.167,6.452,0.078
		c0.002,1.738-0.007,3.478,0.008,5.213c-2.962-0.102-5.964,0.149-8.906,0.442c-0.155,0.016-0.159,0.259,0,0.246
		c2.974-0.239,5.935-0.237,8.911-0.319c0.015,1.577,0.033,3.153,0.062,4.728c-2.261-0.302-4.531-0.489-6.814-0.542
		c-1.274-0.03-2.549-0.027-3.823,0.01c-0.371,0.011-4.862,0.104-4.817,0.004c0.026-0.057-0.053-0.106-0.085-0.05
		c-0.084,0.145-0.168,0.291-0.252,0.436c-0.027,0.046,0.007,0.114,0.064,0.111c5.284-0.292,10.481-0.096,15.734,0.43
		c0.008,0.428,0.011,0.857,0.02,1.285c-7.185-0.028-14.375-0.147-21.563-0.209C31.363,46.93,35.389,42.886,37.781,37.966z
		 M21.302,45.345c-6.96-2.718-8.504-10.431-11.633-16.408c3.738,3.264,8.308,5.686,13.388,5.63
		c5.721-0.063,11.369-3.053,16.374-5.631C38.372,37.372,31.424,49.298,21.302,45.345z M40.267,28.302
		c0.053-0.159,0.029-0.331-0.039-0.487c2.325-0.019,4.657-0.001,7.009,0.063c-0.006,0.787-0.022,1.575-0.026,2.362
		c-1.682-0.174-3.398-0.122-5.079-0.028c-0.179,0.01-0.182,0.286,0,0.281c1.698-0.05,3.384,0.05,5.077,0.083
		c-0.004,0.689-0.012,1.379-0.014,2.069c-2.497-0.308-5.024-0.31-7.525-0.031c0.33-1.375,0.565-2.747,0.665-4.064
		C40.342,28.444,40.311,28.366,40.267,28.302z"/>
	<path style="fill:#1D1D1B;" d="M46.856,43.726c-3.178-0.269-6.438-0.1-9.623-0.015c-0.138,0.004-0.138,0.216,0,0.215
		c3.204-0.031,6.423,0.172,9.623,0.082C47.039,44.002,47.035,43.741,46.856,43.726z"/>
	<path style="fill:#1D1D1B;" d="M39.859,8.376c-3.52-0.068-7.134,0.157-10.643,0.447c-0.087,0.007-0.118,0.14-0.022,0.161
		c0.165,0.036,0.33,0.073,0.494,0.11c0.081,0.018,0.115-0.102,0.035-0.125c1.351,0.397,3.433-0.02,4.814-0.053
		c1.772-0.042,3.555-0.037,5.321-0.188C40.082,8.709,40.089,8.38,39.859,8.376z"/>
</g>
<g>
</g>
<g>
</g>
<g>
</g>
<g>
</g>
<g>
</g>
<g>
</g>
<g>
</g>
<g>
</g>
<g>
</g>
<g>
</g>
<g>
</g>
<g>
</g>
<g>
</g>
<g>
</g>
<g>
</g>
</svg>
