<?xml version="1.0" encoding="iso-8859-1"?>
<!-- Generator: Adobe Illustrator 18.0.0, SVG Export Plug-In . SVG Version: 6.00 Build 0)  -->
<!DOCTYPE svg PUBLIC "-//W3C//DTD SVG 1.1//EN" "http://www.w3.org/Graphics/SVG/1.1/DTD/svg11.dtd">
<svg version="1.1" id="Capa_1" xmlns="http://www.w3.org/2000/svg" xmlns:xlink="http://www.w3.org/1999/xlink" x="0px" y="0px"
	 viewBox="0 0 48.898 48.898" style="enable-background:new 0 0 48.898 48.898;" xml:space="preserve">
<g>
	<path style="fill:#1D1D1B;" d="M44.074,3.995c0.071-0.286-0.033-0.596-0.401-0.649c-3.749-0.541-7.607,0.795-10.553,3.116
		c-1.784,1.405-5.863,5.524-4.927,8.084c0.086,0.235,0.276,0.329,0.519,0.294c0.065-0.009,0.13-0.019,0.195-0.028
		c0.023-0.003,0.034-0.019,0.053-0.027c0.047,0.133,0.16,0.24,0.341,0.238c0.654,0.006,1.308-0.012,1.961-0.054
		c2.375,1.112,3.233,2.74,2.574,4.883c-0.237,1.312-0.759,2.559-1.391,3.725c-0.926,1.709-2.6,4.979-4.435,6.029
		c-4.752-0.839-5.809-11.332-6.463-15.116c-0.548-3.171-1.156-6.039-2.898-8.625c0.1-0.228,0.064-0.528-0.186-0.686
		c-0.183-0.116-0.369-0.219-0.556-0.313c-0.009-0.011-0.015-0.022-0.024-0.033c-0.085-0.103-0.191-0.127-0.291-0.108
		C11.47,2.059,3.448,10.222,0.094,14.447c-0.124,0.156-0.088,0.326,0.016,0.423c-0.031,0.046-0.075,0.079-0.091,0.138
		c-0.095,0.355,0.206,0.687,0.391,0.951c0.261,0.374,0.538,0.737,0.809,1.104c0.241,0.328,0.424,0.719,0.85,0.798
		c0.238,0.044,0.418-0.098,0.441-0.336c0.049-0.506-0.472-0.955-0.764-1.333c-0.159-0.207-0.317-0.416-0.478-0.621
		c-0.063-0.08-0.285-0.281-0.397-0.433c0.013-0.043,0.025-0.087,0.009-0.134c-0.023-0.068-0.049-0.13-0.081-0.194
		c-0.02-0.04-0.057-0.066-0.092-0.092c4.631-3.75,10.599-10.554,16.989-8.68c0.324,0.664,0.609,1.339,0.866,2.023
		c-1.304-0.019-2.613,0.093-3.901,0.266c-0.106,0.014-0.082,0.201,0.025,0.189c1.33-0.159,2.645-0.193,3.973-0.184
		c0.225,0.617,0.432,1.24,0.62,1.869c-1.314-0.106-2.643-0.124-3.958-0.179c-0.118-0.005-0.117,0.177,0,0.184
		c1.335,0.071,2.681,0.191,4.02,0.207c0.256,0.873,0.491,1.752,0.697,2.64c-0.865,0.03-1.731,0.102-2.594,0.161
		c-0.462,0.032-1.22-0.099-1.568,0.267c-0.017,0.018-0.025,0.044-0.018,0.068c0.042,0.13,0.031,0.124,0.159,0.183
		c0.027,0.012,0.053,0.01,0.075-0.01c0.02-0.018,0.041-0.036,0.061-0.055c0.058-0.052-0.026-0.133-0.085-0.085
		c0.433-0.355,1.699-0.18,2.24-0.207c0.593-0.03,1.187-0.055,1.779-0.104c0.137,0.598,0.268,1.199,0.394,1.801
		c-1.676,0.245-3.248,0.337-4.943,0.199c-0.075-0.006-0.093,0.12-0.018,0.133c1.628,0.276,3.386,0.249,4.999-0.144
		c0.368,1.777,0.709,3.564,1.126,5.333c-0.844,0.055-1.689,0.143-2.53,0.224c-0.077,0.007-0.079,0.128,0,0.122
		c0.854-0.056,1.713-0.106,2.566-0.19c0.218,0.911,0.45,1.818,0.726,2.714c-0.884,0.13-1.756,0.179-2.658,0.099
		c-0.052-0.005-0.051,0.075,0,0.08c0.898,0.089,1.801,0.072,2.689-0.075c0.013,0.041,0.024,0.083,0.037,0.125
		c0.309,0.979,0.608,2.036,0.99,3.02c-0.901-0.07-1.8,0.001-2.685,0.191c-0.061,0.013-0.035,0.106,0.026,0.094
		c0.905-0.182,1.799-0.216,2.712-0.153c0.771,1.928,1.889,3.541,4.106,3.653c0.021,0.003,0.031,0.02,0.054,0.02
		c0.059,0,0.11-0.015,0.168-0.018c0.107,0.001,0.208,0.01,0.321,0.003c0.11-0.006,0.191-0.045,0.257-0.095
		c1.278-0.361,2.048-1.62,2.871-2.722c1.674-2.241,3.14-4.738,3.658-7.524c0.276-1.483,0.542-4.045-0.582-5.276
		c-1.142-1.252-3.764-1.036-5.17-0.605c-0.053,0.016-0.097,0.042-0.133,0.073c-0.009-0.016-0.013-0.036-0.025-0.049
		c-0.253-0.292,1.233-2.73,1.502-3.163c0.903-1.448,2.033-2.715,3.389-3.751c2.799-2.138,5.917-2.648,9.322-2.863
		c1.378,0.65,2.383,1.511,3.099,2.516c-2.261-0.047-4.528-0.009-6.788-0.015c-0.121,0-0.121,0.186,0,0.188
		c2.318,0.031,4.644,0.106,6.964,0.09c0.528,0.818,0.883,1.72,1.075,2.69c-3.037,0.232-6.031,0.399-9.09,0.225
		c-0.09-0.005-0.089,0.133,0,0.139c3.028,0.213,6.113,0.237,9.133-0.149c0.438,2.536-0.128,5.477-1.174,8.348
		c-2.02,0.044-4.048,0.225-6.063,0.357c-0.119,0.008-0.122,0.193,0,0.188c1.985-0.084,3.988-0.123,5.97-0.288
		c-0.826,2.206-1.921,4.361-3.039,6.244c-1.27,0.142-2.532,0.308-3.811,0.365c-0.581,0.026-1.162,0.037-1.744,0.035
		c-0.1,0-0.565,0.023-0.911,0.048c-0.004-0.026-0.017-0.054-0.052-0.055c-0.26-0.007-0.52-0.019-0.78-0.035
		c-0.099-0.005-0.097,0.145,0,0.153c2.364,0.183,4.807,0.134,7.153-0.271c-0.812,1.349-1.63,2.553-2.359,3.522
		c-0.609,0.809-1.219,1.592-1.833,2.358c-2.213,0.272-4.372,0.463-6.607,0.357c-0.097-0.005-0.096,0.143,0,0.15
		c2.134,0.143,4.315,0.106,6.427-0.278c-0.654,0.812-1.314,1.6-1.985,2.362c-1.978,0.323-3.882,0.429-5.908,0.14
		c-0.065-0.009-0.094,0.088-0.028,0.1c1.875,0.321,3.819,0.358,5.7,0.029c-1.652,1.856-3.373,3.56-5.254,5.079
		c-0.004,0-0.006-0.004-0.01-0.004c-2.88,0.088-5.769,0.442-8.64,0.684c-0.1,0.008-0.102,0.166,0,0.158
		c2.797-0.204,5.625-0.312,8.41-0.651c-2.622,2.081-5.549,3.818-9.02,5.141c-7.636,1.067-8.142-9.489-9.253-14.622
		c-0.947-4.373-1.87-8.714-3.632-12.84c-0.007-0.016-0.018-0.025-0.026-0.038c-0.314-0.881-0.967-1.608-1.965-1.789
		c-1.774-0.322-3.713,1.23-4.734,2.508c-0.155,0.194,0.033,0.465,0.269,0.348c1.004-0.499,1.993-1.151,3.053-1.518
		C7.403,15.939,7.992,17,8.686,18.206c0.043,0.074,0.108,0.12,0.178,0.148c0.882,3.942,2.011,7.824,2.868,11.774
		c0.715,3.299,1.027,6.882,2.285,10.025c1.422,3.556,4.596,6.617,8.607,5.139c0.114-0.042,0.188-0.111,0.24-0.188
		c9.538-1.135,17.911-12.393,22.048-20.137C47.858,19.45,52.569,6.877,44.074,3.995z"/>
	<path style="fill:#1D1D1B;" d="M21.012,18.261c-1.476,0.031-2.953,0.138-4.428,0.214c-0.096,0.005-0.097,0.154,0,0.15
		c1.475-0.064,2.955-0.097,4.428-0.206C21.112,18.412,21.115,18.259,21.012,18.261z"/>
	<path style="fill:#1D1D1B;" d="M27.965,41.197c-3.093,0.155-6.17,0.483-9.27,0.579c-0.106,0.003-0.106,0.167,0,0.164
		c3.086-0.062,6.235-0.126,9.291-0.582C28.078,41.344,28.057,41.192,27.965,41.197z"/>
	<path style="fill:#1D1D1B;" d="M33.85,36.392c-2.202,0.414-4.294,0.56-6.521,0.284c-0.068-0.008-0.084,0.109-0.016,0.12
		c2.173,0.365,4.449,0.345,6.587-0.223C34.018,36.541,33.967,36.37,33.85,36.392z"/>
	<path style="fill:#1D1D1B;" d="M40.8,27.715c-2.254,0.305-4.44,0.512-6.716,0.459c-0.098-0.002-0.097,0.146,0,0.152
		c2.249,0.142,4.561,0.055,6.768-0.424C40.977,27.875,40.92,27.699,40.8,27.715z"/>
	<path style="fill:#1D1D1B;" d="M45.02,21.408c-2.136,0.382-4.149,0.544-6.309,0.309c-0.082-0.009-0.102,0.132-0.02,0.145
		c2.1,0.333,4.323,0.31,6.384-0.252C45.207,21.573,45.15,21.384,45.02,21.408z"/>
	<path style="fill:#1D1D1B;" d="M46.933,15.766c-2.011,0.405-3.848,0.684-5.9,0.431c-0.102-0.013-0.126,0.164-0.024,0.18
		c1.945,0.31,4.116,0.294,5.972-0.438C47.087,15.897,47.048,15.743,46.933,15.766z"/>
	<path style="fill:#1D1D1B;" d="M47.372,12.89c-2.6-0.015-5.204,0.09-7.806,0.08c-0.109,0-0.108,0.164,0,0.169
		c2.58,0.123,5.23,0.191,7.806-0.027C47.512,13.1,47.517,12.891,47.372,12.89z"/>
</g>
<g>
</g>
<g>
</g>
<g>
</g>
<g>
</g>
<g>
</g>
<g>
</g>
<g>
</g>
<g>
</g>
<g>
</g>
<g>
</g>
<g>
</g>
<g>
</g>
<g>
</g>
<g>
</g>
<g>
</g>
</svg>
