<?xml version="1.0" encoding="iso-8859-1"?>
<!-- Generator: Adobe Illustrator 18.0.0, SVG Export Plug-In . SVG Version: 6.00 Build 0)  -->
<!DOCTYPE svg PUBLIC "-//W3C//DTD SVG 1.1//EN" "http://www.w3.org/Graphics/SVG/1.1/DTD/svg11.dtd">
<svg version="1.1" id="Capa_1" xmlns="http://www.w3.org/2000/svg" xmlns:xlink="http://www.w3.org/1999/xlink" x="0px" y="0px"
	 viewBox="0 0 49.742 49.742" style="enable-background:new 0 0 49.742 49.742;" xml:space="preserve">
<g>
	<path style="fill:#1D1D1B;" d="M25.433,0.002C16.38-0.134,8.171,6.365,8.082,15.699C7.963,28.277,18.31,38.407,24.054,48.731
		c0.073,0.131,0.174,0.195,0.279,0.212c-0.118,0.468,0.409,1.039,0.879,0.692c0.436-0.322,0.71-0.734,1.029-1.162
		c0.075-0.1,0.082-0.199,0.053-0.288c6.737-8.477,14.492-18.951,15.317-30.078C42.323,8.514,35.19,0.148,25.433,0.002z
		 M39.351,22.883c-1.007,3.499-2.523,6.964-4.331,10.324c-2.775,0.026-5.551,0.127-8.325,0.201c-0.94,0.025-3.649-0.443-4.298,0.338
		c-0.032,0.038-0.031,0.095,0.016,0.123l0.132,0.077c0.032,0.019,0.081,0.009,0.099-0.026c0.016-0.031,0.032-0.063,0.049-0.094
		c0.04-0.078-0.072-0.145-0.118-0.069c0.319-0.521,5.921-0.161,6.548-0.174c1.921-0.039,3.844-0.065,5.765-0.132
		c-0.501,0.923-1.02,1.84-1.56,2.745c-3.336-0.463-6.78-0.546-10.13-0.269c-0.083,0.007-0.085,0.133,0,0.131
		c3.365-0.073,6.655,0.063,10,0.35c-0.748,1.245-1.524,2.474-2.326,3.677c-0.004-0.037-0.028-0.072-0.078-0.073
		c-1.905-0.02-3.791-0.054-5.691-0.214c-0.091-0.008-0.089,0.131,0,0.141c1.882,0.212,3.798,0.33,5.691,0.241
		c0.01,0,0.014-0.007,0.022-0.01c-0.563,0.842-1.134,1.675-1.713,2.493c-1.548,0.131-3.074,0.309-4.634,0.314
		c-0.087,0-0.087,0.134,0,0.135c1.491,0.019,3.025-0.013,4.502-0.265c-0.581,0.817-1.167,1.622-1.756,2.411
		c-1.134-0.009-2.272,0.116-3.385,0.304c-0.054,0.009-0.03,0.089,0.023,0.081c1.085-0.161,2.154-0.21,3.235-0.216
		c-0.625,0.835-1.252,1.657-1.877,2.458c-0.09,0.115-0.117,0.241-0.112,0.361c-0.092,0.05-0.181,0.106-0.269,0.164
		c-0.006-0.039-0.009-0.077-0.026-0.118c-3.667-8.556-10.574-15.275-13.902-24.022C6.952,13.898,11.295,2.564,23.335,1.329
		c3.89-0.399,7.2,0.469,9.831,2.175c-3.843-0.64-7.762-0.868-11.651-0.803c-0.091,0.001-0.091,0.141,0,0.141
		c4.084,0.036,8.075,0.424,12.113,0.973c0.83,0.588,1.59,1.258,2.271,2.005c-5.165-0.737-10.441-0.962-15.648-1.083
		c-0.118-0.003-0.118,0.179,0,0.183c5.307,0.186,10.562,0.717,15.85,1.127c0.778,0.889,1.456,1.869,2.016,2.93
		c-2.712-0.215-5.458-0.227-8.171-0.332c-0.117-0.005-0.116,0.175,0,0.181c2.757,0.141,5.54,0.382,8.305,0.403
		C40.25,13.184,40.722,18.118,39.351,22.883z"/>
	<path style="fill:#1D1D1B;" d="M38.797,23.231c-4.137,0.313-8.272,0.609-12.413,0.857c0.048-0.01,0.094-0.014,0.143-0.025
		c0.139-0.032,0.201-0.118,0.23-0.214c3.563-1.119,6.188-4.454,5.878-8.379c-0.347-4.39-4.23-7.639-8.614-7.1
		c-9.214,1.132-7.564,15.067,0.093,15.858c-0.304,0.016-0.606,0.04-0.91,0.056c-0.069,0.003-0.07,0.11,0,0.108
		c5.202-0.159,10.411-0.415,15.593-0.904C38.958,23.471,38.962,23.218,38.797,23.231z M18.863,17.124
		c-0.729-3.691,2.064-7.555,5.95-7.57c3.718-0.014,6.666,2.947,6.578,6.712c-0.088,3.769-3.197,6.081-6.647,6.63
		c-0.068,0.011-0.12,0.04-0.173,0.068C21.76,22.135,19.474,20.215,18.863,17.124z"/>
	<path style="fill:#1D1D1B;" d="M31.637,38.105c-2.5-0.283-5.082-0.349-7.591-0.149c-0.056,0.005-0.058,0.088,0,0.089
		c2.54,0.014,5.054,0.068,7.591,0.212C31.736,38.262,31.732,38.116,31.637,38.105z"/>
	<path style="fill:#1D1D1B;" d="M36.062,30.032c-4.917,0.04-9.849,0.218-14.757,0.534c-0.079,0.005-0.081,0.127,0,0.124
		c4.919-0.136,9.838-0.272,14.757-0.407C36.223,30.278,36.224,30.03,36.062,30.032z"/>
	<path style="fill:#1D1D1B;" d="M37.113,26.553c-5.407,0.041-10.823,0.326-16.226,0.537c-0.088,0.003-0.089,0.139,0,0.137
		c5.404-0.118,10.827-0.163,16.226-0.45C37.255,26.769,37.257,26.552,37.113,26.553z"/>
	<path style="fill:#1D1D1B;" d="M39.022,20.932c-2.113,0.005-4.216,0.122-6.332,0.066c-0.132-0.004-0.131,0.199,0,0.205
		c2.095,0.085,4.242,0.16,6.332-0.056C39.157,21.133,39.163,20.932,39.022,20.932z"/>
	<path style="fill:#1D1D1B;" d="M39.459,18.105c-2.011-0.374-4.121-0.333-6.145-0.095c-0.103,0.012-0.107,0.174,0,0.165
		c2.07-0.181,4.055-0.055,6.115,0.15C39.553,18.337,39.582,18.128,39.459,18.105z"/>
	<path style="fill:#1D1D1B;" d="M39.247,14.948c-2.08-0.36-4.26-0.301-6.354-0.112c-0.11,0.01-0.112,0.181,0,0.173
		c2.133-0.147,4.201,0.001,6.326,0.142C39.334,15.159,39.363,14.968,39.247,14.948z"/>
	<path style="fill:#1D1D1B;" d="M39.006,12.112c-2.446-0.211-4.917-0.243-7.37-0.349c-0.095-0.004-0.094,0.142,0,0.148
		c2.452,0.15,4.914,0.376,7.37,0.42C39.149,12.334,39.144,12.124,39.006,12.112z"/>
</g>
<g>
</g>
<g>
</g>
<g>
</g>
<g>
</g>
<g>
</g>
<g>
</g>
<g>
</g>
<g>
</g>
<g>
</g>
<g>
</g>
<g>
</g>
<g>
</g>
<g>
</g>
<g>
</g>
<g>
</g>
</svg>
