<?xml version="1.0" encoding="iso-8859-1"?>
<!-- Generator: Adobe Illustrator 18.0.0, SVG Export Plug-In . SVG Version: 6.00 Build 0)  -->
<!DOCTYPE svg PUBLIC "-//W3C//DTD SVG 1.1//EN" "http://www.w3.org/Graphics/SVG/1.1/DTD/svg11.dtd">
<svg version="1.1" id="Capa_1" xmlns="http://www.w3.org/2000/svg" xmlns:xlink="http://www.w3.org/1999/xlink" x="0px" y="0px"
	 viewBox="0 0 47.919 47.919" style="enable-background:new 0 0 47.919 47.919;" xml:space="preserve">
<g>
	<path style="fill:#1D1D1B;" d="M34.894,31.778c-0.023-7.874,0.39-15.905-0.357-23.749c-0.018-0.188-0.123-0.306-0.251-0.358
		c0.024-0.124,0.012-0.26-0.069-0.397c-0.766-1.304-2.176-2.306-3.215-3.405c-1.15-1.216-2.261-2.462-3.381-3.704
		c-0.255-0.282-0.675-0.082-0.762,0.218c-0.039-0.007-0.07-0.024-0.114-0.025C23.877,0.308,4.835-1.111,3.186,2.074
		C3.053,1.798,2.615,1.826,2.587,2.193C2.046,9.241,2.247,16.376,2.202,23.442C2.158,30.491,1.748,37.657,2.205,44.69
		c0.023,0.352,0.329,0.487,0.58,0.415c0.772,2.611,4.339,2.426,6.948,2.432c7.678,0.019,15.36,0.079,23.039,0.065
		c0.013,0,0.022-0.006,0.034-0.007c0.28,0.335,0.785,0.481,1.193,0.08c1.204-1.184,0.927-2.34,0.929-4.024
		C34.934,39.695,34.905,35.736,34.894,31.778z M27.315,1.3c0.782,1.166,1.627,2.298,2.545,3.355c0.638,0.734,1.318,1.624,2.081,2.36
		c-1.396-0.065-2.832-0.013-4.204,0.062c-0.221-1.83-0.331-3.677-0.685-5.487C27.173,1.523,27.263,1.422,27.315,1.3z M19.036,14.311
		c4.78-0.272,9.562-0.323,14.347-0.408c-0.03,1.02-0.051,2.041-0.06,3.063c-2.552,0.167-5.082,0.514-7.643,0.62
		c-0.169,0.007-0.17,0.266,0,0.264c2.526-0.036,5.15-0.093,7.642-0.555c-0.017,2.633,0.016,5.269,0.022,7.892
		c-4.724,0.156-9.409,0.392-14.141,0.283c-0.127-0.003-0.126,0.191,0,0.197c4.688,0.237,9.464,0.332,14.141-0.133
		c0,0.433,0.002,0.866,0,1.298c-0.004,0.871-0.008,1.743-0.013,2.614c-0.021-0.052-0.06-0.097-0.125-0.096
		c-2.354,0.008-4.646,0.162-7-0.07c-0.197-0.019-0.193,0.284,0,0.306c2.298,0.262,4.747,0.45,7.039,0.054
		c0.041-0.007,0.068-0.029,0.085-0.056c-0.003,0.572-0.005,1.144-0.008,1.715c-0.043,0.016-0.085,0.033-0.128,0.049
		c-0.21,0.081-0.127,0.363,0.092,0.332c-4.85,0.69-10.04,0.501-14.949,0.867c-0.118,0.009-0.121,0.191,0,0.186
		c3.029-0.13,6.057-0.293,9.085-0.442c1.707-0.084,4.268,0.282,5.898-0.393c-0.004,0.885-0.008,1.77-0.013,2.654
		c-2.776,0.112-5.554,0.352-8.325,0.553c-0.174,0.013-0.178,0.282,0,0.274c2.772-0.121,5.556-0.206,8.323-0.416
		c-0.001,0.258-0.002,0.516-0.004,0.773c-0.004,0.834,0.137,2.284,0.242,3.863c-3.496,0.119-6.991,0.289-10.485,0.441
		c-0.13,0.006-0.132,0.207,0,0.204c3.498-0.081,6.997-0.145,10.495-0.258c0.006,0,0.008-0.006,0.014-0.007
		c0.056,0.911,0.096,1.85,0.085,2.733c-0.023-0.032-0.057-0.057-0.106-0.063C28.093,42.002,22.589,42,17.11,42.267
		c-0.121,0.006-0.123,0.194,0,0.19c5.5-0.167,10.951,0.121,16.437,0.485c0.045,0.003,0.077-0.013,0.1-0.035
		c-0.017,0.775-0.073,1.502-0.197,2.112c-8.803-0.649-17.664-0.78-26.483-0.427c-0.133,0.005-0.134,0.208,0,0.207
		c8.817-0.065,17.594,0.136,26.4,0.558c-0.115,0.433-0.267,0.801-0.475,1.058c-0.04-0.008-0.074-0.025-0.12-0.025
		c-4.48-0.021-8.96,0.046-13.439,0.05c-3.189,0.004-14.503,1.347-16.186-2.309c0.483-6.851,0.184-13.825,0.223-20.69
		C3.408,16.602,3.673,9.7,3.276,2.867c0.1,0.005,0.203-0.043,0.221-0.151C3.885,0.461,22.291,1.495,26.22,1.647
		c0.001,0.209,0.015,0.418,0.02,0.627c-1.492-0.343-3.064-0.371-4.581-0.264c-0.188,0.013-0.191,0.304,0,0.295
		c1.563-0.071,3.055,0.113,4.593,0.326c0.012,0.369,0.017,0.737,0.035,1.106c-2.03-0.256-4.162-0.194-6.206-0.236
		c-0.205-0.004-0.202,0.304,0,0.316c2.046,0.127,4.175,0.368,6.224,0.277c0.063,1.243,0.132,2.487,0.088,3.73
		c-0.015,0.412,0.342,0.683,0.717,0.717c2.087,0.188,4.386,0.36,6.472,0.159c0.036-0.003,0.058-0.022,0.091-0.029
		c-0.14,1.601-0.224,3.21-0.276,4.821c-4.794,0.019-9.581,0.331-14.36,0.687C18.954,14.187,18.952,14.316,19.036,14.311z"/>
	<path style="fill:#1D1D1B;" d="M45.249,8.777c-0.228-1.568-0.26-3.326-0.834-4.807c-0.568-1.463-1.95-2.408-3.427-1.546
		c-0.042,0.024-0.074,0.056-0.101,0.088c-0.66-0.681-1.555-1.034-2.411-0.711c-0.057-0.067-0.14-0.111-0.258-0.098
		c-2.258,0.25-3.141,1.247-3.143,3.469c-0.004,4.114,0.554,8.657,1.25,12.737c-0.302,0.286-0.403,0.881,0.16,0.967
		c0.327,0.05,0.654,0.075,0.981,0.086c0.43,8.135,0.797,18.418,5.283,25.378c0.208,0.322,0.813,0.12,0.655-0.276
		c-3.267-8.204-3.727-16.535-5.367-25.104c0.625-0.023,1.248-0.11,1.862-0.272c0.66-0.174,1.471-0.412,2.143-0.785
		c0.145,1.041,0.303,2.111,0.464,3.193c-0.193-0.01-0.387-0.017-0.581-0.023c-0.39-0.013-0.886-0.116-1.267-0.014
		c-0.262,0.07-0.434,0.396-0.137,0.553c0.1,0.052,0.188-0.095,0.089-0.152c0.05-0.152,0.141-0.204,0.272-0.157
		c0.069,0.007,0.139,0.015,0.209,0.022c0.243,0.025,0.487,0.051,0.73,0.077c0.247,0.026,0.495,0.053,0.742,0.073
		c0.097,0.646,0.193,1.291,0.29,1.947c-0.903-0.07-1.808-0.012-2.714,0.121c-0.157,0.023-0.122,0.295,0.038,0.28
		c0.917-0.089,1.824-0.07,2.734-0.01c0.122,0.828,0.242,1.661,0.356,2.499c-0.805-0.077-1.664,0.101-2.399,0.4
		c-0.13,0.053-0.083,0.259,0.06,0.217c0.803-0.238,1.563-0.278,2.379-0.308c0.079,0.587,0.16,1.174,0.231,1.764
		c-0.995-0.068-1.997-0.089-2.99-0.102c-0.151-0.002-0.147,0.221,0,0.232c1.001,0.078,2.013,0.149,3.021,0.17
		c0.127,1.079,0.245,2.161,0.332,3.24c-0.645-0.052-1.309,0.001-1.953,0.016c-0.163,0.004-0.163,0.249,0,0.253
		c0.65,0.016,1.322,0.07,1.973,0.016c0.04,0.526,0.08,1.053,0.108,1.577c-0.578,0.165-1.103,0.307-1.729,0.242
		c-0.144-0.015-0.18,0.235-0.035,0.256c0.585,0.083,1.236,0.058,1.782-0.199c0.043,0.903,0.07,1.802,0.065,2.692
		c-0.43,0.029-0.861,0.076-1.286,0.118c-0.129,0.013-0.132,0.214,0,0.204c0.424-0.03,0.853-0.056,1.28-0.099
		c-0.007,0.702-0.018,1.403-0.062,2.093c-0.584,0.051-1.167,0.061-1.762-0.012c-0.094-0.012-0.116,0.149-0.022,0.166
		c0.585,0.107,1.177,0.144,1.764,0.103c-0.108,1.533-0.31,3.035-0.641,4.485c-0.087,0.381,0.448,0.52,0.58,0.16
		c0.56-1.531,0.917-3.148,1.123-4.818c0.013-0.004,0.027-0.005,0.04-0.008c0.117-0.034,0.08-0.176-0.021-0.193
		c0.824-7.124-1.079-15.214-2.059-21.943c0.265-0.036,0.509-0.212,0.469-0.513c-0.332-2.51-0.663-5.021-0.994-7.531
		c-0.228-1.727-0.21-4.07-1.03-5.641c-0.04-0.077-0.09-0.147-0.135-0.22c2.343-0.61,2.482,4.524,2.634,5.573
		c0.257,1.766,0.473,3.544,0.827,5.294c0.125,0.616,1.165,0.487,1.108-0.15C45.775,12.146,45.494,10.462,45.249,8.777z
		 M37.887,15.421c1.37,0.235,2.978,0.39,4.406,0.104c0.037,0.271,0.073,0.542,0.11,0.813c-0.23,0.025-0.439,0.162-0.487,0.386
		c-0.709,0.254-1.383,0.628-2.135,0.799c-0.914,0.208-1.826,0.247-2.753,0.254c-0.049-2.475-0.351-4.902-0.644-7.36
		c-0.29-2.429-1.269-6.406,1.363-7.783c0.04,0.021,0.087,0.028,0.14,0.008c1.762-0.661,2.611,0.903,3.052,2.754
		c-0.397-0.069-0.796-0.131-1.193-0.197c-0.558-0.093-1.198-0.305-1.759-0.282c-0.34,0.014-0.708,0.282-0.374,0.606
		c0.137,0.133,0.336-0.068,0.209-0.209c0.177-0.078,0.355-0.074,0.535,0.012c0.214,0.044,0.427,0.088,0.641,0.132
		c0.32,0.066,0.641,0.132,0.962,0.197c0.361,0.073,0.722,0.148,1.084,0.217c0.102,0.51,0.178,1.029,0.236,1.52
		c-0.971-0.166-2.038-0.086-3.004-0.109c-0.158-0.004-0.153,0.229,0,0.243c0.979,0.09,2.052,0.302,3.047,0.234
		c0.087,0.826,0.13,1.532,0.182,1.913l0.038,0.281c-0.98,0.022-2.002,0.179-2.963,0.329c-0.134,0.021-0.101,0.238,0.032,0.235
		c0.975-0.024,2.009-0.055,2.979-0.209c0.095,0.703,0.19,1.405,0.284,2.108c-0.962,0.064-1.871,0.118-2.863-0.073
		c-0.165-0.032-0.237,0.216-0.07,0.254c0.943,0.217,2.001,0.346,2.984,0.201c0.103,0.764,0.206,1.528,0.309,2.292
		c-1.431,0.12-2.788,0.282-4.277,0.077C37.793,15.144,37.718,15.392,37.887,15.421z"/>
	<path style="fill:#1D1D1B;" d="M32.678,37.494c-5.02-0.198-10.688-0.464-15.617,0.595c-0.1,0.021-0.073,0.17,0.023,0.173
		c0.067,0.002,0.135,0.004,0.202,0.006c0.104,0.003,0.098-0.147,0-0.158c2.022,0.24,4.672-0.196,6.865-0.246
		c2.841-0.064,5.688,0.063,8.527-0.029C32.897,37.828,32.897,37.502,32.678,37.494z"/>
	<path style="fill:#1D1D1B;" d="M32.851,22.3c-2.391,0.058-4.771,0.353-7.17,0.383c-0.156,0.002-0.156,0.24,0,0.243
		c2.371,0.046,4.868,0.085,7.205-0.363C33.036,22.534,33,22.296,32.851,22.3z"/>
	<path style="fill:#1D1D1B;" d="M33.033,19.899c-4.137,0.166-8.293,0.289-12.424,0.553c-0.108,0.007-0.11,0.165,0,0.169
		c4.125,0.125,8.307-0.043,12.424-0.314C33.293,20.29,33.298,19.889,33.033,19.899z"/>
	<path style="fill:#1D1D1B;" d="M33.028,10.009c-5.578-0.182-11.211,0.152-16.791,0.279c-0.151,0.003-0.152,0.236,0,0.236
		c5.58-0.016,11.22,0.175,16.791-0.148C33.261,10.361,33.264,10.016,33.028,10.009z"/>
	<path style="fill:#1D1D1B;" d="M26.037,6.642c-2.042-0.008-4.081,0.138-6.127,0.107c-0.15-0.002-0.149,0.226,0,0.232
		c2.024,0.09,4.106,0.202,6.127,0.006C26.253,6.966,26.263,6.643,26.037,6.642z"/>
</g>
<g>
</g>
<g>
</g>
<g>
</g>
<g>
</g>
<g>
</g>
<g>
</g>
<g>
</g>
<g>
</g>
<g>
</g>
<g>
</g>
<g>
</g>
<g>
</g>
<g>
</g>
<g>
</g>
<g>
</g>
</svg>
