<?xml version="1.0" encoding="iso-8859-1"?>
<!-- Generator: Adobe Illustrator 18.0.0, SVG Export Plug-In . SVG Version: 6.00 Build 0)  -->
<!DOCTYPE svg PUBLIC "-//W3C//DTD SVG 1.1//EN" "http://www.w3.org/Graphics/SVG/1.1/DTD/svg11.dtd">
<svg version="1.1" id="Capa_1" xmlns="http://www.w3.org/2000/svg" xmlns:xlink="http://www.w3.org/1999/xlink" x="0px" y="0px"
	 viewBox="0 0 49.508 49.508" style="enable-background:new 0 0 49.508 49.508;" xml:space="preserve">
<g>
	<path style="fill:#1D1D1B;" d="M31.35,0.654c-0.99-0.207-2.08-0.075-3.087-0.046c-0.797,0.023-1.701-0.086-2.337,0.44
		c-0.046,0.038-0.059,0.088-0.059,0.138c-0.145-0.09-0.343-0.076-0.404,0.147c-0.976,3.563-2.04,7.12-3.179,10.636
		c-0.981-3.646-2.144-7.401-3.543-10.894c-0.004-0.01-0.006-0.021-0.012-0.03c-0.007-0.017-0.013-0.035-0.02-0.052
		c-0.091-0.226-0.317-0.266-0.472-0.177c-0.59-0.143-1.216-0.079-1.83-0.045c-0.803,0.044-1.615,0.075-2.412,0.188
		c-0.114,0.016-0.17,0.111-0.191,0.214c-0.07,0.025-0.132,0.073-0.164,0.163c-1.154,3.28-2.824,6.747-3.396,10.242
		C9.054,8.07,7.898,4.551,6.722,1.037C6.635,0.779,6.351,0.767,6.2,0.905C6.191,0.902,6.188,0.893,6.179,0.89
		C5.351,0.604,4.406,0.7,3.537,0.686C2.55,0.67,1.563,0.654,0.577,0.641C0.46,0.639,0.374,0.68,0.311,0.74
		c-0.195,0.045-0.368,0.223-0.293,0.45C2.123,7.496,4.074,13.884,6.194,20.18c0.144,0.427,0.726,0.247,0.661-0.182
		c-0.92-6.11-3.201-12.901-5.899-18.529c0.86,0.06,1.72,0.118,2.58,0.176C4.412,1.703,5.322,1.87,6.179,1.652
		c0.018-0.005,0.023-0.02,0.04-0.026c0.955,3.998,2.239,7.922,3.752,11.742c0.193,0.487,0.981,0.294,0.804-0.222
		c-0.063-0.184-0.123-0.369-0.186-0.553c1.858-3.303,2.527-7.444,3.555-11.05c0.75,0.097,1.511,0.132,2.266,0.173
		c0.601,0.033,1.215,0.096,1.794-0.035c0.733,3.702,1.924,7.515,3.295,11.006c0.116,0.295,0.409,0.371,0.638,0.292
		c0.164,0.206,0.53,0.27,0.657-0.02c1.626-3.725,2.686-7.442,3.23-11.472c0.004-0.031-0.015-0.052-0.018-0.08
		c0.678,0.468,1.666,0.277,2.458,0.252c0.714-0.022,1.47,0.009,2.192-0.08c-0.572,1.178-1.094,2.4-1.597,3.637
		c-0.781-0.064-1.564-0.112-2.344-0.168c-0.107-0.008-0.106,0.158,0,0.167c0.757,0.06,1.515,0.127,2.273,0.18
		c-0.252,0.624-0.508,1.245-0.745,1.878c-0.786-0.1-1.582-0.116-2.373-0.084c-0.082,0.003-0.083,0.13,0,0.129
		c0.777-0.014,1.541,0.049,2.306,0.133c-0.38,1.023-0.747,2.053-1.088,3.094c-0.757-0.022-1.515-0.024-2.271-0.031
		c-0.084-0.001-0.084,0.129,0,0.131c0.741,0.017,1.484,0.04,2.226,0.045c-0.314,0.964-0.616,1.932-0.899,2.902
		c-0.719,0.156-1.436,0.2-2.169,0.103c-0.103-0.014-0.102,0.149,0,0.162c0.721,0.096,1.424,0.06,2.123-0.113
		c-0.444,1.529-0.855,3.059-1.23,4.576c-1.071-0.13-2.144-0.243-3.217-0.355c-0.084-0.009-0.083,0.121,0,0.131
		c1.062,0.121,2.124,0.242,3.188,0.345c-0.114,0.464-0.232,0.93-0.34,1.391c-0.838,0.103-1.678,0.172-2.523,0.172
		c-0.702,0-1.474-0.134-2.15,0.065c0-0.024,0.006-0.046,0.002-0.072c-0.565-3.676-1.037-8.316-3.158-11.539
		c0.007-0.026,0.016-0.053,0.023-0.079c0.069-0.263-0.151-0.457-0.371-0.459c-0.19-0.237-0.67-0.11-0.543,0.237
		c0.029,0.079,0.053,0.158,0.081,0.236c-0.233,0.419-0.445,0.861-0.654,1.304c-0.73-0.08-1.461-0.144-2.192-0.215
		c-0.064-0.006-0.062,0.092,0,0.099c0.708,0.083,1.417,0.172,2.126,0.247c-0.299,0.642-0.582,1.299-0.842,1.974
		c-0.638-0.076-1.279-0.134-1.918-0.198c-0.068-0.007-0.066,0.097,0,0.106c0.622,0.077,1.244,0.158,1.866,0.224
		c-0.223,0.587-0.438,1.181-0.636,1.783c-0.638-0.072-1.277,0.004-1.893,0.192c-0.067,0.021-0.039,0.125,0.029,0.106
		c0.61-0.173,1.201-0.205,1.818-0.164c-0.235,0.725-0.457,1.456-0.659,2.188c-0.685-0.043-1.354,0.033-2.021,0.223
		c-0.066,0.019-0.038,0.122,0.029,0.104c0.645-0.173,1.297-0.218,1.958-0.195c-0.168,0.613-0.336,1.227-0.483,1.833
		c-0.003,0.001-0.003-0.005-0.007-0.003c-1.022,0.378-2.068,0.517-3.149,0.357c-0.063-0.009-0.092,0.087-0.027,0.098
		c1.076,0.176,2.141,0.083,3.152-0.325c-0.181,0.75-0.352,1.493-0.506,2.216c-0.069,0.322,0.375,0.438,0.488,0.135
		c1.304-3.513,2.888-7.137,3.971-10.756c1.1,3.453,1.772,6.981,2.775,10.477c0.067,0.234,0.257,0.303,0.428,0.263
		c0.013,0.027,0.023,0.056,0.051,0.079c1.259,1.008,3.681,0.65,5.167,0.431c0.113-0.017,0.194-0.073,0.26-0.141
		c0.14-0.037,0.267-0.132,0.328-0.312c2.132-6.275,4.439-12.714,6.101-19.126C31.714,1.235,31.725,0.732,31.35,0.654z"/>
	<path style="fill:#1D1D1B;" d="M11.382,20.08c-0.835-0.232-1.782-0.257-2.645-0.231c-0.646,0.019-1.525-0.036-1.98,0.482
		c-0.066,0.075-0.089,0.212,0,0.283c0.513,0.414,1.176,0.293,1.813,0.326c0.89,0.046,1.78,0.198,2.667,0.217
		C11.859,21.171,11.976,20.246,11.382,20.08z"/>
	<path style="fill:#1D1D1B;" d="M41.961,0.554c-6.109-1.74-10.784,2.679-11.872,8.522c-0.96,5.157,1.656,10.789,6.815,12.538
		c4.888,1.657,10.683-1.345,11.493-6.569c0.054-0.347-0.214-0.568-0.474-0.561c0-0.268-0.169-0.516-0.518-0.483
		c-1.526,0.14-2.992,0.071-4.516-0.013c-0.318-0.017-0.413,0.322-0.281,0.54c-0.315,2.05-2.012,3.32-4.092,2.513
		c-1.789-0.694-2.927-2.456-3.048-4.336c-0.024-0.378-0.627-0.517-0.704-0.095c-0.485,2.64,1.726,5.286,4.303,5.742
		c2.13,0.377,4.614-1.217,4.442-3.478c1.265,0.314,2.62,0.364,3.896,0.213c0.004,0,0.006-0.003,0.01-0.003
		c-3.856,10.65-18.334,4.717-16.322-5.805c0.996-5.21,5.681-9.703,11.247-7.932c0.404,0.129,0.782,0.286,1.144,0.461
		c-1.161-0.121-2.327-0.212-3.487-0.308c-0.057-0.005-0.056,0.082,0,0.089c1.271,0.143,2.55,0.299,3.828,0.404
		c2.037,1.1,3.383,2.906,4.095,5.012c-1.296-0.134-2.614-0.149-3.916-0.201c-1.892-4.211-8.695-3.435-9.254,1.61
		c-0.025,0.224,0.166,0.344,0.357,0.344c0.038,0.021,0.081,0.035,0.131,0.041c2.662,0.308,5.794,0.859,8.444,0.341
		c0.255-0.05,0.324-0.336,0.239-0.549c0.276-0.043,0.528-0.283,0.456-0.647c-0.073-0.368-0.181-0.705-0.312-1.019
		c1.293,0.085,2.597,0.206,3.892,0.205c0.481,1.481,0.663,3.097,0.563,4.706c-4.083-0.403-9.2-0.771-13.154,0.27
		c-0.152,0.04-0.159,0.279,0,0.315c2.019,0.457,4.137,0.336,6.198,0.352c2.389,0.019,4.795,0.14,7.18,0.034
		c0.345-0.015,0.484-0.287,0.444-0.537c0.095-0.049,0.169-0.133,0.189-0.263C50.198,6.743,47.095,2.017,41.961,0.554z M35.566,8.154
		c1.247-3.977,6.516-4.055,7.783,0.072c0.012,0.039,0.034,0.064,0.05,0.096C40.906,7.889,38.107,8.164,35.566,8.154z"/>
	<path style="fill:#1D1D1B;" d="M28.851,30.655c-1.102-7.38-8.643-7.728-12.965-2.941c-3.119-5.235-11.02-3.316-12.552,2.37
		c-2.075,7.701,5.991,16.044,12.197,19.195c0.283,0.144,0.528,0.003,0.626-0.208c0.158,0.118,0.372,0.155,0.601,0.015
		C22.595,45.516,29.98,38.218,28.851,30.655z M27.895,32.481c-1.517-0.055-3.037-0.065-4.555-0.085c-0.08-0.001-0.08,0.122,0,0.124
		c1.51,0.051,3.023,0.112,4.534,0.129c-0.056,0.617-0.169,1.227-0.342,1.824c-1.534,0.349-3.029,0.447-4.601,0.146
		c-0.104-0.02-0.15,0.139-0.044,0.161c1.525,0.309,3.087,0.296,4.587-0.104c-0.299,0.965-0.719,1.899-1.203,2.787
		c-1.871,0.498-3.723,0.642-5.654,0.296c-0.091-0.016-0.131,0.122-0.039,0.14c1.865,0.363,3.745,0.328,5.561-0.188
		c-0.201,0.359-0.409,0.711-0.623,1.053c-0.436,0.7-0.907,1.363-1.402,2.002c-1.946,0.079-3.896,0.236-5.834,0.394
		c-0.094,0.008-0.096,0.152,0,0.148c1.895-0.092,3.8-0.19,5.693-0.355c-0.53,0.673-1.089,1.317-1.672,1.937
		c-2.045,0.115-4.076,0.191-6.131,0.135c-0.079-0.002-0.078,0.118,0,0.122c1.973,0.109,3.973,0.108,5.948-0.062
		c-0.657,0.686-1.334,1.353-2.051,1.98c-1.937,0.158-3.843,0.339-5.795,0.299c-0.065-0.001-0.065,0.099,0,0.101
		c1.847,0.071,3.744,0.057,5.582-0.221c-1.165,1.003-2.397,1.942-3.687,2.83c-0.142,0.098-0.215,0.226-0.246,0.36
		C12.056,45.705,8.197,42.492,5.86,38.28c-1.33-2.397-2.195-5.138-1.376-7.879c1.656-5.536,7.605-5.263,11.174-1.992
		c0.204,0.187,0.473,0.013,0.464-0.22c3.275-2.561,8.612-3.987,10.861,0.038c-1.354-0.138-2.714-0.236-4.07-0.344
		c-0.083-0.007-0.081,0.12,0,0.129c1.385,0.145,2.773,0.303,4.162,0.415c0.276,0.537,0.508,1.15,0.669,1.877
		c0.005,0.021,0.004,0.042,0.009,0.063c-1.505-0.338-3.102-0.363-4.631-0.279c-0.101,0.006-0.102,0.163,0,0.158
		c1.582-0.066,3.095,0.115,4.656,0.303C27.9,31.2,27.94,31.846,27.895,32.481z"/>
	<path style="fill:#1D1D1B;" d="M37.07,25.078c-0.42-0.931-2.294-0.509-3.088-0.503c-1.179,0.009-2.035-0.137-2.335,1.171
		c-0.245,1.067-0.429,2.53,0.155,3.509c0.108,0.181,0.398,0.149,0.453-0.059c0.199-0.757,0.08-1.573,0.181-2.352
		c0.053-0.413,0.046-1.055,0.43-1.285c0.237-0.142,1.015,0.008,1.303,0.011c0.434,0.004,0.869,0.015,1.303,0.013
		c0.623-0.003,0.81-0.293,0.688,0.359c-0.027,0.145-0.056,0.289-0.085,0.433c-0.67-0.078-1.347,0.001-1.997,0.229
		c-0.066,0.023-0.038,0.128,0.029,0.106c0.648-0.217,1.291-0.268,1.94-0.19c-0.108,0.543-0.216,1.086-0.297,1.633
		c-1.009-0.11-2.331,0.25-3.149,0.523c-0.426,0.142-0.383,0.849,0.111,0.822c0.684-0.038,1.366-0.128,2.05-0.184
		c0.578-0.047,1.155-0.03,1.68-0.296c0.184-0.093,0.219-0.263,0.173-0.42c0.012-0.026,0.03-0.048,0.037-0.078
		c0.181-0.764,0.288-1.553,0.413-2.328C37.124,25.827,37.229,25.43,37.07,25.078z"/>
	<path style="fill:#1D1D1B;" d="M36.499,30.414c0.001-0.379-0.579-0.504-0.709-0.174c-0.035-0.025-0.057-0.06-0.103-0.075
		c-0.613-0.208-1.332-0.101-1.972-0.081c-0.582,0.018-1.212-0.014-1.737,0.26c-0.127,0.066-0.159,0.221-0.114,0.346
		c-0.077,0.045-0.141,0.112-0.154,0.225c-0.641,5.396-0.678,11.092-0.101,16.499c0.042,0.389,0.488,0.493,0.7,0.281
		c0.043,0.033,0.094,0.059,0.161,0.069c0.573,0.087,1.144,0.167,1.721,0.228c0.55,0.058,1.088,0.199,1.599-0.047
		c0.25-0.12,0.249-0.419,0.11-0.616c0.18-0.041,0.332-0.177,0.326-0.419C36.093,41.394,36.482,35.916,36.499,30.414z M34.307,46.98
		c-0.577-0.016-1.152-0.014-1.729-0.003c-0.057,0.001-0.108,0.015-0.154,0.038c0.084-5.302,0.042-10.67-0.131-15.969
		c0.085,0.06,0.188,0.031,0.243-0.038c0.385,0.069,0.791,0.063,1.179,0.071c0.638,0.013,1.358,0.113,1.968-0.099
		c-0.082,0.642-0.15,1.287-0.209,1.935c-0.672-0.006-1.345,0.009-2.016,0.015c-0.064,0.001-0.064,0.099,0,0.099
		c0.668,0.006,1.338,0.021,2.006,0.015c-0.158,1.782-0.239,3.581-0.268,5.384c-0.573,0.15-1.143,0.228-1.739,0.187
		c-0.074-0.005-0.072,0.106,0,0.114c0.592,0.064,1.17,0.018,1.735-0.154c-0.012,0.836-0.014,1.672-0.007,2.507
		c-0.783,0.126-1.561,0.239-2.36,0.272c-0.074,0.003-0.075,0.116,0,0.116c0.783-0.001,1.586-0.059,2.361-0.215
		c0.013,1.477,0.047,2.95,0.093,4.41c-0.814,0.131-1.622,0.097-2.42-0.153c-0.095-0.03-0.135,0.118-0.041,0.149
		c0.815,0.265,1.638,0.315,2.465,0.148c0.012,0.367,0.023,0.735,0.035,1.1c0.002,0.049,0.017,0.087,0.03,0.128
		C35.015,46.966,34.651,46.989,34.307,46.98z"/>
	<path style="fill:#1D1D1B;" d="M47.932,43.805c-0.099-0.276-0.364-0.332-0.57-0.24c-0.072-0.054-0.159-0.087-0.271-0.049
		c-2.875,0.965-1.81-3.325-1.753-4.606c0.073-1.615-0.066-3.226-0.243-4.831c0.775,0.09,1.555,0.174,2.33,0.19
		c0.313,0.006,0.501-0.252,0.534-0.534c0.111-0.942,0.188-1.875,0.238-2.822c0.008-0.151-0.065-0.264-0.168-0.341
		c0.016-0.134-0.012-0.275-0.114-0.374c-0.485-0.469-1.315-0.498-1.964-0.474c-0.567,0.021-1.096,0.156-1.614,0.355
		c0.015-0.122,0.017-0.243,0.03-0.365c0.016,0.002,0.032,0.004,0.048,0.006c0.079,0.01,0.096-0.123,0.019-0.139
		c-0.018-0.004-0.037-0.005-0.055-0.009c0.118-1.162,0.169-2.32,0.113-3.494c-0.017-0.361-0.393-0.474-0.634-0.346
		c-0.045-0.037-0.097-0.068-0.162-0.086c-1.142-0.327-2.425-0.3-3.6-0.221c-0.287,0.019-0.503,0.221-0.515,0.516
		c-0.058,1.356,0.056,2.673,0.285,4.006c-0.405-0.081-0.805-0.015-1.214,0.001c-0.176,0.007-0.37-0.011-0.545,0.008
		c-0.215,0.023-0.392,0.141-0.602,0.174c-0.058,0.009-0.096,0.035-0.121,0.069c-0.069,0.049-0.125,0.115-0.136,0.206
		c-0.136,1.17-0.14,2.318-0.15,3.494c-0.002,0.247,0.226,0.512,0.489,0.489c0.675-0.059,1.65,0.04,2.246-0.327
		c-0.42,2.463-0.457,5.055-0.412,7.543c0.034,1.876,0.191,3.852,1.457,5.352c1.591,1.885,5.331,2.524,7.229,0.822
		c0.124-0.111,0.157-0.254,0.14-0.392c0.148-0.093,0.262-0.25,0.276-0.476C48.586,45.903,48.267,44.74,47.932,43.805z
		 M41.358,45.756c-0.892-1.361-0.854-3.096-0.847-4.653c0.011-2.494,0.215-4.985-0.14-7.462c-0.023-0.161-0.205-0.201-0.339-0.147
		c-0.028-0.039-0.058-0.078-0.111-0.104c-0.534-0.264-1.224-0.142-1.851-0.046c-0.009-0.869-0.06-1.718-0.195-2.578
		c0.037,0.02,0.07,0.046,0.112,0.058c0.175,0.051,0.391,0.053,0.572,0.072c0.432,0.045,0.89,0.104,1.308-0.036
		c0.227-0.076,0.338-0.312,0.323-0.529c0.114-0.027,0.219-0.113,0.225-0.247c0.058-1.217,0.124-2.432,0.172-3.649
		c1.003-0.032,1.977,0.065,2.987,0.1c0.027,0.001,0.049-0.008,0.074-0.012c-0.001,0.42-0.015,0.839-0.034,1.258
		c-0.643-0.069-1.289-0.116-1.931-0.172c-0.089-0.008-0.088,0.131,0,0.139c0.64,0.061,1.284,0.133,1.927,0.181
		c-0.025,0.505-0.06,1.01-0.105,1.514c-0.749-0.073-1.508-0.063-2.255-0.002c-0.07,0.006-0.071,0.114,0,0.11
		c0.758-0.047,1.497-0.012,2.241,0.061c-0.02,0.209-0.029,0.418-0.054,0.626c-0.027,0.23,0.103,0.36,0.27,0.402
		c0.049,0.196,0.244,0.376,0.478,0.325c0.619-0.134,1.253-0.163,1.885-0.131c0.405,0.02,0.802,0.136,1.199,0.152
		c-0.047,0.284-0.077,0.57-0.117,0.854c-1.959-0.113-3.949,0.031-5.891,0.246c-0.069,0.008-0.071,0.116,0,0.11
		c1.963-0.188,3.907-0.184,5.869-0.198c-0.057,0.411-0.122,0.821-0.169,1.233c-0.709,0.042-1.419,0.122-2.124,0.209
		c-0.119-0.05-0.259-0.038-0.356,0.042c-0.024,0.003-0.048,0.005-0.071,0.009c-0.298,0.038-0.311,0.392-0.056,0.479
		c-0.011,0.351-0.037,0.702-0.054,1.052c-0.802-0.002-1.604,0.006-2.406,0.013c-0.064,0-0.064,0.099,0,0.099
		c0.8,0.007,1.6,0.015,2.4,0.013c-0.024,0.475-0.042,0.951-0.074,1.425c-0.003,0-0.002-0.004-0.005-0.003
		c-0.771,0.179-1.532,0.233-2.318,0.131c-0.056-0.007-0.07,0.091-0.014,0.099c0.786,0.113,1.56,0.087,2.329-0.114
		c-0.05,0.74-0.104,1.479-0.155,2.22c-0.006,0.079-0.015,0.162-0.021,0.242c-0.709,0.124-1.419,0.17-2.14,0.086
		c-0.062-0.007-0.061,0.089,0,0.097c0.719,0.094,1.424,0.076,2.128-0.048c-0.074,0.822-0.193,1.707-0.154,2.558
		c-0.641,0.169-1.298,0.223-1.975,0.14c-0.069-0.008-0.068,0.099,0,0.108c0.676,0.087,1.339,0.043,1.981-0.127
		c0.028,0.436,0.096,0.862,0.245,1.261c0.127,0.339,0.324,0.631,0.561,0.868c-0.859,0-1.719-0.001-2.578,0.006
		c-0.069,0.001-0.069,0.107,0,0.108c0.906,0.008,1.811,0.008,2.717,0.007c0.642,0.548,1.528,0.704,2.262,0.17
		c-0.018,0.417-0.015,0.854,0.018,1.285c-1.384,0.109-2.763,0.162-4.152,0.084c-0.084-0.005-0.083,0.125,0,0.131
		c1.392,0.104,2.78,0.094,4.165-0.073c0.041,0.429,0.116,0.849,0.245,1.229C45.524,48.206,42.505,47.507,41.358,45.756z"/>
	<path style="fill:#1D1D1B;" d="M25.236,15.857c-0.632-0.009-1.265-0.003-1.898-0.001c-0.06,0-0.06,0.093,0,0.093
		c0.632,0.002,1.265,0.008,1.898-0.001C25.294,15.946,25.294,15.857,25.236,15.857z"/>
	<path style="fill:#1D1D1B;" d="M29.685,3.383c-0.906-0.234-1.83-0.3-2.762-0.207c-0.099,0.01-0.103,0.165,0,0.158
		c0.92-0.057,1.818,0.01,2.723,0.193C29.739,3.546,29.779,3.407,29.685,3.383z"/>
	<path style="fill:#1D1D1B;" d="M48.427,10.385c-3.44-0.11-6.89-0.046-10.331-0.015c-0.064,0.001-0.064,0.099,0,0.099
		c3.441,0.031,6.891,0.095,10.331-0.015C48.472,10.454,48.472,10.387,48.427,10.385z"/>
	<path style="fill:#1D1D1B;" d="M47.795,9.089c-1.192-0.057-2.391-0.018-3.584-0.009c-0.096,0.001-0.097,0.149,0,0.15
		c1.193,0.009,2.392,0.048,3.584-0.009C47.88,9.218,47.88,9.093,47.795,9.089z"/>
	<path style="fill:#1D1D1B;" d="M46.945,5.115c-1.33-0.168-2.665-0.304-3.998-0.453c-0.063-0.007-0.061,0.089,0,0.097
		c1.332,0.176,2.663,0.367,3.998,0.525C47.053,5.296,47.052,5.128,46.945,5.115z"/>
	<path style="fill:#1D1D1B;" d="M45.704,3.411c-1.24-0.199-2.603-0.072-3.841,0.102c-0.062,0.009-0.048,0.115,0.015,0.11
		c1.278-0.109,2.531-0.038,3.806-0.069C45.763,3.552,45.789,3.425,45.704,3.411z"/>
	<path style="fill:#1D1D1B;" d="M35.145,43.67c-0.719-0.074-1.431,0.018-2.126,0.209c-0.082,0.023-0.048,0.15,0.035,0.128
		c0.692-0.182,1.378-0.23,2.091-0.213C35.226,43.796,35.223,43.678,35.145,43.67z"/>
	<path style="fill:#1D1D1B;" d="M34.929,36.264c-0.497,0.066-0.993,0.14-1.489,0.217c-0.066,0.01-0.037,0.108,0.028,0.1
		c0.493-0.068,0.984-0.137,1.475-0.215C34.999,36.356,34.986,36.256,34.929,36.264z"/>
	<path style="fill:#1D1D1B;" d="M34.934,34.186c-0.562-0.016-1.124-0.009-1.687-0.006c-0.083,0-0.083,0.128,0,0.129
		c0.562,0.002,1.125,0.01,1.687-0.006C35.009,34.3,35.009,34.188,34.934,34.186z"/>
	<path style="fill:#1D1D1B;" d="M35.773,27.268c-0.701-0.084-1.406-0.137-2.109-0.197c-0.075-0.006-0.073,0.108,0,0.116
		c0.703,0.073,1.405,0.154,2.109,0.203C35.853,27.396,35.85,27.277,35.773,27.268z"/>
</g>
<g>
</g>
<g>
</g>
<g>
</g>
<g>
</g>
<g>
</g>
<g>
</g>
<g>
</g>
<g>
</g>
<g>
</g>
<g>
</g>
<g>
</g>
<g>
</g>
<g>
</g>
<g>
</g>
<g>
</g>
</svg>
