<?xml version="1.0" encoding="iso-8859-1"?>
<!-- Generator: Adobe Illustrator 18.0.0, SVG Export Plug-In . SVG Version: 6.00 Build 0)  -->
<!DOCTYPE svg PUBLIC "-//W3C//DTD SVG 1.1//EN" "http://www.w3.org/Graphics/SVG/1.1/DTD/svg11.dtd">
<svg version="1.1" id="Capa_1" xmlns="http://www.w3.org/2000/svg" xmlns:xlink="http://www.w3.org/1999/xlink" x="0px" y="0px"
	 viewBox="0 0 48.557 48.557" style="enable-background:new 0 0 48.557 48.557;" xml:space="preserve">
<g>
	<path style="fill:#1D1D1B;" d="M24.598,24.193c-0.014-0.079-0.056-0.154-0.152-0.207c-4.072-2.227-9.19-0.303-11.443,3.612
		c-2.055,3.572-1.713,9.26,2.625,10.908c3.909,1.484,9.244-0.627,11.528-3.987C29.551,30.998,28.38,25.971,24.598,24.193z
		 M16.075,37.452c-0.011-0.005-0.02-0.011-0.03-0.015c0.111,0.015,0.218,0.033,0.348,0.035c0.033,0,0.032-0.05,0-0.051
		c-0.273-0.007-0.399-0.018-0.435-0.029c-0.004-0.002-0.008-0.004-0.012-0.006c-0.008-0.037,0.896-0.081,1.087-0.079
		c0.639,0.009,1.279,0.012,1.918,0.011c0.835-0.001,1.673-0.007,2.509-0.034C19.649,37.947,17.676,38.139,16.075,37.452z
		 M26.877,32.441c-1.598,0.043-3.198,0.177-4.793,0.269c-0.101,0.006-0.102,0.163,0,0.158c1.573-0.072,3.155-0.106,4.726-0.224
		c-0.283,0.735-0.732,1.455-1.386,2.139c-0.317,0.331-0.696,0.644-1.098,0.945c-2.095,0.213-4.136,0.263-6.231-0.026
		c-0.079-0.011-0.115,0.11-0.034,0.122c2.007,0.299,4.036,0.361,6.045,0.065c-0.672,0.475-1.425,0.902-2.23,1.234
		c-2.116-0.033-4.243,0.034-6.359,0.042c-3.382-1.927-3.092-6.649-1.066-9.587c2.098-3.042,5.544-3.597,8.923-3.127
		c0.479,0.32,0.918,0.683,1.319,1.076c-1.847-0.168-3.71-0.133-5.559,0.032c-0.091,0.008-0.092,0.151,0,0.144
		c1.957-0.157,3.875-0.098,5.807,0.083c0.341,0.361,0.657,0.74,0.931,1.139c-2.167-0.13-4.361-0.126-6.526-0.144
		c-0.105-0.001-0.104,0.157,0,0.163c2.22,0.107,4.471,0.241,6.7,0.225c0.271,0.427,0.51,0.867,0.686,1.325
		c-1.745-0.246-3.52-0.27-5.278-0.188c-0.097,0.005-0.098,0.155,0,0.152c1.771-0.059,3.51,0.059,5.271,0.229
		c0.034,0.003,0.056-0.015,0.072-0.039c0.202,0.566,0.328,1.149,0.359,1.739c-1.554-0.108-3.131,0.011-4.667,0.242
		c-0.079,0.012-0.061,0.151,0.019,0.141c1.558-0.201,3.092-0.223,4.654-0.208C27.175,31.187,27.09,31.818,26.877,32.441z"/>
	<path style="fill:#1D1D1B;" d="M19.826,29.836c-1.137-0.988-3.372-0.843-3.819,0.719c-0.675,0.785-0.835,1.984-0.273,2.939
		c0.792,1.348,2.824,1.682,4.031,0.715C21.103,33.136,21.107,30.95,19.826,29.836z M18.828,33.534
		c-0.796,0.39-1.888,0.059-2.289-0.746c-0.24-0.482-0.202-1.028-0.009-1.521c0.024-0.017,0.054-0.018,0.074-0.042
		c0.335-0.407,0.662-0.844,1.217-0.949c0.611-0.115,1.272,0.222,1.605,0.733C19.952,31.817,19.725,33.094,18.828,33.534z"/>
	<path style="fill:#1D1D1B;" d="M47.459,15.676c0.41-0.418,0.824-0.903,1.013-1.468c0.151-0.451,0.063-0.863,0.02-1.284
		c0.037-0.093,0.058-0.196,0.041-0.311c-0.008-0.055-0.033-0.099-0.044-0.152c0.004-0.058-0.003-0.114,0.007-0.174
		c0.028-0.166-0.068-0.3-0.193-0.353c-0.607-1.161-2.19-1.511-3.448-1.163c-0.942,0.26-1.775,0.834-2.526,1.444
		c-0.945,0.769-1.744,2.136-2.764,2.912c-0.151-0.235-0.56-0.309-0.794-0.112c-0.917-0.109-1.283-0.471-1.098-1.086
		c0.024-0.306,0.091-0.602,0.201-0.89c0.155-0.467,0.415-0.905,0.671-1.322c0.416-0.677,0.894-1.274,1.097-2.058
		c0.251-0.967,0.075-1.934-0.785-2.48c-0.033-0.021-0.065-0.015-0.098-0.021c-3.317-2.302-8.196,3.946-9.859,5.998
		c0,0.001,0,0.001-0.001,0.002c-0.604,0.227-1.235,0.466-1.223-0.666c0.004-0.408,0.416-1.147,0.552-1.513
		c0.383-1.028,0.896-2.137,0.888-3.261C29.11,6.62,28.46,5.702,27.494,5.512c-0.071-0.161-0.219-0.285-0.434-0.279
		c-2.141,0.065-3.918,1.314-5.308,2.875c-0.788,0.885-1.447,1.872-2.097,2.86c-0.81,1.231-1.758,3.422-3.354,3.755
		c-0.735-0.889,0.42-4.573-0.013-5.45c-0.442-0.896-1.47-1.104-2.345-0.711c-1.279,0.576-2.116,2.358-2.681,3.529
		c-0.689,1.429-1.145,4.318-2.566,5.317c-0.906-0.797-0.508-3.895-2.852-3.385c-2.799,0.609-4.463,6.962-5.163,9.271
		c-2.722,8.972,3.049,15.946,11.522,18.525c9.219,2.805,20.115,1.842,27.892-4.154c5.696-4.392,10.827-12.828,5.166-19.212
		c0.245-0.414,0.332-0.905,0.682-1.306C46.405,16.616,46.967,16.177,47.459,15.676z M36.848,38.425
		c-1.311,0.081-2.622,0.191-3.931,0.313c1.156-0.618,2.187-1.366,3.058-2.242c1.269,0,2.536-0.054,3.8-0.174
		C38.821,37.115,37.83,37.824,36.848,38.425z M34.081,36.442c-8.326,6.468-29.261,3.784-27.384-8.474
		c5.327-9.192,25.989-13.503,30.136-1.21c1.411,4.183,0.115,7.374-2.592,9.559c-0.046-0.001-0.092,0-0.139-0.001
		C34.02,36.313,34.023,36.408,34.081,36.442z M40.003,36.127c-1.285,0.095-2.568,0.164-3.853,0.188
		c0.45-0.475,0.847-0.991,1.195-1.541c1.366,0.008,2.734,0.025,4.1,0.012C40.978,35.252,40.499,35.704,40.003,36.127z
		 M44.473,16.927c-1.91,0.017-3.824,0.14-5.731,0.214c-0.108,0.004-0.109,0.172,0,0.169c1.865-0.05,3.74-0.056,5.604-0.157
		c-0.271,0.538-0.355,1.105,0.049,1.577c0.033,0.038,0.077,0.063,0.121,0.085c0.012,0.037,0.024,0.074,0.051,0.111
		c0.07,0.093,0.13,0.187,0.197,0.281c-2.285-0.05-4.581,0.028-6.866,0.036c-0.091,0-0.091,0.141,0,0.141
		c2.333,0.008,4.679,0.09,7.013,0.033c0.499,0.741,0.877,1.494,1.138,2.253c-2.421-0.166-4.881-0.127-7.306-0.152
		c-0.078-0.001-0.077,0.117,0,0.12c2.441,0.098,4.915,0.263,7.359,0.216c0.456,1.43,0.527,2.879,0.29,4.305
		c-1.845-0.045-3.698,0.014-5.543,0.027c-0.109,0.001-0.109,0.168,0,0.169c1.831,0.014,3.67,0.07,5.501,0.028
		c-0.107,0.568-0.245,1.133-0.441,1.69c-1.966-0.125-3.951-0.014-5.908,0.19c-0.095,0.01-0.096,0.159,0,0.15
		c1.951-0.188,3.88-0.183,5.834-0.136c-0.241,0.652-0.535,1.294-0.879,1.922c-1.718-0.056-3.443-0.016-5.161-0.012
		c-0.117,0-0.117,0.181,0,0.181c1.69,0.004,3.387,0.041,5.078-0.011c-0.474,0.844-1.032,1.661-1.651,2.442
		c-1.424,0.162-2.811,0.168-4.243-0.098c-0.107-0.02-0.154,0.144-0.045,0.165c1.36,0.263,2.748,0.328,4.117,0.147
		c-0.454,0.557-0.935,1.097-1.441,1.611c-1.391-0.017-2.784,0-4.175,0.01c0.713-1.17,1.188-2.505,1.346-4.021
		c1.771-17.009-29.496-15.615-33.41-2.234c-0.078,0.267,0.095,0.494,0.316,0.586c-1.661,10.784,16.85,15.021,26.908,9.953
		c1.311-0.081,2.623-0.177,3.93-0.297c-0.251,0.148-0.502,0.291-0.75,0.424c-1.086,0.582-2.227,1.078-3.4,1.506
		c-2.447,0.198-4.892,0.449-7.337,0.672c-0.059,0.005-0.06,0.098,0,0.093c2.27-0.196,4.545-0.371,6.815-0.582
		c-6.917,2.372-15.027,2.151-21.646-0.603c-4.513-1.878-8.274-5.141-9.129-10.185c-0.523-3.083,0.808-10.555,3.384-12.909
		c2.371-2.167,2.548,0.532,3.79,1.049c0.011,0.008,0.024,0.01,0.037,0.017c0.29,0.108,0.638,0.099,1.083-0.116
		c0.114-0.055,0.117-0.194,0.06-0.292c2.148-1.453,1.939-5.475,3.816-7.159c0.211-0.457,0.624-0.549,1.239-0.275
		c1.025-0.384,1.349-0.135,0.972,0.747c-0.03,0.179-0.07,0.357-0.108,0.535c-0.907-0.156-1.837-0.173-2.751-0.089
		c-0.084,0.008-0.086,0.139,0,0.133c0.924-0.067,1.81,0.005,2.712,0.15c-0.068,0.306-0.138,0.612-0.201,0.918
		c-0.015,0.073-0.031,0.147-0.046,0.221c-0.693,0.012-1.386,0.106-2.061,0.262c-0.066,0.015-0.038,0.115,0.028,0.102
		c0.67-0.139,1.329-0.189,1.996-0.189c-0.101,0.481-0.184,0.973-0.069,1.455c0.022,0.094,0.053,0.182,0.087,0.269
		c-0.75-0.015-1.509,0.003-2.236,0.055c-0.072,0.005-0.072,0.107,0,0.112c0.761,0.055,1.558,0.073,2.341,0.052
		c0.32,0.583,0.913,0.905,1.613,0.622c0.143-0.058,0.205-0.173,0.225-0.293c1.209-0.267,2.017-1.468,2.767-2.521
		c2.102-2.954,3.677-5.697,7.436-6.595c0.038-0.009,0.066-0.029,0.097-0.045c0.457,0.223,0.656,0.596,0.702,1.059
		c-1.059-0.158-2.158-0.06-3.193,0.18c-0.11,0.026-0.063,0.192,0.047,0.169c1.087-0.233,2.101-0.217,3.159-0.104
		c-0.004,0.317-0.065,0.668-0.164,1.04c-1.502-0.156-3.058,0.042-4.51,0.401c-0.096,0.024-0.056,0.171,0.041,0.148
		c1.491-0.349,2.918-0.377,4.409-0.338c-0.313,1.062-0.868,2.26-1.139,3.279c-0.953,0.089-1.899,0.12-2.867,0.042
		c-0.11-0.009-0.109,0.161,0,0.171c0.935,0.082,1.883,0.096,2.818-0.002c-0.134,0.585-0.162,1.105,0.039,1.484
		c0.64,1.206,2.276,0.916,3.117,0.096c0.145-0.142,0.157-0.328,0.092-0.484c1.215-0.972,2.343-2.044,3.492-3.096
		c1.667-1.527,3.089-2.566,5.388-1.831c0.035,0.326-0.027,0.636-0.13,0.938c-1.071-0.041-2.15,0.003-3.222,0.013
		c-0.098,0.001-0.098,0.151,0,0.152c1.053,0.01,2.114,0.051,3.167,0.014c-0.145,0.352-0.355,0.693-0.583,1.03
		c-1.357,0.077-2.714,0.299-4.062,0.464c-0.105,0.013-0.107,0.179,0,0.167c1.315-0.149,2.652-0.25,3.958-0.476
		c-0.327,0.474-0.674,0.945-0.905,1.434c-0.002,0.005-0.004,0.011-0.006,0.016c-1.097,0.152-2.191,0.334-3.285,0.511
		c-0.093,0.015-0.053,0.153,0.039,0.14c1.06-0.153,2.121-0.303,3.177-0.478c-0.21,0.477-0.389,1.004-0.451,1.542
		c-1.054,0.1-2.107,0.214-3.159,0.323c-0.08,0.008-0.082,0.134,0,0.127c1.047-0.096,2.095-0.187,3.141-0.292
		c-0.031,0.425,0.01,0.849,0.167,1.244c0.394,0.99,1.539,1.439,2.346,1.021c0.025,0,0.048,0.004,0.076-0.001
		c2.46-0.465,6.167-7.036,8.572-3.242c0.013,0.021,0.03,0.033,0.045,0.05c-1.342-0.109-2.722,0.018-4.044,0.222
		c-0.129,0.02-0.073,0.213,0.054,0.195c1.325-0.186,2.617-0.187,3.941-0.183c-0.068,0.274-0.162,0.543-0.354,0.792
		c-0.459,0.599-1.092,1.051-1.646,1.555C45.219,15.962,44.779,16.424,44.473,16.927z"/>
	<path style="fill:#1D1D1B;" d="M25.87,33.831c-1.909,0.292-3.748,0.491-5.681,0.365c-0.091-0.006-0.09,0.134,0,0.141
		c1.902,0.146,3.861,0.103,5.719-0.366C26.001,33.948,25.96,33.817,25.87,33.831z"/>
	<path style="fill:#1D1D1B;" d="M46.132,23.598c-2.569,0.426-5.015,0.632-7.61,0.352c-0.087-0.009-0.084,0.124,0,0.135
		c2.525,0.333,5.175,0.31,7.653-0.334C46.274,23.724,46.23,23.582,46.132,23.598z"/>
	<path style="fill:#1D1D1B;" d="M46.127,14.897c-1.2,0.058-2.398,0.164-3.596,0.259c-0.111,0.009-0.113,0.183,0,0.175
		c1.199-0.08,2.399-0.148,3.596-0.265C46.233,15.055,46.237,14.891,46.127,14.897z"/>
	<path style="fill:#1D1D1B;" d="M27.145,9.97c-1.041-0.092-2.117-0.007-3.163,0.004c-0.08,0.001-0.08,0.123,0,0.124
		c1.045,0.011,2.121,0.096,3.163,0.004C27.231,10.095,27.231,9.977,27.145,9.97z"/>
</g>
<g>
</g>
<g>
</g>
<g>
</g>
<g>
</g>
<g>
</g>
<g>
</g>
<g>
</g>
<g>
</g>
<g>
</g>
<g>
</g>
<g>
</g>
<g>
</g>
<g>
</g>
<g>
</g>
<g>
</g>
</svg>
