<?xml version="1.0" encoding="iso-8859-1"?>
<!-- Generator: Adobe Illustrator 18.0.0, SVG Export Plug-In . SVG Version: 6.00 Build 0)  -->
<!DOCTYPE svg PUBLIC "-//W3C//DTD SVG 1.1//EN" "http://www.w3.org/Graphics/SVG/1.1/DTD/svg11.dtd">
<svg version="1.1" id="Capa_1" xmlns="http://www.w3.org/2000/svg" xmlns:xlink="http://www.w3.org/1999/xlink" x="0px" y="0px"
	 viewBox="0 0 49.694 49.694" style="enable-background:new 0 0 49.694 49.694;" xml:space="preserve">
<g>
	<path style="fill:#1D1D1B;" d="M48.943,0.58c-0.081-0.353-0.502-0.257-0.6,0.022c-0.023-0.006-0.038-0.02-0.063-0.024
		c-2.687-0.381-5.389-0.419-8.099-0.379c-2.472,0.037-5.445-0.311-7.756,0.627c-0.078,0.032-0.119,0.097-0.13,0.164
		c-0.279-0.288-0.867-0.024-0.793,0.47c0.703,4.708,0.654,9.45,0.491,14.193c-2.809,0.024-5.617,0.044-8.425,0.084
		c-2.068,0.03-4.164,0.004-6.268-0.021c0.182-3.946,0.353-7.898,0.262-11.824c0.074-0.086,0.072-0.227-0.012-0.305
		c-0.025-0.918-0.048-1.836-0.107-2.75c-0.007-0.115-0.079-0.195-0.166-0.254c-0.103-0.129-0.258-0.222-0.465-0.237
		C11.615-0.021,6.245-0.041,1.157,1.211C1.15,1.181,1.145,1.151,1.137,1.122c-0.044-0.159-0.268-0.152-0.315,0
		C0.804,1.179,0.794,1.239,0.777,1.297c-0.022,0.006-0.046,0.01-0.068,0.016c-0.353,0.093-0.372,0.57-0.127,0.748
		C0.098,4.367,0.301,6.893,0.251,9.221c-0.05,2.322-0.561,5.219,0.037,7.471c0.05,0.19,0.217,0.372,0.414,0.414
		c0.102,0.021,0.203,0.043,0.305,0.065c0.172,0.036,0.313-0.003,0.423-0.078c4.756,0.316,9.575,0.17,14.386,0.056
		c-0.002,2.024,0.004,4.043-0.015,6.043c-0.026,2.752-0.045,5.507-0.053,8.261c-4.51-0.134-9.08-0.16-13.299,0.662
		c-1.478-0.869-1.917,0.596-2.003,1.932c-0.313,4.862,0.061,9.875-0.179,14.775c-0.027,0.559,0.59,0.699,0.943,0.44
		c5.003,0.689,10.406,0.014,15.432-0.133c0.689-0.02,0.853-0.843,0.497-1.223c0.089-0.1,0.151-0.231,0.149-0.407
		c-0.067-4.745-0.177-9.488-0.24-14.232c2.317-0.098,4.605-0.202,6.805-0.207c2.621-0.006,5.243-0.002,7.865,0.003
		c0.057,4.976,0.197,9.953,0.422,14.92c0.025,0.555,0.57,0.764,0.968,0.623c0.014,0.003,0.032,0.005,0.048,0.007
		c-0.238,0.066-0.281,0.102,1.34,0.22c1.439,0.104,2.887,0.122,4.329,0.159c2.883,0.074,5.772,0.184,8.655,0.202
		c0.167,0.001,0.292-0.053,0.397-0.126c0.119,0.044,0.26,0.046,0.427-0.01c0.09-0.03,0.196-0.106,0.21-0.21
		c0.005-0.037,0.01-0.074,0.015-0.111c0.004-0.03-0.009-0.059-0.015-0.088l0.001,0c0.075-0.024,0.146-1.329,0.151-1.42
		c0.11-1.918-0.035-3.83,0.136-5.75c0.275-3.08,0.559-5.922-0.307-8.906c0.205-0.467-0.017-1.133-0.683-1.134
		c-4.888-0.012-9.778,0.042-14.667,0.099c-0.04-2.813-0.06-5.627-0.009-8.444c0.035-1.956,0.126-3.912,0.209-5.867
		c4.908,0.035,9.817-0.03,14.711-0.335c0.357-0.022,0.564-0.257,0.634-0.526c0.333,0.096,0.759-0.081,0.776-0.536
		C49.655,10.899,50.057,5.416,48.943,0.58z M1.458,48.648c0.175-2.608,0.318-5.22,0.365-7.833c0.013-0.742-0.398-7.71,0.47-8.054
		c4.264,0.81,8.891,0.739,13.451,0.559c0,0.504,0.006,1.008,0.01,1.512c-2.188-0.203-4.459-0.016-6.618,0.315
		c-0.192,0.029-0.149,0.364,0.046,0.342c2.208-0.252,4.366-0.237,6.574-0.228c0.004,0.449,0.005,0.898,0.009,1.347
		c-3.654,0.048-7.316,0.341-10.949,0.708c-0.157,0.016-0.162,0.261,0,0.25c3.65-0.255,7.298-0.36,10.952-0.496
		c0.005,0.547,0.004,1.095,0.011,1.642c-0.027-0.026-0.061-0.044-0.104-0.044c-2.381,0.002-4.811,0.408-7.18,0.646
		c-0.148,0.015-0.153,0.246,0,0.236c2.388-0.159,4.862-0.166,7.223-0.56c0.031-0.005,0.045-0.025,0.064-0.042
		c0.036,2.852,0.103,5.703,0.229,8.551c0.004,0.089,0.028,0.165,0.058,0.235C11.283,47.904,6.148,47.692,1.458,48.648z
		 M16.419,3.377c-4.41-0.64-8.918-0.678-13.352-0.358c-0.145,0.01-0.148,0.234,0,0.228c4.484-0.163,8.865,0.133,13.305,0.602
		c-0.042,0.408-0.085,0.817-0.121,1.226c-2.827-0.39-5.795-0.401-8.632-0.255c-0.169,0.009-0.171,0.26,0,0.264
		c2.874,0.069,5.73,0.296,8.597,0.418c-0.043,0.513-0.092,1.024-0.126,1.539c-0.023-0.013-0.041-0.031-0.073-0.033
		C13.184,6.86,10.279,7.145,7.443,7.24c-0.158,0.005-0.159,0.247,0,0.246c2.836-0.024,5.75,0.137,8.574-0.13
		c0.025-0.002,0.037-0.019,0.056-0.028c-0.081,1.306-0.142,2.615-0.177,3.927c-2.655,0.058-5.272,0.227-7.933,0.117
		c-0.175-0.007-0.172,0.257,0,0.271c2.605,0.204,5.329,0.298,7.926-0.073c-0.016,0.639-0.034,1.278-0.043,1.918
		c-4.135-0.023-8.295,0.266-12.425,0.436c-0.158,0.007-0.159,0.249,0,0.246c4.13-0.08,8.297-0.044,12.421-0.316
		c-0.007,0.616-0.019,1.232-0.022,1.847c-4.777-0.049-9.584-0.026-14.229,0.723c-0.04-0.079-0.093-0.155-0.178-0.217
		c-0.678-0.49,0.055-6.986,0.064-8.137c0.015-1.969,0.203-4.026-0.129-5.975c5.129-0.339,10.14-0.804,15.293-0.47
		C16.556,2.207,16.484,2.791,16.419,3.377z M31.743,23.11c-4.023,0.271-8.05,0.66-12.06,1.074c-0.15,0.016-0.156,0.248,0,0.239
		c4.016-0.234,8.044-0.496,12.05-0.873c-0.011,0.511-0.031,1.023-0.035,1.534c0,0.027,0,0.054,0,0.08
		c-2.837,0.029-5.682,0.229-8.515,0.37c-0.142,0.007-0.143,0.224,0,0.222c2.834-0.058,5.685-0.058,8.515-0.228
		c-0.003,0.692-0.002,1.384,0,2.076c-3.367,0.182-6.708,0.471-10.086,0.474c-0.233,0-0.233,0.36,0,0.362
		c3.351,0.028,6.759-0.015,10.086-0.484c0.001,0.445-0.001,0.891,0,1.336c-0.023-0.007-0.047-0.013-0.07-0.02
		c-0.208-0.059-0.325,0.233-0.145,0.344c-1.21-0.746-5.286,0.268-6.619,0.353c-1.108,0.071-2.216,0.135-3.324,0.194
		c-0.824,0.044-3.43,0.606-4.078,0.233c0.109,0.063,0.19-0.092,0.096-0.164c-0.03-0.023-0.06-0.047-0.091-0.07
		c-0.037-0.028-0.094-0.012-0.124,0.016c-0.037,0.034-0.074,0.068-0.111,0.102c-0.059,0.054-0.047,0.168,0.026,0.205
		c1.508,0.742,4.292,0.078,5.945,0.003c2.835-0.13,5.666-0.327,8.497-0.538c0.002,0.535-0.004,1.069,0,1.603
		c-2.615,0.031-5.23,0.06-7.845,0.08c-2.209,0.017-4.504-0.066-6.828-0.141c-0.025-2.443-0.038-4.885-0.014-7.329
		c0.023-2.339,0.119-4.69,0.225-7.045c2.444-0.053,4.884-0.087,7.311-0.034c2.461,0.054,4.926,0.1,7.39,0.127
		C31.861,19.178,31.79,21.145,31.743,23.11z M47.689,33.02c0.009,0.548,0.031,1.09,0.053,1.632
		c-3.395-0.128-6.854,0.134-10.22,0.522c-0.185,0.021-0.192,0.31,0,0.295c3.419-0.263,6.814-0.293,10.235-0.374
		c0.023,0.574,0.047,1.147,0.056,1.722c-0.054,0.003-0.107,0.021-0.143,0.076c-0.543,0.823-4.547,0.472-5.503,0.523
		c-1.721,0.093-3.442,0.191-5.163,0.29c-0.182,0.01-0.184,0.291,0,0.285c2.725-0.096,5.45-0.2,8.175-0.306
		c0.697-0.027,2.102,0.269,2.64-0.316c0,0.658-0.017,1.319-0.084,1.99c-1.823,0.03-3.67,0.293-5.484,0.449
		c-0.158,0.014-0.162,0.259,0,0.25c1.806-0.108,3.657-0.121,5.455-0.347c-0.089,0.785-0.18,1.567-0.257,2.348
		c-2.161,0.329-4.229,0.624-6.422,0.542c-0.168-0.006-0.166,0.25,0,0.26c2.115,0.124,4.331,0.069,6.393-0.472
		c-0.072,0.773-0.131,1.547-0.155,2.325c-4.239,0.127-8.465,0.385-12.709,0.43c-0.165,0.002-0.165,0.254,0,0.257
		c4.218,0.057,8.499,0.057,12.703-0.329c-0.005,0.292-0.018,0.583-0.013,0.876c0.005,0.277-0.048,1.09,0.033,1.821
		c-4.55-0.294-9.217-0.45-13.767-0.138c-0.101-4.858-0.256-9.711-0.344-14.566C38.009,33.074,42.85,33.079,47.689,33.02z
		 M48.054,15.509c-4.883,0.057-9.766,0.092-14.649,0.13c0.179-4.843,0.188-9.669-0.989-14.431c-0.002-0.007-0.006-0.011-0.008-0.018
		c0.007,0.003,0.009,0.009,0.016,0.012c2.222,0.759,4.861,0.26,7.187,0.222c2.853-0.046,5.669,0.079,8.513,0.303
		c0.034,0.003,0.061-0.01,0.092-0.013c-0.047,0.542-0.07,1.089-0.094,1.637c-4.099-0.144-8.257,0.144-12.344,0.385
		c-0.186,0.011-0.189,0.298,0,0.292c4.1-0.123,8.221-0.031,12.317-0.205c-0.025,0.759-0.033,1.522-0.03,2.288
		C45.611,6.035,43.13,6.2,40.675,6.259c-0.19,0.004-0.191,0.296,0,0.295c2.455-0.005,4.941,0.096,7.392-0.043
		c0.007,0.714,0.02,1.43,0.041,2.146c-2.625,0.351-5.122,0.613-7.785,0.339c-0.24-0.025-0.235,0.345,0,0.373
		c2.545,0.302,5.277,0.351,7.799-0.25c0.044,1.395,0.096,2.789,0.132,4.171c-3.984,0.42-8.171,1.541-12.13,1.189
		c-0.169-0.015-0.162,0.24,0,0.26c2.236,0.278,4.561-0.19,6.791-0.429c1.784-0.191,3.572-0.363,5.35-0.601
		c0.014,0.618,0.024,1.233,0.025,1.845C48.219,15.529,48.144,15.508,48.054,15.509z"/>
	<path style="fill:#1D1D1B;" d="M15.676,45.284c-4.615,0.442-9.189,0.736-13.828,0.651c-0.134-0.002-0.133,0.202,0,0.208
		c4.626,0.188,9.279,0.084,13.872-0.534C15.903,45.584,15.862,45.266,15.676,45.284z"/>
	<path style="fill:#1D1D1B;" d="M14.965,43.075c-3.382,0.371-6.739,0.743-10.142,0.873c-0.135,0.005-0.136,0.213,0,0.211
		c3.399-0.058,6.825-0.223,10.19-0.731C15.21,43.397,15.166,43.053,14.965,43.075z"/>
	<path style="fill:#1D1D1B;" d="M15.503,41.14c-2.251-0.054-4.585,0.385-6.837,0.546c-0.172,0.012-0.175,0.278,0,0.271
		c2.243-0.095,4.681-0.031,6.876-0.527C15.708,41.393,15.666,41.144,15.503,41.14z"/>
	<path style="fill:#1D1D1B;" d="M15.488,9.338c-3.879-0.467-7.851-0.241-11.72,0.211c-0.126,0.015-0.13,0.212,0,0.2
		c3.933-0.361,7.786-0.218,11.72-0.042C15.731,9.718,15.718,9.365,15.488,9.338z"/>
	<path style="fill:#1D1D1B;" d="M31.232,20.498c-2.517,0.232-4.987,0.548-7.521,0.57c-0.195,0.002-0.195,0.3,0,0.302
		c2.509,0.034,5.102-0.008,7.573-0.486C31.499,20.843,31.454,20.477,31.232,20.498z"/>
	<path style="fill:#1D1D1B;" d="M31.407,18.552c-4.127-0.14-8.303,0.127-12.419,0.43c-0.17,0.012-0.173,0.275,0,0.267
		c4.142-0.192,8.277-0.16,12.419-0.271C31.681,18.97,31.68,18.562,31.407,18.552z"/>
	<path style="fill:#1D1D1B;" d="M47.673,11.783c-3.825-0.006-7.733,0.271-11.544,0.609c-0.106,0.009-0.11,0.169,0,0.169
		c3.823-0.009,7.738-0.091,11.544-0.444C47.883,12.098,47.892,11.784,47.673,11.783z"/>
</g>
<g>
</g>
<g>
</g>
<g>
</g>
<g>
</g>
<g>
</g>
<g>
</g>
<g>
</g>
<g>
</g>
<g>
</g>
<g>
</g>
<g>
</g>
<g>
</g>
<g>
</g>
<g>
</g>
<g>
</g>
</svg>
