<?xml version="1.0" encoding="iso-8859-1"?>
<!-- Generator: Adobe Illustrator 18.0.0, SVG Export Plug-In . SVG Version: 6.00 Build 0)  -->
<!DOCTYPE svg PUBLIC "-//W3C//DTD SVG 1.1//EN" "http://www.w3.org/Graphics/SVG/1.1/DTD/svg11.dtd">
<svg version="1.1" id="Capa_1" xmlns="http://www.w3.org/2000/svg" xmlns:xlink="http://www.w3.org/1999/xlink" x="0px" y="0px"
	 viewBox="0 0 49.552 49.552" style="enable-background:new 0 0 49.552 49.552;" xml:space="preserve">
<g>
	<path style="fill:#1D1D1B;" d="M10.32,13.408c0.036-0.247-0.092-0.436-0.264-0.536c-0.016-0.045-0.024-0.091-0.067-0.131
		c-0.624-0.588-1.828-1.055-2.674-0.689c-2.211,0.267-2.358,1.932-2.39,4.052c-0.069,4.65-0.374,9.523,0.148,14.145
		c0.039,0.347,0.324,0.486,0.569,0.429c0.194,0.454,0.589,0.811,1.096,0.989c0.973,0.342,2.159,0.013,3.034-0.457
		c0.101-0.054,0.159-0.131,0.197-0.214c0.068-0.027,0.126-0.078,0.144-0.182C11.123,25.025,9.485,19.17,10.32,13.408z M6.016,30.06
		c0.279-2.613,0.162-5.267,0.159-7.894c-0.002-1.755-0.732-7.552,0.949-9.162c0.038,0.027,0.072,0.062,0.114,0.078
		c0.387,0.148,0.795,0.032,1.196,0.03c0.313-0.001,0.618,0.058,0.923,0.122c-0.612,2.604-0.298,5.145-0.131,7.793
		c0.194,3.081-0.024,6.201,0.277,9.27c-0.037,0.001-0.073-0.003-0.112,0.007C8.363,30.564,6.734,31.226,6.016,30.06z"/>
	<path style="fill:#1D1D1B;" d="M19.046,14.825c0.119-0.01,0.224-0.091,0.213-0.246c-0.041-0.54-0.221-0.975-0.49-1.325
		c-0.005-0.026-0.009-0.052-0.014-0.078c-0.02-0.099-0.099-0.138-0.182-0.146c-0.983-0.988-2.815-1.106-4.18-0.743
		c-0.01,0.003-0.016,0.009-0.026,0.013c-0.19-0.081-0.444-0.006-0.452,0.268c-0.195,5.978-0.157,12.025,0.095,18.001
		c0.018,0.424,0.438,0.568,0.732,0.438c0.946,0.534,2.16,0.647,3.139,0.118c0.779-0.421,1.415-1.337,1.092-2.215
		C19.724,24.336,19.771,19.417,19.046,14.825z M18.333,28.756c-0.016,0.024-0.04,0.041-0.049,0.069
		c-0.249,0.704-0.455,1.306-1.224,1.589c-0.654,0.24-1.362,0.189-2.038,0.093c0.065-5.694-0.071-11.445-0.411-17.134
		c1.189-0.024,2.85-0.338,3.725,0.602C18.462,18.931,18.483,23.803,18.333,28.756z"/>
	<path style="fill:#1D1D1B;" d="M23.076,38.471c-0.038-0.118-0.117-0.186-0.206-0.228c0.003-0.173-0.077-0.347-0.244-0.446
		c-0.475-0.282-1.002-0.196-1.537-0.185c-0.598,0.013-1.201,0.028-1.795,0.095c-0.194,0.022-0.326,0.115-0.409,0.234
		c-0.094,0.031-0.179,0.086-0.218,0.195c-0.544,1.517-0.67,3.043-0.587,4.626c-1.103-0.142-2.347-0.291-3.42-0.117
		c0.286-2.711,0.097-5.535-0.026-8.246c-0.001-0.025-0.013-0.043-0.016-0.066c0.792,0.157,1.607,0.19,2.411,0.232
		c0.875,0.046,1.824,0.195,2.66-0.113c0.237-0.087,0.351-0.275,0.38-0.47c2.211-0.631,2.802-2.762,2.881-5.218
		c0.104-3.253-0.102-6.506,0.031-9.765c0.112-2.738,0.316-5.375-0.538-7.983c0.191-1.413-0.959-2.655-2.207-3.219
		c-1.898-0.858-4.311-0.472-6.323-0.221c0.319-1.741,0.586-3.842,0.283-5.557c-0.223-1.262-1.156-1.031-2.254-0.886
		c-0.963,0.127-2.789-0.061-3.022,1.179C8.763,3.142,8.995,4.159,9.063,4.993c0.083,1.011,0.161,2.017,0.33,3.018
		c0.007,0.044,0.025,0.078,0.042,0.112C6.816,8.02,3.739,7.406,1.993,9.821c-1.486,2.056-1.847,5.811-1.563,8.249
		c0.031,0.261,0.188,0.408,0.369,0.456c-0.294,2.069-0.387,4.138-0.496,6.25c-0.106,2.054-0.659,4.551,0.064,6.513
		c1.308,3.547,5.434,3.657,8.616,3.344c-0.455,2.724-0.499,5.699,0.307,8.346c-2.547-0.418-5.21-0.448-7.775-0.364
		c-0.049-0.014-0.094-0.007-0.143,0.003l-0.008,0c-0.006,0-0.01,0.003-0.015,0.004c-0.023,0.007-0.047,0.003-0.067,0.016
		c-0.245,0.072-0.348,0.398-0.21,0.58c-0.338,1.616-0.43,3.604,0.2,5.097c0.123,0.292,0.431,0.29,0.649,0.145
		c5.603,0.448,11.521,0.721,17.114,0.267c0.131-0.011,0.227-0.062,0.294-0.132c1.614-0.25,3.074-0.909,3.864-2.539
		C24.238,43.897,23.779,40.644,23.076,38.471z M22.267,44.089c-0.38,2.294-2.107,3.06-4.052,3.715
		C12.968,47.227,7.4,47.377,2.15,47.828c-0.01-0.779-0.204-1.559-0.259-2.337c-0.049-0.694-0.075-1.389-0.107-2.084
		c2.651,0.409,5.411,0.729,8.079,0.544c0.302-0.021,0.476-0.334,0.425-0.581c0.054-0.078,0.091-0.173,0.083-0.297
		c-0.21-3.019-0.593-5.953-0.551-8.994c0.002-0.123-0.06-0.214-0.144-0.277c-0.071-0.164-0.224-0.288-0.472-0.277
		c-3.055,0.136-6.889,0.488-7.847-3.792c-0.242-1.079,0.098-2.534,0.148-3.618c0.146-3.134,0.389-6.244,0.047-9.372
		c-0.001-0.006-0.006-0.009-0.007-0.014c0.135-1.958,0.164-4.047,1.095-5.75C3.927,8.62,7.361,8.956,9.695,8.776
		c0.298-0.023,0.378-0.346,0.241-0.525c0.131-0.063,0.236-0.184,0.245-0.347c0.073-1.289,0.022-2.592-0.035-3.881
		c-0.014-0.314-0.22-1.242-0.057-1.5c0.104-0.164,1.326-0.194,1.555-0.228c0.214-0.031,1.42-0.362,1.537-0.274
		c0.188,0.141,0.03,1.656,0.025,1.911c-0.026,1.279-0.182,2.536-0.311,3.806c-0.028,0.275,0.19,0.443,0.427,0.473
		c0.054,0.125,0.171,0.222,0.363,0.228c3.029,0.094,6.907-0.808,7.98,2.883c0.048,0.167,0.191,0.25,0.338,0.262
		c0.133,3.081,0.24,6.156,0.21,9.246c-0.032,3.272,0.571,10.5-2.868,12.441c-0.748-0.173-1.559-0.076-2.317-0.04
		c-0.875,0.042-1.763,0.067-2.62,0.26c-0.191,0.043-0.285,0.211-0.292,0.382c-0.288-0.024-0.589,0.146-0.59,0.526
		c-0.006,2.889-0.09,5.91,0.396,8.765c0.012,0.071,0.054,0.103,0.088,0.144c0.041,0.196,0.17,0.379,0.379,0.449
		c1.116,0.373,2.593,0.155,3.78-0.163c0.244,0.581,1.249,0.525,1.186-0.198c-0.134-1.542-0.094-3.091-0.059-4.636
		c0.592,0.067,1.196,0.082,1.792,0.095c0.422,0.009,0.837,0.057,1.227-0.058C22.266,40.569,22.562,42.31,22.267,44.089z"/>
	<path style="fill:#1D1D1B;" d="M49.369,3.732c-0.086-0.931-0.15-1.874-0.32-2.794c-0.094-0.508-0.774-0.407-0.912,0.007
		c-8.437-0.546-17.151-0.302-25.6-0.001c-0.387,0.014-0.509,0.401-0.375,0.662c-0.14,0.01-0.273,0.102-0.286,0.296
		c-0.058,0.871-0.066,1.731-0.04,2.603c0.019,0.608-0.006,1.225,0.191,1.792c0.002,0.008,0.006,0.015,0.008,0.022
		c0.034,0.094,0.058,0.189,0.106,0.279c0.14,0.262,0.495,0.211,0.634-0.015c2.676,0.18,5.357,0.294,8.04,0.233
		c-0.929,13.625-0.437,27.6-0.277,41.252c0.007,0.616,0.679,0.784,1.068,0.52c1.652,0.05,3.296,0.022,4.929-0.286
		c0.516-0.098,0.561-0.723,0.273-1.047c0.435-6.594,0.041-13.337-0.111-19.936c-0.149-6.478-0.038-12.975-0.29-19.449
		c0.265-0.095,0.444-0.32,0.493-0.614c3.878,0.016,7.759-0.183,11.638-0.178c0.17,0,0.298-0.059,0.405-0.14
		c0.228,0.013,0.451-0.106,0.519-0.393C49.676,5.637,49.455,4.655,49.369,3.732z M36.24,6.163c-0.226,0.029-0.463,0.198-0.54,0.413
		c-0.094,0.067-0.164,0.172-0.167,0.325c-0.003,0.119-0.001,0.238-0.004,0.357c-0.182,0.079-0.257,0.332-0.043,0.465
		c0.013,0.008,0.025,0.01,0.038,0.017c-0.13,6.52,0.114,13.057,0.093,19.579c-0.021,6.547-0.275,13.236,0.271,19.769
		c-1.355,0.075-2.687,0.32-4.006,0.633c0.14-13.546,0.591-27.405-0.354-40.916c0.004,0,0.007,0,0.011,0
		c0.588-0.021,0.579-0.865,0-0.907c-2.875-0.209-5.755-0.194-8.633-0.112c-0.007-0.484-0.106-0.981-0.154-1.454
		c-0.081-0.81-0.155-1.62-0.243-2.43c-0.004-0.034-0.028-0.049-0.039-0.077c0.024,0.004,0.042,0.014,0.067,0.015
		c8.436,0.3,17.139,0.544,25.564,0c0,0.699,0.026,1.401,0.05,2.097c0.02,0.562-0.004,1.156,0.056,1.727
		C44.226,5.64,40.191,5.653,36.24,6.163z"/>
	<path style="fill:#1D1D1B;" d="M48.782,29.06c-1.812-3.923-4.051-7.755-6.89-11.028c-0.163-0.188-0.406-0.108-0.519,0.06
		c-0.052-0.031-0.111-0.055-0.184-0.066c-0.865-0.127-1.766,0.406-2.442,0.907c-0.547,0.406-1.382,1.032-1.261,1.794
		c0.007,0.047,0.044,0.085,0.081,0.121c0.147,1.734,1.773,3.831,2.611,5.289c1.225,2.133,2.524,4.302,4.087,6.206
		c0.396,0.483,1.086,0.031,1.076-0.49c0.934-0.455,1.889-0.975,2.663-1.655c0.023-0.02,0.031-0.045,0.05-0.067
		C48.527,30.163,49.051,29.642,48.782,29.06z M47.179,29.129c-0.809,0.52-1.553,1.187-2.283,1.832
		c-0.985-1.621-2.098-3.173-3.125-4.766c-0.541-0.839-1.091-1.673-1.627-2.515c-0.244-0.383-1.797-2.373-1.828-2.94
		c0.365-0.222,0.694-0.579,1.028-0.787c0.615-0.383,1.408-0.479,1.981-0.888c0.097-0.069,0.168-0.176,0.212-0.295
		c1.94,3.433,3.91,6.818,5.676,10.345C47.202,29.123,47.191,29.122,47.179,29.129z"/>
</g>
<g>
</g>
<g>
</g>
<g>
</g>
<g>
</g>
<g>
</g>
<g>
</g>
<g>
</g>
<g>
</g>
<g>
</g>
<g>
</g>
<g>
</g>
<g>
</g>
<g>
</g>
<g>
</g>
<g>
</g>
</svg>
