<?xml version="1.0" encoding="iso-8859-1"?>
<!-- Generator: Adobe Illustrator 18.0.0, SVG Export Plug-In . SVG Version: 6.00 Build 0)  -->
<!DOCTYPE svg PUBLIC "-//W3C//DTD SVG 1.1//EN" "http://www.w3.org/Graphics/SVG/1.1/DTD/svg11.dtd">
<svg version="1.1" id="Capa_1" xmlns="http://www.w3.org/2000/svg" xmlns:xlink="http://www.w3.org/1999/xlink" x="0px" y="0px"
	 viewBox="0 0 49.384 49.384" style="enable-background:new 0 0 49.384 49.384;" xml:space="preserve">
<g>
	<path style="fill:#1D1D1B;" d="M21.733,19.061c-0.748-1.703-1.983-3.253-3.006-4.805c-0.929-1.41-1.808-2.875-2.985-4.095
		c-0.17-0.176-0.484-0.069-0.553,0.137c-2.545-0.13-5.17-0.299-7.721-0.253c-0.002,0-0.003-0.003-0.005-0.003
		c-0.591-0.12-1.172,0.209-1.267,0.83c-0.031,0.204,0.042,0.397,0.222,0.493c-0.048,0.1-0.054,0.216,0.026,0.331
		c0.884,1.278,1.871,2.492,2.862,3.688c0.812,0.979,1.608,2.188,2.609,3.024C8.36,22.763,6.736,28.448,3.758,33.193
		c-0.118,0.189-0.101,0.368-0.02,0.515c-0.068,0.239,0.056,0.521,0.399,0.543c1.591,0.101,3.177,0.147,4.765,0.302
		c1.353,0.132,2.724,0.519,4.065,0.28c0.159,0.033,0.338-0.016,0.463-0.188c3.33-4.59,5.949-9.766,8.248-14.936
		c0.033-0.073,0.046-0.145,0.049-0.215C21.783,19.361,21.797,19.208,21.733,19.061z M20.3,19.992
		c-1.429-0.348-2.954-0.367-4.412-0.264c-0.118,0.008-0.12,0.192,0,0.186c1.468-0.08,2.872,0.074,4.323,0.249
		c-0.181,0.348-0.36,0.697-0.541,1.046c-2.304-0.111-4.638,0-6.944,0.012c-0.126,0.001-0.127,0.195,0,0.196
		c2.267,0.012,4.561,0.118,6.828,0.016c-0.352,0.678-0.694,1.362-1.052,2.035c-0.934-0.003-1.852-0.029-2.794-0.164
		c-0.106-0.015-0.155,0.145-0.045,0.165c0.886,0.163,1.809,0.262,2.718,0.227c-0.274,0.514-0.546,1.029-0.823,1.542
		c-0.907,0.011-1.798-0.026-2.708-0.175c-0.081-0.014-0.118,0.108-0.035,0.126c0.86,0.187,1.748,0.278,2.63,0.257
		c-0.535,0.988-1.068,1.976-1.608,2.961c-1.24-0.058-2.506,0.017-3.743,0.03c-0.065,0.001-0.065,0.101,0,0.101
		c1.207,0.012,2.441,0.084,3.652,0.034c-0.338,0.615-0.676,1.231-1.013,1.847c-1.227-0.08-2.467-0.078-3.693-0.12
		c-0.08-0.003-0.08,0.121,0,0.125c1.192,0.057,2.395,0.156,3.592,0.179c-0.291,0.531-0.583,1.062-0.872,1.594
		c-1.406,0.043-2.798,0.023-4.204-0.137c-0.085-0.01-0.083,0.122,0,0.133c1.358,0.172,2.731,0.252,4.1,0.196
		c-0.263,0.485-0.529,0.967-0.788,1.454c-1.101-0.507-2.43-0.519-3.628-0.591c-1.399-0.084-2.821-0.082-4.223,0.038
		c2.839-4.596,5.084-9.656,7.491-14.485c0.184,0.028,0.396-0.141,0.318-0.337c-0.507-1.259-1.609-2.346-2.461-3.392
		c-1.048-1.288-2.104-2.582-3.258-3.779c0.099-0.086,0.089-0.274-0.032-0.333c0.082,0.04,0.278-0.026,0.436-0.108
		c2.498,0.706,5.39,0.711,7.904,0.245c0.019-0.004,0.031-0.014,0.049-0.019c0.334,0.714,0.724,1.4,1.137,2.073
		c-1.635-0.218-3.283-0.234-4.928-0.119c-0.098,0.007-0.1,0.159,0,0.154c1.7-0.089,3.373,0.005,5.063,0.191
		c0.002,0,0.003-0.002,0.006-0.002c0.362,0.58,0.735,1.154,1.103,1.728c-1.352-0.042-2.713,0.009-4.064,0.02
		c-0.1,0.001-0.101,0.155,0,0.156c1.392,0.012,2.796,0.069,4.187,0.019c0.444,0.702,0.878,1.426,1.333,2.136
		c-1.486-0.033-2.981,0.024-4.466,0.036c-0.064,0.001-0.064,0.099,0,0.099c1.523,0.013,3.056,0.075,4.58,0.036
		c0.385,0.592,0.786,1.173,1.233,1.708C20.537,19.545,20.417,19.767,20.3,19.992z"/>
	<path style="fill:#1D1D1B;" d="M38.127,16.06c2.708-4.81,5.313-9.715,7.521-14.776c0.222-0.508-0.187-0.968-0.6-0.994
		c-0.096-0.191-0.301-0.33-0.596-0.28c-1.591,0.269-3.162,0.271-4.767,0.183c-1.16-0.064-2.354-0.265-3.449,0.098
		c-0.149-0.054-0.329-0.027-0.449,0.148c-6.21,9.052-11.209,19.215-15.872,29.134c-0.16,0.341,0.024,0.657,0.284,0.793
		c2.809,6.272,6.419,12.439,10.032,18.275c0.123,0.199,0.306,0.262,0.479,0.241c0.061,0.065,0.146,0.113,0.26,0.125
		c3.001,0.315,6.323,0.621,9.31,0.073c0.291-0.053,0.393-0.263,0.372-0.48c0.036-0.095,0.039-0.206-0.014-0.321
		c-3.054-6.701-6.576-13.198-10.407-19.485c-0.053-0.088-0.118-0.151-0.189-0.198c0.096-0.064,0.17-0.174,0.185-0.343
		c0.018-0.194,0.035-0.388,0.053-0.582c0.055,0.004,0.109,0.008,0.164,0.012c0.094,0.007,0.118-0.125,0.05-0.169
		C33.731,26.058,36.456,19.029,38.127,16.06z M31.114,24.765c-1.348-0.079-2.706-0.106-4.05-0.132c-0.09-0.002-0.089,0.134,0,0.139
		c1.305,0.083,2.623,0.163,3.937,0.198c-0.442,0.801-0.871,1.607-1.262,2.427c-1.232-0.151-2.504-0.127-3.726-0.019
		c-0.093,0.008-0.096,0.153,0,0.148c1.223-0.062,2.411,0.009,3.616,0.098c-0.065,0.139-0.138,0.275-0.201,0.414
		c-0.104,0.23-0.036,0.41,0.093,0.517c-0.318,0.119-0.555,0.468-0.335,0.852c0.119,0.208,0.235,0.417,0.353,0.626
		c-1.927-0.156-3.917-0.209-5.845-0.169c-0.068,0.001-0.065,0.097,0,0.103c1.96,0.189,3.993,0.292,5.965,0.278
		c0.366,0.648,0.733,1.297,1.097,1.946c-1.369-0.028-2.743,0.012-4.112,0.024c-0.085,0.001-0.086,0.132,0,0.133
		c1.402,0.012,2.81,0.056,4.213,0.023c0.281,0.501,0.566,1.001,0.846,1.502c-0.895-0.051-1.864-0.055-2.74,0.056
		c-0.05,0.006-0.05,0.072,0,0.078c0.91,0.115,1.923,0.11,2.845,0.053c0.24,0.43,0.485,0.858,0.726,1.288
		c-2.111-0.007-4.207,0.035-6.319-0.074c-0.082-0.004-0.08,0.12,0,0.127c2.117,0.177,4.288,0.28,6.41,0.109
		c0.444,0.794,0.897,1.582,1.339,2.377c-1.876-0.035-3.759,0.015-5.633,0.026c-0.08,0-0.08,0.124,0,0.124
		c1.907,0.011,3.822,0.063,5.731,0.024c0.306,0.551,0.615,1.101,0.921,1.652c-1.377,0.073-2.738,0.139-4.121,0.086
		c-0.07-0.003-0.068,0.103,0,0.108c1.393,0.099,2.82,0.123,4.213-0.028c0.374,0.673,0.75,1.345,1.123,2.019
		c-2.478,0.049-4.984,0.2-7.447,0.424c-0.058,0.005-0.061,0.093,0,0.093c2.506-0.023,5.049-0.126,7.551-0.33
		c0.304,0.55,0.611,1.098,0.916,1.649c-1.345,0.029-2.686,0.098-4.037,0.061c-0.089-0.002-0.088,0.133,0,0.137
		c1.367,0.071,2.78,0.124,4.157,0.019c0.397,0.718,0.797,1.435,1.193,2.153c-1.57-0.047-3.149,0.003-4.719,0.011
		c-0.107,0-0.107,0.166,0,0.167c1.604,0.008,3.218,0.063,4.822,0.01c0.314,0.569,0.63,1.137,0.945,1.706
		c-2.752-0.24-5.677,0.058-8.42,0.24c-0.01-0.039-0.013-0.076-0.033-0.116c-3.058-6.08-6.394-12.329-10.23-17.964
		c0.002-0.003,0.004-0.004,0.006-0.008c4.878-9.833,10.417-19.292,15.404-29.056c1.185,0.52,2.72,0.444,3.966,0.501
		c1.371,0.063,2.655,0.024,3.939-0.38c-0.56,1.105-1.125,2.204-1.687,3.306c-2.341-0.135-4.68-0.179-7.021-0.395
		c-0.114-0.01-0.109,0.161,0,0.175c2.248,0.299,4.59,0.542,6.877,0.502c-0.451,0.883-0.9,1.769-1.353,2.651
		c-1.276-0.095-2.567-0.105-3.841-0.159c-0.14-0.006-0.139,0.209,0,0.217c1.225,0.073,2.462,0.191,3.693,0.232
		c-0.284,0.552-0.56,1.108-0.846,1.659c-1.516-0.096-3.002-0.152-4.507-0.409c-0.119-0.02-0.171,0.16-0.05,0.183
		c1.449,0.278,2.958,0.5,4.439,0.454c-0.319,0.612-0.628,1.229-0.953,1.838c-0.018-0.023-0.042-0.041-0.077-0.04
		c-1.938,0.059-3.762,0.036-5.677-0.334c-0.104-0.02-0.15,0.136-0.044,0.161c1.842,0.433,3.819,0.641,5.703,0.388
		c-0.491,0.918-0.985,1.834-1.494,2.744c-1.308-0.163-2.638-0.194-3.953-0.274c-0.481-0.029-2.205-0.447-2.58-0.034
		c-0.256,0.283-0.225,0.597,0.235,0.513c0.034-0.006,0.053-0.041,0.055-0.072l0.007-0.111c0.006-0.094-0.132-0.089-0.143,0
		c0.052-0.423,4.944,0.102,6.26,0.192c-0.642,1.138-1.324,2.265-2.018,3.388c-1.023-0.137-2.056-0.23-3.071-0.408
		c-0.119-0.021-0.171,0.159-0.05,0.183c0.947,0.192,1.945,0.402,2.938,0.521c-0.438,0.707-0.877,1.414-1.317,2.121
		c-0.819-0.047-1.64-0.087-2.457-0.132c-0.12-0.007-0.118,0.177,0,0.186c0.771,0.056,1.543,0.118,2.316,0.174
		c-0.444,0.715-0.885,1.431-1.317,2.151c-1.106-0.099-2.208-0.191-3.312-0.388c-0.074-0.013-0.106,0.099-0.031,0.114
		c1.043,0.208,2.13,0.404,3.212,0.498C31.794,23.592,31.443,24.174,31.114,24.765z"/>
	<path style="fill:#1D1D1B;" d="M16.522,26.725c-1.889-0.144-3.799-0.139-5.693-0.199c-0.084-0.003-0.084,0.127,0,0.131
		c1.893,0.08,3.798,0.227,5.693,0.222C16.622,26.879,16.62,26.732,16.522,26.725z"/>
</g>
<g>
</g>
<g>
</g>
<g>
</g>
<g>
</g>
<g>
</g>
<g>
</g>
<g>
</g>
<g>
</g>
<g>
</g>
<g>
</g>
<g>
</g>
<g>
</g>
<g>
</g>
<g>
</g>
<g>
</g>
</svg>
