<?xml version="1.0" encoding="iso-8859-1"?>
<!-- Generator: Adobe Illustrator 18.0.0, SVG Export Plug-In . SVG Version: 6.00 Build 0)  -->
<!DOCTYPE svg PUBLIC "-//W3C//DTD SVG 1.1//EN" "http://www.w3.org/Graphics/SVG/1.1/DTD/svg11.dtd">
<svg version="1.1" id="Capa_1" xmlns="http://www.w3.org/2000/svg" xmlns:xlink="http://www.w3.org/1999/xlink" x="0px" y="0px"
	 viewBox="0 0 49.165 49.165" style="enable-background:new 0 0 49.165 49.165;" xml:space="preserve">
<g>
	<path style="fill:#1D1D1B;" d="M23.613,1.1c-0.047-0.175-0.266-0.199-0.382-0.105c-2.508-2.662-12.024,0.525-12.417,3.61
		c-0.049,0.06-0.092,0.129-0.104,0.221c-0.262,1.954,1.319,3.812,2.226,5.479c1.497,2.753,3.048,5.468,4.795,8.072
		c1.296,1.932,3.704,6.642,6.604,5.063c0.26,0.1,0.634-0.038,0.667-0.407C25.653,15.776,25.506,8.172,23.613,1.1z M20.713,20.105
		c1.137,0.312,2.303,0.384,3.456,0.191c-0.015,0.85-0.04,1.702-0.079,2.558c-3.407-0.114-6.294-6.625-7.75-9.096
		c-1.562-2.652-3.395-5.402-4.573-8.28c-0.988-3.149,9.561-5.071,11.443-3.721c0.205,2.331,0.388,4.64,0.549,6.944
		c-2.277-0.027-4.505-0.086-6.768-0.421c-0.114-0.017-0.164,0.157-0.048,0.175c2.247,0.355,4.553,0.583,6.83,0.456
		c0.059,0.852,0.126,1.705,0.173,2.557c-1.89-0.198-3.82-0.183-5.719-0.257c-0.111-0.004-0.111,0.168,0,0.173
		c1.9,0.091,3.824,0.277,5.727,0.242c0.057,1.03,0.105,2.06,0.141,3.092c-1.788-0.036-3.581,0.006-5.368,0.017
		c-0.094,0.001-0.094,0.145,0,0.146c1.789,0.011,3.584,0.053,5.374,0.017c0.024,0.717,0.056,1.432,0.067,2.151
		c-1.564,0.257-3.059,0.281-4.654-0.123c-0.101-0.026-0.144,0.13-0.043,0.157c1.529,0.402,3.15,0.517,4.702,0.2
		c0.012,0.949,0.017,1.9,0.002,2.855c-1.151,0.169-2.274,0.147-3.425-0.155C20.667,19.96,20.633,20.083,20.713,20.105z"/>
	<path style="fill:#1D1D1B;" d="M36.431,14.697c-0.088-0.284-0.377-0.496-0.673-0.27c-2.371,1.811-10.957,9.144-6.722,12.36
		c0.132,0.1,0.286,0.06,0.395-0.037c1.16,0.991,2.777,0.79,4.389,0.479c3.125-0.604,6.374-1.052,8.853-3.198
		c0.206-0.178,0.202-0.423,0.096-0.623C43.429,19.905,39.578,15.84,36.431,14.697z M41.875,23.223
		c-3.131,0.338-6.247,0.649-9.399,0.762c-0.077,0.003-0.078,0.122,0,0.12c2.985-0.073,5.983-0.243,8.948-0.627
		c-1.704,0.99-3.367,1.581-5.341,2.049c-1.873,0.444-5.48,2.014-6.842,0.085c-0.01-0.014-0.022-0.02-0.032-0.031
		c-0.516-2.123,2.085-4.895,3.227-6.226c1.157-1.349,2.467-2.552,3.646-3.876c0.919,0.784,1.956,1.569,2.903,2.43
		c-1.584-0.088-3.18-0.096-4.76-0.154c-0.103-0.004-0.103,0.155,0,0.16c1.678,0.086,3.369,0.226,5.054,0.27
		c0.505,0.478,0.979,0.979,1.382,1.52c-2.057-0.119-4.131-0.132-6.187-0.184c-0.099-0.003-0.099,0.149,0,0.154
		c2.109,0.1,4.235,0.243,6.35,0.267c0.283,0.408,0.539,0.831,0.727,1.288c-0.017-0.004-0.035-0.008-0.052-0.012
		c-0.116-0.028-0.165,0.146-0.049,0.179c0.073,0.021,0.134,0.039,0.186,0.056c0.014,0.038,0.025,0.077,0.039,0.115
		c-0.354-0.015-1.123-0.118-1.333-0.118c-0.711,0-1.423,0.001-2.135,0.002c-1.66,0.003-3.321,0.011-4.981,0.017
		c-0.109,0-0.109,0.168,0,0.169c2.829,0.02,5.658,0.041,8.487,0.042c0.149,0.465,0.248,0.955,0.27,1.481
		C41.947,23.184,41.911,23.2,41.875,23.223z"/>
	<path style="fill:#1D1D1B;" d="M43.227,37.698c-0.124-0.08-0.248-0.159-0.372-0.239c0.006-0.463-0.005-0.932-0.034-1.41
		c0.102-0.158,0.095-0.384-0.111-0.511c-2.134-1.32-4.694-2.185-7.024-3.119c-1.744-0.699-3.43-1.433-5.263-1.118
		c-0.128-0.159-0.343-0.226-0.507-0.016c-0.041,0.052-0.069,0.107-0.107,0.16c-0.025,0.007-0.049,0.009-0.074,0.017
		c-0.211,0.067-0.286,0.283-0.243,0.463c-0.812,1.463-0.641,3.053,0.138,4.641c1.352,2.754,3.574,5.634,5.674,7.847
		c0.213,0.225,0.5,0.146,0.655-0.044c0.009,0.005,0.014,0.012,0.023,0.016c1.681,0.742,3.771-0.969,4.96-2.042
		c1.382-1.247,1.819-2.777,1.9-4.439c0.109-0.001,0.219,0,0.328-0.002C43.283,37.9,43.317,37.756,43.227,37.698z M41.953,37.728
		c-0.218-0.02-0.432-0.044-0.557-0.043c-0.592,0.004-1.184,0.012-1.776,0.018c-1.382,0.014-2.764,0.021-4.144,0.084
		c-0.035,0.001-0.035,0.053,0,0.055c2.143,0.086,4.294,0.084,6.441,0.066c-0.075,0.392-0.167,0.778-0.297,1.152
		c-0.292-0.103-0.585-0.207-0.877-0.311c-0.074-0.026-0.103,0.088-0.032,0.116c0.49,0.195,1.256,0.263,0.273,0.425
		c-0.548,0.091-1.115,0.121-1.669,0.159c-1.197,0.082-2.389,0.069-3.588,0.058c-0.052,0-0.051,0.076,0,0.08
		c1.906,0.166,3.861,0.096,5.759-0.179c-0.21,0.51-0.478,0.998-0.837,1.448c-1.913,0.41-3.707,0.558-5.663,0.169
		c-0.074-0.015-0.106,0.097-0.031,0.114c1.799,0.399,3.721,0.449,5.505-0.054c-0.895,1.046-2.807,2.87-4.195,2.635
		c-0.106-0.018-0.205,0.017-0.286,0.076c-1.786-3.279-6.896-7.518-5.622-11.603c1.826,0.039,3.578,0.629,5.307,1.357
		c-1.556-0.27-3.115-0.528-4.675-0.777c-0.08-0.013-0.116,0.109-0.034,0.124c1.787,0.325,3.576,0.644,5.369,0.939
		c1.38,0.606,2.749,1.264,4.133,1.773c-2.477-0.385-4.996-0.657-7.478-0.893c-0.083-0.008-0.103,0.134-0.02,0.147
		c2.9,0.474,5.86,0.921,8.789,1.167c0.122,0.035,0.244,0.072,0.367,0.104C42.094,36.669,42.043,37.203,41.953,37.728z"/>
	<path style="fill:#1D1D1B;" d="M20.855,29.378c0.008-2.496-4.038-3.25-5.888-4.042c-1.74-0.745-5.039-2.979-7.033-1.831
		c-2.709,0.921-3.255,13.361,1.625,11.297c1.928-0.011,3.916-1.076,5.656-1.752c1.673-0.649,4.192-1.179,5.222-2.73
		c0.091-0.136-0.004-0.282-0.132-0.331c0.208,0.088,0.489,0.027,0.53-0.236c0.01-0.066,0.005-0.126,0.011-0.189
		C20.923,29.532,20.925,29.429,20.855,29.378z M20.112,29.996c-0.781,0.463-1.674,0.806-2.585,1.116
		c-0.012-0.01-0.014-0.032-0.033-0.029c-2.961,0.341-5.799,0.53-8.771,0.189c-0.08-0.009-0.078,0.115,0,0.125
		c2.655,0.337,5.4,0.416,8.052-0.034c-0.773,0.249-1.545,0.49-2.259,0.765c-1.796,0.692-3.823,1.84-5.755,2.015
		c-1.559-0.83-1.667-3.373-1.659-4.933c0.003-0.745-0.052-3.727,0.618-4.994c0.019-0.005,0.037,0.003,0.057-0.009
		c1.802-1.079,5.209,1.101,6.845,1.822c0.753,0.332,2.738,0.996,4.093,1.868c-2.879-0.515-5.821-0.78-8.737-0.913
		c-0.068-0.003-0.067,0.101,0,0.105c3.056,0.208,6.062,0.613,9.091,1.053c0.528,0.393,0.912,0.821,0.988,1.278
		c-3.36-0.73-7.419-0.271-10.829-0.15c-0.077,0.003-0.078,0.121,0,0.12c3.62-0.033,7.227,0.044,10.843,0.171
		c0.001,0.031,0.011,0.06,0.009,0.091c-0.009,0.149,0.074,0.256,0.187,0.318C20.215,29.96,20.161,29.967,20.112,29.996z"/>
	<path style="fill:#1D1D1B;" d="M25.759,36.681c-0.012-0.003-0.023-0.004-0.035-0.007c-0.151-1.052-0.529-2.015-1.467-2.738
		c-0.102-0.079-0.208-0.008-0.253,0.091c-1.73-0.891-3.749,0.915-4.907,2.121c-2.171,2.262-4.048,5.142-5.724,7.774
		c-0.237,0.372,0.049,0.799,0.4,0.913c1.394,3.33,7.097,4.556,10.247,4.295c0.227-0.019,0.395-0.171,0.479-0.355
		c0.225,0.073,0.499-0.001,0.551-0.282c0.558-3.012,0.68-6.18,0.751-9.239c0.019-0.811,0.037-1.63-0.055-2.406
		C25.831,36.828,25.858,36.704,25.759,36.681z M24.001,34.804c0.062,0.026,0.116,0.027,0.166,0.018
		c-0.15,0.314-0.097,0.654,0.162,1.021c0.045,0.194,0.068,0.391,0.102,0.587c-1.255-0.19-2.52-0.246-3.798-0.201
		C21.692,35.136,22.893,34.345,24.001,34.804z M24.609,40.7c-1.637-0.049-3.244-0.167-4.863-0.463
		c-0.091-0.017-0.131,0.122-0.039,0.14c1.61,0.315,3.252,0.516,4.896,0.518c-0.004,0.13-0.009,0.261-0.012,0.39
		c-0.024,0.777-0.068,1.553-0.12,2.328c-1.779-0.339-3.625-0.458-5.422-0.355c-0.059,0.003-0.06,0.092,0,0.092
		c0.059,0,0.118,0,0.178,0c0.057,0,0.057-0.088,0-0.089c1.732,0.031,3.501,0.256,5.232,0.532c-0.043,0.633-0.088,1.265-0.13,1.898
		c-2.043-0.151-4.059-0.308-6.085-0.693c-0.098-0.019-0.14,0.131-0.042,0.151c2.002,0.395,4.066,0.694,6.115,0.709
		c-0.048,0.736-0.091,1.473-0.112,2.21c-0.014-0.004-0.023-0.012-0.038-0.015c-3.405-0.701-7.263-0.745-9.805-3.409
		c1.308-1.636,2.474-3.39,3.697-5.09c0.501-0.696,1.387-2.058,2.423-3.168c1.344-0.033,2.666,0.064,3.986,0.259
		c0.09,0.565,0.153,1.133,0.158,1.707c0.001,0.03,0,0.06,0.001,0.09c-1.465-0.097-2.935-0.142-4.402-0.21
		c-0.09-0.004-0.089,0.134,0,0.139c1.467,0.087,2.936,0.196,4.404,0.253C24.651,39.316,24.633,40.009,24.609,40.7z"/>
	<path style="fill:#1D1D1B;" d="M23.47,6.131c-2.404-0.268-4.81-0.368-7.21-0.714c-0.127-0.018-0.183,0.176-0.054,0.195
		c2.385,0.362,4.848,0.731,7.264,0.681C23.577,6.291,23.572,6.142,23.47,6.131z"/>
	<path style="fill:#1D1D1B;" d="M23.233,3.374c-2.481-0.319-5.008-0.387-7.507-0.413c-0.129-0.001-0.129,0.198,0,0.2
		c2.513,0.051,5.002,0.272,7.507,0.449C23.388,3.621,23.38,3.392,23.233,3.374z"/>
</g>
<g>
</g>
<g>
</g>
<g>
</g>
<g>
</g>
<g>
</g>
<g>
</g>
<g>
</g>
<g>
</g>
<g>
</g>
<g>
</g>
<g>
</g>
<g>
</g>
<g>
</g>
<g>
</g>
<g>
</g>
</svg>
