<?xml version="1.0" encoding="iso-8859-1"?>
<!-- Generator: Adobe Illustrator 18.0.0, SVG Export Plug-In . SVG Version: 6.00 Build 0)  -->
<!DOCTYPE svg PUBLIC "-//W3C//DTD SVG 1.1//EN" "http://www.w3.org/Graphics/SVG/1.1/DTD/svg11.dtd">
<svg version="1.1" id="Capa_1" xmlns="http://www.w3.org/2000/svg" xmlns:xlink="http://www.w3.org/1999/xlink" x="0px" y="0px"
	 viewBox="0 0 48.238 48.238" style="enable-background:new 0 0 48.238 48.238;" xml:space="preserve">
<g>
	<path style="fill:#1D1D1B;" d="M33.061,0.757c-2.503-0.909-5.223-0.98-7.792-0.317c-1.584,0.409-3.097,1.082-4.438,2.026
		c-0.097,0.068-2.495,2.295-3.214,3.296c-0.016-0.049-0.033-0.091-0.072-0.127c0.367-0.808,0.695-2.077-0.194-2.382
		c-0.589-0.202-1.407,0.007-2.017,0.049c-0.89,0.062-1.779,0.112-2.665,0.223c-0.298,0.037-0.442,0.289-0.424,0.516
		c-0.019,0.028-0.039,0.056-0.05,0.092C8.11,17.741,7.336,33.136,6.944,47.253c-0.007,0.248,0.11,0.411,0.269,0.509
		c-0.061,0.167,0.076,0.346,0.227,0.394c1.168,0.371,3.012-0.634,4.145-0.973c1.845-0.553,3.69-1.106,5.523-1.699
		c0.162,0.004,0.321-0.055,0.436-0.171c0.174-0.126,0.219-0.34,0.161-0.523c0.108-8.179-0.605-16.385-0.309-24.556
		c0.182-5.029,1.013-11.144,6.681-12.908c1.764-0.549,4.516-0.675,6.325-0.016c3.681,1.34,4.553,4.509,4.928,7.768
		c-0.361,4.006-2.015,8.613-6.864,8.721c-2.344,0.052-4.907-1.396-5.031-3.972c-0.072-1.503,0.625-2.966,1.044-4.422
		c1.052-1.361,2.643-2.42,4.293-1.03c0.734,0.618,1.121,1.637,0.643,2.535c-0.392,0.734-1.196,1.17-1.88,1.595
		c-0.048,0.03-0.074,0.074-0.089,0.12c-0.028-0.006-0.055-0.012-0.083-0.017c-0.403-0.081-0.684,0.374-0.4,0.688
		c1.216,1.344,3.608,0.95,4.945,0.004c1.344-0.95,1.923-2.408,1.834-3.958c0.539-3.768-3.789-6.62-7.308-6.231
		c-4.062,0.449-7.216,3.842-7.381,7.81c-0.135,0.076-0.245,0.203-0.267,0.393c-0.678,5.686,3.777,10.865,9.555,11.016
		c6.484,0.169,11.654-5.027,12.703-11.207C42.144,10.66,39.608,3.134,33.061,0.757z M40.178,14.872
		c-0.939-0.098-1.951,0.019-2.883,0.04c-0.136,0.003-0.136,0.208,0,0.211c0.926,0.021,1.93,0.137,2.863,0.042
		c-0.033,0.446-0.077,0.89-0.146,1.329c-0.016-0.016-0.032-0.032-0.057-0.036c-0.914-0.135-1.913-0.012-2.835,0.004
		c-0.167,0.003-0.168,0.257,0,0.26c0.923,0.016,1.921,0.138,2.835,0.004c0.011-0.002,0.015-0.011,0.024-0.016
		c-0.139,0.807-0.334,1.599-0.596,2.359c-0.804-0.056-1.636,0.018-2.439,0.034c-0.145,0.003-0.145,0.222,0,0.225
		c0.764,0.016,1.555,0.081,2.322,0.04c-0.243,0.654-0.521,1.29-0.858,1.886c-0.903,0.198-1.703,0.388-2.647,0.25
		c-0.171-0.025-0.249,0.233-0.073,0.264c0.781,0.142,1.672,0.163,2.455-0.082c-0.351,0.564-0.73,1.106-1.17,1.592
		c-0.194,0.214-0.397,0.414-0.603,0.609c-1.486-0.037-3.043,0.165-4.5,0.283c-0.12,0.01-0.124,0.191,0,0.19
		c1.304-0.012,2.697,0.045,4.033-0.062c-0.62,0.523-1.278,0.976-1.97,1.342c-2.901-0.107-5.811-0.001-8.706,0.198
		c-0.094,0.006-0.096,0.15,0,0.148c2.664-0.057,5.325-0.023,7.989,0.003c-6.137,2.707-13.992-0.43-13.439-8.674
		c0.01-0.142-0.035-0.246-0.102-0.324c0.715-2.987,2.552-5.761,5.702-6.571c4.207-1.082,7.004,1.914,7.276,5.865
		c0.002,0.035,0.026,0.051,0.034,0.082c-0.308,0.774-0.787,1.483-1.438,1.959c-1.024,0.747-1.999,0.66-3.065,0.451
		c1.044-0.367,2.1-0.945,2.399-2.085c0.296-1.128-0.265-2.368-1.144-3.076c-1.868-1.505-5.269-0.789-5.894,1.623
		c-2.305,3.598-0.647,8.732,3.902,9.471c5.446,0.885,9.376-4.906,8.456-9.858c-0.003-0.016-0.016-0.019-0.021-0.033
		c0.293-7.452-7.965-11.916-14.69-7.267c-1.911,1.322-2.993,3.336-3.621,5.565c-0.657,0.042-1.316,0.128-1.968,0.195
		c-0.15,0.016-0.156,0.247,0,0.239c0.623-0.031,1.254-0.05,1.88-0.099c-0.178,0.687-0.321,1.39-0.428,2.1
		c-0.612-0.075-1.262,0.021-1.848,0.162c-0.164,0.04-0.094,0.283,0.069,0.251c0.592-0.118,1.149-0.1,1.73-0.094
		c-0.107,0.776-0.18,1.555-0.231,2.32c-0.277,0.023-0.553,0.045-0.835,0.034c-0.533-0.022-1.046-0.125-1.557-0.272
		c-0.182-0.052-0.253,0.22-0.078,0.281c0.728,0.255,1.63,0.433,2.446,0.343c-0.044,0.755-0.072,1.494-0.093,2.196
		c-1.332-0.111-2.695-0.087-4.029-0.113c-0.148-0.003-0.146,0.22,0,0.229c1.329,0.08,2.684,0.214,4.019,0.211
		c-0.027,0.955-0.037,1.914-0.054,2.871c-0.614-0.062-1.251-0.008-1.866,0.005c-0.176,0.004-0.177,0.27,0,0.274
		c0.614,0.013,1.248,0.067,1.861,0.005c-0.014,0.81-0.036,1.619-0.046,2.43c-1.188,0.101-2.33,0.158-3.541-0.017
		c-0.136-0.02-0.198,0.186-0.058,0.21c1.169,0.204,2.406,0.293,3.596,0.131c-0.01,0.868-0.023,1.736-0.03,2.605
		c-1.47,0.065-2.924,0.201-4.405,0.152c-0.141-0.005-0.139,0.21,0,0.218c1.444,0.088,2.955,0.138,4.402-0.063
		c-0.005,0.644-0.014,1.288-0.018,1.932c-1.696,0.06-3.38,0.208-5.084,0.177c-0.161-0.003-0.16,0.243,0,0.25
		c1.672,0.064,3.409,0.106,5.082-0.102c-0.003,0.713-0.013,1.424-0.014,2.137c-0.989-0.017-1.954,0.007-2.946-0.139
		c-0.105-0.016-0.153,0.143-0.045,0.163c0.965,0.179,1.999,0.315,2.99,0.231c0,0.76-0.012,1.52-0.009,2.279
		c-0.342,0.027-0.684,0.069-1.026,0.086c-0.47,0.024-0.937,0.002-1.407,0.008c-0.103,0.001-0.134,0.166-0.025,0.186
		c0.757,0.14,1.662,0.178,2.457,0.038c0.003,0.604-0.008,1.209-0.003,1.813c-1.805,0.099-3.617,0.307-5.411,0.498
		c-0.161,0.017-0.167,0.267,0,0.257c1.799-0.113,3.618-0.213,5.413-0.417c0.005,0.544,0.005,1.089,0.012,1.633
		c-0.801,0.183-1.583,0.245-2.432,0.081c-0.101-0.02-0.145,0.132-0.043,0.156c0.808,0.188,1.666,0.226,2.478,0.046
		c0.008,0.575,0.009,1.151,0.02,1.726c-1.404,0.155-2.789,0.38-4.22,0.391c-0.102,0.001-0.102,0.156,0,0.158
		c1.362,0.026,2.844,0.026,4.225-0.235c0.01,0.47,0.011,0.942,0.022,1.411c-1.493,0.442-2.98,0.905-4.465,1.376
		c-0.726,0.23-1.454,0.458-2.179,0.69C9.4,46.9,8.917,47.057,8.437,47.223c-0.085-0.006-0.144,0.005-0.215,0.009
		c0.469-14.5,3.095-28.463,4.667-42.814c1.052,0.005,2.105-0.053,3.156-0.096c0.236-0.01,0.474-0.029,0.711-0.033
		c0.022,0.004,0.034,0.003,0.052,0.005l-0.042,0.17c-0.163,0.379-0.232,0.847-0.232,1.27c-0.081,0.169-0.098,0.375-0.011,0.546
		c0.561,1.113,1.05,0.482,1.808,0.23c0.598-0.199,1.709-1.94,2.128-2.311c1.236-1.093,2.885-1.992,4.457-2.485
		c2.497-0.782,5.197-0.738,7.636,0.121c-1.388-0.076-2.789-0.065-4.174-0.095c-0.152-0.003-0.151,0.227,0,0.235
		c1.683,0.092,3.386,0.254,5.072,0.234c0.002,0,0.002-0.001,0.004-0.002c0.538,0.242,1.065,0.511,1.563,0.837
		c0.079,0.052,0.151,0.112,0.228,0.166c-2.349-0.112-4.695-0.061-7.041,0.152c-0.167,0.015-0.171,0.274,0,0.264
		c2.553-0.158,5.094-0.131,7.643,0.042c0.628,0.524,1.184,1.12,1.673,1.773c-1.697-0.311-3.467-0.277-5.158-0.012
		c-0.153,0.024-0.119,0.292,0.037,0.273c1.857-0.232,3.603-0.103,5.426,0.179c0.418,0.617,0.798,1.263,1.102,1.957
		c-1.233-0.114-2.511-0.082-3.727-0.135c-0.144-0.006-0.14,0.21,0,0.221c1.273,0.104,2.602,0.307,3.897,0.33
		c0.232,0.583,0.433,1.182,0.589,1.798c-1.072-0.093-2.193-0.029-3.262-0.064c-0.129-0.004-0.124,0.185,0,0.197
		c1.072,0.106,2.245,0.258,3.337,0.18c0.149,0.644,0.271,1.297,0.338,1.961c-0.83,0.039-1.681,0.257-2.491,0.409
		c-0.11,0.021-0.086,0.207,0.027,0.197c0.817-0.076,1.691-0.101,2.497-0.289C40.191,13.387,40.219,14.13,40.178,14.872z"/>
	<path style="fill:#1D1D1B;" d="M18.056,11.022c-0.814-0.031-1.635,0.025-2.449,0.04c-0.138,0.003-0.138,0.212,0,0.215
		c0.814,0.015,1.635,0.072,2.449,0.04C18.246,11.31,18.246,11.029,18.056,11.022z"/>
</g>
<g>
</g>
<g>
</g>
<g>
</g>
<g>
</g>
<g>
</g>
<g>
</g>
<g>
</g>
<g>
</g>
<g>
</g>
<g>
</g>
<g>
</g>
<g>
</g>
<g>
</g>
<g>
</g>
<g>
</g>
</svg>
