<?xml version="1.0" encoding="iso-8859-1"?>
<!-- Generator: Adobe Illustrator 18.0.0, SVG Export Plug-In . SVG Version: 6.00 Build 0)  -->
<!DOCTYPE svg PUBLIC "-//W3C//DTD SVG 1.1//EN" "http://www.w3.org/Graphics/SVG/1.1/DTD/svg11.dtd">
<svg version="1.1" id="Capa_1" xmlns="http://www.w3.org/2000/svg" xmlns:xlink="http://www.w3.org/1999/xlink" x="0px" y="0px"
	 viewBox="0 0 49.296 49.296" style="enable-background:new 0 0 49.296 49.296;" xml:space="preserve">
<g>
	<path style="fill:#1D1D1B;" d="M48.084,7.839c0.04-0.115,0.041-0.243-0.035-0.358c-2.023-3.102-7.299-3.028-10.653-3.397
		c-6.995-0.769-13.639-2.153-20.527-3.446c-3.288-0.618-6.986-0.823-9.866,1.207c-1.674,1.179-3.428,3.785-2.9,5.966
		c-1.07,7.965-1.807,15.906-3.372,23.829c-0.953,4.823-1.838,10.445,3.313,13.091c0.229,0.118,0.438,0.035,0.564-0.115
		c7.627,2.824,16.898,2.836,24.8,3.808c6.715,0.826,12.833,2.159,14.589-5.132c0.088-0.038,0.166-0.111,0.213-0.233
		c2.697-6.997,2.423-14.805,3.64-22.12C48.553,16.703,50.585,11.649,48.084,7.839z M43.488,42.894
		c-0.005-0.001-0.007-0.006-0.012-0.007c-1.182-0.156-2.371-0.278-3.564-0.386c-0.193-0.53-0.42-1.032-0.669-1.515
		c1.514-0.031,2.961,0.128,4.452,0.328c-0.071,0.515-0.137,1.03-0.208,1.544C43.485,42.872,43.487,42.883,43.488,42.894z
		 M47.589,15.867c-0.025-0.018-0.047-0.039-0.084-0.043c-2.52-0.291-5.185-0.09-7.7,0.182c-0.139,0.015-0.145,0.229,0,0.222
		c2.577-0.143,5.128-0.022,7.7-0.063c0.02,0,0.028-0.013,0.043-0.018c-0.136,0.897-0.307,1.796-0.492,2.694
		c-0.023-0.023-0.054-0.039-0.092-0.04c-2.014-0.056-4.105,0.319-6.111,0.508c-0.151,0.014-0.155,0.249,0,0.239
		c2.022-0.132,4.157-0.095,6.148-0.471c0.004-0.001,0.004-0.004,0.008-0.005c-0.379,1.815-0.802,3.62-1.074,5.374
		c-2.019-0.119-4.107,0.098-6.131,0.068c-0.184-0.003-0.183,0.278,0,0.285c1.968,0.078,4.106,0.25,6.08-0.005
		c-0.02,0.138-0.043,0.277-0.061,0.414c-0.09,0.694-0.183,1.386-0.275,2.08c-1.774-0.156-3.657,0.016-5.4,0.134
		c-0.143,0.01-0.146,0.228,0,0.225c1.764-0.04,3.583,0.097,5.352,0.011c-0.121,0.914-0.241,1.828-0.362,2.742
		c-2.645-0.23-5.269-0.225-7.916-0.657c-0.112-0.018-0.162,0.149-0.048,0.173c2.517,0.524,5.311,1.031,7.916,0.846
		c-0.091,0.682-0.179,1.365-0.27,2.047c-0.022-0.019-0.038-0.044-0.073-0.049c-4.635-0.667-9.359-0.883-14.038-0.879
		c-0.15,0-0.149,0.227,0,0.232c4.688,0.152,9.32,0.579,13.985,1.037c0.035,0.004,0.058-0.016,0.085-0.03
		c-0.089,0.666-0.175,1.334-0.264,2c-3.29-0.324-6.652-0.303-9.955-0.47c-0.162-0.008-0.158,0.235,0,0.25
		c3.261,0.298,6.626,0.672,9.907,0.586c-0.109,0.816-0.214,1.633-0.323,2.448c-1.762-0.25-3.618-0.215-5.386-0.308
		c-0.161-0.008-0.159,0.237,0,0.25c1.752,0.14,3.574,0.422,5.34,0.408c-0.118,0.877-0.227,1.756-0.348,2.633
		c-1.515-0.304-3.127-0.318-4.65-0.18c-3.475-6.408-11.672-8.684-18.678-8.023c0.433-2.052,0.831-4.118,1.068-6.202
		c1.07,0.112,5.028,1.528,5.91,1.818c1.421,0.469,2.911,0.77,4.408,0.857c2.272,0.131,4.489-0.257,6.139-1.896
		c0.228-0.227,0.159-0.548-0.03-0.737c0.133-0.044,0.242-0.142,0.269-0.322c0.204-1.349,0.325-2.704,0.417-4.061
		c2.475,0.12,5.1,0.303,7.542-0.046c0.172-0.024,0.115-0.276-0.039-0.287c-2.461-0.175-5.003,0.047-7.483,0.068
		c0.114-1.763,0.175-3.529,0.251-5.295c0.002-0.048-0.012-0.084-0.019-0.125c0.166-0.474-0.249-1.151-0.821-0.93
		c-2.743,1.059-5.289,1.209-8.029,0.013c-1.885-0.823-3.502-2.155-5.435-2.88c-1.694-0.635-3.24-0.795-4.801-0.176
		c-0.227-0.422-0.924-0.514-1.048,0.076c-1.363,6.454-2.114,13.15-1.975,19.749C12.4,32.243,8.154,33.57,4.679,36.195
		c-0.246,0.185-0.199,0.512-0.021,0.66c0.12,2.739,6.349,1.204,7.837,1.211c4.408,0.02,8.828,0.422,13.179,1.113
		c3.691,0.586,8.389,1.052,11.716,3.125c-4.09-0.271-8.213-0.332-12.28-0.35c-0.118,0-0.117,0.177,0,0.183
		c4.406,0.216,8.815,0.566,13.223,0.821c0.229,0.182,0.449,0.373,0.659,0.575c0.456,0.442,1.08-0.001,1.062-0.488
		c1.106,0.057,2.213,0.114,3.319,0.151c-0.499,1.278-0.991,2.35-1.779,3.159c-2.831-0.254-5.792-0.036-8.614,0.18
		c-0.131,0.01-0.135,0.209,0,0.207c2.718-0.042,5.466,0.093,8.183,0.003c-1.002,0.805-2.436,1.288-4.74,1.384
		c-1.085,0.046-2.289-0.262-3.364-0.393c-3.347-0.409-6.692-0.831-10.039-1.244c-6.458-0.799-12.791-1.826-19.173-3.015
		c-5.643-4.416-1.113-15.818-0.27-21.758c0.593-4.18,1.169-8.436,1.279-12.677c0.083-0.014,0.151-0.071,0.14-0.181
		C4.674,5.623,7.016,2.446,10.047,1.57c2.396-0.692,5.043-0.221,7.394,0.298c3.32,0.733,6.539,1.763,9.896,2.367
		c6.108,1.099,14.292,0.214,19.66,3.61c0.125,0.312,0.233,0.627,0.328,0.944c-3.027-0.844-6.182-0.639-9.31-0.64
		c-4.187-0.002-8.381,0.009-12.564,0.19c-0.146,0.006-0.148,0.226,0,0.229c7.112,0.13,14.961-0.962,21.952,0.532
		c0.22,0.826,0.354,1.666,0.407,2.518c-6.51-0.123-13.043,0.063-19.55,0.23c-0.14,0.004-0.141,0.217,0,0.218
		c6.514,0.048,13.055,0.113,19.567-0.13C47.881,13.228,47.779,14.544,47.589,15.867z M17.493,32.508
		c0.601-6.416,1.281-12.766,2.274-19.133c4.305-0.521,7.056,2.842,10.924,4.109c2.397,0.785,4.812,0.609,7.084-0.319
		c-0.28,2.973-0.603,5.944-0.555,8.934c0.002,0.148,0.075,0.264,0.176,0.347c-0.026,0.011-0.052,0.014-0.078,0.031
		c-4.263,2.736-8.308,1.023-12.644-0.492c-0.88-0.307-2.72-0.868-3.674-0.227c-0.244-0.015-0.491,0.097-0.539,0.376
		c-0.379,2.194-0.57,4.423-0.725,6.643c-0.018,0.002-0.036,0.003-0.054,0.005c-0.478,0.06-0.497,0.719,0,0.759
		c7.13,0.573,13.894,1.406,17.93,7.392c-3.447-1.985-7.882-2.402-11.698-2.934c-2.075-0.289-18.428-0.689-20.365-1.402
		c3.591-2.095,7.344-3.11,11.543-3.049C17.701,33.556,17.828,32.843,17.493,32.508z"/>
	<path style="fill:#1D1D1B;" d="M41.904,45.13c-9.638-0.247-19.243-0.638-28.858-1.37c-0.145-0.011-0.142,0.212,0,0.225
		c9.587,0.908,19.226,1.454,28.858,1.443C42.097,45.429,42.096,45.135,41.904,45.13z"/>
	<path style="fill:#1D1D1B;" d="M43.508,6.702c-4.736-0.974-9.729-1.115-14.549-1.062c-0.138,0.002-0.138,0.212,0,0.214
		c4.879,0.103,9.666,0.678,14.521,1.058C43.6,6.922,43.627,6.726,43.508,6.702z"/>
</g>
<g>
</g>
<g>
</g>
<g>
</g>
<g>
</g>
<g>
</g>
<g>
</g>
<g>
</g>
<g>
</g>
<g>
</g>
<g>
</g>
<g>
</g>
<g>
</g>
<g>
</g>
<g>
</g>
<g>
</g>
</svg>
