<svg xmlns="http://www.w3.org/2000/svg" viewBox="0 0 1440 700"><path fill="#565656" d="M1130 947L775 444.3l245.1 564.5-262.3-556.7 143.4 598.4-161.6-593.8 37.2 614.3-56-612.8-70 611.4L702 456.3l-175.1 590 156.9-595.1L409 1001.8l257.8-558.7-366.3 494.5 351-505.5-446.6 423.4 433.4-436.9L125 758l502.7-355L63.2 648.1l556.7-262.3L21.5 529.2l593.8-161.6L1 404.8l612.8-56-611.4-70L615.7 330l-590-175.1 595.1 156.9L70.2 37l558.7 257.8L134.4-71.5l505.5 351-423.4-446.6 436.9 433.4L314-247l355 502.7-245.1-564.5 262.3 556.7-143.4-598.4 161.6 593.8L667.2-371l56 612.8 70-611.4L742 243.7l175.1-590-156.9 595.1L1035-301.8 777.2 256.9l366.3-494.5-351 505.5 446.6-423.4-433.4 436.9L1319-58 816.3 297l564.5-245.1-556.7 262.3 598.4-143.4-593.8 161.6 614.3-37.2-612.8 56 611.4 70L828.3 370l590 175.1-595.1-156.9L1373.8 663 815.1 405.2l494.5 366.3-505.5-351 423.4 446.6-436.9-433.4z"/></svg>