<?xml version="1.0" encoding="utf-8"?>
<!-- Generator: Adobe Illustrator 17.1.0, SVG Export Plug-In . SVG Version: 6.00 Build 0)  -->
<!DOCTYPE svg PUBLIC "-//W3C//DTD SVG 1.1//EN" "http://www.w3.org/Graphics/SVG/1.1/DTD/svg11.dtd">
<svg version="1.1" id="Layer_1" xmlns="http://www.w3.org/2000/svg" xmlns:xlink="http://www.w3.org/1999/xlink" x="0px" y="0px"
	 width="23.9px" height="23.9px" viewBox="0 0 23.9 23.9" enable-background="new 0 0 23.9 23.9" xml:space="preserve">
<g id="logo">
	<path fill="#FFFFFF" d="M22.3,23.9H1.7c-0.9,0-1.7-0.7-1.7-1.7V1.7C0,0.7,0.7,0,1.7,0h20.6c0.9,0,1.7,0.7,1.7,1.7v20.6
		C23.9,23.2,23.2,23.9,22.3,23.9"/>
	<path fill="#4D6FA9" d="M20.2,4.1v4.1h-3.7c-0.5,0-0.8,0.4-0.8,0.8v2.5h4.1v4.1h-4.1v8.3h-4.1v-8.3H8.3v-4.1h3.3V9.1
		c0-2.6,2-4.7,4.5-5L20.2,4.1L20.2,4.1z"/>
</g>
</svg>
