<svg xmlns="http://www.w3.org/2000/svg" viewBox="0 0 403.926 403.926"><path d="M287.484 39.213c-28.49 0-57.75 13.66-76.36 35.648a11.998 11.998 0 0 1-18.32 0c-18.6-21.988-47.866-35.647-76.372-35.647C64.6 39.213 24 79.818 24 131.655c0 65.427 57.56 119.545 159.293 209.567.176.155.348.316.514.482l18.156 18.074 18.152-18.074c.168-.166.34-.327.516-.483 101.737-90.007 159.296-144.118 159.296-209.565 0-51.837-40.606-92.442-92.442-92.442zm-163.9 42.398c-32.178 0-57.383 25.21-57.383 57.393 0 6.628-5.372 12-12 12-6.626 0-12-5.372-12-12 0-45.64 35.75-81.392 81.384-81.392 6.627 0 12 5.374 12 12 0 6.63-5.373 12-12 12z" fill="#73D0F4"/><path d="M287.484 15.213c-31.475 0-62.566 12.69-85.52 34.454-22.945-21.764-54.045-34.454-85.533-34.454C51.144 15.213 0 66.36 0 131.655c0 36.542 15.05 71.882 47.36 111.216 28.186 34.317 67.43 69.78 119.765 116.092l26.373 26.255c2.342 2.33 5.404 3.496 8.467 3.496s6.125-1.166 8.467-3.497L236.8 358.96c52.33-46.3 91.57-81.755 119.772-116.09 32.307-39.33 47.354-74.67 47.354-111.215 0-65.294-51.147-116.442-116.442-116.442zM220.63 341.22c-.175.157-.347.318-.515.484l-18.152 18.074-18.156-18.074a11.137 11.137 0 0 0-.514-.482C81.56 251.2 24 197.082 24 131.655c0-51.837 40.6-92.44 92.432-92.44 28.506 0 57.77 13.658 76.37 35.646a12.001 12.001 0 0 0 9.16 4.25h.003a12 12 0 0 0 9.16-4.248c18.61-21.99 47.87-35.648 76.36-35.648 51.835 0 92.44 40.604 92.44 92.44 0 65.448-57.558 119.56-159.294 209.567z" fill="#3D6889"/><path d="M123.584 57.61C77.95 57.61 42.2 93.364 42.2 139.004c0 6.628 5.374 12 12 12 6.628 0 12-5.372 12-12 0-32.183 25.206-57.392 57.384-57.392 6.627 0 12-5.37 12-12 0-6.626-5.373-12-12-12z" fill="#3D6889"/></svg>