<svg xmlns="http://www.w3.org/2000/svg" viewBox="0 0 290.7 65.3"><text transform="translate(81.74 44.337)"><tspan x="0" y="0" fill="#FFF" font-family="'Bariol-Regular'" font-size="40">tabs</tspan><tspan x="66.8" y="0" font-family="'Bariol-Regular'" font-size="40"> </tspan><tspan x="76.4" y="0" fill="#A3D4A1" font-family="'Bariol-Regular'" font-size="40">overflow</tspan></text><path fill="#F9F9F9" stroke="#CFCFCF" stroke-miterlimit="10" d="M63.7 48.5L15.9 60.4c-1.4.3-2.7-.5-3.1-1.8L3.2 19.8c-.3-1.4.5-2.7 1.8-3.1L52.8 4.9c1.4-.3 2.7.5 3.1 1.8l9.7 38.8c.3 1.3-.5 2.7-1.9 3z"/><path fill="#F9F9F9" stroke="#CFCFCF" stroke-miterlimit="10" d="M1.8 25.5L44.5.8c1.2-.7 2.8-.3 3.5.9l20 34.6c.7 1.2.3 2.8-.9 3.5L24.3 64.5c-1.2.7-2.8.3-3.5-.9L.8 29c-.7-1.3-.2-2.8 1-3.5z"/><path fill="#FFF" stroke="#CFCFCF" stroke-miterlimit="10" d="M59 55.1H9.7c-1.4 0-2.5-1.1-2.5-2.5V12.7c0-1.4 1.1-2.5 2.5-2.5H59c1.4 0 2.5 1.1 2.5 2.5v39.9c0 1.4-1.1 2.5-2.5 2.5z"/><text transform="translate(25.82 41.097)" fill="#A3D4A1" font-family="'Courgette-Regular'" font-size="33">o</text></svg>