<?xml version="1.0" encoding="utf-8"?>
<!-- Generator: Adobe Illustrator 17.1.0, SVG Export Plug-In . SVG Version: 6.00 Build 0)  -->
<!DOCTYPE svg PUBLIC "-//W3C//DTD SVG 1.1//EN" "http://www.w3.org/Graphics/SVG/1.1/DTD/svg11.dtd">
<svg version="1.1" id="Layer_1" xmlns="http://www.w3.org/2000/svg" xmlns:xlink="http://www.w3.org/1999/xlink" x="0px" y="0px"
	 width="290.7px" height="65.3px" viewBox="0 0 290.7 65.3" enable-background="new 0 0 290.7 65.3" xml:space="preserve">
<text transform="matrix(1 0 0 1 81.7409 44.3374)"><tspan x="0" y="0" fill="#FFFFFF" font-family="'Bariol-Regular'" font-size="40">tabs</tspan><tspan x="66.8" y="0" font-family="'Bariol-Regular'" font-size="40"> </tspan><tspan x="76.4" y="0" fill="#A3D4A1" font-family="'Bariol-Regular'" font-size="40">overflow</tspan></text>
<g display="none">
	<path display="inline" fill="#F9F9F9" stroke="#CFCFCF" stroke-miterlimit="10" d="M63.7,48.5L15.9,60.4c-1.4,0.3-2.7-0.5-3.1-1.8
		L3.2,19.8c-0.3-1.4,0.5-2.7,1.8-3.1L52.8,4.9c1.4-0.3,2.7,0.5,3.1,1.8l9.7,38.8C65.9,46.8,65.1,48.2,63.7,48.5z"/>
	<path display="inline" fill="#F9F9F9" stroke="#CFCFCF" stroke-miterlimit="10" d="M1.8,25.5L44.5,0.8c1.2-0.7,2.8-0.3,3.5,0.9
		l20,34.6c0.7,1.2,0.3,2.8-0.9,3.5L24.3,64.5c-1.2,0.7-2.8,0.3-3.5-0.9l-20-34.6C0.1,27.7,0.6,26.2,1.8,25.5z"/>
	<path display="inline" fill="#FFFFFF" stroke="#CFCFCF" stroke-miterlimit="10" d="M59,55.1H9.7c-1.4,0-2.5-1.1-2.5-2.5V12.7
		c0-1.4,1.1-2.5,2.5-2.5H59c1.4,0,2.5,1.1,2.5,2.5v39.9C61.5,54,60.4,55.1,59,55.1z"/>
	
		<text transform="matrix(1 0 0 1 25.8197 41.097)" display="inline" fill="#A3D4A1" font-family="'Courgette-Regular'" font-size="33">o</text>
</g>
<path fill="#69BBFF" stroke="#5AC4CC" stroke-miterlimit="10" d="M61.5,43.9c0,3.1-2.5,5.6-5.6,5.6H11.5c-3.1,0-5.6-2.5-5.6-5.6
	V12.4c0-3.1,2.5-5.6,5.6-5.6h44.5c3.1,0,5.6,2.5,5.6,5.6V43.9z"/>
<path fill="#5FA6ED" stroke="#569DCC" stroke-miterlimit="10" d="M67.6,48.6c0,3.1-2.5,5.6-5.6,5.6H17.6c-3.1,0-5.6-2.5-5.6-5.6
	V17.1c0-3.1,2.5-5.6,5.6-5.6H62c3.1,0,5.6,2.5,5.6,5.6V48.6z"/>
<text transform="matrix(1 0 0 1 29.7448 43.4954)" fill="#5FA6ED" stroke="#E5E5E5" stroke-miterlimit="10" font-family="'Bevan'" font-size="24">O</text>
</svg>
