<svg xmlns="http://www.w3.org/2000/svg" viewBox="0 0 120.7 50.1"><text transform="translate(31.715 18.602)" fill="#A2A2A2" font-family="'Bariol-Regular'" font-size="16">tabs</text><text transform="translate(62.26 18.602)"><tspan x="0" y="0" fill="#A3D4A1" font-family="'Bariol-Regular'" font-size="16">o</tspan><tspan x="7.6" y="0" fill="#A3D4A1" font-family="'Bariol-Regular'" font-size="16">ve</tspan><tspan x="22.1" y="0" fill="#A3D4A1" font-family="'Bariol-Regular'" font-size="16">r</tspan><tspan x="27.3" y="0" fill="#A3D4A1" font-family="'Bariol-Regular'" font-size="16">ﬂ</tspan><tspan x="35.2" y="0" fill="#A3D4A1" font-family="'Bariol-Regular'" font-size="16">o</tspan><tspan x="42.8" y="0" fill="#A3D4A1" font-family="'Bariol-Regular'" font-size="16">w</tspan></text><path fill="#ECECEC" stroke="#CFCFCF" stroke-miterlimit="10" d="M28.8 19.7h-9.6s-.1 0-.1-.1V16c0-.5.4-.9.9-.9h8c.5 0 .9.4.9.9l-.1 3.7c.1 0 .1 0 0 0zm0-6.5h-9.6s-.1 0-.1-.1V9.5c0-.5.4-.9.9-.9h8c.5 0 .9.4.9.9l-.1 3.7c.1 0 .1 0 0 0zm-13.2 6.5H6s-.1 0-.1-.1V16c0-.5.4-.9.9-.9h8c.5 0 .9.4.9.9l-.1 3.7c.1 0 0 0 0 0zm0-6.5H6s-.1 0-.1-.1V9.5c0-.5.4-.9.9-.9h8c.5 0 .9.4.9.9l-.1 3.7c.1 0 0 0 0 0z"/><text transform="translate(31.715 38.852)" fill="#A2A2A2" font-family="'Bariol-Regular'" font-size="16">tabs</text><text transform="translate(62.26 38.852)"><tspan x="0" y="0" fill="#A3D4A1" font-family="'Bariol-Regular'" font-size="16">o</tspan><tspan x="7.6" y="0" fill="#A3D4A1" font-family="'Bariol-Regular'" font-size="16">ve</tspan><tspan x="22.1" y="0" fill="#A3D4A1" font-family="'Bariol-Regular'" font-size="16">r</tspan><tspan x="27.3" y="0" fill="#A3D4A1" font-family="'Bariol-Regular'" font-size="16">ﬂ</tspan><tspan x="35.2" y="0" fill="#A3D4A1" font-family="'Bariol-Regular'" font-size="16">o</tspan><tspan x="42.8" y="0" fill="#A3D4A1" font-family="'Bariol-Regular'" font-size="16">w</tspan></text><path fill="#ECECEC" stroke="#CFCFCF" stroke-miterlimit="10" d="M28.8 40h-9.6s-.1 0-.1-.1v-3.6c0-.5.4-.9.9-.9h8c.5 0 .9.4.9.9l-.1 3.7c.1-.1.1 0 0 0zm0-6.5h-6.6s-.1 0-.1-.1v-3.6c0-.5.4-.9.9-.9h5c.5 0 .9.4.9.9l-.1 3.7c.1-.1.1 0 0 0zM15.6 40H6s-.1 0-.1-.1v-3.6c0-.5.4-.9.9-.9h8c.5 0 .9.4.9.9l-.1 3.7c.1-.1 0 0 0 0zm0-6.5H6s-.1 0-.1-.1v-3.6c0-.5.4-.9.9-.9h8c.5 0 .9.4.9.9l-.1 3.7c.1-.1 0 0 0 0z"/></svg>