<?xml version="1.0" encoding="utf-8"?>
<!-- Generator: Adobe Illustrator 17.1.0, SVG Export Plug-In . SVG Version: 6.00 Build 0)  -->
<!DOCTYPE svg PUBLIC "-//W3C//DTD SVG 1.1//EN" "http://www.w3.org/Graphics/SVG/1.1/DTD/svg11.dtd">
<svg version="1.1" id="Layer_1" xmlns="http://www.w3.org/2000/svg" xmlns:xlink="http://www.w3.org/1999/xlink" x="0px" y="0px"
	 width="294.6px" height="59.5px" viewBox="0 0 294.6 59.5" enable-background="new 0 0 294.6 59.5" xml:space="preserve">
<text transform="matrix(1 0 0 1 58.4774 42.8006)"><tspan x="0" y="0" fill="#FFFFFF" font-family="'FabfeltScript-Bold'" font-size="49">tabs</tspan><tspan x="70.2" y="0" font-family="'FabfeltScript-Bold'" font-size="49"> </tspan><tspan x="82.9" y="0" fill="#AFAFAF" font-family="'FabfeltScript-Bold'" font-size="49">overflow</tspan></text>
<g>
	<defs>
		<polygon id="SVGID_1_" points="11.2,33.2 28,51.8 45.2,33.2 36.7,33.2 36.7,7.3 19.3,7.3 19.3,33.2 		"/>
	</defs>
	<clipPath id="SVGID_2_">
		<use xlink:href="#SVGID_1_"  overflow="visible"/>
	</clipPath>
	<g clip-path="url(#SVGID_2_)">
		<rect x="-3.9" y="9.9" fill="#B4E2AF" width="64.2" height="2"/>
		<rect x="-3.9" y="7.1" fill="#B4E2AF" width="64.2" height="2"/>
		<rect x="-3.9" y="12.7" fill="#B4E2AF" width="64.2" height="2"/>
		<rect x="-3.9" y="15.6" fill="#B4E2AF" width="64.2" height="2"/>
		<rect x="-3.9" y="18.4" fill="#B4E2AF" width="64.2" height="2"/>
		<rect x="-3.9" y="21.3" fill="#B4E2AF" width="64.2" height="2"/>
		<rect x="-3.9" y="24.1" fill="#B4E2AF" width="64.2" height="2"/>
		<rect x="-3.9" y="27" fill="#B4E2AF" width="64.2" height="2"/>
		<rect x="-3.9" y="29.8" fill="#B4E2AF" width="64.2" height="2"/>
		<rect x="-3.9" y="32.7" fill="#B4E2AF" width="64.2" height="2"/>
		<rect x="-26" y="35.5" fill="#B4E2AF" width="107.9" height="2"/>
		<rect x="-14.9" y="38.3" fill="#B4E2AF" width="86.3" height="2"/>
		<rect x="-3.9" y="41.2" fill="#B4E2AF" width="64.2" height="2"/>
		<rect x="6.6" y="44" fill="#B4E2AF" width="43.2" height="2"/>
		<rect x="17.4" y="46.9" fill="#B4E2AF" width="21.6" height="2"/>
		<rect x="22.8" y="49.7" fill="#B4E2AF" width="10.8" height="2"/>
	</g>
</g>
</svg>
