<svg id="Layer_1" xmlns="http://www.w3.org/2000/svg" xmlns:xlink="http://www.w3.org/1999/xlink" viewBox="0 0 294.6 59.5"><path fill="#FFF" d="M74.5 34c.4.2.7.5.9 1 .2.5.2.9 0 1.3-1 2.4-2.6 4.5-4.9 6.4-2.4 1.9-4.6 3-6.8 3.1h-.5c-2.1 0-3.7-.9-4.8-2.6-.9-1.5-1.1-3.8-.6-6.8.3-2 1-4.2 1.9-6.8h-.5c-.9-.1-1.4-.6-1.3-1.6.1-.4.2-.7.3-.9.1-.2.3-.4.6-.5.3-.1.5-.2.6-.2.2 0 .4-.1.8-.1h.8c2.2-5.2 4-8.8 5.6-10.9.7-.8 1.4-1.5 2.4-1.9.9-.5 1.7-.4 2.5.1s1.1 1.3.8 2.4c-.2.6-.4 1.2-.8 1.8-.8 1.2-2.5 4.1-5.2 8.6l5.3-.1c.5 0 .9.1 1.3.4s.6.7.6 1.2-.1.9-.4 1.3-.7.6-1.2.6h-1c-.6 0-1.5.1-2.7.1h-4.8c-1.1 2.9-1.8 5.3-2.1 7.2-.4 2.2-.4 3.6.1 4.3.4.7 1.1 1 2.1 1 1.5-.1 3.1-.9 4.9-2.5 1.8-1.5 3-3.2 3.8-4.9.2-.4.5-.7 1-.9.3-.3.8-.3 1.3-.1z"/><path fill="#FFF" d="M71.7 44.2c-1-1.1-1.5-2.5-1.3-4.1.2-2 1.3-4.4 3.2-7.1 1.7-2.3 3.5-4 5.3-5.3 1.5-1.1 3.1-1.7 4.7-2 1.6-.2 3 0 4.2.7 1.5 1 2.1 2.5 1.7 4.5-.1.4-.3.8-.6 1-.3.3-.7.4-1.2.3.4.2.8.5 1 .9.5 1 0 2.5-1.5 4.4-.2.2-.5.6-1 1.2 0 .1-.1.3-.3.7-.1.4-.3.7-.3.9-.2.8-.3 1.3-.2 1.5h.5c2.4 0 4.9-2.4 7.3-7.1.2-.4.6-.7 1-.9.5-.1.9-.1 1.3.1s.7.6.9 1c.1.5.1.9-.1 1.3-1.5 2.9-3.2 5.1-4.9 6.6-1.7 1.5-3.5 2.3-5.6 2.3-1.6 0-2.8-.5-3.5-1.6-.2-.4-.3-.7-.4-1-2.4 1.9-4.6 2.9-6.5 3h-.2c-1.3.3-2.5-.2-3.5-1.3zM81 30.6c-1.5 1.1-3.1 2.7-4.6 4.7S74 39 73.9 40.4c0 .6.1 1.1.4 1.5.3.4.8.5 1.3.5 2-.1 4.5-1.9 7.7-5.5.1-.1.1-.2.2-.4s.1-.3.2-.4l.3-.6c.4-.9.8-1.6 1.1-2 .6-.8 1.3-1.2 2-1.2h.1c-.9-.4-1.2-1-1.1-2 .1-.5 0-.8-.2-.8-.3-.2-.6-.2-1.1-.2-1.2-.2-2.5.3-3.8 1.3z"/><path fill="#FFF" d="M94.1 44.2c-1.9-2.6-1.8-6.6.1-11.9 1.4-3.8 3-7.7 4.9-11.7 1.9-4 3.7-7.2 5.4-9.7.8-1.1 1.6-2 2.6-2.6 1.1-.7 2.2-.8 3.3-.3 1.2.7 1.9 1.9 2 3.9.1 1.5-.2 3.4-.9 5.6-1.1 3.2-2.5 5.9-4.3 8.1-2.4 3-5.4 5-9 5.9l-.7 2c-1.4 4.2-1.6 7.1-.5 8.7.7.9 1.6 1.2 2.8 1.1 1.2-.2 2.4-.8 3.7-1.8.2-.2.6-.5 1-.9l-.7-.4c-1.9-1.6-2.5-3.6-2-6 .3-1.1.8-2.1 1.6-2.9s1.6-1.3 2.6-1.5c1.8-.4 3.2.3 4.4 1.9 1.1 1.5 1.1 3.5.1 6 1.6-.5 2.9-1.5 4-3 .2-.4.6-.7 1.1-.8.5-.1.9 0 1.3.3s.6.6.7 1.1c.1.5 0 .9-.2 1.3-.8 1.3-2 2.4-3.4 3.3-1.4.9-2.9 1.4-4.4 1.6-.6.1-1 .1-1.3.1-2.9 3.6-5.8 5.4-8.8 5.4-2.5-.3-4.2-1.1-5.4-2.8zm13.2-31.3c-2.3 3.2-4.7 8-7.4 14.3 3.7-1.9 6.4-5.5 8.1-10.8.5-1.5.8-2.8.8-3.8 0-.5 0-.9-.1-1.2-.4.2-.9.8-1.4 1.5zm-1.6 20.7c-.3.3-.5.8-.6 1.2-.2 1 0 1.8.8 2.5.2.2.3.3.5.3 0 0 .2-.2.4-.6.8-1.7 1.1-2.9.7-3.4-.3-.4-.6-.6-.8-.6h-.1c-.3 0-.6.2-.9.6z"/><path fill="#FFF" d="M114.1 42.7c-.2-.5-.3-.9-.1-1.3.1-.4.4-.8.9-1 .4-.2.9-.3 1.3-.1.5.1.8.4 1 .9.2.3.3.5.4.7.1.2.4.3.9.5s1.1.3 1.9.3c1.4 0 2.3-.4 2.7-1.1.7-1 .8-2.8.4-5.4-.3-1.4-.7-3-1.3-4.8-.5.8-1 1.6-1.7 2.5-1.4 1.8-3.2 3.6-5.3 5.5-.4.3-.8.5-1.2.5-.5 0-.9-.2-1.2-.6s-.5-.8-.5-1.2c0-.5.2-.9.6-1.2 3.6-3.3 6-6.3 7.4-9.1.2-.3.3-.7.4-1v-.3-.3c-.1-1.2.2-2.1.9-2.5.8-.6 1.6-.6 2.3.1.8.6.9 1.7.5 3.3 0 .1.1.4.3 1.1 2.9 7.3 3.3 12.5 1.3 15.5-1.1 1.7-3 2.6-5.6 2.6-3-.3-5.1-1.4-6.3-3.6z"/><path fill="#AFAFAF" d="M142 43.9c-1.4-1.5-1.7-3.7-.9-6.6.7-2.7 2.2-5.1 4.4-7.2.4-.4.8-.5 1.3-.5.4-1.1 1.1-2 2-2.7 2-1.8 3.9-2.4 5.8-1.8 1.8.6 2.9 2.1 3.3 4.3.4 2 0 4.1-.9 6.3-.1.3-.2.6-.3.7 1.2-.4 2.3-1.1 3.2-2.4.3-.4.7-.6 1.2-.6s.9.1 1.3.4c.4.3.6.7.6 1.2.1.5-.1.9-.4 1.3-1.2 1.6-2.7 2.7-4.4 3.3-1.2.5-2.6.7-4 .5-.6.7-1.3 1.4-2.2 2.1-2 1.6-3.8 2.6-5.4 2.9-.6.1-1 .1-1.2.1-1.5.1-2.6-.4-3.4-1.3zm2.4-5.7c-.4 1.6-.4 2.8.1 3.4.3.2.7.2 1.1.1 1-.2 2.4-1 3.9-2.2.1-.1.2-.2.4-.3.2-.2.3-.3.4-.3-2-1.2-3.3-2.8-3.9-4.8-.9 1.3-1.6 2.6-2 4.1zm6.6-8.7c-1.1 1-1.5 2.2-1.1 3.5.4 1.4 1.3 2.4 2.8 3.2 1.4-2.2 2-4.3 1.7-6.2-.2-.9-.5-1.5-1-1.6h-.3c-.6-.1-1.3.3-2.1 1.1z"/><path fill="#AFAFAF" d="M163 44.8c-1-.7-1.7-1.9-2.1-3.7-.2-1.1-.3-2.5-.2-4.2 0-.5.1-1 .1-1.5s.1-1 .1-1.4c.1-.4.1-.8.2-1.1 0-.3.1-.6.1-.8v-.3c.1-.5.4-.8.8-1.1.4-.3.8-.4 1.3-.3.5.1.8.4 1.1.8.3.4.4.8.3 1.3v.2c0 .2-.1.5-.1.8 0 .3-.1.7-.1 1 0 .4-.1.8-.1 1.3s-.1 1-.1 1.4c-.1 1.2 0 2.2.1 3 .1.8.2 1.3.3 1.4.1.1.2.2.2.3h.3c.1 0 .4-.1.8-.3.4-.2.8-.5 1.3-.8 1.7-1.3 3.3-3.4 4.9-6.3-.2-1.6 0-3.1.5-4.5.5-1.5 1.3-2.6 2.3-3.2.9-.6 1.8-.5 2.6.1 1 .9 1 2.3.1 4.1-.7 1.6-1.3 3-1.9 4 .2.8.5 1.4.9 1.8.4.4.8.7 1.2.8.9.1 1.8-.7 2.5-2.3.2-.4.5-.7 1-.9.5-.2.9-.1 1.3.1s.7.6.9 1c.2.5.1.9-.1 1.3-.7 1.4-1.5 2.5-2.5 3.2-1.1.8-2.3 1.1-3.5.9-1.3-.2-2.4-.8-3.3-1.9-.1-.1-.2-.3-.4-.5-1.3 2-2.8 3.6-4.4 4.9-1.2.9-2.3 1.5-3.2 1.8-.4.1-.8.2-1.2.2-.7-.1-1.4-.2-2-.6z"/><path fill="#AFAFAF" d="M183.1 44.6c-1.3-.6-2.2-1.5-2.9-2.8-.8-1.4-.9-3.1-.4-5 .5-2 1.5-4.1 3.2-6.5 2.2-3 4.4-4.8 6.8-5.6 1.9-.6 3.5-.4 4.9.5.8.5 1.3 1.2 1.6 2.1.3.8.4 1.7.2 2.8-.3 1.6-1.5 3.2-3.5 4.8-2 1.6-5.3 2.8-9.9 3.7-.1.6 0 1.1.3 1.6.3.6.8 1 1.5 1.3.7.3 1.4.5 2.2.5 1.6 0 3.4-.6 5.3-1.8 1.9-1.2 3.4-3 4.4-5.3.2-.5.5-.8 1-1 .4-.2.9-.2 1.3 0s.7.5.9.9c.2.4.2.9 0 1.3-1.3 3.1-3.3 5.4-6 7.1-2.3 1.4-4.6 2.2-6.9 2.2-1.5.1-2.8-.2-4-.8zm7.6-16.5c-1.6.5-3.2 1.9-4.9 4.3-.6.8-1.1 1.6-1.6 2.4 2.7-.7 4.8-1.5 6.2-2.4 1.4-1 2.3-2 2.5-2.9.1-.7 0-1.1-.2-1.3-.2-.1-.5-.2-.9-.2-.3 0-.7.1-1.1.1z"/><path fill="#AFAFAF" d="M202.9 43.4c-.6-.8-.8-1.9-.6-3.2.2-1.2.7-2.7 1.5-4.5.9-1.9 1.4-3.2 1.2-4-.2-.8-.9-1.5-2.1-2.4-.4.8-.9 1.9-1.5 3.2s-1.1 2.4-1.5 3.3c-.4.9-.6 1.4-.7 1.4-.2.4-.6.7-1 .9-.5.2-.9.1-1.3 0-.4-.2-.7-.5-.9-1-.2-.5-.1-.9 0-1.3.8-1.5 2.1-4.4 4-8.7-.2-.3-.3-.5-.4-.8-.4-.9-.3-1.9.2-2.7.3-.6.8-1.1 1.4-1.3.6-.2 1.2-.2 1.8 0 .9.4 1.4 1.3 1.3 2.5 0 .2-.1.6-.2 1.2 2.5 1.5 3.9 3.2 4.2 5 .3 1.4-.2 3.5-1.5 6.1-1 2.1-1.4 3.5-1.2 4.2.1.1.3.1.6 0h.1c1.3-.1 2.7-.7 4.3-2 1.6-1.3 2.9-2.8 4-4.7.2-.4.6-.7 1.1-.8s.9 0 1.3.2.7.6.8 1.1c.1.5 0 .9-.2 1.3-1.3 2.2-2.9 4-4.9 5.6-2.1 1.7-4.2 2.6-6.2 2.8h-.4c-1.4.2-2.5-.3-3.2-1.4z"/><path fill="#AFAFAF" d="M212.7 56.1c-1-1.5-1.2-4.8-.4-9.8.7-4.2 1.8-8.8 3.4-13.9 1.1-3.3 2.7-7.3 5-11.8 2.3-4.5 4.3-8.2 6.3-10.9.9-1.2 1.7-2.1 2.6-2.6 1.1-.7 2.2-.8 3.3-.3 1.2.7 1.9 1.9 2 3.9.1 1.6-.3 3.4-1 5.5-1.1 3.3-2.7 6.3-4.8 8.8-1.3 1.7-2.7 3.1-4.2 4.1-1.2.8-2.4 1.5-3.6 2 .4.3.7.7 1 1.2.5.7.9 1.5 1.3 2.5.7 1.5 1.2 2.4 1.5 2.8.5.6.9.9 1.2 1 .3.1.8-.1 1.3-.5.9-.6 1.9-1.6 2.9-3.1.3-.4.7-.6 1.2-.7.5-.1.9 0 1.3.3s.6.7.7 1.2c.1.5 0 .9-.3 1.3-2.6 3.6-5.1 5.2-7.4 5-1-.1-1.9-.6-2.8-1.4 0 1-.1 2.2-.2 3.5-.5 3.7-1.7 6.9-3.4 9.6-1.5 2.4-3.1 3.5-4.7 3.5-.9 0-1.7-.4-2.2-1.2zm3-9.4c-.5 3.2-.6 5.4-.4 6.7.3-.3.5-.5.6-.7.6-.8 1.2-1.8 1.9-3.1.3-.7.6-1.4.8-2.3.3-.8.5-1.9.8-3.3.3-1.4.3-2.9.2-4.6-.1-1.7-.4-3.3-1-5-1.2 4-2.2 8.1-2.9 12.3zm14.1-35c-2.7 3.9-5.5 9-8.3 15.5 2.1-1.2 3.9-2.9 5.5-5.1 1.6-2.2 2.8-4.5 3.6-7 .5-1.4.7-2.7.8-3.9 0-.4 0-.8-.1-1.1-.4.3-.9.9-1.5 1.6z"/><path fill="#AFAFAF" d="M231 42.7c-1.5-2.1-1.4-5.5.1-10.3 1.2-3.8 2.8-7.7 4.8-11.8 2-4.3 4-7.8 5.8-10.4.8-1.2 1.7-2.1 2.5-2.6 1.2-.7 2.3-.8 3.3-.2 1.3.6 1.9 1.8 2 3.8.1 1.7-.3 3.6-1 5.6-.9 3-2.5 6.1-4.6 9.1-2.8 3.8-5.9 6.5-9.3 7.9-.1.1-.2.1-.3.1-1.1 3.5-1.3 5.8-.5 6.9.3.4.9.6 2 .6 1.2 0 2.4-.4 3.5-1.3.4-.3.7-.5 1-.8s.6-.6.8-1.1c.3-.4.4-.7.6-.9l.6-1.2c.3-.6.4-.9.5-1.1.2-.4.5-.7 1-.9.5-.2.9-.1 1.3.1s.7.6.9 1c.2.5.1.9-.1 1.3-.4.7-.8 1.5-1.3 2.2-.5.8-1.2 1.6-2 2.6-.9 1-1.9 1.8-3.1 2.5-1.2.6-2.4.9-3.7.9-2.2 0-3.8-.7-4.8-2zm13.6-30.6c-2.8 4-5.7 9.6-8.5 16.8 2.1-1.5 4-3.4 5.6-5.9 1.6-2.5 2.8-4.9 3.7-7.4.5-1.5.8-2.8.8-3.9 0-.5 0-.9-.1-1.1-.5.3-1 .8-1.5 1.5z"/><path fill="#AFAFAF" d="M242 43.9c-1.4-1.5-1.7-3.7-.9-6.6.7-2.7 2.2-5.1 4.4-7.2.4-.4.8-.5 1.3-.5.4-1.1 1.1-2 2-2.7 2-1.8 3.9-2.4 5.8-1.8 1.8.6 2.9 2.1 3.3 4.3.4 2 0 4.1-.9 6.3-.1.3-.2.6-.3.7 1.2-.4 2.3-1.1 3.2-2.4.3-.4.7-.6 1.2-.6s.9.1 1.3.4c.4.3.6.7.6 1.2.1.5-.1.9-.4 1.3-1.2 1.6-2.7 2.7-4.4 3.3-1.2.5-2.6.7-4 .5-.6.7-1.3 1.4-2.2 2.1-2 1.6-3.8 2.6-5.4 2.9-.6.1-1 .1-1.2.1-1.5.1-2.6-.4-3.4-1.3zm2.5-5.7c-.4 1.6-.4 2.8.1 3.4.3.2.7.2 1.1.1 1-.2 2.4-1 3.9-2.2.1-.1.2-.2.4-.3.2-.2.3-.3.4-.3-2-1.2-3.3-2.8-3.9-4.8-.9 1.3-1.6 2.6-2 4.1zm6.5-8.7c-1.1 1-1.5 2.2-1.1 3.5.4 1.4 1.3 2.4 2.8 3.2 1.4-2.2 2-4.3 1.7-6.2-.2-.9-.5-1.5-1-1.6h-.3c-.5-.1-1.2.3-2.1 1.1z"/><path fill="#AFAFAF" d="M272.6 43.7c-.6-.8-.9-2-1-3.4-.3.3-.5.6-.6.7-2.3 2.6-4.4 3.9-6.3 4-1.7 0-2.9-.8-3.8-2.4-.8-1.4-1-3.4-.5-5.9.5-2.5 1.6-5.1 3.4-7.8.2-.4.6-.7 1.1-.8.5-.1.9 0 1.3.2.4.3.6.6.7 1.1.1.5 0 .9-.2 1.3-1.5 2.4-2.5 4.5-2.8 6.6-.3 1.7-.3 2.9.2 3.7.1.2.3.4.7.5l1.3-.6c.8-.6 1.7-1.3 2.5-2.3 1.8-1.9 3.2-4.4 4.4-7.5l.6-1.9c.2-.5.5-.8.9-1 .4-.2.9-.2 1.3-.1s.8.4 1 .8c.2.4.3.9.1 1.3-.3.8-.5 1.5-.6 1.9-.5 1.7-.8 3.4-.9 5.1-.2 2-.1 3.4.1 4.3 1.8-.2 3.6-1.8 5.5-4.8.8-1.2 1.6-2.8 2.5-4.7-.1-1.3-.1-2.5 0-3.4.2-1.3.7-2.2 1.5-2.5.8-.5 1.6-.4 2.3.2 1 .9 1.2 2.4.5 4.4 0 .1-.1.3-.3.7-.1.4-.3.8-.4 1.1.3 2.6.8 4.2 1.4 4.8.1 0 .3-.1.5-.2.8-.4 1.7-1.4 2.6-2.9.3-.4.6-.7 1.1-.8.5-.1.9 0 1.3.2.4.3.6.6.7 1.1.1.5 0 .9-.2 1.3-1.3 2.1-2.6 3.4-4 4.2-1.4.7-2.7.7-3.7.1-.9-.5-1.7-1.4-2.3-2.9 0 .1-.2.4-.6 1.1-2.7 4.3-5.7 6.4-8.8 6.4-1.2.1-2-.3-2.5-1.2z"/><g id="arrow" class="floating"><path fill="#FFF" d="M36.7 7.3v25.9h8L28 51.8 11.2 33.2h8.2V7.3h17.3m0-2H19.3c-1.1 0-2 .9-2 2v23.9h-6.2c-.8 0-1.5.5-1.8 1.2-.3.7-.2 1.6.3 2.2l16.8 18.6c.4.4.9.7 1.5.7s1.1-.2 1.5-.7l16.7-18.5c.3-.4.6-.8.6-1.4 0-1.1-.9-2-2-2h-6v-24c0-1.1-.9-2-2-2z"/><g id="arrow"><defs><path id="SVGID_1_" d="M12.3 34.9l14.9 16.4c.3.4.9.4 1.3 0l15.1-16.4c.5-.6.1-1.5-.6-1.5h-6.5v-25c0-.5-.4-.9-.9-.9H20c-.5 0-.9.4-.9.9v25h-6.2c-.7 0-1.1.9-.6 1.5z"/></defs><clipPath id="SVGID_2_"><use xlink:href="#SVGID_1_" overflow="visible"/></clipPath><g clip-path="url(#SVGID_2_)" fill="#B4E2AF"><path d="M16.8 10.1h22v2h-22zM16.8 7.3h22v2h-22zM16.8 13h22v2h-22zM16.8 15.8h22v2h-22zM16.8 18.6h22v2h-22zM16.8 21.5h22v2h-22zM16.8 24.3h22v2h-22zM16.8 27.2h22v2h-22zM16.8 30h22v2h-22zM11 32.9h34v2H11zM41 37.7H14.8l-1.6-2h29.6zM13 38.6h29.6v2H13zM16.8 41.4h22v2h-22zM20.4 44.2h14.8v2H20.4zM23.1 47.1h9.4v2h-9.4zM26 49.9h3.7v2H26z"/></g></g></g></svg>