<?xml version="1.0" encoding="utf-8"?>
<!-- Generator: Adobe Illustrator 17.1.0, SVG Export Plug-In . SVG Version: 6.00 Build 0)  -->
<!DOCTYPE svg PUBLIC "-//W3C//DTD SVG 1.1//EN" "http://www.w3.org/Graphics/SVG/1.1/DTD/svg11.dtd">
<svg version="1.1" id="Layer_1" xmlns="http://www.w3.org/2000/svg" xmlns:xlink="http://www.w3.org/1999/xlink" x="0px" y="0px"
	 width="120.7px" height="50.1px" viewBox="0 0 120.7 50.1" enable-background="new 0 0 120.7 50.1" xml:space="preserve">
<text transform="matrix(1 0 0 1 31.7153 18.6015)" fill="#A2A2A2" font-family="'Bariol-Regular'" font-size="16">tabs </text>
<text transform="matrix(1 0 0 1 62.2592 18.6015)"><tspan x="0" y="0" fill="#A3D4A1" font-family="'Bariol-Regular'" font-size="16">o</tspan><tspan x="7.6" y="0" fill="#A3D4A1" font-family="'Bariol-Regular'" font-size="16">ve</tspan><tspan x="22.1" y="0" fill="#A3D4A1" font-family="'Bariol-Regular'" font-size="16">r</tspan><tspan x="27.3" y="0" fill="#A3D4A1" font-family="'Bariol-Regular'" font-size="16">ﬂ</tspan><tspan x="35.2" y="0" fill="#A3D4A1" font-family="'Bariol-Regular'" font-size="16">o</tspan><tspan x="42.8" y="0" fill="#A3D4A1" font-family="'Bariol-Regular'" font-size="16">w</tspan></text>
<path fill="#ECECEC" stroke="#CFCFCF" stroke-miterlimit="10" d="M28.8,19.7h-9.6c0,0-0.1,0-0.1-0.1V16c0-0.5,0.4-0.9,0.9-0.9h8
	c0.5,0,0.9,0.4,0.9,0.9L28.8,19.7C28.9,19.7,28.9,19.7,28.8,19.7z"/>
<path fill="#ECECEC" stroke="#CFCFCF" stroke-miterlimit="10" d="M28.8,13.2h-9.6c0,0-0.1,0-0.1-0.1V9.5c0-0.5,0.4-0.9,0.9-0.9h8
	c0.5,0,0.9,0.4,0.9,0.9L28.8,13.2C28.9,13.2,28.9,13.2,28.8,13.2z"/>
<path fill="#ECECEC" stroke="#CFCFCF" stroke-miterlimit="10" d="M15.6,19.7H6c0,0-0.1,0-0.1-0.1V16c0-0.5,0.4-0.9,0.9-0.9h8
	c0.5,0,0.9,0.4,0.9,0.9L15.6,19.7C15.7,19.7,15.6,19.7,15.6,19.7z"/>
<path fill="#ECECEC" stroke="#CFCFCF" stroke-miterlimit="10" d="M15.6,13.2H6c0,0-0.1,0-0.1-0.1V9.5c0-0.5,0.4-0.9,0.9-0.9h8
	c0.5,0,0.9,0.4,0.9,0.9L15.6,13.2C15.7,13.2,15.6,13.2,15.6,13.2z"/>
<text transform="matrix(1 0 0 1 31.7153 38.8515)" fill="#A2A2A2" font-family="'Bariol-Regular'" font-size="16">tabs </text>
<text transform="matrix(1 0 0 1 62.2592 38.8515)"><tspan x="0" y="0" fill="#A3D4A1" font-family="'Bariol-Regular'" font-size="16">o</tspan><tspan x="7.6" y="0" fill="#A3D4A1" font-family="'Bariol-Regular'" font-size="16">ve</tspan><tspan x="22.1" y="0" fill="#A3D4A1" font-family="'Bariol-Regular'" font-size="16">r</tspan><tspan x="27.3" y="0" fill="#A3D4A1" font-family="'Bariol-Regular'" font-size="16">ﬂ</tspan><tspan x="35.2" y="0" fill="#A3D4A1" font-family="'Bariol-Regular'" font-size="16">o</tspan><tspan x="42.8" y="0" fill="#A3D4A1" font-family="'Bariol-Regular'" font-size="16">w</tspan></text>
<path fill="#ECECEC" stroke="#CFCFCF" stroke-miterlimit="10" d="M28.8,40h-9.6c0,0-0.1,0-0.1-0.1v-3.6c0-0.5,0.4-0.9,0.9-0.9h8
	c0.5,0,0.9,0.4,0.9,0.9L28.8,40C28.9,39.9,28.9,40,28.8,40z"/>
<path fill="#ECECEC" stroke="#CFCFCF" stroke-miterlimit="10" d="M28.8,33.5h-6.6c0,0-0.1,0-0.1-0.1v-3.6c0-0.5,0.4-0.9,0.9-0.9h5
	c0.5,0,0.9,0.4,0.9,0.9L28.8,33.5C28.9,33.4,28.9,33.5,28.8,33.5z"/>
<path fill="#ECECEC" stroke="#CFCFCF" stroke-miterlimit="10" d="M15.6,40H6c0,0-0.1,0-0.1-0.1v-3.6c0-0.5,0.4-0.9,0.9-0.9h8
	c0.5,0,0.9,0.4,0.9,0.9L15.6,40C15.7,39.9,15.6,40,15.6,40z"/>
<path fill="#ECECEC" stroke="#CFCFCF" stroke-miterlimit="10" d="M15.6,33.5H6c0,0-0.1,0-0.1-0.1v-3.6c0-0.5,0.4-0.9,0.9-0.9h8
	c0.5,0,0.9,0.4,0.9,0.9L15.6,33.5C15.7,33.4,15.6,33.5,15.6,33.5z"/>
</svg>
