<svg id="ot-listing-svg" xmlns="http://www.w3.org/2000/svg" viewBox="0 0 474.3 407.3"><path fill="#FFF" stroke="#E2E2E2" stroke-miterlimit="10" d="M474.3.5H7.5c-3.9 0-7 3.1-7 7v399.8h473.8"/><path fill="#D5D5D5" d="M474.3.7H7.5c-3.9 0-7 3.1-7 7v61.8h473.8"/><g fill="#FFF"><circle cx="11.1" cy="12.1" r="4.6"/><circle cx="26" cy="12.1" r="4.6"/><circle cx="40.8" cy="12.1" r="4.6"/></g><path id="tab-1" fill="#E2E2E2" stroke="#BFBEBE" stroke-width="2" stroke-miterlimit="10" d="M237 32.9c-1-.2-1.3-.7-1.9-2.6-.4-1.6-.8-2.8-.8-2.9-1.2-4.7-4.9-18.7-5-19.1 0-.2-.1-.4-.2-.5-.4-1.1-1.2-1.9-2.1-1.9h-99.8c-.9 0-1.8.9-2.2 2.2-.1.5-3.9 14.8-5.1 19.5l-.8 2.8c-.6 1.9-1 2.4-2 2.6H237z"/><path id="tab-2" fill="#E2E2E2" stroke="#BFBEBE" stroke-width="2" stroke-miterlimit="10" d="M347 32.9c-1-.2-1.3-.7-1.9-2.6-.4-1.6-.8-2.8-.8-2.9-1.2-4.7-4.9-18.7-5-19.1 0-.2-.1-.4-.2-.5-.4-1.1-1.2-1.9-2.1-1.9h-99.8c-.9 0-1.8.9-2.2 2.2-.1.5-3.9 14.8-5.1 19.5l-.8 2.8c-.6 1.9-1 2.4-2 2.6H347z"/><path id="tab-3" fill="#E2E2E2" stroke="#BFBEBE" stroke-width="2" stroke-miterlimit="10" d="M457 32.9c-1-.2-1.3-.7-1.9-2.6-.4-1.6-.8-2.8-.8-2.9-1.2-4.7-4.9-18.7-5-19.1 0-.2-.1-.4-.2-.5-.4-1.1-1.2-1.9-2.1-1.9h-99.8c-.9 0-1.8.9-2.2 2.2-.1.5-3.9 14.8-5.1 19.5l-.8 2.8c-.6 1.9-1 2.4-2 2.6H457z"/><path fill="#E2E2E2" stroke="#BFBEBE" stroke-width="2" stroke-miterlimit="10" d="M474.3 5.8h-17.2c-.9 0-1.8.9-2.2 2.2-.1.5-3.9 14.8-5.1 19.5l-.8 2.8c-.6 1.9-1 2.4-2 2.6h27.3"/><path fill="#BFBEBE" d="M474.3 28.1H.5v41.2l473.8.2"/><path fill="#A0A09F" d="M48.3 41.8l-1.7 1.7 3.9 3.9H40v2.5h10.5l-3.9 3.9 1.7 1.8 6.9-6.9zm-27.1 0l1.7 1.7-3.9 3.9h10.5v2.5H19l3.9 3.9-1.7 1.8-6.9-6.9z"/><path fill-rule="evenodd" clip-rule="evenodd" fill="#A0A09F" d="M79.3 41.8v6.4c-2.2-.4-4.3-.8-6.5-1.2l.1-.1c.7-.5 1.4-1.1 2-1.6.1-.1.1-.1 0-.1-.5-.3-1.1-.6-1.8-.6-.8-.1-1.5 0-2.2.3-1.5.7-2.4 1.9-2.6 3.5-.1.9 0 1.7.4 2.5s1 1.4 1.8 1.8c.8.4 1.6.6 2.5.5 1-.1 1.8-.5 2.5-1.2.4-.4.7-.8.9-1.3 0-.1 0-.1.1-.1.8.2 1.5.4 2.3.6.1 0 .1 0 .1.1-.4 1-1 1.9-1.8 2.6-1.1.9-2.3 1.5-3.7 1.7-.9.1-1.7.1-2.6-.1-1.8-.5-3.2-1.5-4.2-3.1-.5-.8-.8-1.7-.9-2.6 0-.2 0-.3-.1-.5v-1c0-.3.1-.7.1-1 .4-1.5 1.1-2.8 2.3-3.8 1-.8 2.2-1.3 3.5-1.5.8-.1 1.6-.1 2.4.1 1 .2 2 .7 2.8 1.4.1.1.1.1.2 0 .9-.6 1.6-1.1 2.4-1.7-.1 0 0 0 0 0zm25.3 7.3c.3-.3.5-.6.8-.9l-.1-.1c-2.4-2.1-4.8-4.2-7.1-6.3 0 0 0-.1-.1-.1H98c-.2.2-.5.4-.7.7-2.1 1.9-4.2 3.8-6.4 5.6-.1 0-.1.1-.2.1.3.3.5.6.8.9.5-.4.9-.8 1.4-1.2v7.3c0 .2 0 .3.2.4h3.3v-5.7c0-.2.1-.4.4-.4h2.5c.3 0 .4.1.4.4v5.7h3.3c.2-.1.2-.2.2-.4v-7.3c.5.4.9.9 1.4 1.3zm-9.9-5.3s.1 0 0 0c.1-.4.1-.8.1-1.1H93v2.7c.5-.5 1.1-1.1 1.7-1.6z"/><path fill="#FFF" d="M474.3 62.3H123.2c-2.2 0-4-1.8-4-4V39c0-2.2 1.8-4 4-4h351.1"/><path fill="#D5D5D5" d="M136.5 49.6c.5-.7.7-1.6.7-2.4 0-2.4-2-4.4-4.4-4.4-2.4 0-4.4 2-4.4 4.4 0 2.4 2 4.4 4.4 4.4 1 0 1.9-.3 2.7-.9l3.9 3.9 1-1-3.9-4zm-3.7.5c-1.6 0-3-1.3-3-3 0-1.6 1.3-3 3-3 1.6 0 3 1.3 3 3s-1.4 3-3 3z"/><path fill="#F9F9F9" stroke="#CCC" stroke-miterlimit="10" d="M42.8 106H160v31H42.8zm141.2 4h23v23h-23z"/><text transform="translate(53.853 126)" fill="#A0A09F" font-family="'Lato-Regular'" font-size="15">Sort options</text><text transform="translate(216 127)" fill="#A0A09F" font-family="'Lato-Regular'" font-size="15">Reverse</text><path fill="#E2E2E2" d="M153.6 120.1h-11.7l5.9-7zm0 2.8h-11.7l5.9 7z"/><g id="youtube-2"><text transform="translate(75.349 315.918)" fill="#A0A09F" font-family="'Lora-Regular'" font-size="21.6">Youtube.com</text><path fill="#D8362A" d="M65.5 303.5s-.2-1.8-.9-2.6c-.9-1-1.9-1-2.4-1.1-3.3-.2-8.4-.3-8.4-.3s-5 0-8.4.3c-.5 0-1.5.1-2.4 1.1-.7.8-.9 2.6-.9 2.6s-.2 2.1-.2 4.2v1.9c0 2.1.2 4.2.2 4.2s.2 1.8.9 2.6c.9 1 2.1 1 2.6 1.1 1.9.2 8.1.2 8.1.2s5 0 8.4-.3c.5 0 1.5-.1 2.4-1.1.7-.8.9-2.6.9-2.6s.2-2.1.2-4.2v-1.9c.1-2-.1-4.1-.1-4.1"/><path fill="#FFF" d="M50.9 304.5v8.9l7.8-4.3z"/></g><g id="youtube-1"><text transform="translate(75.349 230.849)" fill="#A0A09F" font-family="'Lora-Regular'" font-size="21.6">Youtube.com</text><path fill="#D8362A" d="M65.5 218.5s-.2-1.8-.9-2.6c-.9-1-1.9-1-2.4-1.1-3.3-.2-8.4-.3-8.4-.3s-5 0-8.4.3c-.5 0-1.5.1-2.4 1.1-.7.8-.9 2.6-.9 2.6s-.2 2.1-.2 4.2v1.9c0 2.1.2 4.2.2 4.2s.2 1.8.9 2.6c.9 1 2.1 1 2.6 1.1 1.9.2 8.1.2 8.1.2s5 0 8.4-.3c.5 0 1.5-.1 2.4-1.1.7-.8.9-2.6.9-2.6s.2-2.1.2-4.2v-1.9c.1-2-.1-4.1-.1-4.1"/><path fill="#FFF" d="M50.9 219.5v9l7.8-4.4z"/></g><g id="facebook"><text transform="translate(75.349 274.098)" fill="#A0A09F" font-family="'Lora-Regular'" font-size="21.6">Facebook.com</text><g id="logo"><path fill="#4D6FA9" d="M64.3 278.2H43.7c-.9 0-1.7-.7-1.7-1.7V256c0-.9.7-1.7 1.7-1.7h20.6c.9 0 1.7.7 1.7 1.7v20.6c0 .9-.7 1.6-1.7 1.6"/><path fill="#FFF" d="M62.3 258.4v4.1h-3.7c-.5 0-.8.4-.8.8v2.5h4.1v4.1h-4.1v8.3h-4.1V270h-3.3v-4.1h3.3v-2.5c0-2.6 2-4.7 4.5-5h4.1z"/></g></g><g id="bing"><text transform="translate(75.349 189.618)" fill="#A0A09F" font-family="'Lora-Regular'" font-size="21.6">Bing.com</text><path id="bing-logo" fill="#FFBA00" d="M52.1 174.7l2.4 5.7 3.4 1.4-12.8 7.1 5.5-5.6v-12.4l-5.7-2.3v20.5l5.7 3.5 13.6-8.1v-5.6z"/></g></svg>