<svg id="Layer_1" xmlns="http://www.w3.org/2000/svg" viewBox="0 0 1440 1085.1"><path id="tab-one" fill="#E2E2E2" stroke="#BFBEBE" stroke-width="2" stroke-miterlimit="10" d="M490.9 527.7c-1.7-.3-2.2-1.2-3.3-4.4v-.1c-.8-2.8-1.3-4.8-1.3-4.9-2.1-7.9-8.4-31.9-8.6-32.5l-.3-.9c-.7-2-2-3.3-3.5-3.3H304.2c-1.6 0-3 1.5-3.7 3.7-.2.8-6.7 25.2-8.7 33.1l-1.4 4.8c-1.1 3.3-1.7 4.1-3.5 4.4h204z"/><path id="tab-two" fill="#E2E2E2" stroke="#BFBEBE" stroke-width="2" stroke-miterlimit="10" d="M677.9 527.7c-1.7-.3-2.2-1.2-3.3-4.4v-.1c-.8-2.8-1.3-4.8-1.3-4.9-2.1-7.9-8.4-31.9-8.6-32.5l-.3-.9c-.7-2-2-3.3-3.5-3.3H491.2c-1.6 0-3 1.5-3.7 3.7-.2.8-6.7 25.2-8.7 33.1l-1.4 4.8c-1.1 3.3-1.7 4.1-3.5 4.4h204z"/><path id="tab-three" fill="#E2E2E2" stroke="#BFBEBE" stroke-width="2" stroke-miterlimit="10" d="M865.3 527.7c-1.7-.3-2.2-1.2-3.3-4.4v-.1c-.8-2.8-1.3-4.8-1.3-4.9-2.1-7.9-8.4-31.9-8.6-32.5l-.3-.9c-.7-2-2-3.3-3.5-3.3H678.5c-1.6 0-3 1.5-3.7 3.7-.2.8-6.7 25.2-8.7 33.1l-1.4 4.8c-1.1 3.3-1.7 4.1-3.5 4.4h204.1z"/><path fill="#F9F9F9" stroke="#CCC" stroke-miterlimit="10" d="M439.6 582.6H592v40.3H439.6z"/><text transform="translate(453.984 608.578)" fill="#A0A09F" font-family="'Lato-Regular'" font-size="19.5">Safe Tabs</text><path fill="#E2E2E2" d="M583.7 600.9h-15.3l7.7-9.1zM583.7 604.5h-15.3l7.7 9.1z"/><g id="lock-twoooo"><path id="swivel-twoooooo" fill="none" stroke="#798193" stroke-width="4" stroke-linecap="round" stroke-miterlimit="10" d="M755.7 348.4v-1.9c0-3.5 3.1-6.4 6.9-6.4 3.8 0 6.9 2.9 6.9 6.4v7.5"/><path fill="#EBBA16" d="M750.3 354h25.3v19.3h-25.3z"/><path fill="#424A60" d="M762.9 366.1c-1 0-1.8-.8-1.8-1.8v-3.6c0-1 .8-1.8 1.8-1.8s1.8.8 1.8 1.8v3.6c0 .9-.8 1.8-1.8 1.8z"/></g><g id="lock-three" display="none"><path id="swivel-three" fill="none" stroke="#798193" stroke-width="4" stroke-linecap="round" stroke-miterlimit="10" d="M766.2 502v-7.5c0-3.5 3.1-6.4 6.9-6.4 3.8 0 6.9 2.9 6.9 6.4v1.9"/><path fill="#EBBA16" d="M746.5 502h25.3v19.3h-25.3z"/><path fill="#424A60" d="M759.1 514.1c-1 0-1.8-.8-1.8-1.8v-3.6c0-1 .8-1.8 1.8-1.8s1.8.8 1.8 1.8v3.6c0 .9-.8 1.8-1.8 1.8z"/></g><g id="lock-two" display="none"><path id="swivel-two_1_" fill="none" stroke="#798193" stroke-width="4" stroke-linecap="round" stroke-miterlimit="10" d="M578.8 502v-7.5c0-3.5 3.1-6.4 6.9-6.4 3.8 0 6.9 2.9 6.9 6.4v1.9"/><path fill="#EBBA16" d="M559.1 502h25.3v19.3h-25.3z"/><path fill="#424A60" d="M571.8 514.1c-1 0-1.8-.8-1.8-1.8v-3.6c0-1 .8-1.8 1.8-1.8s1.8.8 1.8 1.8v3.6c0 .9-.8 1.8-1.8 1.8z"/></g><g id="lock-one" display="none"><path id="swivel-one" fill="none" stroke="#798193" stroke-width="4" stroke-linecap="round" stroke-miterlimit="10" d="M391.8 502v-7.5c0-3.5 3.1-6.4 6.9-6.4 3.8 0 6.9 2.9 6.9 6.4v1.9"/><path fill="#EBBA16" d="M372.1 502h25.3v19.3h-25.3z"/><path fill="#424A60" d="M384.8 514.1c-1 0-1.8-.8-1.8-1.8v-3.6c0-1 .8-1.8 1.8-1.8s1.8.8 1.8 1.8v3.6c0 .9-.8 1.8-1.8 1.8z"/></g><g id="dropdown"><path fill="#FFF" stroke="#CCC" stroke-miterlimit="10" d="M534.6 622.9H592v114.2h-57.4z"/><text transform="translate(557.142 653.611)"><tspan x="0" y="0" fill="#A0A09F" font-family="'MyriadPro-Regular'" font-size="24">1</tspan><tspan x="0" y="33" fill="#A0A09F" font-family="'MyriadPro-Regular'" font-size="24">2</tspan><tspan x="0" y="66" fill="#A0A09F" font-family="'MyriadPro-Regular'" font-size="24">3</tspan></text></g><g id="cursor"><path fill="#5D5E6E" d="M682.3 662.4l-15.8-17.1c-.2-.3-.6-.4-1-.3l11.3 34.8c1.3-.4 2-1.8 1.5-3l-3.9-12.1 7.3-.8c.8 0 1.1-.9.6-1.5z"/><path fill="#464655" d="M665.5 645c-.3.1-.6.4-.6.8l-2.8 23.2c-.1.8.7 1.3 1.4.9l6.4-3.7 3.9 12.1c.4 1.3 1.8 2 3 1.5L665.5 645z"/></g></svg>