<svg id="Layer_1" xmlns="http://www.w3.org/2000/svg" viewBox="0 0 578.3 311.3"><path id="tab-1_1_" fill="#E2E2E2" stroke="#BFBEBE" stroke-width="2" stroke-miterlimit="10" d="M204.3 47c-1.7-.3-2.2-1.2-3.3-4.4v-.1c-.8-2.8-1.3-4.8-1.3-4.9-2.1-7.9-8.4-31.9-8.6-32.5l-.3-.9c-.7-2-2-3.3-3.5-3.3H17.6c-1.6 0-3 1.5-3.7 3.7-.2.9-6.7 25.4-8.7 33.2l-1.4 4.8C2.7 45.9 2.1 46.7.3 47h204z"/><path id="tab-2_1_" fill="#E2E2E2" stroke="#BFBEBE" stroke-width="2" stroke-miterlimit="10" d="M391.3 47c-1.7-.3-2.2-1.2-3.3-4.4v-.1c-.8-2.8-1.3-4.8-1.3-4.9-2.1-7.9-8.4-31.9-8.6-32.5l-.3-.9c-.7-2-2-3.3-3.5-3.3H204.6c-1.6 0-3 1.5-3.7 3.7-.2.8-6.7 25.2-8.7 33.1l-1.4 4.8c-1.1 3.3-1.7 4.1-3.5 4.4h204z"/><path id="tab-3_1_" fill="#E2E2E2" stroke="#BFBEBE" stroke-width="2" stroke-miterlimit="10" d="M578.3 47c-1.7-.3-2.2-1.2-3.3-4.4v-.1c-.8-2.8-1.3-4.8-1.3-4.9-2.1-7.9-8.4-31.9-8.6-32.5l-.3-.9c-.7-2-2-3.3-3.5-3.3H391.6c-1.6 0-3 1.5-3.7 3.7-.2.8-6.7 25.2-8.7 33.1l-1.4 4.8c-1.1 3.3-1.7 4.1-3.5 4.4h204z"/><path fill="#F9F9F9" stroke="#CCC" stroke-miterlimit="10" d="M153 101.9h152.4v40.3H153z"/><text transform="translate(167.385 127.877)" fill="#A0A09F" font-family="'Lato-Regular'" font-size="19.5">Safe Tabs</text><path fill="#E2E2E2" d="M297.1 120.2h-15.3l7.7-9.1zm0 3.6h-15.3l7.7 9.1z"/><g id="lock-one"><path id="swivel-one" fill="none" stroke="#798193" stroke-width="4" stroke-linecap="round" stroke-miterlimit="10" d="M124.1 15.7v-1.9c0-3.5-3.1-6.4-6.9-6.4-3.8 0-6.9 2.9-6.9 6.4v7.5"/><path fill="#EBBA16" d="M89.7 21.3H115v19.3H89.7z"/><path fill="#424A60" d="M102.3 33.4c-1 0-1.8-.8-1.8-1.8V28c0-1 .8-1.8 1.8-1.8s1.8.8 1.8 1.8v3.6c0 .9-.8 1.8-1.8 1.8z"/></g><g id="lock-two"><path id="swivel-two" fill="none" stroke="#798193" stroke-width="4" stroke-linecap="round" stroke-miterlimit="10" d="M308.9 15.7v-1.9c0-3.5-3.1-6.4-6.9-6.4-3.8 0-6.9 2.9-6.9 6.4v7.5"/><path fill="#EBBA16" d="M274.5 21.3h25.3v19.3h-25.3z"/><path fill="#424A60" d="M287.2 33.4c-1 0-1.8-.8-1.8-1.8V28c0-1 .8-1.8 1.8-1.8s1.8.8 1.8 1.8v3.6c0 .9-.9 1.8-1.8 1.8z"/></g><g id="lock-three"><path id="swivel-three" fill="none" stroke="#798193" stroke-width="4" stroke-linecap="round" stroke-miterlimit="10" d="M505.1 15.7v-1.9c0-3.5-3.1-6.4-6.9-6.4-3.8 0-6.9 2.9-6.9 6.4v7.5"/><path fill="#EBBA16" d="M470.7 21.3H496v19.3h-25.3z"/><path fill="#424A60" d="M483.4 33.4c-1 0-1.8-.8-1.8-1.8V28c0-1 .8-1.8 1.8-1.8s1.8.8 1.8 1.8v3.6c0 .9-.8 1.8-1.8 1.8z"/></g><g id="dropdown"><path fill="#FFF" stroke="#CCC" stroke-miterlimit="10" d="M248 142.2h57.4v114.2H248z"/><text transform="translate(270.543 172.91)"><tspan x="0" y="0" fill="#A0A09F" font-family="'MyriadPro-Regular'" font-size="24">1</tspan><tspan x="0" y="33" fill="#A0A09F" font-family="'MyriadPro-Regular'" font-size="24">2</tspan><tspan x="0" y="66" fill="#A0A09F" font-family="'MyriadPro-Regular'" font-size="24">3</tspan></text></g><g id="cursor"><path fill="#5D5E6E" d="M395.7 181.7l-15.8-17.1c-.2-.3-.6-.4-1-.3l11.3 34.8c1.3-.4 2-1.8 1.5-3l-3.9-12.1 7.3-.8c.8 0 1.1-.9.6-1.5z"/><path fill="#464655" d="M378.9 164.3c-.3.1-.6.4-.6.8l-2.8 23.2c-.1.8.7 1.3 1.4.9l6.4-3.7 3.9 12.1c.4 1.3 1.8 2 3 1.5l-11.3-34.8z"/></g></svg>