<svg id="Layer_1" xmlns="http://www.w3.org/2000/svg" viewBox="0 0 730.8 412.5"><path fill="#D5D5D5" d="M.5 171.2h482V240H.5z"/><path fill="#E2E2E2" stroke="#BFBEBE" stroke-width="2" stroke-miterlimit="10" d="M0 203.3h112c-1-.2-1.3-.7-1.9-2.6-.4-1.6-.8-2.8-.8-2.9-1.2-4.7-4.9-18.7-5-19.1 0-.2-.1-.4-.2-.5-.4-1.1-1.2-1.9-2.1-1.9H2.2c-.5 0-.9.2-1.3.6m-.6.9"/><path fill="#E2E2E2" stroke="#BFBEBE" stroke-width="2" stroke-miterlimit="10" d="M222 203.3c-1-.2-1.3-.7-1.9-2.6-.4-1.6-.8-2.8-.8-2.9-1.2-4.7-4.9-18.7-5-19.1 0-.2-.1-.4-.2-.5-.4-1.1-1.2-1.9-2.1-1.9h-99.8c-.9 0-1.8.9-2.2 2.2-.1.5-3.9 14.8-5.1 19.5l-.8 2.8c-.6 1.9-1 2.4-2 2.6H222z"/><path fill="#E2E2E2" stroke="#BFBEBE" stroke-width="2" stroke-miterlimit="10" d="M332 203.3c-1-.2-1.3-.7-1.9-2.6-.4-1.6-.8-2.8-.8-2.9-1.2-4.7-4.9-18.7-5-19.1 0-.2-.1-.4-.2-.5-.4-1.1-1.2-1.9-2.1-1.9h-99.8c-.9 0-1.8.9-2.2 2.2-.1.5-3.9 14.8-5.1 19.5l-.8 2.8c-.6 1.9-1 2.4-2 2.6H332z"/><path id="overflow-tab" fill="#CEE4F4" stroke="#BCBCBC" stroke-width="2" stroke-miterlimit="10" d="M442 228.3c-1-.2-1.3-.7-1.9-2.6-.4-1.6-.8-2.8-.8-2.9-1.2-4.7-4.9-18.7-5-19.1 0-.2-.1-.4-.2-.5-.4-1.1-1.2-1.9-2.1-1.9h-99.8c-.9 0-1.8.9-2.2 2.2-.1.5-3.9 14.8-5.1 19.5l-.8 2.8c-.6 1.9-1 2.4-2 2.6H442z"/><path fill="#D8D8D8" d="M.5 198.5h482v41.2H.5z"/><path fill="#BFBEBE" d="M477.4 195.6c-1.6-3.8-6.6-15.1-6.7-15.4-.1-.1-.1-.3-.2-.4-.6-.9-1.6-1.5-2.8-1.5H442v.1c1.6 3.8 6.6 15.1 6.7 15.4.1.1.1.3.2.4.6.9 1.6 1.5 2.8 1.5h23.9l1.8-.1c0 .1 0 .1 0 0z"/><path fill="#FFF" d="M473.7 228.8c0 2.2-1.8 4-4 4H0v-27.3h469.7c2.2 0 4 1.8 4 4v19.3z"/><path fill="none" stroke="#DDD" stroke-miterlimit="10" d="M482.5 412.5V178.2c0-3.9-3.1-7-7-7H.5"/><g id="magnifier"><path fill="#B3DAE0" d="M532.9 254.8l-142.1-66.4 85.7-108.6 56.4 175z" opacity=".3" id="flash-complete_1_" display="none"/><path fill="#B3DAE0" d="M390.9 188.4l8.4-10.7 4.6 16.7-13-6z" opacity=".6" id="flash-start"/><path fill="#FFF" stroke="#E2E2E2" stroke-miterlimit="10" d="M714.3 136c0 66.1-52.3 120-116.8 120s-116.8-53.9-116.8-120S533 16 597.5 16s116.8 53.9 116.8 120z"/><g id="magnified"><path fill="#E2E2E2" stroke="#BFBEBE" stroke-width="2" stroke-miterlimit="10" d="M476.4 143.6h68.5c-1.5-.3-2-1-2.9-3.8-.7-2.4-1.1-4.2-1.2-4.3-1.8-6.9-7.3-27.7-7.4-28.3-.1-.3-.1-.5-.2-.8-.6-1.7-1.8-2.8-3.1-2.8h-50.5"/><path fill="#CEE4F4" stroke="#BCBCBC" stroke-width="2" stroke-miterlimit="10" d="M707.2 143.6c-1.5-.3-2-1-2.9-3.8-.7-2.4-1.1-4.2-1.2-4.3-1.8-6.9-7.3-27.7-7.4-28.3-.1-.3-.1-.5-.2-.8-.6-1.7-1.8-2.8-3.1-2.8H545.1c-1.4 0-2.6 1.3-3.2 3.2-.2.7-5.8 21.9-7.6 28.7l-1.2 4.1c-.9 2.8-1.4 3.6-3 3.8h177.1z"/><path fill="#D8D8D8" d="M484.5 192.1h222.7l14-48.5H466.5z"/><path fill="#FFF" d="M722.5 179.4c0 3.3-2.7 6-5.9 6H476.4v-36.1h240.2c3.3 0 5.9 2.7 5.9 6v24.1z"/></g><path fill="#FFF" stroke="#E2E2E2" stroke-miterlimit="10" stroke-opacity=".6" d="M464.8 136c0-75 59.6-136 132.8-136 73.2 0 132.8 61 132.8 136s-59.6 136-132.8 136-132.8-61-132.8-136zm15.9 0c0 66.2 52.4 120 116.8 120s116.8-53.8 116.8-120S661.9 16 597.5 16 480.7 69.8 480.7 136z"/></g></svg>