<svg xmlns="http://www.w3.org/2000/svg" viewBox="0 0 1574.7 1091.5"><path fill="#FFF" d="M1200.5 414.4V1084c0 3.9-3.1 7-7 7H7.5c-3.9 0-7-3.1-7-7V330c0-3.9 3.1-7 7-7h1104.8"/><path fill="#D5D5D5" d="M1112.3 324.3l-1104.8-1c-3.9 0-7 3.1-7 7V392h1164.3"/><path fill="none" stroke="#BFBDBD" stroke-miterlimit="10" d="M1200.5 414.4V1084c0 3.9-3.1 7-7 7H7.5c-3.9 0-7-3.1-7-7V330c0-3.9 3.1-7 7-7h1156.8"/><path fill="#BFBEBE" stroke="#D8D8D7" stroke-width="2" stroke-miterlimit="10" d="M294.7 351.4c-1.5-.2-2-.7-2.9-2.6-.7-1.6-1.1-2.8-1.2-2.9-1.8-4.7-7.3-18.7-7.5-19.1-.1-.2-.1-.4-.2-.5-.6-1.1-1.8-1.9-3.1-1.9H132c-1.4 0-2.6.9-3.2 2.2-.2.5-5.8 14.8-7.6 19.5l-1.2 2.8c-.9 1.9-1.4 2.4-3 2.6h177.7z"/><g fill="#FFF"><circle cx="11.1" cy="334.6" r="4.6"/><circle cx="26" cy="334.6" r="4.6"/><circle cx="40.8" cy="334.6" r="4.6"/></g><path fill="#BFBEBE" d="M.5 391.8l1165.8 10.1-37.1-48L.5 350.6z"/><path fill="#FFF" d="M277.6 334l-.9-1-2.7 3-2.8-3-.9 1 2.8 3-2.8 3.1.9 1 2.8-3 2.7 3 .9-1-2.7-3.1z"/><path fill="#BFBEBE" stroke="#D8D8D7" stroke-width="2" stroke-miterlimit="10" d="M380.2 351.4c-1.5-.2-2-.7-2.9-2.6-.7-1.6-1.1-2.8-1.2-2.9-1.8-4.7-7.3-18.7-7.5-19.1-.1-.2-.1-.4-.2-.5-.6-1.1-1.8-1.9-3.1-1.9H217.6c-1.4 0-2.6.9-3.2 2.2-.2.5-5.8 14.8-7.6 19.5l-1.2 2.8c-.9 1.9-1.4 2.4-3 2.6h177.6z"/><path fill="#FFF" d="M354.3 334l-1-1-2.7 3-2.7-3-.9 1 2.7 3-2.7 3.1.9 1 2.7-3 2.7 3 1-1-2.8-3.1z"/><path fill="#BFBEBE" stroke="#D8D8D7" stroke-width="2" stroke-miterlimit="10" d="M465.7 351.4c-1.5-.2-2-.7-2.9-2.6-.7-1.6-1.1-2.8-1.2-2.9-1.8-4.7-7.3-18.7-7.5-19.1-.1-.2-.1-.4-.2-.5-.6-1.1-1.8-1.9-3.1-1.9H303.1c-1.4 0-2.6.9-3.2 2.2-.2.5-5.8 14.8-7.6 19.5l-1.2 2.8c-.9 1.9-1.4 2.4-3 2.6h177.6z"/><path fill="#FFF" d="M430.9 334l-.9-1-2.7 3-2.7-3-1 1 2.8 3-2.8 3.1 1 1 2.7-3 2.7 3 .9-1-2.7-3.1z"/><path fill="#BFBEBE" stroke="#D8D8D7" stroke-width="2" stroke-miterlimit="10" d="M551.3 351.4c-1.5-.2-2-.7-2.9-2.6-.7-1.6-1.1-2.8-1.2-2.9-1.8-4.7-7.3-18.7-7.5-19.1-.1-.2-.1-.4-.2-.5-.6-1.1-1.8-1.9-3.1-1.9H388.6c-1.4 0-2.6.9-3.2 2.2-.2.5-5.8 14.8-7.6 19.5l-1.2 2.8c-.9 1.9-1.4 2.4-3 2.6h177.7z"/><path fill="#FFF" d="M507.6 334l-.9-1-2.8 3-2.7-3-.9 1 2.7 3-2.7 3.1.9 1 2.7-3 2.8 3 .9-1-2.8-3.1z"/><path fill="#BFBEBE" stroke="#D8D8D7" stroke-width="2" stroke-miterlimit="10" d="M636.8 351.4c-1.5-.2-2-.7-2.9-2.6-.7-1.6-1.1-2.8-1.2-2.9-1.8-4.7-7.3-18.7-7.5-19.1-.1-.2-.1-.4-.2-.5-.6-1.1-1.8-1.9-3.1-1.9H474.1c-1.4 0-2.6.9-3.2 2.2-.2.5-5.8 14.8-7.6 19.5l-1.2 2.8c-.9 1.9-1.4 2.4-3 2.6h177.7z"/><path fill="#FFF" d="M584.2 334l-.9-1-2.7 3-2.7-3-.9 1 2.7 3-2.7 3.1.9 1 2.7-3 2.7 3 .9-1-2.7-3.1z"/><path fill="#BFBEBE" stroke="#D8D8D7" stroke-width="2" stroke-miterlimit="10" d="M722.3 351.4c-1.5-.2-2-.7-2.9-2.6-.7-1.6-1.1-2.8-1.2-2.9-1.8-4.7-7.3-18.7-7.5-19.1-.1-.2-.1-.4-.2-.5-.6-1.1-1.8-1.9-3.1-1.9H559.7c-1.4 0-2.6.9-3.2 2.2-.2.5-5.8 14.8-7.6 19.5l-1.2 2.8c-.9 1.9-1.4 2.4-3 2.6h177.6z"/><path fill="#FFF" d="M660.9 334l-.9-1-2.7 3-2.8-3-.9 1 2.7 3-2.7 3.1.9 1 2.8-3 2.7 3 .9-1-2.7-3.1z"/><path fill="#BFBEBE" stroke="#D8D8D7" stroke-width="2" stroke-miterlimit="10" d="M807.8 351.4c-1.5-.2-2-.7-2.9-2.6-.7-1.6-1.1-2.8-1.2-2.9-1.8-4.7-7.3-18.7-7.5-19.1-.1-.2-.1-.4-.2-.5-.6-1.1-1.8-1.9-3.1-1.9H645.2c-1.4 0-2.6.9-3.2 2.2-.2.5-5.8 14.8-7.6 19.5l-1.2 2.8c-.9 1.9-1.4 2.4-3 2.6h177.6z"/><path fill="#FFF" d="M737.5 334l-.9-1-2.7 3-2.7-3-.9 1 2.7 3-2.7 3.1.9 1 2.7-3 2.7 3 .9-1-2.7-3.1z"/><path fill="#BFBEBE" stroke="#D8D8D7" stroke-width="2" stroke-miterlimit="10" d="M893.4 351.4c-1.5-.2-2-.7-2.9-2.6-.7-1.6-1.1-2.8-1.2-2.9-1.8-4.7-7.3-18.7-7.5-19.1-.1-.2-.1-.4-.2-.5-.6-1.1-1.8-1.9-3.1-1.9H730.7c-1.4 0-2.6.9-3.2 2.2-.2.5-5.8 14.8-7.6 19.5l-1.2 2.8c-.9 1.9-1.4 2.4-3 2.6h177.7z"/><path fill="#BFBEBE" stroke="#D8D8D7" stroke-width="2" stroke-miterlimit="10" d="M978.9 351.4c-1.5-.2-2-.7-2.9-2.6-.7-1.6-1.1-2.8-1.2-2.9-1.8-4.7-7.3-18.7-7.5-19.1-.1-.2-.1-.4-.2-.5-.6-1.1-1.8-1.9-3.1-1.9H816.2c-1.4 0-2.6.9-3.2 2.2-.2.5-5.8 14.8-7.6 19.5l-1.2 2.8c-.9 1.9-1.4 2.4-3 2.6h177.7z"/><path fill="#BFBEBE" stroke="#D8D8D7" stroke-width="2" stroke-miterlimit="10" d="M1064.4 351.4c-1.5-.2-2-.7-2.9-2.6-.7-1.6-1.1-2.8-1.2-2.9-1.8-4.7-7.3-18.7-7.5-19.1-.1-.2-.1-.4-.2-.5-.6-1.1-1.8-1.9-3.1-1.9H901.8c-1.4 0-2.6.9-3.2 2.2-.2.5-5.8 14.8-7.6 19.5l-1.2 2.8c-.9 1.9-1.4 2.4-3 2.6h177.6z"/><path fill="#B7D2E2" stroke="#D8D8D7" stroke-width="2" stroke-miterlimit="10" d="M1121 324.3H987.3c-1.4 0-2.6.9-3.2 2.2-.2.5-5.8 14.8-7.6 19.5l-1.2 2.8c-.9 1.9-1.4 2.4-3 2.6h152.9"/><path fill="#FFF" d="M1132.9 334l-1-1-2.7 3-2.7-3-.9 1 2.7 3-2.7 3.1.9 1 2.7-3 2.7 3 1-1-2.8-3.1z"/><path fill="#BFBEBE" stroke="#D8D8D7" stroke-width="2" stroke-miterlimit="10" d="M1127.9 266.7h229.6c-3.5-.4-4.7-1.7-6.9-6.1l-.1-.1c-1.6-3.9-2.8-6.8-2.8-6.9-4.4-11.2-17.6-45-17.9-45.9-.2-.4-.4-.9-.6-1.2-1.5-2.8-4.3-4.6-7.4-4.6h-194.5"/><path fill="#B7D2E2" stroke="#D8D8D7" stroke-width="2" stroke-miterlimit="10" d="M1551.6 266.7c-3.5-.4-4.7-1.7-6.9-6.1l-.1-.1c-1.6-3.9-2.8-6.8-2.8-6.9-4.4-11.2-17.6-45-17.9-45.9-.2-.4-.4-.9-.6-1.2-1.5-2.8-4.3-4.6-7.4-4.6h-354.7c-3.4 0-6.3 2.1-7.7 5.3-.5 1.1-13.9 35.6-18.3 46.7l-2.8 6.7c-2.3 4.6-3.5 5.8-7.3 6.2h426.5z"/><path fill="#FFF" d="M1512.1 225l-2.1-2.4-6.6 7.3-6.5-7.3-2.2 2.4 6.5 7.3-6.5 7.3 2.2 2.4 6.5-7.3 6.6 7.3 2.1-2.4-6.5-7.3z"/><path fill="#A0A09F" d="M48.3 364.3l-1.7 1.7 3.9 4H40v2.4h10.5l-3.9 4 1.7 1.7 6.9-6.9zm-27.1 0l1.7 1.7-3.9 4h10.5v2.4H19l3.9 4-1.7 1.7-6.9-6.9z"/><path fill-rule="evenodd" clip-rule="evenodd" fill="#A0A09F" d="M79.3 364.3v6.4c-2.2-.4-4.3-.8-6.5-1.2l.1-.1c.7-.5 1.4-1.1 2-1.6.1-.1.1-.1 0-.1-.5-.3-1.1-.6-1.8-.6-.8-.1-1.5 0-2.2.3-1.5.7-2.4 1.9-2.6 3.5-.1.9 0 1.7.4 2.5s1 1.4 1.8 1.8c.8.4 1.6.6 2.5.5 1-.1 1.8-.5 2.5-1.2.4-.4.7-.8.9-1.3 0-.1 0-.1.1-.1.8.2 1.5.4 2.3.6.1 0 .1 0 .1.1-.4 1-1 1.9-1.8 2.6-1.1.9-2.3 1.5-3.7 1.7-.9.1-1.7.1-2.6-.1-1.8-.5-3.2-1.5-4.2-3.1-.5-.8-.8-1.7-.9-2.6 0-.2 0-.3-.1-.5v-1c0-.3.1-.7.1-1 .4-1.5 1.1-2.8 2.3-3.8 1-.8 2.2-1.3 3.5-1.5.8-.1 1.6-.1 2.4.1 1 .2 2 .7 2.8 1.4.1.1.1.1.2 0 .9-.6 1.6-1.1 2.4-1.7-.1 0 0 0 0 0zm25.3 7.3c.3-.3.5-.6.8-.9l-.1-.1c-2.4-2.1-4.8-4.2-7.1-6.3 0 0 0-.1-.1-.1H98c-.2.2-.5.4-.7.7-2.1 1.9-4.2 3.8-6.4 5.6-.1 0-.1.1-.2.1.3.3.5.6.8.9.5-.4.9-.8 1.4-1.2v7.3c0 .2 0 .3.2.4h3.3v-5.7c0-.2.1-.4.4-.4h2.5c.3 0 .4.1.4.4v5.7h3.3c.2-.1.2-.2.2-.4v-7.3c.5.4.9.9 1.4 1.3zm-9.9-5.3s.1 0 0 0c.1-.4.1-.8.1-1.1H93v2.7c.5-.5 1.1-1.1 1.7-1.6z"/><path fill="#FFF" d="M1149.9 380.8c0 2.2-1.8 4-4 4H123.2c-2.2 0-4-1.8-4-4v-19.2c0-2.2 1.8-4 4-4h1022.7c2.2 0 4 1.8 4 4v19.2z"/><path fill="#BFBEBE" d="M1556.2 262.6h-428.8v66h427.2"/><path fill="#D5D5D5" d="M136.5 372.1c.5-.7.7-1.6.7-2.4 0-2.4-2-4.4-4.4-4.4-2.4 0-4.4 2-4.4 4.4 0 2.4 2 4.4 4.4 4.4 1 0 1.9-.3 2.7-.9l3.9 3.9 1-1-3.9-4zm-3.7.5c-1.6 0-3-1.3-3-3 0-1.6 1.3-3 3-3 1.6 0 3 1.3 3 3s-1.4 3-3 3z"/><path opacity=".3" fill="#B3DAE0" d="M1226.1 449.8l-250.5-117 151.2-191.4-1 141.9 47.7 107.5z"/><path fill="#FFF" stroke="#E2E2E2" stroke-miterlimit="10" stroke-opacity=".5" d="M1105.9 240.4c0-132.3 105-239.9 234.2-239.9s234.2 107.6 234.2 239.9-105 239.9-234.2 239.9-234.2-107.7-234.2-239.9zm28.2 0c0 116.7 92.4 211.7 206 211.7s206-95 206-211.7-92.4-211.7-206-211.7-206 94.9-206 211.7z"/><path fill="#FFF" d="M1130.6 273.7h413.8c3.5 0 6.4 2.9 6.4 6.5V311c0 3.6-2.9 6.5-6.4 6.5h-400.2m-21.4 13h-7.5"/><path fill="#82D889" d="M615.3 838.8c-17.5 0-33.8-4.8-48.3-14.5s-25.3-21.7-32.6-36.8L462 661.9c-15.1 27.2-21.7 56.7-21.7 87.5 0 44.1 14.5 82.1 42.8 114.7s64 51.9 106.2 58.5l50.7-88.1c-4.8 1.8-13.8 4.3-24.7 4.3"/><path fill="#E86438" d="M560.4 677c16.3-12.7 34.4-18.1 54.9-18.1h150.3c-15.7-26.6-36.8-45.9-63.4-60.9-26.6-15.7-55.5-23.5-86.9-23.5-27.2 0-53.1 6-76.6 17.5-23.5 11.5-45.9 28.4-61.6 50.1l50.7 83.3c4.8-19.4 16.3-35.7 32.6-48.4"/><path fill="#FCE056" d="M777 683.7H675.6c17.5 17.5 29.6 40.4 29.6 65.8 0 18.7-5.4 35.6-15.7 51.3l-72.4 123.7c47.7-.6 88.7-17.5 122.5-51.9s50.7-75.4 50.7-123.1c0-22.4-3.6-45.9-13.3-65.8"/><path fill="#25B9E1" d="M615.3 683.1c36.2 0 66.4 30.2 66.4 66.4s-30.2 66.4-66.4 66.4-66.4-30.2-66.4-66.4 30.2-66.4 66.4-66.4"/></svg>