<svg xmlns="http://www.w3.org/2000/svg" viewBox="0 0 1102 776.8"><path fill="none" stroke="#DDD" stroke-miterlimit="10" d="M1096.5 769.2c0 3.9-2.9 7-6.4 7H6.9c-3.5 0-6.4-3.1-6.4-7v-754c0-3.9 2.9-7 6.4-7h1083.2c3.5 0 6.4 3.1 6.4 7v754z"/><path fill="#D5D5D5" d="M1096.5 63.8V7c0-3.9-2.9-7-6.4-7H6.9C3.4 0 .5 3.1.5 7v56.8h1096z"/><g fill="#FFF"><circle cx="13.1" cy="14.3" r="4.6"/><circle cx="28" cy="14.3" r="4.6"/><circle cx="42.8" cy="14.3" r="4.6"/></g><path fill="#E2E2E2" stroke="#BFBEBE" stroke-width="2" stroke-miterlimit="10" d="M196.9 39.9c-1.1-.2-1.4-.9-2.1-3.3-.5-2.1-.8-3.7-.9-3.8-2.5-9.7-7.9-24.4-8-24.9-.1-.2-.1-.5-.2-.7-.5-1.5-1.3-2.5-2.2-2.5H86.9c-1 0-1.9 1.2-2.3 2.8-.2.6-4.3 19.3-5.6 25.3l-.9 3.6c-.7 2.5-1.1 3.1-2.2 3.4h121z"/><path fill="#E2E2E2" stroke="#BFBEBE" stroke-width="2" stroke-miterlimit="10" d="M308.9 39.9c-1.1-.2-1.4-.9-2.1-3.3-.5-2.1-.8-3.7-.9-3.8-2.5-9.7-7.9-24.4-8-24.9-.1-.2-.1-.5-.2-.7-.5-1.5-1.3-2.5-2.2-2.5h-96.6c-1 0-1.9 1.2-2.3 2.8-.2.6-4.3 19.3-5.6 25.3l-.9 3.6c-.7 2.5-1.1 3.1-2.2 3.4h121z"/><path fill="#E2E2E2" stroke="#BFBEBE" stroke-width="2" stroke-miterlimit="10" d="M420.9 39.9c-1.1-.2-1.4-.9-2.1-3.3-.5-2.1-.8-3.7-.9-3.8-2.5-9.7-7.9-24.4-8-24.9-.1-.2-.1-.5-.2-.7-.5-1.5-1.3-2.5-2.2-2.5h-96.6c-1 0-1.9 1.2-2.3 2.8-.2.6-4.3 19.3-5.6 25.3l-.9 3.6c-.7 2.5-1.1 3.1-2.2 3.4h121z"/><path fill="#E2E2E2" stroke="#BFBEBE" stroke-width="2" stroke-miterlimit="10" d="M532.9 39.9c-1.1-.2-1.4-.9-2.1-3.3-.5-2.1-.8-3.7-.9-3.8-2.5-9.7-7.9-24.4-8-24.9-.1-.2-.1-.5-.2-.7-.5-1.5-1.3-2.5-2.2-2.5h-96.6c-1 0-1.9 1.2-2.3 2.8-.2.6-4.3 19.3-5.6 25.3l-.9 3.6c-.7 2.5-1.1 3.1-2.2 3.4h121z"/><path fill="#E2E2E2" stroke="#BFBEBE" stroke-width="2" stroke-miterlimit="10" d="M644.9 39.9c-1.1-.2-1.4-.9-2.1-3.3-.5-2.1-.8-3.7-.9-3.8-2.5-9.7-7.9-24.4-8-24.9-.1-.2-.1-.5-.2-.7-.5-1.5-1.3-2.5-2.2-2.5h-96.6c-1 0-1.9 1.2-2.3 2.8-.2.6-4.3 19.3-5.6 25.3l-.9 3.6c-.7 2.5-1.1 3.1-2.2 3.4h121z"/><path fill="#E2E2E2" stroke="#BFBEBE" stroke-width="2" stroke-miterlimit="10" d="M756.9 39.9c-1.1-.2-1.4-.9-2.1-3.3-.5-2.1-.8-3.7-.9-3.8-2.5-9.7-7.9-24.4-8-24.9-.1-.2-.1-.5-.2-.7-.5-1.5-1.3-2.5-2.2-2.5h-96.6c-1 0-1.9 1.2-2.3 2.8-.2.6-4.3 19.3-5.6 25.3l-.9 3.6c-.7 2.5-1.1 3.1-2.2 3.4h121z"/><path fill="#E2E2E2" stroke="#BFBEBE" stroke-width="2" stroke-miterlimit="10" d="M868.9 39.9c-1.1-.2-1.4-.9-2.1-3.3-.5-2.1-.8-3.7-.9-3.8-2.5-9.7-7.9-24.4-8-24.9-.1-.2-.1-.5-.2-.7-.5-1.5-1.3-2.5-2.2-2.5h-96.6c-1 0-1.9 1.2-2.3 2.8-.2.6-4.3 19.3-5.6 25.3l-.9 3.6c-.7 2.5-1.1 3.1-2.2 3.4h121z"/><path fill="#E2E2E2" stroke="#BFBEBE" stroke-width="2" stroke-miterlimit="10" d="M980.9 39.9c-1.1-.2-1.4-.9-2.1-3.3-.5-2.1-.8-3.7-.9-3.8-2.5-9.7-7.9-24.4-8-24.9-.1-.2-.1-.5-.2-.7-.5-1.5-1.3-2.5-2.2-2.5h-96.6c-1 0-1.9 1.2-2.3 2.8-.2.6-4.3 19.3-5.6 25.3l-.9 3.6c-.7 2.5-1.1 3.1-2.2 3.4h121z"/><path fill="#CEE4F4" stroke="#BCBCBC" stroke-width="2" stroke-miterlimit="10" d="M1092.9 39.9c-1.1-.2-1.4-.9-2.1-3.3-.5-2.1-.8-3.7-.9-3.8-2.5-9.7-7.9-24.4-8-24.9-.1-.2-.1-.5-.2-.7-.5-1.5-1.3-2.5-2.2-2.5h-96.6c-1 0-1.9 1.2-2.3 2.8-.2.6-4.3 19.3-5.6 25.3l-.9 3.6c-.7 2.5-1.1 3.1-2.2 3.4h121z"/><path fill="#BFBEBE" d="M.5 35.8h1096V77H.5z"/><path fill="#A0A09F" d="M50.3 49.5l-1.7 1.7 3.9 4H42v2.4h10.5l-3.9 4 1.7 1.7 6.9-6.9zm-27.1 0l1.7 1.7-3.9 4h10.5v2.4H21l3.9 4-1.7 1.7-6.9-6.9z"/><path fill-rule="evenodd" clip-rule="evenodd" fill="#A0A09F" d="M81.3 49.5v6.4c-2.2-.4-4.3-.8-6.5-1.2l.1-.1c.7-.5 1.4-1.1 2-1.6.1-.1.1-.1 0-.1-.5-.3-1.1-.6-1.8-.6-.8-.1-1.5 0-2.2.3-1.5.7-2.4 1.9-2.6 3.5-.1.9 0 1.7.4 2.5s1 1.4 1.8 1.8c.8.4 1.6.6 2.5.5 1-.1 1.8-.5 2.5-1.2.4-.4.7-.8.9-1.3 0-.1 0-.1.1-.1.8.2 1.5.4 2.3.6.1 0 .1 0 .1.1-.4 1-1 1.9-1.8 2.6-1.1.9-2.3 1.5-3.7 1.7-.9.1-1.7.1-2.6-.1-1.8-.5-3.2-1.5-4.2-3.1-.5-.8-.8-1.7-.9-2.6 0-.2 0-.3-.1-.5v-1c0-.3.1-.7.1-1 .4-1.5 1.1-2.8 2.3-3.8 1-.8 2.2-1.3 3.5-1.5.8-.1 1.6-.1 2.4.1 1 .2 2 .7 2.8 1.4.1.1.1.1.2 0 .9-.5 1.6-1.1 2.4-1.7-.1.1 0 .1 0 0zm25.3 7.3c.3-.3.5-.6.8-.9l-.1-.1c-2.4-2.1-4.8-4.2-7.1-6.3 0 0 0-.1-.1-.1h-.1c-.2.2-.5.4-.7.7-2.1 1.9-4.2 3.8-6.4 5.6-.1 0-.1.1-.2.1.3.3.5.6.8.9.5-.4.9-.8 1.4-1.2v7.3c0 .2 0 .3.2.4h3.3v-5.7c0-.2.1-.4.4-.4h2.5c.3 0 .4.1.4.4v5.7h3.3c.2-.1.2-.2.2-.4v-7.3c.5.5.9.9 1.4 1.3zm-9.9-5.2c0-.1.1-.1 0 0 .1-.4.1-.8.1-1.1H95v2.7c.5-.6 1.1-1.1 1.7-1.6z"/><path d="M1084.1 51.1c0 .3-.3.6-.6.6h-15.1c-.3 0-.6-.3-.6-.6v-1.8c0-.3.3-.6.6-.6h15.1c.3 0 .6.3.6.6v1.8zm0 6.2c0 .3-.3.6-.6.6h-15.1c-.3 0-.6-.3-.6-.6v-1.8c0-.3.3-.6.6-.6h15.1c.3 0 .6.3.6.6v1.8zm0 6.3c0 .3-.3.6-.6.6h-15.1c-.3 0-.6-.3-.6-.6v-1.8c0-.3.3-.6.6-.6h15.1c.3 0 .6.3.6.6v1.8z" fill="#A0A09F"/><path fill="#FFF" d="M1050.3 66c0 2.2-1.6 4-3.7 4H136.4c-2 0-3.7-1.8-3.7-4V46.8c0-2.2 1.6-4 3.7-4h910.2c2 0 3.7 1.8 3.7 4V66z"/><path fill="#D5D5D5" d="M150.5 57.4c.5-.7.7-1.6.7-2.4 0-2.4-2-4.4-4.4-4.4-2.4 0-4.4 2-4.4 4.4 0 2.4 2 4.4 4.4 4.4 1 0 1.9-.3 2.7-.9l3.9 3.9 1-1-3.9-4zm-3.7.5c-1.6 0-3-1.3-3-3 0-1.6 1.3-3 3-3 1.6 0 3 1.3 3 3s-1.4 3-3 3z"/></svg>