<svg id="Layer_1" xmlns="http://www.w3.org/2000/svg" viewBox="0 0 624.2 273"><path fill="#D5D5D5" d="M1 171.7h374.9v68.8H1z"/><path fill="#E2E2E2" stroke="#BFBEBE" stroke-width="2" stroke-miterlimit="10" d="M1 203.8h114.4c-1-.2-1.3-.7-1.9-2.6-.4-1.6-.8-2.8-.8-2.9-1.2-4.7-4.9-18.7-5-19.1 0-.2-.1-.4-.2-.5-.4-1.1-1.2-1.9-2.1-1.9H5.5c-.9 0-1.8.9-2.2 2.2-.1.2-1.2 4.4-2.4 9"/><path fill="#E2E2E2" stroke="#BFBEBE" stroke-width="2" stroke-miterlimit="10" d="M225.4 203.8c-1-.2-1.3-.7-1.9-2.6-.4-1.6-.8-2.8-.8-2.9-1.2-4.7-4.9-18.7-5-19.1 0-.2-.1-.4-.2-.5-.4-1.1-1.2-1.9-2.1-1.9h-99.8c-.9 0-1.8.9-2.2 2.2-.1.5-3.9 14.8-5.1 19.5l-.8 2.8c-.6 1.9-1 2.4-2 2.6h119.9z"/><path id="overflow-tab" fill="#CEE4F4" stroke="#BCBCBC" stroke-width="2" stroke-miterlimit="10" d="M335.4 228.8c-1-.2-1.3-.7-1.9-2.6-.4-1.6-.8-2.8-.8-2.9-1.2-4.7-4.9-18.7-5-19.1 0-.2-.1-.4-.2-.5-.4-1.1-1.2-1.9-2.1-1.9h-99.8c-.9 0-1.8.9-2.2 2.2-.1.5-3.9 14.8-5.1 19.5l-.8 2.8c-.6 1.9-1 2.4-2 2.6h119.9z"/><path fill="#D8D8D8" d="M1 240.2h374.9V199H1"/><path fill="#BFBEBE" d="M370.8 196.1c-1.6-3.8-6.6-15.1-6.7-15.4-.1-.1-.1-.3-.2-.4-.6-.9-1.6-1.5-2.8-1.5h-25.7v.1c1.6 3.8 6.6 15.1 6.7 15.4.1.1.1.3.2.4.6.9 1.6 1.5 2.8 1.5H369l1.8-.1c0 .1 0 .1 0 0z"/><path fill="#FFF" d="M1 206h362.1c2.2 0 4 1.8 4 4v19.2c0 2.2-1.8 4-4 4L1 233.3"/><path fill="none" stroke="#EDEDED" stroke-miterlimit="10" d="M375.9 240.5v-61.8c0-3.9-3.1-7-7-7H1"/><g id="magnifier"><path fill="#B3DAE0" d="M284.2 188.9l8.4-10.7 4.6 16.7-13-6z" opacity=".4" id="flash-start"/><path fill="#FFF" stroke="#E2E2E2" stroke-miterlimit="10" d="M607.7 136.5c0 66.1-52.3 120-116.8 120s-116.8-53.9-116.8-120 52.3-120 116.8-120 116.8 53.9 116.8 120z"/><g id="magnified"><path fill="#E2E2E2" stroke="#BFBEBE" stroke-width="2" stroke-miterlimit="10" d="M369.7 144.1h68.5c-1.5-.3-2-1-2.9-3.8-.7-2.4-1.1-4.2-1.2-4.3-1.8-6.9-7.3-27.7-7.4-28.3-.1-.3-.1-.5-.2-.8-.6-1.7-1.8-2.8-3.1-2.8h-50.5"/><path fill="#CEE4F4" stroke="#BCBCBC" stroke-width="2" stroke-miterlimit="10" d="M600.5 144.1c-1.5-.3-2-1-2.9-3.8-.7-2.4-1.1-4.2-1.2-4.3-1.8-6.9-7.3-27.7-7.4-28.3-.1-.3-.1-.5-.2-.8-.6-1.7-1.8-2.8-3.1-2.8H438.4c-1.4 0-2.6 1.3-3.2 3.2-.2.7-5.8 21.9-7.6 28.7l-1.2 4.1c-.9 2.8-1.4 3.6-3 3.8h177.1z"/><path d="M478.5 123.9c0 .8-.1 1.5-.4 2.2-.3.7-.6 1.3-1.1 1.8-.5.5-1.1.9-1.7 1.2-.7.3-1.4.4-2.2.4-.8 0-1.6-.1-2.2-.4-.7-.3-1.3-.7-1.7-1.2s-.9-1.1-1.1-1.8c-.3-.7-.4-1.4-.4-2.2s.1-1.5.4-2.2c.3-.7.6-1.3 1.1-1.8.5-.5 1.1-.9 1.7-1.2.7-.3 1.4-.4 2.2-.4.8 0 1.6.1 2.2.4.7.3 1.3.7 1.7 1.2.5.5.9 1.1 1.1 1.8.3.6.4 1.4.4 2.2zm-2 0c0-.6-.1-1.1-.2-1.6-.2-.5-.4-.9-.7-1.2s-.7-.6-1.1-.8c-.4-.2-.9-.3-1.4-.3-.5 0-1 .1-1.4.3-.4.2-.8.4-1.1.8s-.5.7-.7 1.2c-.2.5-.2 1-.2 1.6 0 .6.1 1.1.2 1.6s.4.9.7 1.2c.3.3.7.6 1.1.8.4.2.9.3 1.4.3.5 0 1-.1 1.4-.3.4-.2.8-.4 1.1-.8.3-.3.5-.7.7-1.2s.2-1 .2-1.6zm7.4 5.4h-1.7l-3.1-7.7h1.5c.1 0 .2 0 .3.1.1.1.2.1.2.2l1.5 4.1c.1.2.2.5.2.7s.1.5.2.7c0-.2.1-.5.2-.7.1-.2.1-.5.2-.7l1.5-4.1c0-.1.1-.2.2-.2.1-.1.2-.1.3-.1h1.5l-3 7.7zm7-7.8c.5 0 .9.1 1.3.2.4.2.8.4 1.1.7s.5.7.7 1.1.2.9.2 1.5v.3c0 .1 0 .2-.1.2 0 .1-.1.1-.1.1h-5c.1.8.3 1.4.6 1.7s.9.6 1.5.6c.3 0 .6 0 .8-.1.2-.1.4-.1.6-.2.2-.1.3-.2.4-.2.1-.1.2-.1.4-.1h.2c.1 0 .1.1.1.1l.5.7c-.2.2-.4.4-.7.6-.3.2-.5.3-.8.4-.3.1-.6.2-.8.2-.3 0-.6.1-.8.1-.5 0-1-.1-1.5-.3s-.9-.4-1.2-.8c-.3-.3-.6-.8-.8-1.3-.2-.5-.3-1.1-.3-1.8 0-.5.1-1 .3-1.5s.4-.9.7-1.2.7-.6 1.2-.8c.4-.1 1-.2 1.5-.2zm.1 1.3c-.5 0-1 .2-1.3.5-.3.3-.5.7-.6 1.3h3.5c0-.2 0-.5-.1-.7l-.3-.6c-.1-.2-.3-.3-.5-.4-.2-.1-.4-.1-.7-.1zm4.8 6.5v-7.7h1.1c.2 0 .3 0 .4.1.1.1.1.2.2.4l.1.9c.3-.5.6-.9 1-1.1s.8-.4 1.2-.4c.4 0 .7.1.9.3l-.2 1.4c0 .1 0 .2-.1.2 0 0-.1.1-.2.1s-.2 0-.3-.1c-.1 0-.3-.1-.5-.1-.4 0-.7.1-1 .3-.3.2-.5.5-.7.9v4.8h-1.9zm6.4 0V123l-.7-.1c-.1 0-.3-.1-.3-.2-.1-.1-.1-.2-.1-.3v-.8h1.1v-.3c0-.4.1-.8.2-1.2.1-.4.3-.7.6-1 .3-.3.6-.5 1-.7.4-.2.9-.3 1.4-.3h3.5v11h-1.8v-9.7h-1.4c-.6 0-1 .2-1.3.5s-.4.7-.4 1.3v.3h1.8v1.3H504v6.3h-1.8zm12.2-7.8c.6 0 1.1.1 1.6.3s.9.4 1.2.8.6.8.8 1.2c.2.5.3 1 .3 1.6 0 .6-.1 1.2-.3 1.6-.2.5-.4.9-.8 1.3-.3.3-.7.6-1.2.8s-1 .3-1.6.3c-.6 0-1.1-.1-1.6-.3-.5-.2-.9-.5-1.2-.8-.3-.3-.6-.8-.8-1.3-.2-.5-.3-1-.3-1.6 0-.6.1-1.2.3-1.6.2-.5.4-.9.8-1.2.3-.3.7-.6 1.2-.8.5-.2 1.1-.3 1.6-.3zm0 6.5c.6 0 1.1-.2 1.4-.6s.5-1.1.5-1.9c0-.8-.2-1.5-.5-1.9s-.8-.7-1.4-.7c-.7 0-1.1.2-1.4.7s-.5 1.1-.5 1.9c0 .8.2 1.5.5 1.9.3.4.8.6 1.4.6zm4.4-6.4h1.5c.1 0 .3 0 .4.1.1.1.2.1.2.2l1.1 4.1c.1.2.1.4.1.7 0 .2.1.4.1.6.1-.2.1-.4.2-.6.1-.2.1-.4.2-.7l1.3-4.1c0-.1.1-.2.2-.2s.2-.1.3-.1h.8c.1 0 .2 0 .3.1l.2.2 1.3 4.2c.1.2.1.4.2.6.1.2.1.4.2.6 0-.2.1-.4.1-.6 0-.2.1-.4.2-.7l1.1-4.1c0-.1.1-.2.2-.2.1-.1.2-.1.3-.1h1.4l-2.4 7.7h-1.5c-.2 0-.3-.1-.3-.3l-1.4-4.4c0-.1-.1-.3-.1-.4 0-.1-.1-.3-.1-.4 0 .1-.1.3-.1.4 0 .1-.1.3-.1.4L523 129c-.1.2-.2.3-.4.3h-1.4l-2.4-7.7zm23.4-3.2v1.7h-3.3v9.2h-2v-9.2h-3.3v-1.7h8.6zm5.4 10.9h-.8c-.2 0-.3 0-.4-.1-.1-.1-.2-.2-.2-.3l-.2-.5c-.2.2-.4.3-.6.5l-.6.3c-.2.1-.4.2-.6.2-.2 0-.5.1-.8.1-.3 0-.6 0-.9-.1s-.5-.2-.7-.4c-.2-.2-.4-.4-.5-.7-.1-.3-.2-.6-.2-.9 0-.3.1-.6.2-.9.2-.3.4-.5.8-.8.4-.2.8-.4 1.4-.6.6-.2 1.3-.2 2.2-.2v-.5c0-.5-.1-.9-.3-1.2-.2-.2-.5-.4-.9-.4-.3 0-.5 0-.8.1-.2.1-.4.1-.5.2s-.3.2-.4.2c-.1.1-.3.1-.4.1-.1 0-.2 0-.3-.1s-.2-.1-.2-.2l-.3-.6c.9-.8 2-1.2 3.2-1.2.5 0 .9.1 1.2.2s.7.4.9.6l.6.9c.1.4.2.8.2 1.2v5.1zm-3.6-1.2c.2 0 .4 0 .5-.1.2 0 .3-.1.5-.2s.3-.2.4-.3c.1-.1.3-.2.4-.4V126c-.5 0-1 0-1.4.1-.4.1-.7.2-.9.3-.2.1-.4.2-.5.4-.1.1-.1.3-.1.5 0 .3.1.6.3.7.2.1.5.1.8.1zm5.4 1.2v-11.1h1.9v4.4c.3-.3.6-.6 1-.8.4-.2.8-.3 1.3-.3.4 0 .8.1 1.2.3s.6.4.9.8c.3.3.4.7.6 1.2.1.5.2 1 .2 1.7 0 .6-.1 1.1-.2 1.6-.2.5-.4.9-.7 1.3-.3.4-.6.6-1 .8-.4.2-.9.3-1.4.3-.2 0-.5 0-.6-.1-.2 0-.4-.1-.5-.2-.2-.1-.3-.2-.4-.3l-.4-.4-.1.5c0 .1-.1.2-.2.3s-.2.1-.3.1h-1.3zm3.6-6.4c-.4 0-.7.1-1 .2-.3.2-.5.4-.8.7v3.4c.2.3.4.4.7.5.2.1.5.2.8.2.3 0 .5-.1.8-.2.2-.1.4-.3.6-.5.2-.2.3-.5.4-.8.1-.3.1-.7.1-1.2 0-.4 0-.8-.1-1.1s-.2-.6-.3-.8-.3-.3-.5-.4c-.2.1-.4 0-.7 0z" fill="#7C7C7C"/><path fill="#D8D8D8" d="M377.8 192.6h222.7l14-48.5H359.8z"/><path fill="#FFF" d="M615.8 179.9c0 3.3-2.7 6-5.9 6H369.7v-36.1h240.2c3.3 0 5.9 2.7 5.9 6v24.1z"/></g><path fill="#FFF" stroke="#E2E2E2" stroke-miterlimit="10" stroke-opacity=".6" d="M358.1 136.5c0-75 59.6-136 132.8-136s132.8 61 132.8 136-59.6 136-132.8 136-132.8-61-132.8-136zm16 0c0 66.2 52.4 120 116.8 120s116.8-53.8 116.8-120-52.4-120-116.8-120-116.8 53.8-116.8 120z"/></g></svg>