<svg xmlns="http://www.w3.org/2000/svg" viewBox="0 0 1201 769"><path fill="#FFF" d="M1200.5 761.5c0 3.9-3.1 7-7 7H7.5c-3.9 0-7-3.1-7-7V7.5c0-3.9 3.1-7 7-7h1186c3.9 0 7 3.1 7 7v754z"/><path fill="#D5D5D5" d="M1200.5 69.5V7.7c0-3.9-3.1-7-7-7H7.5c-3.9 0-7 3.1-7 7v61.8h1200z"/><path fill="none" stroke="#BFBDBD" stroke-miterlimit="10" d="M1200.5 761.5c0 3.9-3.1 7-7 7H7.5c-3.9 0-7-3.1-7-7V7.5c0-3.9 3.1-7 7-7h1186c3.9 0 7 3.1 7 7v754z"/><g fill="#FFF"><circle cx="11.1" cy="12.1" r="4.6"/><circle cx="26" cy="12.1" r="4.6"/><circle cx="40.8" cy="12.1" r="4.6"/></g><path fill="#E2E2E2" stroke="#BFBEBE" stroke-width="2" stroke-miterlimit="10" d="M237 32.9c-1-.2-1.3-.7-1.9-2.6-.4-1.6-.8-2.8-.8-2.9-1.2-4.7-4.9-18.7-5-19.1 0-.2-.1-.4-.2-.5-.4-1.1-1.2-1.9-2.1-1.9h-99.8c-.9 0-1.8.9-2.2 2.2-.1.5-3.9 14.8-5.1 19.5l-.8 2.8c-.6 1.9-1 2.4-2 2.6H237z"/><path fill="#E2E2E2" stroke="#BFBEBE" stroke-width="2" stroke-miterlimit="10" d="M347 32.9c-1-.2-1.3-.7-1.9-2.6-.4-1.6-.8-2.8-.8-2.9-1.2-4.7-4.9-18.7-5-19.1 0-.2-.1-.4-.2-.5-.4-1.1-1.2-1.9-2.1-1.9h-99.8c-.9 0-1.8.9-2.2 2.2-.1.5-3.9 14.8-5.1 19.5l-.8 2.8c-.6 1.9-1 2.4-2 2.6H347z"/><path fill="#E2E2E2" stroke="#BFBEBE" stroke-width="2" stroke-miterlimit="10" d="M457 32.9c-1-.2-1.3-.7-1.9-2.6-.4-1.6-.8-2.8-.8-2.9-1.2-4.7-4.9-18.7-5-19.1 0-.2-.1-.4-.2-.5-.4-1.1-1.2-1.9-2.1-1.9h-99.8c-.9 0-1.8.9-2.2 2.2-.1.5-3.9 14.8-5.1 19.5l-.8 2.8c-.6 1.9-1 2.4-2 2.6H457z"/><path fill="#E2E2E2" stroke="#BFBEBE" stroke-width="2" stroke-miterlimit="10" d="M567 32.9c-1-.2-1.3-.7-1.9-2.6-.4-1.6-.8-2.8-.8-2.9-1.2-4.7-4.9-18.7-5-19.1 0-.2-.1-.4-.2-.5-.4-1.1-1.2-1.9-2.1-1.9h-99.8c-.9 0-1.8.9-2.2 2.2-.1.5-3.9 14.8-5.1 19.5l-.8 2.8c-.6 1.9-1 2.4-2 2.6H567z"/><path fill="#E2E2E2" stroke="#BFBEBE" stroke-width="2" stroke-miterlimit="10" d="M677 32.9c-1-.2-1.3-.7-1.9-2.6-.4-1.6-.8-2.8-.8-2.9-1.2-4.7-4.9-18.7-5-19.1 0-.2-.1-.4-.2-.5-.4-1.1-1.2-1.9-2.1-1.9h-99.8c-.9 0-1.8.9-2.2 2.2-.1.5-3.9 14.8-5.1 19.5l-.8 2.8c-.6 1.9-1 2.4-2 2.6H677z"/><path fill="#E2E2E2" stroke="#BFBEBE" stroke-width="2" stroke-miterlimit="10" d="M787 32.9c-1-.2-1.3-.7-1.9-2.6-.4-1.6-.8-2.8-.8-2.9-1.2-4.7-4.9-18.7-5-19.1 0-.2-.1-.4-.2-.5-.4-1.1-1.2-1.9-2.1-1.9h-99.8c-.9 0-1.8.9-2.2 2.2-.1.5-3.9 14.8-5.1 19.5l-.8 2.8c-.6 1.9-1 2.4-2 2.6H787z"/><path fill="#E2E2E2" stroke="#BFBEBE" stroke-width="2" stroke-miterlimit="10" d="M897 32.9c-1-.2-1.3-.7-1.9-2.6-.4-1.6-.8-2.8-.8-2.9-1.2-4.7-4.9-18.7-5-19.1 0-.2-.1-.4-.2-.5-.4-1.1-1.2-1.9-2.1-1.9h-99.8c-.9 0-1.8.9-2.2 2.2-.1.5-3.9 14.8-5.1 19.5l-.8 2.8c-.6 1.9-1 2.4-2 2.6H897z"/><path fill="#E2E2E2" stroke="#BFBEBE" stroke-width="2" stroke-miterlimit="10" d="M1007 32.9c-1-.2-1.3-.7-1.9-2.6-.4-1.6-.8-2.8-.8-2.9-1.2-4.7-4.9-18.7-5-19.1 0-.2-.1-.4-.2-.5-.4-1.1-1.2-1.9-2.1-1.9h-99.8c-.9 0-1.8.9-2.2 2.2-.1.5-3.9 14.8-5.1 19.5l-.8 2.8c-.6 1.9-1 2.4-2 2.6H1007z"/><path fill="#CEE4F4" stroke="#BCBCBC" stroke-width="2" stroke-miterlimit="10" d="M1117 32.9c-1-.2-1.3-.7-1.9-2.6-.4-1.6-.8-2.8-.8-2.9-1.2-4.7-4.9-18.7-5-19.1 0-.2-.1-.4-.2-.5-.4-1.1-1.2-1.9-2.1-1.9h-99.8c-.9 0-1.8.9-2.2 2.2-.1.5-3.9 14.8-5.1 19.5l-.8 2.8c-.6 1.9-1 2.4-2 2.6H1117z"/><path fill="#BFBEBE" d="M.5 28.1h1200v41.2H.5z"/><path fill="#A0A09F" d="M48.3 41.8l-1.7 1.7 3.9 3.9H40v2.5h10.5l-3.9 3.9 1.7 1.8 6.9-6.9zm-27.1 0l1.7 1.7-3.9 3.9h10.5v2.5H19l3.9 3.9-1.7 1.8-6.9-6.9z"/><path fill-rule="evenodd" clip-rule="evenodd" fill="#A0A09F" d="M79.3 41.8v6.4c-2.2-.4-4.3-.8-6.5-1.2l.1-.1c.7-.5 1.4-1.1 2-1.6.1-.1.1-.1 0-.1-.5-.3-1.1-.6-1.8-.6-.8-.1-1.5 0-2.2.3-1.5.7-2.4 1.9-2.6 3.5-.1.9 0 1.7.4 2.5s1 1.4 1.8 1.8c.8.4 1.6.6 2.5.5 1-.1 1.8-.5 2.5-1.2.4-.4.7-.8.9-1.3 0-.1 0-.1.1-.1.8.2 1.5.4 2.3.6.1 0 .1 0 .1.1-.4 1-1 1.9-1.8 2.6-1.1.9-2.3 1.5-3.7 1.7-.9.1-1.7.1-2.6-.1-1.8-.5-3.2-1.5-4.2-3.1-.5-.8-.8-1.7-.9-2.6 0-.2 0-.3-.1-.5v-1c0-.3.1-.7.1-1 .4-1.5 1.1-2.8 2.3-3.8 1-.8 2.2-1.3 3.5-1.5.8-.1 1.6-.1 2.4.1 1 .2 2 .7 2.8 1.4.1.1.1.1.2 0 .9-.6 1.6-1.1 2.4-1.7-.1 0 0 0 0 0zm25.3 7.3c.3-.3.5-.6.8-.9l-.1-.1c-2.4-2.1-4.8-4.2-7.1-6.3 0 0 0-.1-.1-.1H98c-.2.2-.5.4-.7.7-2.1 1.9-4.2 3.8-6.4 5.6-.1 0-.1.1-.2.1.3.3.5.6.8.9.5-.4.9-.8 1.4-1.2v7.3c0 .2 0 .3.2.4h3.3v-5.7c0-.2.1-.4.4-.4h2.5c.3 0 .4.1.4.4v5.7h3.3c.2-.1.2-.2.2-.4v-7.3c.5.4.9.9 1.4 1.3zm-9.9-5.3s.1 0 0 0c.1-.4.1-.8.1-1.1H93v2.7c.5-.5 1.1-1.1 1.7-1.6z"/><path d="M1182.6 43.3c0 .3-.3.6-.6.6h-15.1c-.3 0-.6-.3-.6-.6v-1.8c0-.3.3-.6.6-.6h15.1c.3 0 .6.3.6.6v1.8zm0 6.3c0 .3-.3.6-.6.6h-15.1c-.3 0-.6-.3-.6-.6v-1.8c0-.3.3-.6.6-.6h15.1c.3 0 .6.3.6.6v1.8zm0 6.3c0 .3-.3.6-.6.6h-15.1c-.3 0-.6-.3-.6-.6V54c0-.3.3-.6.6-.6h15.1c.3 0 .6.3.6.6v1.9z" fill="#A0A09F"/><path fill="#BFBEBE" d="M1152.4 25.2c-1.6-3.8-6.6-15.1-6.7-15.4-.1-.1-.1-.3-.2-.4-.6-.9-1.6-1.5-2.8-1.5H1117V8c1.6 3.8 6.6 15.1 6.7 15.4.1.1.1.3.2.4.6.9 1.6 1.5 2.8 1.5h23.9l1.8-.1z"/><path fill="#FFF" d="M1149.9 58.3c0 2.2-1.8 4-4 4H123.2c-2.2 0-4-1.8-4-4V39c0-2.2 1.8-4 4-4h1022.7c2.2 0 4 1.8 4 4v19.3z"/><path fill="#D5D5D5" d="M136.5 49.6c.5-.7.7-1.6.7-2.4 0-2.4-2-4.4-4.4-4.4-2.4 0-4.4 2-4.4 4.4 0 2.4 2 4.4 4.4 4.4 1 0 1.9-.3 2.7-.9l3.9 3.9 1-1-3.9-4zm-3.7.5c-1.6 0-3-1.3-3-3 0-1.6 1.3-3 3-3 1.6 0 3 1.3 3 3s-1.4 3-3 3z"/></svg>