<svg id="ot-creation-svg" xmlns="http://www.w3.org/2000/svg" viewBox="0 0 1440 700"><path fill="#D5D5D5" d="M2.3 431.2h864.9v158.7H2.3V431.2z"/><path fill="#E2E2E2" stroke="#BFBEBE" stroke-width="2" stroke-miterlimit="10" d="M2.3 505.3h263.9c-2.3-.5-3-1.6-4.4-6-.9-3.7-1.8-6.5-1.8-6.7-2.8-10.8-11.3-43.1-11.5-44.1 0-.5-.2-.9-.5-1.2-.9-2.5-2.8-4.4-4.8-4.4H12.7c-2.1 0-4.2 2.1-5.1 5.1-.2.5-2.8 10.2-5.5 20.8"/><path fill="#E2E2E2" stroke="#BFBEBE" stroke-width="2" stroke-miterlimit="10" d="M520 505.3c-2.3-.5-3-1.6-4.4-6-.9-3.7-1.8-6.5-1.8-6.7-2.8-10.8-11.3-43.1-11.5-44.1 0-.5-.2-.9-.5-1.2-.9-2.5-2.8-4.4-4.8-4.4H266.7c-2.1 0-4.2 2.1-5.1 5.1-.2 1.2-9 34.1-11.8 45l-1.8 6.5c-1.4 4.4-2.3 5.5-4.6 6H520v-.2z"/><path id="overflow-tab" fill="#CCE8C8" stroke="#BCBCBC" stroke-width="2" stroke-miterlimit="10" d="M773.8 562.9c-2.3-.5-3-1.6-4.4-6-.9-3.7-1.8-6.5-1.8-6.7-2.8-10.8-11.3-43.1-11.5-44.1 0-.5-.2-.9-.5-1.2-.9-2.5-2.8-4.4-4.8-4.4H520.4c-2.1 0-4.2 2.1-5.1 5.1-.2 1.2-9 34.1-11.8 45l-1.8 6.5c-1.4 4.4-2.3 5.5-4.6 6h276.6v-.2z"/><path fill="#D8D8D8" d="M2.3 589.2h864.9v-95H2.3"/><path fill="#BFBEBE" d="M855.4 487.5c-3.7-8.8-15.2-34.8-15.5-35.5-.2-.2-.2-.7-.5-.9-1.4-2.1-3.7-3.5-6.5-3.5h-59.3v.2c3.7 8.8 15.2 34.8 15.5 35.5.2.2.2.7.5.9 1.4 2.1 3.7 3.5 6.5 3.5h55.1l4.2-.2c0 .2 0 .2 0 0z"/><path fill="#FFF" d="M2.3 510.3h835.3c5.1 0 9.2 4.2 9.2 9.2v44.3c0 5.1-4.2 9.2-9.2 9.2l-835.3.3"/><path fill="none" stroke="#EDEDED" stroke-miterlimit="10" d="M867.2 589.9V447.4c0-9-7.2-16.1-16.1-16.1H2.3"/><g id="magnifier"><path id="flash-start" opacity=".4" fill="#B3DAE0" d="M655.6 470.9l19.4-24.7 10.6 38.5-30-13.8z"/><path fill="#FFF" stroke="#E2E2E2" stroke-miterlimit="10" d="M1401.9 350c0 152.5-120.7 276.8-269.5 276.8S863 502.5 863 350 983.7 73.2 1132.5 73.2s269.4 124.3 269.4 276.8z"/><g id="magnified"><path fill="#E2E2E2" stroke="#BFBEBE" stroke-width="2" stroke-miterlimit="10" d="M852.9 367.5h158c-3.5-.7-4.6-2.3-6.7-8.8-1.6-5.5-2.5-9.7-2.8-9.9-4.2-15.9-16.8-63.9-17.1-65.3-.2-.7-.2-1.2-.5-1.8-1.4-3.9-4.2-6.5-7.2-6.5H860.3"/><path fill="#CCE8C8" stroke="#BCBCBC" stroke-width="2" stroke-miterlimit="10" d="M1385.3 367.5c-3.5-.7-4.6-2.3-6.7-8.8-1.6-5.5-2.5-9.7-2.8-9.9-4.2-15.9-16.8-63.9-17.1-65.3-.2-.7-.2-1.2-.5-1.8-1.4-3.9-4.2-6.5-7.2-6.5h-339.8c-3.2 0-6 3-7.4 7.4-.5 1.6-13.4 50.5-17.5 66.2l-2.8 9.5c-2.1 6.5-3.2 8.3-6.9 8.8h408.6v.4z"/><path fill="#FFF" d="M1103.9 320.9c0 1.8-.2 3.5-.9 5.1-.7 1.6-1.4 3-2.5 4.2-1.2 1.2-2.5 2.1-3.9 2.8-1.6.7-3.2.9-5.1.9s-3.7-.2-5.1-.9c-1.6-.7-3-1.6-3.9-2.8s-2.1-2.5-2.5-4.2c-.7-1.6-.9-3.2-.9-5.1s.2-3.5.9-5.1c.7-1.6 1.4-3 2.5-4.2 1.2-1.2 2.5-2.1 3.9-2.8 1.6-.7 3.2-.9 5.1-.9s3.7.2 5.1.9c1.6.7 3 1.6 3.9 2.8 1.2 1.2 2.1 2.5 2.5 4.2.6 1.4.9 3.3.9 5.1zm-4.6 0c0-1.4-.2-2.5-.5-3.7-.5-1.2-.9-2.1-1.6-2.8-.7-.7-1.6-1.4-2.5-1.8s-2.1-.7-3.2-.7-2.3.2-3.2.7c-.9.5-1.8.9-2.5 1.8s-1.2 1.6-1.6 2.8c-.5 1.2-.5 2.3-.5 3.7 0 1.4.2 2.5.5 3.7.2 1.2.9 2.1 1.6 2.8.7.7 1.6 1.4 2.5 1.8.9.5 2.1.7 3.2.7s2.3-.2 3.2-.7 1.8-.9 2.5-1.8c.7-.7 1.2-1.6 1.6-2.8.5-1.1.5-2.3.5-3.7zm17 12.5h-3.9l-7.2-17.8h3.5c.2 0 .5 0 .7.2.2.2.5.2.5.5l3.5 9.5c.2.5.5 1.2.5 1.6 0 .5.2 1.2.5 1.6 0-.5.2-1.2.5-1.6.2-.5.2-1.2.5-1.6l3.5-9.5c0-.2.2-.5.5-.5.2-.2.5-.2.7-.2h3.5l-7.3 17.8zm16.2-18c1.2 0 2.1.2 3 .5.9.5 1.8.9 2.5 1.6s1.2 1.6 1.6 2.5c.5.9.5 2.1.5 3.5v.7c0 .2 0 .5-.2.5 0 .2-.2.2-.2.2h-11.5c.2 1.8.7 3.2 1.4 3.9s2.1 1.4 3.5 1.4c.7 0 1.4 0 1.8-.2.5-.2.9-.2 1.4-.5.5-.2.7-.5.9-.5.2-.2.5-.2.9-.2h.5c.2 0 .2.2.2.2l1.2 1.6c-.5.5-.9.9-1.6 1.4-.7.5-1.2.7-1.8.9-.7.2-1.4.5-1.8.5-.7 0-1.4.2-1.8.2-1.2 0-2.3-.2-3.5-.7-1.2-.5-2.1-.9-2.8-1.8-.7-.7-1.4-1.8-1.8-3-.5-1.2-.7-2.5-.7-4.2 0-1.2.2-2.3.7-3.5.5-1.2.9-2.1 1.6-2.8.7-.7 1.6-1.4 2.8-1.8.6-.2 2-.4 3.2-.4zm.2 3c-1.2 0-2.3.5-3 1.2-.7.7-1.2 1.6-1.4 3h8.1c0-.5 0-1.2-.2-1.6l-.7-1.4c-.2-.5-.7-.7-1.2-.9s-.9-.3-1.6-.3zm11.1 15v-17.8h2.5c.5 0 .7 0 .9.2.2.2.2.5.5.9l.2 2.1c.7-1.2 1.4-2.1 2.3-2.5.9-.5 1.8-.9 2.8-.9.9 0 1.6.2 2.1.7l-.5 3.2c0 .2 0 .5-.2.5 0 0-.2.2-.5.2s-.5 0-.7-.2c-.2 0-.7-.2-1.2-.2-.9 0-1.6.2-2.3.7s-1.2 1.2-1.6 2.1v11.1l-4.3-.1zm14.8 0v-14.5l-1.6-.2c-.2 0-.7-.2-.7-.5-.2-.2-.2-.5-.2-.7v-1.8h2.5v-.7c0-.9.2-1.8.5-2.8.2-.9.7-1.6 1.4-2.3.7-.7 1.4-1.2 2.3-1.6.9-.5 2.1-.7 3.2-.7h8.1V333h-4.2v-22.4h-3.2c-1.4 0-2.3.5-3 1.2-.7.7-.9 1.6-.9 3v.7h4.2v3h-4.2V333h-4.2v.4zm28.1-18c1.4 0 2.5.2 3.7.7 1.2.5 2.1.9 2.8 1.8.7.9 1.4 1.8 1.8 2.8.5 1.2.7 2.3.7 3.7 0 1.4-.2 2.8-.7 3.7-.5 1.2-.9 2.1-1.8 3-.7.7-1.6 1.4-2.8 1.8-1.2.5-2.3.7-3.7.7-1.4 0-2.5-.2-3.7-.7-1.2-.5-2.1-1.2-2.8-1.8-.7-.7-1.4-1.8-1.8-3-.5-1.2-.7-2.3-.7-3.7 0-1.4.2-2.8.7-3.7.5-1.2.9-2.1 1.8-2.8.7-.7 1.6-1.4 2.8-1.8s2.5-.7 3.7-.7zm0 15c1.4 0 2.5-.5 3.2-1.4.7-.9 1.2-2.5 1.2-4.4 0-1.8-.5-3.5-1.2-4.4-.7-.9-1.8-1.6-3.2-1.6-1.6 0-2.5.5-3.2 1.6-.7 1.2-1.2 2.5-1.2 4.4 0 1.8.5 3.5 1.2 4.4.7.9 1.8 1.4 3.2 1.4zm10.1-14.8h3.5c.2 0 .7 0 .9.2s.5.2.5.5l2.5 9.5c.2.5.2.9.2 1.6 0 .5.2.9.2 1.4.2-.5.2-.9.5-1.4.2-.5.2-.9.5-1.6l3-9.5c0-.2.2-.5.5-.5.2 0 .5-.2.7-.2h1.8c.2 0 .5 0 .7.2l.5.5 3 9.7c.2.5.2.9.5 1.4.2.5.2.9.5 1.4 0-.5.2-.9.2-1.4 0-.5.2-.9.5-1.6l2.5-9.5c0-.2.2-.5.5-.5.2-.2.5-.2.7-.2h3.2l-5.5 17.8h-3.5c-.5 0-.7-.2-.7-.7l-3.2-10.2c0-.2-.2-.7-.2-.9 0-.2-.2-.7-.2-.9 0 .2-.2.7-.2.9 0 .2-.2.7-.2.9l-3.9 10.2c-.2.5-.5.7-.9.7h-3.2l-5.9-17.8zm54-7.4v3.9h-7.6v21.2h-4.6v-21.2h-7.6v-3.9h19.8zm12.5 25.2h-1.8c-.5 0-.7 0-.9-.2-.2-.2-.5-.5-.5-.7l-.5-1.2c-.5.5-.9.7-1.4 1.2l-1.4.7c-.5.2-.9.5-1.4.5s-1.2.2-1.8.2-1.4 0-2.1-.2c-.7-.2-1.2-.5-1.6-.9-.5-.5-.9-.9-1.2-1.6-.2-.7-.5-1.4-.5-2.1 0-.7.2-1.4.5-2.1.5-.7.9-1.2 1.8-1.8.9-.5 1.8-.9 3.2-1.4 1.4-.5 3-.5 5.1-.5v-1.2c0-1.2-.2-2.1-.7-2.8-.5-.5-1.2-.9-2.1-.9-.7 0-1.2 0-1.8.2-.5.2-.9.2-1.2.5s-.7.5-.9.5c-.2.2-.7.2-.9.2-.2 0-.5 0-.7-.2-.2-.2-.5-.2-.5-.5l-.7-1.4c2.1-1.8 4.6-2.8 7.4-2.8 1.2 0 2.1.2 2.8.5.7.2 1.6.9 2.1 1.4l1.4 2.1c.2.9.5 1.8.5 2.8v11.8h-.2zm-8.3-2.8c.5 0 .9 0 1.2-.2.5 0 .7-.2 1.2-.5.5-.2.7-.5.9-.7.2-.2.7-.5.9-.9v-2.5c-1.2 0-2.3 0-3.2.2-.9.2-1.6.5-2.1.7s-.9.5-1.2.9c-.2.2-.2.7-.2 1.2 0 .7.2 1.4.7 1.6.4.2 1.1.2 1.8.2zm12.4 2.8v-25.6h4.4V318c.7-.7 1.4-1.4 2.3-1.8.9-.5 1.8-.7 3-.7.9 0 1.8.2 2.8.7s1.4.9 2.1 1.8c.7.7.9 1.6 1.4 2.8.2 1.2.5 2.3.5 3.9 0 1.4-.2 2.5-.5 3.7-.5 1.2-.9 2.1-1.6 3-.7.9-1.4 1.4-2.3 1.8-.9.5-2.1.7-3.2.7-.5 0-1.2 0-1.4-.2-.5 0-.9-.2-1.2-.5-.5-.2-.7-.5-.9-.7l-.9-.9-.2 1.2c0 .2-.2.5-.5.7-.2.2-.5.2-.7.2h-3v-.3zm8.3-14.8c-.9 0-1.6.2-2.3.5-.7.5-1.2.9-1.8 1.6v7.8c.5.7.9.9 1.6 1.2.5.2 1.2.5 1.8.5.7 0 1.2-.2 1.8-.5.5-.2.9-.7 1.4-1.2.5-.5.7-1.2.9-1.8.2-.7.2-1.6.2-2.8 0-.9 0-1.8-.2-2.5s-.5-1.4-.7-1.8-.7-.7-1.2-.9c-.3.2-.8-.1-1.5-.1z"/><path fill="#D8D8D8" d="M871.6 479.4h513.8l32.3-111.9H830l41.6 111.9z"/><path fill="#FFF" d="M1420.6 450.1c0 7.6-6.2 13.8-13.6 13.8H852.9v-83.3H1407c7.6 0 13.6 6.2 13.6 13.8v55.7z"/></g><path fill="#FFF" stroke="#E2E2E2" stroke-miterlimit="10" stroke-opacity=".6" d="M826.1 350c0-173 137.5-313.7 306.4-313.7S1438.8 177 1438.8 350s-137.5 313.7-306.4 313.7S826.1 523 826.1 350zm36.9 0c0 152.7 120.9 276.8 269.5 276.8S1402 502.7 1402 350 1281.1 73.2 1132.5 73.2 863 197.3 863 350z"/></g></svg>