<svg xmlns="http://www.w3.org/2000/svg" viewBox="0 0 512 512"><g fill="#e69629"><path d="M507.314 366.742c-8.093-9.926-32.001-11.001-41.904-11.001-8.857 0-22.312.868-36.261 5.05-9.06 2.841-17.114 6.797-24.511 12.015-6.914 4.766-10.006 12.267-7.873 19.113 1.991 6.401 7.95 10.534 15.175 10.534.514 0 1.053-.021 1.606-.065a11.83 11.83 0 0 0 1.406-.197c1.809-.362 3.946-.657 6.349-.939-51.054 19.048-106.244 29.091-160.115 29.091-82.455 0-165.901-22.208-234.969-62.532l-.296-.167c-3.025-1.656-6.185-2.495-9.387-2.495-7.152 0-13.276 4.231-15.604 10.778C-1.435 382.583.8 390 6.629 394.93c67.73 61.489 156.184 95.352 249.102 95.352 63.55 0 132.013-18.341 183.164-49.067 6.368-3.652 12.36-7.514 17.86-11.511-1.931 5.291-4.304 11.435-7.218 18.572l-.063.161c-2.121 5.414-1.645 11.004 1.312 15.336 2.784 4.085 7.511 6.524 12.634 6.524 4.093 0 8.164-1.476 11.781-4.267.14-.111.28-.224.419-.34 25.714-21.743 35.845-59.535 36.378-79.631.003-.107.003-.216.003-.323v-2.958c0-5.78-1.455-11.279-3.994-15.09a10.87 10.87 0 0 0-.693-.946zM386.345 141.278c.219-31.816.447-64.714-26.666-90.031-30.016-27.398-74.333-29.529-87.199-29.529h-10.889c-.234 0-.47.008-.705.023-64.4 3.727-107.182 36.38-117.432 89.6-1.658 7.108.273 12.36 2.209 15.534 2.944 4.827 8.003 8.296 14.245 9.772.419.099.839.174 1.263.229l50.743 6.454a12.13 12.13 0 0 0 3.688-.094c9.715-1.744 16.75-9.031 18.864-19.513 3.94-16.907 18.822-21.158 27.762-22.156h2.991c7.761 0 15.349 3.311 18.968 8.26 4.324 6.775 4.34 17.167 4.283 27.289-9 .72-18.749 1.585-28.521 2.877-21.174 2.74-43.366 6.511-62.301 15.448-40.381 16.534-63.53 51.72-63.53 96.597 0 28.778 9.143 52.765 26.435 69.367 16.143 15.497 38.203 23.687 63.797 23.687 14.255 0 27.012-1.549 40.155-4.876.226-.057.45-.12.67-.19 15.555-4.901 29.153-13.054 43.749-26.473 5.385 7.526 11.075 14.476 23.737 25.119 1 .84 2.131 1.515 3.343 1.998 8.867 3.522 17.85 2.549 24.578-2.563.146-.111.293-.226.432-.343 11.277-9.396 30.003-25.486 40.102-34.626 8.374-7.02 9.746-18.377 3.47-29.047-.273-.466-.58-.915-.915-1.343l-1.965-2.488c-8.94-11.298-15.401-19.461-15.401-38.174V150.28c0-3.027.018-6.028.04-9.002zm-106.19 109.028c-.153.257-.296.52-.429.787-4.296 8.58-11.555 14.734-20.018 17.013-1.196.117-2.289.325-3.288.515-.686.132-1.721.328-2.098.328-17.679 0-19.588-18.17-19.588-25.98 0-19.675 9.239-31.185 29.943-37.28 6.698-1.539 14.638-2.545 23.711-3.01l.007 2.867c.053 17.873.09 30.785-8.24 44.76z"/></g></svg>