<svg xmlns="http://www.w3.org/2000/svg" viewBox="0 0 417.581 417.581"><path fill="none" d="M24 343.711h369.581v17.67H24zM352.526 56.2H65.056v184.049h287.471V56.2zm-40.274 37.935H102.991v119.873c0 6.627-5.373 12-12 12s-12-5.373-12-12V82.135c0-6.627 5.373-12 12-12h221.261c6.628 0 12 5.373 12 12s-5.372 12-12 12z"/><path d="M62.974 264.249l-30.637 55.463h352.906l-30.635-55.463H62.974zm155.296 39.732H90.08c-6.628 0-12-5.373-12-12s5.372-12 12-12h128.19c6.628 0 12 5.373 12 12s-5.373 12-12 12zm57.253-3.516a12.082 12.082 0 0 1-8.479 3.521c-3.16 0-6.25-1.291-8.49-3.521a12.094 12.094 0 0 1-3.51-8.488c0-3.16 1.279-6.25 3.51-8.48 2.24-2.23 5.33-3.51 8.49-3.51 3.159 0 6.25 1.279 8.479 3.51a12.046 12.046 0 0 1 3.521 8.48 12.06 12.06 0 0 1-3.521 8.488zm47.49 0a12.1 12.1 0 0 1-8.479 3.521c-3.16 0-6.25-1.291-8.489-3.521a12.095 12.095 0 0 1-3.511-8.488c0-3.16 1.28-6.25 3.511-8.48a12.093 12.093 0 0 1 8.489-3.51c3.16 0 6.25 1.279 8.479 3.51a12.06 12.06 0 0 1 3.521 8.48 12.065 12.065 0 0 1-3.521 8.488z" fill="#73d0f4"/><path d="M417.561 332.116a11.966 11.966 0 0 0-1.477-6.205l-39.705-71.883c.087-.582.146-1.174.146-1.779V44.2c0-6.627-5.373-12-12-12H53.056c-6.627 0-12 5.373-12 12v208.049c0 .605.06 1.197.146 1.779L1.496 325.911a11.98 11.98 0 0 0-1.489 6.049c0 .023-.007.04-.007.062v41.359c0 6.627 5.372 12 12 12h393.581c6.627 0 12-5.373 12-12V332.28c0-.059-.016-.108-.02-.164zM32.337 319.711l30.637-55.463h291.635l30.635 55.463H32.337zM65.056 56.2h287.471v184.049H65.056V56.2zm328.525 305.181H24v-17.67h369.581v17.67z" fill="#3d6889"/><path d="M312.252 70.135H90.991c-6.627 0-12 5.373-12 12v131.873c0 6.627 5.373 12 12 12s12-5.373 12-12V94.135h209.261c6.628 0 12-5.373 12-12s-5.372-12-12-12zM218.27 279.981H90.08c-6.628 0-12 5.373-12 12s5.372 12 12 12h128.19c6.628 0 12-5.373 12-12s-5.373-12-12-12zM267.044 279.987a12.11 12.11 0 0 0-8.49 3.51 12.074 12.074 0 0 0-3.51 8.48c0 3.158 1.279 6.26 3.51 8.488 2.24 2.23 5.33 3.521 8.49 3.521 3.159 0 6.25-1.291 8.479-3.521a12.066 12.066 0 0 0 3.521-8.488c0-3.16-1.281-6.25-3.521-8.48a12.067 12.067 0 0 0-8.479-3.51zM314.533 279.987c-3.16 0-6.26 1.279-8.489 3.51a12.074 12.074 0 0 0-3.511 8.48c0 3.158 1.28 6.26 3.511 8.488 2.239 2.23 5.329 3.521 8.489 3.521a12.1 12.1 0 0 0 8.479-3.521 12.062 12.062 0 0 0 3.521-8.488c0-3.15-1.28-6.25-3.521-8.48a12.065 12.065 0 0 0-8.479-3.51z" fill="#3d6889"/></svg>