<svg xmlns="http://www.w3.org/2000/svg" viewBox="0 0 512 512"><path d="M365.075 307.969c-.209-21.573-17.756-38.95-39.33-38.95h-36.052v-54.677c0-15.267 12.377-27.643 27.643-27.643h13.209c19.534 0 35.37-15.836 35.37-35.37s-15.836-35.37-35.37-35.37H298.02c-48.044 0-86.991 38.947-86.991 86.991v66.067h-25.613c-21.722 0-39.332 17.609-39.332 39.332 0 21.722 17.609 39.332 39.332 39.332h25.613v149.794h78.665V347.682h36.052c21.871 0 39.541-17.843 39.329-39.713z" fill="#cee8fa"/><g fill="#2d527c"><path d="M289.693 512h-78.665c-8.021 0-14.523-6.502-14.523-14.523V362.206h-11.09c-29.695 0-53.855-24.159-53.855-53.855s24.159-53.856 53.855-53.856h11.09v-51.544c0-55.975 45.539-101.514 101.514-101.514h32.525c27.511 0 49.893 22.382 49.893 49.893 0 27.51-22.382 49.893-49.893 49.893h-13.209c-7.234 0-13.12 5.886-13.12 13.12v40.154h21.529c29.409 0 53.567 23.925 53.853 53.332.141 14.484-5.395 28.128-15.588 38.419s-23.782 15.958-38.266 15.958h-21.528v135.271c.001 8.021-6.501 14.523-14.522 14.523zm-64.14-29.046h49.618V347.682c0-8.021 6.502-14.523 14.523-14.523h36.052c6.672 0 12.933-2.611 17.627-7.352 4.695-4.74 7.246-11.026 7.18-17.698-.131-13.547-11.26-24.569-24.808-24.569h-36.052c-8.021 0-14.523-6.502-14.523-14.523V214.34c0-23.25 18.915-42.166 42.166-42.166h13.209c11.495 0 20.847-9.351 20.847-20.847 0-11.495-9.351-20.847-20.847-20.847H298.02c-39.959 0-72.468 32.509-72.468 72.468v66.067c0 8.021-6.502 14.523-14.523 14.523h-25.613c-13.679 0-24.808 11.129-24.808 24.81 0 13.679 11.129 24.808 24.808 24.808h25.613c8.021 0 14.523 6.502 14.523 14.523v135.275z"/><path d="M432.464 512h-37.766c-8.021 0-14.523-6.502-14.523-14.523s6.502-14.523 14.523-14.523h37.766c27.839 0 50.49-22.65 50.49-50.49V79.536c0-27.839-22.65-50.49-50.49-50.49H214.367c-8.021 0-14.523-6.502-14.523-14.523S206.346 0 214.367 0h218.097C476.321 0 512 35.679 512 79.536v352.928C512 476.321 476.321 512 432.464 512zM289.693 512H79.536C35.679 512 0 476.321 0 432.464V79.536C0 35.679 35.679 0 79.536 0h32.684c8.021 0 14.523 6.502 14.523 14.523s-6.502 14.523-14.523 14.523H79.536c-27.839 0-50.49 22.65-50.49 50.49v352.928c0 27.839 22.65 50.49 50.49 50.49h210.157c8.021 0 14.523 6.502 14.523 14.523S297.714 512 289.693 512z"/></g></svg>