<svg xmlns="http://www.w3.org/2000/svg" viewBox="0 0 400.828 400.828"><path d="M176.133 179.72c-17.57 0-34.088 6.842-46.51 19.264-12.424 12.424-19.268 28.941-19.268 46.512 0 17.568 6.844 34.086 19.268 46.51 12.422 12.424 28.939 19.266 46.51 19.266 17.568 0 34.086-6.842 46.51-19.266 25.646-25.647 25.646-67.375 0-93.021-12.424-12.424-28.942-19.265-46.51-19.265zm28.75 77.773h-16.752v16.752c0 6.627-5.371 12-12 12-6.627 0-12-5.373-12-12v-16.752h-16.752c-6.627 0-12-5.373-12-12s5.373-12 12-12h16.752v-16.749c0-6.628 5.373-12 12-12 6.629 0 12 5.372 12 12v16.749h16.752c6.629 0 12 5.373 12 12s-5.371 12-12 12z" fill="none"/><path d="M310.26 135.094H194.637c-6.627 0-12-5.372-12-12v-5.4c0-9.925-8.074-18-18.002-18H42.002c-9.926 0-18.002 8.075-18.002 18v235.573h304.262V153.096c0-9.927-8.074-18.002-18.002-18.002zm-70.647 173.882c-16.957 16.957-39.502 26.295-63.48 26.295-23.98 0-46.525-9.338-63.48-26.297-16.957-16.955-26.297-39.5-26.297-63.479 0-23.98 9.34-46.525 26.297-63.481 16.955-16.956 39.5-26.294 63.48-26.294 23.979 0 46.523 9.338 63.48 26.294 35.004 35.003 35.004 91.958 0 126.962z" fill="none"/><path d="M352.262 153.096v148.04h24.566V100.963c0-9.927-8.074-18.002-18.002-18.002H243.203c-6.627 0-12-5.372-12-12v-5.398c0-9.926-8.074-18.001-18.002-18.001H90.566c-9.924 0-18 8.075-18 18.001v10.131h92.068c20.916 0 38.309 15.365 41.484 35.4H310.26c23.16 0 42.002 18.842 42.002 42.002z" fill="#73d0f4"/><path d="M358.826 58.961h-104.14c-3.178-20.034-20.57-35.399-41.484-35.399H90.566c-23.158 0-42 18.842-42 42.001v10.131h-6.564c-23.16 0-42.002 18.841-42.002 42v247.573c0 6.629 5.373 12 12 12h328.262c6.629 0 12-5.371 12-12v-40.131h36.566c6.629 0 12-5.373 12-12V100.963c0-23.16-18.842-42.002-42.002-42.002zm-152.707 52.133c-3.176-20.035-20.568-35.4-41.484-35.4H72.566V65.563c0-9.926 8.076-18.001 18-18.001h122.635c9.928 0 18.002 8.075 18.002 18.001v5.398c0 6.628 5.373 12 12 12h115.623c9.928 0 18.002 8.075 18.002 18.002v200.173h-24.566v-148.04c0-23.16-18.842-42.002-42.002-42.002H206.119zm122.143 242.173H24V117.693c0-9.925 8.076-18 18.002-18h122.633c9.928 0 18.002 8.075 18.002 18v5.4c0 6.628 5.373 12 12 12H310.26c9.928 0 18.002 8.075 18.002 18.002v200.172z" fill="#3d6889"/></svg>