<svg xmlns="http://www.w3.org/2000/svg" viewBox="0 0 512 512"><path d="M432.516 14.862C423.44 1.32 405.724-.184 390.87.016c-89.51.403-179.053.171-268.604.101-5.139.159-10.269.428-15.333 1.418-16.431 2.73-29.951 16.534-32.837 32.833-2.637 16.07-1.118 32.469-1.319 48.674-.034 131.483.101 262.97-.101 394.453.37 8.11.664 16.961 5.693 23.796 7.927 10.831 23.989 13.534 35.71 7.707 7.064-3.847 12.293-10.11 17.556-16.003 38.467-45.409 78.461-89.533 116.85-135.02 4.239-4.809 9.209-10.076 16.241-9.68 27.691-1.42 55.45.93 83.176-.497 9.414-.493 19.22-3.183 26.047-10.033 9.303-9.143 12.192-22.427 15.14-34.654 15.734-76.268 29.983-152.854 45.776-229.12 3.714-19.246 9.214-41.473-2.349-59.129zm-69.07 123.532c-2.285 7.564-12.126 7.054-18.749 7.59-33.294.664-66.594-.8-99.854.16-10.17-.396-21.17 5.994-21.799 17.027-2.157 13.754-1.283 34.98 15.971 38.004 32.596 3.644 65.628-1.2 98.258 1.956 10.865.326 11.066 13.15 9.37 21.067-3.736 19.169-6.583 38.649-12.184 57.417-1.427 6.214-7.33 9.474-13.384 9.523-27.5 2.301-55.166-.951-82.657 1.007-11.271.16-17.987 10.271-24.653 17.86-27.727 34.084-55.62 68.007-84.244 101.34-1.125-107.233.102-214.509-.628-321.777.234-8.02-.171-16.399 2.777-24.023 4.217-8.876 15.311-8.649 23.663-9.114 65.294.07 130.62.237 195.92-.067 10.831.333 22.223-1.466 25.047 8.18 3.736 12.77-7.778 57.045-12.854 73.85z" fill="#ce5498"/></svg>