<svg xmlns="http://www.w3.org/2000/svg" viewBox="0 0 512.001 512.001"><g fill="#d7143a"><path d="M499.81 222.505h-32.168v-32.17c0-6.734-5.456-12.19-12.19-12.19h-43.426c-6.734 0-12.19 5.456-12.19 12.19v32.17h-32.168c-6.734 0-12.19 5.456-12.19 12.19v43.426c0 6.734 5.456 12.19 12.19 12.19h32.168v32.17c0 6.732 5.456 12.19 12.19 12.19h43.426c6.734 0 12.19-5.458 12.19-12.19v-32.17h32.168c6.734 0 12.19-5.456 12.19-12.19v-43.426c.001-6.734-5.456-12.19-12.19-12.19zM165.638 169.303c14.772 0 28.969 3.982 41.08 11.519l13.837 9.468a12.19 12.19 0 0 0 15.464-1.399l40.355-39.978a12.19 12.19 0 0 0-1.686-18.715l-23.454-16.085c-.478-.327-.98-.621-1.499-.876l-22.721-11.218c-.301-.15-.608-.286-.92-.41-19.573-7.727-40.194-11.646-61.29-11.646-43.491 0-84.514 16.693-115.514 46.998C17.812 167.736.306 209.585.004 254.8c-.304 45.225 16.642 87.316 47.714 118.517 30.831 30.962 74.572 48.721 120.01 48.721 44.955 0 87.134-17.455 115.72-47.889 22.643-24.106 36.539-56.305 40.191-93.116.034-.349.055-.699.059-1.048l.423-33.069c.01-.684-.039-1.367-.146-2.043l-1.772-11.301a12.19 12.19 0 0 0-12.043-10.303H169.283c-6.734 0-12.19 5.458-12.19 12.19v48.733c0 6.732 5.456 12.19 12.19 12.19h71.82c-3.291 7.215-8.478 14.824-15.037 21.914-14.305 15.471-35.638 24.344-58.531 24.344-23.378 0-45.766-9.161-61.424-25.132-32.592-33.236-32.219-91.147.795-123.928 15.542-15.427 36.951-24.277 58.732-24.277z"/></g></svg>