<svg xmlns="http://www.w3.org/2000/svg" viewBox="0 0 503.607 503.607"><path d="M251.803 376.026c-24.341 0-47.003-6.715-67.148-20.144-20.144-13.43-35.252-30.216-45.325-51.2L38.61 130.098c-20.984 37.77-30.216 78.898-30.216 121.705 0 61.272 20.144 114.151 59.593 159.475s88.971 72.184 147.725 81.416l70.505-122.544c-6.715 2.519-19.306 5.876-34.414 5.876" fill="#63d3fd"/><path d="M476.747 160.315h-141.01c24.341 24.341 41.128 56.236 41.128 91.489 0 26.02-7.554 49.521-21.823 71.344L254.321 495.213c66.308-.839 123.384-24.341 170.387-72.184 47.003-47.843 70.505-104.918 70.505-171.226 0-31.055-5.036-63.79-18.466-91.488" fill="#ffa800"/><path d="M451.567 160.315H335.738c24.341 24.341 41.967 56.236 41.967 91.489 0 26.02-10.911 49.521-25.18 71.344L251.803 495.213c66.308-.839 100.721-24.341 147.725-72.184 47.003-47.843 70.505-104.918 70.505-171.226 0-31.055-5.036-63.79-18.466-91.488" fill="#ffe100"/><path d="M251.803 159.475c50.361 0 92.328 41.967 92.328 92.328s-41.967 92.328-92.328 92.328-92.328-41.967-92.328-92.328 41.968-92.328 92.328-92.328" fill="#3db9f9"/><path d="M226.623 159.475c50.361 0 92.328 41.967 92.328 92.328s-41.967 92.328-92.328 92.328c-5.875 0-67.148-41.967-67.148-92.328s61.273-92.328 67.148-92.328" fill="#63d3fd"/><path d="M251.803 376.026c-24.341 0-47.003-6.715-67.148-20.144-20.144-13.43-35.252-30.216-45.325-51.2L38.61 130.098c-20.984 37.77-30.216 78.898-30.216 121.705 0 61.272 20.144 114.151 59.593 159.475s88.971 72.184 147.725 81.416l70.505-122.544c-6.715 2.519-19.306 5.876-34.414 5.876" fill="#fff"/><path d="M251.803 376.026c-24.341 0-47.003-6.715-67.148-20.144-20.144-13.43-40.289-30.216-50.361-51.2l-75.54-145.207c-20.984 37.77-25.18 49.521-25.18 92.328 0 61.272 20.144 114.151 59.593 159.475s66.308 72.184 125.062 81.416l67.987-122.544c-6.714 2.519-19.305 5.876-34.413 5.876" fill="#00da6c"/><path d="M175.423 151.082c22.662-17.626 47.843-25.18 76.38-25.18H460.8c-21.823-36.931-51.2-63.79-88.131-84.774-36.931-21.823-77.22-32.734-120.866-32.734-37.77 0-73.862 8.393-106.597 24.341S81.416 72.184 59.593 102.4l70.505 115.829c6.715-26.859 22.663-49.521 45.325-67.147" fill="#e4667f"/><path d="M219.908 501.928l-5.875-.839c-60.433-9.233-112.472-37.77-152.761-83.934C20.984 370.151 0 314.754 0 251.803c0-46.164 10.911-88.131 31.895-125.902l7.554-12.59 107.436 188.013c10.072 20.144 24.341 36.092 42.807 48.682 18.466 12.59 40.289 18.466 62.951 18.466 12.59 0 22.662-3.357 29.377-5.036l22.662-6.715-84.774 145.207zM39.449 147.725c-15.108 31.056-22.662 66.308-22.662 104.079 0 58.754 19.305 109.954 57.075 153.6 36.931 41.967 83.095 67.987 136.813 77.22l57.915-99.882c-5.036.839-10.911 1.679-17.626 1.679-26.02 0-50.361-7.554-72.184-20.984-21.823-14.269-37.77-32.734-48.682-54.557L39.449 147.725z"/><path d="M133.456 239.213L49.521 101.561l3.357-4.197c21.823-29.377 52.879-54.557 88.97-72.184C175.423 8.393 213.193 0 251.803 0c45.325 0 87.292 10.911 125.062 33.574 40.289 23.502 69.666 52.039 90.649 88.131l7.554 12.59H251.803c-27.698 0-51.2 7.554-71.344 23.502-21.823 16.787-36.092 37.77-41.967 62.951l-5.036 18.465zm-63.79-135.974l57.915 95.685c8.393-20.984 22.662-38.61 41.967-53.718 23.502-18.466 50.361-26.859 81.416-26.859h193.889c-19.305-27.698-43.646-50.361-77.22-69.666-34.413-20.983-73.863-31.894-115.83-31.894-36.931 0-71.344 7.554-102.4 23.502-32.734 15.947-59.593 36.931-79.737 62.95z"/><path d="M240.052 503.607l107.436-184.656c14.269-20.144 20.984-42.807 20.984-67.148 0-30.216-13.43-60.433-38.61-85.613l-14.269-14.269h167.029l2.518 5.036c15.108 33.574 18.466 69.666 18.466 94.846 0 68.826-24.341 128.42-73.023 177.102s-107.436 73.862-176.262 74.702h-14.269zm114.151-334.899c20.144 25.18 30.216 53.718 30.216 83.095 0 27.698-7.554 52.879-23.502 76.38L269.43 485.98c57.915-4.197 107.436-26.859 149.403-68.826 45.325-46.164 67.987-101.561 67.987-165.351 0-21.823-2.518-53.718-15.108-83.095H354.203z"/><path d="M251.803 352.525c-54.557 0-100.721-46.164-100.721-100.721s46.164-100.721 100.721-100.721 100.721 46.164 100.721 100.721-46.163 100.721-100.721 100.721zm0-184.656c-45.325 0-83.934 38.61-83.934 83.934s38.61 83.934 83.934 83.934 83.934-38.61 83.934-83.934-38.609-83.934-83.934-83.934z"/></svg>