<svg xmlns="http://www.w3.org/2000/svg" viewBox="0 0 403.926 403.926"><path d="M287.484 39.213c-28.49 0-57.75 13.659-76.359 35.648a12.003 12.003 0 0 1-9.16 4.248h-.002a12.004 12.004 0 0 1-9.16-4.249c-18.6-21.988-47.865-35.647-76.371-35.647C64.6 39.213 24 79.818 24 131.655c0 65.427 57.559 119.545 159.293 209.567.176.155.348.316.514.482l18.156 18.074 18.152-18.074c.168-.166.34-.327.516-.483 101.736-90.008 159.295-144.119 159.295-209.566 0-51.837-40.606-92.442-92.442-92.442zm-163.9 42.398c-32.178 0-57.383 25.209-57.383 57.392 0 6.628-5.373 12-12 12s-12-5.372-12-12c0-45.64 35.748-81.392 81.383-81.392 6.627 0 12 5.373 12 12 0 6.628-5.373 12-12 12z" fill="#73d0f4"/><path d="M287.484 15.213c-31.475 0-62.566 12.689-85.52 34.454-22.945-21.764-54.045-34.454-85.533-34.454C51.143 15.213 0 66.361 0 131.655c0 36.542 15.049 71.882 47.359 111.216 28.187 34.316 67.43 69.778 119.766 116.091l26.373 26.255c2.342 2.33 5.404 3.496 8.467 3.496s6.125-1.166 8.467-3.497l26.367-26.255c52.332-46.301 91.57-81.756 119.773-116.09 32.307-39.332 47.354-74.672 47.354-111.216 0-65.294-51.147-116.442-116.442-116.442zm-66.853 326.008c-.176.156-.348.317-.516.483l-18.152 18.074-18.156-18.074a11.137 11.137 0 0 0-.514-.482C81.559 251.2 24 197.081 24 131.655c0-51.837 40.6-92.441 92.432-92.441 28.506 0 57.771 13.659 76.371 35.647a12.004 12.004 0 0 0 9.16 4.249h.002c3.529 0 6.879-1.554 9.16-4.248 18.609-21.989 47.869-35.648 76.359-35.648 51.836 0 92.441 40.604 92.441 92.441.001 65.447-57.558 119.558-159.294 209.566z" fill="#3d6889"/><path d="M123.584 57.611c-45.635 0-81.383 35.752-81.383 81.392 0 6.628 5.373 12 12 12s12-5.372 12-12c0-32.183 25.205-57.392 57.383-57.392 6.627 0 12-5.372 12-12 0-6.627-5.373-12-12-12z" fill="#3d6889"/></svg>