<svg xmlns="http://www.w3.org/2000/svg" viewBox="0 0 410.588 410.588"><path d="M398.588 43.079H118.859c-6.628 0-12 5.373-12 12v42.6h-42.05c-6.628 0-12 5.373-12 12v40.707H12c-6.627 0-12 5.372-12 12v193.123c0 6.627 5.373 12 12 12h279.731c6.627 0 12-5.373 12-12v-40.707h40.807c6.627 0 12-5.372 12-12v-42.6h42.051c6.627 0 12-5.372 12-12V55.079c-.001-6.627-5.374-12-12.001-12zM261.1 174.386L151.865 275.499 42.629 174.386H261.1zM24 189.845l36.453 33.742L24 258.089v-68.244zm255.731 153.664H24v-52.665a12 12 0 0 0 1.764-1.378l52.342-49.539 65.607 60.73a11.97 11.97 0 0 0 8.152 3.194c2.926 0 5.852-1.065 8.15-3.194l65.61-60.73 53.26 50.408c.272.258.555.498.846.726v52.448zm0-85.419l-36.455-34.503 36.455-33.742v68.245zm52.807 32.712h-28.807V162.386c0-6.628-5.373-12-12-12H76.809v-28.707h255.729v169.123zm54.05-54.6h-30.051V109.679c0-6.627-5.373-12-12-12H130.859v-30.6h255.729v169.123z" fill="#3d6889"/></svg>