<svg xmlns="http://www.w3.org/2000/svg" viewBox="0 0 396.891 396.891"><path d="M110.787 208.066h-.055c.021.229.039.183.055 0zM352.324 171.388h-67.31c-.523 0-1.046-.034-1.565-.103-7.7-1.013-17.12-3.204-21.649-11.22-4.972-8.797-1.101-17.676 3.383-27.957 5.49-12.59 13.786-31.615 12.34-60.891-.005-.1.003-.196 0-.295-.001-.1-.015-.197-.015-.297 0-10.75-8.746-19.497-19.497-19.497-10.737 0-19.474 8.726-19.495 19.458.875 32.074-4.58 38.73-27.604 61.479a1408.29 1408.29 0 0 0-6.818 6.766c-23.576 23.576-26.215 57.729-26.239 58.07a12 12 0 0 1-11.971 11.164h-55.016l-.007 112.248h50.104c5.234 0 23.068.668 32.774 9.266 3.689 3.268 5.979 6.406 7.636 9.049 4.643 7.397 13.907 6.879 14.786 6.893 0 0 107.852-.298 115.206-.839 10.249-.753 17.917-4.661 22.793-11.616 3.407-4.861 4.341-9.668 4.349-9.713 4.453-29.243 15.688-109.824 14.279-131.646-1.032-15.975-16.667-19.659-20.464-20.319z" fill="none"/><path d="M78.867 202.933H32c-4.411 0-8 3.589-8 8v109.125c0 4.411 3.589 8 8 8h46.867c4.411 0 8-3.589 8-8V210.933c0-4.411-3.589-8-8-8z" fill="#73d0f4"/><path d="M396.737 190.159c-1.933-29.924-28.345-41.004-42.041-42.683-.483-.06-.972-.089-1.459-.089h-67.401a52.53 52.53 0 0 1-1.007-.156c.702-1.745 1.575-3.746 2.353-5.531 5.997-13.753 16.034-36.771 14.311-71.666l-.001-.006c-.322-23.709-19.697-42.899-43.481-42.899-23.984 0-43.497 19.513-43.497 43.497 0 .058.008.113.009.171.001.058-.006.112-.004.17.657 23.147-.137 23.931-20.475 44.024-2.129 2.104-4.432 4.379-6.923 6.869-20.809 20.811-28.684 47.407-31.588 62.205H96.217a31.8 31.8 0 0 0-17.35-5.133H32c-17.645 0-32 14.355-32 32v109.125c0 17.645 14.356 32 32 32h46.867c7.945 0 15.217-2.917 20.817-7.727h62.171c6.521.153 13.356.513 15.969 3.215 1.461 1.294 2.393 2.7 3.727 4.614 12.127 17.381 30.377 17.301 34.327 17.361.061.002.123 0 .185 0 0 0 109.688.543 117.063 0 34.305-2.522 47.13-29.298 49.113-42.59.669-4.392 16.363-107.902 14.498-136.771zM86.867 320.058c0 4.411-3.589 8-8 8H32c-4.411 0-8-3.589-8-8V210.933c0-4.411 3.589-8 8-8h46.867c4.411 0 8 3.589 8 8v109.125zm23.865-111.992h.055c-.016.183-.034.229-.055 0zm247.776 115.287c-.008.045-.941 4.852-4.349 9.713-4.876 6.955-12.544 10.863-22.793 11.616-7.355.541-115.206.839-115.206.839-.879-.014-10.143.504-14.786-6.893-1.657-2.643-3.946-5.78-7.636-9.049-9.706-8.598-27.54-9.266-32.774-9.266H110.86l.007-112.248h55.016c6.303 0 11.531-4.877 11.971-11.164.024-.342 2.663-34.494 26.239-58.07 2.453-2.454 4.722-4.695 6.818-6.766 23.024-22.748 28.479-29.404 27.604-61.479.021-10.732 8.758-19.458 19.495-19.458 10.751 0 19.497 8.747 19.497 19.497 0 .1.014.197.015.297.003.099-.005.195 0 .295 1.446 29.275-6.85 48.301-12.34 60.891-4.483 10.281-8.354 19.16-3.383 27.957 4.529 8.016 13.949 10.207 21.649 11.22.52.068 1.042.103 1.565.103h67.31c3.797.66 19.432 4.344 20.463 20.318 1.41 21.822-9.825 102.404-14.278 131.647z" fill="#3d6889"/></svg>