<svg xmlns="http://www.w3.org/2000/svg" viewBox="0 0 442.75 442.75"><g fill="#3d6889"><path d="M323.526 79.741a11.998 11.998 0 0 0-14.435-8.924L9.244 141.56A12.003 12.003 0 0 0 .32 155.995l48.84 207.011c1.304 5.523 6.231 9.247 11.67 9.247.912 0 1.839-.105 2.766-.323l299.846-70.741a12 12 0 0 0 8.924-14.435l-48.84-207.013zm1.492 110.848l-51.365-29.836 32.819-48.774 18.546 78.61zm-295.033-13.38l51.161 28.962-32.614 49.648-18.547-78.61zm14.582-19.324L284.79 101.21l-93.882 139.518-146.341-82.843zm25.197 187.93l-13.645-57.832 45.959-69.963 86.674 49.065a11.995 11.995 0 0 0 15.867-3.743l55.604-82.634 72.383 42.044 13.644 57.832-276.486 65.231zM430.75 78.552h-75.393c-6.628 0-12 5.373-12 12s5.372 12 12 12h75.393c6.628 0 12-5.373 12-12s-5.372-12-12-12zM418.079 139.67h-50.051c-6.628 0-12 5.373-12 12s5.372 12 12 12h50.051c6.628 0 12-5.373 12-12s-5.372-12-12-12zM406.067 200.788h-26.025c-6.628 0-12 5.373-12 12s5.372 12 12 12h26.025c6.628 0 12-5.373 12-12s-5.372-12-12-12z"/></g></svg>