<svg xmlns="http://www.w3.org/2000/svg" viewBox="0 0 425.55 425.55"><path d="M240.571 44.917C237.085 32.852 225.948 24 212.775 24s-24.311 8.852-27.796 20.917c8.978-1.862 18.274-2.844 27.796-2.844s18.818.982 27.796 2.844zM325.442 237.723V178.74c0-62.124-50.543-112.666-112.667-112.666-62.125 0-112.667 50.542-112.667 112.666v58.885c-.015 1.847-.297 20.852-5.081 44.229H330.52c-4.781-23.355-5.062-42.327-5.078-44.131zM212.775 106.909c-38.395 0-69.633 31.236-69.633 69.631 0 6.627-5.373 12-12 12s-12-5.373-12-12c0-51.629 42.004-93.631 93.633-93.631 6.627 0 12 5.372 12 12 0 6.627-5.373 12-12 12zM212.775 401.55c18.317 0 34.3-13.206 39.431-30.766h-78.863c5.131 17.56 21.115 30.766 39.432 30.766z" fill="none"/><path d="M357.878 346.784c-9.545-12.045-16.277-26.519-21.031-40.932H88.701c-4.754 14.415-11.486 28.889-21.03 40.932h290.207z" fill="#73d0f4"/><path d="M396.419 347.848c-45.223-20.423-46.943-108.085-46.977-110.297V178.74c0-56.602-34.588-105.274-83.738-125.998C265.599 23.642 241.897 0 212.775 0c-29.123 0-52.824 23.643-52.93 52.741-49.148 20.724-83.737 69.396-83.737 125.998v58.811c-.032 2.212-1.754 89.874-46.978 110.297a12 12 0 0 0 4.939 22.937h114.648c2.35 12.929 8.464 24.957 17.814 34.7 12.419 12.939 28.842 20.065 46.242 20.065 17.401 0 33.824-7.126 46.242-20.065 9.352-9.743 15.465-21.772 17.814-34.7h114.648a12.002 12.002 0 0 0 4.942-22.936zm-59.572-41.995c4.754 14.413 11.486 28.887 21.031 40.932H67.67c9.544-12.043 16.276-26.517 21.03-40.932h248.147zM212.775 24c13.173 0 24.311 8.852 27.796 20.917-8.978-1.862-18.275-2.844-27.796-2.844s-18.818.981-27.796 2.844C188.464 32.852 199.602 24 212.775 24zM100.108 237.624v-58.885c0-62.124 50.542-112.666 112.667-112.666s112.667 50.542 112.667 112.666v58.983c.016 1.805.297 20.776 5.078 44.13H95.027c4.784-23.376 5.066-42.381 5.081-44.228zM212.775 401.55c-18.316 0-34.301-13.206-39.432-30.766h78.863c-5.131 17.56-21.114 30.766-39.431 30.766z" fill="#3d6889"/><path d="M212.775 82.909c-51.629 0-93.633 42.002-93.633 93.631 0 6.627 5.373 12 12 12s12-5.373 12-12c0-38.395 31.237-69.631 69.633-69.631 6.627 0 12-5.373 12-12 0-6.628-5.373-12-12-12z" fill="#3d6889"/></svg>