<svg xmlns="http://www.w3.org/2000/svg" viewBox="0 0 403.68 403.68"><path d="M258.239 142.08c8.662 0 15.711-7.049 15.711-15.711 0-8.664-7.049-15.711-15.711-15.711-8.662 0-15.711 7.047-15.711 15.711.001 8.662 7.049 15.711 15.711 15.711zM280.15 248.476l-42.689-47.541-27.92 28.184a12 12 0 0 1-18.422-1.656l-60.572-88.293-45.468 38.498v122.545h233.522v-47.754H289.08a12 12 0 0 1-8.93-3.983z" fill="none"/><path d="M40.507 379.68h322.667V24H40.507v355.68zM61.079 54.689c0-6.627 5.372-12 12-12h257.522c6.627 0 12 5.373 12 12v257.523c0 6.627-5.373 12-12 12H73.079c-6.628 0-12-5.373-12-12V54.689z" fill="none"/><path d="M134.525 109.537a12.002 12.002 0 0 1 8.299 5.105l59.876 87.279 26.664-26.916c2.324-2.346 5.465-3.641 8.818-3.551a12.003 12.003 0 0 1 8.635 3.979l47.613 53.025h24.17V66.689H85.079v79.531l40.096-33.949a11.999 11.999 0 0 1 9.35-2.734zm123.714-22.879c21.897 0 39.711 17.814 39.711 39.711s-17.814 39.711-39.711 39.711-39.711-17.814-39.711-39.711 17.815-39.711 39.711-39.711z" fill="#73d0f4"/><path d="M375.173 0H28.507c-6.627 0-12 5.373-12 12v379.68c0 6.627 5.373 12 12 12h346.667c6.627 0 12-5.373 12-12V12c-.001-6.627-5.374-12-12.001-12zm-12 379.68H40.507V24h322.667v355.68z" fill="#3d6889"/><path d="M73.079 324.213h257.522c6.627 0 12-5.373 12-12V54.689c0-6.627-5.373-12-12-12H73.079c-6.628 0-12 5.373-12 12v257.523c0 6.628 5.372 12.001 12 12.001zm245.522-24H85.079V177.668l45.468-38.498 60.572 88.293a12.001 12.001 0 0 0 18.422 1.656l27.92-28.184 42.689 47.541a12.002 12.002 0 0 0 8.93 3.982h29.521v47.755zM85.079 66.689h233.522v161.77h-24.17l-47.613-53.025a12.01 12.01 0 0 0-8.635-3.979c-3.354-.09-6.494 1.205-8.818 3.551L202.7 201.922l-59.876-87.279a11.999 11.999 0 0 0-17.65-2.371l-40.096 33.949V66.689z" fill="#3d6889"/><path d="M258.239 166.08c21.897 0 39.711-17.814 39.711-39.711s-17.814-39.711-39.711-39.711-39.711 17.814-39.711 39.711 17.815 39.711 39.711 39.711zm0-55.422c8.662 0 15.711 7.047 15.711 15.711 0 8.662-7.049 15.711-15.711 15.711-8.662 0-15.711-7.049-15.711-15.711.001-8.664 7.049-15.711 15.711-15.711z" fill="#3d6889"/></svg>