<svg xmlns="http://www.w3.org/2000/svg" width="612" height="612" viewBox="0 0 612 612"><path d="M185.167 612c-3.339 0-11.959-.941-19.842-9.678-13.833-15.348-18.104-46.625-13.066-95.638 8.659-84.046 38.82-194.525 45.362-217.842-5.135-17.298-19.88-78.601 12.571-126.108 15.221-22.288 40.286-35.597 67.039-35.597 20.608 0 39.586 8.377 52.031 22.967 9.892 11.62 20.551 32.704 15.056 67.194-1.602 7.805-14.9 70.922-25.016 91.871-4.28 8.872-4.64 21.511-.825 29.403 2.437 5.019 5.349 5.669 6.456 5.911l1.641.369c5.406 1.214 11.532 2.582 17.938 2.582 8.29 0 33.5 0 58.682-58.933 19.647-46.003 20.55-95.977 2.339-130.399-12.988-24.55-34.441-39.907-63.768-45.644-17.891-3.504-34.868-5.281-50.478-5.281-62.389 0-87.997 27.2-97.695 43.411-55.274 92.336-15.648 147.62-13.94 149.93 2.553 3.437 3.534 7.921 2.563 12.095l-6.902 29.656a12.07 12.07 0 0 1-.359 1.281l-7.319 22.064a14.557 14.557 0 0 1-8.368 8.922 14.604 14.604 0 0 1-12.212-.603c-2.291-1.203-56.409-30.189-76.067-94.472-14.726-48.178-6.154-102.383 25.492-161.123C149.182 20.541 236.296 0 300.093 0 360.53 0 410.212 18.26 419.27 22.773c39.906 19.881 165.199 97.375 118.42 268.107-40.937 149.426-143.388 165.55-185.538 165.55-13.804 0-24.637-1.65-30.18-3.203-10.066-2.825-24.472-9.853-35.732-15.804-11.581 45.217-43.741 151.328-95.035 173.383a14.74 14.74 0 0 1-4.213 1.107c-.514.048-1.31.087-1.825.087zm92.065-455.711c-16.881 0-33.354 8.766-42.994 22.88-29.093 42.615-7.902 103.946-7.678 104.568a14.544 14.544 0 0 1 .262 8.882c-.359 1.262-36.334 127.224-45.585 217.056-4.922 47.828 1.058 65.35 4.358 71.106 33.995-22.88 64.729-113.537 76.717-168.5 1-4.553 4.116-8.368 8.387-10.241a14.521 14.521 0 0 1 13.192.767c8.688 5.067 33.859 18.968 45.925 22.356 2.116.592 10.261 2.126 22.336 2.126 44.053 0 123.1-18.716 157.453-144.106 39.791-145.222-58.72-212.106-102.927-234.122-6.901-3.446-51.517-19.919-106.586-19.919-81.26 0-141.145 34.665-177.975 103.024-27.724 51.468-35.597 98.015-23.405 138.378 10.173 33.646 32.481 55.904 47.343 67.621l1.049-3.164 5.349-22.978c-11.464-19.492-39.47-83.483 16.153-176.402 12.872-21.502 45.926-57.584 122.682-57.584 17.473 0 36.344 1.951 56.069 5.814 37.849 7.407 66.864 28.375 83.92 60.613 22.56 42.654 22.064 100.782-1.311 155.492-22.026 51.556-49.983 76.62-85.454 76.62-9.639 0-18.113-1.902-24.316-3.291l-1.563-.349c-11.464-2.534-20.812-10.223-26.354-21.647-7.688-15.872-7.368-37.897.806-54.808 7.261-15.027 18.773-66.049 22.589-84.444 2.844-17.939-.068-33.043-8.562-43.013-7.009-8.212-17.63-12.735-29.88-12.735z"/></svg>