<svg xmlns="http://www.w3.org/2000/svg" width="45.415" height="45.415" viewBox="0 0 45.415 45.415"><path d="M31.693 1.836C16.894-4.423.48 7.41 0 22.847c.266 7.701 3.811 14.14 10.135 18.5 3.923 2.705 4.695-.596 5.274-3.901.522-2.981 1.404-5.942 2.099-8.888.725-3.067-.357-5.996.446-9.053.871-3.318 4.492-2.442 4.833.591.256 2.276-1.327 5.487-1.919 7.687-.678 2.521 1.435 4.366 3.776 4.432 3.935.111 6.369-3.028 7.646-6.378 2.244-5.882.662-12.268-5.674-14.124-4.05-1.187-8.664.352-11.821 2.894-1.882 1.515-3.228 4.285-3.365 6.667-.144 2.484 1.699 5.01 1.489 7.282a.735.735 0 0 1-1.134.543c-3.116-2.031-2.941-8.592-2.15-11.346 2.399-8.354 12.683-11.114 20.083-7.769 12.473 5.64 5.485 31.138-7.059 24.031-.998-.565-2.068-.584-3.086.043-.692.426-3.323 8.486-3.104 9.024 1.926 4.714 14.262.676 17.428-1.136 16.199-9.274 15.172-32.762-2.204-40.11zM15.531 26.927l-.01.094c-.063.549-.211 1.062-.308 1.152-.096.09-.148-.218-.21-.68s.009-.992.226-1.195c.217-.203.364.079.302.629zm-.322-.968c-.245.245-.569.013-.757-.506a34.91 34.91 0 0 0-.233-.622c-.199-.516-.054-1.252.331-1.648l.455-.469c.385-.397.657-.398.645-.003-.007.232-.005.47.007.716.019.366.027.729.025 1.09-.002.55-.228 1.196-.473 1.442zm-1.812-6.068c.099-.543.556-1.284.95-1.672l4.371-4.312c.394-.388 1.133-.859 1.668-1 4.221-1.108 9.043.31 10.601 5.248.925 2.936-.021 6.512-1.071 9.268-.857 2.247-2.971 5.012-6.093 3.264a2.097 2.097 0 0 1-.285-.195c-.147-.121.062-.557.449-.952l.479-.492c.387-.394.696-.86.713-1.04.018-.179-.291-.021-.699.352-.271.244-.536.486-.799.727-.409.372-.947.266-1.013-.283a5.27 5.27 0 0 1 .029-1.316c.073-.547.513-1.289.914-1.67l2.172-2.061c.4-.38.751-.777.781-.886.031-.11-.264.113-.658.499l-2.247 2.195c-.395.387-.603.267-.434-.258.357-1.107.783-2.139.99-2.84.057-.193.105-.38.146-.562.07-.313.439-.875.845-1.251l1.19-1.104c.404-.375.689-.995.556-1.358-.134-.364-.638-.324-1.043.051l-.634.588c-.405.375-.766.327-.895-.086-.13-.413-.133-.885.09-1.094.225-.209.19-.144.537-.454.346-.31.479-.641.289-.709-.188-.068-.619.163-.959.478-.339.316-.604.583-.596.6.009.018-.266-.33-.741-.612-2.096-1.247-5.673-.001-6.914 3.396-.19.518-.265.812-.254.63.011-.182-.289-.013-.68.377l-.926.922c-.391.39-.782.496-.849.229a2.908 2.908 0 0 1-.087-.487 8.379 8.379 0 0 1 .107-2.13zm6.915 16.942l.31-1.217c.136-.535.385-.652.777-.493.249.101.531.185.726.247.049.016.097.029.145.044.08.022.105.081.056.131l-.089.089c-.484.489-.974.977-1.465 1.463-.392.389-.597.271-.46-.264zm18.055.379c-2.842 3.393-6.951 5.605-11.232 6.551-.238.053-1.994.316-3.854.327-.552.003-.962-.061-.917-.108.046-.049-.008-.103-.121-.116a4.51 4.51 0 0 1-.203-.031 1.587 1.587 0 0 1-.612-.254c-.301-.214-.581-.349-.774-.153-.193.195-.799.262-1.272-.023a1.94 1.94 0 0 1-.444-.358c-.37-.409-.05-1.235.327-1.639l2.543-2.716c.377-.403.796-1.166.934-1.7l.098-.38c.137-.535.682-.859 1.229-.781 1.267.182 2.471.104 3.894-.131.238-.04.472-.088.701-.143.384-.094 1.019-.192 1.421-.228s.924-.29 1.168-.542c.245-.252.833-.68 1.284-.998 1.229-.872 2.28-1.977 3.138-3.24.31-.457.844-1.168 1.229-1.564l2.801-2.867c.386-.395.812-1.148.917-1.689.023-.115.044-.231.064-.35.098-.544-.166-.67-.555-.278l-1.742 1.755c-.39.393-.568.282-.432-.252l.021-.086c.135-.535.529-1.293.916-1.686l1.375-1.39c.39-.393.716-.929.727-1.199.012-.27-.293-.162-.67.241l-1.316 1.41c-.377.403-.621.285-.578-.266.015-.17.025-.341.035-.512.028-.551.327-1.329.705-1.732l.961-1.033c.377-.404.643-.956.58-1.229-.062-.273-.441-.178-.835.21-.243.242-.489.484-.735.727-.393.388-.746.257-.823-.29a14.413 14.413 0 0 0-.625-2.622c-.175-.507-.013-1.205.401-1.57l.019-.016c.414-.365.688-.747.61-.851-.08-.104-.457.115-.842.488-.387.373-.818.412-.984.097-.165-.315-.047-.825.285-1.148.332-.323.592-.595.58-.607-.012-.012-.287.237-.619.554s-.338.31-.01-.011.566-.609.533-.645c-.033-.036-.322.188-.643.499s-.817.183-1.15-.257l-.128-.166c-.342-.434-.454-.942-.209-1.171.246-.229.212-.589-.087-.791-.298-.201-.714-.198-.917-.01s-.599.143-.899-.081c-.302-.224-.429-.509-.269-.657s.144-.339-.041-.423a.604.604 0 0 0-.597.086c-.146.128-.582.047-.989-.149-.408-.197-.679-.404-.591-.491.088-.087.059-.185-.066-.213-.124-.028-.285.008-.357.081-.071.073-.424.022-.793-.093-.369-.115-.646-.22-.613-.253.033-.034-.016-.072-.105-.085-.093-.013-.189-.002-.216.023-.026.025-.483-.062-1.028-.155C16.661 5.886 1.312 15.748 8.812 28.159c.994 1.645 3.085 2.945 4.965 2.072.254-.117.463-.26.632-.422.305-.293.503-.576.587-.521.085.056.072.537-.043 1.077-.63 2.961-1.478 5.869-1.726 9.018a2.398 2.398 0 0 1-.029.228c-.023.125-.184.125-.343.004-.16-.122-.492-.036-.745.196-.253.23-.86.217-1.306-.109-.354-.26-.729-.572-1.109-.919-.409-.372-.486-.933-.191-1.231.295-.299.484-.6.424-.672-.061-.072-.366.105-.68.396-.315.291-.789.304-1.055.024-.266-.281-.205-.762.131-1.07.335-.308.441-.772.242-1.045-.2-.271-.644-.229-1.001.105-.357.333-.941.266-1.296-.158-.669-.799-1.132-1.398-1.208-1.517a4.552 4.552 0 0 1-.133-.224c-.07-.125.032-.377.231-.565l.361-.339.457-.471c.252-.261.347-.705.221-.998s-.462-.295-.758 0l-.537.535-.319.34c-.177.188-.524-.047-.742-.541-.217-.494-.054-1.217.338-1.607l.43-.428c.392-.391.703-.729.693-.756-.009-.028-.256.18-.553.463-.296.283-.718.685-.935.902-.217.219-.478.178-.575-.094-.098-.271.151-.811.544-1.197l.511-.504c.393-.388.651-.951.586-1.261s-.422-.24-.806.155c-.199.207-.398.412-.598.617-.384.396-.782.396-.876-.004-.093-.399.156-1.048.541-1.444l.706-.729c.385-.396.645-1.163.608-1.714-.004-.048-.006-.096-.009-.145-.034-.55-.355-.685-.749-.297l-.86.851c-.393.39-.766.26-.813-.29a29.519 29.519 0 0 1-.095-1.54c.003-.091.009-.181.016-.271.011-.149.345-.576.747-.955.401-.378.803-.756 1.203-1.136.401-.38.749-.871.785-1.092.036-.222-.245-.083-.634.31l-1.346 1.359c-.389.392-.671.265-.607-.284.051-.433.113-.861.188-1.284.095-.544.508-1.3.894-1.695l1.951-1.994c.387-.394.858-1.134 1.077-1.641.106-.247.218-.491.333-.733.238-.498.13-.581-.267-.197l-2.453 2.375c-.396.384-.713.682-.708.664.006-.017.332-.344.727-.729l2.502-2.437c.396-.385.729-.719.745-.747.016-.027-.292.263-.687.649l-2.54 2.478c-.396.385-.575.274-.373-.24.216-.551.452-1.088.709-1.612.243-.496.781-1.198 1.176-1.583L12.7 4.397l.44-.413c.243-.228.837-.618 1.341-.845.478-.216.964-.414 1.458-.593.52-.188.783-.155.579.044-.204.199.027.15.527-.083.134-.062.268-.123.403-.183.505-.224.952-.412.987-.447.035-.035.501-.161 1.045-.252 4.84-.809 10.1.121 14.983 3.315 10.955 7.161 11.938 22.681 3.904 32.272z"/></svg>