<svg xmlns="http://www.w3.org/2000/svg" viewBox="0 0 416.395 416.395"><path d="M226.051 64.964l-7.465 58.226h36.691l11.788-25.498a12.003 12.003 0 0 1 10.892-6.963h.06l72.253.357c-19.098-23.127-43.727-41.52-71.837-53.158l-52.382 27.036zM86.586 115.043l-8.695-36.908c-31.938 31.996-52.192 75.647-53.777 123.941l41.25-5.68 21.222-81.353zM39.741 282.664c8.819 19.871 21.05 37.902 35.951 53.346l-9.245-41.383-26.706-11.963zM339.062 181.19H239.92l-50.971 50.971v49.029h58c6.627 0 12 5.373 12 12v92.091c66.008-18.946 116.937-73.888 130.102-142.117-.201-.209-.403-.416-.592-.642-22.895-27.475-41.768-51.52-49.397-61.332z" fill="none"/><path d="M320.371 32.871c.261.167.516.342.775.51 5.289 1.302 3.924.835-.775-.51zM285.612 114.766l-11.77 25.46a12.003 12.003 0 0 1-10.893 6.964h-58a12.004 12.004 0 0 1-9.009-4.072 12.004 12.004 0 0 1-2.894-9.453l10-78a12.003 12.003 0 0 1 6.398-9.139l36.217-18.691A184.163 184.163 0 0 0 208.196 24c-41.122 0-79.139 13.549-109.825 36.412l12.259 52.025a12.003 12.003 0 0 1-.069 5.781l-24 92a11.999 11.999 0 0 1-9.975 8.858l-47.546 6.547 1.642 26.684 51.069 22.876a12.003 12.003 0 0 1 6.806 8.335l17.383 77.807c29.273 19.613 64.451 31.068 102.257 31.068 9.085 0 18.017-.673 26.753-1.949V305.19h-58c-6.627 0-12-5.373-12-12v-66c0-3.183 1.265-6.234 3.515-8.485l58-58a12 12 0 0 1 8.485-3.515h110c3.732 0 7.253 1.736 9.523 4.699.188.244 15.803 20.587 37.904 47.66.004-.451.018-.899.018-1.352 0-33.912-9.223-65.707-25.275-93.026l-81.508-.405z" fill="#73d0f4"/><path d="M321.147 33.381c-.26-.168-.515-.343-.775-.51C287.977 12.072 249.47 0 208.196 0 93.396 0 0 93.397 0 208.197s93.396 208.197 208.196 208.197c114.801 0 208.198-93.397 208.198-208.197.001-73.195-37.972-137.681-95.247-174.816zm71.23 176.168c-22.102-27.073-37.717-47.416-37.904-47.66a11.998 11.998 0 0 0-9.523-4.699h-110a11.998 11.998 0 0 0-8.485 3.515l-58 58a12.003 12.003 0 0 0-3.515 8.485v66c0 6.627 5.373 12 12 12h58v85.256a185.013 185.013 0 0 1-26.753 1.949c-37.806 0-72.983-11.455-102.257-31.068L88.557 283.52a12 12 0 0 0-6.806-8.335l-51.069-22.876-1.642-26.684 47.546-6.547a11.999 11.999 0 0 0 9.975-8.858l24-92c.494-1.893.518-3.877.069-5.781L98.371 60.412C129.058 37.549 167.074 24 208.196 24c12.834 0 25.364 1.323 37.466 3.834l-36.217 18.691a12 12 0 0 0-6.398 9.139l-10 78a12 12 0 0 0 11.903 13.525h58c4.678 0 8.929-2.719 10.893-6.964l11.77-25.46 81.507.405c16.053 27.319 25.275 59.114 25.275 93.026 0 .453-.014.902-.018 1.353zM350.271 91.086l-72.253-.357h-.06a12 12 0 0 0-10.892 6.963l-11.788 25.498h-36.691l7.465-58.226 52.383-27.036c28.108 11.638 52.738 30.031 71.836 53.158zM77.891 78.135l8.695 36.908-21.223 81.354-41.25 5.68c1.585-48.295 21.84-91.946 53.778-123.942zm-38.15 204.529l26.706 11.963 9.245 41.383c-14.901-15.444-27.131-33.475-35.951-53.346zM258.949 385.28v-92.09c0-6.627-5.373-12-12-12h-58v-49.03l50.971-50.971h99.142c7.629 9.813 26.502 33.857 49.397 61.332.189.226.391.433.592.642-13.165 68.23-64.094 123.171-130.102 142.117z" fill="#3d6889"/></svg>