<svg xmlns="http://www.w3.org/2000/svg" viewBox="0 0 409.255 409.255"><path d="M70.897 222.907c-9.892 12.151-18.53 24.271-25.692 36.145-21.305 35.314-26.945 64.181-15.473 79.197 11.472 15.016 40.803 17.166 80.48 5.895 22.28-6.329 46.302-16.433 70.842-29.643a595.754 595.754 0 0 1-39.282-27.601c-26.42-20.181-50.407-41.903-70.875-63.993zM322.525 204.648c-19.889-21.718-43.49-43.189-69.65-63.176-15.775-12.052-32.023-23.175-48.301-33.111-15.751 9.621-31.918 20.649-48.232 33.111-26.162 19.987-49.765 41.46-69.653 63.18 19.889 21.719 43.491 43.192 69.653 63.18 16.326 12.472 32.504 23.502 48.266 33.127 16.146-9.868 32.347-20.966 48.266-33.127 26.162-19.988 49.709-41.383 69.651-63.184zm-117.917 53.769c-29.647 0-53.767-24.119-53.767-53.767 0-29.646 24.119-53.767 53.767-53.767 29.647 0 53.767 24.12 53.767 53.767 0 29.648-24.12 53.767-53.767 53.767zM338.326 222.916c-20.5 22.142-44.442 43.787-70.883 63.985a595.496 595.496 0 0 1-39.257 27.584c45.83 24.62 86.654 36.642 115.078 36.643 17.089.002 29.692-4.336 36.219-12.879 11.473-15.017 5.833-43.883-15.472-79.197-7.161-11.87-15.796-23.987-25.685-36.136z" fill="none"/><path d="M204.608 174.884c-16.413 0-29.767 13.354-29.767 29.767s13.354 29.767 29.767 29.767 29.767-13.354 29.767-29.767-13.354-29.767-29.767-29.767z" fill="#73d0f4"/><path d="M204.608 150.884c-29.647 0-53.767 24.12-53.767 53.767 0 29.647 24.119 53.767 53.767 53.767 29.647 0 53.767-24.119 53.767-53.767 0-29.647-24.12-53.767-53.767-53.767zm0 83.533c-16.413 0-29.767-13.354-29.767-29.767s13.354-29.767 29.767-29.767 29.767 13.354 29.767 29.767c0 16.414-13.354 29.767-29.767 29.767z" fill="#3d6889"/><path d="M354.354 204.65c6.092-7.339 11.79-14.703 17.05-22.06a323.455 323.455 0 0 0 8.972-13.222c3.58-5.577 1.961-13.001-3.617-16.58-5.578-3.582-13.001-1.961-16.58 3.616a298.142 298.142 0 0 1-8.3 12.23 359.81 359.81 0 0 1-13.572 17.748c-20.465-22.086-44.448-43.803-70.861-63.981a593.309 593.309 0 0 0-39.289-27.578c73.398-39.438 133.943-46.526 151.327-23.77 3.827 5.011 5.77 11.628 5.772 19.672.003 6.626 5.374 11.995 12 11.995h.005c6.627-.002 11.998-5.377 11.995-12.004-.005-13.427-3.605-24.944-10.7-34.232-18.038-23.609-55.723-28.727-106.109-14.412-27.605 7.842-57.573 21.007-87.872 38.406-13.393-7.688-26.753-14.583-39.855-20.529-6.032-2.737-13.146-.068-15.887 5.968-2.738 6.035-.066 13.147 5.969 15.887 8.635 3.919 17.395 8.284 26.207 13.026a596.294 596.294 0 0 0-39.236 27.571c-26.419 20.183-50.406 41.905-70.875 63.996-9.893-12.151-18.53-24.273-25.693-36.146-21.304-35.314-26.943-64.182-15.47-79.198 8.591-11.246 27.833-15.374 54.181-11.618 6.555.934 12.638-3.627 13.572-10.188.935-6.561-3.626-12.638-10.188-13.572-45.266-6.451-66.665 7.754-76.637 20.809-18.038 23.607-13.069 61.31 13.99 106.164 8.339 13.822 18.507 27.923 30.206 42.004-11.698 14.082-21.867 28.182-30.205 42.004-27.059 44.854-32.028 82.557-13.993 106.163 11.333 14.835 30.422 22.369 55.548 22.368 14.86 0 31.834-2.636 50.562-7.955 27.594-7.84 57.55-20.998 87.837-38.389 30.288 17.391 60.244 30.549 87.839 38.389 18.729 5.32 35.698 7.956 50.561 7.955 25.122 0 44.215-7.535 55.547-22.367 18.036-23.607 13.066-61.31-13.992-106.164-8.34-13.824-18.509-27.924-30.209-42.006zM110.211 344.145c-39.677 11.271-69.008 9.12-80.48-5.895-11.472-15.017-5.832-43.883 15.473-79.197 7.162-11.873 15.8-23.993 25.692-36.145 20.468 22.09 44.455 43.812 70.874 63.994a596.131 596.131 0 0 0 39.282 27.601c-24.539 13.209-48.56 23.313-70.841 29.642zm46.13-76.314c-26.162-19.987-49.765-41.461-69.653-63.18 19.889-21.72 43.491-43.192 69.653-63.18 16.314-12.463 32.481-23.49 48.232-33.111 16.278 9.937 32.525 21.06 48.301 33.111 26.16 19.986 49.762 41.458 69.65 63.176-19.942 21.802-43.489 43.196-69.652 63.184-15.919 12.161-32.12 23.259-48.266 33.127-15.761-9.625-31.939-20.655-48.265-33.127zm223.142 70.418c-6.526 8.543-19.13 12.881-36.219 12.879-28.424-.001-69.248-12.022-115.078-36.643a595.762 595.762 0 0 0 39.257-27.584c26.441-20.198 50.383-41.844 70.883-63.985 9.89 12.148 18.525 24.266 25.686 36.136 21.304 35.314 26.944 64.181 15.471 79.197z" fill="#3d6889"/><path d="M122.443 68.018c3.16 0 6.25-1.28 8.48-3.52a12.039 12.039 0 0 0 3.52-8.48c0-3.16-1.279-6.26-3.52-8.489a12.074 12.074 0 0 0-8.48-3.511c-3.16 0-6.25 1.28-8.489 3.511a12.112 12.112 0 0 0-3.511 8.489c0 3.16 1.28 6.25 3.511 8.48a12.078 12.078 0 0 0 8.489 3.52zM386.823 116.388c-3.159 0-6.25 1.279-8.489 3.51a12.116 12.116 0 0 0-3.511 8.49c0 3.16 1.28 6.25 3.511 8.48a12.084 12.084 0 0 0 8.489 3.52c3.16 0 6.25-1.28 8.48-3.52a12.04 12.04 0 0 0 3.52-8.48c0-3.16-1.279-6.25-3.52-8.49a12.07 12.07 0 0 0-8.48-3.51z" fill="#3d6889"/></svg>