<svg xmlns="http://www.w3.org/2000/svg" viewBox="0 0 420.545 420.545"><path d="M302.747 114.797c9.795 9.251 22.611 14.346 36.09 14.346 28.988 0 52.57-23.584 52.57-52.572 0-28.987-23.582-52.57-52.57-52.57-27.531 0-50.566 21.487-52.445 48.917a54.31 54.31 0 0 0-.125 3.653c0 14.612 5.853 28.187 16.48 38.226zM275.448 119.454a77.12 77.12 0 0 1-11.828-28.747L136.708 152.52c7.246 7.488 12.984 16.438 16.711 26.37l122.029-59.436zM136.71 258.906l128.879 62.77c3.088-10.128 8.229-19.362 14.928-27.237l-127.096-61.903c-3.729 9.932-9.467 18.882-16.711 26.37zM338.837 291.404c-28.986 0-52.57 23.583-52.57 52.57 0 28.987 23.584 52.57 52.57 52.57 28.988 0 52.57-23.583 52.57-52.57 0-28.987-23.582-52.57-52.57-52.57z" fill="none"/><path d="M134.28 205.713c0-28.987-23.584-52.57-52.572-52.57-28.986 0-52.57 23.583-52.57 52.57s23.584 52.57 52.57 52.57c28.988 0 52.572-23.583 52.572-52.57z" fill="#73d0f4"/><path d="M338.837 267.404a76.084 76.084 0 0 0-38.092 10.19l-142.527-69.418c.025-.819.063-1.638.063-2.464 0-.826-.037-1.645-.063-2.465l134.547-65.532c13.227 9.989 29.293 15.427 46.072 15.427 42.221 0 76.57-34.35 76.57-76.572 0-42.221-34.35-76.57-76.57-76.57-37.689 0-69.592 27.663-75.563 64.18l-148.662 72.405a76.11 76.11 0 0 0-32.904-7.442c-42.221 0-76.57 34.35-76.57 76.57 0 42.222 34.35 76.57 76.57 76.57a76.112 76.112 0 0 0 32.904-7.442l147.727 71.949c1.488 40.92 35.223 73.755 76.498 73.755 42.221 0 76.57-34.349 76.57-76.57s-34.349-76.571-76.57-76.571zM286.392 72.917C288.271 45.487 311.306 24 338.837 24c28.988 0 52.57 23.583 52.57 52.57 0 28.988-23.582 52.572-52.57 52.572-13.479 0-26.295-5.095-36.09-14.346-10.627-10.039-16.48-23.614-16.48-38.227 0-1.211.043-2.442.125-3.652zm-22.772 17.79a77.12 77.12 0 0 0 11.828 28.747L153.419 178.89c-3.727-9.932-9.465-18.882-16.711-26.37L263.62 90.707zM29.138 205.713c0-28.987 23.584-52.57 52.57-52.57 28.988 0 52.572 23.583 52.572 52.57s-23.584 52.57-52.572 52.57c-28.986 0-52.57-23.583-52.57-52.57zm236.451 115.964l-128.879-62.77c7.244-7.488 12.982-16.439 16.711-26.37l127.096 61.903c-6.7 7.875-11.84 17.109-14.928 27.237zm73.248 74.868c-28.986 0-52.57-23.583-52.57-52.57 0-28.987 23.584-52.57 52.57-52.57 28.988 0 52.57 23.583 52.57 52.57 0 28.987-23.582 52.57-52.57 52.57z" fill="#3d6889"/></svg>