<svg xmlns="http://www.w3.org/2000/svg" viewBox="0 0 423.461 423.461"><path d="M211.731 38.742c-32.939 48.967-102.578 54.895-133.994 54.92l9.627 149.222c5.664 60.716 28.699 105.539 68.465 133.222 25.869 18.009 50.234 22.435 55.873 23.254 5.707-.855 30.883-5.512 56.871-23.914 39.191-27.748 61.91-72.349 67.527-132.562l9.625-149.222c-31.416-.025-101.053-5.953-133.994-54.92zm86.539 82.841c4.416 0 7.142-.214 7.17-.216a12.014 12.014 0 0 1 12.949 12.732l-6.764 104.834c-.008.113-.017.225-.027.336-5.229 56.391-31.457 85.721-52.539 100.396-23.111 16.09-45.209 18.449-46.139 18.541a11.817 11.817 0 0 1-2.377 0c-.93-.092-23.027-2.451-46.141-18.541-21.082-14.676-47.311-44.006-52.541-100.396-.01-.111-.018-.223-.025-.336L105.074 134.1a11.998 11.998 0 0 1 12.966-12.731c.01 0 2.732.214 7.15.214 18.758-.001 63.635-3.593 75.205-36.864a12 12 0 1 1 22.668 0c11.572 33.271 56.451 36.864 75.207 36.864z" fill="none"/><path d="M211.731 113.092c-21.75 26.811-60.482 31.84-81.869 32.427l5.914 91.7c7.768 82.951 66.313 95.444 75.955 96.942 9.643-1.498 68.189-13.989 75.955-96.942l5.916-91.7c-21.389-.587-60.121-5.617-81.871-32.427z" fill="#73d0f4"/><path d="M366.959 72.712a12.01 12.01 0 0 0-9.389-3.407c-.045.004-4.48.357-11.648.357-30.498 0-103.521-6.004-122.857-61.604a12 12 0 0 0-22.668.001c-19.336 55.6-92.359 61.604-122.857 61.604-7.17 0-11.602-.354-11.635-.355a11.998 11.998 0 0 0-12.966 12.731L63.424 244.6c.008.112.016.223.027.336 7.873 84.913 47.123 128.91 78.664 150.867 34.447 23.979 67.055 27.461 68.426 27.598a11.547 11.547 0 0 0 2.378 0c1.371-.137 33.98-3.619 68.426-27.598 31.541-21.957 70.793-65.954 78.666-150.867.01-.113.02-.224.025-.336l10.486-162.563a11.996 11.996 0 0 0-3.563-9.325zM336.1 242.884c-5.617 60.213-28.336 104.813-67.527 132.562-25.988 18.402-51.164 23.059-56.871 23.914-5.639-.818-30.004-5.245-55.873-23.254-39.766-27.683-62.801-72.506-68.465-133.222L77.736 93.662c31.416-.025 101.055-5.953 133.994-54.92 32.941 48.967 102.578 54.895 133.994 54.92L336.1 242.884z" fill="#3d6889"/><path d="M211.731 76.66a12.001 12.001 0 0 0-11.334 8.059c-11.57 33.271-56.447 36.863-75.205 36.864-4.418 0-7.141-.214-7.15-.214a11.998 11.998 0 0 0-12.966 12.731l6.762 104.834.025.336c5.23 56.391 31.459 85.721 52.541 100.396 23.113 16.09 45.211 18.449 46.141 18.541a11.783 11.783 0 0 0 2.377 0c.93-.092 23.027-2.451 46.139-18.541 21.082-14.676 47.311-44.006 52.539-100.396.01-.111.02-.223.027-.336l6.764-104.834a12.013 12.013 0 0 0-12.949-12.732c-.027.002-2.754.216-7.17.216-18.756 0-63.635-3.593-75.205-36.864a12.005 12.005 0 0 0-11.336-8.06zm75.955 160.559c-7.766 82.953-66.313 95.444-75.955 96.942-9.643-1.498-68.188-13.991-75.955-96.942l-5.914-91.7c21.387-.587 60.119-5.616 81.869-32.427 21.75 26.811 60.482 31.84 81.871 32.427l-5.916 91.7z" fill="#3d6889"/></svg>