<svg xmlns="http://www.w3.org/2000/svg" viewBox="0 0 410.551 410.551"><path d="M205.275 24C105.319 24 24 105.32 24 205.275c0 99.956 81.319 181.275 181.275 181.275s181.276-81.319 181.276-181.275C386.551 105.32 305.232 24 205.275 24zm-3.197 27.41c24.558 0 44.537 19.98 44.537 44.539 0 24.558-19.979 44.538-44.537 44.538-24.559 0-44.538-19.98-44.538-44.538 0-24.558 19.98-44.539 44.538-44.539zm86.423 295.732c0 6.628-5.373 12-12 12H140.559c-6.627 0-12-5.372-12-12v-45.554c0-6.627 5.373-12 12-12H163.7v-76.426h-29.65c-6.627 0-12-5.372-12-12v-37.535c0-6.627 5.373-12 12-12h106.726c6.627 0 12 5.373 12 12v125.961h23.726c6.627 0 12 5.373 12 12v45.554z" fill="none"/><path d="M202.078 116.487c11.324 0 20.537-9.213 20.537-20.538 0-11.325-9.213-20.539-20.537-20.539-11.325 0-20.538 9.214-20.538 20.539 0 11.324 9.213 20.538 20.538 20.538zM228.775 301.588V175.627H146.05v13.535h29.649c6.627 0 12 5.373 12 12v100.426c0 6.628-5.373 12-12 12h-23.141v21.554H264.5v-21.554h-23.726c-6.626 0-11.999-5.372-11.999-12z" fill="#73d0f4"/><path d="M205.275 0C92.086 0 0 92.086 0 205.275 0 318.465 92.086 410.55 205.275 410.55s205.276-92.086 205.276-205.275C410.551 92.086 318.465 0 205.275 0zm0 386.551C105.319 386.551 24 305.232 24 205.275 24 105.32 105.319 24 205.275 24s181.276 81.32 181.276 181.275c0 99.957-81.319 181.276-181.276 181.276z" fill="#3d6889"/><path d="M202.078 140.487c24.558 0 44.537-19.98 44.537-44.538 0-24.559-19.979-44.539-44.537-44.539-24.559 0-44.538 19.98-44.538 44.539 0 24.558 19.98 44.538 44.538 44.538zm0-65.077c11.324 0 20.537 9.214 20.537 20.539 0 11.324-9.213 20.538-20.537 20.538-11.325 0-20.538-9.213-20.538-20.538 0-11.325 9.213-20.539 20.538-20.539zM276.501 289.588h-23.726V163.627c0-6.627-5.373-12-12-12H134.05c-6.627 0-12 5.373-12 12v37.535c0 6.628 5.373 12 12 12h29.649v76.426h-23.141c-6.627 0-12 5.373-12 12v45.554c0 6.628 5.373 12 12 12H276.5c6.627 0 12-5.372 12-12v-45.554c.001-6.627-5.372-12-11.999-12zm-12 45.554H152.559v-21.554H175.7c6.627 0 12-5.372 12-12V201.162c0-6.627-5.373-12-12-12h-29.65v-13.535h82.726v125.961c0 6.628 5.373 12 12 12h23.726v21.554z" fill="#3d6889"/></svg>