<svg xmlns="http://www.w3.org/2000/svg" width="556.665" height="556.665" viewBox="0 0 556.665 556.665"><path d="M545.783 241.475l-45.267-60.229-13.474-74.122a54.11 54.11 0 0 0-45.702-43.958l-74.59-10.584-61.936-42.886c-15.56-10.775-35.2-12.678-52.544-5.095a54.09 54.09 0 0 0-10.843 6.331l-60.225 45.262-74.127 13.474a54.352 54.352 0 0 0-12.016 3.663c-17.08 7.465-29.316 23.574-31.936 42.031L52.544 189.95l-42.89 61.948a54.102 54.102 0 0 0 1.23 63.391l45.267 60.222 13.468 74.125a54.105 54.105 0 0 0 45.699 43.957l74.596 10.584 61.93 42.886c15.33 10.609 35.463 12.572 52.545 5.1a54.07 54.07 0 0 0 10.849-6.332l60.231-45.268 74.13-13.474a54.567 54.567 0 0 0 12.014-3.661c17.077-7.467 29.313-23.57 31.934-42.035l10.578-74.592 42.891-61.94a54.112 54.112 0 0 0-1.233-63.386zm-267.452 234.93c-109.22 0-198.071-88.852-198.071-198.068 0-109.22 88.852-198.071 198.071-198.071s198.071 88.851 198.071 198.071c0 109.217-88.851 198.068-198.071 198.068z"/><path d="M278.331 98.941c-98.915 0-179.396 80.473-179.396 179.396 0 98.913 80.476 179.396 179.396 179.396 98.92 0 179.394-80.483 179.394-179.396 0-98.922-80.479-179.396-179.394-179.396zm135.172 171.743l.161.261c-6.582 8.601-17.218 12.638-31.976 12.136-2.283 11.578-8.021 23.627-17.129 36.293-19.744 24.114-43.703 40.068-71.971 47.835h-.502c-29.106 7.845-58.306 7.183-87.498-2.019-25.481-9.627-46.067-24.975-61.591-46.236 15.441 12.143 29.699 18.223 43.028 18.311l.334-.166c21.857 1.43 40.506-5.411 55.947-20.599.085-.083.168-.165.249-.254l-.502-.59c-8.945.425-15.022-2.273-18.396-8.099-.927-3.868 0-7.25 2.874-10.123 1.608-1.869 4.046-3.537 7.174-5.07-15.786.426-26.665-5.053-32.827-16.53 4.73-5.054 10.801-7.503 18.139-7.1l.091-.249c-18.729-5.054-28.606-14.165-29.528-27.403 4.813-1.449 9.787-2.206 14.936-2.123v-.253c-14.602-8.272-21.937-19.656-21.856-33.919 13.414 4.135 26.665 9.448 39.742 15.863 11.977 5.059 22.359 10.289 31.219 15.765 7.508 4.249 13.75 9.466 18.988 15.711l.248-.249 1.344-1.007c3.633-13.759 9.709-27.261 18.393-40.674l.171-.424c3.371-4.898 7.757-10.287 13.251-16.12 2.604-2.609 5.649-5.064 9.108-7.342.673.424-.342 2.789-3.045 7.172 7.265-6.144 14.183-9.279 20.594-9.448 1.439 1.432-1.093 4.215-7.591 8.182 5.142-1.944 10.879-3.208 17.124-3.967 2.713.334 3.64 1.686 2.874 4.138-2.196 3.021-9.533 5.81-21.936 8.521-.082 0-.17 0-.253.083l.419.93c13.676-.526 25.569 3.79 35.688 12.815.171.168.342.354.513.44 11.982 11.555 18.9 24.29 20.832 38.3 10.631 3.79 21.349 3.71 32.239-.347-2.952 7.943-12.153 12.748-27.761 14.434-.088-.075-.088-.075-.088 0v1.527c14.25 2.772 23.871 3.282 28.77 1.594z"/></svg>