<svg xmlns="http://www.w3.org/2000/svg" viewBox="0 0 198.737 198.737"><path d="M197.399 42.479a7.502 7.502 0 0 0-10.438-1.886l-23.288 16.159a7.5 7.5 0 0 0-3.218 6.487 101 101 0 0 1 .1 4.42c0 47.603-36.222 96.84-96.839 96.84a96.444 96.444 0 0 1-35.843-6.889l35.939-10.052a7.5 7.5 0 1 0-4.041-14.445L5.48 148.299a7.5 7.5 0 0 0-2.027 13.537A111.456 111.456 0 0 0 63.716 179.5c42.057 0 68.398-19.87 83.091-36.538 18.27-20.728 28.748-48.174 28.748-75.302l-.003-.892 19.961-13.85a7.503 7.503 0 0 0 1.886-10.439zM16.555 40.14L92.14 78.455a7.494 7.494 0 0 0 8.019-.787 7.499 7.499 0 0 0 2.677-7.6 29.45 29.45 0 0 1-.754-6.662c0-16.083 13.087-29.168 29.173-29.168 8.041 0 15.804 3.357 21.296 9.211a7.5 7.5 0 0 0 8.031 1.917l23.328-8.476a7.5 7.5 0 1 0-5.122-14.098l-18.983 6.897c-7.929-6.692-18.083-10.452-28.55-10.452-22.93 0-41.835 17.561-43.972 39.938L23.337 26.761a7.5 7.5 0 1 0-6.782 13.379zM12.689 85.053l16.608 4.585a7.48 7.48 0 0 0 2 .272 7.5 7.5 0 0 0 1.992-14.732l-16.608-4.585a7.502 7.502 0 0 0-3.992 14.46zM27.25 107.376a7.5 7.5 0 0 0-7.21 7.778 7.5 7.5 0 0 0 7.778 7.211l16.562-.628a7.5 7.5 0 0 0 7.211-7.779c-.157-4.139-3.648-7.363-7.778-7.21l-16.563.628z"/></svg>