<svg xmlns="http://www.w3.org/2000/svg" viewBox="0 0 511.998 511.998"><g fill="#db380e"><path d="M24.733 356.515c1.056 0 1.951-.869 2.103-2.092l5.743-45.519-5.726-46.554c-.171-1.224-1.063-2.099-2.12-2.099-1.084 0-2.007.894-2.15 2.099l-5.019 46.554 5.019 45.503c.143 1.222 1.066 2.108 2.15 2.108zM5.796 339.203c1.039 0 1.881-.807 2.033-2.014l4.449-28.286-4.449-28.815c-.154-1.169-.993-2.014-2.033-2.014-1.084 0-1.923.845-2.077 2.031L0 308.904l3.721 28.278c.151 1.196.993 2.021 2.075 2.021zM47.38 253.685c-.137-1.48-1.22-2.56-2.563-2.56-1.336 0-2.42 1.08-2.546 2.56l-4.797 55.219 4.797 53.204c.126 1.471 1.21 2.538 2.546 2.538 1.343 0 2.427-1.067 2.563-2.538l5.427-53.204-5.427-55.219zM65.113 366.791c1.574 0 2.847-1.295 3-2.988l5.13-54.88-5.13-56.76c-.154-1.705-1.427-2.987-3-2.987-1.597 0-2.886 1.282-2.997 2.993l-4.533 56.752 4.533 54.88c.111 1.694 1.401 2.99 2.997 2.99zM85.55 367.68c1.833 0 3.302-1.468 3.456-3.432l-.017.014 4.83-55.34-4.83-52.663c-.137-1.932-1.606-3.422-3.441-3.422-1.86 0-3.323 1.49-3.434 3.437l-4.27 52.649 4.27 55.327c.113 1.962 1.576 3.43 3.436 3.43zM114.574 308.935l-4.533-85.627c-.126-2.171-1.816-3.901-3.893-3.901-2.06 0-3.746 1.729-3.874 3.901l-4.011 85.627 4.011 55.327c.126 2.181 1.814 3.888 3.874 3.888 2.077 0 3.767-1.707 3.893-3.888v.015l4.533-55.342zM126.954 368.24c2.284 0 4.18-1.896 4.287-4.316v.036l4.238-55.011-4.238-105.226c-.108-2.42-2.004-4.316-4.287-4.316-2.34 0-4.217 1.896-4.343 4.316l-3.731 105.226 3.746 54.992c.111 2.403 1.988 4.299 4.328 4.299zM147.872 190.182c-2.574 0-4.651 2.113-4.756 4.777l-3.47 114.007 3.47 54.415c.108 2.65 2.183 4.75 4.756 4.75 2.567 0 4.661-2.082 4.75-4.76v.027l3.937-54.434-3.937-114.007c-.089-2.68-2.183-4.775-4.75-4.775zM168.977 368.24c2.826 0 5.077-2.28 5.183-5.216v.032l3.64-54.089-3.64-117.837c-.108-2.925-2.357-5.216-5.183-5.216-2.843 0-5.127 2.29-5.173 5.216l-3.27 117.837 3.27 54.089c.046 2.904 2.33 5.184 5.173 5.184zM190.254 368.185c3.05 0 5.526-2.497 5.617-5.663v.05l3.35-53.596-3.35-114.84c-.09-3.164-2.567-5.651-5.617-5.651-3.07 0-5.547 2.487-5.637 5.651l-2.944 114.84 2.963 53.571c.071 3.141 2.548 5.638 5.618 5.638zM220.773 308.978l-3.033-110.653c-.073-3.413-2.746-6.094-6.06-6.094-3.323 0-5.997 2.681-6.067 6.117l-2.72 110.631 2.72 53.245c.07 3.386 2.743 6.069 6.067 6.069 3.313 0 5.987-2.683 6.06-6.118v.049l3.033-53.246zM233.271 368.388c3.523 0 6.439-2.93 6.494-6.533v.029l2.753-52.879-2.753-131.674c-.053-3.616-2.97-6.543-6.494-6.543-3.521 0-6.427 2.939-6.501 6.56l-2.447 131.603 2.447 52.934c.073 3.573 2.98 6.503 6.501 6.503zM254.79 158.402c-3.804 0-6.89 3.156-6.953 7.001l-2.843 143.618 2.86 52.098c.046 3.797 3.133 6.943 6.936 6.943 3.746 0 6.89-3.147 6.907-7.006v.063l3.106-52.098-3.106-143.618c-.017-3.859-3.161-7.001-6.907-7.001zM274.466 368.438c.154.014 173.437.096 174.549.096 34.79 0 62.983-28.539 62.983-63.756 0-35.198-28.194-63.742-62.983-63.742a61.99 61.99 0 0 0-24.363 4.961c-4.987-57.465-52.589-102.531-110.664-102.531-14.196 0-28.037 2.836-40.264 7.627-4.76 1.86-6.033 3.779-6.071 7.496v202.307c.056 3.907 3.036 7.154 6.813 7.542z"/></g></svg>