<svg xmlns="http://www.w3.org/2000/svg" viewBox="0 0 456.183 456.183"><path d="M352.531 232.056V40.703H57.925v187.375c0 1.736-.377 3.453-1.105 5.029l-17.672 38.291 63.053-37.645a11.98 11.98 0 0 1 6.149-1.697h244.181zM96.689 84.738h220.847c6.628 0 12 5.373 12 12s-5.372 12-12 12H96.689c-6.627 0-12-5.373-12-12s5.373-12 12-12zm0 89.676c-6.627 0-12-5.373-12-12 0-6.629 5.373-12 12-12h146.469c6.627 0 12 5.371 12 12 0 6.627-5.373 12-12 12H96.689z" fill="none"/><path d="M399.109 355.824V173.457h-22.578v59.334c0 12.828-10.438 23.266-23.266 23.266H112.502v103.346H350.25c2.166 0 4.291.588 6.15 1.697l60.635 36.199-16.82-36.445a11.996 11.996 0 0 1-1.106-5.03zm-105.603-42.953H147.037c-6.627 0-12-5.373-12-12s5.373-12 12-12h146.469c6.627 0 12 5.373 12 12s-5.373 12-12 12z" fill="#73d0f4"/><path d="M455.078 422.451l-31.969-69.264V172.439c0-12.674-10.309-22.982-22.981-22.982h-23.597V39.968c0-12.828-10.438-23.266-23.266-23.266H57.189c-12.828 0-23.265 10.438-23.265 23.266v185.475L1.105 296.552a12 12 0 0 0 17.046 15.332l70.35-42v90.537c0 12.672 10.309 22.98 22.981 22.98h235.456l91.092 54.383a11.97 11.97 0 0 0 6.148 1.695c2.895 0 5.767-1.045 8.027-3.078a11.996 11.996 0 0 0 2.873-13.95zM356.4 361.099a12.006 12.006 0 0 0-6.15-1.697H112.502V256.056h240.764c12.828 0 23.266-10.438 23.266-23.266v-59.334h22.578v182.367c0 1.736.377 3.451 1.105 5.029l16.82 36.445-60.635-36.198zM39.148 271.398l17.672-38.291a11.996 11.996 0 0 0 1.105-5.029V40.703h294.606v191.353H108.35a11.98 11.98 0 0 0-6.149 1.697l-63.053 37.645z" fill="#3d6889"/><path d="M96.689 108.738h220.847c6.628 0 12-5.373 12-12s-5.372-12-12-12H96.689c-6.627 0-12 5.373-12 12s5.373 12 12 12zM255.158 162.414c0-6.629-5.373-12-12-12H96.689c-6.627 0-12 5.371-12 12 0 6.627 5.373 12 12 12h146.469c6.627 0 12-5.373 12-12zM293.506 288.871H147.037c-6.627 0-12 5.373-12 12s5.373 12 12 12h146.469c6.627 0 12-5.373 12-12s-5.373-12-12-12z" fill="#3d6889"/></svg>