<svg xmlns="http://www.w3.org/2000/svg" viewBox="0 0 512.001 512.001"><g fill="#2d527c"><path d="M466.105 307.938c-7.919 0-14.342-6.421-14.342-14.342v-55.214c0-107.945-87.818-195.764-195.764-195.764S60.236 130.437 60.236 238.382v55.214c0 7.921-6.421 14.342-14.342 14.342s-14.342-6.421-14.342-14.342v-55.214c0-59.72 23.41-116.018 65.919-158.528C139.98 37.346 196.28 13.935 256 13.935s116.018 23.411 158.528 65.92c42.509 42.509 65.919 98.808 65.919 158.528v55.214c0 7.92-6.422 14.341-14.342 14.341z"/><path d="M45.954 239.086c-7.921 0-14.342-6.421-14.342-14.342 0-43.916 24.031-84.844 67.664-115.242 42.055-29.299 97.714-45.434 156.723-45.434 32.685 0 64.185 4.882 93.622 14.512 7.529 2.462 11.635 10.561 9.173 18.089-2.464 7.528-10.565 11.635-18.089 9.173-26.556-8.687-55.056-13.09-84.706-13.09-53.202 0-103.036 14.307-140.326 40.286-35.711 24.88-55.377 57.448-55.377 91.708-.001 7.918-6.422 14.34-14.342 14.34zM128.794 498.066h-22.258c-28.886 0-52.386-23.5-52.386-52.386V316.642c0-28.886 23.5-52.386 52.386-52.386h22.26c28.886 0 52.386 23.5 52.386 52.386v16.636c0 7.921-6.421 14.342-14.342 14.342s-14.342-6.421-14.342-14.342v-16.636c0-13.07-10.633-23.702-23.702-23.702h-22.26c-13.07 0-23.702 10.633-23.702 23.702v129.039c0 13.07 10.633 23.702 23.702 23.702h22.26c13.07 0 23.702-10.633 23.702-23.702v-48.742c0-7.921 6.421-14.342 14.342-14.342s14.342 6.421 14.342 14.342v48.742c-.001 28.885-23.503 52.385-52.388 52.385zM405.464 498.066h-22.258c-28.887 0-52.386-23.5-52.386-52.386v-45.235c0-7.921 6.422-14.342 14.342-14.342s14.342 6.421 14.342 14.342v45.235c0 13.07 10.633 23.702 23.702 23.702h22.258c13.07 0 23.702-10.633 23.702-23.702V316.642c0-13.07-10.633-23.702-23.702-23.702h-22.258c-13.07 0-23.702 10.633-23.702 23.702v18.07c0 7.921-6.422 14.342-14.342 14.342s-14.342-6.421-14.342-14.342v-18.07c0-28.886 23.5-52.386 52.386-52.386h22.258c28.887 0 52.386 23.5 52.386 52.386v129.039c0 28.885-23.5 52.385-52.386 52.385z"/></g><path d="M68.491 445.681V316.642c0-9.559 3.534-18.286 9.354-24.969-29.733 3.314-63.503 27.097-63.503 55.963v67.053c0 28.865 33.77 52.647 63.503 55.963-5.821-6.686-9.354-15.414-9.354-24.971z" fill="#cee8fa"/><path d="M77.849 484.991c-.529 0-1.06-.03-1.593-.089C39.43 480.798 0 451.602 0 414.687v-67.052c0-36.917 39.43-66.111 76.256-70.215a14.342 14.342 0 0 1 12.404 23.673 23.672 23.672 0 0 0-5.827 15.549v129.039c0 5.714 2.07 11.235 5.827 15.549a14.343 14.343 0 0 1-10.811 23.761zM54.203 314.274c-14.267 7.907-25.52 20.322-25.52 33.362v67.052c0 13.039 11.252 25.454 25.52 33.362a51.87 51.87 0 0 1-.054-2.368v-129.04a54.84 54.84 0 0 1 .054-2.368z" fill="#2d527c"/><path d="M434.155 291.673c5.821 6.683 9.354 15.41 9.354 24.969v129.039c0 9.559-3.534 18.286-9.354 24.969 29.733-3.314 63.503-27.097 63.503-55.963v-67.053c0-28.864-33.77-52.647-63.503-55.961z" fill="#cee8fa"/><path d="M434.152 484.991a14.34 14.34 0 0 1-12.698-7.686 14.341 14.341 0 0 1 1.887-16.076 23.67 23.67 0 0 0 5.827-15.549V316.642a23.665 23.665 0 0 0-5.827-15.549 14.34 14.34 0 0 1 12.404-23.673c36.827 4.105 76.256 33.298 76.256 70.215v67.052c0 36.915-39.428 66.109-76.255 70.215-.534.06-1.066.089-1.594.089zm23.645-170.717c.034.787.053 1.578.053 2.368v129.039c0 .79-.019 1.58-.053 2.368 14.267-7.908 25.52-20.322 25.52-33.362v-67.052c0-13.039-11.253-25.455-25.52-33.361z" fill="#2d527c"/></svg>