<svg xmlns="http://www.w3.org/2000/svg" viewBox="0 0 512 512"><g fill="#2d527c"><path d="M432.464 512h-37.766c-8.021 0-14.523-6.502-14.523-14.523s6.502-14.523 14.523-14.523h37.766c27.839 0 50.49-22.65 50.49-50.49V79.536c0-27.839-22.65-50.49-50.49-50.49H214.367c-8.021 0-14.523-6.502-14.523-14.523S206.346 0 214.367 0h218.097C476.321 0 512 35.679 512 79.536v352.928C512 476.321 476.321 512 432.464 512zM289.693 512H79.536C35.679 512 0 476.321 0 432.464V79.536C0 35.679 35.679 0 79.536 0h32.684c8.021 0 14.523 6.502 14.523 14.523s-6.502 14.523-14.523 14.523H79.536c-27.839 0-50.49 22.65-50.49 50.49v352.928c0 27.839 22.65 50.49 50.49 50.49h210.157c8.021 0 14.523 6.502 14.523 14.523S297.714 512 289.693 512z"/></g><path d="M402.448 169.183l-37.573-14.314c-7.963-17.818-20.947-30.558-38.881-34.726-52.475-12.195-80.156 37.033-74.518 72.059a64.104 64.104 0 0 0 3.956 14.108c-4.695.562-73.226 7.687-132.133-37.704-4.645-3.578-11.392-.928-12.549 4.822-3.234 16.051-2.402 45.263 35.436 69.081 0 0-7.501.903-16.841-.574-5.962-.943-10.762 4.727-8.797 10.435 5.298 15.384 19.509 38.642 57.205 41.297 0 0-5.482 3.15-15.422 4.758-5.975.966-8.71 8.055-4.9 12.759 8.991 11.101 26.897 25.645 57.978 23.09 0 0 2.216 25.736-88.895 41.628-.004.001 45.784 17.856 100.705 17.856 152.343 0 152.417-127.349 146.611-201.278l28.618-23.297z" fill="#cee8fa"/><path d="M227.216 408.279c-29.812 0-56.906-5.079-74.386-9.34-9.899-2.412-17.861-4.832-22.796-6.435-10.017-3.256-17.255-5.607-18.004-15.505-.566-7.455 4.621-14.121 11.986-15.405 29.363-5.121 47.662-11.071 59.013-16.251-14.512-4.518-27.174-13.027-36.886-25.018-4.817-5.95-6.242-14.01-3.811-21.24-21.532-11.084-31.252-29.598-35.519-41.983-2.361-6.862-1.266-14.472 2.932-20.357a22.508 22.508 0 0 1 3.271-3.661C92.303 208.27 94.12 182.422 96.511 170.56c2.113-10.489 11.392-18.1 22.064-18.1 4.945 0 9.643 1.605 13.586 4.645 38.128 29.379 80.695 34.931 104.678 35.384-2.892-22.019 4.393-46.243 19.265-63.7 13.769-16.161 32.952-25.063 54.014-25.063 6.219 0 12.666.765 19.16 2.274 19.847 4.613 35.696 17.474 46.139 37.348l32.199 12.268a14.523 14.523 0 0 1 3.996 24.835l-22.751 18.517c3.686 54.344 1.386 120.087-39.67 164.495-27.492 29.736-68.531 44.816-121.975 44.816zm-42.023-32.471c12.767 2.01 27.067 3.425 42.024 3.425 45.014 0 78.878-11.941 100.651-35.492 35.351-38.238 35.394-100.316 31.482-150.126a14.521 14.521 0 0 1 5.311-12.401l9.11-7.416-14.066-5.359a14.528 14.528 0 0 1-8.089-7.646c-6.547-14.651-16.275-23.568-28.91-26.505-4.342-1.009-8.576-1.521-12.586-1.521-15.912 0-26.131 8.078-31.904 14.854-9.813 11.52-14.681 28.111-12.403 42.272a49.694 49.694 0 0 0 3.059 10.914 14.52 14.52 0 0 1-11.716 19.921c-1.634.196-7.686.834-16.934.834-25.045 0-71.965-4.671-116.114-34.471.548 13.123 7.266 28.933 29.812 43.125a14.52 14.52 0 1 1-6.001 26.709c-.523.062-3.352.378-7.604.378-.534 0-1.067-.004-1.6-.015 7.905 13.22 21.332 20.571 40.058 21.889a14.522 14.522 0 0 1 6.215 27.08c-.777.446-3.621 1.991-8.333 3.574 7.177 5.571 17.435 10.211 31.684 10.211 1.91 0 3.889-.083 5.88-.247 7.959-.652 14.973 5.259 15.66 13.228.289 3.355 0 15.258-15.839 27.568-7.216 5.61-16.855 10.689-28.847 15.217z" fill="#2d527c"/></svg>