<svg xmlns="http://www.w3.org/2000/svg" viewBox="0 0 504.124 504.124"><path d="M228.431 41.309H31.508C14.178 41.309 0 55.487 0 72.816v133.908c0 17.329 14.178 31.508 31.508 31.508h3.938c4.332 0 19.692 1.969 23.631 6.302 11.815 9.452 3.151 3.938 19.692 17.329-.394-.394 19.692 18.117 19.692 0v-23.631H228.43c17.329 0 31.508-14.178 31.508-31.508V72.816c0-17.329-14.178-31.507-31.507-31.507z" fill="#b8d9f2"/><path d="M169.354 116.14h303.262c17.329 0 31.508 14.178 31.508 31.508v236.308c0 17.329-14.178 31.508-31.508 31.508H311.138c-4.332 0-19.692 1.969-23.631 6.302-11.815 9.452-26.782 19.692-43.323 33.083.394-.394-19.692 18.117-19.692 0v-39.385h-55.138c-17.329 0-31.508-14.178-31.508-31.508V147.647c0-17.329 14.179-31.507 31.508-31.507z" fill="#55acee"/><path d="M409.6 214.207c-6.302 2.757-13.391 4.332-20.48 5.12 7.483-3.938 12.997-10.634 15.754-18.117-6.695 3.938-14.572 6.302-22.449 7.877-6.302-6.302-15.754-10.24-25.994-10.24-19.692 0-35.446 14.572-35.446 32.689 0 2.757.394 5.12.788 7.483-29.538-1.182-55.926-14.572-73.255-34.265-3.151 4.726-4.726 10.634-4.726 16.542 0 11.422 6.302 21.268 15.754 27.175-5.908 0-11.422-1.575-16.148-3.938v.394c0 15.754 12.209 29.145 28.357 32.295a38.832 38.832 0 0 1-9.452 1.182c-2.363 0-4.332-.394-6.695-.788 4.332 12.997 17.723 22.449 33.083 22.843-12.209 8.665-27.569 14.178-44.111 14.178-2.757 0-5.514 0-8.665-.394 15.754 9.452 34.265 14.572 54.351 14.572 65.378 0 101.218-50.018 101.218-93.342v-4.332c7.482-4.725 13.39-10.238 18.116-16.934z" fill="#fff"/></svg>