<svg xmlns="http://www.w3.org/2000/svg" viewBox="0 0 512 512"><path d="M504.783 77.091H303.494a7.218 7.218 0 0 0-7.187 7.915l3.925 40.693a7.22 7.22 0 0 0 6.792 6.516l42.05 2.314-80.736 112.023-88.045-175.41 63.563-2.43a7.217 7.217 0 0 0 6.945-7.121l.464-36.392a7.234 7.234 0 0 0-2.082-5.166 7.225 7.225 0 0 0-5.137-2.147H7.22A7.218 7.218 0 0 0 0 25.107v40.558a7.22 7.22 0 0 0 7.115 7.22l66.917.964 127.257 224.488-.568 140.205-88.48 3.631a7.22 7.22 0 0 0-6.923 7.077l-.716 37.506a7.221 7.221 0 0 0 7.22 7.357h276.762a7.226 7.226 0 0 0 5.239-2.249 7.214 7.214 0 0 0 1.974-5.346l-1.933-37.132a7.218 7.218 0 0 0-6.835-6.834l-76.124-3.992-11.082-136.57 136.656-164.66 55.64-2.53a7.228 7.228 0 0 0 6.587-5.139l12.909-43.018a7.24 7.24 0 0 0 .385-2.332 7.217 7.217 0 0 0-7.217-7.22z" fill="#7f40bd"/></svg>