<svg xmlns="http://www.w3.org/2000/svg" viewBox="0 0 423.614 423.614"><path d="M248.69 62.558C223.826 37.693 190.768 24 155.604 24c-35.162 0-68.219 13.692-93.082 38.556-51.326 51.326-51.326 134.842 0 186.17 24.863 24.863 57.922 38.557 93.084 38.557s68.221-13.693 93.084-38.557c51.326-51.328 51.326-134.843 0-186.168zm-13.184 172.984c-21.342 21.342-49.717 33.098-79.9 33.098s-58.559-11.756-79.9-33.098C54.364 214.199 42.61 185.823 42.61 155.64c0-30.182 11.754-58.559 33.096-79.9 21.342-21.343 49.717-33.097 79.9-33.097s58.559 11.754 79.9 33.097c44.059 44.057 44.059 115.743 0 159.802z" fill="none"/><path d="M218.535 92.709c-16.809-16.81-39.158-26.066-62.93-26.066s-46.121 9.257-62.93 26.066c-16.809 16.81-26.066 39.159-26.066 62.931s9.258 46.121 26.066 62.931c16.809 16.811 39.158 26.069 62.93 26.069s46.121-9.259 62.93-26.069c34.701-34.7 34.701-91.162 0-125.862zm-27.088 74.434h-25.336v25.336c0 6.628-5.371 12-12 12-6.627 0-12-5.372-12-12v-25.336h-25.336c-6.627 0-12-5.373-12-12s5.373-12 12-12h25.336v-25.335c0-6.628 5.373-12 12-12 6.629 0 12 5.372 12 12v25.335h25.336c6.627 0 12 5.373 12 12s-5.373 12-12 12zM290.774 264.933l-12.932-12.949a156.393 156.393 0 0 1-25.989 25.988l11.959 11.925 26.962-24.964z" fill="none"/><path d="M394.397 368.692l-86.652-86.767-26.922 24.929 87.809 87.551c.092.082.18.164.268.249 7.088 6.791 18.502 6.667 25.443-.276 6.941-6.941 7.064-18.357.275-25.449a15.954 15.954 0 0 1-.221-.237z" fill="#73d0f4"/><path d="M235.506 75.739c-21.342-21.343-49.717-33.097-79.9-33.097s-58.559 11.754-79.9 33.097c-21.342 21.342-33.096 49.719-33.096 79.9 0 30.184 11.754 58.56 33.096 79.902s49.717 33.098 79.9 33.098 58.559-11.756 79.9-33.098c44.059-44.058 44.059-115.744 0-159.802zM218.535 218.57c-16.809 16.811-39.158 26.069-62.93 26.069s-46.121-9.259-62.93-26.069c-16.809-16.81-26.066-39.158-26.066-62.931 0-23.771 9.258-46.121 26.066-62.931 16.809-16.81 39.158-26.066 62.93-26.066s46.121 9.257 62.93 26.066c34.701 34.701 34.701 91.163 0 125.862z" fill="#3d6889"/><path d="M412.424 352.83a12.12 12.12 0 0 0-.637-.688l-120.342-120.5c33.123-59.258 24.531-135.738-25.785-186.056C236.264 16.19 197.178 0 155.604 0 114.031 0 74.947 16.188 45.551 45.584c-60.684 60.685-60.684 159.427 0 220.111 29.396 29.396 68.48 45.587 110.055 45.587 27.014 0 52.975-6.842 75.91-19.696l120.598 120.241c.229.228.465.444.707.65 8.029 7.434 18.34 11.137 28.648 11.137 10.84-.001 21.678-4.1 29.844-12.267 15.935-15.934 16.377-42.039 1.111-58.517zm-18.082 41.548c-6.941 6.943-18.355 7.067-25.443.276a9.067 9.067 0 0 0-.268-.249l-87.809-87.551 26.922-24.929 86.652 86.767c.072.079.146.158.221.236 6.789 7.093 6.666 18.508-.275 25.45zM155.606 287.282c-35.162 0-68.221-13.693-93.084-38.557-51.326-51.328-51.326-134.844 0-186.17C87.385 37.692 120.442 24 155.604 24c35.164 0 68.223 13.693 93.086 38.558 51.326 51.325 51.326 134.841 0 186.168-24.864 24.863-57.922 38.556-93.084 38.556zm110.054-21.587a156.393 156.393 0 0 0 12.182-13.712l12.932 12.949-26.961 24.964-11.959-11.925a157.947 157.947 0 0 0 13.806-12.276z" fill="#3d6889"/><path d="M191.447 143.143h-25.336v-25.335c0-6.628-5.371-12-12-12-6.627 0-12 5.372-12 12v25.335h-25.336c-6.627 0-12 5.373-12 12s5.373 12 12 12h25.336v25.336c0 6.628 5.373 12 12 12 6.629 0 12-5.372 12-12v-25.336h25.336c6.627 0 12-5.373 12-12s-5.373-12-12-12z" fill="#3d6889"/></svg>